<?xml version="1.0" encoding="UTF-8" standalone="no"?>
<svg width="48" height="48" version="1.1" xmlns="http://www.w3.org/2000/svg" xmlns:svg="http://www.w3.org/2000/svg" xmlns:xlink="http://www.w3.org/1999/xlink">
	<!--
		Name:		fiATR20
		Version:	0.1

		Author(s): Gordon Molek, Klas Malmström, Alan Bills
		Tester(s): Alan Bills, Alan Cannamore, Doug Rimmer
	-->

	<!-- The bevel - is there a better/more efficient way to achieve this? -->
	<defs id="bevel">
		<filter id="highlight_filter" x="-0.058226637" y="-0.058226637" width="1.1144796" height="1.1144796" style="color-interpolation-filters:sRGB;">
			<feGaussianBlur stdDeviation="10 10" result="fbSourceGraphic" id="feGaussianBlur3"/>
			<feColorMatrix result="fbSourceGraphicAlpha" in="fbSourceGraphic" values="0 0 0 -1 0 0 0 0 -1 0 0 0 0 -1 0 0 0 0 1 0" id="feColorMatrix3"/>
			<feGaussianBlur id="feGaussianBlur4" stdDeviation="10 10" result="blur" in="fbSourceGraphic"/>
		</filter>
		<filter id="shadow_filter" x="-0.030508946" y="-0.030508946" width="1.0629916" height="1.0629916" style="color-interpolation-filters:sRGB;">
			<feGaussianBlur id="feGaussianBlur5" stdDeviation="10 10" result="blur"/>
		</filter>
		<clipPath id="counter_clipping">
			<rect x="0" y="0" width="100%" height="100%" ry="4" rx="4" style="display:inline;fill:red;fill-opacity:1;stroke:none;stroke-width:0;stroke-dasharray:none;stroke-dashoffset:0;stroke-opacity:0"/>
		</clipPath>
	</defs>
	<g id="background">
		<rect id="color" x="0" y="0" width="100%" height="100%" ry="4" rx="4" style="display:inline;fill:#ced3d3;fill-opacity:1;stroke:none;stroke-width:0;stroke-dasharray:none;stroke-dashoffset:0;stroke-opacity:0"/>
		<g id="bevel" clip-path="url(#counter_clipping)">
			<path id="shadow" style="display:inline;fill:none;stroke:#000000;stroke-width:25.1286;filter:url(#shadow_filter);stroke-opacity:50" d="m 1023.6424,120.45592 c 10.8149,10.81495 17.4864,25.7734 17.4864,42.34736 v 830.07515 c 0,33.14797 -26.6859,59.83377 -59.83378,59.83377 H 151.21981 c -16.57396,0 -31.54851,-6.6875 -42.34737,-17.4864" transform="matrix(1.0503456,0,0,1.0590455,-36.912259,-39.56161) scale(0.06) translate(290,310)"/>
			<path id="highlight" style="display:inline;fill:none;stroke:#ffffff;stroke-width:25.1286;stroke-opacity:50;filter:url(#highlight_filter)" d="M 108.87244,1035.2258 C 98.057485,1024.4109 91.386017,1009.4524 91.386017,992.87843 V 162.80328 c 0,-33.14792 26.685873,-59.83379 59.833793,-59.83379 h 830.07521 c 16.57394,0 31.53238,6.67147 42.34738,17.48643" transform="matrix(1.0387133,0,0,1.0339712,-12.412385,-8.9484139) scale(0.06) translate(118,54)"/>
		</g>
	</g>
	<!-- Unit Depiction -->
	<image x="0" y="0" width="100%" height="100%" preserveAspectRatio="xMidYMid meet" transform="scale(1.00)" href="svg/fiATR20.png" xlink:href="svg/fiATR20.png"/>
	<text x="44.5" y="11" style="font-size:11px;font-style:normal;font-variant:normal;font-weight:bold;font-stretch:normal;text-anchor:end;fill:black;fill-opacity:1;font-family:Nimbus Sans L">ATR</text>
	<text x="44.5" y="42.0" style="font-size:11px;font-style:normal;font-variant:normal;font-weight:bold;font-stretch:normal;text-anchor:end;fill:black;fill-opacity:1;font-family:Nimbus Sans L">1-12</text>
	<text x="32.00" y="24.00" style="font-size:8px;font-style:normal;font-variant:normal;font-weight:bold;font-stretch:normal;text-anchor:middle;fill:black;fill-opacity:1;font-family:Nimbus Sans L" transform="rotate(-90,32,24)">4PP</text>
	<!-- ROF -->
	<svg x="33.00" y="14.00" width="12.00" height="12.00" style="overflow:visible">
		<rect x="1" y="1" width="10.5" height="10.5" style="display:inline;fill:none;fill-opacity:0.0;stroke:black;stroke-width:0.75;stroke-dasharray:none;stroke-opacity:1"/>
		<text x="50%" y="80%" style="font-size:9px;font-style:normal;font-variant:normal;font-weight:bold;text-anchor:middle;fill:black;fill-opacity:1;font-family:Nimbus Sans L">1</text>
	</svg>
	<text x="10.00" y="36.00" style="font-size:8px;font-style:normal;font-variant:normal;font-weight:bold;font-stretch:normal;text-anchor:middle;fill:black;fill-opacity:1;font-family:Nimbus Sans L" transform="rotate(-90,10,34)">*<tspan style="text-decoration:underline">20</tspan>L</text>
	<text x="10.00" y="16.00" style="font-size:6px;font-style:normal;font-variant:normal;font-weight:normal;font-stretch:normal;text-anchor:middle;fill:black;fill-opacity:1;font-family:Nimbus Sans L" transform="rotate(-90,10,16)">Lahti</text>
</svg>
