<?xml version="1.0" encoding="UTF-8" standalone="no"?>
<svg width="60" height="60" version="1.1" xmlns="http://www.w3.org/2000/svg" xmlns:svg="http://www.w3.org/2000/svg" xmlns:xlink="http://www.w3.org/1999/xlink">
	<!--
		Name:		FanStr0
		Version:	0.1

		Author(s): Gordon Molek, Klas Malmström, Alan Bills
		Tester(s): Alan Bills, Alan Cannamore, Doug Rimmer
		Counter data scraped with permission from: https://www.klasm.com/ASL/Listings/OrdnanceListings.html
	-->

	<!-- The bevel - is there a better/more efficient way to achieve this? -->
	<defs id="bevel">
		<filter id="highlight_filter" x="-0.058226637" y="-0.058226637" width="1.1144796" height="1.1144796" style="color-interpolation-filters:sRGB;">
			<feGaussianBlur stdDeviation="10 10" result="fbSourceGraphic" id="feGaussianBlur3"/>
			<feColorMatrix result="fbSourceGraphicAlpha" in="fbSourceGraphic" values="0 0 0 -1 0 0 0 0 -1 0 0 0 0 -1 0 0 0 0 1 0" id="feColorMatrix3"/>
			<feGaussianBlur id="feGaussianBlur4" stdDeviation="10 10" result="blur" in="fbSourceGraphic"/>
		</filter>
		<filter id="shadow_filter" x="-0.030508946" y="-0.030508946" width="1.0629916" height="1.0629916" style="color-interpolation-filters:sRGB;">
			<feGaussianBlur id="feGaussianBlur5" stdDeviation="10 10" result="blur"/>
		</filter>
		<clipPath id="counter_clipping">
			<rect x="0" y="0" width="100%" height="100%" ry="4" rx="4" style="display:inline;fill:red;fill-opacity:1;stroke:none;stroke-width:0;stroke-dasharray:none;stroke-dashoffset:0;stroke-opacity:0"/>
		</clipPath>
	</defs>
	<g id="background">
		<rect id="color" x="0" y="0" width="100%" height="100%" ry="4" rx="4" style="display:inline;fill:#63ff63;fill-opacity:1;stroke:none;stroke-width:0;stroke-dasharray:none;stroke-dashoffset:0;stroke-opacity:0"/>
		<g id="bevel" clip-path="url(#counter_clipping)">
			<path id="shadow" style="display:inline;fill:none;stroke:#000000;stroke-width:25.1286;filter:url(#shadow_filter);stroke-opacity:50" d="m 1023.6424,120.45592 c 10.8149,10.81495 17.4864,25.7734 17.4864,42.34736 v 830.07515 c 0,33.14797 -26.6859,59.83377 -59.83378,59.83377 H 151.21981 c -16.57396,0 -31.54851,-6.6875 -42.34737,-17.4864" transform="matrix(1.0503456,0,0,1.0590455,-36.912259,-39.56161) scale(0.06) translate(490,500)"/>
			<path id="highlight" style="display:inline;fill:none;stroke:#ffffff;stroke-width:25.1286;stroke-opacity:50;filter:url(#highlight_filter)" d="M 108.87244,1035.2258 C 98.057485,1024.4109 91.386017,1009.4524 91.386017,992.87843 V 162.80328 c 0,-33.14792 26.685873,-59.83379 59.833793,-59.83379 h 830.07521 c 16.57394,0 31.53238,6.67147 42.34738,17.48643" transform="matrix(1.0387133,0,0,1.0339712,-12.412385,-8.9484139) scale(0.06) translate(118,54)"/>
		</g>
	</g>

    <path id="Fortified" style="fill:#000000" d="M 2,48 V 38 H 3.5 5 v 8.5 8.5 h 8 8 V 56.5 58 H 11.5 2 Z m 37,8.5 V 55 h 8 8 V 46.5 38 H 56.5 58 V 48 58 H 48.5 39 Z M 2,12 V 2 H 11.5 21 V 3.5 5 H 13 5 V 13.5 22 H 3.5 2 Z m 53,1.5 V 5 H 47 39 V 3.5 2 H 48.5 58 V 12 22 H 56.5 55 Z"/>

	<text x="50%" y="20" style="font-size:11px;font-style:normal;font-variant:normal;font-weight:normal;font-stretch:normal;text-anchor:middle;fill:#000000;fill-opacity:1;font-family:Nimbus Sans L">Fanatic</text>
	<text x="50%" y="33" style="font-size:11px;font-style:normal;font-variant:normal;font-weight:normal;font-stretch:normal;text-anchor:middle;fill:#000000;fill-opacity:1;font-family:Nimbus Sans L">Strongpoint</text>
	<line x1="10" y1="40" x2="50" y2="40" style="stroke:black;stroke-width:1.50"/>
	<text x="50%" y="51" style="font-size:9px;font-style:normal;font-variant:normal;font-weight:bold;font-stretch:normal;text-anchor:middle;fill:#000000;fill-opacity:1;font-family:Nimbus Sans L">+1 ML</text>
</svg>
