<?xml version="1.0" encoding="UTF-8" standalone="no"?>
<svg width="60" height="60" version="1.1" xmlns="http://www.w3.org/2000/svg" xmlns:svg="http://www.w3.org/2000/svg" xmlns:xlink="http://www.w3.org/1999/xlink">
	<!--
		Name:		Lev1
		Version:	0.1

		Author(s): Gordon Molek, Klas Malmström, Alan Bills
		Tester(s): Alan Bills, Alan Cannamore, Doug Rimmer
		Counter data scraped with permission from: https://www.klasm.com/ASL/Listings/OrdnanceListings.html
	-->

	<!-- The bevel - is there a better/more efficient way to achieve this? -->
	<defs id="bevel">
		<filter id="highlight_filter" x="-0.058226637" y="-0.058226637" width="1.1144796" height="1.1144796" style="color-interpolation-filters:sRGB;">
			<feGaussianBlur stdDeviation="10 10" result="fbSourceGraphic" id="feGaussianBlur3"/>
			<feColorMatrix result="fbSourceGraphicAlpha" in="fbSourceGraphic" values="0 0 0 -1 0 0 0 0 -1 0 0 0 0 -1 0 0 0 0 1 0" id="feColorMatrix3"/>
			<feGaussianBlur id="feGaussianBlur4" stdDeviation="10 10" result="blur" in="fbSourceGraphic"/>
		</filter>
		<filter id="shadow_filter" x="-0.030508946" y="-0.030508946" width="1.0629916" height="1.0629916" style="color-interpolation-filters:sRGB;">
			<feGaussianBlur id="feGaussianBlur5" stdDeviation="10 10" result="blur"/>
		</filter>
		<clipPath id="counter_clipping">
			<rect x="0" y="0" width="100%" height="100%" ry="4" rx="4" style="display:inline;fill:red;fill-opacity:1;stroke:none;stroke-width:0;stroke-dasharray:none;stroke-dashoffset:0;stroke-opacity:0"/>
		</clipPath>
	</defs>
	<g id="background">
		<rect id="color" x="0" y="0" width="100%" height="100%" ry="4" rx="4" style="display:inline;fill:#c5c6c5;fill-opacity:1;stroke:none;stroke-width:0;stroke-dasharray:none;stroke-dashoffset:0;stroke-opacity:0"/>
		<g id="bevel" clip-path="url(#counter_clipping)">
			<path id="shadow" style="display:inline;fill:none;stroke:#000000;stroke-width:25.1286;filter:url(#shadow_filter);stroke-opacity:50" d="m 1023.6424,120.45592 c 10.8149,10.81495 17.4864,25.7734 17.4864,42.34736 v 830.07515 c 0,33.14797 -26.6859,59.83377 -59.83378,59.83377 H 151.21981 c -16.57396,0 -31.54851,-6.6875 -42.34737,-17.4864" transform="matrix(1.0503456,0,0,1.0590455,-36.912259,-39.56161) scale(0.06) translate(490,500)"/>
			<path id="highlight" style="display:inline;fill:none;stroke:#ffffff;stroke-width:25.1286;stroke-opacity:50;filter:url(#highlight_filter)" d="M 108.87244,1035.2258 C 98.057485,1024.4109 91.386017,1009.4524 91.386017,992.87843 V 162.80328 c 0,-33.14792 26.685873,-59.83379 59.833793,-59.83379 h 830.07521 c 16.57394,0 31.53238,6.67147 42.34738,17.48643" transform="matrix(1.0387133,0,0,1.0339712,-12.412385,-8.9484139) scale(0.06) translate(118,54)"/>
		</g>
	</g>

	<path id="Floor pattern" style="fill:#000000" d="M 3,30 V 3 H 30 57 V 30 57 H 30 3 Z M 7,50 V 44.333333 H 5.6666667 4.3333333 V 50 55.666667 H 5.6666667 7 Z m 3.666667,4 V 52.333333 H 9.3333333 8 V 54 55.666667 H 9.3333333 10.666667 Z M 14,48 V 40.333333 H 12.833333 11.666667 V 48 55.666667 H 12.833333 14 Z m 3.333333,6.333333 C 17.333333,53.031746 17.305556,53 16.166667,53 15.027778,53 15,53.031746 15,54.333333 c 0,1.301588 0.02778,1.333334 1.166667,1.333334 1.138889,0 1.166666,-0.03175 1.166666,-1.333334 z M 21,49.5 V 43.333333 H 19.666667 18.333333 V 49.5 55.666667 H 19.666667 21 Z m 3.333333,2.666667 v -3.5 H 23.166667 22 v 3.5 3.5 h 1.166667 1.166666 z M 27.666667,47 V 38.333333 H 26.5 25.333333 V 47 55.666667 H 26.5 27.666667 Z m 3.666666,8 c 0,-0.555556 -0.222222,-0.666667 -1.333333,-0.666667 -1.111111,0 -1.333333,0.111111 -1.333333,0.666667 0,0.555556 0.222222,0.666667 1.333333,0.666667 1.111111,0 1.333333,-0.111111 1.333333,-0.666667 z m 3.333334,-7.166667 V 40 H 33.5 32.333333 v 7.833333 7.833334 H 33.5 34.666667 Z m 4,5.5 V 51 h -1.5 -1.5 v 2.333333 2.333334 h 1.5 1.5 z m 3.666666,-5.166666 v -7.5 H 41 39.666667 v 7.5 7.5 H 41 42.333333 Z m 3.333334,3.166666 V 47 H 44.5 43.333333 v 4.333333 4.333334 H 44.5 45.666667 Z m 3.333333,3 C 49,53.031746 48.972222,53 47.833333,53 c -1.138889,0 -1.166666,0.03175 -1.166666,1.333333 0,1.301588 0.02778,1.333334 1.166666,1.333334 1.138889,0 1.166667,-0.03175 1.166667,-1.333334 z m 3.666667,-4.166666 v -5.5 H 51.333333 50 v 5.5 5.5 h 1.333333 1.333334 z m 3,-4.333334 V 36 h -1 -1 v 9.833333 9.833334 h 1 1 z M 31.333333,43.666667 V 34 H 30 28.666667 v 9.666667 9.666666 H 30 31.333333 Z M 17.333333,42 V 32 H 16.166667 15 v 10 10 h 1.166667 1.166666 z M 49,43.166667 V 34.333333 H 47.833333 46.666667 V 43.166667 52 H 47.833333 49 Z m -38.333333,0 V 35 H 9.3333333 8 v 8.166667 8.166666 h 1.3333333 1.3333337 z m 28,-2 v -8.833334 h -1.5 -1.5 V 41.166667 50 h 1.5 1.5 z m -14.333334,-1.5 v -8 H 23.166667 22 v 8 8 h 1.166667 1.166666 z M 45.666667,38 V 30 H 44.5 43.333333 v 8 8 H 44.5 45.666667 Z m 7,-3.333333 v -9 H 51.333333 50 v 9 9 h 1.333333 1.333334 z M 7,34 V 24.666667 H 5.6666667 4.3333333 V 34 43.333333 H 5.6666667 7 Z m 14,0.833333 v -7.5 h -1.333333 -1.333334 v 7.5 7.5 H 19.666667 21 Z m 21.333333,-5.166666 v -10 H 41 39.666667 v 10 10 H 41 42.333333 Z M 14,29 V 18.666667 H 12.833333 11.666667 V 29 39.333333 H 12.833333 14 Z m 20.666667,0 V 19 H 33.5 32.333333 V 29 39 H 33.5 34.666667 Z m -7,-1.833333 V 17 H 26.5 25.333333 V 27.166667 37.333333 H 26.5 27.666667 Z m 28,-0.5 v -8.333334 h -1 -1 V 26.666667 35 h 1 1 z m -45,-2.166667 V 15 H 9.3333333 8 V 24.5 34 H 9.3333333 10.666667 Z M 49,24.166667 V 15 h -1.166667 -1.166666 v 9.166667 9.166666 H 47.833333 49 Z M 31.333333,23.333333 V 13.666667 H 30 28.666667 V 23.333333 33 H 30 31.333333 Z M 38.666667,22 v -9.333333 h -1.5 -1.5 V 22 31.333333 h 1.5 1.5 z M 17.333333,20.666667 V 10.333333 H 16.166667 15 V 20.666667 31 h 1.166667 1.166666 z m 7,-1.166667 V 8.3333333 H 23.166667 22 V 19.5 30.666667 h 1.166667 1.166666 z m 21.333334,0 V 10 H 44.5 43.333333 V 19.5 29 H 44.5 45.666667 Z M 21,20.333333 v -6 h -1.333333 -1.333334 v 6 6 H 19.666667 21 Z m 31.666667,-4.5 V 7 H 51.333333 50 v 8.833333 8.833334 h 1.333333 1.333334 z M 7,16.333333 V 9 H 5.6666667 4.3333333 v 7.333333 7.333334 H 5.6666667 7 Z M 42.333333,11.5 V 4.3333333 H 41 39.666667 V 11.5 18.666667 H 41 42.333333 Z m -7.666666,0.833333 V 6.6666667 H 33.5 32.333333 V 12.333333 18 H 33.5 34.666667 Z M 14,11 V 4.3333333 H 12.833333 11.666667 V 11 17.666667 H 12.833333 14 Z M 55.666667,10.833333 V 4.3333333 h -1 -1 v 6.4999997 6.5 h 1 1 z m -28,-0.666666 V 4.3333333 H 26.5 25.333333 V 10.166667 16 H 26.5 27.666667 Z m -17,-1.0000003 V 4.3333333 H 9.3333333 8 V 9.1666667 14 h 1.3333333 1.3333337 z m 38.333333,0 V 4.3333333 H 47.833333 46.666667 V 9.1666667 14 H 47.833333 49 Z M 21,8.8333333 v -4.5 h -1.333333 -1.333334 v 4.5 4.4999997 H 19.666667 21 Z M 31.333333,8.5 V 4.3333333 H 30 28.666667 V 8.5 12.666667 H 30 31.333333 Z M 38.666667,8 V 4.3333333 h -1.5 -1.5 V 8 11.666667 h 1.5 1.5 z M 17.333333,6.8333333 v -2.5 H 16.166667 15 v 2.5 2.5 h 1.166667 1.166666 z M 45.666667,6.6666667 V 4.3333333 H 44.5 43.333333 V 6.6666667 9 H 44.5 45.666667 Z M 7,6.1666667 V 4.3333333 H 5.6666667 4.3333333 V 6.1666667 8 H 5.6666667 7 Z M 24.333333,5.8333333 c 0,-1.4920635 -0.0062,-1.5 -1.166666,-1.5 -1.160494,0 -1.166667,0.00794 -1.166667,1.5 0,1.4920635 0.0062,1.5 1.166667,1.5 1.160493,0 1.166666,-0.00794 1.166666,-1.5 z M 52.666667,5.1666667 c 0,-0.75 -0.133334,-0.8333334 -1.333334,-0.8333334 C 50.133333,4.3333333 50,4.4166667 50,5.1666667 50,5.9166667 50.133333,6 51.333333,6 c 1.2,0 1.333334,-0.083333 1.333334,-0.8333333 z M 34.666667,5 c 0,-0.5396825 -0.222223,-0.6666667 -1.166667,-0.6666667 -0.944444,0 -1.166667,0.1269842 -1.166667,0.6666667 0,0.5396825 0.222223,0.6666667 1.166667,0.6666667 0.944444,0 1.166667,-0.1269842 1.166667,-0.6666667 z"/>

	<rect id="color" x="8" y="23.5" width="44" height="13" ry="0" rx="0" style="display:inline;fill:#c5c6c5;fill-opacity:1;stroke:none;stroke-width:0;stroke-dasharray:none;stroke-dashoffset:0;stroke-opacity:0" transform="rotate(-45,30,31)"/>	
	<text x="30" y="34" style="font-size:12px;font-style:normal;font-variant:normal;font-weight:normal;font-stretch:normal;text-anchor:middle;fill:#000000;fill-opacity:1;font-family:Nimbus Sans L" transform="rotate(-44,30,31)">Level 1</text>
</svg>
