<?xml version="1.0" encoding="UTF-8" standalone="no"?>
<svg width="60" height="60" version="1.1" xmlns="http://www.w3.org/2000/svg" xmlns:svg="http://www.w3.org/2000/svg" xmlns:xlink="http://www.w3.org/1999/xlink">
	<!--
		Name:		LevRoof
		Version:	0.1

		Author(s): Gordon Molek, Klas Malmström, Alan Bills
		Tester(s): Alan Bills, Alan Cannamore, Doug Rimmer
		Counter data scraped with permission from: https://www.klasm.com/ASL/Listings/OrdnanceListings.html
	-->

	<!-- The bevel - is there a better/more efficient way to achieve this? -->
	<defs id="bevel">
		<filter id="highlight_filter" x="-0.058226637" y="-0.058226637" width="1.1144796" height="1.1144796" style="color-interpolation-filters:sRGB;">
			<feGaussianBlur stdDeviation="10 10" result="fbSourceGraphic" id="feGaussianBlur3"/>
			<feColorMatrix result="fbSourceGraphicAlpha" in="fbSourceGraphic" values="0 0 0 -1 0 0 0 0 -1 0 0 0 0 -1 0 0 0 0 1 0" id="feColorMatrix3"/>
			<feGaussianBlur id="feGaussianBlur4" stdDeviation="10 10" result="blur" in="fbSourceGraphic"/>
		</filter>
		<filter id="shadow_filter" x="-0.030508946" y="-0.030508946" width="1.0629916" height="1.0629916" style="color-interpolation-filters:sRGB;">
			<feGaussianBlur id="feGaussianBlur5" stdDeviation="10 10" result="blur"/>
		</filter>
		<clipPath id="counter_clipping">
			<rect x="0" y="0" width="100%" height="100%" ry="4" rx="4" style="display:inline;fill:red;fill-opacity:1;stroke:none;stroke-width:0;stroke-dasharray:none;stroke-dashoffset:0;stroke-opacity:0"/>
		</clipPath>
	</defs>
	<g id="background">
		<rect id="color" x="0" y="0" width="100%" height="100%" ry="4" rx="4" style="display:inline;fill:#ff0000;fill-opacity:1;stroke:none;stroke-width:0;stroke-dasharray:none;stroke-dashoffset:0;stroke-opacity:0"/>
		<g id="bevel" clip-path="url(#counter_clipping)">
			<path id="shadow" style="display:inline;fill:none;stroke:#000000;stroke-width:25.1286;filter:url(#shadow_filter);stroke-opacity:50" d="m 1023.6424,120.45592 c 10.8149,10.81495 17.4864,25.7734 17.4864,42.34736 v 830.07515 c 0,33.14797 -26.6859,59.83377 -59.83378,59.83377 H 151.21981 c -16.57396,0 -31.54851,-6.6875 -42.34737,-17.4864" transform="matrix(1.0503456,0,0,1.0590455,-36.912259,-39.56161) scale(0.06) translate(490,500)"/>
			<path id="highlight" style="display:inline;fill:none;stroke:#ffffff;stroke-width:25.1286;stroke-opacity:50;filter:url(#highlight_filter)" d="M 108.87244,1035.2258 C 98.057485,1024.4109 91.386017,1009.4524 91.386017,992.87843 V 162.80328 c 0,-33.14792 26.685873,-59.83379 59.833793,-59.83379 h 830.07521 c 16.57394,0 31.53238,6.67147 42.34738,17.48643" transform="matrix(1.0387133,0,0,1.0339712,-12.412385,-8.9484139) scale(0.06) translate(118,54)"/>
		</g>
	</g>

    <path id="Floor pattern" style="fill:#000000" d="M 3,30 V 3 H 30 57 V 30 57 H 30 3 Z m 52.666667,0 V 4.3333333 H 30 4.3333333 V 30 55.666667 H 30 55.666667 Z M 8,49 C 8,46.555556 7.9074074,46 7.5,46 7.0925926,46 7,45.444444 7,43 7,40.555556 7.0925926,40 7.5,40 7.9375,40 8,38 8,24 V 8 H 21.666667 35.333333 V 6.8333333 5.6666667 h 6 6 V 6.8333333 8 H 49.666667 52 V 30 52 H 30 8 Z m 6.666667,-7.5 c 0,-4.777778 -0.120988,-7.5 -0.333334,-7.5 C 14.125926,34 14,32.111111 14,29 c 0,-3.111111 0.125926,-5 0.333333,-5 0.197531,0 0.333334,-1.222222 0.333334,-3 0,-2.993359 -0.0019,-3 -0.849887,-3 -0.467438,0 -1.292438,-0.228852 -1.833333,-0.50856 L 11,16.98288 V 19.99144 23 h 1 1 v 6 6 h -1 -1 v 7 7 h 1.833333 1.833334 z M 23,30 V 11 h -2.666667 c -1.466666,0 -2.666666,0.08486 -2.666666,0.18858 0,0.10372 0.165,0.496886 0.366666,0.873704 0.857256,1.601797 -0.151088,4.945989 -1.633217,5.416595 -0.521514,0.165592 -0.572624,1.431554 -0.639916,15.850543 L 15.687066,49 H 19.343533 23 Z m 8,0 V 11 H 27.666667 24.333333 V 30 49 H 27.666667 31 Z m 7,0 V 11 h -3 -3 v 19 19 h 3 3 z m 6,0 V 11 H 41.833333 39.666667 V 30 49 H 41.833333 44 Z m 6,0 V 11 H 47.666667 45.333333 V 30 49 H 47.666667 50 Z M 12,29 c 0,-4.222222 -0.07778,-5 -0.5,-5 -0.422222,0 -0.5,0.777778 -0.5,5 0,4.222222 0.07778,5 0.5,5 0.422222,0 0.5,-0.777778 0.5,-5 z m 4.181818,-13.151515 c 1.097497,-1.097497 1.097822,-2.782733 7.65e-4,-3.966477 -1.811094,-1.9542037 -4.84925,-0.71004 -4.84925,1.98583 0,2.466341 3.097455,3.731677 4.848485,1.980647 z m -2.777427,-2.376339 c -0.711409,-1.271218 0.379275,-2.456441 1.639734,-1.781864 1.024742,0.548425 0.723035,2.112158 -0.433321,2.245875 -0.570524,0.06597 -1.002881,-0.10032 -1.206413,-0.464011 z M 46.666667,8 V 6.3333333 H 41.333333 36 V 8 9.6666667 h 5.333333 5.333334 z m -10,0 V 7 H 41.333333 46 v 1 1 h -4.666667 -4.666666 z"/>	

	<rect id="color" x="14" y="12" width="32" height="13" ry="0" rx="0" style="display:inline;fill:#ff0000;fill-opacity:1;stroke:none;stroke-width:0;stroke-dasharray:none;stroke-dashoffset:0;stroke-opacity:0"/>	
	<text x="50%" y="22.50" style="font-size:12px;font-style:normal;font-variant:normal;font-weight:normal;font-stretch:normal;text-anchor:middle;fill:#000000;fill-opacity:1;font-family:Nimbus Sans L">Roof</text>
	
	<rect id="color" x="10" y="33" width="40" height="12" ry="0" rx="0" style="display:inline;fill:#ff0000;fill-opacity:1;stroke:none;stroke-width:0;stroke-dasharray:none;stroke-dashoffset:0;stroke-opacity:0"/>	
	<text x="50%" y="42.50" style="font-size:10px;font-style:normal;font-variant:normal;font-weight:normal;font-stretch:normal;text-anchor:middle;fill:#000000;fill-opacity:1;font-family:Nimbus Sans L">No TEM</text>
</svg>
