<?xml version="1.0" encoding="UTF-8" standalone="no"?>
<svg width="60" height="60" version="1.1" xmlns="http://www.w3.org/2000/svg" xmlns:svg="http://www.w3.org/2000/svg" xmlns:xlink="http://www.w3.org/1999/xlink">
	<!--
		Name:		Steeple1
		Version:	0.1

		Author(s): Gordon Molek, Klas Malmström, Alan Bills
		Tester(s): Alan Bills, Alan Cannamore, Doug Rimmer
		Counter data scraped with permission from: https://www.klasm.com/ASL/Listings/OrdnanceListings.html
	-->

	<!-- The bevel - is there a better/more efficient way to achieve this? -->
	<defs id="bevel">
		<filter id="highlight_filter" x="-0.058226637" y="-0.058226637" width="1.1144796" height="1.1144796" style="color-interpolation-filters:sRGB;">
			<feGaussianBlur stdDeviation="10 10" result="fbSourceGraphic" id="feGaussianBlur3"/>
			<feColorMatrix result="fbSourceGraphicAlpha" in="fbSourceGraphic" values="0 0 0 -1 0 0 0 0 -1 0 0 0 0 -1 0 0 0 0 1 0" id="feColorMatrix3"/>
			<feGaussianBlur id="feGaussianBlur4" stdDeviation="10 10" result="blur" in="fbSourceGraphic"/>
		</filter>
		<filter id="shadow_filter" x="-0.030508946" y="-0.030508946" width="1.0629916" height="1.0629916" style="color-interpolation-filters:sRGB;">
			<feGaussianBlur id="feGaussianBlur5" stdDeviation="10 10" result="blur"/>
		</filter>
		<clipPath id="counter_clipping">
			<rect x="0" y="0" width="100%" height="100%" ry="4" rx="4" style="display:inline;fill:red;fill-opacity:1;stroke:none;stroke-width:0;stroke-dasharray:none;stroke-dashoffset:0;stroke-opacity:0"/>
		</clipPath>
	</defs>
	<g id="background">
		<rect id="color" x="0" y="0" width="100%" height="100%" ry="4" rx="4" style="display:inline;fill:#c5c6c5;fill-opacity:1;stroke:none;stroke-width:0;stroke-dasharray:none;stroke-dashoffset:0;stroke-opacity:0"/>
		<g id="bevel" clip-path="url(#counter_clipping)">
			<path id="shadow" style="display:inline;fill:none;stroke:#000000;stroke-width:25.1286;filter:url(#shadow_filter);stroke-opacity:50" d="m 1023.6424,120.45592 c 10.8149,10.81495 17.4864,25.7734 17.4864,42.34736 v 830.07515 c 0,33.14797 -26.6859,59.83377 -59.83378,59.83377 H 151.21981 c -16.57396,0 -31.54851,-6.6875 -42.34737,-17.4864" transform="matrix(1.0503456,0,0,1.0590455,-36.912259,-39.56161) scale(0.06) translate(490,500)"/>
			<path id="highlight" style="display:inline;fill:none;stroke:#ffffff;stroke-width:25.1286;stroke-opacity:50;filter:url(#highlight_filter)" d="M 108.87244,1035.2258 C 98.057485,1024.4109 91.386017,1009.4524 91.386017,992.87843 V 162.80328 c 0,-33.14792 26.685873,-59.83379 59.833793,-59.83379 h 830.07521 c 16.57394,0 31.53238,6.67147 42.34738,17.48643" transform="matrix(1.0387133,0,0,1.0339712,-12.412385,-8.9484139) scale(0.06) translate(118,54)"/>
		</g>
	</g>
	
	<svg x="4.00" y="4.00" width="28.00" height="52.00">
		<path style=" stroke:none;fill-rule:nonzero;fill:rgb(0%,0%,0%);fill-opacity:1;" d="M 1.828125 50.816406 C 1.828125 50.691406 1.960938 50.484375 2.128906 50.347656 L 2.433594 50.097656 L 2.488281 44.027344 L 2.546875 37.953125 L 1.503906 36.890625 C -0.0703125 35.28125 0.136719 34.667969 2.289062 34.546875 L 3.539062 34.480469 L 3.929688 33.691406 C 4.140625 33.261719 4.941406 31.289062 5.707031 29.3125 C 7.789062 23.925781 11.339844 14.601562 12.210938 12.234375 L 12.976562 10.144531 L 13.011719 8.835938 C 13.035156 8.113281 13.039062 6.894531 13.03125 6.121094 L 13.011719 4.71875 L 10.5 4.71875 L 10.5 4.3125 C 10.5 3.648438 10.984375 3.371094 12.144531 3.371094 L 13.238281 3.371094 L 13.238281 0.449219 L 13.582031 0.414062 C 13.769531 0.398438 14.054688 0.371094 14.210938 0.359375 L 14.496094 0.335938 L 14.519531 0.898438 C 14.535156 1.207031 14.558594 1.890625 14.578125 2.414062 L 14.609375 3.371094 L 15.578125 3.371094 C 16.71875 3.375 17 3.527344 17.175781 4.210938 L 17.304688 4.71875 L 17.042969 4.738281 C 16.898438 4.746094 16.300781 4.742188 15.714844 4.722656 L 14.652344 4.6875 L 14.496094 6.554688 C 14.191406 10.121094 14.453125 11.265625 17.6875 20.664062 C 20.238281 28.070312 20.925781 29.910156 21.195312 30.082031 C 21.304688 30.152344 21.566406 31.019531 21.773438 32.007812 C 21.976562 32.996094 22.324219 34.535156 22.542969 35.425781 L 22.941406 37.042969 L 25.496094 38.988281 L 25.199219 39.261719 C 25.035156 39.410156 24.613281 39.535156 24.265625 39.535156 C 23.914062 39.539062 23.472656 39.636719 23.285156 39.753906 L 22.941406 39.964844 L 22.871094 45.476562 L 22.796875 50.988281 L 22.308594 50.988281 L 22.441406 45.820312 L 22.574219 40.65625 L 22.042969 40.65625 C 21.753906 40.65625 21.386719 40.503906 21.230469 40.320312 C 21.074219 40.132812 20.84375 39.980469 20.71875 39.980469 L 20.492188 39.980469 L 20.59375 40.65625 C 20.707031 41.421875 20.652344 41.464844 20.171875 40.992188 C 19.980469 40.808594 19.921875 40.65625 20.042969 40.65625 C 20.441406 40.65625 20.203125 39.78125 19.664062 39.289062 L 19.128906 38.796875 L 18.953125 39.070312 L 18.78125 39.347656 L 18.65625 38.878906 C 18.589844 38.621094 18.375 38.410156 18.179688 38.410156 L 17.828125 38.410156 L 17.839844 43.6875 C 17.847656 49.011719 18.078125 50.582031 18.332031 47.058594 L 18.46875 45.152344 L 18.941406 44.097656 L 19.414062 43.046875 L 18.960938 42.773438 L 19.394531 42.070312 L 19.832031 41.367188 L 19.484375 41.234375 C 18.871094 41.003906 18.75 41.089844 18.65625 41.835938 L 18.5625 42.566406 L 18.53125 41.890625 C 18.511719 41.519531 18.585938 41.082031 18.695312 40.914062 L 18.890625 40.609375 L 19.484375 40.992188 L 20.082031 41.375 L 19.742188 41.851562 C 19.554688 42.113281 19.402344 42.453125 19.402344 42.609375 L 19.402344 42.886719 L 19.722656 42.765625 L 20.042969 42.648438 L 20.386719 43.730469 C 20.917969 45.398438 21.265625 46.945312 21.390625 48.214844 L 21.507812 49.375 L 21.234375 50.183594 L 20.964844 50.992188 L 20.355469 50.597656 C 19.699219 50.167969 18.398438 49.539062 17.738281 49.328125 L 17.328125 49.199219 L 17.367188 43.03125 L 17.402344 36.867188 L 16.75 35.851562 L 16.09375 34.839844 L 14.839844 34.949219 C 14.148438 35.011719 13.273438 35.105469 12.898438 35.160156 L 12.214844 35.257812 L 12.605469 35.027344 C 12.824219 34.902344 13.464844 34.789062 14.035156 34.777344 C 14.601562 34.769531 15.066406 34.660156 15.066406 34.535156 L 15.066406 34.3125 L 15.578125 34.421875 C 15.863281 34.484375 16.273438 34.609375 16.492188 34.699219 L 16.894531 34.863281 L 16.894531 34.171875 L 16.378906 34.097656 C 16.097656 34.054688 15.316406 34.101562 14.640625 34.203125 L 13.417969 34.378906 L 13.125 34.140625 L 12.828125 33.898438 L 12.699219 34.1875 L 12.570312 34.480469 L 12.277344 34.066406 C 10.203125 31.128906 9.75 30.535156 9.664062 30.621094 C 9.5625 30.722656 10.992188 33.058594 11.894531 34.253906 L 12.402344 34.929688 L 11.914062 34.476562 C 11.386719 33.992188 9.132812 30.578125 9.132812 30.261719 C 9.132812 30.160156 9.257812 30.144531 9.417969 30.230469 C 9.574219 30.316406 9.53125 30.207031 9.324219 29.992188 L 8.945312 29.597656 L 8.691406 29.75 C 8.550781 29.835938 8.035156 30.429688 7.546875 31.070312 C 7.058594 31.710938 6.195312 32.832031 5.632812 33.5625 L 4.609375 34.890625 L 4.941406 35.214844 C 5.121094 35.394531 5.210938 35.605469 5.132812 35.679688 C 5.058594 35.753906 4.910156 35.671875 4.800781 35.503906 L 4.605469 35.191406 L 3.84375 35.238281 C 3.171875 35.277344 2.285156 35.375 1.769531 35.460938 C 1.230469 35.550781 2.203125 37.289062 2.792969 37.285156 C 2.953125 37.285156 4.980469 37.085938 7.304688 36.839844 C 9.628906 36.59375 11.726562 36.394531 11.972656 36.390625 L 12.417969 36.386719 L 12.203125 36.589844 C 12.082031 36.703125 10.058594 36.976562 7.707031 37.195312 C 5.351562 37.414062 3.300781 37.671875 3.144531 37.765625 L 2.859375 37.9375 L 2.851562 50.203125 L 5.023438 50.179688 C 7.117188 50.15625 12.480469 49.769531 15.066406 49.457031 L 16.320312 49.304688 L 16.320312 36.5 L 14.496094 36.542969 L 12.667969 36.585938 L 13.355469 36.402344 C 13.730469 36.300781 14.367188 36.203125 14.765625 36.191406 C 15.164062 36.175781 15.636719 36.019531 15.8125 35.84375 L 16.136719 35.527344 L 16.855469 36.347656 L 16.867188 42.808594 C 16.871094 46.359375 16.957031 49.34375 17.058594 49.441406 C 17.15625 49.535156 17.953125 49.917969 18.832031 50.289062 L 20.429688 50.964844 L 18.609375 50.957031 L 16.785156 50.953125 L 16.457031 50.429688 L 16.171875 50.710938 C 15.808594 51.066406 15.507812 51.066406 15.578125 50.710938 L 15.636719 50.4375 L 14.496094 50.21875 L 15.636719 50.0625 L 16.777344 49.910156 L 14.953125 50.007812 C 13.949219 50.058594 12.816406 50.105469 12.441406 50.109375 C 11.625 50.117188 10.5 50.511719 10.5 50.789062 C 10.5 51.054688 9.648438 51.042969 9.484375 50.78125 C 9.410156 50.664062 9.585938 50.519531 9.871094 50.457031 C 10.496094 50.320312 7.75 50.5 3.710938 50.867188 L 1.828125 51.035156 Z M 17.691406 50.3125 C 17.613281 50.191406 17.449219 50.089844 17.320312 50.089844 C 17.195312 50.089844 17.15625 50.191406 17.234375 50.3125 C 17.3125 50.4375 17.480469 50.539062 17.605469 50.539062 C 17.730469 50.539062 17.769531 50.4375 17.691406 50.3125 Z M 19.265625 48.796875 C 19.183594 48.457031 19.011719 48.078125 18.882812 47.957031 L 18.652344 47.730469 L 18.800781 48.144531 C 18.878906 48.367188 18.945312 48.75 18.945312 48.984375 C 18.945312 49.222656 19.050781 49.414062 19.179688 49.414062 L 19.414062 49.414062 Z M 22.597656 40.320312 C 22.597656 40.136719 20.769531 39.011719 20.65625 39.125 C 20.59375 39.183594 20.929688 39.492188 21.402344 39.808594 C 22.25 40.382812 22.597656 40.53125 22.597656 40.320312 Z M 23.71875 39.082031 L 24.042969 38.914062 L 23.550781 38.652344 L 23.054688 38.394531 L 23.054688 38.609375 C 23.054688 38.726562 23.183594 38.871094 23.339844 38.933594 L 23.625 39.046875 L 23.285156 39.058594 C 22.878906 39.074219 21.355469 37.761719 21.550781 37.570312 C 21.625 37.496094 21.945312 37.671875 22.257812 37.960938 L 22.828125 38.488281 L 22.828125 38.21875 C 22.828125 38.066406 22.679688 37.890625 22.496094 37.820312 L 22.164062 37.695312 L 22.398438 36.5 L 21.933594 35.039062 C 21.675781 34.238281 21.457031 33.277344 21.445312 32.90625 C 21.433594 32.535156 21.347656 32.039062 21.253906 31.796875 L 21.082031 31.363281 L 20.941406 31.585938 C 20.863281 31.710938 20.902344 32.410156 21.03125 33.144531 C 21.15625 33.878906 21.316406 34.933594 21.382812 35.488281 C 21.449219 36.046875 21.59375 36.597656 21.707031 36.714844 C 22.042969 37.0625 21.945312 37.285156 21.457031 37.285156 L 21 37.285156 L 21 36.21875 L 20.996094 35.152344 L 20.773438 35.488281 C 20.652344 35.675781 20.535156 36.128906 20.515625 36.5 L 20.484375 37.175781 L 20.382812 36.667969 C 20.328125 36.390625 20.136719 36.164062 19.957031 36.164062 C 19.777344 36.164062 19.632812 36 19.632812 35.800781 L 19.632812 35.441406 L 19.289062 35.570312 C 19.101562 35.640625 18.945312 35.617188 18.945312 35.519531 C 18.945312 35.417969 18.703125 35.226562 18.40625 35.09375 L 17.863281 34.851562 L 17.605469 35.101562 C 17.464844 35.242188 17.347656 35.449219 17.347656 35.5625 C 17.347656 35.800781 19.453125 37.726562 19.644531 37.664062 C 19.714844 37.640625 20.113281 37.90625 20.535156 38.253906 C 20.953125 38.597656 21.421875 38.832031 21.582031 38.773438 L 21.871094 38.664062 L 21.988281 39.109375 L 22.105469 39.550781 L 22.75 39.398438 C 23.109375 39.316406 23.542969 39.171875 23.71875 39.082031 Z M 19.859375 38.382812 C 19.421875 38.121094 18.980469 37.765625 18.878906 37.597656 C 18.777344 37.425781 18.488281 37.285156 18.230469 37.285156 L 17.769531 37.285156 L 17.855469 37.546875 C 17.90625 37.691406 18.117188 37.832031 18.328125 37.863281 C 18.542969 37.894531 19 38.128906 19.34375 38.382812 C 19.691406 38.636719 20.128906 38.847656 20.316406 38.851562 C 20.503906 38.855469 20.300781 38.644531 19.859375 38.382812 Z M 1.371094 35.714844 C 1.371094 35.589844 1.265625 35.488281 1.140625 35.488281 C 1.015625 35.488281 0.914062 35.589844 0.914062 35.714844 C 0.914062 35.835938 1.015625 35.9375 1.140625 35.9375 C 1.265625 35.9375 1.371094 35.835938 1.371094 35.714844 Z M 19.855469 34.535156 L 19.851562 34.03125 L 19.632812 34.367188 C 19.347656 34.800781 19.347656 35.039062 19.632812 35.039062 C 19.757812 35.039062 19.859375 34.8125 19.855469 34.535156 Z M 5.648438 33 C 6.246094 32.246094 6.882812 31.390625 7.066406 31.097656 C 7.460938 30.46875 7.171875 30.03125 6.742188 30.609375 L 6.449219 31.007812 L 6.328125 30.554688 C 6.261719 30.304688 6.28125 30.097656 6.367188 30.097656 C 6.457031 30.097656 6.652344 29.820312 6.800781 29.480469 L 7.066406 28.863281 L 6.960938 29.457031 L 6.851562 30.050781 L 7.164062 30.167969 L 7.472656 30.285156 L 8.324219 29.40625 L 9.175781 28.523438 L 9.855469 29.085938 C 10.230469 29.394531 10.65625 29.648438 10.804688 29.652344 C 10.949219 29.652344 11.351562 29.796875 11.695312 29.972656 L 12.320312 30.292969 L 12.460938 30.070312 C 12.535156 29.949219 12.316406 29.449219 11.972656 28.957031 C 11.628906 28.46875 11.40625 28.007812 11.484375 27.933594 C 11.558594 27.859375 11.945312 28.292969 12.339844 28.894531 L 13.0625 29.988281 L 12.953125 29.367188 C 12.808594 28.523438 13.148438 28.582031 13.320312 29.429688 L 13.460938 30.109375 L 14.089844 29.960938 C 14.921875 29.765625 14.917969 29.773438 14.617188 29.164062 L 14.355469 28.640625 L 14.710938 29.074219 C 14.90625 29.316406 15.066406 29.59375 15.066406 29.691406 C 15.066406 29.792969 15.21875 29.875 15.410156 29.875 C 15.847656 29.875 15.84375 29.65625 15.402344 29.335938 L 15.050781 29.082031 L 15.03125 28 L 15.007812 26.917969 L 13.496094 26.984375 C 12.03125 27.050781 11.871094 27.003906 11.871094 26.488281 L 11.871094 26.25 L 12.382812 26.414062 C 12.667969 26.503906 13 26.570312 13.125 26.566406 C 13.25 26.558594 13.886719 26.527344 14.539062 26.492188 L 15.722656 26.425781 L 15.691406 25.582031 C 15.671875 25.117188 15.574219 24.789062 15.480469 24.847656 C 15.382812 24.90625 15.359375 24.667969 15.433594 24.3125 L 15.5625 23.671875 L 13.46875 23.5625 L 13.46875 23.800781 C 13.46875 23.929688 13.589844 24.007812 13.734375 23.976562 C 13.882812 23.945312 14.132812 24.167969 14.292969 24.472656 C 14.453125 24.777344 14.820312 25.203125 15.109375 25.421875 C 15.847656 25.980469 15.394531 25.933594 14.589844 25.367188 L 13.925781 24.902344 L 13.925781 24.46875 C 13.925781 24.230469 13.847656 24.050781 13.753906 24.070312 C 13.660156 24.089844 13.382812 24.019531 13.140625 23.917969 L 12.695312 23.730469 L 12.621094 23.9375 C 12.582031 24.050781 12.453125 24.292969 12.339844 24.46875 L 12.132812 24.792969 L 11.773438 24.496094 C 11.574219 24.335938 11.414062 24.273438 11.414062 24.359375 C 11.414062 24.445312 11.253906 24.355469 11.054688 24.164062 C 10.859375 23.96875 10.535156 23.808594 10.335938 23.808594 L 9.972656 23.808594 L 10.390625 24.261719 C 10.617188 24.511719 10.832031 24.964844 10.867188 25.273438 L 10.925781 25.832031 L 10.597656 25.832031 C 10.417969 25.832031 10.265625 25.957031 10.257812 26.113281 C 10.246094 26.265625 10.152344 26.191406 10.042969 25.945312 C 9.777344 25.335938 9.773438 24.96875 10.035156 25.375 L 10.246094 25.707031 L 10.394531 25.332031 L 10.539062 24.957031 L 10.121094 24.390625 C 9.585938 23.667969 9.175781 23.660156 8.902344 24.371094 C 8.785156 24.679688 8.628906 24.933594 8.5625 24.933594 C 8.421875 24.933594 8.660156 23.824219 8.875 23.472656 C 9.007812 23.25 9.046875 23.117188 9.101562 22.6875 C 9.117188 22.5625 9.222656 22.460938 9.339844 22.460938 C 9.453125 22.460938 9.492188 22.664062 9.425781 22.910156 L 9.304688 23.359375 L 10.246094 23.359375 C 10.761719 23.359375 11.171875 23.285156 11.160156 23.191406 C 11.09375 22.792969 11.199219 22.460938 11.390625 22.460938 C 11.507812 22.460938 11.546875 22.652344 11.488281 22.886719 C 11.363281 23.34375 11.75 23.730469 11.976562 23.375 C 12.050781 23.253906 12.277344 23.21875 12.476562 23.292969 L 12.84375 23.429688 L 12.746094 22.609375 C 12.691406 22.15625 12.730469 21.789062 12.828125 21.789062 C 12.929688 21.789062 13.011719 22.132812 13.011719 22.550781 L 13.011719 23.3125 L 14.148438 23.300781 L 15.289062 23.289062 L 15.164062 22.371094 C 15.09375 21.863281 14.992188 21.230469 14.9375 20.964844 L 14.839844 20.476562 L 12.785156 20.476562 L 12.785156 21.339844 L 12.441406 21.339844 C 12.253906 21.339844 12.097656 21.230469 12.097656 21.101562 C 12.097656 20.96875 12.203125 20.925781 12.328125 21 L 12.554688 21.140625 L 12.554688 20.417969 L 12.167969 20.632812 L 11.78125 20.84375 L 11.277344 20.65625 L 10.777344 20.46875 L 10.679688 21.128906 L 10.578125 21.789062 L 11.394531 21.792969 L 12.214844 21.800781 L 11.871094 21.988281 C 11.472656 22.207031 10.042969 22.496094 10.042969 22.359375 C 10.042969 22.308594 10.132812 22.03125 10.246094 21.746094 L 10.445312 21.226562 L 10.132812 20.9375 L 9.816406 20.648438 L 9.816406 21.105469 C 9.816406 21.355469 9.722656 21.5625 9.609375 21.5625 C 9.496094 21.5625 9.460938 21.335938 9.527344 21.058594 C 9.800781 19.976562 9.339844 20.90625 8.234375 23.683594 C 7.597656 25.277344 7.078125 26.621094 7.078125 26.675781 C 7.078125 26.726562 7.71875 26.75 8.503906 26.722656 C 10.570312 26.65625 11.511719 26.707031 11.339844 26.878906 C 11.253906 26.960938 10.261719 27.046875 9.128906 27.066406 C 8 27.089844 7.015625 27.164062 6.945312 27.230469 C 6.875 27.300781 6.359375 28.605469 5.796875 30.132812 C 5.234375 31.65625 4.625 33.234375 4.445312 33.636719 L 4.117188 34.367188 L 4.339844 34.367188 C 4.464844 34.367188 5.054688 33.75 5.648438 33 Z M 10.441406 28.828125 C 9.972656 28.5 9.585938 28.070312 9.585938 27.878906 L 9.585938 27.527344 L 10.101562 28.082031 C 10.382812 28.390625 10.820312 28.8125 11.070312 29.027344 C 11.761719 29.613281 11.402344 29.5 10.441406 28.828125 Z M 7.761719 28.527344 C 7.761719 28.402344 7.863281 28.300781 7.988281 28.300781 C 8.117188 28.300781 8.21875 28.402344 8.21875 28.527344 C 8.21875 28.648438 8.117188 28.75 7.988281 28.75 C 7.863281 28.75 7.761719 28.648438 7.761719 28.527344 Z M 13.601562 28.382812 L 13.457031 28.015625 L 13.804688 28.296875 C 14.203125 28.621094 14.242188 28.75 13.949219 28.75 C 13.835938 28.75 13.679688 28.585938 13.601562 28.382812 Z M 12.238281 27.945312 L 12.097656 27.589844 L 12.371094 27.679688 C 12.710938 27.792969 12.898438 28.300781 12.597656 28.300781 C 12.476562 28.300781 12.3125 28.140625 12.238281 27.945312 Z M 10.5 27.765625 C 10.5 27.714844 10.65625 27.617188 10.84375 27.546875 C 11.03125 27.476562 11.1875 27.515625 11.1875 27.636719 C 11.1875 27.753906 11.03125 27.851562 10.84375 27.851562 C 10.65625 27.851562 10.5 27.8125 10.5 27.765625 Z M 13.449219 26.265625 C 13.441406 26.210938 13.410156 25.894531 13.386719 25.5625 L 13.339844 24.960938 L 13.597656 25.167969 C 13.738281 25.285156 13.902344 25.328125 13.964844 25.269531 C 14.023438 25.207031 14.316406 25.410156 14.609375 25.71875 C 15.191406 26.328125 15.039062 26.507812 14.4375 25.917969 L 14.070312 25.554688 L 13.769531 25.960938 C 13.605469 26.183594 13.460938 26.320312 13.449219 26.265625 Z M 11.917969 25.292969 C 12.082031 25.121094 12.25 25.011719 12.292969 25.050781 C 12.429688 25.179688 12.085938 25.605469 11.847656 25.605469 L 11.625 25.605469 Z M 14.234375 22.835938 C 14.316406 22.609375 14.390625 22.15625 14.402344 21.824219 L 14.421875 21.226562 L 14.828125 22.570312 L 14.457031 22.90625 L 14.089844 23.246094 Z M 13.46875 22.460938 C 13.46875 22.339844 13.570312 22.238281 13.695312 22.238281 C 13.824219 22.238281 13.925781 22.339844 13.925781 22.460938 C 13.925781 22.585938 13.824219 22.6875 13.695312 22.6875 C 13.570312 22.6875 13.46875 22.585938 13.46875 22.460938 Z M 13.304688 21.339844 C 13.28125 20.96875 13.339844 20.664062 13.441406 20.664062 C 13.6875 20.664062 14.15625 21.710938 13.984375 21.878906 C 13.65625 22.203125 13.351562 21.960938 13.304688 21.339844 Z M 19.574219 33.527344 C 19.621094 33.394531 19.472656 33.234375 19.246094 33.175781 L 18.832031 33.070312 L 19.308594 33.042969 L 19.785156 33.019531 L 20.050781 32.445312 C 20.199219 32.132812 20.316406 31.820312 20.316406 31.753906 C 20.316406 31.578125 18.867188 31.910156 18.613281 32.148438 L 18.390625 32.351562 L 19.867188 32.0625 L 19.726562 32.429688 L 19.582031 32.792969 L 18.492188 32.792969 L 18.492188 33.679688 L 19.25 33.390625 L 18.882812 33.976562 L 19.1875 33.875 C 19.351562 33.820312 19.527344 33.664062 19.574219 33.527344 Z M 13.925781 33.558594 C 13.925781 33.480469 13.667969 33.121094 13.355469 32.753906 L 12.785156 32.085938 L 12.785156 31.449219 C 12.785156 31.097656 12.910156 30.761719 13.070312 30.703125 C 13.226562 30.640625 13.113281 30.605469 12.820312 30.621094 L 12.289062 30.648438 L 12.402344 31.328125 C 12.464844 31.703125 12.652344 32.386719 12.820312 32.851562 L 13.125 33.691406 L 13.523438 33.691406 C 13.746094 33.691406 13.925781 33.632812 13.925781 33.558594 Z M 17.804688 32.890625 L 17.804688 32.339844 L 17.371094 32.609375 L 16.9375 32.875 L 17.191406 33.269531 C 17.511719 33.777344 17.804688 33.59375 17.804688 32.890625 Z M 20.546875 33.355469 C 20.546875 33.171875 20.441406 33.019531 20.316406 33.019531 C 20.191406 33.019531 20.089844 33.171875 20.089844 33.355469 C 20.089844 33.542969 20.191406 33.691406 20.316406 33.691406 C 20.441406 33.691406 20.546875 33.542969 20.546875 33.355469 Z M 14.222656 32.742188 C 14.070312 31.988281 13.347656 31.042969 13.105469 31.28125 C 13.027344 31.355469 13.050781 31.550781 13.152344 31.710938 C 13.257812 31.875 13.363281 32.144531 13.386719 32.308594 C 13.429688 32.582031 14.125 33.46875 14.296875 33.46875 C 14.335938 33.46875 14.304688 33.140625 14.222656 32.742188 Z M 15.074219 33.03125 C 14.792969 32.515625 14.382812 32.222656 14.382812 32.539062 C 14.382812 32.761719 15.007812 33.46875 15.203125 33.46875 C 15.261719 33.46875 15.203125 33.273438 15.074219 33.03125 Z M 16.414062 32.761719 C 16.722656 31.894531 16.722656 31.832031 16.4375 32.007812 L 16.207031 32.148438 L 16.207031 31.796875 C 16.207031 31.605469 16.292969 31.445312 16.398438 31.445312 C 16.503906 31.445312 16.453125 30.5625 16.289062 29.480469 C 16.125 28.398438 15.988281 27.390625 15.984375 27.234375 C 15.980469 27.082031 15.839844 26.953125 15.664062 26.953125 L 15.351562 26.953125 L 15.351562 28.070312 L 15.574219 27.933594 L 15.800781 27.796875 L 15.648438 28.265625 C 15.566406 28.523438 15.601562 28.929688 15.734375 29.167969 C 15.863281 29.402344 16.023438 30.023438 16.089844 30.542969 L 16.207031 31.484375 L 15.921875 31.390625 C 15.765625 31.335938 15.511719 31.457031 15.359375 31.652344 L 15.082031 32.007812 L 15.074219 31.640625 C 15.070312 31.4375 15.21875 31.210938 15.410156 31.140625 C 15.824219 30.984375 15.859375 30.632812 15.464844 30.597656 C 14.628906 30.519531 14.25 30.414062 14.101562 30.210938 L 13.933594 29.988281 L 13.929688 30.402344 C 13.925781 30.765625 14.199219 31.179688 15.308594 32.511719 C 15.4375 32.667969 15.472656 32.792969 15.390625 32.792969 C 15.308594 32.792969 15.367188 32.945312 15.523438 33.132812 C 15.941406 33.628906 16.132812 33.546875 16.414062 32.761719 Z M 15.660156 32.4375 C 15.464844 31.933594 15.484375 31.894531 15.867188 32.039062 C 16.054688 32.109375 16.207031 32.308594 16.207031 32.480469 C 16.207031 32.90625 15.832031 32.878906 15.660156 32.4375 Z M 11.640625 32.035156 C 11.640625 31.988281 11.460938 31.8125 11.242188 31.640625 L 10.84375 31.335938 L 11.15625 31.726562 C 11.453125 32.101562 11.640625 32.21875 11.640625 32.035156 Z M 17.804688 31.097656 L 17.804688 30.746094 L 17.574219 30.886719 C 17.445312 30.964844 17.402344 31.121094 17.472656 31.238281 C 17.667969 31.550781 17.804688 31.492188 17.804688 31.097656 Z M 19.59375 30.199219 C 19.636719 30.164062 19.636719 29.988281 19.59375 29.8125 L 19.519531 29.492188 L 18.945312 30.042969 L 18.375 30.59375 L 18.945312 30.429688 C 19.261719 30.339844 19.550781 30.238281 19.59375 30.199219 Z M 20.011719 28.917969 C 19.949219 28.765625 19.894531 28.890625 19.894531 29.199219 C 19.894531 29.507812 19.949219 29.636719 20.011719 29.480469 C 20.074219 29.328125 20.074219 29.074219 20.011719 28.917969 Z M 16.777344 27.121094 C 16.6875 26.472656 16.511719 25.84375 16.382812 25.71875 L 16.148438 25.496094 L 16.289062 26.394531 C 16.367188 26.886719 16.433594 27.519531 16.433594 27.796875 C 16.433594 28.074219 16.546875 28.300781 16.6875 28.300781 L 16.933594 28.300781 Z M 19.027344 26.609375 C 18.847656 26.144531 18.71875 26.199219 18.71875 26.742188 L 18.71875 27.207031 L 18.9375 27.074219 C 19.058594 27 19.097656 26.792969 19.027344 26.609375 Z M 18.511719 25.359375 C 18.390625 25.0625 18.285156 24.9375 18.277344 25.082031 C 18.257812 25.433594 18.523438 26.097656 18.636719 25.984375 C 18.6875 25.9375 18.628906 25.652344 18.511719 25.359375 Z M 16.5625 23.875 C 16.335938 23.289062 16.171875 23.707031 16.355469 24.402344 L 16.527344 25.042969 L 16.617188 24.640625 C 16.664062 24.414062 16.640625 24.074219 16.5625 23.875 Z M 17.199219 24.363281 C 17.125 24.171875 17.015625 24.0625 16.957031 24.121094 C 16.894531 24.179688 16.914062 24.335938 16.996094 24.46875 C 17.222656 24.828125 17.355469 24.757812 17.199219 24.363281 Z M 18.285156 23.742188 L 18.035156 23.496094 L 18.039062 24.15625 L 18.046875 24.820312 L 18.539062 23.992188 Z M 12.097656 24.058594 C 12.097656 23.953125 11.894531 23.808594 11.640625 23.746094 C 11.390625 23.679688 11.1875 23.710938 11.1875 23.8125 C 11.1875 23.917969 11.367188 24.046875 11.585938 24.105469 C 11.804688 24.160156 12.011719 24.21875 12.042969 24.234375 C 12.074219 24.246094 12.097656 24.167969 12.097656 24.058594 Z M 17.804688 22.34375 L 17.527344 21.519531 L 17.246094 22.046875 C 16.941406 22.621094 17.054688 23.148438 17.378906 22.652344 L 17.578125 22.347656 L 17.71875 22.863281 C 17.800781 23.148438 17.914062 23.332031 17.972656 23.273438 C 18.03125 23.214844 17.957031 22.796875 17.804688 22.34375 Z M 15.644531 20.660156 L 15.289062 19.429688 L 15.40625 20.214844 C 15.46875 20.648438 15.59375 21.40625 15.6875 21.898438 L 15.851562 22.796875 L 15.925781 22.34375 C 15.964844 22.097656 15.839844 21.339844 15.644531 20.660156 Z M 16.976562 20.550781 C 16.902344 20.367188 16.753906 20.214844 16.648438 20.214844 C 16.539062 20.214844 16.507812 20.367188 16.582031 20.550781 C 16.652344 20.738281 16.800781 20.890625 16.910156 20.890625 C 17.019531 20.890625 17.046875 20.738281 16.976562 20.550781 Z M 10.292969 19.8125 C 10.488281 19.589844 10.621094 19.285156 10.589844 19.132812 L 10.535156 18.855469 L 10.652344 19.089844 C 10.714844 19.214844 10.871094 19.257812 11 19.179688 L 11.230469 19.039062 L 10.980469 19.5 C 10.84375 19.753906 10.730469 20.019531 10.730469 20.089844 C 10.730469 20.347656 11.457031 20.203125 11.789062 19.878906 C 11.976562 19.695312 12.226562 19.542969 12.34375 19.542969 C 12.460938 19.542969 12.554688 19.695312 12.554688 19.878906 L 12.554688 20.214844 L 13 20.214844 C 13.246094 20.214844 13.542969 20.042969 13.664062 19.832031 L 13.878906 19.449219 L 14.257812 19.757812 L 14.632812 20.066406 L 14.578125 19.074219 C 14.550781 18.527344 14.4375 18.023438 14.328125 17.949219 C 14.21875 17.878906 14.113281 17.386719 14.09375 16.855469 L 14.054688 15.894531 L 13.761719 15.785156 C 13.601562 15.726562 13.46875 15.578125 13.46875 15.460938 C 13.46875 15.34375 13.585938 15.320312 13.734375 15.40625 L 13.996094 15.570312 L 13.847656 14.492188 C 13.765625 13.898438 13.695312 13.121094 13.695312 12.757812 L 13.695312 12.101562 L 13.433594 12.261719 L 13.167969 12.421875 L 13.332031 12.160156 C 13.425781 12.019531 13.425781 11.675781 13.335938 11.398438 L 13.171875 10.894531 L 12.996094 11.34375 C 12.894531 11.589844 12.808594 12.109375 12.800781 12.496094 C 12.789062 12.882812 12.628906 13.492188 12.441406 13.84375 C 12.253906 14.199219 12.101562 14.71875 12.101562 15 C 12.097656 15.539062 11.519531 17.070312 11.320312 17.070312 C 11.253906 17.070312 11.261719 16.894531 11.339844 16.679688 L 11.480469 16.285156 L 11.125 16.621094 C 10.722656 17.011719 9.511719 20.214844 9.769531 20.214844 C 9.863281 20.214844 10.101562 20.035156 10.292969 19.8125 Z M 11.640625 19.230469 C 11.640625 19.179688 11.796875 19.082031 11.984375 19.011719 C 12.171875 18.941406 12.328125 18.980469 12.328125 19.097656 C 12.328125 19.21875 12.171875 19.316406 11.984375 19.316406 C 11.796875 19.316406 11.640625 19.277344 11.640625 19.230469 Z M 11.203125 18.289062 L 11.222656 17.855469 L 11.339844 18.152344 C 11.40625 18.3125 11.398438 18.507812 11.324219 18.582031 C 11.246094 18.65625 11.195312 18.523438 11.203125 18.289062 Z M 12.296875 17.800781 L 11.984375 17.40625 L 12.382812 17.714844 C 12.765625 18.007812 12.886719 18.195312 12.699219 18.195312 C 12.648438 18.195312 12.46875 18.015625 12.296875 17.800781 Z M 13.359375 17.632812 C 13.292969 17.324219 13.179688 16.792969 13.109375 16.453125 L 12.980469 15.835938 L 13.222656 16.070312 C 13.359375 16.203125 13.53125 16.730469 13.601562 17.25 C 13.746094 18.261719 13.554688 18.5625 13.359375 17.632812 Z M 11.414062 17.546875 C 11.414062 17.421875 11.515625 17.257812 11.640625 17.183594 C 11.769531 17.105469 11.871094 17.144531 11.871094 17.269531 C 11.871094 17.394531 11.769531 17.554688 11.640625 17.632812 C 11.515625 17.707031 11.414062 17.671875 11.414062 17.546875 Z M 13.398438 14.738281 C 13.304688 14.503906 13.28125 14.257812 13.347656 14.195312 C 13.558594 13.988281 13.742188 14.324219 13.652344 14.75 L 13.570312 15.160156 Z M 16.761719 19.464844 C 16.679688 19.261719 16.527344 19.152344 16.414062 19.21875 L 16.210938 19.339844 L 16.496094 19.644531 C 16.84375 20.015625 16.949219 19.945312 16.761719 19.464844 Z M 16.09375 18.417969 C 16.007812 18.152344 15.886719 17.984375 15.824219 18.046875 C 15.761719 18.109375 15.78125 18.378906 15.867188 18.644531 C 15.949219 18.910156 16.074219 19.074219 16.136719 19.015625 C 16.199219 18.953125 16.179688 18.683594 16.09375 18.417969 Z M 15.144531 17.847656 C 15.070312 17.65625 14.960938 17.550781 14.902344 17.609375 C 14.839844 17.667969 14.859375 17.824219 14.941406 17.953125 C 15.167969 18.3125 15.300781 18.242188 15.144531 17.847656 Z M 14.308594 12.3125 L 14.1875 12.015625 L 14.171875 12.449219 C 14.160156 12.683594 14.214844 12.816406 14.292969 12.742188 C 14.367188 12.667969 14.375 12.472656 14.308594 12.3125 Z M 12.742188 50.835938 C 12.90625 50.769531 13.101562 50.777344 13.179688 50.851562 C 13.253906 50.925781 13.121094 50.980469 12.878906 50.96875 L 12.441406 50.953125 Z M 7.019531 49.714844 C 7.175781 49.652344 7.433594 49.652344 7.589844 49.714844 C 7.746094 49.777344 7.617188 49.828125 7.304688 49.828125 C 6.992188 49.828125 6.863281 49.777344 7.019531 49.714844 Z M 3.460938 48.964844 C 3.460938 48.65625 3.511719 48.53125 3.574219 48.6875 C 3.640625 48.839844 3.640625 49.09375 3.574219 49.246094 C 3.511719 49.402344 3.460938 49.277344 3.460938 48.964844 Z M 5.25 48.984375 C 4.871094 48.722656 5.019531 48.679688 6.101562 48.734375 C 6.507812 48.757812 7.050781 48.710938 7.3125 48.628906 L 7.785156 48.480469 L 7.578125 48.21875 C 7.460938 48.074219 7.296875 47.511719 7.214844 46.96875 C 7.128906 46.425781 6.84375 45.683594 6.582031 45.320312 L 6.101562 44.65625 L 5.90625 44.960938 C 5.800781 45.125 5.710938 45.941406 5.710938 46.777344 L 5.707031 48.292969 L 5.183594 48.292969 L 5.308594 46.082031 L 5.433594 43.867188 L 5.816406 43.136719 C 6.027344 42.734375 6.746094 41.851562 7.414062 41.175781 L 8.625 39.941406 L 9.070312 40.175781 C 9.3125 40.300781 10.152344 41.082031 10.933594 41.902344 L 12.355469 43.398438 L 12.277344 45.789062 C 12.234375 47.105469 12.121094 48.351562 12.019531 48.558594 L 11.835938 48.933594 L 12.480469 49.027344 L 13.125 49.125 L 12.257812 49.15625 L 11.386719 49.191406 L 11.550781 48.933594 L 11.710938 48.671875 L 10.707031 48.824219 C 10.152344 48.90625 8.777344 49.03125 7.648438 49.097656 L 5.59375 49.21875 Z M 8.445312 47.269531 L 8.445312 46.917969 L 8.214844 47.058594 C 8.085938 47.136719 8.042969 47.296875 8.113281 47.410156 C 8.308594 47.722656 8.445312 47.664062 8.445312 47.269531 Z M 10.273438 44.472656 C 10.273438 44.351562 10.164062 44.25 10.03125 44.25 C 9.898438 44.25 9.851562 44.351562 9.929688 44.472656 C 10.007812 44.597656 10.117188 44.699219 10.171875 44.699219 C 10.226562 44.699219 10.273438 44.597656 10.273438 44.472656 Z M 14.839844 48.144531 C 14.839844 46.886719 14.957031 46.925781 15.128906 48.238281 L 15.25 49.191406 L 15.042969 49.191406 C 14.929688 49.191406 14.839844 48.71875 14.839844 48.144531 Z M 4.601562 48.292969 C 4.601562 47.984375 4.652344 47.859375 4.714844 48.011719 C 4.78125 48.167969 4.78125 48.417969 4.714844 48.574219 C 4.652344 48.726562 4.601562 48.601562 4.601562 48.292969 Z M 14.839844 46.046875 C 14.839844 45.675781 14.941406 45.371094 15.070312 45.371094 L 15.300781 45.371094 L 15.25 46.046875 C 15.222656 46.417969 15.117188 46.71875 15.019531 46.71875 C 14.917969 46.71875 14.839844 46.417969 14.839844 46.046875 Z M 12.851562 45.371094 C 12.851562 44.695312 12.894531 44.414062 12.945312 44.753906 C 13 45.09375 13 45.652344 12.945312 45.992188 C 12.894531 46.332031 12.851562 46.050781 12.851562 45.371094 Z M 15.789062 46.046875 C 15.789062 45.738281 15.839844 45.613281 15.902344 45.765625 C 15.964844 45.921875 15.964844 46.171875 15.902344 46.328125 C 15.839844 46.480469 15.789062 46.355469 15.789062 46.046875 Z M 21.289062 45.035156 L 21.292969 44.136719 L 21.390625 44.644531 C 21.445312 44.925781 21.445312 45.328125 21.386719 45.542969 C 21.328125 45.757812 21.285156 45.53125 21.289062 45.035156 Z M 3.917969 44.921875 C 3.917969 44.613281 3.96875 44.488281 4.03125 44.644531 C 4.09375 44.796875 4.09375 45.050781 4.03125 45.203125 C 3.96875 45.359375 3.917969 45.234375 3.917969 44.921875 Z M 4.851562 44.136719 L 4.855469 43.238281 L 4.957031 43.746094 C 5.011719 44.027344 5.007812 44.429688 4.949219 44.644531 C 4.894531 44.859375 4.847656 44.632812 4.851562 44.136719 Z M 21.914062 43.648438 L 21.914062 42.746094 L 21.496094 42.375 C 20.867188 41.816406 20.738281 41.917969 20.90625 42.847656 C 21.113281 43.96875 20.855469 43.703125 20.582031 42.507812 L 20.367188 41.570312 L 20.800781 41.433594 L 21.230469 41.296875 L 21.746094 41.707031 L 22.257812 42.117188 L 22.257812 43.164062 C 22.257812 43.742188 22.179688 44.289062 22.085938 44.378906 C 21.992188 44.472656 21.914062 44.144531 21.914062 43.648438 Z M 3.898438 43.894531 L 3.917969 43.464844 L 4.035156 43.757812 C 4.101562 43.921875 4.09375 44.113281 4.019531 44.1875 C 3.941406 44.261719 3.890625 44.132812 3.898438 43.894531 Z M 14.742188 43.519531 L 14.558594 43.125 L 14.742188 42.28125 L 14.929688 41.441406 L 15.011719 42.058594 C 15.058594 42.398438 15.058594 42.957031 15.011719 43.296875 L 14.925781 43.914062 Z M 5.25 42.816406 C 5.25 42.769531 5.429688 42.59375 5.648438 42.425781 L 6.050781 42.117188 L 5.734375 42.507812 C 5.4375 42.882812 5.25 43.003906 5.25 42.816406 Z M 11.742188 41.851562 C 11.390625 41.398438 11.21875 41.097656 11.363281 41.1875 C 11.652344 41.363281 12.640625 42.675781 12.484375 42.675781 C 12.425781 42.675781 12.09375 42.304688 11.742188 41.851562 Z M 3.839844 40.644531 C 3.792969 40.144531 3.808594 39.652344 3.875 39.554688 C 4.023438 39.324219 7.363281 38.910156 7.789062 39.066406 C 7.964844 39.128906 7.179688 39.285156 6.054688 39.414062 L 4 39.644531 L 4.074219 40.601562 C 4.164062 41.816406 3.957031 41.855469 3.839844 40.644531 Z M 14.566406 40.601562 C 14.542969 40.199219 14.511719 39.617188 14.496094 39.308594 L 14.46875 38.746094 L 14.078125 38.777344 C 11.234375 39.011719 9.5 39.09375 9.605469 38.992188 C 9.738281 38.859375 10.421875 38.769531 13.183594 38.515625 L 14.839844 38.363281 L 14.839844 39.847656 C 14.839844 41.367188 14.644531 41.910156 14.566406 40.601562 Z M 18.050781 40.832031 L 18.035156 40.222656 L 18.492188 39.980469 L 18.945312 39.742188 L 18.945312 39.972656 C 18.945312 40.101562 19.101562 40.207031 19.289062 40.207031 C 19.476562 40.207031 19.632812 40.304688 19.632812 40.425781 L 19.632812 40.640625 L 19.117188 40.453125 L 18.605469 40.265625 L 18.339844 40.855469 L 18.070312 41.441406 Z M 6.621094 41.023438 C 6.621094 40.847656 8.761719 39.308594 8.996094 39.316406 C 9.132812 39.320312 9.039062 39.4375 8.789062 39.582031 C 8.539062 39.722656 8.023438 40.125 7.648438 40.472656 C 7.035156 41.035156 6.621094 41.257812 6.621094 41.023438 Z M 15.3125 40.523438 L 15.332031 40.09375 L 15.449219 40.390625 C 15.515625 40.550781 15.507812 40.746094 15.433594 40.820312 C 15.355469 40.894531 15.304688 40.761719 15.3125 40.523438 Z M 9.847656 40.199219 C 9.148438 39.625 9.527344 39.632812 10.273438 40.207031 C 10.585938 40.449219 10.742188 40.644531 10.613281 40.644531 C 10.488281 40.640625 10.144531 40.441406 9.847656 40.199219 Z M 3.390625 38.800781 C 3.503906 38.6875 3.84375 38.632812 4.140625 38.679688 L 4.679688 38.761719 L 3.929688 38.886719 L 3.179688 39.007812 Z M 5.207031 38.707031 C 5.371094 38.640625 5.570312 38.648438 5.644531 38.722656 C 5.722656 38.796875 5.585938 38.851562 5.34375 38.839844 L 4.90625 38.824219 Z M 15.3125 38.277344 L 15.332031 37.847656 L 15.449219 38.144531 C 15.515625 38.304688 15.507812 38.5 15.433594 38.574219 C 15.355469 38.648438 15.304688 38.515625 15.3125 38.277344 Z M 10.675781 38.027344 C 10.957031 37.972656 11.371094 37.972656 11.585938 38.03125 C 11.804688 38.085938 11.574219 38.132812 11.070312 38.128906 L 10.160156 38.125 Z M 12.347656 37.867188 C 12.519531 37.699219 14.59375 37.644531 14.753906 37.804688 C 14.84375 37.890625 14.316406 37.960938 13.582031 37.960938 C 12.851562 37.960938 12.292969 37.917969 12.347656 37.867188 Z M 3.824219 35.566406 C 3.980469 35.503906 4.238281 35.503906 4.394531 35.566406 C 4.550781 35.628906 4.421875 35.679688 4.109375 35.679688 C 3.796875 35.679688 3.667969 35.628906 3.824219 35.566406 Z M 7.753906 34.535156 L 7.269531 34.03125 L 7.390625 33.273438 C 7.640625 31.730469 8.714844 31.242188 9.710938 32.222656 L 10.273438 32.773438 L 10.269531 33.402344 C 10.265625 34.183594 10.097656 34.414062 9.292969 34.765625 C 8.429688 35.136719 8.3125 35.121094 7.753906 34.535156 Z M 9.386719 34.199219 C 9.496094 33.492188 9.519531 32.734375 9.429688 32.972656 L 9.316406 33.261719 L 8.976562 32.988281 L 8.640625 32.710938 L 8.445312 33.023438 C 8.171875 33.457031 8.414062 33.753906 8.929688 33.621094 C 9.457031 33.484375 9.503906 33.8125 8.988281 34.007812 C 8.785156 34.085938 8.476562 34.035156 8.304688 33.894531 L 7.988281 33.636719 L 7.988281 33.851562 C 7.988281 33.96875 8.058594 34.132812 8.140625 34.21875 C 8.351562 34.421875 9.351562 34.40625 9.386719 34.199219 Z M 8.21875 33.019531 C 8.21875 32.894531 8.117188 32.792969 7.988281 32.792969 C 7.863281 32.792969 7.761719 32.894531 7.761719 33.019531 C 7.761719 33.140625 7.863281 33.242188 7.988281 33.242188 C 8.117188 33.242188 8.21875 33.140625 8.21875 33.019531 Z M 5.707031 34.195312 C 5.707031 34.074219 5.859375 33.847656 6.050781 33.691406 L 6.390625 33.414062 L 6.390625 33.636719 C 6.390625 33.761719 6.238281 33.988281 6.050781 34.140625 L 5.707031 34.421875 Z M 5.707031 34.195312 "/>
	</svg>

	<text transform="translate(40,30) rotate(-90)" style="font-size:13px;font-style:normal;font-variant:normal;font-weight:normal;font-stretch:normal;text-anchor:middle;fill:#000000;fill-opacity:1;font-family:Nimbus Sans L">Level 1</text>
	<text transform="translate(52,30) rotate(-90)" style="font-size:13px;font-style:normal;font-variant:normal;font-weight:normal;font-stretch:normal;text-anchor:middle;fill:#000000;fill-opacity:1;font-family:Nimbus Sans L">Steeple</text>
</svg>
