<?xml version="1.0" encoding="UTF-8"?>
<svg xmlns="http://www.w3.org/2000/svg" xmlns:xlink="http://www.w3.org/1999/xlink" width="99px" height="99px" viewBox="0 0 99 99" version="1.1">
	<g id="surface1">
		<rect x="0" y="0" width="99" height="99" style="fill:rgb(80.000001%,0%,0%);fill-opacity:1;stroke:none;"/>
		<path style=" stroke:none;fill-rule:nonzero;fill:rgb(100%,84.313726%,0%);fill-opacity:1;" d="M 31.597656 17.707031 L 10.214844 39.089844 L 21.414062 50.289062 L 31.597656 40.105469 L 85.566406 94.074219 C 87.816406 96.320312 91.464844 96.320312 93.714844 94.074219 C 95.960938 91.824219 95.960938 88.175781 93.714844 85.925781 L 39.746094 31.960938 L 51.964844 19.742188 Z M 31.597656 17.707031 "/>
		<path style=" stroke:none;fill-rule:nonzero;fill:rgb(100%,84.313726%,0%);fill-opacity:1;" d="M 49.316406 3.601562 C 49.316406 3.601562 79.558594 26.640625 79.558594 49.679688 C 79.558594 61.199219 69.480469 74.160156 52.199219 74.160156 C 40.675781 74.160156 33.433594 65.5625 33.433594 65.5625 L 31.398438 67.597656 C 30.273438 66.472656 28.449219 66.472656 27.324219 67.597656 C 27.152344 67.773438 27.003906 67.96875 26.878906 68.179688 C 24.867188 67.597656 22.699219 68.15625 21.214844 69.636719 C 20.183594 70.667969 19.585938 72.054688 19.535156 73.511719 C 14.957031 75.988281 7.375 80.816406 4.007812 87.121094 L 4.011719 87.125 C 2.984375 88.90625 2.980469 91.097656 4.007812 92.878906 C 5.597656 95.636719 9.121094 96.578125 11.875 94.988281 C 18.179688 91.621094 23.011719 84.035156 25.484375 79.457031 C 26.941406 79.410156 28.328125 78.8125 29.363281 77.78125 C 30.023438 77.117188 30.515625 76.300781 30.789062 75.40625 C 35.203125 79.554688 43.648438 85.679688 55.078125 85.679688 C 72.359375 85.679688 91.078125 72.71875 91.078125 49.679688 C 91.078125 20.878906 49.316406 3.601562 49.316406 3.601562 Z M 49.316406 3.601562 "/>
	</g>
</svg>
