<?xml version="1.0" encoding="UTF-8"?>
<svg xmlns="http://www.w3.org/2000/svg" xmlns:xlink="http://www.w3.org/1999/xlink" width="220px" height="97px" viewBox="0 0 220 97" version="1.1">
<g id="surface1">
<path style=" stroke:none;fill-rule:nonzero;fill:rgb(0%,0%,0%);fill-opacity:1;" d="M 101.066406 95.703125 C 100.363281 95.574219 99.167969 95.183594 98.410156 94.832031 C 97.285156 94.3125 96.769531 93.933594 95.621094 92.796875 C 94.03125 91.21875 92.089844 88.308594 91.175781 86.132812 C 89.886719 83.066406 89.234375 77.429688 89.292969 69.894531 C 89.332031 64.722656 89.570312 61.769531 90.828125 51.082031 C 91.132812 48.492188 93.945312 48.816406 69.332031 48.601562 C 48.425781 48.417969 48.304688 48.417969 47.863281 48.746094 C 47.285156 49.179688 47.007812 49.976562 46.992188 51.265625 C 46.984375 51.839844 46.792969 53.59375 46.566406 55.167969 C 46.335938 56.738281 46.105469 58.363281 46.050781 58.773438 C 45.996094 59.183594 45.726562 60.058594 45.449219 60.722656 C 45.003906 61.777344 44.769531 62.082031 43.464844 63.253906 C 42.652344 63.984375 41.859375 64.582031 41.703125 64.582031 C 40.5625 64.574219 39.898438 63.53125 39.09375 60.476562 C 38.785156 59.308594 38.46875 58.183594 38.390625 57.96875 C 38.148438 57.316406 37.890625 57.878906 37.679688 59.523438 C 37.574219 60.34375 37.3125 61.464844 37.097656 62.015625 C 36.882812 62.566406 36.628906 63.5 36.539062 64.089844 C 36.386719 65.042969 36.292969 65.234375 35.6875 65.777344 C 34.738281 66.628906 33.640625 66.769531 32.195312 66.21875 C 31.550781 65.976562 31.011719 65.636719 30.75 65.3125 C 30.523438 65.03125 29.96875 63.796875 29.523438 62.574219 C 28.441406 59.621094 28.210938 59.105469 27.957031 59.105469 C 27.636719 59.105469 27.585938 59.242188 27.140625 61.457031 C 26.910156 62.582031 26.644531 63.703125 26.546875 63.945312 C 26.269531 64.625 24.539062 65.414062 23.324219 65.414062 C 21.386719 65.414062 20.25 64.726562 19.402344 63.046875 C 18.953125 62.160156 18.867188 61.742188 18.664062 59.546875 C 18.375 56.371094 18.089844 56.074219 17.28125 58.121094 C 16.742188 59.488281 14.496094 61.59375 13.574219 61.59375 C 12.859375 61.59375 11.546875 61.0625 11.171875 60.617188 C 10.316406 59.609375 9.929688 57.46875 9.691406 52.410156 C 9.585938 50.132812 9.550781 49.929688 9.214844 49.710938 C 8.800781 49.4375 5.988281 49.039062 3.378906 48.882812 C 1.308594 48.757812 0.828125 48.554688 0.828125 47.808594 C 0.828125 47.027344 1.230469 46.964844 5.320312 47.089844 C 9.675781 47.226562 9.542969 47.273438 10.121094 45.429688 L 10.515625 44.167969 L 13.558594 42.492188 C 16.347656 40.953125 16.765625 40.773438 18.632812 40.328125 C 21.34375 39.679688 24.6875 39.332031 29.21875 39.230469 C 33.40625 39.140625 35.246094 39.359375 38.679688 40.363281 C 41.414062 41.164062 43.289062 42.132812 44.308594 43.28125 C 44.78125 43.808594 45.246094 44.519531 45.347656 44.859375 C 45.453125 45.199219 45.777344 45.742188 46.074219 46.066406 L 46.609375 46.652344 L 48.828125 46.652344 C 50.046875 46.652344 52.050781 46.539062 53.277344 46.402344 C 55.445312 46.160156 56.261719 45.898438 56.289062 45.445312 C 56.292969 45.332031 56.328125 44.570312 56.363281 43.746094 C 56.394531 42.925781 56.578125 41.691406 56.769531 41.007812 C 56.957031 40.324219 57.554688 38.074219 58.09375 36.011719 C 58.9375 32.8125 59.308594 31.730469 60.648438 28.625 C 61.507812 26.625 62.570312 24.128906 63.011719 23.078125 C 63.449219 22.027344 64.1875 20.570312 64.652344 19.839844 C 65.121094 19.109375 65.851562 17.914062 66.277344 17.183594 C 67.074219 15.8125 68.957031 13.621094 70.550781 12.199219 C 71.054688 11.753906 72.101562 10.777344 72.875 10.03125 C 76.726562 6.328125 86.070312 2.367188 92.796875 1.585938 C 98.574219 0.914062 103.75 0.8125 106.492188 1.308594 C 110.5625 2.046875 113.332031 2.707031 114.363281 3.175781 C 114.964844 3.453125 116.238281 3.972656 117.191406 4.332031 C 118.144531 4.691406 119.226562 5.160156 119.597656 5.371094 C 119.96875 5.582031 121.242188 6.296875 122.429688 6.964844 C 123.640625 7.648438 125.007812 8.570312 125.546875 9.066406 C 126.074219 9.554688 127.269531 10.570312 128.203125 11.324219 C 130.0625 12.820312 132.300781 15.042969 133.78125 16.851562 C 136.515625 20.191406 139.738281 25.667969 142.191406 31.140625 C 143.128906 33.234375 146.023438 41.597656 146.925781 44.832031 C 147.539062 47.023438 147.160156 46.867188 152.339844 47.035156 C 156.484375 47.167969 156.851562 47.15625 157.625 46.871094 C 158.375 46.589844 158.484375 46.480469 158.792969 45.707031 C 159.796875 43.199219 161.148438 42.078125 164.453125 41.015625 C 168.042969 39.863281 169.929688 39.523438 173.339844 39.410156 C 175.058594 39.351562 177.71875 39.390625 179.453125 39.5 C 185.996094 39.90625 188.429688 40.386719 190.496094 41.671875 C 191.042969 42.011719 191.945312 42.519531 192.5 42.800781 C 193.429688 43.269531 193.59375 43.441406 194.632812 45.054688 C 195.25 46.011719 195.863281 46.835938 195.992188 46.886719 C 196.117188 46.9375 201.285156 47.097656 207.464844 47.242188 C 214.6875 47.414062 218.785156 47.570312 218.917969 47.679688 C 219.164062 47.886719 219.1875 48.457031 218.964844 48.8125 C 218.789062 49.089844 217.675781 49.089844 204.457031 48.8125 C 199.644531 48.710938 197.066406 48.710938 196.863281 48.820312 C 196.394531 49.074219 196.332031 49.640625 196.542969 51.703125 C 196.769531 53.902344 196.65625 55.949219 196.191406 57.941406 C 195.886719 59.257812 195.011719 61.152344 194.523438 61.554688 C 194.40625 61.652344 193.855469 61.824219 193.296875 61.941406 C 192.304688 62.144531 192.257812 62.140625 191.46875 61.683594 C 190.121094 60.90625 189.214844 59.613281 188.761719 57.8125 C 188.464844 56.640625 188.09375 56.308594 187.769531 56.914062 C 187.675781 57.089844 187.515625 58.269531 187.414062 59.539062 C 187.175781 62.503906 186.910156 63.425781 186.03125 64.382812 C 185.144531 65.355469 184.136719 65.8125 183.203125 65.671875 C 182.617188 65.585938 182.308594 65.371094 181.3125 64.367188 C 180.121094 63.167969 180.117188 63.167969 179.800781 61.675781 C 179.625 60.855469 179.351562 59.421875 179.191406 58.496094 C 178.964844 57.175781 178.835938 56.789062 178.609375 56.730469 C 178.199219 56.621094 178.128906 57.019531 178.128906 59.453125 C 178.125 62.679688 177.265625 65.394531 175.800781 66.824219 C 175.132812 67.476562 175.09375 67.488281 173.925781 67.488281 C 172.832031 67.488281 172.664062 67.441406 171.949219 66.925781 C 170.484375 65.871094 169.863281 64.601562 169.25 61.386719 C 168.664062 58.335938 168.695312 58.441406 168.339844 58.441406 C 167.972656 58.441406 167.894531 58.722656 167.6875 60.765625 C 167.503906 62.570312 167.199219 63.277344 166.328125 63.910156 C 165.28125 64.667969 163.9375 64.542969 162.894531 63.589844 C 162.160156 62.914062 161.230469 61.675781 160.921875 60.949219 C 159.773438 58.246094 159.101562 55.527344 158.789062 52.296875 C 158.65625 50.949219 158.359375 49.453125 158.175781 49.207031 C 157.945312 48.902344 152.367188 48.8125 133.21875 48.792969 C 123.359375 48.785156 115.167969 48.785156 115.011719 48.792969 C 114.179688 48.847656 113.992188 49.945312 114.542969 51.550781 C 114.726562 52.082031 114.875 52.90625 114.875 53.378906 C 114.875 54.628906 115.441406 58.128906 116.867188 65.746094 C 118 71.804688 118.152344 72.902344 118.359375 76.417969 C 118.570312 80.070312 118.574219 83.460938 118.375 84.691406 C 118.023438 86.832031 116.085938 91.035156 114.765625 92.523438 C 114.136719 93.238281 112.6875 94.238281 111.230469 94.96875 C 110.429688 95.367188 109.726562 95.5625 108.488281 95.730469 C 106.367188 96.011719 102.714844 96 101.066406 95.703125 Z M 107.925781 93.722656 C 110.171875 93.328125 111.527344 92.722656 113.121094 91.410156 C 114.140625 90.570312 114.871094 89.074219 115.921875 85.667969 L 116.667969 83.261719 L 116.527344 80.605469 C 116.445312 79.144531 116.308594 77.425781 116.21875 76.785156 C 116.125 76.148438 115.894531 74.28125 115.703125 72.636719 C 115.511719 70.992188 115.054688 67.929688 114.691406 65.828125 C 114.324219 63.730469 113.8125 60.777344 113.554688 59.269531 C 112.148438 51.140625 111.105469 45.230469 110.503906 42.003906 C 109.738281 37.863281 109.648438 37.1875 109.835938 36.886719 C 110.246094 36.238281 111.273438 36.539062 111.640625 37.417969 C 111.761719 37.710938 112.097656 39.367188 112.382812 41.097656 C 112.96875 44.671875 113.253906 45.722656 113.8125 46.371094 C 114.195312 46.816406 114.253906 46.828125 116.324219 46.890625 C 117.492188 46.925781 124.453125 46.960938 131.800781 46.972656 C 143.207031 46.988281 145.1875 46.957031 145.390625 46.753906 C 145.597656 46.546875 145.453125 46 144.265625 42.558594 C 142.125 36.351562 140.84375 33 139.523438 30.175781 C 137.339844 25.480469 135.90625 22.929688 134.261719 20.808594 C 133.414062 19.71875 132.0625 17.917969 131.257812 16.8125 C 130.453125 15.703125 129.464844 14.527344 129.0625 14.199219 C 128.660156 13.867188 128.234375 13.507812 128.121094 13.394531 C 126.046875 11.410156 122.46875 9.105469 118.113281 6.957031 C 114.609375 5.226562 114.332031 5.121094 111.222656 4.332031 C 107.023438 3.257812 103.972656 2.824219 100.695312 2.824219 C 93.132812 2.824219 87.433594 4.140625 81.507812 7.261719 C 76.820312 9.730469 74.199219 11.691406 71.847656 14.484375 C 70.90625 15.601562 69.589844 17.144531 68.921875 17.910156 C 66.984375 20.140625 66.222656 21.417969 64.574219 25.230469 C 62.484375 30.0625 60.523438 35.925781 60.011719 38.867188 C 59.792969 40.113281 59.425781 42.109375 59.191406 43.3125 C 58.957031 44.511719 58.765625 45.640625 58.765625 45.820312 C 58.765625 46 58.984375 46.394531 59.25 46.691406 L 59.734375 47.234375 L 74.480469 47.277344 C 84.976562 47.3125 89.351562 47.269531 89.667969 47.140625 C 89.914062 47.039062 90.191406 46.757812 90.289062 46.515625 C 90.386719 46.269531 90.570312 44.09375 90.703125 41.671875 C 90.832031 39.253906 90.992188 37.144531 91.054688 36.988281 C 91.117188 36.828125 91.433594 36.652344 91.757812 36.589844 C 92.253906 36.496094 92.398438 36.542969 92.667969 36.875 C 92.964844 37.246094 92.980469 37.480469 92.894531 40.34375 C 92.726562 45.808594 92.488281 49.621094 91.980469 54.871094 C 90.453125 70.65625 90.691406 79.601562 92.78125 85.335938 C 93.675781 87.789062 94.632812 89.183594 96.671875 90.996094 C 98.601562 92.71875 99.730469 93.316406 101.84375 93.738281 C 103.253906 94.019531 106.285156 94.011719 107.925781 93.722656 Z M 89.96875 28.382812 C 89.382812 27.757812 89.25 27.359375 89.382812 26.640625 C 89.527344 25.878906 90.320312 25.234375 91.113281 25.234375 C 91.835938 25.234375 92.371094 25.570312 92.714844 26.234375 C 93.390625 27.539062 92.605469 28.878906 91.164062 28.882812 C 90.570312 28.886719 90.355469 28.796875 89.96875 28.382812 Z M 110.246094 28.453125 C 109.644531 28.027344 109.34375 27.152344 109.566406 26.46875 C 109.988281 25.199219 111.421875 24.824219 112.425781 25.71875 C 112.890625 26.136719 112.96875 26.3125 112.96875 26.980469 C 112.96875 27.644531 112.890625 27.820312 112.425781 28.238281 C 111.796875 28.800781 110.875 28.890625 110.246094 28.453125 Z M 174.949219 64.730469 C 175.285156 64.613281 175.621094 64.300781 175.878906 63.859375 C 176.535156 62.742188 176.6875 61.175781 176.582031 56.550781 C 176.527344 53.996094 176.554688 52.25 176.65625 51.984375 C 177.058594 50.917969 178.214844 50.363281 179.078125 50.824219 C 179.324219 50.953125 179.675781 51.414062 179.894531 51.898438 C 180.226562 52.621094 180.304688 53.160156 180.4375 55.632812 C 180.570312 58.121094 180.664062 58.765625 181.113281 60.265625 C 181.65625 62.078125 181.886719 62.46875 182.640625 62.855469 C 183.519531 63.3125 184.214844 63.027344 184.722656 62.011719 C 184.8125 61.828125 185.058594 59.921875 185.265625 57.777344 L 185.644531 53.875 L 185.121094 52.84375 C 184.835938 52.273438 184.597656 51.671875 184.597656 51.507812 C 184.597656 51.34375 184.8125 50.949219 185.078125 50.632812 C 185.539062 50.082031 185.601562 50.058594 186.882812 50 L 188.210938 49.941406 L 188.644531 50.511719 C 188.886719 50.828125 189.082031 51.207031 189.082031 51.359375 C 189.082031 51.507812 189.273438 52.621094 189.511719 53.832031 C 189.972656 56.203125 190.785156 58.273438 191.375 58.589844 C 191.832031 58.835938 192.605469 58.820312 192.941406 58.566406 C 193.359375 58.25 193.894531 56.863281 194.234375 55.230469 C 194.492188 53.984375 194.515625 53.527344 194.371094 52.242188 C 194.148438 50.238281 193.277344 47.617188 192.175781 45.65625 C 191.320312 44.128906 191.253906 44.058594 190.0625 43.386719 C 188.933594 42.753906 188.535156 42.640625 185.261719 42.023438 C 181.617188 41.332031 178.800781 41.03125 175.550781 40.984375 C 172.023438 40.929688 166.480469 42.171875 164.265625 43.511719 C 162.304688 44.691406 161.363281 46.023438 160.523438 48.792969 C 160.171875 49.949219 160.160156 50.117188 160.351562 51.699219 C 160.773438 55.234375 161.949219 59.441406 162.824219 60.546875 C 163.125 60.925781 163.546875 61.191406 164.140625 61.378906 C 165.265625 61.738281 165.777344 61.570312 166.234375 60.6875 C 166.550781 60.074219 166.570312 59.789062 166.527344 56.273438 C 166.46875 51.730469 166.515625 51.414062 167.25 51.0625 C 167.871094 50.769531 168.703125 50.726562 169.148438 50.964844 C 169.535156 51.171875 169.777344 52.136719 169.984375 54.289062 C 170.566406 60.339844 171.410156 63.675781 172.582031 64.546875 C 173.121094 64.949219 174.109375 65.027344 174.949219 64.730469 Z M 33.632812 63.917969 C 34.179688 63.726562 34.785156 62.847656 35.425781 61.308594 C 35.851562 60.289062 35.855469 60.230469 35.855469 55.96875 C 35.855469 51.164062 35.929688 50.808594 36.957031 50.464844 C 37.714844 50.214844 38.238281 50.515625 38.652344 51.445312 C 39.011719 52.25 39.085938 52.699219 39.335938 55.714844 C 39.496094 57.605469 39.863281 58.859375 40.558594 59.890625 C 40.851562 60.328125 41.03125 60.429688 41.5 60.429688 C 41.820312 60.429688 42.316406 60.289062 42.601562 60.117188 C 43.035156 59.851562 43.164062 59.617188 43.394531 58.664062 C 44.015625 56.097656 44.15625 54.710938 44.15625 51.277344 C 44.15625 47.175781 43.933594 46.125 42.792969 44.890625 C 41.996094 44.023438 40.109375 42.925781 37.96875 42.078125 C 34.976562 40.894531 28.441406 40.28125 24.570312 40.820312 C 22.648438 41.089844 19.417969 41.941406 16.519531 42.9375 C 14.625 43.589844 14.261719 43.777344 13.554688 44.460938 C 12.617188 45.371094 12.085938 46.464844 11.722656 48.214844 C 11.503906 49.273438 11.488281 49.902344 11.628906 52.171875 C 11.933594 57.109375 12.183594 58.363281 12.9375 58.769531 C 13.46875 59.050781 14.410156 58.972656 14.769531 58.613281 C 15.660156 57.71875 16.433594 55.292969 16.433594 53.378906 C 16.433594 52.585938 16.539062 51.710938 16.683594 51.300781 C 16.820312 50.914062 16.933594 50.429688 16.933594 50.226562 C 16.933594 50.023438 17.109375 49.667969 17.324219 49.433594 C 17.539062 49.203125 17.882812 48.742188 18.089844 48.40625 C 18.292969 48.074219 18.539062 47.824219 18.628906 47.855469 C 18.71875 47.886719 18.890625 48.195312 19.011719 48.546875 C 19.132812 48.894531 19.425781 49.382812 19.664062 49.632812 C 20.082031 50.066406 20.109375 50.21875 20.351562 53.390625 C 20.5 55.332031 20.769531 57.453125 21.003906 58.523438 C 21.222656 59.527344 21.453125 60.648438 21.515625 61.015625 C 21.664062 61.890625 22.160156 62.574219 22.867188 62.867188 C 23.679688 63.207031 24.3125 63.023438 24.722656 62.328125 C 25.144531 61.613281 25.566406 60.019531 25.566406 59.132812 C 25.566406 58.765625 25.683594 57.914062 25.828125 57.246094 C 26.03125 56.308594 26.066406 55.550781 25.984375 53.917969 C 25.863281 51.585938 25.992188 51.109375 26.875 50.597656 C 27.621094 50.160156 28.339844 50.398438 28.875 51.253906 C 29.257812 51.875 29.351562 52.246094 29.433594 53.523438 C 29.605469 56.09375 30.046875 58.78125 30.558594 60.351562 C 31.121094 62.082031 31.96875 63.582031 32.546875 63.875 C 33.039062 64.125 33.039062 64.125 33.632812 63.917969 Z M 33.632812 63.917969 "/>
</g>
</svg>
