<?xml version="1.0" encoding="UTF-8" standalone="no"?>
<svg version="1.1" id="svg1" width="520" height="678.66669" viewBox="0 0 520 678.66669" xmlns="http://www.w3.org/2000/svg" xmlns:svg="http://www.w3.org/2000/svg">
  <defs id="defs1" />
  <g id="g1">
    <path id="path1" style="fill:#000000" d="m 245.49505,665.66669 c -1.40753,-2.75 -56.11836,-105.20001 -121.57962,-227.66668 L 4.8949642,215.33334 4.3179261,200.00001 C 2.2376538,144.72201 31.389079,92.861401 81.736654,62.271502 125.56668,35.641498 137.20954,29.724397 162.05339,21.453138 194.61851,10.611243 219.08701,7.3840747 261.15971,8.3819356 c 33.50822,0.7947322 51.24527,3.1068774 83.51944,10.8873234 38.60435,9.306484 88.86283,28.164939 103.04678,38.666174 37.15834,27.510556 65.14258,85.306667 67.90827,140.251557 l 0.74766,14.85365 -10.71848,20.47968 c -12.86322,24.57762 -47.6682,85.78579 -88.6004,155.81303 -71.15394,121.73089 -166.37705,281.33334 -167.85104,281.33334 -0.63676,0 -2.30936,-2.25 -3.71689,-5 z M 203.40252,496.52042 C 182.95556,374.34791 163.9673,268.79288 154.49884,224.66667 150.01655,203.77772 151.18679,205.56121 132.66667,191.39355 97.955804,164.84017 66.300121,162.32037 44.92138,184.409 c -3.806759,3.93317 -8.646609,10.40058 -10.755221,14.37202 l -3.833841,7.22081 92.363702,184.66576 c 50.80004,101.56617 92.59721,183.99994 92.8826,183.18616 0.28539,-0.81377 -5.19385,-35.61378 -12.1761,-77.33333 z m 83.96471,-111.73849 c 16.48136,-100.40328 29.9661,-184.36358 29.9661,-186.57845 0,-8.65026 -17.52128,-20.91629 -36.91759,-25.84472 -13.96129,-3.54743 -54.66468,-3.13757 -68.6778,0.69156 -11.67647,3.19062 -22.72298,8.15363 -28.02021,12.58901 l -3.61561,3.02734 36.67251,191.33334 c 20.16988,105.23334 37.03133,192.23334 37.46989,193.33334 0.55518,1.39247 1.15572,0.78495 1.977,-2 0.64878,-2.2 14.66435,-86.14814 31.14571,-186.55142 z m 93.14767,11.59416 c 69.25658,-121.09019 90.15177,-158.64373 90.15177,-162.02383 0,-9.05609 -10.0134,-18.69989 -30.12719,-29.0152 -24.16637,-12.39365 -47.81416,-16.31235 -65.39397,-10.83649 -5.03003,1.56678 -10.24424,3.69689 -11.58714,4.73357 -1.94642,1.5026 -9.85733,37.2641 -39.00545,176.32538 -20.1101,95.94227 -36.92164,176.2405 -37.35896,178.4405 -0.7048,3.54554 -0.56993,3.77277 1.18702,2 1.09019,-1.1 42.55045,-72.93077 92.13392,-159.62393 z"/>
  </g>
</svg>
