<?xml version="1.0" encoding="UTF-8" standalone="no"?>
<!-- Created with Inkscape (http://www.inkscape.org/) -->

<svg
   version="1.1"
   id="svg1"
   width="1386.6667"
   height="1105.3333"
   viewBox="0 0 1386.6667 1105.3333"
   sodipodi:docname="DBge39..svg"
   inkscape:version="1.3.2 (091e20e, 2023-11-25, custom)"
   xmlns:inkscape="http://www.inkscape.org/namespaces/inkscape"
   xmlns:sodipodi="http://sodipodi.sourceforge.net/DTD/sodipodi-0.dtd"
   xmlns="http://www.w3.org/2000/svg"
   xmlns:svg="http://www.w3.org/2000/svg">
  <defs
     id="defs1" />
  <sodipodi:namedview
     id="namedview1"
     pagecolor="#ffffff"
     bordercolor="#000000"
     borderopacity="0.25"
     inkscape:showpageshadow="2"
     inkscape:pageopacity="0.0"
     inkscape:pagecheckerboard="0"
     inkscape:deskcolor="#d1d1d1"
     inkscape:zoom="0.35048075"
     inkscape:cx="693.33337"
     inkscape:cy="552.0988"
     inkscape:window-width="1600"
     inkscape:window-height="837"
     inkscape:window-x="-8"
     inkscape:window-y="-8"
     inkscape:window-maximized="1"
     inkscape:current-layer="g1" />
  <g
     inkscape:groupmode="layer"
     inkscape:label="Image"
     id="g1">
    <path
       style="fill:#000000"
       d="m 688.59755,1102.3005 c -0.4586,-1.1951 -0.52313,-2.6756 -0.14341,-3.29 0.37973,-0.6144 0.14363,-5.5931 -0.52466,-11.0638 -1.05767,-8.6584 -5.26277,-54.6442 -5.26277,-57.5524 0,-0.5836 -52.7526,-1.061 -117.228,-1.061 H 448.2107 l -0.71372,-9.6667 c -0.85786,-11.6189 -2.59136,-28.73733 -4.81291,-47.52784 -0.90132,-7.62364 -1.40885,-20.07207 -1.12785,-27.66318 0.43075,-11.63641 0.93223,-14.22334 3.19612,-16.48722 2.6353,-2.6353 4.76603,-2.70047 114.63312,-3.5062 61.57135,-0.45155 112.45043,-1.27729 113.06462,-1.83498 0.61418,-0.55769 0.50046,-6.33147 -0.25271,-12.83062 -0.75318,-6.49914 -1.72493,-17.21663 -2.15946,-23.81663 -0.43452,-6.59999 -1.65379,-20.69999 -2.70949,-31.33333 -4.21755,-42.48068 -11.71687,-134.37897 -13.38313,-163.99998 -0.3919,-6.96667 -1.28085,-21.06667 -1.97546,-31.33334 -0.69461,-10.26666 -1.58509,-26.46666 -1.97884,-35.99999 -0.39376,-9.53334 -1.06435,-20.63036 -1.4902,-24.66005 l -0.77428,-7.32671 -2.54063,4.95221 c -4.66794,9.09874 -7.73193,9.01786 -35.18584,-0.92883 -34.9379,-12.65817 -67.28853,-22.30101 -119.33334,-35.56999 -74.76632,-19.0619 -149.76982,-38.24867 -178.61678,-45.69226 -20.58294,-5.31116 -23.53337,-5.7818 -25.43833,-4.05784 -1.18518,1.07258 -2.70359,1.95014 -3.37424,1.95014 -3.80251,0 -39.01377,-16.8955 -41.904,-20.10689 -1.83334,-2.03705 -7.83334,-5.61948 -13.33334,-7.96095 -5.5,-2.34147 -13.78658,-6.01288 -18.41463,-8.15869 -4.62805,-2.14581 -12.72805,-5.60041 -18,-7.67687 -12.64418,-4.98017 -34.19975,-14.27059 -59.3457,-25.57791 -11.23484,-5.05194 -20.78699,-9.18535 -21.22699,-9.18535 -0.44,0 -4.74785,-1.77007 -9.57301,-3.93349 -7.548023,-3.38425 -60.84857,-25.93556 -78.773012,-33.32864 -7.492035,-3.09015 -10.217745,-7.79195 -8.480647,-14.62897 1.05786,-4.16362 0.737424,-5.44443 -2.500665,-9.99538 -5.364675,-7.53976 -9.3008135,-21.06403 -9.3463951,-32.11351 -0.055003,-13.33334 2.226061,-20.26565 8.7960181,-26.73172 l 5.531689,-5.44421 32.000002,-2.24823 c 40.912931,-2.87443 91.90338,-6.10272 104.30888,-6.60398 5.30321,-0.21428 10.22286,-0.97061 10.93256,-1.68073 0.75611,-0.75656 1.44094,-17.57637 1.65405,-40.62446 0.39211,-42.40728 1.21563,-57.65925 2.80769,-52 2.39221,8.50352 3.63016,28.65952 3.63016,59.1054 l 0,33.17536 21,-0.86825 c 11.55,-0.47754 27.6,-1.42979 35.66667,-2.11611 8.06667,-0.68632 27.86667,-1.89365 44,-2.68296 16.13334,-0.78931 46.13334,-2.59546 66.66667,-4.01368 20.53334,-1.41821 47.83334,-3.20369 60.66667,-3.96774 12.83334,-0.76405 34.13334,-2.25138 47.33334,-3.30517 13.2,-1.05379 29.37425,-2.27481 35.94278,-2.71338 6.56853,-0.43856 12.50116,-1.14248 13.18362,-1.56427 0.68246,-0.42178 6.70821,-0.84001 13.39056,-0.9294 6.68234,-0.0894 12.89971,-0.63832 13.81638,-1.21985 1.05833,-0.6714 1.67386,-4.31363 1.68637,-9.97864 0.0212,-9.57109 3.09362,-24.91303 5.59216,-27.92358 2.63361,-3.1733 9.53277,-6.0785 14.03323,-5.90931 10.30589,0.38743 15.55306,9.47039 17.08718,29.57825 0.53151,6.96666 1.63419,13.10672 2.45039,13.64456 2.0975,1.38216 76.98701,-0.34299 79.81734,-1.83868 3.67369,-1.94135 3.20395,-14.46859 -0.78115,-20.83238 -4.08688,-6.5263 -6.99007,-15.32992 -8.99995,-27.2914 -2.02403,-12.04563 -0.92056,-18.67442 3.71572,-22.32132 4.66986,-3.67332 4.90207,-6.94576 3.92826,-55.36077 -0.30975,-15.4 -0.0903,-29.8 0.48768,-32 0.57797,-2.2 2.09477,-8.2 3.37067,-13.333334 4.66349,-18.76265 5.23667,-20.666665 6.22149,-20.666665 2.09589,0 6.76589,-11.581389 11.21311,-27.807987 5.25952,-19.190465 15.95038,-42.8896711 20.77334,-46.0497982 5.19479,-3.4037557 10.89879,-3.97773898 15.56252,-1.5660292 3.23411,1.6724235 5.54177,4.9835369 10.07994,14.4630664 5.25137,10.969313 8.06961,19.083723 16.24795,46.781928 1.27013,4.301648 3.58007,9.701647 5.13319,11.999999 1.55312,2.298351 3.89711,7.77882 5.20888,12.17882 1.31176,4.4 2.91353,9.499999 3.55949,11.333333 2.83142,8.036097 3.60839,22.019547 3.44401,61.982727 -0.15636,38.01229 -0.40823,42.69423 -2.31658,43.06174 -2.79276,0.53784 -3.82652,11.27119 -3.83908,39.86028 -0.008,17.92523 0.34795,21.92886 2.10513,23.68605 1.8534,1.8534 7.08287,2.07105 42.33334,1.7619 l 40.21872,-0.35271 0.79766,-10.71091 c 1.66942,-22.41683 6.03047,-30.75973 16.83657,-32.20913 8.92326,-1.19686 13.09107,1.99781 16.43093,12.59449 1.55879,4.94572 3.16749,13.95975 3.57488,20.03119 0.40739,6.07143 1.21416,11.33157 1.79282,11.68921 0.57867,0.35763 9.943,0.95616 20.80963,1.33006 21.886,0.75305 93.60751,5.30376 114.42419,7.26018 7.33337,0.68921 24.13337,1.28025 37.33337,1.31343 23.6474,0.0594 56.7867,1.43071 96,3.97243 11,0.71299 25.7,1.59246 32.6666,1.95436 43.8831,2.27964 71.0127,3.80539 98,5.51146 16.8667,1.06627 35.7466,1.9367 41.9553,1.93428 9.9705,-0.004 24.9846,0.89024 58.4151,3.47873 14.7889,1.14509 20.1529,6.96534 23.1341,25.10221 2.1644,13.16786 -3.3133,34.44122 -11.0449,42.89425 -2.1727,2.3754 -2.3306,3.3446 -1.0153,6.2313 2.0091,4.40952 0.4809,12.83751 -2.5178,13.88619 -1.2429,0.43463 -9.7598,4.07409 -18.9265,8.08769 -9.1666,4.01359 -25.3666,10.89937 -36,15.30172 -17.6695,7.31543 -36.6272,15.49442 -76.6666,33.07651 -35.3109,15.5057 -48.8194,21.27034 -49.8436,21.27034 -0.6031,0 -7.3349,2.91708 -14.9598,6.48241 -7.6248,3.56533 -16.7416,7.55765 -20.2595,8.87183 -3.5179,1.31417 -7.0578,3.64709 -7.8663,5.18425 -1.9525,3.71214 -1.6069,3.52126 -23.4037,12.92512 -14.2428,6.14484 -19.4369,7.83402 -20.7466,6.74707 -1.1689,-0.97009 -3.2651,-1.04608 -6.3338,-0.22961 -2.5227,0.67119 -8.1867,2.11359 -12.5867,3.20535 -4.4,1.09175 -18.5,5.03355 -31.3334,8.75955 -12.8333,3.726 -32.3333,9.14102 -43.3333,12.03338 -30.13657,7.92415 -60.41613,15.98496 -96.66668,25.73392 -17.96667,4.83183 -41.96667,11.19957 -53.33334,14.15054 -11.36666,2.95098 -35.66667,10.53222 -54,16.84722 -53.04145,18.27036 -57.5705,19.61264 -60.6376,17.97118 -1.47085,-0.78717 -3.82166,-3.6627 -5.22403,-6.39006 l -2.54976,-4.95883 -0.73473,4.66667 c -0.4041,2.56666 -1.01911,15.46666 -1.36669,28.66666 -0.34759,13.2 -1.25507,31.2 -2.01664,40 -0.76157,8.8 -2.31817,29.2 -3.45913,45.33333 -3.24672,45.90946 -7.93436,102.65173 -12.00637,145.33332 -3.14865,33.00312 -4.93198,54.27894 -5.14093,61.33333 l -0.19746,6.66667 113.78477,0.66666 113.78476,0.66667 2.45695,3.03456 c 1.35133,1.66901 2.87805,6.40486 3.39271,10.52411 1.00238,8.02279 -0.14142,29.27016 -2.10529,39.10799 -0.65876,3.3 -1.22388,15.98581 -1.25582,28.19064 -0.0496,18.9699 -0.36418,22.3082 -2.16711,23 -1.15998,0.4452 -54.81955,0.8094 -119.2435,0.8094 -110.41825,0 -117.17198,0.1337 -117.78928,2.3333 -0.36016,1.2833 -1.36309,10.7333 -2.22874,21 -2.70797,32.1168 -4.92025,47.5289 -7.14117,49.7498 -1.85373,1.8537 -2.13935,1.8423 -2.89077,-0.1159 z"
       id="path1" />
  </g>
</svg>
