<?xml version="1.0" encoding="UTF-8" standalone="no"?>
<!-- Created with Inkscape (http://www.inkscape.org/) -->

<svg
   version="1.1"
   id="svg1"
   width="930.66669"
   height="654.66669"
   viewBox="0 0 930.66669 654.66669"
   sodipodi:docname="FAC(KFW).svg"
   inkscape:version="1.3.2 (091e20e, 2023-11-25, custom)"
   xmlns:inkscape="http://www.inkscape.org/namespaces/inkscape"
   xmlns:sodipodi="http://sodipodi.sourceforge.net/DTD/sodipodi-0.dtd"
   xmlns="http://www.w3.org/2000/svg"
   xmlns:svg="http://www.w3.org/2000/svg">
  <defs
     id="defs1" />
  <sodipodi:namedview
     id="namedview1"
     pagecolor="#ffffff"
     bordercolor="#000000"
     borderopacity="0.25"
     inkscape:showpageshadow="2"
     inkscape:pageopacity="0.0"
     inkscape:pagecheckerboard="0"
     inkscape:deskcolor="#d1d1d1"
     inkscape:zoom="0.52220629"
     inkscape:cx="465.33334"
     inkscape:cy="326.49932"
     inkscape:window-width="1600"
     inkscape:window-height="837"
     inkscape:window-x="-8"
     inkscape:window-y="-8"
     inkscape:window-maximized="1"
     inkscape:current-layer="g1" />
  <g
     inkscape:groupmode="layer"
     inkscape:label="Image"
     id="g1">
    <path
       style="fill:#000000"
       d="m 457.46473,651.49166 c -1.03232,-1.24387 -2.05122,-11.75859 -2.86467,-29.56254 -1.47596,-32.30442 -2.09608,-33.85093 -10.41495,-25.97413 -11.87304,11.24209 -31.02916,17.59399 -53.51843,17.74596 -12.36864,0.0836 -15.44311,-0.39746 -26.3844,-4.12819 -13.502,-4.60387 -25.526,-11.54615 -31.30283,-18.07329 -15.70391,-17.74356 -19.74369,-33.12409 -12.82182,-48.81618 6.02977,-13.6697 10.15941,-15.82415 66.50905,-34.698 4.03333,-1.35093 13.33333,-4.65538 20.66666,-7.34323 7.33334,-2.68784 16.61396,-5.99438 20.62362,-7.34784 8.00826,-2.70321 10.95906,-5.58697 10.07196,-9.84312 -0.31919,-1.53143 -1.50913,-9.98442 -2.6443,-18.78442 -1.13518,-8.8 -2.66345,-20.2 -3.39616,-25.33333 -4.55217,-31.89221 -10.93039,-94.84925 -12.7996,-126.3399 -1.14158,-19.23234 0.1995,-18.38907 -30.55197,-19.21096 -13.91695,-0.37196 -28.00355,-0.91115 -31.30355,-1.1982 -14.74972,-1.283 -78.53647,-4.68293 -111.33333,-5.93424 C 226.2,285.89462 192.6,284.37628 171.33334,283.27595 104.17763,279.80134 82.829727,278.85252 51.333334,277.94248 30.33379,277.33574 19.821874,276.52603 17.986761,275.37388 13.9977,272.8694 5.3333334,243.60112 5.3333334,232.63053 c 0,-2.49553 -0.9527128,-7.34348 -2.1171397,-10.77322 -1.9063868,-5.61513 -1.914838,-6.71478 -0.084897,-11.0466 1.1177334,-2.64589 2.4075006,-7.66264 2.8661494,-11.14834 0.5488166,-4.17097 2.299804,-8.25956 5.1217471,-11.95938 3.889215,-5.0991 5.214075,-5.83432 14.25099,-7.90843 5.479733,-1.25768 21.063151,-4.14043 34.629818,-6.40612 C 105.56297,165.77925 109.00251,165.1708 162,155.34482 c 5.86667,-1.08771 15.91504,-2.8935 22.32971,-4.01287 18.8434,-3.2882 34.1013,-6.02464 48.33696,-8.66903 19.57869,-3.63689 21.55588,-3.93739 34.37078,-5.22372 6.43726,-0.64616 12.56098,-1.88597 13.60826,-2.75513 1.04728,-0.86917 2.44006,-1.24909 3.09507,-0.84428 1.09391,0.67608 32.17899,-4.55946 67.26573,-11.3293 11.13192,-2.14786 15.24773,-2.45033 18.39822,-1.35206 2.42189,0.84427 8.39619,1.08025 14.81579,0.58521 10.45654,-0.80635 10.80593,-0.94488 12.49257,-4.95326 0.95434,-2.26804 3.56632,-5.86872 5.80439,-8.00152 l 4.06921,-3.87781 -0.1639,-15.586265 c -0.0901,-8.572449 0.26326,-16.277436 0.78535,-17.122193 0.52208,-0.844758 2.33163,-1.535923 4.02121,-1.535923 2.92693,0 3.11601,-0.599954 4.00472,-12.706962 0.51301,-6.988829 1.52032,-14.39245 2.23845,-16.452491 1.63203,-4.681656 10.38077,-9.790638 16.22014,-9.472044 12.84746,0.700953 12.53304,0.910156 13.31737,-8.860976 1.16421,-14.5035627 10.39157,-24.6678307 18.88209,-20.7992912 5.79888,2.6421458 10.32452,11.1649692 11.10738,20.9177672 0.69553,8.664911 0.71916,8.708077 4.84972,8.860868 2.28294,0.08445 5.24514,0.03922 6.58268,-0.100508 3.22785,-0.337197 12.96105,4.315173 15.94684,7.622427 3.9546,4.380383 8.14327,42.482435 5.07645,46.177735 -0.8154,0.982497 -1.25017,4.366191 -0.96615,7.51932 0.45163,5.013917 1.23208,6.22096 6.22253,9.623766 6.74911,4.60196 9.67921,7.95585 12.66742,14.49953 2.0198,4.42301 2.7834,4.89859 9.07981,5.65507 10.06461,1.20921 16.70909,1.0315 19.61683,-0.52468 1.86676,-0.99906 3.57042,-0.85546 6.24567,0.52644 2.02329,1.04513 18.37871,4.38729 36.34538,7.42701 17.96667,3.03972 35.36667,6.1421 38.66667,6.89416 13.84307,3.15481 32.75554,6.83073 54.66667,10.62527 40.76917,7.06034 117.55404,20.02243 130.116,21.96494 6.66379,1.03046 15.96379,2.75913 20.66666,3.8415 4.70287,1.08237 16.05067,3.23056 25.21734,4.77375 9.16667,1.54319 17.71667,3.11209 19,3.48645 2.16574,0.63177 2.33333,-1.18757 2.33333,-25.33051 0,-24.87361 0.77786,-30.11803 3.9531,-26.65236 0.94106,1.02712 2.63763,30.94673 2.69254,47.48382 0.0179,5.39695 0.4079,6.33334 2.63768,6.33334 1.43916,0 5.92738,1.2387 9.97382,2.75267 8.55685,3.20152 15.00369,10.06643 16.1642,17.2124 0.41994,2.58588 1.9306,6.8987 3.35702,9.58406 1.48315,2.79215 2.02141,5.0755 1.25725,5.33334 -0.73494,0.24797 -2.53418,7.05086 -3.99833,15.11753 -3.02865,16.68631 -10.73546,41.26961 -13.9437,44.47785 -1.76324,1.76325 -6.90197,2.3222 -28.45604,3.09527 -14.46731,0.51889 -41.9042,1.58865 -60.97087,2.37724 -62.57371,2.58802 -99.52857,3.89263 -131.33334,4.63642 -64.0602,1.49812 -116.82649,3.65727 -122,4.99214 -2.93333,0.75686 -6.53333,1.26336 -8,1.12556 -1.46667,-0.13779 -14.13161,-0.52718 -28.14431,-0.8653 l -25.47764,-0.61476 -2.15961,3.29598 c -1.657,2.52891 -2.64497,10.68711 -4.24511,35.05446 -1.14702,17.46716 -2.92323,38.05847 -3.94713,45.75848 -1.72582,12.97866 -2.5601,20.51104 -3.99236,36.04554 -0.30656,3.32504 -1.16642,9.92504 -1.9108,14.66666 -0.74438,4.74162 -1.71744,11.92113 -2.16236,15.95446 -0.44492,4.03334 -1.88288,14.39379 -3.19547,23.02323 -1.3126,8.62945 -2.11704,17.09971 -1.78765,18.82281 0.835,4.368 7.26892,7.57316 28.35577,14.12589 9.9,3.07642 27.3,8.58473 38.66667,12.2407 43.06767,13.85226 45.46177,15.13876 51.71049,27.78738 3.06986,6.21399 3.60774,8.96146 3.52388,18 -0.0846,9.11451 -0.71501,11.95529 -4.33255,19.52233 -8.94067,18.70172 -29.25309,31.85182 -54.99816,35.60538 -13.20505,1.92525 -14.83783,1.8996 -25.82336,-0.40578 -21.67807,-4.54928 -43.41364,-17.72747 -43.41364,-26.32153 0,-4.78642 -3.13497,-4.47482 -3.72951,0.3707 -0.2179,1.7759 -1.226,5.0289 -2.24022,7.2289 -1.01422,2.2 -3.13177,14.62735 -4.70566,27.61632 -1.5739,12.98898 -3.29852,25.24989 -3.83248,27.24646 -1.1527,4.31011 -3.15181,5.29046 -5.36074,2.62886 z"
       id="path1" />
  </g>
</svg>
