<?xml version="1.0" encoding="UTF-8" standalone="no"?>
<!-- Created with Inkscape (http://www.inkscape.org/) -->

<svg
   version="1.1"
   id="svg1"
   width="1386.6667"
   height="1078.6667"
   viewBox="0 0 1386.6667 1078.6667"
   sodipodi:docname="FBam39.png"
   inkscape:version="1.3.2 (091e20e, 2023-11-25, custom)"
   xmlns:inkscape="http://www.inkscape.org/namespaces/inkscape"
   xmlns:sodipodi="http://sodipodi.sourceforge.net/DTD/sodipodi-0.dtd"
   xmlns="http://www.w3.org/2000/svg"
   xmlns:svg="http://www.w3.org/2000/svg">
  <defs
     id="defs1" />
  <sodipodi:namedview
     id="namedview1"
     pagecolor="#ffffff"
     bordercolor="#000000"
     borderopacity="0.25"
     inkscape:showpageshadow="2"
     inkscape:pageopacity="0.0"
     inkscape:pagecheckerboard="0"
     inkscape:deskcolor="#d1d1d1"
     inkscape:zoom="0.35048075"
     inkscape:cx="693.33337"
     inkscape:cy="540.6859"
     inkscape:window-width="1600"
     inkscape:window-height="837"
     inkscape:window-x="-8"
     inkscape:window-y="-8"
     inkscape:window-maximized="1"
     inkscape:current-layer="g1" />
  <g
     inkscape:groupmode="layer"
     inkscape:label="Image"
     id="g1">
    <path
       style="fill:#000000"
       d="m 691.48484,1075.8897 c -0.33144,-1.0393 -0.88147,-5.4896 -1.22229,-9.8896 -0.35546,-4.5891 -1.88475,-10.4252 -3.58676,-13.6879 -2.42005,-4.6392 -2.65963,-6.0583 -1.29946,-7.6972 1.18352,-1.4261 1.40833,-4.6132 0.77442,-10.9788 -0.49127,-4.9332 -1.1864,-11.9695 -1.54473,-15.6361 -1.20232,-12.3028 -3.45079,-29.28928 -3.942,-29.78049 -0.26761,-0.26761 -1.08823,-0.11471 -1.8236,0.33977 -1.54467,0.95466 -12.04139,16.91412 -14.90415,22.66072 -2.10073,4.2168 -12.75059,15.4466 -14.64895,15.4466 -0.64287,0 -3.37923,1.5 -6.0808,3.3334 -2.70157,1.8333 -6.20821,3.3333 -7.79255,3.3333 -1.58433,0 -3.4666,0.586 -4.18281,1.3022 -1.99619,1.9962 -32.71628,3.9201 -39.45262,2.4707 -5.33764,-1.1483 -13.64385,-2.3026 -20.66787,-2.872 -1.58914,-0.1288 -3.33914,-0.6842 -3.88888,-1.2342 -0.54975,-0.55 -2.36412,-1 -4.03196,-1 -1.66783,0 -3.40324,-0.6 -3.85646,-1.3334 -0.45323,-0.7333 -3.45323,-1.3333 -6.66667,-1.3333 -3.21344,0 -6.21344,-0.6 -6.66667,-1.3333 -0.45322,-0.7334 -2.25322,-1.3334 -4,-1.3334 -1.74677,0 -3.56186,-0.6244 -4.03352,-1.3875 -0.47166,-0.7632 -1.92236,-1.0496 -3.22378,-0.6366 -1.3077,0.4151 -3.11991,-0.1571 -4.05105,-1.2791 -0.92666,-1.1165 -2.76162,-2.0301 -4.0777,-2.0301 -1.31608,0 -5.24788,-1.2238 -8.73733,-2.7195 -3.48946,-1.4958 -7.16191,-2.4059 -8.16101,-2.0225 -0.99911,0.3834 -2.14397,-0.1562 -2.54414,-1.199 -0.40017,-1.0428 -2.41524,-2.2667 -4.47793,-2.7198 -2.0627,-0.453 -4.80557,-1.9897 -6.09527,-3.4148 -1.2897,-1.4251 -3.20727,-2.5911 -4.26128,-2.5911 -1.05401,0 -3.44193,-1.2 -5.3065,-2.6666 -1.86456,-1.4667 -4.2092,-2.6667 -5.2103,-2.6667 -1.00111,0 -1.82019,-0.5063 -1.82019,-1.125 0,-0.61882 -3.6,-4.01254 -8,-7.54166 -4.4,-3.52911 -8,-7.48743 -8,-8.79626 0,-1.30883 -0.54809,-2.71843 -1.21797,-3.13244 -5.38323,-3.32702 -9.96198,-27.45596 -6.77781,-35.71745 8.72213,-22.62997 19.80718,-34.16118 37.69862,-39.21597 4.23656,-1.19694 8.02197,-2.69262 8.41202,-3.32374 0.39005,-0.63111 1.96073,-1.14748 3.49039,-1.14748 3.1237,0 33.31841,-9.69557 42.09709,-13.51744 3.13628,-1.36541 6.92573,-2.48256 8.42099,-2.48256 1.49526,0 3.94467,-0.65615 5.44314,-1.4581 1.49847,-0.80196 6.40902,-2.53689 10.91234,-3.8554 7.90985,-2.3159 12.29456,-3.79089 22.18786,-7.46386 8.15532,-3.02772 35.20284,-11.48834 38.66667,-12.09515 5.56787,-0.9754 12.26405,-3.51272 20.58676,-7.80076 10.00185,-5.15316 11.90261,-8.96208 9.31187,-18.66007 -0.97952,-3.66666 -1.80742,-9.13477 -1.83978,-12.15135 -0.0324,-3.01657 -0.6287,-8.48947 -1.32518,-12.16201 -1.50431,-7.93222 -3.97114,-30.35211 -4.88013,-44.35331 -0.35708,-5.5 -1.17723,-11.8 -1.82258,-14 -0.64534,-2.2 -1.50302,-9.76629 -1.90595,-16.81399 -0.40293,-7.04769 -1.01835,-13.64769 -1.36758,-14.66666 -0.60036,-1.75168 -3.37817,-35.45211 -4.10919,-49.85269 -0.18613,-3.66667 -0.47885,-6.96667 -0.65049,-7.33333 -0.17164,-0.36667 -0.47276,-2.46667 -0.66916,-4.66667 -0.19639,-2.2 -0.73553,-8.2 -1.19809,-13.33333 -1.91262,-21.22589 -3.63092,-27.61553 -12.37028,-46.00001 -4.70613,-9.9 -9.24123,-19.2 -10.078,-20.66667 -0.83677,-1.46666 -2.77129,-5.06666 -4.29893,-8 -4.80885,-9.23378 -7.76069,-13.08087 -17.1362,-22.33333 -6.17653,-6.09548 -10.15603,-9 -12.33092,-9 -4.71861,0 -14.97521,-2.55243 -22.58284,-5.6199 -3.66667,-1.47844 -7.98693,-2.62796 -9.60059,-2.55449 -1.61366,0.0735 -3.29907,-0.45724 -3.74535,-1.17935 -0.44629,-0.72211 -2.75603,-1.31293 -5.13275,-1.31293 -2.37672,0 -4.89131,-0.52752 -5.58798,-1.17226 -2.21305,-2.04812 -11.39693,-4.47363 -16.66356,-4.40095 -2.86982,0.0396 -5.77634,-0.76394 -6.67353,-1.84498 -0.87419,-1.05333 -3.19596,-1.91514 -5.1595,-1.91514 -1.96354,0 -4.14008,-0.56956 -4.83674,-1.26569 -0.69667,-0.69613 -3.36667,-1.52673 -5.93334,-1.84577 -8.51091,-1.05793 -29.64394,-6.6733 -37.03301,-9.84024 -2.40148,-1.02928 -5.40148,-1.74243 -6.66666,-1.58478 -1.26518,0.15765 -3.98939,-0.40715 -6.0538,-1.25511 -2.0644,-0.84796 -4.87899,-1.54175 -6.25464,-1.54175 -1.37565,0 -2.872,-0.6 -3.32522,-1.33333 -0.45323,-0.73334 -2.54958,-1.33334 -4.65856,-1.33334 -2.10898,0 -5.52357,-0.71723 -7.58798,-1.59385 -2.06441,-0.87662 -4.35347,-1.65826 -5.0868,-1.73699 -0.73333,-0.0787 -3.43333,-0.82905 -6,-1.6674 -2.56667,-0.83834 -6.46667,-1.79099 -8.66667,-2.11699 -9.16034,-1.35741 -14.07219,-2.58955 -14.76008,-3.70258 -0.40185,-0.6502 -2.39522,-1.18219 -4.42972,-1.18219 -2.0345,0 -4.11455,-0.41546 -4.62233,-0.92325 -0.50779,-0.50778 -2.00219,-1.0879 -3.32089,-1.28915 -5.00254,-0.76344 -17.4573,-4.31958 -20.12056,-5.74492 -1.52712,-0.81729 -3.5198,-1.36502 -4.42817,-1.21717 -0.90837,0.14785 -3.15158,-0.35286 -4.98492,-1.11267 -1.83333,-0.75982 -6.48266,-1.81225 -10.33184,-2.33874 -3.84918,-0.52649 -7.29985,-1.44483 -7.66816,-2.04076 -0.3683,-0.59593 -3.81897,-1.50439 -7.66815,-2.01879 -3.84918,-0.5144 -7.89851,-1.69091 -8.99851,-2.61448 -2.24222,-1.88257 -3.69036,-2.11374 -16.00001,-2.55406 -7.76058,-0.27759 -13.31391,-1.39811 -31.28873,-6.31322 -2.90881,-0.7954 -5.95254,-2.35399 -6.76386,-3.46353 -1.7051,-2.33187 -8.81121,-5.19543 -19.28074,-7.76959 -4.03334,-0.99168 -9.73334,-2.48168 -12.66667,-3.31111 -2.93333,-0.82943 -7.13333,-1.83405 -9.33333,-2.23249 -2.2,-0.39843 -4.68648,-1.26979 -5.5255,-1.93635 -0.83903,-0.66656 -4.60655,-1.57683 -8.37228,-2.02282 -3.76573,-0.446 -7.16466,-1.32525 -7.55319,-1.9539 -0.38853,-0.62865 -2.2008,-1.143 -4.02727,-1.143 -1.82647,0 -5.14522,-0.94341 -7.37499,-2.09647 -2.22977,-1.15306 -4.93141,-1.75983 -6.00365,-1.34837 -1.07223,0.41145 -3.26808,-0.0779 -4.87965,-1.08733 -1.61158,-1.00949 -7.13014,-2.60503 -12.26348,-3.54565 -5.13333,-0.94062 -9.90333,-2.20791 -10.6,-2.8162 -0.69666,-0.60829 -2.91125,-1.10598 -4.92131,-1.10598 -2.01005,0 -3.9932,-0.54779 -4.40699,-1.21732 -0.41378,-0.66952 -3.29919,-1.63736 -6.41202,-2.15075 -3.11282,-0.51339 -6.25968,-1.40057 -6.99301,-1.97151 -1.41987,-1.10545 -15.97893,-4.39211 -19.33334,-4.36445 -1.1,0.009 -2.9,-0.70612 -4,-1.58933 -1.1,-0.88321 -6.22098,-2.9048 -11.379961,-4.49242 -8.690268,-2.67433 -33.676951,-15.79135 -37.715277,-19.79903 -0.969047,-0.96169 -2.404359,-1.74853 -3.189582,-1.74853 -3.197465,0 -32.610289,-27.3676 -35.668811,-33.18858 -0.921458,-1.75372 -4.208499,-6.55372 -7.304533,-10.66667 C 2.5055712,324.33713 -1.2201713,294.41843 7.5866664,278.66669 13.99669,267.20184 16.570208,263.77363 20.160456,261.91705 c 2.11175,-1.09203 3.839545,-2.54128 3.839545,-3.22055 0,-2.39728 12.581181,-9.85143 19.9103,-11.79654 4.082669,-1.08351 11.773036,-2.22666 17.089703,-2.54032 l 9.666667,-0.5703 0.154708,-4.22799 c 0.08509,-2.3254 0.104239,-18.028 0.04256,-34.89467 -0.121518,-33.22787 0.174982,-36.66667 3.161473,-36.66667 2.141094,0 2.046901,-1.71735 2.696738,49.16773 0.24969,19.55177 0.753956,26.09647 2.073564,26.91203 0.959002,0.59269 2.13727,0.83435 2.618373,0.53701 0.481103,-0.29734 14.309751,-0.8614 30.730328,-1.25348 16.42058,-0.39207 37.0556,-1.01309 45.8556,-1.38005 8.8,-0.36695 29.5,-0.9981 46,-1.40255 42.09101,-1.03175 48.66295,-1.34231 50.3402,-2.37891 0.81155,-0.50157 1.88171,-0.25475 2.37813,0.54849 0.56054,0.90696 3.24827,1.17257 7.09214,0.70088 3.40424,-0.41775 19.98954,-1.07607 36.8562,-1.46293 16.86667,-0.38686 38.76667,-1.04996 48.66667,-1.47355 9.9,-0.42359 39.00001,-0.75987 64.66667,-0.74728 25.66667,0.0126 47.71667,-0.27035 49.00001,-0.62876 2.07442,-0.57935 2.33333,-2.64365 2.33333,-18.60365 0,-14.95034 0.34403,-18.08402 2.0575,-18.74154 1.13163,-0.43425 2.48163,-0.36715 3.00001,0.14909 0.51837,0.51625 1.13866,8.97347 1.37843,18.79382 l 0.43594,17.85519 22.23073,-0.68332 c 12.2269,-0.37583 28.62479,-0.82449 36.43975,-0.99703 l 14.20902,-0.31371 6.90427,-6.45814 6.90428,-6.45814 8.18366,0.92587 c 7.29209,0.82501 8.71529,1.50174 13.0635,6.2117 l 4.87984,5.28582 18.91839,-0.36371 c 10.73771,-0.20642 19.39588,-0.94974 20.0226,-1.71895 0.6073,-0.74539 0.56333,-4.65526 -0.0977,-8.68859 -0.66104,-4.03333 -1.53597,-12.39759 -1.94428,-18.58724 -0.4083,-6.18965 -0.99182,-11.65752 -1.2967,-12.15083 -0.76197,-1.23289 -4.58294,-34.33837 -5.37793,-46.59527 -1.66876,-25.72826 -0.65821,-48.302309 2.24257,-50.095088 0.64872,-0.400928 1.17948,-1.706422 1.17948,-2.901098 0,-3.177447 5.32698,-10.425108 9.45437,-12.863217 2.52992,-1.494462 7.58505,-2.195 17.27784,-2.394356 13.67836,-0.281329 13.70397,-0.288132 15.11034,-4.014026 1.89602,-5.023139 7.49079,-5.340034 7.49079,-0.424289 0,4.688448 5.63986,5.978664 10.4494,2.390483 l 3.5506,-2.648939 0.36571,-21.388348 c 0.28894,-16.898765 0.77873,-21.731124 2.33333,-23.021332 1.38193,-1.146899 1.96763,-4.334262 1.96763,-10.70782 0,-9.9911478 1.82195,-13.2653131 7.38166,-13.2653131 4.23163,0 5.52313,2.9312926 5.84372,13.2634121 0.21599,6.961067 0.7851,8.959814 2.99109,10.504953 2.57915,1.806504 2.70164,3.018319 2.29831,22.73659 -0.31004,15.157355 0.0402,21.667236 1.28647,23.909296 2.27534,4.093482 7.14146,3.452366 8.2042,-1.080913 0.57053,-2.433643 1.66137,-3.333333 4.04157,-3.333333 2.56619,0 3.40494,0.836056 3.94048,3.927826 l 0.68035,3.927827 16.49338,0.324004 c 14.41606,0.283196 16.851,0.661096 19.33275,3.000428 3.15434,2.973331 7.77016,11.672809 9.9856,18.819917 1.92844,6.221266 0.85186,42.306196 -1.7503,58.666676 -1.10806,6.96666 -2.37912,17.4564 -2.82457,23.31051 -0.44546,5.85412 -1.38992,11.7276 -2.09881,13.05217 -0.70889,1.32458 -1.50655,6.43485 -1.77256,11.35616 -0.26602,4.9213 -1.13235,10.63689 -1.92517,12.70129 -1.90174,4.95188 -1.82983,9.84916 0.16272,11.08062 0.88232,0.5453 7.33232,1.17749 14.33333,1.40487 7.00101,0.22737 13.92912,0.52359 15.39578,0.65827 8.4271,0.7738 12.74805,-0.34498 16.17141,-4.18712 3.73103,-4.18744 9.84915,-6.81322 16.30244,-6.99671 4.49452,-0.12778 13.52616,4.97279 13.52616,7.63884 0,3.25603 10.05015,4.63808 35.33333,4.85885 8.8,0.0769 20.66519,0.72165 26.36709,1.4329 7.7402,0.96551 10.85599,0.88743 12.29657,-0.30815 1.4708,-1.22065 2.01747,-5.84977 2.29958,-19.47241 0.48948,-23.63573 2.91057,-23.81631 3.41075,-0.2544 0.2555,12.03623 0.88908,17.94903 2,18.66472 0.89431,0.57616 9.42601,1.02849 18.95935,1.00518 22.68904,-0.0555 96.89571,1.15201 124.00001,2.0177 11.7333,0.37475 44.1333,0.98483 72,1.35573 27.8667,0.3709 62.9667,1.00151 78,1.40135 15.0333,0.39984 41.0843,1.00111 57.891,1.33615 76.1317,1.51767 77.4046,1.66132 89.7029,10.12277 12.4563,8.57014 24.4061,24.63217 24.4061,32.80481 0,1.36542 0.5596,3.05257 1.2435,3.74924 1.7434,1.77582 1.9195,16.99797 0.3115,26.91888 -0.7416,4.57538 -3.1949,12.22699 -5.4517,17.00356 -2.2568,4.77657 -4.1033,9.07436 -4.1033,9.55064 0,1.27888 -7.9723,11.89788 -13.3333,17.75988 -2.5667,2.8065 -6.5083,7.1122 -8.7592,9.56822 -2.2508,2.45602 -5.7846,5.66549 -7.8529,7.13216 -2.0683,1.46666 -5.9267,4.91568 -8.5742,7.66447 -2.6475,2.7488 -5.4137,5.00071 -6.1471,5.00425 -0.7333,0.004 -4.9333,2.40673 -9.3333,5.34042 -4.4,2.93369 -10.55,6.3133 -13.6667,7.51023 -3.1166,1.19694 -5.6666,2.69474 -5.6666,3.32844 0,0.63371 -0.9082,1.15219 -2.0181,1.15219 -1.11,0 -3.06,0.55499 -4.3333,1.2333 -1.2734,0.67832 -7.7153,2.86449 -14.3153,4.85817 -6.6,1.99368 -14.2621,4.4387 -17.027,5.43337 -2.7648,0.99467 -7.0794,1.80849 -9.588,1.80849 -2.5085,0 -4.867,0.49514 -5.241,1.10032 -0.374,0.60517 -5.6594,2.20633 -11.7453,3.55814 -6.086,1.35181 -11.6654,2.89164 -12.3987,3.42185 -0.7333,0.53021 -4.9333,1.663 -9.3333,2.51731 -4.4,0.85432 -9.5845,2.16498 -11.521,2.91259 -1.9366,0.74761 -5.2366,1.63012 -7.3333,1.96114 -2.0968,0.33101 -5.0124,0.87936 -6.4791,1.21855 -1.4666,0.33919 -7.7666,1.76645 -14,3.1717 -6.2333,1.40524 -12.8333,3.14877 -14.6666,3.87451 -1.8334,0.72574 -6.0334,2.06312 -9.3334,2.97195 -12.9762,3.57371 -15.4168,4.32816 -17.6485,5.45562 -1.2734,0.64331 -3.45,1.16966 -4.8368,1.16966 -1.3868,0 -3.2429,0.86931 -4.1247,1.9318 -1.7573,2.11741 -10.4622,5.45651 -12.9561,4.9698 -0.8614,-0.16811 -1.9468,0.31026 -2.412,1.06304 -0.4653,0.75278 -2.777,1.36869 -5.1372,1.36869 -2.3602,0 -5.6707,0.96619 -7.3567,2.14709 -2.4748,1.73342 -4.9453,1.97093 -12.8225,1.23277 -6.4683,-0.60613 -10.0558,-0.43099 -10.6433,0.51958 -0.4874,0.78865 -2.6226,1.4339 -4.7448,1.4339 -2.1222,0 -5.2368,0.53752 -6.9213,1.19448 -1.6845,0.65696 -5.7627,1.91544 -9.0627,2.79662 -3.3,0.88118 -7.0419,2.14366 -8.3153,2.80552 -1.2734,0.66186 -3.788,1.20338 -5.588,1.20338 -1.8,0 -3.5906,0.51435 -3.9791,1.143 -0.3885,0.62865 -3.6781,1.49495 -7.3102,1.92512 -3.6321,0.43017 -7.6996,1.33473 -9.039,2.01013 -2.6733,1.3481 -26.53321,7.70578 -37.10178,9.88607 -3.66666,0.75643 -8.46666,2.16415 -10.66666,3.12825 -2.2,0.96411 -7.9,2.44409 -12.66667,3.28884 -4.76667,0.84475 -9.29043,2.04822 -10.05281,2.67436 -0.76238,0.62615 -6.16238,2.11939 -12,3.31831 -5.83762,1.19892 -12.41386,3.0258 -14.61386,4.05974 -2.2,1.03393 -5.8,2.12124 -8,2.41625 -2.2,0.29501 -6.62544,1.49942 -9.8343,2.67649 -3.20887,1.17706 -7.40887,2.13714 -9.33334,2.13351 -3.46515,-0.007 -14.63938,3.213 -19.19484,5.53044 -1.29937,0.66101 -5.19937,1.57144 -8.66667,2.02319 -3.4673,0.45175 -6.90419,1.28479 -7.63752,1.85119 -0.73333,0.5664 -3.73333,1.47766 -6.66667,2.02503 -2.93333,0.54736 -7.26406,1.80106 -9.62384,2.78598 -2.35978,0.98492 -6.04119,1.79077 -8.18092,1.79077 -2.13973,0 -5.609,0.8963 -7.7095,1.99179 -2.10049,1.09548 -5.07954,1.99548 -6.62011,2 -1.54057,0.005 -4.54057,0.57312 -6.66666,1.26357 -2.1261,0.69045 -7.36707,1.94367 -11.64661,2.78493 -4.48597,0.88184 -8.70499,2.60874 -9.96299,4.07797 -1.20011,1.40162 -2.87578,2.54841 -3.72373,2.54841 -1.75552,0 -11.5716,11.36574 -16.69733,19.33333 -5.28668,8.2178 -19.83498,36.14248 -19.83498,38.07219 0,0.94481 -0.8432,2.66508 -1.87378,3.82283 -2.38986,2.68475 -8.935,18.79636 -8.15107,20.06478 0.32535,0.52642 0.0504,3.00082 -0.61107,5.49867 -0.66144,2.49785 -1.8524,14.74154 -2.64658,27.20821 -2.76152,43.34872 -4.948,70.7724 -6.1126,76.66667 -1.606,8.12826 -4.24852,33.23428 -5.30814,50.43143 -0.5712,9.27042 -2.22864,23.87891 -4.11115,36.23524 -0.39104,2.56667 -0.67819,7.27558 -0.63811,10.46425 0.0401,3.18866 -0.53124,6.92635 -1.26959,8.30597 -2.1503,4.01788 -0.0511,8.94596 5.1942,12.19413 4.84539,3.0005 24.6368,10.34279 27.92563,10.35995 0.95209,0.005 4.12781,1.16701 7.05715,2.58232 2.92934,1.4153 7.25036,2.95281 9.60226,3.4167 4.65187,0.91752 10.73831,2.89539 14.94285,4.85589 1.46667,0.68388 5.96667,2.06635 10,3.07217 4.03334,1.00582 10.63334,3.01465 14.66667,4.46408 4.03333,1.44943 11.83333,3.94808 17.33334,5.55256 10.36342,3.02324 23.15038,7.49345 26.71794,9.34035 1.1282,0.58407 4.7282,1.49374 8,2.0215 3.2718,0.52775 8.45557,2.40194 11.51948,4.16485 3.06392,1.76291 7.09614,3.20529 8.96049,3.20529 1.86435,0 6.66906,1.5 10.67714,3.33333 4.00808,1.83334 7.87339,3.33334 8.58959,3.33334 3.43029,0 17.41671,13.73652 20.67249,20.30313 5.64925,11.39403 8.75143,29.43618 5.97229,34.73466 -0.68403,1.30411 -1.43175,4.46691 -1.6616,7.02844 -0.45788,5.10277 -7.75625,17.93377 -10.20085,17.93377 -0.84142,0 -2.70975,1.5 -4.15185,3.33333 -1.4421,1.83334 -3.44443,3.33334 -4.44962,3.33334 -1.00519,0 -2.61165,1.11065 -3.5699,2.46811 -0.95824,1.35748 -3.84227,3.52978 -6.40893,4.82748 -2.56667,1.2976 -5.74226,3.3031 -7.05686,4.4566 -2.34495,2.0577 -4.18246,2.8518 -17.60981,7.6107 -8.06788,2.8595 -10.19881,3.7033 -18.26018,7.231 -3.4431,1.5067 -7.6431,2.7459 -9.33334,2.7539 -2.91228,0.014 -14.08954,2.9847 -18.40648,4.8926 -1.1,0.4861 -3.20001,1.018 -4.66667,1.1819 -1.46667,0.1639 -6.86667,1.2369 -12,2.3845 -7.07907,1.5826 -14.32492,1.9424 -30,1.4898 -17.69148,-0.5109 -21.96478,-1.0697 -29.68372,-3.8819 -14.14519,-5.1534 -22.93135,-12.8415 -34.64571,-30.3161 -5.56687,-8.30422 -10.87894,-16.77606 -11.80459,-18.8263 -1.18138,-2.61669 -2.50504,-3.61017 -4.44116,-3.33334 -2.26817,0.32432 -2.91499,1.67938 -3.64094,7.62766 -0.48552,3.9783 -0.44009,10.03365 0.10096,13.45638 0.54106,3.4227 0.44409,10.6677 -0.21549,16.1 -1.44769,11.9234 -1.32459,18.8568 0.4161,23.4351 1.54899,4.0742 1.97787,15.5154 0.66145,17.6454 -0.51045,0.8259 -1.05323,4.7789 -1.20617,8.7844 -0.27615,7.2327 -2.78899,12.5412 -4.05594,8.5684 z"
       id="path1" />
  </g>
</svg>
