<?xml version="1.0" encoding="UTF-8" standalone="no"?>
<!-- Created with Inkscape (http://www.inkscape.org/) -->

<svg
   version="1.1"
   id="svg1"
   width="1386.6667"
   height="1216"
   viewBox="0 0 1386.6667 1216"
   sodipodi:docname="FBam44-P47.svg"
   inkscape:version="1.3.2 (091e20e, 2023-11-25, custom)"
   xmlns:inkscape="http://www.inkscape.org/namespaces/inkscape"
   xmlns:sodipodi="http://sodipodi.sourceforge.net/DTD/sodipodi-0.dtd"
   xmlns="http://www.w3.org/2000/svg"
   xmlns:svg="http://www.w3.org/2000/svg">
  <defs
     id="defs1" />
  <sodipodi:namedview
     id="namedview1"
     pagecolor="#ffffff"
     bordercolor="#000000"
     borderopacity="0.25"
     inkscape:showpageshadow="2"
     inkscape:pageopacity="0.0"
     inkscape:pagecheckerboard="0"
     inkscape:deskcolor="#d1d1d1"
     inkscape:zoom="0.35048075"
     inkscape:cx="693.33337"
     inkscape:cy="609.16327"
     inkscape:window-width="1600"
     inkscape:window-height="837"
     inkscape:window-x="-8"
     inkscape:window-y="-8"
     inkscape:window-maximized="1"
     inkscape:current-layer="g1" />
  <g
     inkscape:groupmode="layer"
     inkscape:label="Image"
     id="g1">
    <path
       style="fill:#000000"
       d="m 698.01574,1214.6921 c -0.49244,-0.7968 -1.16499,-5.1785 -1.49455,-9.7371 -1.21193,-16.7637 -7.89716,-62.955 -9.11142,-62.955 -0.68901,0 -2.00989,4.1023 -2.93528,9.1163 -2.28212,12.3651 -6.07605,19.6476 -15.46386,29.6832 -9.35556,10.0011 -22.12154,17.0324 -33.50672,18.4548 -5.17549,0.6467 -7.50387,1.5284 -7.50387,2.8416 0,1.2849 -1.626,1.9526 -5,2.0531 -2.75,0.082 -6.97098,0.3764 -9.37994,0.6543 -2.94808,0.3401 -4.62134,-0.1238 -5.11836,-1.4191 -0.58207,-1.5168 -3.91203,-1.9293 -15.72676,-1.9483 -25.76491,-0.041 -58.52773,-4.7898 -92.87164,-13.4603 -20.32767,-5.132 -32.72561,-9.591 -45.72444,-16.4454 -38.71645,-20.4153 -40.74923,-60.5615 -4.22395,-83.4206 3.64188,-2.2793 14.44188,-6.5876 24,-9.5742 16.76235,-5.2375 31.41032,-9.9655 97.37842,-31.431 42.88768,-13.9554 91.94299,-30.0925 92.29748,-30.3621 0.16361,-0.1244 -1.19825,-8.8923 -3.02636,-19.48422 -6.85389,-39.71099 -19.12571,-119.31031 -23.11387,-149.92475 -1.43298,-11 -3.31347,-25.4 -4.17887,-32 -0.8654,-6.6 -1.8088,-18 -2.09646,-25.33333 l -0.523,-13.33333 -4.0128,-0.41781 c -4.69817,-0.48918 -4.59814,0.20017 -1.87894,-12.94848 1.82148,-8.80774 1.91544,-12.87865 0.64185,-27.80928 -0.8206,-9.62011 -2.40572,-33.88203 -3.52249,-53.91539 -2.19687,-39.40899 -2.97076,-43.23613 -11.41852,-56.46826 -6.31752,-9.89544 -6.4376,-9.93019 -37.83469,-10.9499 C 497.66585,611.72171 422.88418,603.79333 331.72297,588.61265 216.60583,569.44268 128.4628,538.33779 64.168901,494.19519 -7.8998161,444.71461 -21.394052,378.21819 34.656394,348.76452 50.547881,340.41378 73.655551,334.60439 103.33334,331.49878 l 14.66667,-1.53478 0.88354,-41.08776 c 0.48594,-22.59827 1.23594,-41.44017 1.66666,-41.87089 0.43072,-0.43072 1.14169,-0.42457 1.57992,0.0137 0.43823,0.43824 1.12922,19.13824 1.53553,41.55556 0.73763,40.69738 0.74309,40.75876 3.62983,40.75876 4.60896,0 140.48946,-7.1408 178.66704,-9.38932 17.57114,-1.03488 22.87588,-1.77362 23.73292,-3.30506 1.35977,-2.42978 7.6379,-2.62707 7.6379,-0.24002 0,1.19048 1.44149,1.56398 4.60892,1.1942 l 4.60892,-0.53806 0.39108,-8.86087 c 0.35199,-7.97507 0.6847,-8.90264 3.32824,-9.2787 2.74928,-0.39111 2.96249,0.16324 3.33333,8.66667 l 0.39618,9.0845 h 4.66667 4.66666 L 363.70773,300.33333 364.0821,284 l 3.29229,0 3.2923,0 v 16 16 h 4.66667 4.66666 v -24 -24 h 3.30257 3.30257 l 0.3641,23.66667 0.3641,23.66666 6,-0.30568 c 53.32678,-2.7169 118.14256,-6.16202 144,-7.65397 17.96667,-1.03667 41.31658,-2.29247 51.88869,-2.79068 25.53357,-1.20325 25.42671,-1.11023 25.48955,-22.18906 0.044,-14.77024 1.57099,-36.17008 3.38173,-47.39394 l 0.91419,-5.66667 h -4.86248 c -4.34386,0 -4.79402,-0.31997 -4.22061,-3 1.29302,-6.04346 3.49481,-27.93036 6.74008,-67 4.88965,-58.86618 7.41907,-72.113273 15.53419,-81.355887 l 4.07758,-4.64411 20.65337,0 c 19.53204,0 20.69124,-0.144782 21.35072,-2.666666 C 678.66392,69.2 679.77233,68 680.74353,68 c 3.31421,0 3.65475,-3.021467 0.60023,-5.3255 -2.0201,-1.523762 -2.53169,-2.606959 -1.5251,-3.22907 1.04849,-0.648001 1.51471,-9.090036 1.51471,-27.427346 V 5.5268804 l 3.51315,-2.7634402 c 6.86018,-5.3962177 17.01167,-2.68219304 19.16138,5.1228397 2.09207,7.5957261 2.37242,54.7834071 0.32547,54.7817421 -0.91666,-7.45e-4 -1.66666,1.198645 -1.66666,2.665311 0,1.777778 0.88889,2.666667 2.66666,2.666667 1.48149,0 2.66667,0.888889 2.66667,2 0,1.68755 3.07815,2 19.70333,2 22.59527,0 23.77604,0.430027 28.8897,10.521348 5.92863,11.699573 8.40759,26.218532 12.88722,75.478652 0.86694,9.53333 2.84794,29.18333 4.40221,43.66667 L 776.70845,228 l -3.84117,0 -3.84116,0 0.84874,7 c 2.14312,17.67533 3.39254,34.74088 3.42412,46.76923 0.0333,12.68359 0.15902,13.22719 3.93183,17 3.85003,3.85002 4.08162,3.89744 19.03666,3.89744 11.66665,0 15.83203,0.48525 18.1596,2.11555 2.36455,1.65619 4.81745,1.92119 11.29668,1.22045 4.55196,-0.49231 15.1763,-0.84998 23.60963,-0.79483 16.82247,0.11001 118.6414,3.63543 138.33334,4.78971 l 12.33338,0.72294 v -24.02691 -24.02691 h 3.3333 3.3333 v 24.08048 24.08049 l 5,-0.41382 c 5.686,-0.4706 5.3119,0.799 5.525,-18.74715 0.141,-12.93999 0.1571,-13 3.475,-13 h 3.3334 v 15.84449 c 0,15.30422 0.1023,15.8719 3,16.64846 6.0671,1.62594 6.3333,1.26904 6.3333,-8.49295 0,-9.06667 0.095,-9.33334 3.3333,-9.33334 3.2381,0 3.3334,0.26667 3.3334,9.33334 V 312 h 4.5879 c 2.5234,0 4.9588,-0.6 5.4121,-1.33333 1.2008,-1.94302 7.3333,-1.63416 7.3333,0.36933 0,1.32171 15.8857,2.38734 71,4.76272 168.8047,7.27537 167.477,7.17504 199,15.0391 23.2211,5.79299 44.6891,20.18302 53.0627,35.568 5.1232,9.41303 7.158,23.92105 5.1014,36.37382 -7.5726,45.85418 -58.0528,89.7077 -148.5554,129.05415 -25.719,11.18143 -81.6997,30.03285 -96.942,32.64504 -1.8334,0.31419 -6.7834,1.57756 -11,2.80749 -7.0494,2.05617 -7.6667,2.54657 -7.6667,6.09023 0,4.42646 0.9499,4.06667 -27.8437,10.54645 -9.814,2.20858 -18.364,3.694 -19,3.30094 -0.636,-0.39306 -1.1563,-2.17924 -1.1563,-3.9693 0,-1.79005 -0.2608,-3.25464 -0.5795,-3.25464 -0.3187,0 -4.8148,0.89093 -9.9914,1.97984 -11.0269,2.3196 -66.20222,11.44504 -92.09578,15.23173 -52.89834,7.73589 -110.42566,13.31401 -150.22679,14.5667 -27.68473,0.87134 -28.2959,0.95241 -31.8262,4.22173 -4.95026,4.58432 -8.90711,11.10205 -12.95126,21.33333 -3.21852,8.14255 -3.51611,10.92444 -4.9207,46 -0.82225,20.53334 -2.06413,44.31584 -2.75973,52.85001 -1.09043,13.37831 -0.9211,17.08908 1.22866,26.92656 l 2.49338,11.40988 -4.18535,0.40678 -4.18535,0.40677 -0.82156,18 c -1.30133,28.51181 -9.5216,92.53289 -23.96789,186.66667 -2.3071,15.03333 -4.27329,29.3819 -4.36931,31.8858 l -0.17458,4.5524 35.33334,10.9294 c 19.43333,6.0112 65.33334,20.0895 102,31.2852 70.7111,21.5907 77.95648,24.4644 88.89455,35.2575 9.69004,9.5617 12.44224,16.3764 12.42141,30.7564 -0.014,9.6553 -0.60194,13.227 -3.00916,18.2802 -8.75496,18.3783 -33.95886,32.467 -78.21627,43.722 -33.15834,8.4323 -65.23798,13.2765 -88.56514,13.3735 -6.841,0.028 -11.04302,0.686 -12.78023,2 -1.59687,1.2078 -5.60249,1.9576 -10.45816,1.9576 -6.56942,0 -7.97786,-0.4125 -8.52274,-2.4961 -0.50132,-1.9171 -2.38717,-2.7 -8.12919,-3.3749 -22.63093,-2.6598 -46.24905,-25.9023 -49.04282,-48.2628 -0.82805,-6.6276 -3.24982,-10.3198 -5.37495,-8.1946 -0.55854,0.5585 -4.85212,47.625 -6.1629,67.5581 -0.37576,5.7142 -2.54296,8.4219 -4.37204,5.4624 z"
       id="path1" />
  </g>
</svg>
