<?xml version="1.0" encoding="UTF-8" standalone="no"?>
<!-- Created with Inkscape (http://www.inkscape.org/) -->

<svg
   version="1.1"
   id="svg1"
   width="1386.6667"
   height="1237.3333"
   viewBox="0 0 1386.6667 1237.3333"
   sodipodi:docname="FBam42.png"
   inkscape:version="1.3.2 (091e20e, 2023-11-25, custom)"
   xmlns:inkscape="http://www.inkscape.org/namespaces/inkscape"
   xmlns:sodipodi="http://sodipodi.sourceforge.net/DTD/sodipodi-0.dtd"
   xmlns="http://www.w3.org/2000/svg"
   xmlns:svg="http://www.w3.org/2000/svg">
  <defs
     id="defs1" />
  <sodipodi:namedview
     id="namedview1"
     pagecolor="#ffffff"
     bordercolor="#000000"
     borderopacity="0.25"
     inkscape:showpageshadow="2"
     inkscape:pageopacity="0.0"
     inkscape:pagecheckerboard="0"
     inkscape:deskcolor="#d1d1d1"
     inkscape:zoom="0.35048075"
     inkscape:cx="693.33337"
     inkscape:cy="617.72294"
     inkscape:window-width="1600"
     inkscape:window-height="837"
     inkscape:window-x="-8"
     inkscape:window-y="-8"
     inkscape:window-maximized="1"
     inkscape:current-layer="g1" />
  <g
     inkscape:groupmode="layer"
     inkscape:label="Image"
     id="g1">
    <path
       style="fill:#000000"
       d="m 691.40789,1233.0885 c -0.9082,-4.0805 -4.74118,-65.293 -4.74118,-75.7163 0,-5.885 -0.83048,-9.7028 -2.99292,-13.7587 -2.74263,-5.1441 -2.99936,-7.4534 -3.06993,-27.6136 -0.0424,-12.1 -0.19554,-22.8309 -0.34041,-23.8465 -0.28534,-2.0002 -5.59674,3.9092 -5.59674,6.2269 0,0.7112 -0.98161,2.1078 -2.18135,3.1035 -1.19973,0.9957 -3.52488,3.9191 -5.16698,6.4966 -12.50277,19.6242 -32.09105,27.2704 -67.37208,26.2982 -10.60378,-0.2922 -21.0796,-0.8599 -23.2796,-1.2616 -2.2,-0.4016 -8.2,-1.3457 -13.33333,-2.0979 -11.21549,-1.6433 -31.70747,-6.9123 -47.64992,-12.2518 -35.91162,-12.0278 -57.86991,-33.6851 -59.25275,-58.4408 -0.51703,-9.2559 2.86726,-22.8944 7.33504,-29.5599 1.22886,-1.8333 2.53429,-4.0141 2.90095,-4.8463 1.07847,-2.4474 12.04614,-11.123 17.7229,-14.0191 2.88284,-1.4707 8.62453,-3.7631 12.75931,-5.0941 4.13479,-1.3311 9.0178,-3.0276 10.85113,-3.7701 1.83333,-0.7424 10.53333,-3.61667 19.33333,-6.38715 8.8,-2.77047 27.70001,-8.82643 42.00001,-13.45769 14.3,-4.63125 27.8,-8.94995 30,-9.59709 2.2,-0.64715 18.32027,-5.85513 35.82282,-11.57329 l 31.82282,-10.39665 -0.89163,-14.7626 c -0.4904,-8.11942 -1.41792,-18.06259 -2.06116,-22.09592 -0.64324,-4.03334 -1.55406,-11.83334 -2.02404,-17.33334 -1.27447,-14.91453 -3.07304,-32.59443 -4.61176,-45.33333 -1.32624,-10.97978 -4.68471,-48.50545 -8.7776,-98.07593 -1.43841,-17.42114 -2.75781,-26.08195 -4.77337,-31.33333 -1.53203,-3.99157 -3.65531,-9.6108 -4.7184,-12.4872 -4.24533,-11.48649 -19.10237,-37.09428 -24.42748,-42.10352 -0.38979,-0.36667 -2.41556,-2.95565 -4.50171,-5.75329 -7.83868,-10.51209 -14.90244,-16.645 -20.96309,-18.20061 -3.24247,-0.83226 -13.6954,-3.65122 -23.22874,-6.26435 -9.53333,-2.61314 -20.33333,-5.53549 -24,-6.49411 -3.66667,-0.95862 -15.96667,-4.17502 -27.33333,-7.14755 -11.36667,-2.97252 -23.36667,-6.37306 -26.66667,-7.55674 -3.3,-1.18368 -10.8,-3.25488 -16.66667,-4.60266 -9.14839,-2.10172 -39.28295,-9.80067 -52,-13.28525 -4.1798,-1.14531 -27.01715,-7.19459 -48.66667,-12.89111 -6.96667,-1.83309 -22.86667,-5.96442 -35.33334,-9.18071 -21.5919,-5.57053 -39.23244,-10.28255 -55.33333,-14.78025 -4.03334,-1.12669 -13.93334,-3.76706 -22,-5.86748 -22.30496,-5.80784 -34.01568,-8.91849 -57.33334,-15.22912 -42.53747,-11.51224 -58.76774,-15.76728 -64.00001,-16.77869 -14.44877,-2.79299 -42.631252,-12.83084 -55.999999,-19.94571 -18.34676,-9.76418 -25.21589,-13.71444 -27.066985,-15.56554 -0.984587,-0.98458 -2.308455,-1.79016 -2.941928,-1.79016 -2.77238,0 -25.391231,-24.35907 -32.276332,-34.75957 C 8.984444,437.71216 5.8867729,429.96615 3.7799725,415.39479 0.87734766,395.31923 6.5276181,376.13773 18.422906,365.68507 c 11.888312,-10.44654 31.21274,-17.89141 49.131991,-18.92844 1.132606,-0.0655 1.59488,-8.5007 1.702125,-31.05878 0.08602,-18.09291 0.686848,-31.5084 1.445107,-32.26666 3.434055,-3.43405 4.339698,2.38804 4.897335,31.48341 0.313623,16.36362 0.982045,30.16703 1.485382,30.67424 1.421077,1.432 15.967849,1.66006 42.915164,0.67283 13.56666,-0.49703 39.96667,-1.21665 58.66667,-1.59915 18.7,-0.38251 46,-0.9984 60.66667,-1.36864 63.71526,-1.6084 77.41387,-1.90684 126.66667,-2.75956 47.00863,-0.81386 61.94027,-1.17015 71.00001,-1.69416 1.73032,-0.10008 3,-1.03815 3,-2.21648 0,-1.12363 1.35,-2.57368 3,-3.22232 2.43967,-0.95908 3.62258,-0.47373 6.33333,2.59862 2.67066,3.0269 3.91241,3.54993 6.24617,2.63086 1.60206,-0.63091 3.57317,-2.38095 4.38025,-3.88899 2.08025,-3.88698 7.24282,-3.55258 9.13098,0.59146 0.8825,1.93688 2.63502,3.33333 4.18328,3.33333 1.46548,0 3.64735,-1.5 4.8486,-3.33333 2.73541,-4.17477 7.68374,-4.34572 10.47415,-0.36186 2.01549,2.87753 2.70294,2.95908 21.74227,2.57926 35.65633,-0.71132 35.02391,-0.63123 38.07715,-4.82264 7.2075,-9.89431 27.11178,-9.75188 33.65928,0.24086 2.18456,3.33407 2.47436,3.38896 13.74475,2.60371 13.62454,-0.94928 24.83687,-5.1038 31.69382,-11.74356 l 4.64283,-4.49577 -0.34596,-11.11784 -0.34597,-11.11784 -5.06579,-2.02693 c -5.71047,-2.28488 -6.00561,-3.54892 -3.08023,-13.19214 2.52334,-8.31798 2.52707,-11.21191 0.0144,-11.21191 -2.54223,0 -2.51318,-2.07563 0.17904,-12.79341 2.13093,-8.48328 2.11797,-8.73167 -0.58682,-11.25157 l -2.76586,-2.57679 2.73212,-8.09024 c 2.5323,-7.49855 2.57302,-8.26604 0.55677,-10.49397 -1.98285,-2.19103 -1.99745,-3.15841 -0.16501,-10.93221 2.51849,-10.68419 2.52343,-11.86181 0.0498,-11.86181 -2.52661,0 -2.51132,-1.79421 0.09,-10.55361 1.9439,-6.54583 1.928,-7.21657 -0.22752,-9.59839 -2.20644,-2.4381 -2.16846,-3.05469 0.79285,-12.87105 1.71067,-5.67065 4.16709,-12.21667 5.4587,-14.5467 1.29162,-2.33003 2.71964,-7.13003 3.17337,-10.66667 0.87087,-6.78796 4.37479,-29.84996 5.24386,-34.51392 1.39519,-7.48735 11.65635,-37.409337 14.90217,-43.45537 1.04498,-1.946481 1.89996,-4.395715 1.89996,-5.442743 0,-1.658361 6.83106,-15.609506 14.34076,-29.288283 4.65362,-8.476486 10.12621,-16.459263 16.08617,-23.4646426 5.14487,-6.0473167 6.60062,-7.010093 10.08018,-6.6666663 4.14887,0.4094851 7.0588,3.7650838 20.00434,23.0680599 10.30577,15.366838 23.34001,41.202856 26.23393,51.999997 0.58966,2.199999 2.03016,6.607869 3.20111,9.795265 3.91462,10.655839 8.88502,31.376693 11.5221,48.033903 1.43634,9.07271 3.17634,17.55121 3.86668,18.8411 1.66299,3.10733 4.65225,12.43363 6.58341,20.53981 1.20466,5.05667 1.19537,6.76806 -0.0409,7.5321 -0.87985,0.54378 -1.20857,2.008 -0.7305,3.25384 1.99798,5.20664 2.45022,15.68563 0.80927,18.75177 -1.37616,2.57137 -1.32339,4.62624 0.2882,11.22305 1.71312,7.0124 1.72089,8.28441 0.0591,9.6636 -1.39928,1.1613 -1.66706,3.03679 -0.99613,6.9769 2.29806,13.49551 2.33294,14.37467 0.61261,15.43789 -1.41421,0.87403 -1.30666,2.87351 0.57355,10.6635 2.0942,8.67656 2.11734,9.80522 0.24346,11.87583 -2.56885,2.83855 -2.58001,4.65919 -0.0872,14.22968 2.13718,8.20519 1.23174,11.18175 -3.40137,11.18175 -3.56949,0 -3.99457,1.42417 -4.17818,13.99842 -0.16479,11.28604 -0.10911,11.4915 4.38126,16.16662 6.98163,7.26889 12.48077,9.47303 26.3392,10.55716 l 12.38,0.96847 4.24781,-4.01868 c 5.82051,-5.50653 9.14452,-7.00533 15.53632,-7.00533 7.14106,0 13.54658,2.7651 17.21802,7.43258 3.27976,4.16954 2.35007,4.06071 41.15942,4.81809 16.61661,0.32428 17.78196,0.17912 19.61914,-2.44381 2.39073,-3.41325 8.14731,-2.7881 9.13586,0.99213 0.97819,3.7406 6.30053,3.17607 9.64912,-1.02345 3.08381,-3.86747 6.65881,-3.63736 8.19627,0.52755 1.13983,3.08776 3.04732,4.31807 6.73368,4.34316 1.76618,0.012 3,-0.78949 3,-1.94884 0,-2.45098 6.05317,-6.56728 7.94136,-5.40031 0.76559,0.47315 1.39197,1.6514 1.39197,2.61833 0,4.183 3.88162,4.6837 42.09164,5.42951 21.21624,0.41412 42.47504,1.02173 47.24174,1.35026 12.8243,0.88386 48.3287,1.85023 98.6666,2.68554 42.7071,0.70867 55.2024,1.00466 108,2.55829 12.8334,0.37763 37.7204,1.05543 55.3045,1.50621 43.7325,1.12111 55.5067,4.20644 70.3542,18.43561 14.4752,13.87241 19.3853,32.94825 14.9599,58.11915 -0.8081,4.59633 -2.8164,10.17425 -7.441,20.66666 -2.0784,4.71566 -9.6867,14.9758 -19.8592,26.78094 -8.6815,10.07485 -29.0739,24.0236 -48.5618,33.21707 -14.9567,7.05589 -26.4255,10.9658 -53.4232,18.21294 -2.9334,0.78741 -6.8334,1.96706 -8.6667,2.62145 -1.8333,0.6544 -7.2333,2.03319 -12,3.064 -7.5067,1.62334 -26.5435,6.52154 -39.3333,10.12051 -2.2,0.61907 -10.3,2.65346 -18,4.52086 -7.7,1.86741 -18.2,4.61024 -23.3334,6.09518 -5.1333,1.48494 -13.7548,3.75 -19.1589,5.03347 -7.5017,1.78166 -10.0771,2.99479 -10.8893,5.12931 -0.7146,1.87814 -3.1788,3.36443 -7.5078,4.52843 -3.5442,0.95299 -10.9044,3.1968 -16.3559,4.98626 -6.7139,2.20379 -11.231,2.96494 -14,2.35903 -9.02,-1.97371 -9.619,-1.85762 -65.4214,12.67835 -8.0667,2.10129 -19.1667,5.04753 -24.66667,6.5472 -5.50001,1.49968 -18.40001,4.79996 -28.66667,7.33396 -10.26667,2.534 -22.56667,5.8812 -27.33334,7.43822 -4.76667,1.55701 -13.76667,3.98474 -20,5.39494 -23.22769,5.25494 -32.96209,7.66911 -44,10.91218 -6.23334,1.83142 -14.63334,4.05551 -18.66667,4.94242 -4.03333,0.8869 -8.83333,2.12333 -10.66667,2.7476 -5.47629,1.86476 -38.95298,10.39981 -44.1839,11.26491 -2.66781,0.4412 -6.50086,2.43762 -8.51788,4.43647 -4.53225,4.49143 -17.96489,20.97585 -17.96489,22.04638 0,0.43111 -1.58776,2.46476 -3.52837,4.51921 -4.24193,4.49079 -15.81982,28.23066 -22.31069,45.74693 -4.34813,11.73388 -4.80265,14.41536 -6.10212,35.99999 -0.77222,12.82697 -1.69495,26.32177 -2.05051,29.98844 -4.81773,49.68319 -6.17176,62.83569 -7.34365,71.33332 -0.75849,5.5 -1.9713,16 -2.69514,23.33334 -0.72383,7.33333 -1.85213,16.63333 -2.50733,20.66666 -1.29505,7.97217 -4.33556,37.81062 -4.61943,45.33333 l -0.17609,4.66667 12.66666,4.20805 c 14.46769,4.80638 38.23255,12.27187 50.00001,15.707 4.4,1.28444 10.4,3.13083 13.33333,4.10309 5.63564,1.86794 16.87135,5.17693 24.66667,7.26449 10.17264,2.7242 62.3698,18.22997 74.84899,22.23473 8.44228,2.7093 11.55265,4.5677 18.20119,10.8752 4.41038,4.1841 9.72834,10.9074 11.81768,14.9408 3.43797,6.6367 3.79881,8.6065 3.79881,20.7375 0,12.5031 -0.29341,13.982 -4.36488,22 -2.40068,4.7277 -6.55567,10.917 -9.2333,13.7541 -5.64407,5.9801 -19.85678,15.4198 -32.6721,21.6998 -18.16175,8.9001 -54.50601,19.1374 -75.06306,21.1435 -3.66667,0.3578 -10.4695,1.1499 -15.11741,1.7603 -17.61545,2.3132 -39.97785,-0.6982 -52.88259,-7.1213 -11.62991,-5.7886 -17.16254,-10.9963 -26.14054,-24.6052 -3.8832,-5.8861 -7.48743,-10.7021 -8.00939,-10.7021 -1.82372,0 -2.96779,11.4586 -2.71159,27.1586 0.15349,9.4061 -0.30506,16.5039 -1.13048,17.4984 -1.87344,2.2574 -2.38636,9.9298 -3.43242,51.343 -0.67637,26.7775 -1.31827,35.6771 -2.65089,36.7529 -0.96712,0.7807 -1.94582,4.3753 -2.17488,7.988 -0.3131,4.9379 -0.98387,6.6762 -2.70218,7.0024 -1.49359,0.2835 -2.52392,-0.6364 -2.97312,-2.6547 z"
       id="path1" />
  </g>
</svg>
