<?xml version="1.0" encoding="UTF-8" standalone="no"?>
<!-- Created with Inkscape (http://www.inkscape.org/) -->

<svg
   version="1.1"
   id="svg1"
   width="1386.6667"
   height="1008"
   viewBox="0 0 1386.6667 1008"
   sodipodi:docname="FBam44.svg"
   inkscape:version="1.3.2 (091e20e, 2023-11-25, custom)"
   xmlns:inkscape="http://www.inkscape.org/namespaces/inkscape"
   xmlns:sodipodi="http://sodipodi.sourceforge.net/DTD/sodipodi-0.dtd"
   xmlns="http://www.w3.org/2000/svg"
   xmlns:svg="http://www.w3.org/2000/svg">
  <defs
     id="defs1" />
  <sodipodi:namedview
     id="namedview1"
     pagecolor="#ffffff"
     bordercolor="#000000"
     borderopacity="0.25"
     inkscape:showpageshadow="2"
     inkscape:pageopacity="0.0"
     inkscape:pagecheckerboard="0"
     inkscape:deskcolor="#d1d1d1"
     inkscape:zoom="0.35048075"
     inkscape:cx="693.33337"
     inkscape:cy="503.59399"
     inkscape:window-width="1600"
     inkscape:window-height="837"
     inkscape:window-x="-8"
     inkscape:window-y="-8"
     inkscape:window-maximized="1"
     inkscape:current-layer="g1" />
  <g
     inkscape:groupmode="layer"
     inkscape:label="Image"
     id="g1">
    <path
       style="fill:#000000"
       d="m 480.84541,1000.9864 c -0.43266,-3.10919 -1.17717,-8.80307 -1.65446,-12.65307 l -0.8678,-7 h -15.20362 c -17.6026,0 -27.87248,-2.71825 -37.77441,-9.99821 -26.85532,-19.74418 -25.93197,-61.62619 1.77427,-80.47935 8.4635,-5.75912 17.2734,-8.1891 29.68958,-8.1891 13.96406,0 15.37896,-1.14354 14.51897,-11.73439 -0.33938,-4.17942 -1.22414,-17.19895 -1.96614,-28.93228 -2.63402,-41.65216 -4.10757,-64.22903 -5.35198,-82 -0.69325,-9.9 -1.6556,-24.74006 -2.13856,-32.97792 -0.59592,-10.16461 -1.46617,-15.46595 -2.70801,-16.49659 -1.00644,-0.83527 -1.82989,-3.74382 -1.82989,-6.46344 0,-5.37735 -1.34727,-6.53793 -11.27225,-9.71023 -5.20685,-1.66425 -5.32586,-1.85176 -9.59318,-15.11508 -9.73105,-30.24523 -13.03261,-56.48019 -9.15645,-72.75926 3.58705,-15.06484 4.31297,-15.81081 15.38595,-15.81081 h 9.3026 l -0.005,-6.33334 c -0.003,-3.48333 -0.5692,-12.93333 -1.25932,-21 -0.69013,-8.06666 -1.97852,-25.58678 -2.8631,-38.9336 -1.52666,-23.03459 -1.75047,-24.28724 -4.40734,-24.66667 -1.93862,-0.27685 -4.02467,-2.91755 -6.78627,-8.5906 l -3.98725,-8.19088 -9.34608,-1.57912 c -5.14035,-0.86851 -16.24609,-2.70486 -24.67942,-4.08076 -8.43333,-1.37591 -18.93333,-3.12995 -23.33333,-3.89789 -29.53724,-5.15514 -84.67811,-13.67912 -88.00001,-13.60352 -7.76864,0.1768 -36.0269,-4.21507 -38.01297,-5.90794 -1.10713,-0.94369 -8.00714,-2.66519 -15.33334,-3.82556 -7.3262,-1.16037 -16.32036,-2.68062 -19.98703,-3.37833 -3.66666,-0.69771 -33.66667,-5.77889 -66.66667,-11.29152 -33,-5.51263 -62.400002,-10.6694 -65.333335,-11.45948 C 70.937463,420.94779 47.490283,413.07428 40.584668,410.02029 24.69926,402.99501 11.741895,391.21972 5.1398211,377.80901 0.65111823,368.69116 -0.06970223,361.03897 2.7501512,352.44041 4.4696483,347.19715 13.373746,338.83939 21.333335,334.99745 c 12.104959,-5.84284 19.402843,-6.89093 100.000005,-14.36146 12.1,-1.12155 27.7,-2.6331 34.66667,-3.359 6.96667,-0.72591 31.26667,-3.10946 54,-5.29679 22.73334,-2.18733 47.63334,-4.59474 55.33334,-5.3498 28.61646,-2.80611 97.90386,-9.38643 140.66667,-13.35929 21.26841,-1.97593 23.3713,-2.30943 25.45231,-4.03652 1.40654,-1.16732 1.89428,-5.30367 1.93357,-16.39785 0.0289,-8.16021 0.97821,-24.73674 2.10958,-36.83674 1.13137,-12.1 2.35568,-29.8 2.72069,-39.33333 0.55481,-14.49055 1.05471,-17.66135 3.04803,-19.33334 1.39182,-1.16745 3.06235,-5.60771 4.01304,-10.66666 2.33028,-12.40019 8.77424,-28.03397 17.63651,-42.78818 9.95234,-16.56902 16.92583,-24.53898 20.46542,-23.38981 3.69919,1.20098 16.89354,19.41311 23.79533,32.84465 6.55853,12.76353 10.45612,23.46733 12.95435,35.57603 1.22598,5.9422 2.37563,8.41921 4.11923,8.87517 2.14773,0.56165 2.41948,2.25182 2.42634,15.09064 0.004,7.95199 0.58227,17.96639 1.28449,22.25422 0.70222,4.28783 1.67952,19.58783 2.17177,34 0.49225,14.41217 1.4788,27.33516 2.19234,28.71775 1.55535,3.01375 4.33934,2.87292 65.67702,-3.32223 42.49604,-4.29214 45.02171,-4.90628 50.52729,-12.2863 2.7296,-3.65892 2.82802,-5.45677 3.61271,-66 0.94799,-73.14241 2.87113,-96.891705 11.14035,-137.574378 C 669.15896,29.742982 675.82783,13.41297 685.22852,4.9200187 688.22375,2.2140084 691.23836,0 691.92767,0 c 3.56038,0 10.60894,6.0483258 14.46694,12.414007 7.66959,12.654765 14.94,39.057852 20.81352,75.585993 4.32375,26.88996 7.63469,83.93947 7.42864,128 -0.0909,19.43333 -0.12133,36.9373 -0.0676,38.8977 0.11256,4.11125 5.48311,11.04289 10.58974,13.66795 1.92932,0.99176 14.00785,2.78641 26.84119,3.98811 12.83333,1.2017 26.03333,2.45475 29.33333,2.78456 47.5939,4.75665 49.46793,4.8765 51.3843,3.28605 1.44095,-1.19588 1.96341,-4.79016 2.00418,-13.78763 0.0303,-6.69354 0.97335,-20.57007 2.0956,-30.83674 1.12225,-10.26667 2.36416,-27.21667 2.7598,-37.66667 0.5621,-14.84687 1.11854,-19 2.54566,-19 1.00448,0 2.12519,-1.35 2.49046,-3 5.93951,-26.82975 14.00464,-45.51034 27.51611,-63.73325 10.49204,-14.150609 11.91816,-14.147362 22.44569,0.0511 10.55773,14.23921 21.72857,37.52279 25.45571,53.05776 2.08143,8.67555 3.7166,12.77563 5.46915,13.71357 2.22774,1.19225 2.50002,3.05235 2.50002,17.07905 0,8.6576 0.63471,20.48649 1.41047,26.28642 0.77576,5.79994 1.82576,23.13859 2.33333,38.53034 l 0.92286,27.985 3.33334,1.51727 c 1.83333,0.8345 30.93333,4.01494 64.66664,7.06765 92.8879,8.4059 140.1862,12.78636 203.3334,18.83141 7.7,0.73712 37.4,3.44042 66,6.00733 58.3633,5.23825 62.275,5.83133 73.513,11.14606 20.9386,9.90241 27.0102,24.24021 18.2197,43.02512 -7.808,16.68532 -24.9928,29.5462 -51.4553,38.50853 -23.2229,7.86517 -32.1514,9.94168 -71.6108,16.65472 -20.1666,3.43087 -39.6666,6.76938 -43.3333,7.41893 -3.6667,0.64954 -22.1436,3.8311 -41.0599,7.07013 -18.9163,3.23903 -35.2079,6.56517 -36.2034,7.39141 -2.2722,1.88575 -30.0269,6.61722 -38.07,6.48996 -7.7497,-0.12262 -144.13496,22.74639 -146.33338,24.5371 -0.91666,0.74666 -1.66666,2.39408 -1.66666,3.66092 0,3.51073 -7.67654,13.41056 -9.77455,12.60548 -1.43106,-0.54915 -1.99436,2.59145 -2.69675,15.03525 -1.48213,26.25799 -3.3865,55.18349 -4.30548,65.39607 l -0.86986,9.66666 h 9.32673 c 10.72154,0 11.36545,0.47729 14.6089,10.82852 4.93007,15.73392 1.85552,48.65357 -7.08296,75.83815 -5.54072,16.85099 -5.62462,16.99002 -10.84305,17.969 -6.82044,1.27952 -11.02965,4.42816 -11.02965,8.25056 0,1.78541 -0.83473,4.8664 -1.85495,6.84665 -1.20271,2.33448 -2.3867,12.7425 -3.36726,29.60046 -0.83177,14.3 -2.73141,44 -4.22141,66 -4.54002,67.03341 -4.82864,73.23325 -3.49138,75 0.77246,1.02054 4.4875,1.66666 9.58294,1.66666 24.35977,0 41.294,9.6041 50.0947,28.41077 11.74752,25.10385 2.08617,52.72799 -23.0281,65.84294 -6.54253,3.41658 -8.40204,3.71552 -25.9341,4.16931 -21.65185,0.56043 -19.58086,-0.99387 -21.19943,15.91032 -0.50906,5.31663 -1.37891,9.66663 -1.933,9.66663 -0.55408,0 -1.40828,-3.45 -1.89822,-7.66663 -0.48993,-4.21667 -1.22584,-9.61667 -1.63535,-12 l -0.74455,-4.33334 H 693.27484 c -195.45787,0 -206.46357,0.12401 -207.08931,2.33334 -0.36347,1.28333 -1.06504,6.6857 -1.55903,12.00527 -1.03821,11.17996 -2.64969,13.44496 -3.78109,5.31446 z M 891.61657,879.6035 c 1.21159,-1.20183 1.31909,-4.77647 0.42914,-14.27017 -1.22782,-13.09812 -1.97696,-23.84218 -4.04413,-58 -1.77142,-29.27084 -5.16356,-80.19984 -5.90567,-88.66666 -1.72588,-19.69089 -2.55911,-21.20782 -13.36567,-24.33286 -5.09099,-1.47221 -6.80469,-2.6631 -7.48323,-5.20024 -0.48404,-1.80991 -1.77382,-5.35538 -2.86617,-7.87883 -2.56351,-5.92194 -4.26052,-12.66885 -8.53206,-33.92141 -2.76933,-13.77846 -3.33696,-19.65767 -2.76774,-28.66666 0.8652,-13.69327 3.80974,-25.22466 7.04525,-27.59052 1.36599,-0.99884 5.9743,-1.74282 10.79527,-1.74282 4.6265,0 8.41182,-0.45826 8.41182,-1.01837 0,-2.79381 -4.07783,-67.66651 -4.80827,-76.49291 -0.46326,-5.59788 -1.33048,-10.96788 -1.92717,-11.93334 -1.51793,-2.45605 -7.061,-2.0992 -29.26456,1.884 -25.1702,4.5154 -88.17231,15.29726 -102.66667,17.56984 -6.23333,0.97733 -16.66193,2.72508 -23.17466,3.88388 -6.51272,1.15879 -14.63999,2.1069 -18.06059,2.1069 -4.99402,0 -92.30127,-14.07375 -152.60608,-24.59979 -21.40218,-3.73569 -21.41568,-3.72604 -22.5961,16.1514 -2.70864,45.61138 -3.59922,59.1539 -4.30401,65.44839 l -0.78379,7 h 8.50777 c 4.77487,0 9.44765,0.73128 10.64987,1.66667 3.68664,2.86839 6.67885,14.42742 7.33445,28.33333 0.51177,10.85514 -0.0114,16.46654 -2.81464,30.19072 -4.48084,21.93726 -11.37444,43.80928 -13.80777,43.80928 -1.01756,0 -4.81134,1.27389 -8.43062,2.83086 -6.17871,2.65801 -6.58051,3.1302 -6.58051,7.73334 0,2.69636 -0.66507,5.56754 -1.47794,6.38041 -1.37225,1.37225 -2.14455,10.65911 -6.51883,78.38873 -0.80516,12.46666 -2.00473,30.46666 -2.66573,40 -2.87927,41.52675 -3.07904,49.90157 -1.2431,52.11374 1.61256,1.94302 19.13723,2.05634 197.83745,1.27923 149.98935,-0.65225 196.44808,-1.22948 197.68469,-2.45614 z"
       id="path1" />
  </g>
</svg>
