<?xml version="1.0" encoding="UTF-8" standalone="no"?>
<!-- Created with Inkscape (http://www.inkscape.org/) -->

<svg
   version="1.1"
   id="svg1"
   width="1386.6667"
   height="1154.6667"
   viewBox="0 0 1386.6667 1154.6667"
   sodipodi:docname="FBam44-F4U.svg"
   inkscape:version="1.3.2 (091e20e, 2023-11-25, custom)"
   xmlns:inkscape="http://www.inkscape.org/namespaces/inkscape"
   xmlns:sodipodi="http://sodipodi.sourceforge.net/DTD/sodipodi-0.dtd"
   xmlns="http://www.w3.org/2000/svg"
   xmlns:svg="http://www.w3.org/2000/svg">
  <defs
     id="defs1" />
  <sodipodi:namedview
     id="namedview1"
     pagecolor="#ffffff"
     bordercolor="#000000"
     borderopacity="0.25"
     inkscape:showpageshadow="2"
     inkscape:pageopacity="0.0"
     inkscape:pagecheckerboard="0"
     inkscape:deskcolor="#d1d1d1"
     inkscape:zoom="0.35048075"
     inkscape:cx="693.33337"
     inkscape:cy="577.77781"
     inkscape:window-width="1600"
     inkscape:window-height="837"
     inkscape:window-x="-8"
     inkscape:window-y="-8"
     inkscape:window-maximized="1"
     inkscape:current-layer="g1" />
  <g
     inkscape:groupmode="layer"
     inkscape:label="Image"
     id="g1">
    <path
       style="fill:#000000"
       d="m 688.94052,1151.0001 c -0.30262,-0.55 -1.29679,-5.8 -2.20926,-11.6667 -2.87006,-18.4529 -3.04515,-18.7605 -11.66594,-20.4918 -4.13052,-0.8295 -9.05996,-1.5051 -10.95432,-1.5013 -1.89436,0 -11.5443,-1.4779 -21.4443,-3.2927 -9.9,-1.8148 -28.8,-4.8301 -42,-6.7007 -13.2,-1.8705 -29.4,-4.2815 -36,-5.3576 -6.6,-1.0762 -16.5,-2.5583 -22,-3.2936 -5.5,-0.7353 -13.9,-1.969 -18.66667,-2.7414 -13.997,-2.2683 -24.9333,-3.8161 -42.66667,-6.0386 -21.2842,-2.6674 -37.89014,-6.5951 -44.66667,-10.5646 -15.1391,-8.868 -23.80764,-26.221 -20.66368,-41.3654 2.38055,-11.4671 14.11087,-25.752 25.99702,-31.6585 6.34376,-3.1524 37.28082,-10.01156 70,-15.51988 4.03333,-0.67902 17.23333,-3.06734 29.33334,-5.30739 12.1,-2.24004 34,-6.28961 48.66666,-8.99905 14.66667,-2.70943 30.56667,-5.40933 35.33334,-5.99977 4.76667,-0.59044 14.36667,-2.182 21.33333,-3.53679 14.29571,-2.78006 13.34795,-1.28762 10.77289,-16.96425 -1.82406,-11.10461 -4.54706,-30.92807 -6.77654,-49.33334 -0.88831,-7.33333 -2.13902,-15.81905 -2.77936,-18.85715 -0.64034,-3.0381 -2.35751,-15.0381 -3.81594,-26.66667 -4.49042,-35.80376 -5.35499,-42.35816 -6.04265,-45.80952 -0.36527,-1.83333 -1.28812,-9.63333 -2.05077,-17.33333 -0.76264,-7.7 -1.92229,-18.50001 -2.57699,-24.00001 -0.65469,-5.5 -2.46223,-21.4 -4.01675,-35.33333 -1.55451,-13.93334 -3.46586,-30.73334 -4.24745,-37.33334 -0.78158,-6.6 -1.58811,-14.7 -1.79228,-18 -0.61625,-9.96037 -3.2998,-37.77096 -3.98841,-41.33334 -0.35439,-1.83333 -0.95108,-9.03333 -1.32597,-16 -0.3749,-6.96666 -1.2837,-18.06666 -2.01956,-24.66666 -0.73586,-6.60001 -1.7206,-16.50001 -2.18831,-22.00001 -0.4677,-5.5 -1.44168,-10.75 -2.1644,-11.66666 -1.03014,-1.3066 -22.7212,-1.66667 -100.40137,-1.66667 -81.58395,0 -100.57401,-0.34003 -107.50341,-1.92489 -4.62884,-1.05869 -14.71607,-2.9077 -22.41607,-4.1089 -7.7,-1.20121 -19.10001,-3.07807 -25.33334,-4.1708 -18.82284,-3.29974 -40.12027,-6.92634 -50,-8.51417 -5.13334,-0.82501 -13.23334,-2.30881 -18,-3.29732 -4.76667,-0.98852 -17.36667,-3.08128 -28,-4.65059 -10.63334,-1.56931 -23.23334,-3.68798 -28.00001,-4.70817 -10.01833,-2.14417 -19.25074,-3.7665 -33.33333,-5.85734 -5.5,-0.81659 -16.6,-2.68186 -24.66667,-4.14504 -8.06667,-1.46319 -24.56532,-4.16681 -36.66368,-6.00805 -12.09836,-1.84123 -23.79836,-3.88593 -26,-4.54377 -2.20165,-0.65783 -7.60299,-2.21725 -12.002991,-3.46536 -4.4,-1.24811 -14.600001,-5.56826 -22.666668,-9.60033 C 63.650834,488.49944 60.565558,486.22938 49.255792,474.83716 34.386542,459.8595 26.818035,448.69505 18.408271,429.33336 3.7444081,395.57296 -0.95358207,345.55609 8.7430132,326.43279 c 4.3195418,-8.51886 13.0890478,-20.4783 19.1485408,-26.11388 7.52083,-6.99468 30.448232,-18.70647 40.943028,-20.91453 4.047574,-0.85159 4.193262,-1.13475 5.045883,-9.8073 0.482884,-4.91172 0.79105,-22.53046 0.684814,-39.15276 -0.106236,-16.6223 0.208527,-30.8723 0.699474,-31.66667 0.490946,-0.79436 2.077853,-1.4443 3.526459,-1.4443 2.545015,0 2.630681,0.97789 2.540457,29 -0.05136,15.95 -0.07199,33.67747 -0.04585,39.39438 l 0.04752,10.39438 13.666668,-0.79861 c 7.516664,-0.43924 20.566664,-1.65678 29.000004,-2.70564 8.43333,-1.04886 24.63333,-2.52222 36,-3.27413 11.36667,-0.75192 24.86667,-1.92823 30,-2.61403 5.13333,-0.6858 19.53334,-1.92384 32,-2.7512 12.46667,-0.82736 25.96667,-2.04974 30,-2.7164 4.03334,-0.66665 16.03334,-1.81037 26.66667,-2.54159 10.63334,-0.73122 27.73334,-2.24136 38.00001,-3.35587 10.26666,-1.11451 22.26666,-2.03588 26.66666,-2.0475 4.4,-0.0116 17.9,-1.11179 30.00001,-2.44484 12.1,-1.33305 23.5,-2.54896 25.33333,-2.70202 1.83333,-0.15306 28.53334,-0.56566 59.33334,-0.91689 l 56,-0.63861 2.69513,4.35929 2.69513,4.35928 h 31.30487 c 17.21768,0 35.41154,-0.3 40.4308,-0.66667 l 9.12592,-0.66666 -0.18328,-23.29009 c -0.11914,-15.14045 -0.69039,-23.60351 -1.63251,-24.18578 -1.02939,-0.63619 -0.83212,-5.284 0.68094,-16.04324 1.1716,-8.33116 2.48461,-28.94757 2.9178,-45.81423 1.53061,-59.595691 3.29581,-71.354853 11.90897,-79.333342 3.57865,-3.314957 3.75923,-3.335566 32.75641,-3.738288 l 29.15792,-0.404954 0.68711,-5.595046 c 0.37792,-3.077276 1.06441,-13.394899 1.52554,-22.928051 1.12453,-23.2479117 3.88216,-29.329117 13.18031,-29.0655516 6.30359,0.1786815 12.11812,3.6566342 14.09591,8.4314516 1.15111,2.77902 1.76633,11.53597 1.85447,26.396213 l 0.1319,22.237559 26.66667,0.05074 c 26.94711,0.05127 31.43174,0.594633 35.67658,4.322583 7.26604,6.381268 8.68818,16.139697 9.66124,66.293345 0.42684,22 1.58644,47.50001 2.57689,56.66667 1.53458,14.2026 1.52616,16.88553 -0.0569,18.14699 -1.46197,1.16495 -1.85776,6.49116 -1.85776,25.00001 v 23.51967 l 41.90921,0 41.90921,0 2.84825,-4 2.84825,-4 53.57588,0.007 c 30.29722,0.004 55.60354,0.56669 58.24254,1.29455 2.56667,0.70792 13.36667,1.88146 24.00001,2.60788 10.6333,0.72641 29.8333,2.25012 42.6667,3.38601 12.8333,1.13589 30.2333,2.66608 38.6666,3.40043 8.4334,0.73434 21.0334,1.9301 28,2.65724 6.9667,0.72715 20.1667,1.9167 29.3334,2.64345 9.1666,0.72674 19.9666,1.62966 24,2.00648 8.23,0.7689 39.8483,3.58835 46,4.1019 2.2,0.18366 12.4,1.02089 22.6666,1.86052 10.2667,0.83963 24.0667,2.09453 30.6667,2.78868 6.6,0.69415 19.2,1.89649 28,2.67187 20.6853,1.82261 32.4249,5.03769 46.4456,12.71994 20.6276,11.30236 32.6446,24.95161 38.6092,43.85362 2.4273,7.69205 2.9096,12.14696 2.7427,25.33334 -0.2421,19.13208 -4.6754,46.69137 -10.1882,63.33333 -2.4271,7.32678 -14.1191,29.41819 -18.4918,34.93914 -17.2863,21.82585 -46.2355,42.49565 -66.4508,47.44618 -8.8641,2.17071 -34.3956,7.08012 -49.3334,9.48622 -13.6695,2.20181 -70.7919,11.98956 -91.3333,15.64968 -10.2667,1.82935 -22.8667,3.87319 -28,4.54188 -8.157,1.06257 -24.9302,4.03967 -44.6667,7.92796 -3.3,0.65014 -9.9,1.79144 -14.6666,2.53623 -8.4721,1.32375 -35.3884,5.97735 -48.6667,8.41405 -3.6667,0.67286 -10.5667,1.78733 -15.33334,2.47659 -4.76667,0.68926 -11.96667,1.91747 -16,2.72936 -4.83361,0.97298 -42.10219,1.65243 -109.33334,1.99328 -56.10001,0.28441 -102.75001,0.80031 -103.66667,1.14643 -1.13603,0.42896 -1.70043,4.14485 -1.77269,11.67117 -0.0583,6.07301 -0.61129,15.84184 -1.22884,21.70851 -1.65254,15.69897 -3.91131,39.40772 -5.27169,55.33334 -2.3952,28.03993 -5.39979,58.36268 -7.33243,74 -1.08761,8.8 -2.60773,23.20001 -3.37804,32.00001 -1.47923,16.89866 -2.04634,22.27078 -3.9411,37.33333 -0.64574,5.13334 -1.82886,15.33334 -2.62917,22.66667 -0.80031,7.33333 -2.65264,21.43334 -4.1163,31.33334 -1.46366,9.9 -3.58747,26.7 -4.71958,37.33333 -1.13211,10.63334 -2.57185,23.53334 -3.19942,28.66667 -0.62757,5.13333 -2.13149,17.43334 -3.34205,27.33334 -1.21056,9.9 -2.52685,19.31238 -2.92508,20.9164 -0.62633,2.5227 -0.0324,3.03793 4.39949,3.81662 2.81796,0.49512 9.32356,1.80975 14.45689,2.92139 9.26145,2.0056 21.96061,4.40995 37.33334,7.06839 15.99227,2.76557 21.51753,3.78287 31.33333,5.76902 5.5,1.11288 16.00001,3.03069 23.33334,4.2618 7.33333,1.2311 16.63333,3.03912 20.66667,4.01782 4.03333,0.97869 16.33333,3.3432 27.33333,5.25446 11,1.91126 23,4 26.66667,4.64164 18.94494,3.31529 32.79962,6.67939 37.60601,9.13149 9.74383,4.9709 15.97779,11.799 20.34071,22.2792 4.54911,10.9274 4.86591,14.4819 2.10241,23.5892 -4.83208,15.9243 -19.39367,28.2113 -37.39949,31.5575 -12.99312,2.4146 -56.66683,9.1333 -65.31631,10.0482 -4.4,0.4653 -11,1.3974 -14.66667,2.0711 -11.47285,2.1082 -34.48617,5.708 -38.66667,6.0482 -2.2,0.1791 -8.5,1.0319 -14,1.895 -5.5,0.8632 -13.9,2.1399 -18.66666,2.837 -4.76667,0.6972 -9.56667,1.5267 -10.66667,1.8433 -1.1,0.3167 -8,1.2221 -15.33334,2.0121 -7.33333,0.7901 -22.33333,3.1115 -33.33333,5.1587 l -20,3.7222 -0.36497,3.903 c -0.5122,5.4774 -4.42728,22.1014 -5.86487,24.9029 -1.21437,2.3666 -4.49054,3.1614 -5.49635,1.3334 z"
       id="path1" />
  </g>
</svg>
