<?xml version="1.0" encoding="UTF-8" standalone="no"?>
<!-- Created with Inkscape (http://www.inkscape.org/) -->

<svg
   version="1.1"
   id="svg1"
   width="1386.6667"
   height="1061.3333"
   viewBox="0 0 1386.6667 1061.3333"
   sodipodi:docname="FBbr44-Typhoon(rkt).svg"
   inkscape:version="1.3.2 (091e20e, 2023-11-25, custom)"
   xmlns:inkscape="http://www.inkscape.org/namespaces/inkscape"
   xmlns:sodipodi="http://sodipodi.sourceforge.net/DTD/sodipodi-0.dtd"
   xmlns="http://www.w3.org/2000/svg"
   xmlns:svg="http://www.w3.org/2000/svg">
  <defs
     id="defs1" />
  <sodipodi:namedview
     id="namedview1"
     pagecolor="#ffffff"
     bordercolor="#000000"
     borderopacity="0.25"
     inkscape:showpageshadow="2"
     inkscape:pageopacity="0.0"
     inkscape:pagecheckerboard="0"
     inkscape:deskcolor="#d1d1d1"
     inkscape:zoom="0.35048075"
     inkscape:cx="693.33337"
     inkscape:cy="529.27301"
     inkscape:window-width="1600"
     inkscape:window-height="837"
     inkscape:window-x="-8"
     inkscape:window-y="-8"
     inkscape:window-maximized="1"
     inkscape:current-layer="g1" />
  <g
     inkscape:groupmode="layer"
     inkscape:label="Image"
     id="g1">
    <path
       style="fill:#000000"
       d="m 691.98992,1058.5999 c -0.006,-1.0633 -0.5984,-7.0333 -1.31742,-13.2666 -0.71901,-6.2334 -1.94381,-17.6334 -2.72176,-25.3334 -1.76486,-17.4681 -9.33549,-39.70488 -13.83283,-40.63031 -8.04695,-1.65585 -105.36899,-19.34677 -143.3586,-26.05932 -17.39183,-3.07304 -31.11202,-12.92701 -38.22238,-27.45167 -3.36433,-6.87246 -3.90925,-9.66756 -4.34227,-22.27285 -0.56915,-16.56793 1.37481,-23.91734 8.3109,-31.42049 6.89822,-7.4622 13.14714,-9.41065 37.16105,-11.58701 11.91672,-1.08 27.66676,-2.54331 35.00009,-3.2518 14.51444,-1.40227 50.32848,-4.58853 80.2703,-7.14141 10.41533,-0.88802 19.28395,-1.96157 19.70805,-2.38567 0.42409,-0.42409 -0.13218,-9.40246 -1.23616,-19.95192 -2.58367,-24.68897 -5.68201,-53.2998 -7.41959,-68.51417 -0.75376,-6.6 -2.29268,-21 -3.41982,-32 -1.12714,-11 -2.61185,-25.4 -3.29936,-32 -1.26104,-12.10581 -4.23917,-43.6275 -6.6765,-70.66666 -2.03626,-22.58979 -5.11026,-64.17045 -6.65358,-89.99999 -1.47187,-24.63388 -4.05283,-36.04929 -11.60618,-51.33333 -6.6376,-13.43106 -10.62654,-15.84869 -32.10452,-19.45798 -8.55945,-1.43838 -22.46264,-3.82 -30.89597,-5.29248 -14.33405,-2.50277 -31.53774,-5.43823 -120.33334,-20.53248 -40.36215,-6.8611 -56.35869,-9.61173 -89.66668,-15.41831 -13.2,-2.30116 -29.1,-4.99501 -35.33333,-5.98633 -6.23333,-0.99133 -16.43334,-2.71726 -22.66667,-3.83541 -28.54078,-5.11973 -91.96304,-15.79259 -97.66667,-16.43561 -6.12964,-0.69104 -6.33334,-0.60134 -6.33334,2.78896 0,4.36431 -1.11538,4.40671 -22,0.83631 -8.57908,-1.46667 -16.1387,-2.66667 -16.79916,-2.66667 -0.66046,0 -1.20084,-2.07281 -1.20084,-4.60625 0,-4.15714 -0.42249,-4.6779 -4.33333,-5.3412 -2.38333,-0.40423 -14.83334,-2.50646 -27.66667,-4.67163 C 50.766939,370.80867 54.317263,371.62473 40.000002,364.01936 22.82901,354.89807 7.9820291,335.37192 3.3832536,315.86249 0.6740072,304.36903 0.67948063,276.9082 3.3931052,266.43598 7.838183,249.28187 16.518593,236.52042 30.986482,225.86977 c 14.778001,-10.87894 23.262831,-12.81909 69.680188,-15.93312 16.13334,-1.08235 37.13334,-2.55385 46.66667,-3.27 9.53334,-0.71615 30.53334,-2.21548 46.66667,-3.33184 16.13334,-1.11637 36.83334,-2.62038 46,-3.34226 9.16667,-0.72187 30.44952,-2.22836 47.29523,-3.34776 16.84571,-1.11939 31.02874,-2.4724 31.51785,-3.0067 0.838,-0.91542 3.31723,-27.53479 4.62311,-49.6381 2.38442,-40.35889 3.61651,-51.862823 5.63762,-52.638396 4.57951,-1.757324 5.54572,2.165735 6.89866,28.010166 1.30138,24.85951 3.02714,47.83922 4.82852,64.29489 l 0.91224,8.33334 6.81006,0.0223 c 6.19476,0.0203 33.9358,-1.89682 51.00161,-3.52462 l 6.85821,-0.65417 0.68145,-9.58844 c 0.3748,-5.27364 1.63507,-25.59008 2.8006,-45.14764 1.98038,-33.230745 3.23683,-42.470411 5.76852,-42.420373 3.89393,0.07696 4.76925,3.028356 5.78428,19.503393 4.17219,67.71922 4.76522,74.68665 6.44526,75.72497 0.90069,0.55666 11.45289,-0.10358 52.1368,-3.26212 9.9,-0.76859 30.6,-2.2631 46,-3.32113 27.65867,-1.90023 47.52175,-3.34862 81.33334,-5.93072 9.53333,-0.72804 18.20333,-1.3412 19.26667,-1.36259 1.5037,-0.0302 1.57777,-0.39445 0.33333,-1.63889 -2.20464,-2.20465 -2.00271,-7.77719 0.49878,-13.7641 1.68329,-4.02868 1.75984,-5.23257 0.38665,-6.08125 -1.39096,-0.85965 -1.39414,-2.38658 -0.017,-8.13973 0.93234,-3.89488 1.63447,-9.82614 1.56029,-13.18059 -0.18242,-8.24831 4.08339,-17.86768 9.06629,-20.44444 3.2406,-1.67578 4.07723,-3.13525 4.82026,-8.4088 3.39162,-24.071368 11.59462,-54.585882 18.33657,-68.210608 5.7327,-11.585139 17.18682,-25.444159 23.89663,-28.9139322 12.05779,-6.2353288 27.44283,5.2474073 39.19659,29.2546682 7.10499,14.512075 11.45005,29.235051 16.12118,54.625703 3.39593,18.459089 3.5645,18.918929 8.47631,23.123259 5.36563,4.59278 8.62916,12.83904 7.85999,19.86057 -0.23372,2.13359 0.37799,7.04198 1.35935,10.90755 1.31491,5.17938 1.39488,7.49751 0.30399,8.81195 -1.0967,1.32144 -0.96016,3.25795 0.52689,7.47268 2.42298,6.86746 2.54984,10.94443 0.4072,13.08707 -1.24445,1.24444 -1.17037,1.60864 0.33333,1.63889 1.06333,0.0214 9.73334,0.63455 19.26667,1.36259 26.9593,2.0588 50.92482,3.82112 80.66667,5.93185 25.55359,1.8135 36.52937,2.6158 80.66667,5.89655 9.53334,0.70861 17.75401,0.8711 18.26817,0.36108 0.98216,-0.97424 2.64905,-20.81626 5.11814,-60.92429 1.80373,-29.299919 2.51778,-33.333334 5.90112,-33.333334 3.75218,0 4.52754,4.684013 6.06957,36.666664 0.76018,15.76667 1.96584,33.41207 2.67924,39.212 0.7134,5.79994 1.2971,12.80676 1.2971,15.57073 v 5.02538 l 7,0.67953 c 19.60454,1.90311 42.55854,3.52484 49.80754,3.51896 l 8.1409,-0.007 0.8829,-10.33334 c 1.8952,-22.18267 3.614,-45.88799 4.7613,-65.66666 1.2757,-21.994465 1.9237,-25.33333 4.9163,-25.33333 3.1669,0 4.1802,5.214719 5.718,29.42575 1.3304,20.94486 2.2561,32.85669 4.9428,63.60383 0.466,5.33294 1.2967,9.974 1.846,10.31346 0.5492,0.33947 14.7204,1.52917 31.4915,2.64378 16.771,1.11462 37.9928,2.6172 47.1594,3.33907 9.1667,0.72188 30.1667,2.24714 46.6667,3.38948 16.5,1.14233 36.9,2.6053 45.3333,3.25104 8.4334,0.64573 29.2305,2.11241 46.2159,3.25928 16.9854,1.14687 34.6854,2.6294 39.3334,3.2945 28.8476,4.12803 51.6653,25.01673 59.0886,54.09326 2.6707,10.46104 2.6425,35.94803 -0.053,47.38653 -4.0455,17.17054 -14.6612,34.09084 -27.1318,43.24507 -12.5395,9.20487 -24.2583,13.49717 -47.4536,17.38109 -11.7333,1.96468 -31.5333,5.33962 -44,7.49985 -12.4666,2.16024 -24.6166,4.24281 -27,4.62793 -3.9175,0.63304 -4.3333,1.1422 -4.3333,5.30647 0,2.53344 -0.45,4.60945 -1,4.61336 -0.55,0.004 -8.0898,1.2039 -16.7551,2.66666 -20.9499,3.53649 -22.2449,3.49726 -22.2449,-0.67377 0,-2.41265 -0.7161,-3.33333 -2.5925,-3.33333 -2.8157,0 -42.0817,6.57552 -164.0742,27.47603 -15.0333,2.5756 -41.13331,7.02462 -57.99998,9.88671 -16.86666,2.86208 -39.66667,6.75031 -50.66667,8.6405 -27.17268,4.66924 -76.88331,13.15753 -110,18.78295 -33.28088,5.6533 -36.15673,6.39592 -41.19876,10.6385 -5.63026,4.73755 -8.75757,10.29485 -14.10248,25.06038 -4.24493,11.72682 -4.78614,14.89025 -6.02213,35.19985 -1.78046,29.25656 -4.92548,72.09187 -6.58207,89.6484 -0.72656,7.7 -2.27201,24.19999 -3.43434,36.66666 -3.07899,33.02395 -7.32612,74.98661 -10.05374,99.33333 -1.45206,12.96109 -3.41369,31.18649 -7.36139,68.39416 -1.22899,11.58347 -1.83354,21.46183 -1.34344,21.95193 0.4901,0.4901 9.41272,1.61305 19.82805,2.49544 21.96616,1.86099 59.45915,5.21435 79.60363,7.11971 7.7,0.72831 23.70713,2.20314 35.5714,3.2774 18.12726,1.64135 22.65303,2.50131 28.34583,5.38607 13.09928,6.6379 18.2405,18.21556 17.0523,38.40054 -0.95602,16.24078 -3.66667,23.41549 -12.41751,32.86744 -10.59459,11.44343 -16.15146,13.42953 -59.88535,21.4038 -20.53334,3.74397 -52.33334,9.54 -70.66667,12.88006 -18.33334,3.34006 -35.87373,6.39367 -38.97866,6.7858 -3.10493,0.39212 -6.15799,1.38601 -6.78458,2.20863 -3.32487,4.36503 -9.84795,26.85164 -10.90884,37.60534 -3.03798,30.7947 -4.24523,39.9859 -5.40586,41.157 -0.79017,0.7972 -1.25915,0.5502 -1.26552,-0.6667 z"
       id="path1" />
  </g>
</svg>
