<?xml version="1.0" encoding="UTF-8" standalone="no"?>
<!-- Created with Inkscape (http://www.inkscape.org/) -->

<svg
   version="1.1"
   id="svg1"
   width="1386.6667"
   height="1213.3333"
   viewBox="0 0 1386.6667 1213.3333"
   sodipodi:docname="FBbr44-HSFb.svg"
   inkscape:version="1.3.2 (091e20e, 2023-11-25, custom)"
   xmlns:inkscape="http://www.inkscape.org/namespaces/inkscape"
   xmlns:sodipodi="http://sodipodi.sourceforge.net/DTD/sodipodi-0.dtd"
   xmlns="http://www.w3.org/2000/svg"
   xmlns:svg="http://www.w3.org/2000/svg">
  <defs
     id="defs1" />
  <sodipodi:namedview
     id="namedview1"
     pagecolor="#ffffff"
     bordercolor="#000000"
     borderopacity="0.25"
     inkscape:showpageshadow="2"
     inkscape:pageopacity="0.0"
     inkscape:pagecheckerboard="0"
     inkscape:deskcolor="#d1d1d1"
     inkscape:zoom="0.35048075"
     inkscape:cx="693.33337"
     inkscape:cy="606.31005"
     inkscape:window-width="1600"
     inkscape:window-height="837"
     inkscape:window-x="-8"
     inkscape:window-y="-8"
     inkscape:window-maximized="1"
     inkscape:current-layer="g1" />
  <g
     inkscape:groupmode="layer"
     inkscape:label="Image"
     id="g1">
    <path
       style="fill:#000000"
       d="m 694.27162,1211.106 c -0.4703,-0.761 -1.80783,-13.9211 -2.97227,-29.2448 -2.87873,-37.8831 -3.3174,-41.8613 -4.61606,-41.8613 -0.61868,0 -6.51963,6.45 -13.11322,14.3334 -6.59359,7.8833 -14.18363,16.4333 -16.86676,19 l -4.87841,4.6666 -38.91243,-0.3272 c -33.27249,-0.2797 -42.19,-0.8057 -61.5258,-3.6292 -21.63855,-3.1597 -23.21276,-3.6 -36.51761,-10.2119 -11.12874,-5.5306 -15.79707,-8.8031 -23.38663,-16.3941 -15.40702,-15.41 -22.20029,-32.9396 -17.74778,-45.7969 5.84653,-16.8828 22.7698,-35.6672 46.13217,-51.2055 30.72827,-20.4373 51.66779,-27.71 100.79988,-35.0098 11.73334,-1.7432 27.03334,-3.5442 34.00001,-4.0022 6.96666,-0.458 14.52339,-1.1648 16.79272,-1.5708 l 4.12606,-0.738 -0.46247,-10.22387 c -0.6024,-13.31766 -3.90924,-61.55248 -7.09957,-103.55716 -1.39245,-18.33333 -3.49371,-47.73333 -4.66946,-65.33333 -1.17576,-17.59999 -3.06325,-43.69999 -4.19441,-57.99999 -1.13117,-14.3 -2.58045,-34.4 -3.22063,-44.66667 -1.0619,-17.02975 -2.47826,-25.82933 -8.58444,-53.33333 -1.13965,-5.13333 -2.62048,-12.05351 -3.29073,-15.37817 -3.86808,-19.18709 -14.13578,-35.9616 -29.95797,-48.94287 -5.92484,-4.86102 -11.7733,-10.05767 -12.99657,-11.54811 -2.05439,-2.50309 -4.29308,-2.77823 -29.33334,-3.60519 -63.02172,-2.0813 -136.2862,-9.17696 -191.10921,-18.5089 C 311.52359,564.24721 221.4778,538.43631 148.00001,509.32469 127.55789,501.2256 95.463337,486.1996 86.19588,480.38929 56.996548,462.08252 43.834433,453.27458 38.092918,448.19932 7.3925537,421.06146 -4.0309306,399.7321 3.8593981,384.28019 7.4077459,377.33133 20.413259,365.42063 30.682281,359.71527 54.784547,346.32431 101.38552,331.51103 146.66668,322.84673 c 19.52713,-3.7364 58.51436,-10.02458 70.66667,-11.39769 3.3,-0.37287 13.2,-1.59219 22,-2.70959 38.91437,-4.94126 106.7015,-10.97299 136.79995,-12.17253 11.43997,-0.45592 21.489,-1.2548 22.33117,-1.77529 0.97695,-0.60379 1.78057,-7.67533 2.22006,-19.53567 0.37886,-10.22412 1.69578,-29.86797 2.92649,-43.65301 l 2.23766,-25.0637 3.409,0.39704 c 3.39829,0.39578 3.41607,0.46622 5.65507,22.39703 1.23534,12.1 2.28534,31.48621 2.33334,43.08048 l 0.0873,21.08049 5,-0.41382 c 4.47106,-0.37005 5.04096,-0.83697 5.38722,-4.41382 0.78899,-8.15016 2.91457,-11.33334 7.56789,-11.33334 5.27723,0 8.32749,3.15276 9.0299,9.33334 l 0.53036,4.66666 33.90899,-0.0322 c 18.64994,-0.0177 63.15898,-0.53889 98.90898,-1.15814 l 65,-1.1259 v -14.73688 c 0,-11.47273 -0.46016,-15.24535 -2.07751,-17.03251 -1.88113,-2.07862 -1.88113,-2.76564 0,-7.26782 2.76575,-6.61937 2.69284,-13.503 -0.15994,-15.09949 -2.08894,-1.16903 -2.09077,-1.63807 -0.0277,-7.06625 2.17343,-5.71856 2.00867,-9.76417 -0.62163,-15.26314 -0.96537,-2.01822 -0.75171,-4.16849 0.77796,-7.8295 2.7326,-6.54004 2.68598,-12.67213 -0.1119,-14.71799 -2.07208,-1.51514 -2.07208,-1.99534 0,-7.17397 2.85546,-7.1365 2.84431,-13.41289 -0.0276,-15.51285 -2.0914,-1.52927 -2.04488,-2.1334 0.66667,-8.65812 3.67064,-8.83254 3.65836,-11.17301 -0.0716,-13.64962 l -2.98656,-1.983 4.32319,-9.84629 c 2.8643,-6.52358 4.32208,-11.95561 4.3199,-16.09689 -0.005,-9.10442 3.5374,-22.930083 8.78436,-34.286425 2.52413,-5.463145 4.94722,-12.377237 5.38464,-15.36465 1.54243,-10.534074 7.4279,-29.558761 12.50079,-40.408591 5.55488,-11.880712 17.17085,-25.6897308 21.60986,-25.6897308 1.40954,0 4.67651,2.2411935 7.25995,4.9804299 11.38695,12.0736819 20.95116,34.8708399 25.71051,61.2833279 0.81899,4.545068 3.5362,12.405954 6.03824,17.468635 4.35559,8.813188 8.69389,27.255194 8.7041,37.000934 0.002,2.23666 0.53016,4.63666 1.17293,5.33333 0.64277,0.69667 2.43969,4.73094 3.99315,8.96504 l 2.82448,7.69837 -3.32648,1.51565 c -1.82957,0.83361 -3.32649,1.9479 -3.32649,2.47621 0,0.52832 1.51456,4.98437 3.36568,9.90235 3.32356,8.82989 3.3319,8.95061 0.66667,9.64759 -3.54745,0.92768 -3.54755,6.19415 -2.8e-4,14.46959 l 2.69873,6.29588 -2.69873,1.89026 c -3.36391,2.35617 -3.37791,4.61549 -0.0855,13.79024 2.59547,7.23255 2.59547,7.29461 0,9.11145 -3.32349,2.32646 -3.3076,6.32979 0.0563,14.17743 l 2.66955,6.22781 -2.98115,2.41399 c -2.80501,2.27136 -2.87929,2.75681 -1.2572,8.21606 3.30245,11.11467 3.38199,12.09258 1.08807,13.37632 -1.83078,1.02456 -2.18882,3.72225 -2.18882,16.49201 v 15.26707 l 27,0.11112 c 14.85,0.0611 28.5,0.27656 30.33333,0.47878 1.83334,0.20222 33.48334,0.81362 70.33334,1.35868 l 67.00001,0.99102 v -2.93496 c 0,-1.61423 0.96836,-4.97564 2.15192,-7.4698 1.79925,-3.79164 2.86507,-4.53484 6.5034,-4.53484 5.3694,0 7.64306,2.58506 8.6037,9.78206 0.70934,5.31429 0.9402,5.55128 5.40764,5.55128 h 4.66667 l 0.76507,-26 c 0.42079,-14.3 1.56966,-33.65 2.55303,-43 l 1.78795,-17 3.68437,0 c 3.46945,0 3.724,0.40832 4.36389,7 2.41679,24.89608 3.52472,44.16115 3.51896,61.18879 -0.008,23.07785 -2.88284,20.60588 25.32674,21.7761 39.6829,1.64617 118.0987,9.28192 166.6667,16.22919 7.7,1.10143 17.9,2.52573 22.6666,3.16512 25.4374,3.41212 68.5164,12.18533 89.3334,18.1931 20.3927,5.88532 45.7131,15.27744 61.2113,22.7051 16.6229,7.96671 28.7812,17.92708 33.7418,27.64195 6.2822,12.30337 -0.6688,30.17818 -18.9531,48.73841 -14.8855,15.11009 -18.2316,17.89589 -34.74,28.92258 -39.4323,26.3385 -76.2207,43.52738 -138.5934,64.75582 -45.7013,15.55439 -78.1389,25.04209 -126,36.85382 -63.9389,15.77962 -159.40222,27.48303 -250.20118,30.67362 l -28.86786,1.01439 -5.74187,5.23766 c -26.6283,24.29 -30.40632,29.27786 -36.28475,47.90432 -7.30573,23.14906 -10.40827,43.09042 -12.86152,82.66666 -0.68187,11 -2.17185,32.9 -3.31106,48.66667 -1.13921,15.76666 -2.99549,41.86666 -4.12506,57.99999 -2.46643,35.22724 -6.48664,90.13221 -9.27468,126.66666 -2.21464,29.02074 -2.56414,44.6577 -0.99868,44.6825 5.84496,0.092 45.67015,4.3483 55.83678,5.9671 40.11373,6.3872 62.1049,12.7837 82.28688,23.9346 25.8156,14.2636 45.93364,30.8255 55.7964,45.9338 8.73775,13.3849 11.10244,21.7254 9.0202,31.8152 -2.43358,11.7921 -5.90487,17.3112 -19.17836,30.4922 -12.52066,12.4333 -24.13281,19.5707 -37.42856,23.0055 -15.14233,3.9118 -44.43314,6.7545 -78.70826,7.6387 -40.06083,1.0334 -43.43453,0.5859 -49.43709,-6.5586 -9.06,-10.7836 -21.32297,-23.5727 -22.6052,-23.5751 -0.77947,-0 -3.17947,1.8357 -5.33333,4.0825 -3.60947,3.7653 -3.98397,5.0964 -4.78251,17 -0.47651,7.1032 -0.96868,18.6149 -1.09371,25.5816 -0.2262,12.6034 -1.45319,19.1067 -3.10166,16.4394 z"
       id="path1" />
  </g>
</svg>
