<?xml version="1.0" encoding="UTF-8" standalone="no"?>
<!-- Created with Inkscape (http://www.inkscape.org/) -->

<svg
   version="1.1"
   id="svg1"
   width="1386.6667"
   height="1104"
   viewBox="0 0 1386.6667 1104"
   sodipodi:docname="FBbr44.svg"
   inkscape:version="1.3.2 (091e20e, 2023-11-25, custom)"
   xmlns:inkscape="http://www.inkscape.org/namespaces/inkscape"
   xmlns:sodipodi="http://sodipodi.sourceforge.net/DTD/sodipodi-0.dtd"
   xmlns="http://www.w3.org/2000/svg"
   xmlns:svg="http://www.w3.org/2000/svg">
  <defs
     id="defs1" />
  <sodipodi:namedview
     id="namedview1"
     pagecolor="#ffffff"
     bordercolor="#000000"
     borderopacity="0.25"
     inkscape:showpageshadow="2"
     inkscape:pageopacity="0.0"
     inkscape:pagecheckerboard="0"
     inkscape:deskcolor="#d1d1d1"
     inkscape:zoom="0.35048075"
     inkscape:cx="693.33337"
     inkscape:cy="552.0988"
     inkscape:window-width="1600"
     inkscape:window-height="837"
     inkscape:window-x="-8"
     inkscape:window-y="-8"
     inkscape:window-maximized="1"
     inkscape:current-layer="g1" />
  <g
     inkscape:groupmode="layer"
     inkscape:label="Image"
     id="g1">
    <path
       style="fill:#000000"
       d="m 692.21348,1101.0134 c -0.85072,-0.8507 -1.54677,-3.8129 -1.54677,-6.5827 0,-3.9003 -0.75166,-5.5284 -3.33334,-7.22 -3.75987,-2.4635 -4.16534,-5.3319 -1.29093,-9.1322 2.47445,-3.2715 2.45217,-9.373 -0.10738,-29.4118 -1.12402,-8.8 -2.35771,-19 -2.74154,-22.6667 -1.22438,-11.6963 -1.71576,-13.113 -3.91508,-11.2877 -1.06979,0.8878 -1.94507,2.7117 -1.94507,4.053 0,1.3414 -2.13192,7.2877 -4.73761,13.2142 -9.85301,22.4097 -12.29934,24.5984 -27.06798,24.2171 -5.43223,-0.1402 -10.26861,-0.4971 -10.7475,-0.7931 -0.47889,-0.2959 -5.95036,-0.9301 -12.15881,-1.4093 -6.20846,-0.4791 -12.4881,-1.2262 -13.95477,-1.6603 -1.46666,-0.434 -12.64741,-0.8558 -24.8461,-0.9372 -16.52945,-0.1103 -22.73432,-0.6086 -24.35771,-1.9559 -1.19805,-0.9943 -4.41731,-2.2853 -7.1539,-2.869 -19.95434,-4.2558 -30.52669,-9.8155 -39.61315,-20.8314 -10.4142,-12.6257 -15.2585,-30.83423 -12.69773,-47.72774 3.26569,-21.54386 12.42087,-35.09629 29.46262,-43.61355 10.01374,-5.00474 22.98838,-9.04876 29.15277,-9.08652 1.86259,-0.0114 14.18653,-1.84213 27.38653,-4.06827 13.20001,-2.22613 31.50001,-5.18788 40.66667,-6.58167 33.24064,-5.0542 34.66667,-5.3801 34.66667,-7.92262 0,-1.29312 -1.17576,-10.08863 -2.61281,-19.54558 -1.43705,-9.45695 -3.60463,-26.79445 -4.81685,-38.52778 -1.21223,-11.73334 -2.7243,-25.83334 -3.36017,-31.33334 -1.3374,-11.56804 -3.11987,-33.2832 -5.14393,-62.66666 -1.37507,-19.96194 -2.47217,-44.95776 -5.38404,-122.66667 -1.97048,-52.58644 -2.21862,-54.90846 -6.55807,-61.36975 -5.56941,-8.29266 -17.93633,-20.56004 -28.90258,-28.66997 -5.42434,-4.01149 -10.271,-7.29361 -10.77034,-7.29361 -0.49935,0 -1.85515,-0.81777 -3.01289,-1.81727 -1.15774,-0.9995 -8.21159,-4.59017 -15.67521,-7.97927 -20.12576,-9.13876 -41.95096,-14.5371 -90.42978,-22.36727 -4.40001,-0.71068 -9.80001,-1.61821 -12.00001,-2.01675 -2.2,-0.39853 -7,-1.20624 -10.66666,-1.7949 -3.66667,-0.58866 -11.46667,-2.02518 -17.33334,-3.19225 -5.86666,-1.16708 -21.76667,-3.94809 -35.33333,-6.18004 -13.56667,-2.23194 -27.66667,-4.65144 -31.33334,-5.37667 -3.66666,-0.72522 -14.16667,-2.5743 -23.33333,-4.10906 -9.16667,-1.53475 -19.66667,-3.35233 -23.33334,-4.03907 -3.66666,-0.68674 -9.96666,-1.78907 -14,-2.44962 -4.03333,-0.66055 -15.73333,-2.68301 -26,-4.49436 -10.26667,-1.81135 -32.76667,-5.7376 -50,-8.725 -17.23334,-2.9874 -32.83334,-5.71128 -34.66667,-6.05306 -1.83333,-0.34178 -6.93333,-1.22142 -11.33334,-1.95477 -19.48092,-3.24685 -54.51047,-9.37935 -68.66667,-12.02121 -3.3,-0.61586 -11.7,-2.11266 -18.66666,-3.32622 C 76.184815,431.2278 63.299694,426.45357 40.621575,411.80466 25.153849,401.81329 12.413803,385.4433 5.6812551,366.90902 1.0110417,354.05222 0.7902218,335.98806 5.1567265,324 12.677666,303.35156 23.864539,291.70674 44.368666,283.18288 c 13.495334,-5.6102 21.000893,-7.23277 39.631339,-8.56762 15.549158,-1.11408 34.624075,-2.79231 60.000005,-5.27886 18.43825,-1.80674 57.65198,-5.12584 79.33334,-6.71487 21.53811,-1.57853 43.39601,-3.44248 69.33333,-5.91246 19.24325,-1.83251 49.9028,-4.37386 89.33184,-7.40466 10.26584,-0.7891 19.18767,-1.95724 19.82628,-2.59586 0.99939,-0.99939 2.69154,-43.31065 3.84098,-96.04188 l 0.33424,-15.33334 3.62017,-0.41741 c 4.78013,-0.55115 4.82398,-0.27808 5.52691,34.41741 0.31944,15.76667 0.8981,30.49489 1.28593,32.72938 0.38783,2.23448 1.36878,12.37368 2.17989,22.53155 0.81111,10.15787 1.84173,19.06265 2.29027,19.78841 0.49863,0.80679 5.01516,1.00158 11.62285,0.50128 17.04171,-1.2903 41.27613,-3.57498 41.62534,-3.92419 0.83117,-0.83117 3.22837,-75.61268 2.89443,-90.29309 L 476.66669,134 l 3.57699,-0.41324 c 2.42038,-0.27962 3.94942,0.36707 4.72878,2 0.63348,1.32728 1.33889,13.21324 1.56758,26.41324 0.22869,13.2 0.68332,24.44542 1.01029,24.98982 0.32697,0.5444 0.81177,11.3444 1.07733,24 0.49379,23.53244 0.97764,26.98425 3.94186,28.12173 0.93316,0.35808 7.33677,0.0702 14.23025,-0.63969 6.89347,-0.70991 36.8336,-1.75222 66.5336,-2.31624 29.7,-0.56402 55.2,-1.52097 56.66667,-2.12656 5.32009,-2.19665 7.33333,-5.01575 7.33333,-10.26871 0,-4.34697 -0.55325,-5.37003 -3.51242,-6.49511 l -3.51242,-1.33542 0.94207,-15.29824 c 0.93394,-15.16614 0.9167,-15.29825 -1.99647,-15.29825 -3.28952,0 -3.32368,1.19575 0.62845,-22 1.96867,-11.55446 1.94946,-12.07425 -0.51743,-14 -2.51649,-1.96446 -2.50164,-2.22506 0.8357,-14.66666 1.86874,-6.96667 3.84895,-14.50181 4.40047,-16.74476 1.4013,-5.69891 4.55316,-10.12943 10.74711,-15.10703 2.92505,-2.35063 5.31827,-5.062612 5.31827,-6.026624 0,-0.964011 1.8,-5.722563 4.00001,-10.574559 2.2,-4.851996 4,-9.743127 4,-10.869179 0,-1.126053 0.56213,-3.089227 1.24918,-4.36261 0.68706,-1.273383 2.2083,-7.917352 3.38054,-14.764375 3.83304,-22.38863 10.93925,-41.862679 18.11051,-49.6305531 4.47453,-4.8467858 5.39815,-5.2536466 11.92643,-5.2536466 6.52829,0 7.45191,0.4068608 11.92644,5.2536466 7.236,7.8380051 14.37514,27.5203041 18.30118,50.4556001 1.35821,7.934461 3.14399,14.001694 4.60668,15.651269 2.90318,3.274119 10.49904,19.73513 10.49904,22.752493 0,1.194358 2.94683,4.957528 6.54852,8.362608 6.45234,6.10013 7.81655,8.97253 10.85597,22.85772 0.56183,2.56666 2.06462,8.13547 3.33953,12.37512 2.23148,7.42067 2.22612,7.77566 -0.14335,9.50826 -2.30545,1.68579 -2.34794,2.46435 -0.67079,12.29154 3.39925,19.91768 3.40085,21.90107 0.0184,22.78559 -2.95106,0.77172 -2.98746,1.03446 -2.19406,15.83903 0.76472,14.26943 0.66721,15.09858 -1.87033,15.90396 -2.33246,0.7403 -2.62606,1.82104 -2.28052,8.39474 0.35127,6.68276 0.80422,7.73972 3.96331,9.24826 2.62559,1.25379 17.26824,1.87588 55.49296,2.35761 45.21476,0.56983 52.14212,0.39428 53.59654,-1.35818 2.50894,-3.0231 10.99384,-2.52939 15.34451,0.89284 3.80186,2.99055 14.12143,5.33383 16.63857,3.77814 1.60701,-0.99318 2.5557,-18.02734 3.82523,-68.68358 l 0.86881,-34.66667 3.62017,-0.41741 c 4.75492,-0.54824 4.77713,-0.41285 5.64367,34.41741 0.39226,15.76667 0.96022,31.66667 1.26213,35.33334 0.30191,3.66666 0.99822,12.52664 1.54737,19.68883 0.54914,7.1622 1.65729,13.84588 2.46255,14.85264 1.69442,2.1184 48.66848,6.45415 50.65548,4.67555 1.63632,-1.46471 3.20992,-28.06524 4.31155,-72.88369 l 0.92585,-37.66667 3.64297,0 c 2.00363,0 3.89465,0.75 4.20227,1.66667 0.30762,0.91667 0.72923,12.46667 0.93691,25.66667 0.20769,13.2 0.75751,24.6 1.22183,25.33333 0.46432,0.73333 0.96006,7.03333 1.10165,14 0.39545,19.45711 1.45174,38.05056 2.40934,42.41048 1.02293,4.65737 1.611,4.79548 29.38961,6.90193 10.2667,0.77852 29.4667,2.31027 42.6667,3.40388 13.2,1.09361 27.9,2.28738 32.6666,2.65283 8.1308,0.62337 53.3931,4.4308 111.3334,9.36528 22.3066,1.89975 42.09,3.95396 83.3333,8.65298 29.0897,3.3143 41.0494,6.17899 58.8029,14.08494 10.8436,4.82887 16.3207,8.46639 24.0389,15.96497 11.7015,11.36857 18.5114,30.23361 16.7526,46.40844 -0.8466,7.78582 -6.391,25.48422 -8.71,27.80318 -0.8531,0.8531 -1.5511,2.07666 -1.5511,2.71903 0,0.64237 -2.6606,4.62568 -5.9125,8.8518 -5.2967,6.88341 -8.9628,10.52749 -17.7336,17.62719 -4.4827,3.62857 -20.7551,13.81803 -25.0205,15.66728 -12.8428,5.56797 -33.0511,11.07324 -51.3334,13.98451 -19.3322,3.07848 -30.8054,5.03582 -67.3333,11.48713 -8.0667,1.42468 -23.6667,4.11394 -34.6667,5.97613 -29.4112,4.97902 -64.4706,11.31114 -71.3333,12.88359 -3.3,0.75613 -13.5,2.49986 -22.6667,3.87496 -9.1666,1.37511 -24.4666,4.0698 -34,5.98821 -9.5333,1.91841 -24.2333,4.59855 -32.6666,5.95587 -24.62432,3.9632 -85.17315,14.49858 -95.33338,16.58781 -5.13333,1.05556 -15.93333,2.88405 -24,4.06331 -20.0602,2.93259 -47.21824,8.36937 -56.40044,11.29083 -4.17976,1.32986 -9.34594,2.82303 -11.4804,3.31817 -7.14592,1.65766 -36.01516,16.93774 -45.4525,24.05737 -10.97807,8.28197 -24.06251,21.63963 -29.2266,29.83689 -4.08213,6.47979 -3.27135,-4.03551 -7.51883,97.51434 -2.03567,48.66936 -9.74613,147.20399 -13.82439,176.66667 -0.30453,2.2 -2.0694,14.5 -3.92193,27.33333 -1.85253,12.83334 -3.54974,26.0243 -3.77158,29.31325 l -0.40334,5.97991 6,0.97756 c 3.3,0.53766 12.9,1.92815 21.33333,3.08999 8.43334,1.16183 24.93334,3.84267 36.66667,5.95741 11.73334,2.11475 26.13334,4.57098 32,5.4583 12.92123,1.9543 28.77806,5.80913 32.84155,7.98384 6.47495,3.46529 15.45017,10.66186 19.35152,15.51657 6.54014,8.13833 9.61474,15.36599 11.75324,27.62906 1.78544,10.23842 1.7774,12.597 -0.0764,22.43436 -3.37896,17.93032 -9.32726,28.33312 -20.96803,36.67012 -6.38898,4.5758 -20.42197,10.4013 -28.23517,11.7212 -2.93333,0.4956 -6.68729,1.7502 -8.34212,2.7879 -3.88729,2.4378 -24.15361,4.5311 -27.46364,2.8367 -2.50439,-1.2819 -6.05316,-1.0716 -40.48966,2.3993 -27.96889,2.819 -31.19516,2.6581 -35.19677,-1.7555 -1.82844,-2.0166 -6.83912,-11.3382 -11.13485,-20.7146 -4.29574,-9.3763 -8.28191,-16.5763 -8.85817,-16 -0.57626,0.5764 -1.46585,14.2514 -1.97687,30.389 -0.83374,26.3285 -0.7037,29.5282 1.26647,31.1633 2.95178,2.4498 2.76781,5.8979 -0.47106,8.829 -1.95905,1.7729 -2.66667,4.1066 -2.66667,8.7946 0,6.7451 -1.23388,8.7715 -3.78656,6.2188 z"
       id="path1" />
  </g>
</svg>
