<?xml version="1.0" encoding="UTF-8" standalone="no"?>
<!-- Created with Inkscape (http://www.inkscape.org/) -->

<svg
   version="1.1"
   id="svg1"
   width="1386.6667"
   height="1052"
   viewBox="0 0 1386.6667 1052"
   sodipodi:docname="FBcc44-Tu2(KFW).svg"
   inkscape:version="1.3.2 (091e20e, 2023-11-25, custom)"
   xmlns:inkscape="http://www.inkscape.org/namespaces/inkscape"
   xmlns:sodipodi="http://sodipodi.sourceforge.net/DTD/sodipodi-0.dtd"
   xmlns="http://www.w3.org/2000/svg"
   xmlns:svg="http://www.w3.org/2000/svg">
  <defs
     id="defs1" />
  <sodipodi:namedview
     id="namedview1"
     pagecolor="#ffffff"
     bordercolor="#000000"
     borderopacity="0.25"
     inkscape:showpageshadow="2"
     inkscape:pageopacity="0.0"
     inkscape:pagecheckerboard="0"
     inkscape:deskcolor="#d1d1d1"
     inkscape:zoom="0.35048075"
     inkscape:cx="693.33337"
     inkscape:cy="526.41978"
     inkscape:window-width="1600"
     inkscape:window-height="837"
     inkscape:window-x="-8"
     inkscape:window-y="-8"
     inkscape:window-maximized="1"
     inkscape:current-layer="g1" />
  <g
     inkscape:groupmode="layer"
     inkscape:label="Image"
     id="g1">
    <path
       style="fill:#000000"
       d="m 687.10502,1048.723 c -2.32559,-1.0116 -4.83632,-2.9753 -5.5794,-4.3638 -2.18085,-4.0749 -5.52558,-20.035 -5.52558,-26.3663 0,-7.7225 -3.13865,-9.9782 -13.96334,-10.0353 -7.96101,-0.042 -37.87393,-3.4016 -89.37,-10.03768 -14.66667,-1.89002 -32.36667,-4.04468 -39.33334,-4.78811 -6.96666,-0.74344 -13.43146,-2.08846 -14.36622,-2.98893 -0.93475,-0.90048 -2.81586,-4.57804 -4.18024,-8.17236 -1.36438,-3.59432 -3.12745,-6.75071 -3.91794,-7.01421 -1.67558,-0.55853 -2.18686,1.3719 -4.84271,18.28453 -1.08602,6.91576 -2.54586,13.14546 -3.24411,13.84376 -2.13378,2.1337 -5.10932,0.01 -6.51102,-4.6579 -5.84201,-19.43441 -6.27349,-23.66918 -6.15692,-60.4267 0.12544,-39.55096 1.25599,-46.86953 7.99914,-51.78221 4.36548,-3.18044 6.4799,-2.22898 9.88669,4.44888 1.53293,3.00479 3.63948,5.79033 4.68122,6.19008 1.04174,0.39975 5.96463,-0.51643 10.93976,-2.03596 4.97513,-1.51953 13.84569,-3.92401 19.71236,-5.3433 5.86666,-1.41928 19.06666,-4.79763 29.33333,-7.50744 10.26667,-2.70981 21.12142,-5.42571 24.12168,-6.03534 3.00026,-0.60963 10.80026,-2.57785 17.33333,-4.37381 6.53308,-1.79597 13.37833,-3.57435 15.21166,-3.95197 1.83333,-0.37761 9.03333,-2.19227 16,-4.03259 l 12.66667,-3.34602 -0.41321,-17.78183 c -0.22727,-9.78 -0.98157,-23.78182 -1.67623,-31.11516 -2.24944,-23.74667 -4.9755,-63.27891 -6.52802,-94.66666 C 648.54831,703.8 647.29026,687 646.58692,683.33333 c -0.70334,-3.66666 -2.50067,-34.75007 -3.99407,-69.07424 -1.4934,-34.32416 -3.28771,-63.91322 -3.98737,-65.75346 -0.69966,-1.84024 -1.27211,-4.9002 -1.27211,-6.79991 0,-3.71431 -5.26046,-11.52599 -9.17112,-13.61891 -1.31783,-0.70528 -13.74344,-1.92003 -27.61247,-2.69945 -42.00646,-2.3607 -46.3204,-2.68944 -52.54975,-4.00454 -9.09151,-1.91934 -26.66019,-1.73584 -27.17606,0.28385 -0.23413,0.91666 -1.46539,4.66666 -2.73614,8.33333 -1.27074,3.66667 -3.11569,9.66667 -4.09988,13.33333 C 513.00376,547 511.2571,551.8 510.10648,554 c -1.15062,2.2 -2.45469,5.91078 -2.89795,8.24617 -1.15308,6.07535 -5.03246,9.24104 -9.3914,7.66369 -3.04399,-1.10152 -4.3309,-3.97219 -11.29296,-25.19075 -4.32161,-13.17116 -7.85748,-24.94769 -7.85748,-26.17008 0,-3.85214 -2.82352,-4.78991 -23.33333,-7.74963 -11,-1.58739 -23,-3.48251 -26.66667,-4.21138 -8.76149,-1.74165 -29.84618,-5.22772 -40.38773,-6.67759 -4.61326,-0.63449 -8.81326,-1.41609 -9.33334,-1.73689 -0.52008,-0.32079 -6.9456,-1.26257 -14.27893,-2.09285 -7.33334,-0.83028 -20.83334,-2.94409 -30,-4.69737 -15.97455,-3.0554 -30.02156,-5.36806 -40.00001,-6.5855 -6.14611,-0.74986 -42.65849,-6.93337 -52,-8.8064 -21.05667,-4.22198 -69.69614,-12.61764 -84.23963,-14.5406 -4.89846,-0.64769 -9.4715,-1.52693 -10.16231,-1.95388 -0.69082,-0.42694 -7.48299,-1.70187 -15.09372,-2.83317 -7.61072,-1.1313 -15.63768,-2.62209 -17.83768,-3.31286 -2.2,-0.69077 -12.4,-2.45376 -22.666668,-3.91775 -10.266667,-1.46399 -20.466668,-3.25209 -22.666668,-3.97356 -2.2,-0.72147 -8.495189,-1.97299 -13.989308,-2.78117 -27.414401,-4.03259 -46.5344587,-22.20779 -52.7493777,-50.14266 -3.32957814,-14.96581 -2.28206114,-24.77 3.9605941,-37.06901 7.6074756,-14.98792 20.5632586,-24.1213 38.7780906,-27.33723 8.33638,-1.47183 42.430557,-4.87551 62.000007,-6.18956 6.23333,-0.41855 14.03333,-1.31934 17.33333,-2.00174 3.3,-0.68241 20.7,-2.47044 38.66667,-3.97341 17.96667,-1.50297 33.56667,-3.06458 34.66667,-3.47024 2.26637,-0.8358 15.78555,-2.13684 53.33333,-5.13262 14.30001,-1.14093 28.10001,-2.62745 30.66667,-3.30337 2.56667,-0.67592 20.56667,-2.48066 40.00001,-4.01053 19.43333,-1.52987 37.73333,-3.36438 40.66666,-4.07669 2.93334,-0.71232 13.73334,-1.89189 24.00001,-2.62128 51.15965,-3.63459 61.02975,-4.89919 65.66667,-8.41346 1.18767,-0.90012 1.66666,-6.40143 1.66666,-19.14174 0,-13.17778 -0.43821,-17.99502 -1.66666,-18.32144 -8.69772,-2.31113 -9.6787,-2.96059 -10.10724,-6.69151 -0.58174,-5.06466 2.94817,-14.0513 7.9984,-20.36279 l 4.06949,-5.08582 -0.8661,-22 c -1.10348,-28.02976 -1.14145,-24.83309 0.50681,-42.66666 1.82688,-19.76623 5.28359,-31.15276 13.96466,-46 3.85897,-6.600003 7.82302,-14.100003 8.80899,-16.66667 0.98598,-2.566667 4.74807,-9.466667 8.3602,-15.333333 3.61214,-5.866667 7.08864,-12.027427 7.72558,-13.690577 1.49997,-3.91672 7.45777,-6.259778 11.37672,-4.474187 1.63828,0.746453 3.29975,3.087721 3.79665,5.350083 0.48595,2.212533 1.95894,5.400963 3.2733,7.085401 2.25778,2.89349 10.37845,19.359544 15.31934,31.062613 3.48848,8.26288 6.21254,13.03476 9.51426,16.66667 3.41813,3.75996 7.82304,17.41197 10.10989,31.33333 0.84324,5.13333 1.77356,22.77278 2.06736,39.19878 0.48156,26.92271 0.78572,30.1852 3.08688,33.11065 3.38193,4.29943 7.99481,16.80518 7.99481,21.67433 0,4.26772 -2.94395,6.70942 -6.85604,5.68638 -2.30476,-0.60271 -2.47729,0.38738 -2.47729,14.2162 0,12.17138 0.37297,15.00714 2.05887,15.65408 1.13239,0.43454 8.78239,0.0429 17.00001,-0.87034 8.21761,-0.91323 18.65896,-1.93736 23.20299,-2.27585 5.10155,-0.38002 8.90059,-1.38505 9.93164,-2.62739 0.91837,-1.10657 2.39352,-7.2068 3.27811,-13.55606 2.12684,-15.26565 3.59741,-18.87745 7.68606,-18.87745 3.78149,0 4.84232,2.15623 4.84232,9.84239 0,3.09335 0.63801,6.26229 1.4178,7.04208 0.7798,0.77979 1.84736,4.34979 2.37236,7.93333 l 0.95456,6.51554 5.83022,-0.13005 c 9.73696,-0.21719 9.19974,2.29012 12.11362,-56.53662 1.5347,-30.9834 3.00447,-45.9316 7.99702,-81.33333 4.01004,-28.43487 4.54534,-31.601961 8.67619,-51.333337 3.29634,-15.745216 3.51384,-18.49388 2.37389,-30 -1.12655,-11.370799 -1.00671,-12.991978 1.17137,-15.846478 1.48304,-1.943601 2.42631,-5.424279 2.42631,-8.953088 0,-4.485517 0.61955,-6.104853 2.77758,-7.259794 2.21687,-1.186432 3.29517,-1.018112 5.34151,0.833803 2.93205,2.653464 2.82422,2.721326 5.21926,-3.284918 0.98922,-2.480761 3.24611,-6.2307608 5.01531,-8.3333329 2.65537,-3.1557312 4.25421,-3.8228584 9.16186,-3.8228584 6.34142,0 10.60437,3.1872177 14.6153,10.9272003 2.75221,5.311007 13.72044,43.805868 16.64149,58.406133 1.39381,6.966667 3.36048,16.566667 4.37038,21.333333 1.00991,4.766667 2.55761,14.666667 3.43934,21.999997 0.88173,7.33334 2.11941,15.43334 2.75038,18 0.63098,2.56667 2.10082,16.06667 3.26631,30 1.1655,13.93334 2.78536,31.93334 3.59969,40 0.81433,8.06667 1.8634,25.16667 2.33127,38 0.46787,12.83334 1.2776,24.00584 1.79942,24.82779 0.52181,0.82195 2.87147,1.87899 5.22146,2.34899 5.06232,1.01247 6.39992,-0.49457 6.42903,-7.24344 0.0112,-2.60334 0.6899,-5.40283 1.50817,-6.22109 0.81826,-0.81827 2.18333,-2.88295 3.03349,-4.58819 3.87903,-7.78057 10.12814,-1.34056 10.16584,10.4764 0.0112,3.51975 0.46123,7.06776 1,7.88446 0.53877,0.8167 6.97958,2.17739 14.31292,3.02374 7.33333,0.84635 16.63333,2.05474 20.66666,2.68531 4.03334,0.63056 12.13181,1.36988 17.9966,1.64292 l 10.66326,0.49645 1.04895,-9.33334 c 0.57692,-5.13333 0.87845,-11.68246 0.67007,-14.55362 -0.35136,-4.84117 -0.76621,-5.33068 -5.71221,-6.74017 l -5.33333,-1.51988 0.36963,-6.88922 c 0.37544,-6.99744 5.11687,-18.43786 8.96513,-21.63163 1.73704,-1.44161 2.01232,-6.29755 1.84317,-32.51343 -0.20817,-32.26184 -0.0809,-33.65396 4.96421,-54.30573 3.34175,-13.67918 7.012,-23.30531 11.05693,-28.99948 1.37272,-1.932428 4.12586,-7.413503 6.11809,-12.18017 1.99223,-4.766667 5.98857,-12.150459 8.88076,-16.408428 2.89218,-4.257968 5.81597,-9.207968 6.4973,-11 1.05565,-2.776584 2.10925,-3.258239 7.12724,-3.258239 5.31211,0 5.97839,0.358881 6.80737,3.666667 0.5054,2.016667 2.91872,6.966667 5.36292,11 2.44421,4.033333 5.48559,10.033333 6.75863,13.333333 1.27303,3.3 3.63643,7.5 5.25199,9.333334 8.78185,9.965623 14.12848,20.857243 18.87617,38.452673 3.2039,11.87399 3.52601,15.55728 4.12147,47.12889 0.64067,33.96866 0.67188,34.27259 3.82247,37.23242 1.74709,1.6413 3.18022,3.6296 3.18474,4.41844 0.005,0.78883 0.84349,3.0352 1.86439,4.99193 2.40391,4.60752 3.90732,13.60143 2.83719,16.97309 -0.56192,1.77047 -2.24841,2.7796 -5.10769,3.05623 l -4.26877,0.41299 -0.36688,20.11366 -0.36688,20.11365 7.03355,1.47755 c 3.86845,0.81265 12.73354,1.85138 19.70021,2.3083 19.17581,1.25766 49.73341,4.31864 64.66671,6.47771 7.3333,1.06026 21.4333,2.61757 31.3333,3.4607 9.9,0.84312 20.7,2.1142 24,2.82464 3.3,0.71043 21,2.77141 39.3333,4.57995 18.3334,1.80855 41.4334,4.21063 51.3334,5.33797 40.222,4.58017 54.5026,6.22566 64.6666,7.45123 11.7896,1.42159 44.9809,5.14811 53.3334,5.98797 53.0268,5.33193 65.0575,7.71106 75.8724,15.00403 16.5224,11.14186 23.1456,24.49712 21.7769,43.91212 -1.2896,18.29185 -9.5923,34.12008 -23.9064,45.57501 -10.6922,8.55647 -20.0704,11.61879 -49.0763,16.02516 -5.5,0.83552 -16.3,2.66537 -24,4.06633 -19.3898,3.52783 -28.5759,4.9602 -38.6666,6.02917 -4.7667,0.50497 -10.1667,1.51024 -12,2.23393 -1.8334,0.7237 -12.6334,2.69619 -24,4.38331 -11.3667,1.68712 -25.4667,4.04402 -31.3334,5.23754 -5.8666,1.19353 -16.0666,3.00755 -22.6666,4.03116 -6.6,1.02361 -19.8,3.07461 -29.3334,4.55778 -9.5333,1.48318 -21.2333,3.58481 -26,4.6703 -4.7666,1.08548 -11.6917,2.35035 -15.389,2.81081 -3.6972,0.46047 -8.4972,1.07531 -10.6666,1.36632 -2.1694,0.29101 -9.0444,1.10453 -15.2777,1.80782 -6.2333,0.70329 -12.8333,1.85184 -14.6667,2.55233 -1.8333,0.70049 -7.2333,1.72404 -12,2.27457 -4.7666,0.55052 -12.8666,1.7794 -18,2.73084 -18.08789,3.35251 -32.02201,5.69317 -33.99998,5.71134 -5.15684,0.0474 -26.46432,3.09835 -30.27654,4.33524 -2.3521,0.76316 -8.9521,1.94389 -14.66667,2.62387 -18.14931,2.15957 -32.43819,4.77576 -33.86238,6.19995 -0.75855,0.75855 -4.88336,12.49569 -9.16624,26.08253 C 886.26121,568.44275 884.79518,572 882.2026,572 c -2.89139,0 -8.20192,-6.97492 -11.16683,-14.66667 -3.31068,-8.58874 -9.70239,-30.91611 -9.70239,-33.89216 0,-2.35093 -5.27542,-4.06243 -8.93836,-2.89986 -1.35529,0.43015 -11.14859,1.38208 -21.7629,2.11541 -79.41304,5.48652 -79.81721,5.55141 -84.55702,13.57527 -2.79559,4.73256 -3.41532,12.93259 -6.73398,89.10134 -2.3531,54.00765 -5.43998,117.41454 -7.23764,148.66667 -1.93217,33.59061 -4.10207,68.45522 -4.91618,78.9901 -0.87819,11.36406 -2.36121,10.23273 21.47941,16.38564 8.06667,2.08189 17.96667,4.71923 22,5.86076 4.03334,1.14153 10.33334,2.71651 14,3.49997 3.66667,0.78345 10.26667,2.55173 14.66667,3.92949 8.05308,2.52166 36.75502,9.97744 46.66667,12.1224 2.93333,0.6348 9.59371,2.24699 14.80084,3.58263 9.87952,2.53413 12.53249,2.49198 12.53249,-0.19913 0,-0.88326 1.75408,-3.68326 3.89794,-6.22223 4.83614,-5.7274 7.27919,-4.75823 12.08334,4.79351 3.24384,6.4495 3.30947,7.18797 3.07426,34.59019 -0.23492,27.36737 -0.69499,31.78982 -6.38052,61.33334 -3.03776,15.78503 -2.86506,15.33333 -5.8631,15.33333 -3.04851,0 -4.6636,-4.2899 -6.63071,-17.612 -0.72646,-4.91993 -1.91748,-10.01145 -2.64669,-11.31449 -1.15671,-2.06691 -1.43803,-1.86127 -2.20523,1.612 -2.14261,9.7001 -3.02852,10.69883 -11.04863,12.45566 -4.18769,0.91733 -11.51399,1.90886 -16.28066,2.2034 -14.41211,0.89055 -48.18915,4.46419 -56,5.92483 -6.76312,1.2648 -30.89838,3.9831 -54.36337,6.123 -6.81134,0.6211 -10.27818,0.4017 -11.65089,-0.7376 -1.56597,-1.2996 -2.11423,-1.2047 -2.75981,0.4776 -0.44309,1.1547 -1.88196,2.441 -3.19749,2.8586 -2.39428,0.7599 -5.26361,9.814 -7.39741,23.3423 -1.37567,8.7218 -4.06198,13.0598 -9.49241,15.3288 -2.63869,1.1025 -4.87435,1.9811 -4.96812,1.9524 -0.0938,-0.029 -2.07326,-0.8799 -4.39886,-1.8915 z"
       id="path1" />
  </g>
</svg>
