<?xml version="1.0" encoding="UTF-8" standalone="no"?>
<!-- Created with Inkscape (http://www.inkscape.org/) -->

<svg
   version="1.1"
   id="svg1"
   width="1406.1971"
   height="1211.493"
   viewBox="0 0 1406.1971 1211.493"
   sodipodi:docname="FBge42.svg"
   inkscape:version="1.3.2 (091e20e, 2023-11-25, custom)"
   xmlns:inkscape="http://www.inkscape.org/namespaces/inkscape"
   xmlns:sodipodi="http://sodipodi.sourceforge.net/DTD/sodipodi-0.dtd"
   xmlns="http://www.w3.org/2000/svg"
   xmlns:svg="http://www.w3.org/2000/svg">
  <defs
     id="defs1" />
  <sodipodi:namedview
     id="namedview1"
     pagecolor="#ffffff"
     bordercolor="#000000"
     borderopacity="0.25"
     inkscape:showpageshadow="2"
     inkscape:pageopacity="0.0"
     inkscape:pagecheckerboard="0"
     inkscape:deskcolor="#d1d1d1"
     inkscape:zoom="0.34561299"
     inkscape:cx="703.09857"
     inkscape:cy="606.16934"
     inkscape:window-width="1600"
     inkscape:window-height="837"
     inkscape:window-x="-8"
     inkscape:window-y="-8"
     inkscape:window-maximized="1"
     inkscape:current-layer="g1" />
  <g
     inkscape:groupmode="layer"
     inkscape:label="Image"
     id="g1">
    <path
       style="fill:#000000"
       d="m 701.35469,1208.7888 c -0.93668,-3.696 -4.52046,-42.1319 -5.73625,-61.5211 -0.41968,-6.693 -1.06452,-14.1413 -1.43298,-16.5519 l -0.66992,-4.383 -14.47609,16.2131 c -11.17327,12.5139 -15.24732,16.2145 -17.85637,16.2198 -1.85915,0 -15.81285,-1.2895 -31.00822,-2.8739 -17.00392,-1.773 -28.4426,-2.4166 -29.74648,-1.6737 -3.42019,1.9488 -29.83685,-0.7417 -29.83685,-3.0388 0,-1.0359 -1.06479,-1.8954 -2.36619,-1.9099 -1.30141,-0.015 -12.85333,-1.1559 -25.67094,-2.5362 -16.15084,-1.7392 -24.3743,-3.2104 -26.78899,-4.7926 -9.15072,-5.9958 -14.43618,-22.2548 -16.28956,-50.1095 -1.41517,-21.2688 3.57322,-39.037 12.40826,-44.1969 2.99045,-1.7465 25.65724,-5.2011 86.77074,-13.2245 45.49758,-5.9732 83.4295,-10.8603 84.29316,-10.8603 1.10855,0 1.32095,-2.2861 0.72235,-7.7747 -1.49214,-13.6815 -8.75198,-96.9572 -12.28846,-140.95774 -7.26469,-90.38655 -11.79807,-163.88884 -16.33521,-264.85221 -1.48192,-32.97665 -2.62255,-47.51539 -3.92494,-50.02817 -3.69182,-7.12283 -12.9544,-16.17531 -18.69588,-18.2718 -6.27744,-2.2922 -31.56757,-6.79737 -213.27095,-37.99197 -67.30141,-11.55421 -128.14648,-22.183 -135.21127,-23.61952 -14.30642,-2.909 -164.66223,-29.27674 -174.76055,-30.64757 -5.55051,-0.75347 -6.42254,-0.55011 -6.42254,1.4978 0,1.73749 -0.75339,2.17264 -2.824076,1.63114 -1.553242,-0.40618 -9.252227,-1.83319 -17.108854,-3.17114 -11.311472,-1.92629 -14.415946,-2.93421 -14.914954,-4.84243 -0.693161,-2.65064 -1.043028,-2.75978 -18.560565,-5.7897 C 36.945453,436.58547 15.816145,432.43 15.219525,432.01859 14.315895,431.39548 2.6965077,358.21358 1.2753057,344.1943 -0.53481037,326.33862 0.17681564,311.19762 3.3182034,300.72833 c 2.6137963,-8.71099 9.3261176,-18.13676 12.9156296,-18.13676 2.600367,0 2.695744,-0.92894 2.695744,-26.25561 0,-14.44059 0.367982,-27.21456 0.817737,-28.38661 2.275891,-5.93087 3.238601,1.89531 3.238601,26.32765 0,19.75445 0.424828,26.96246 1.589124,26.96246 0.874018,0 50.614861,-3.03955 110.535211,-6.75455 151.45955,-9.39035 195.95933,-12.06846 212.3827,-12.78177 7.80845,-0.33914 21.95493,-1.03561 31.43662,-1.5477 l 17.23943,-0.93108 v -11.1136 c 0,-14.56917 1.2988,-23.66004 3.38028,-23.66004 2.05893,0 3.38029,9.05902 3.38029,23.17463 0,7.57956 0.4848,10.6398 1.69014,10.66865 6.9762,0.16703 233.10381,-14.10079 233.82171,-14.75329 0.50618,-0.46006 1.58085,-28.8252 2.38816,-63.03366 1.24847,-52.90205 1.9063,-64.8023 4.40178,-79.62902 2.2318,-13.260097 3.45659,-17.568512 5.11788,-18.002948 1.57947,-0.41304 3.27123,-5.31846 6.11228,-17.723096 5.30813,-23.176407 17.1825,-47.615372 29.52084,-60.7576195 C 690.06322,0.04762242 690.24414,0 702.67732,0 c 12.23333,0 12.66508,0.10737541 16.14761,4.0159291 13.62211,15.2884879 31.59758,57.3171089 31.59758,73.8785789 0,3.988587 0.4393,4.584371 3.38029,4.584371 1.85915,0 3.38028,0.186862 3.38028,0.41525 0,0.228387 1.22763,7.073458 2.72806,15.211268 2.29089,12.424953 2.9544,24.654783 4.14045,76.317153 0.77681,33.83662 1.67914,63.35369 2.00519,65.59348 l 0.5928,4.07235 117.29492,7.1439 c 64.5122,3.92915 117.7512,7.11631 118.309,7.08258 0.5577,-0.0337 1.0141,-4.844 1.0141,-10.68951 0,-14.11561 1.3213,-23.17463 3.3803,-23.17463 2.0814,0 3.3802,9.09087 3.3802,23.66004 v 11.1136 l 17.2395,0.93108 c 9.4817,0.51209 23.6281,1.20856 31.4366,1.5477 32.2935,1.40258 319.7383,19.30508 327.8778,20.42072 5.4328,0.74465 6.9496,1.67224 10.3021,6.30018 8.0747,11.14689 10.7087,29.42277 8.0377,55.77026 -1.4212,14.01928 -13.0406,87.20118 -13.9442,87.82429 -0.5966,0.41141 -21.7259,4.56688 -34.1326,6.7128 -17.5175,3.02992 -17.8674,3.13906 -18.5605,5.7897 -0.499,1.90822 -3.6035,2.91614 -14.915,4.84243 -7.8566,1.33795 -15.5556,2.76496 -17.1088,3.17114 -2.0707,0.5415 -2.8241,0.10635 -2.8241,-1.63114 0,-2.04791 -0.872,-2.25127 -6.4226,-1.4978 -10.0983,1.37083 -160.4541,27.73857 -174.7605,30.64757 -7.0648,1.43652 -67.9099,12.06531 -135.21127,23.61952 -181.76217,31.20469 -206.99345,35.69972 -213.28522,37.99742 -6.92136,2.52761 -17.44278,13.9182 -19.22087,20.80868 -0.67165,2.60282 -1.87722,22.98592 -2.67903,45.29578 -3.93902,109.59982 -13.77435,244.7277 -28.34322,389.40848 -1.34791,13.38593 -2.08151,24.71213 -1.63022,25.16943 0.45129,0.4572 37.02335,5.49 81.27124,11.1839 44.24788,5.6939 82.7164,10.9676 85.48559,11.7193 6.05522,1.6437 11.25939,7.9486 14.11947,17.1058 4.42376,14.1638 1.44863,55.4483 -4.89141,67.8758 -2.53341,4.9659 -11.12527,13.65 -13.50498,13.65 -1.76672,0 -37.76536,3.8851 -44.3636,4.7879 -3.43579,0.4701 -5.74648,1.4984 -5.74648,2.5574 0,2.2662 -26.93472,4.4813 -28.26759,2.3246 -0.57582,-0.9317 -10.87617,-0.3165 -31.25339,1.8667 -16.71698,1.7909 -31.30719,3.2652 -32.42268,3.2762 -1.11549,0.011 -8.4169,-7.2046 -16.22535,-16.0344 -7.80845,-8.8299 -14.39832,-15.8704 -14.64414,-15.6455 -0.24583,0.2249 -1.62394,13.0866 -3.06247,28.5817 -3.72861,40.1623 -5.9879,57.272 -7.02319,53.1868 z"
       id="path1" />
  </g>
</svg>
