<?xml version="1.0" encoding="UTF-8" standalone="no"?>
<!-- Created with Inkscape (http://www.inkscape.org/) -->

<svg
   version="1.1"
   id="svg1"
   width="1386.6667"
   height="1169.3333"
   viewBox="0 0 1386.6667 1169.3333"
   sodipodi:docname="FBge44.svg"
   inkscape:version="1.3.2 (091e20e, 2023-11-25, custom)"
   xmlns:inkscape="http://www.inkscape.org/namespaces/inkscape"
   xmlns:sodipodi="http://sodipodi.sourceforge.net/DTD/sodipodi-0.dtd"
   xmlns="http://www.w3.org/2000/svg"
   xmlns:svg="http://www.w3.org/2000/svg">
  <defs
     id="defs1" />
  <sodipodi:namedview
     id="namedview1"
     pagecolor="#ffffff"
     bordercolor="#000000"
     borderopacity="0.25"
     inkscape:showpageshadow="2"
     inkscape:pageopacity="0.0"
     inkscape:pagecheckerboard="0"
     inkscape:deskcolor="#d1d1d1"
     inkscape:zoom="0.35048075"
     inkscape:cx="693.33337"
     inkscape:cy="583.48426"
     inkscape:window-width="1600"
     inkscape:window-height="837"
     inkscape:window-x="-8"
     inkscape:window-y="-8"
     inkscape:window-maximized="1"
     inkscape:current-layer="g1" />
  <g
     inkscape:groupmode="layer"
     inkscape:label="Image"
     id="g1">
    <path
       style="fill:#000000"
       d="m 691.5976,1166.3913 c -0.39638,-1.6819 -1.10681,-9.058 -1.57874,-16.3914 -0.85685,-13.3144 -4.02813,-46.9488 -5.43721,-57.6666 l -0.745,-5.6667 -104.25165,-0.029 c -116.88548,-0.033 -110.1981,0.5166 -119.25489,-9.7985 -20.34763,-23.1746 -19.74418,-77.08261 0.99961,-89.29883 2.75815,-1.6243 8.79033,-2.87427 17.75706,-3.67958 15.96546,-1.43386 47.74308,-4.14301 92.24659,-7.86432 17.6,-1.47169 42.2,-3.56914 54.66667,-4.66101 12.46666,-1.09187 27.98346,-2.38354 34.48177,-2.87037 l 11.81511,-0.88514 -0.8333,-7.45648 c -0.45832,-4.10106 -1.70221,-16.45647 -2.76422,-27.45647 -1.062,-11 -3.16956,-32.6 -4.68347,-47.99999 -5.71549,-58.13983 -6.62242,-67.40314 -9.33368,-95.33333 -1.53051,-15.76667 -3.66012,-37.51667 -4.73248,-48.33333 -4.6817,-47.22365 -6.11922,-61.95858 -8.61766,-88.33333 -1.45882,-15.4 -3.50123,-36.7 -4.53868,-47.33333 -3.54743,-36.35926 -14.31875,-72.69121 -22.51436,-75.94157 -1.62014,-0.64254 -9.2457,-1.8578 -16.9457,-2.70058 -7.7,-0.84277 -21.2,-2.38155 -30,-3.4195 -8.8,-1.03795 -55.90001,-6.39674 -104.66668,-11.90843 -48.76667,-5.51168 -93.16667,-10.6066 -98.66667,-11.32205 -36.62352,-4.764 -85.98776,-9.41127 -86.41314,-8.13513 -0.65205,1.95617 -6.09627,1.80081 -25.58687,-0.73017 -11.52675,-1.49682 -17.18066,-2.81005 -18.33333,-4.25826 -1.03288,-1.2977 -5.08918,-2.47932 -10.66667,-3.10728 -4.95,-0.5573 -19.5,-2.2093 -32.33333,-3.6711 -12.83334,-1.46181 -29.03334,-3.28235 -36,-4.04565 -6.96667,-0.76331 -17.46667,-1.98428 -23.33334,-2.71328 -5.86667,-0.72899 -23.86667,-2.86177 -40.000001,-4.73951 C 49.187949,463.73554 39.915908,460.36845 25.689645,444.80266 5.3816504,422.58248 -4.1911773,379.16676 2.0354266,337.52349 c 2.359026,-15.77707 5.7331041,-25.62832 11.7861524,-34.41188 6.785006,-9.84569 8.889986,-10.44832 50.178425,-14.36528 20.166668,-1.91318 42.066666,-4.07559 48.666666,-4.80535 6.6,-0.72977 27.6,-2.82361 46.66667,-4.65299 19.06667,-1.82937 49.66667,-4.80897 68.00001,-6.62133 18.33333,-1.81237 48.93333,-4.80164 68,-6.64285 42.52845,-4.10682 60.93352,-5.94883 68.33334,-6.83893 l 5.66667,-0.68163 v -9.3494 c 0,-8.18738 0.29,-9.29325 2.33333,-8.89768 1.93589,0.37478 2.33333,1.92442 2.33333,9.09777 v 8.64604 l 4,-0.33385 c 15.7657,-1.31583 96.16454,-9.06041 120.66668,-11.62345 10.63333,-1.1123 29.13238,-2.93938 41.109,-4.06018 11.97661,-1.1208 23.82661,-2.89476 26.33333,-3.94213 l 4.55767,-1.90432 v -22.06803 c 0,-18.72714 0.30278,-22.06803 2,-22.06803 1.69176,0 2,3.18518 2,20.66666 0,11.36667 0.29279,20.66667 0.65064,20.66667 0.35785,0 6.9997,-3.15 14.75966,-7 13.60017,-6.74754 14.08227,-7.13504 13.3672,-10.74417 -3.64082,-18.37594 -5.39891,-63.37271 -3.0207,-77.31209 0.66478,-3.89643 2.53464,-8.05847 4.79219,-10.66666 2.51354,-2.90395 4.23735,-7.04892 5.36942,-12.91094 2.4527,-12.70039 10.16889,-26.40248 19.46438,-34.564025 4.57975,-4.021076 5.07003,-4.13544 17.72854,-4.13544 l 13.01854,0 1.56299,-18.333332 c 1.8343,-21.515777 5.72402,-36.866626 11.49608,-45.369542 C 679.45077,4.0548353 683.91455,1.0626988 691.56739,0.42468766 710.30687,-1.1376099 722.10175,20.670284 725.0763,62.380275 l 0.92374,12.953053 12.5064,0.666667 12.5064,0.666666 7.79827,8.484218 c 8.98406,9.77432 15.13135,21.182131 17.44158,32.367151 0.94973,4.59811 2.31362,7.81529 3.31322,7.81529 2.90245,0 5.78402,7.54717 7.25746,19.0081 1.55776,12.11677 0.6683,37.02832 -2.15388,60.32523 -0.9772,8.06667 -1.67758,14.76368 -1.55642,14.88226 0.12117,0.11858 6.52031,3.29533 14.22031,7.05945 l 14,6.84386 0.36719,-20.72612 c 0.30489,-17.20969 0.70077,-20.72611 2.33334,-20.72611 1.65313,0 1.96614,3.49958 1.96614,21.9821 v 21.98211 l 4.64163,1.93939 c 2.55289,1.06667 14.10289,2.85911 25.66666,3.98321 11.56378,1.12409 30.17504,2.95942 41.35838,4.07849 34.71651,3.47397 58.57858,5.80345 88.33334,8.62336 15.76666,1.49423 30.61664,3.05025 33.00004,3.45781 l 4.3333,0.74102 v -9.39375 c 0,-8.61303 0.2295,-9.39375 2.7621,-9.39375 2.0475,0 2.6992,0.77614 2.5191,3 -0.1337,1.65 -0.1766,5.78006 -0.096,9.1779 0.1309,5.47899 0.5247,6.24998 3.481,6.8151 l 3.3333,0.63721 0.1838,-46.14843 c 0.101,-25.38164 0.551,-58.44844 1,-73.48177 l 0.8162,-27.33333 1,36.54995 c 0.55,20.10248 1,53.16518 1,73.47267 v 36.92271 l 13.6667,1.5321 c 7.5166,0.84265 29.2666,3.03852 48.3333,4.87972 19.0667,1.84121 49.6667,4.83048 68,6.64285 18.3333,1.81236 48.9333,4.79497 68,6.62803 19.0667,1.83306 40.3667,3.95091 47.3333,4.70634 6.9667,0.75542 28.2667,2.86349 47.3334,4.68458 19.0666,1.8211 36.1666,3.65854 38,4.08321 11.1232,2.57652 21.3577,20.48692 24.6473,43.13267 5.1957,35.76791 -1.1002,76.71543 -15.101,98.21401 -6.0512,9.29176 -17.5924,20.49337 -25.0176,24.28141 -11.2124,5.72014 -15.7994,6.54832 -71.8621,12.97472 -117.3888,13.45615 -118.0613,13.54398 -119.7321,15.63549 -1.0684,1.33751 -7.1468,2.7246 -18.2679,4.16874 -19.4639,2.52751 -24.9349,2.68609 -25.583,0.74154 -0.3225,-0.9673 -8.4896,-0.5229 -25.7778,1.40265 -13.9182,1.55019 -32.8058,3.6443 -41.9725,4.65356 -9.1667,1.00927 -22.0667,2.47433 -28.6667,3.25569 -6.6,0.78137 -49.19998,5.63612 -94.66665,10.78835 -45.46667,5.15223 -89.86667,10.2338 -98.66667,11.29239 -8.8,1.05859 -22.3,2.59444 -30,3.41301 -7.7,0.81856 -15.32838,2.01802 -16.95196,2.66547 -8.11415,3.23571 -18.58173,38.68327 -22.42631,75.94477 -1.09713,10.63333 -3.17799,31.93333 -4.62414,47.33333 -1.44615,15.4 -3.53745,37.3 -4.64733,48.66666 -1.10988,11.36667 -2.91988,30.26667 -4.02222,42 -1.99261,21.20943 -5.55939,58.50125 -9.37322,97.99999 -1.83965,19.05266 -4.03249,42.26789 -9.25679,98 -2.95123,31.4833 -3.98721,28.11975 8.96863,29.11886 6.05,0.46656 21.2,1.72983 33.66667,2.80727 12.46667,1.07744 37.06667,3.16674 54.66667,4.64288 17.6,1.47614 42.5,3.58761 55.33334,4.69216 59.50192,5.12124 54.12408,4.06498 61.08993,11.99865 6.43387,7.32776 9.87897,20.09491 9.91398,36.74021 0.045,21.3809 -5.43833,38.3455 -15.71606,48.6232 -9.14899,9.149 -3.16318,8.7101 -118.78402,8.7101 -57.47711,0 -104.49728,0.45 -104.48925,1 0.008,0.55 -1.21091,14.2 -2.70874,30.3333 -1.49783,16.1334 -3.15439,34.0858 -3.68125,39.8944 -0.94042,10.3681 -3.26224,14.5712 -4.69371,8.497 z"
       id="path1" />
  </g>
</svg>
