<?xml version="1.0" encoding="UTF-8" standalone="no"?>
<!-- Created with Inkscape (http://www.inkscape.org/) -->

<svg
   version="1.1"
   id="svg1"
   width="1386.6667"
   height="1116"
   viewBox="0 0 1386.6667 1116"
   sodipodi:docname="FBge39.svg"
   inkscape:version="1.3.2 (091e20e, 2023-11-25, custom)"
   xmlns:inkscape="http://www.inkscape.org/namespaces/inkscape"
   xmlns:sodipodi="http://sodipodi.sourceforge.net/DTD/sodipodi-0.dtd"
   xmlns="http://www.w3.org/2000/svg"
   xmlns:svg="http://www.w3.org/2000/svg">
  <defs
     id="defs1" />
  <sodipodi:namedview
     id="namedview1"
     pagecolor="#ffffff"
     bordercolor="#000000"
     borderopacity="0.25"
     inkscape:showpageshadow="2"
     inkscape:pageopacity="0.0"
     inkscape:pagecheckerboard="0"
     inkscape:deskcolor="#d1d1d1"
     inkscape:zoom="0.35048075"
     inkscape:cx="693.33337"
     inkscape:cy="557.80525"
     inkscape:window-width="1600"
     inkscape:window-height="837"
     inkscape:window-x="-8"
     inkscape:window-y="-8"
     inkscape:window-maximized="1"
     inkscape:current-layer="g1" />
  <g
     inkscape:groupmode="layer"
     inkscape:label="Image"
     id="g1">
    <path
       style="fill:#000000"
       d="m 697.1435,1113.7778 c -0.10443,-0.6111 -0.35662,-2.9111 -0.56043,-5.1111 -0.2038,-2.2 -1.05943,-7.9 -1.9014,-12.6667 -0.84196,-4.7667 -2.05021,-13.1667 -2.685,-18.6667 -0.63478,-5.5 -2.09371,-16.146 -3.24205,-23.6579 -1.14835,-7.5118 -2.08791,-16.8471 -2.08791,-20.7451 0,-3.898 -0.78114,-8.1556 -1.73586,-9.4612 -1.59723,-2.1844 -2.58217,-1.6564 -12.33333,6.6107 -5.82862,4.9415 -13.89748,12.1292 -17.93081,15.9727 -23.41271,22.3105 -25.40524,23.2905 -42.00001,20.6585 -9.10522,-1.4441 -33.51189,-3.7159 -58,-5.3988 -51.82526,-3.5614 -62.13323,-5.4374 -78.58254,-14.3013 -13.96281,-7.524 -24.71989,-18.6381 -31.30539,-32.3442 -5.4449,-11.3323 -5.44541,-11.3349 -5.42693,-27.33337 0.0182,-15.74573 0.0976,-16.16244 4.99668,-26.22224 5.95644,-12.23099 15.6061,-23.21119 24.79259,-28.2111 3.69199,-2.00943 28.49561,-10.80259 55.11915,-19.54035 26.62354,-8.73777 50.20644,-16.54753 52.40644,-17.35503 2.2,-0.8075 19.97928,-6.80086 39.50951,-13.31857 19.53023,-6.51771 37.83023,-12.94917 40.66667,-14.29213 5.87579,-2.78199 5.82669,-2.35456 3.10852,-27.06058 -0.76647,-6.96666 -1.97135,-21.66666 -2.6775,-32.66666 -0.70615,-11 -1.86223,-23.3 -2.56907,-27.33334 C 653.99799,777.3 652.77962,767.7 651.99735,760 c -3.11896,-30.70011 -5.53708,-54.61705 -6.74033,-66.66667 -0.69568,-6.96666 -2.13928,-24.36666 -3.20799,-38.66666 -1.06872,-14.3 -2.56181,-32.9 -3.31799,-41.33334 -0.75617,-8.43333 -1.37999,-18.96333 -1.38627,-23.4 -0.006,-4.43666 -0.66698,-8.72225 -1.46825,-9.52352 -0.94377,-0.94377 -1.02436,-2.32904 -0.22884,-3.93333 0.67542,-1.36206 1.04781,-4.27648 0.82755,-6.47648 -1.25312,-12.51646 -4.46723,-62.59966 -4.47089,-69.66667 -0.003,-5.69319 -0.53233,-8.38206 -1.67097,-8.48713 -0.91667,-0.0846 -2.56667,-0.23459 -3.66667,-0.33333 -2.03138,-0.18235 -3.48351,-9.19026 -3.84415,-23.8462 -0.14539,-5.90823 0.0679,-6.33334 3.17749,-6.33334 3.0441,0 3.33333,-0.50267 3.33333,-5.79328 0,-4.47904 -1.19064,-7.63544 -5.24844,-13.91364 -2.88664,-4.46619 -6.70899,-9.07734 -8.49412,-10.247 -2.87244,-1.8821 -11.92978,-3.37526 -31.59078,-5.20795 -29.12467,-2.71485 -52.87854,-5.09108 -68,-6.80241 -9.9,-1.1204 -25.5,-2.67742 -34.66667,-3.46005 -9.16667,-0.78263 -23.56667,-2.00842 -32,-2.72399 -8.43333,-0.71557 -37.83334,-1.49402 -65.33334,-1.7299 -45.31751,-0.3887 -71.66695,0.0843 -148.39872,2.66387 -21.35832,0.71803 -25.40079,0.54315 -27.33333,-1.18249 -1.24738,-1.11384 -5.86796,-2.44055 -10.26796,-2.94825 -7.40383,-0.85431 -33.1718,-5.60804 -58.66667,-10.82295 C 122.60703,395.74397 92.621621,386.35259 78.000005,379.9558 55.99953,370.33085 41.126975,360.78112 26.156167,346.66667 15.742244,336.84843 9.7507648,328.25567 4.7675206,315.99183 -0.39663674,303.28276 -0.1099422,281.25556 5.3834801,268.66667 6.0234904,267.2 7.4059041,263.9 8.4555106,261.33333 11.031632,255.03379 24.162716,240.16564 34.154504,232.23471 c 9.05963,-7.19103 28.35967,-17.89209 42.263179,-23.43316 12.662625,-5.04654 26.580887,-8.45867 47.582327,-11.66507 17.29723,-2.64086 25.28795,-2.78238 204.66668,-3.62487 102.66667,-0.48219 187.33287,-1.30318 188.14712,-1.82443 0.81424,-0.52124 1.8718,-3.81409 2.35012,-7.31744 1.48951,-10.90947 7.40248,-23.96883 13.24066,-29.24328 4.60321,-4.15872 5.92221,-4.67766 10.37222,-4.08079 10.92207,1.46496 18.30432,11.69088 21.38382,29.621 0.88165,5.13333 2.11709,9.91423 2.74542,10.62421 0.903,1.02035 52.94888,1.25891 53.99283,0.24749 0.12769,-0.12371 0.42769,-1.95152 0.66666,-4.06178 0.33698,-2.97573 -0.15579,-3.92934 -2.19564,-4.24897 -4.14041,-0.64877 -6.13531,-4.62626 -5.9553,-11.87382 0.14893,-5.99655 -1.44577,-14.71449 -5.61335,-30.68713 -0.76537,-2.93334 -1.69074,-8.33334 -2.05639,-12 -0.38143,-3.82495 -1.70965,-7.80336 -3.116,-9.33334 -4.24471,-4.61785 -9.29549,-22.508095 -9.29549,-32.925355 0,-6.245059 4.01904,-13.634183 8.76967,-16.123289 1.75589,-0.920006 5.15104,-4.932903 7.54477,-8.91755 6.0433,-10.059815 9.42856,-11.65996 27.01889,-12.771318 9.93466,-0.627672 15.39577,-1.56375 16.92648,-2.901336 2.24735,-1.963817 8.93841,-1.842641 17.2468,0.31234 4.83788,1.25482 14.79848,-5.206068 14.22403,-9.226336 -0.34081,-2.385135 -1.3723,-2.7998 -7.25438,-2.916323 -10.53843,-0.208764 -11.33643,-0.809928 -10.85835,-8.180089 l 0.41195,-6.350741 h 8.65174 8.65174 l 0.4196,-6.657011 c 0.48564,-7.7045448 3.14493,-11.3429887 8.29045,-11.3429887 4.93231,0 7.12135,3.0838483 7.93665,11.1808727 l 0.68663,6.819127 8.66667,0.666667 8.66667,0.666667 0.41982,5.867854 c 0.52129,7.285964 -0.98294,8.402885 -9.89411,7.346579 -5.69887,-0.675528 -6.95246,-0.429514 -7.69691,1.510512 -1.23,3.205314 2.13552,7.855878 7.20466,9.955582 3.32095,1.375583 5.17021,1.41992 8.53128,0.204542 5.96181,-2.155817 13.45466,-1.938214 15.43526,0.448264 1.25449,1.511578 4.64433,2 13.88074,2 15.65623,0 21.80879,2.811094 28.86488,13.188317 2.68826,3.953574 6.17542,7.877451 7.74922,8.719726 8.49821,4.548103 10.14549,16.634504 4.92338,36.123737 -2.00282,7.47465 -4.6143,14.20163 -5.96143,15.35623 -1.42978,1.22544 -2.70736,4.72318 -3.16557,8.66667 -0.42255,3.63659 -2.06662,12.31199 -3.65349,19.27865 -1.58686,6.96667 -3.09431,15.685 -3.34989,19.37406 -0.65492,9.45348 -2.61293,13.95928 -6.06605,13.95928 -2.43647,0 -2.71238,0.52525 -1.92462,3.66393 0.50577,2.01516 1.02081,3.74386 1.14454,3.84155 1.23809,0.97757 54.08332,1.80238 54.66989,0.85329 0.42049,-0.68037 1.41089,-5.38943 2.20089,-10.46457 1.70814,-10.97352 7.22566,-22.71637 12.45195,-26.5013 2.46363,-1.78418 5.83704,-2.72624 9.76235,-2.72624 5.29351,0 6.59046,0.63524 11.04335,5.40898 5.29911,5.68092 10.55772,17.58091 11.75058,26.59102 0.38835,2.93334 1.21012,5.97681 1.82616,6.76329 0.77184,0.98538 26.52016,1.50222 82.81993,1.66241 237.92021,0.67697 284.06191,1.1808 298.36651,3.25794 29.9658,4.35126 60.7554,12.77426 78,21.33817 24.1891,12.01261 46.2743,34.33066 53.7449,54.31153 2.5087,6.70999 3.4647,26.01313 1.7435,35.20626 -3.4466,18.40846 -24.5552,45.21778 -44.9191,57.05021 -12.0554,7.00476 -28.2207,15.12149 -36.9447,18.55027 -3.8268,1.50404 -8.7579,3.52355 -10.9579,4.48779 -5.6317,2.46831 -28.6051,9.47801 -41.6803,12.71756 -14.6435,3.62811 -22.1514,5.02318 -39.653,7.36809 -21.6497,2.90067 -31.79,4.80449 -33.7115,6.32927 -1.1353,0.90086 -11.6847,1.01007 -31.3333,0.32437 -46.1565,-1.61079 -173.60977,-2.8066 -186.95524,-1.75409 -6.6,0.52052 -21.60001,1.58314 -33.33334,2.36139 -11.73333,0.77824 -25.53333,2.00656 -30.66667,2.72959 -5.13333,0.72303 -19.53333,2.24306 -32,3.37785 -12.46667,1.13478 -27.46667,2.59106 -33.33333,3.23618 -5.86667,0.64511 -19.89048,2.13084 -31.16401,3.30162 -21.27736,2.2097 -24.53232,3.10554 -28.59386,7.86969 -6.79245,7.96748 -10.24214,14.85138 -10.24214,20.43832 0,5.3151 0.2602,5.73896 3.5231,5.73896 l 3.52311,0 -0.94045,15 c -1.00226,15.98589 -1.96013,18.56508 -5.96574,16.06354 -2.34847,-1.46665 -2.50448,-0.3465 -3.43832,24.68713 -0.53802,14.42291 -1.17106,27.22478 -1.40674,28.4486 -0.23569,1.22381 -0.79455,10.82962 -1.24193,21.34625 -0.73128,17.19048 -1.71898,31.83556 -6.05547,89.78781 -0.71336,9.53334 -1.64152,24.83334 -2.06257,34 -0.42105,9.16667 -1.59197,22.66667 -2.60205,30 -2.79233,20.27282 -4.62156,35.89244 -6.01169,51.33334 -0.69323,7.7 -1.871,19.1 -2.61728,25.33333 -1.67254,13.97001 -3.69375,35.41508 -4.83818,51.33333 -1.44741,20.13229 -1.45382,20.02022 1.13421,19.81482 1.28333,-0.10185 2.33333,0.31994 2.33333,0.93733 0,0.61738 1.95,1.69547 4.33334,2.39575 2.38333,0.70028 10.33333,3.38593 17.66666,5.96811 43.87445,15.44885 61.33658,21.42561 110.00001,37.64969 29.7,9.9018 56.29988,19.52177 59.11085,21.37772 12.67103,8.3661 22.77194,22.93125 26.9037,38.79418 10.70955,41.11667 -24.54648,80.90387 -76.01455,85.78397 -7.33333,0.6953 -26.23333,2.2061 -42,3.3572 -15.76667,1.1511 -35.26667,2.9494 -43.33334,3.9963 -25.98712,3.3726 -25.75096,3.4206 -37.67985,-7.67 -5.67608,-5.2773 -12.07877,-11.1273 -14.2282,-13 -2.14942,-1.8728 -7.00634,-6.1051 -10.79315,-9.4051 -3.78682,-3.3 -9.47443,-8.25 -12.63915,-11 -3.16472,-2.75 -6.34113,-5 -7.05869,-5 -1.34934,0 -0.87324,6.9079 1.746,25.3334 0.78184,5.5 2.09666,14.8 2.92181,20.6666 0.82516,5.8667 1.55225,14.2585 1.61576,18.6485 0.1148,7.9354 0.0868,7.9953 -4.82042,10.3136 -4.97834,2.3519 -5.50161,3.4654 -6.70452,14.2668 -0.33802,3.0352 -3.47034,5.6292 -3.8828,3.2156 z m 10.37901,-29.4445 c -0.45455,-2.75 -0.83306,-6.3854 -0.84113,-8.0787 -0.008,-1.7102 -0.60734,-2.7124 -1.34801,-2.2546 -0.73333,0.4532 -1.33333,4.0886 -1.33333,8.0787 0,5.8184 0.4305,7.2546 2.17446,7.2546 1.77074,0 2.02101,-0.9283 1.34801,-5 z"
       id="path1" />
  </g>
</svg>
