<?xml version="1.0" encoding="UTF-8" standalone="no"?>
<!-- Created with Inkscape (http://www.inkscape.org/) -->

<svg
   version="1.1"
   id="svg1"
   width="1386.6667"
   height="1072"
   viewBox="0 0 1386.6667 1072"
   sodipodi:docname="FBja39.svg"
   inkscape:version="1.3.2 (091e20e, 2023-11-25, custom)"
   xmlns:inkscape="http://www.inkscape.org/namespaces/inkscape"
   xmlns:sodipodi="http://sodipodi.sourceforge.net/DTD/sodipodi-0.dtd"
   xmlns="http://www.w3.org/2000/svg"
   xmlns:svg="http://www.w3.org/2000/svg">
  <defs
     id="defs1" />
  <sodipodi:namedview
     id="namedview1"
     pagecolor="#ffffff"
     bordercolor="#000000"
     borderopacity="0.25"
     inkscape:showpageshadow="2"
     inkscape:pageopacity="0.0"
     inkscape:pagecheckerboard="0"
     inkscape:deskcolor="#d1d1d1"
     inkscape:zoom="0.35048075"
     inkscape:cx="693.33337"
     inkscape:cy="534.97946"
     inkscape:window-width="1600"
     inkscape:window-height="837"
     inkscape:window-x="-8"
     inkscape:window-y="-8"
     inkscape:window-maximized="1"
     inkscape:current-layer="g1" />
  <g
     inkscape:groupmode="layer"
     inkscape:label="Image"
     id="g1">
    <path
       style="fill:#000000"
       d="m 683.42712,1067.6667 c -0.53496,-2.5731 -4.656,-40.5809 -6.90314,-63.6667 -0.3926,-4.03333 -0.92975,-9.13333 -1.19368,-11.33333 -0.26392,-2.2 -0.5212,-5.95 -0.57173,-8.33334 -0.0505,-2.38333 -0.54186,-4.32986 -1.09186,-4.32562 -0.55,0.004 -3.08809,4.24538 -5.6402,9.42475 -2.55211,5.17937 -5.43572,10.07726 -6.40801,10.88424 -1.842,1.5287 -44.84316,-0.52493 -62.9518,-3.00644 -4.76667,-0.65319 -15.56667,-1.86951 -24,-2.70291 -14.22386,-1.40564 -26.52025,-3.47821 -50,-8.42754 -20.48477,-4.31801 -42.36071,-13.43411 -58.85927,-24.52772 -13.66313,-9.18706 -18.37941,-16.00457 -20.59679,-29.77325 -1.98151,-12.30406 0.97345,-21.22509 9.90418,-29.9007 8.32415,-8.08636 24.21026,-16.55724 39.55188,-21.09006 6.23333,-1.8417 20.03333,-6.15695 30.66666,-9.58945 10.63334,-3.43249 21.43334,-6.81084 24.00001,-7.50744 2.56666,-0.6966 7.66666,-2.38158 11.33333,-3.74439 3.66667,-1.36282 14.76667,-4.9666 24.66667,-8.0084 35.79233,-10.99729 53.82533,-17.34296 58.98138,-20.75507 3.65566,-2.4192 6.29512,-5.74933 8.67208,-10.94129 l 3.41696,-7.46361 -2.93527,-29.43921 C 651.85412,767.24765 649.93497,748 649.20374,740.66667 648.47251,733.33333 646.36226,712.33333 644.51429,694 c -1.84796,-18.33333 -3.6521,-37.53333 -4.00919,-42.66667 -0.3571,-5.13333 -1.23027,-14.59312 -1.9404,-21.02176 -0.71012,-6.42863 -1.60476,-29.22863 -1.98807,-50.66667 -0.38332,-21.43803 -1.25755,-41.07823 -1.94274,-43.6449 -8.64595,-32.38696 -4.46219,-29.79414 -49.73808,-30.8244 -33.13116,-0.7539 -42.54372,-1.54917 -76.89578,-6.49697 -5.5,-0.79217 -24.25766,-2.92395 -41.6837,-4.73729 -17.42603,-1.81333 -42.17894,-4.78008 -55.00647,-6.59277 -12.82752,-1.81269 -29.76986,-3.90295 -37.64964,-4.64501 -7.87977,-0.74207 -21.07687,-2.25394 -29.32687,-3.35972 -36.23122,-4.85621 -46.96397,-6.20445 -79.66667,-10.00771 -50.79319,-5.90714 -53.46977,-6.65521 -65.2039,-18.22359 -8.75818,-8.63446 -14.61586,-17.97543 -22.18457,-35.37665 -7.38458,-16.97791 -6.1005,-16.05415 -24.56069,-17.66876 -9.97221,-0.87221 -66.615091,-6.65297 -80.050849,-8.16969 C 45.501587,386.83086 23.241309,359.57027 8.904198,311.81206 1.7231565,287.89136 0.13129596,267.37573 4.3862502,253.58552 9.9935252,235.41246 30.931913,221.51078 63.333337,214.4486 c 12.542491,-2.73375 17.88068,-2.95357 90.000003,-3.70613 42.16667,-0.44001 150.14608,-0.96103 239.95424,-1.15782 114.60985,-0.25115 163.55153,-0.78492 164.17303,-1.79053 0.48701,-0.788 1.26203,-4.18008 1.72228,-7.53796 C 560.37228,191.57864 564.14798,188 572.11393,188 c 5.41563,0 6.80767,0.58464 9.76758,4.1023 2.20644,2.62221 3.45186,5.70976 3.45186,8.55762 0,8.82649 -0.3771,8.67341 21.36693,8.67341 10.86157,0 20.69738,-0.36419 21.85735,-0.80932 1.87206,-0.71837 2.10905,-6.51177 2.10905,-51.55744 0,-62.424732 1.01319,-69.664447 11.98017,-85.604413 2.21091,-3.213443 4.01983,-6.709083 4.01983,-7.768089 0,-3.444571 3.96729,-13.274922 5.96764,-14.786916 1.07241,-0.8106 4.83694,-6.300848 8.36562,-12.20055 9.20255,-15.385994 25.63091,-35.2500014 29.16391,-35.2629193 1.7893,-0.00654 6.20422,3.5455086 12.00203,9.6563173 10.9346,11.524909 32.50081,45.329716 32.50081,50.944682 0,2.211788 1.6077,5.534344 3.99181,8.249703 5.19172,5.913039 8.92216,13.333081 10.73767,21.357808 0.92369,4.082759 1.47093,26.410477 1.49195,60.871837 0.0244,39.94409 0.44274,54.55318 1.57255,54.90944 2.84634,0.89754 38.00282,1.61618 39.31412,0.80363 0.71342,-0.44207 1.72099,-3.80377 2.23904,-7.47043 1.15085,-8.14543 3.4181,-11.95967 8.74706,-14.71538 3.27526,-1.6937 4.94226,-1.81603 8.5449,-0.62706 5.64901,1.86434 8.09961,5.61597 9.00888,13.79172 0.3945,3.54711 1.23509,6.93947 1.86798,7.53859 0.63289,0.59911 97.75072,1.37598 215.81743,1.72637 187.0034,0.55498 218.2749,0.93132 242.6666,2.92036 48.793,3.97886 71.1634,10.28316 86.1148,24.26839 12.2128,11.42368 19.7983,33.13604 17.1543,49.10145 -3.5346,21.34301 -11.1299,40.90824 -26.33,67.82513 -15.7351,27.86432 -28.041,35.73639 -61.6057,39.40906 -15.1189,1.65432 -23.8767,2.64033 -36.6667,4.1282 -5.8667,0.68247 -19.6667,2.1698 -30.6667,3.30517 -11,1.13537 -21.2075,2.32432 -22.6834,2.64211 -2.0079,0.43232 -3.82,3.69644 -7.1979,12.96517 -4.4935,12.32968 -13.6406,29.35456 -19.2007,35.73691 -3.8828,4.45701 -14.7243,11.00719 -22.6929,13.71048 -3.5429,1.2019 -14.943,3.13567 -25.3334,4.29726 -23.1375,2.58664 -73.1822,8.52895 -79.5583,9.44676 -2.5667,0.36945 -9.1667,1.21412 -14.6667,1.87703 -5.5,0.66291 -22,2.79501 -36.6667,4.73799 -32.42038,4.29494 -52.11721,6.77181 -67.99998,8.55101 -6.6,0.73933 -16.2,1.95201 -21.33333,2.69484 -66.58234,9.6349 -76.52436,10.58494 -118.65091,11.33798 -35.95722,0.64275 -34.39862,0.16361 -35.96822,11.05725 -0.49713,3.45027 -1.70342,10.47321 -2.68066,15.60654 -0.97723,5.13333 -2.80076,16.53333 -4.05227,25.33333 -1.25152,8.8 -3.6914,23.8 -5.42195,33.33334 -4.85617,26.75181 -5.63967,32.75452 -7.91849,60.66666 -1.16748,14.3 -3.59721,37.56045 -5.39938,51.68988 -1.80217,14.12942 -3.88113,33.32942 -4.61991,42.66666 -1.56908,19.83139 -4.80969,48.43134 -6.70329,59.15982 -1.14073,6.463 -0.93585,8.56087 1.46198,14.96965 1.53375,4.09931 4.28142,8.62751 6.10593,10.06267 3.35525,2.63924 17.82024,7.67093 57.84716,20.12232 30.62999,9.52823 39.65076,12.44487 58,18.75286 8.8,3.02521 21.7,7.23491 28.66667,9.35489 6.96667,2.11997 17.51865,6.2879 23.44884,9.26205 13.45601,6.74855 28.60364,20.17615 31.87384,28.25453 2.86668,7.08156 2.91214,17.63276 0.10492,24.35139 -3.41717,8.17845 -19.83345,23.09029 -33.49621,30.42652 -30.38335,16.31436 -65.74804,22.72609 -145.86172,26.44516 -28.9722,1.34497 -34.09913,1.30037 -35.08557,-0.30497 -0.63539,-1.03405 -3.93934,-6.68009 -7.3421,-12.54676 l -6.18683,-10.66667 -2.25993,17.33334 c -2.81615,21.59943 -4.72648,38.25813 -6.65113,58.00003 -1.47295,15.1085 -2.75262,20 -5.2323,20 -0.69356,0 -1.54169,-1.35 -1.88474,-3 z"
       id="path1" />
  </g>
</svg>
