<?xml version="1.0" encoding="UTF-8" standalone="no"?>
<!-- Created with Inkscape (http://www.inkscape.org/) -->

<svg
   version="1.1"
   id="svg1"
   width="1386.6667"
   height="1070.6667"
   viewBox="0 0 1386.6667 1070.6667"
   sodipodi:docname="FBja44.svg"
   inkscape:version="1.3.2 (091e20e, 2023-11-25, custom)"
   xmlns:inkscape="http://www.inkscape.org/namespaces/inkscape"
   xmlns:sodipodi="http://sodipodi.sourceforge.net/DTD/sodipodi-0.dtd"
   xmlns="http://www.w3.org/2000/svg"
   xmlns:svg="http://www.w3.org/2000/svg">
  <defs
     id="defs1" />
  <sodipodi:namedview
     id="namedview1"
     pagecolor="#ffffff"
     bordercolor="#000000"
     borderopacity="0.25"
     inkscape:showpageshadow="2"
     inkscape:pageopacity="0.0"
     inkscape:pagecheckerboard="0"
     inkscape:deskcolor="#d1d1d1"
     inkscape:zoom="0.35048075"
     inkscape:cx="693.33337"
     inkscape:cy="534.97946"
     inkscape:window-width="1600"
     inkscape:window-height="837"
     inkscape:window-x="-8"
     inkscape:window-y="-8"
     inkscape:window-maximized="1"
     inkscape:current-layer="g1" />
  <g
     inkscape:groupmode="layer"
     inkscape:label="Image"
     id="g1">
    <path
       style="fill:#000000"
       d="m 690.25004,1068.4723 c -0.50417,-0.5042 -0.91667,-2.5271 -0.91667,-4.4955 0,-1.9683 -0.60106,-5.3183 -1.3357,-7.4444 -0.73464,-2.1261 -2.28531,-10.4657 -3.44595,-18.5323 -3.19256,-22.1891 -3.42101,-23.3334 -4.65848,-23.3334 -1.1462,0 -6.594,11.0206 -8.56836,17.3334 -2.11834,6.7731 -4.87516,9.6096 -8.55163,8.799 -1.89193,-0.4172 -13.83009,-1.7077 -26.52924,-2.8678 -17.17285,-1.5689 -23.5526,-1.725 -24.89715,-0.6091 -2.88801,2.3968 -24.68532,0.2773 -28.01349,-2.724 -2.8703,-2.5884 -17.10316,-5.5379 -38,-7.8749 -23.62819,-2.6424 -32.64396,-4.2735 -43.27767,-7.8296 -24.16406,-8.0809 -36.22628,-29.84836 -26.72338,-48.22495 2.34659,-4.53781 12.21546,-14.66868 14.28932,-14.66868 0.71504,0 2.89269,-1.10761 4.83923,-2.46136 4.07486,-2.83392 3.28022,-2.60187 54.8725,-16.0239 11.36666,-2.95711 23.66666,-6.34245 27.33333,-7.52298 7.21389,-2.3226 41.69565,-11.62121 54.66667,-14.74181 17.5961,-4.23332 25.69446,-6.67869 28.61954,-8.64192 3.02785,-2.03221 3.04725,-2.21191 1.51133,-14 -0.85574,-6.56775 -2.44633,-19.14137 -3.53465,-27.94137 -1.08832,-8.8 -2.60435,-20.2 -3.36897,-25.33333 -0.76461,-5.13334 -2.28344,-18.63334 -3.37517,-30.00001 -1.09173,-11.36666 -2.53533,-26.06666 -3.20799,-32.66666 -0.67266,-6.6 -2.14769,-23.10001 -3.27786,-36.66667 -1.13017,-13.56667 -2.69779,-32.16667 -3.48362,-41.33334 -0.78582,-9.16667 -1.904,-35.26667 -2.48485,-58 -0.94208,-36.87178 -1.36354,-42.26883 -3.90453,-50.00001 -7.02596,-21.37705 -26.38506,-41.33333 -40.09644,-41.33333 -2.21385,0 -6.5838,-0.59981 -9.71099,-1.3329 -8.0442,-1.88577 -57.26562,-9.84852 -95.01914,-15.37163 -30.50863,-4.46322 -64.15525,-9.72276 -110.66667,-17.29907 -20.53334,-3.3447 -41.23334,-6.66629 -46.00001,-7.3813 -4.76666,-0.71501 -17.96666,-2.87218 -29.33333,-4.7937 -39.36815,-6.65515 -43.06551,-7.04653 -45.61056,-4.82804 -1.90205,1.65801 -3.65935,1.74471 -10.66666,0.52626 -4.6142,-0.80232 -12.28945,-2.12386 -17.05612,-2.93674 -4.82691,-0.82316 -9.84986,-2.57469 -11.33723,-3.95336 -1.7102,-1.58521 -7.94346,-3.46563 -17.33334,-5.22902 -18.8749,-3.54465 -68.14152,-11.73728 -85.32944,-14.18957 C 97.702933,469.83865 62.970561,459.63643 49.122223,452.70393 25.924272,441.091 18.325052,434.01015 8.8268747,415.15723 2.0139881,401.63435 0.21045728,389.96008 2.3345248,373.13222 4.2388321,358.04539 8.4642296,349.20736 18.595373,339.12031 c 11.332399,-11.28309 22.023035,-15.85129 40.071297,-17.1228 14.755805,-1.03956 43.37028,-2.88031 105.33334,-6.77602 30.43333,-1.9134 55.63334,-3.77028 56,-4.12641 0.36667,-0.35613 1.15611,-25.03765 1.75432,-54.84783 0.59822,-29.81018 1.3083,-54.42096 1.57796,-54.69063 0.26967,-0.26966 1.13023,-0.0948 1.91235,0.38857 0.931,0.57539 1.42325,10.17497 1.42554,27.80018 0.002,14.80673 0.39716,39.07132 0.8783,53.92132 l 0.87479,27 7.06942,0 c 3.88817,0 12.94294,-0.59819 20.1217,-1.32932 7.17876,-0.73113 24.75229,-1.90234 39.05229,-2.6027 14.3,-0.70036 45.50001,-2.50526 69.33334,-4.0109 23.83334,-1.50564 64.63334,-3.94817 90.66667,-5.42786 26.03334,-1.47968 56.03334,-3.26361 66.66667,-3.96427 10.63334,-0.70067 30.43334,-1.89144 44.00001,-2.64615 44.6925,-2.48622 64.56302,-4.04848 65.6783,-5.16376 0.60496,-0.60496 0.22197,-3.74483 -0.85109,-6.97749 -1.07305,-3.23265 -2.36907,-10.53208 -2.88003,-16.22095 -1.11412,-12.40407 0.50809,-17.52391 6.17874,-19.50071 4.15761,-1.44935 4.75537,-2.74127 2.37141,-5.12523 -1.11468,-1.11468 -1.09289,-3.67952 0.0844,-9.93334 0.9698,-5.15168 1.13561,-9.6468 0.42631,-11.55752 -0.68662,-1.84964 -0.60937,-5.8185 0.18913,-9.71648 0.97158,-4.74297 0.91387,-7.74473 -0.20595,-10.71147 -1.17889,-3.12323 -1.18376,-5.51292 -0.0201,-9.86372 1.17052,-4.37643 1.15972,-6.56711 -0.0454,-9.21204 -1.16344,-2.55348 -1.21177,-5.11824 -0.18293,-9.70909 1.05282,-4.69792 0.98734,-7.00658 -0.26511,-9.3468 -1.292,-2.41413 -1.31981,-4.39207 -0.12459,-8.86089 0.84629,-3.16415 1.19571,-7.86661 0.7765,-10.4499 -1.11914,-6.89642 3.04597,-22.11363 7.64323,-27.92457 2.23971,-2.83099 3.89385,-6.53527 3.89385,-8.71987 0,-2.088932 0.82882,-7.074115 1.84182,-11.078188 1.01301,-4.004073 2.26461,-9.680133 2.78134,-12.613466 1.17624,-6.677167 7.63264,-25.968176 13.40497,-40.052566 8.634,-21.06681 19.82062,-36.6141066 26.34464,-36.6141066 3.75071,0 8.26902,4.5857388 15.00503,15.2289626 11.2687,17.805102 21.35714,45.522125 27.36525,75.183397 2.46748,12.181637 3.87524,16.152667 7.32647,20.666667 5.61211,7.34029 10.6341,21.79995 8.47492,24.4016 -1.02476,1.23476 -1.23713,4.23338 -0.62745,8.85961 0.50688,3.84621 0.86247,8.34311 0.79019,9.99311 -0.35542,8.11348 -0.16054,13.43227 0.65373,17.84252 0.5556,3.00925 0.34104,5.18431 -0.56675,5.74535 -1.88988,1.16802 -1.86574,8.6232 0.0526,16.24162 1.129,4.48369 1.129,6.39475 0,7.52376 -1.96368,1.96367 -1.93134,8.30171 0.0706,13.83798 1.25878,3.48111 1.22053,5.05975 -0.18629,7.68843 -1.181,2.20671 -1.44309,4.99658 -0.78732,8.38077 1.19516,6.16786 1.17154,7.04201 -0.45558,16.8587 -0.70977,4.28219 -2.23497,8.82943 -3.38933,10.10499 -5.0351,5.56371 -0.97445,18.40912 7.02598,22.22593 4.54177,2.16676 23.71674,4.26371 65.54184,7.16756 29.99513,2.08252 65.25408,4.85077 102.66668,8.06056 49.83437,4.27551 95.35001,8.03344 112.66671,9.30215 8.8,0.64473 22.3,1.82987 30,2.63364 7.7,0.80377 25.7,2.32193 40,3.37369 29.5704,2.1749 87.231,6.64453 112,8.68181 9.1666,0.75397 25.3666,1.9645 36,2.69007 10.6333,0.72557 24.7333,1.8874 31.3333,2.58186 6.6,0.69446 20.1,1.92857 30,2.74245 18.0757,1.48602 19.3906,1.66 30.9446,4.09418 14.6599,3.08854 27.1456,13.96869 36.4498,31.76269 3.3882,6.47975 3.6798,8.26403 3.8042,23.27407 0.1343,16.19824 0.1169,16.29244 -4.8487,26.3733 -9.5316,19.35007 -26.5028,39.10082 -40.7954,47.47688 -7.3023,4.27943 -31.7355,13.6684 -35.5698,13.6684 -1.5316,0 -3.3547,0.56743 -4.0514,1.26097 -1.378,1.37184 -12.6627,3.24454 -56.6,9.39282 -15.7666,2.20628 -36.7666,5.19752 -46.6666,6.6472 -9.9,1.44968 -21.1722,3.03025 -25.0493,3.51238 -4.81,0.59813 -7.6347,1.71233 -8.8921,3.50749 -1.8425,2.63058 -2.2326,2.71117 -28.4527,5.8785 -4.3933,0.5307 -8.1711,0.27254 -10,-0.68336 -3.0559,-1.59723 -11.6028,-0.64211 -98.9393,11.05655 -19.0666,2.55397 -39.46664,5.2671 -45.33331,6.02919 -22.77461,2.95844 -32.43787,4.30868 -44,6.14807 -6.6,1.04997 -23.1,3.40075 -36.66667,5.22394 -31.52031,4.23595 -47.37793,6.47376 -74.66667,10.5369 -12.1,1.80162 -25.48645,3.61044 -29.74767,4.0196 -11.79934,1.13296 -17.80486,3.16459 -23.23187,7.85919 -7.58054,6.55749 -10.60293,10.2413 -15.58842,18.99978 -10.68081,18.76395 -13.48197,31.59173 -14.73494,67.47808 -0.89415,25.60906 -4.00272,79.34119 -6.08227,105.13272 -3.41971,42.41297 -11.32218,115.23183 -16.04575,147.85672 -1.14125,7.88246 -1.0741,10.18711 0.33524,11.50624 0.96929,0.90724 7.16234,3.25138 13.76234,5.20921 6.6,1.95782 18,5.38331 25.33333,7.6122 7.33334,2.22889 15.13334,4.59641 17.33334,5.26117 2.2,0.66476 12.7,3.6329 23.33333,6.59587 21.26657,5.92591 21.29784,5.93532 41.33334,12.4392 7.7,2.49956 19.7,6.22136 26.66667,8.27068 26.13751,7.68862 35.765,17.35106 37.87552,38.013 0.68438,6.70009 0.35113,8.07704 -3.38822,14.00005 -7.64658,12.1118 -15.76318,17.0684 -34.4873,21.0604 -11.52788,2.4578 -37.46196,5.676 -56.3988,6.9988 -10.48982,0.7327 -13.40317,1.3948 -14.77854,3.3584 -1.77767,2.538 -5.45025,2.761 -40.156,2.4387 -9.59933,-0.089 -27.53299,1.6075 -36.86712,3.4877 -3.22196,0.649 -3.83965,0.044 -7,-6.8594 -1.90642,-4.1641 -3.46622,-8.3252 -3.46622,-9.2468 0,-0.9216 -0.86398,-2.3926 -1.91995,-3.269 -1.05598,-0.8764 -2.10598,-2.8529 -2.33334,-4.3922 -0.22735,-1.5393 -1.06587,-3.0132 -1.86336,-3.2754 -1.97227,-0.6483 -5.78399,20.647 -6.94976,38.8269 -0.85444,13.3249 -2.09056,17.1728 -4.68359,14.5798 z"
       id="path1" />
  </g>
</svg>
