<?xml version="1.0" encoding="UTF-8" standalone="no"?>
<!-- Created with Inkscape (http://www.inkscape.org/) -->

<svg
   version="1.1"
   id="svg1"
   width="1386.6667"
   height="1022.6667"
   viewBox="0 0 1386.6667 1022.6667"
   sodipodi:docname="FBja42.svg"
   inkscape:version="1.3.2 (091e20e, 2023-11-25, custom)"
   xmlns:inkscape="http://www.inkscape.org/namespaces/inkscape"
   xmlns:sodipodi="http://sodipodi.sourceforge.net/DTD/sodipodi-0.dtd"
   xmlns="http://www.w3.org/2000/svg"
   xmlns:svg="http://www.w3.org/2000/svg">
  <defs
     id="defs1" />
  <sodipodi:namedview
     id="namedview1"
     pagecolor="#ffffff"
     bordercolor="#000000"
     borderopacity="0.25"
     inkscape:showpageshadow="2"
     inkscape:pageopacity="0.0"
     inkscape:pagecheckerboard="0"
     inkscape:deskcolor="#d1d1d1"
     inkscape:zoom="0.35048075"
     inkscape:cx="693.33337"
     inkscape:cy="512.15367"
     inkscape:window-width="1600"
     inkscape:window-height="837"
     inkscape:window-x="-8"
     inkscape:window-y="-8"
     inkscape:window-maximized="1"
     inkscape:current-layer="g1" />
  <g
     inkscape:groupmode="layer"
     inkscape:label="Image"
     id="g1">
    <path
       style="fill:#000000"
       d="m 692.60977,1021.2412 c -0.48454,-0.784 -1.37141,-8.434 -1.97081,-17 -0.59941,-8.56597 -2.64207,-24.27451 -4.53925,-34.90785 -1.89719,-10.63333 -3.76961,-21.26567 -4.16094,-23.62742 -0.97834,-5.90446 -6.08227,-11.54751 -15.36499,-16.98797 -6.19299,-3.62961 -9.73288,-4.73439 -16.87219,-5.26571 -14.00554,-1.04232 -88.78881,-8.75731 -91.03489,-9.39158 -1.1,-0.31063 -7.1,-0.92122 -13.33333,-1.35687 -26.024,-1.81882 -82.3945,-9.50636 -84.60001,-11.53735 -0.69667,-0.64154 -2.50353,-1.16643 -4.01525,-1.16643 -4.61735,0 -15.80373,-8.3207 -20.38475,-15.16267 -7.85052,-11.72512 -5.0396,-25.48975 7.62438,-37.33543 12.15898,-11.37329 32.66953,-19.8259 89.37562,-36.83261 7.70001,-2.3093 37.40001,-11.68044 66.00001,-20.82475 60.97512,-19.49565 58.8269,-18.25866 57.51698,-33.11935 -1.24515,-14.12597 -6.08687,-65.87699 -6.80402,-72.7252 -1.70785,-16.30867 -2.09768,-20.72533 -3.41283,-38.66666 -0.77946,-10.63334 -1.64362,-20.23334 -1.92037,-21.33334 -0.27674,-1.1 -0.90276,-8.3 -1.39116,-16 -0.48839,-7.7 -1.40784,-20 -2.04322,-27.33333 -0.63537,-7.33334 -1.84246,-25.33334 -2.68242,-40 l -1.52719,-26.66667 -5.85852,-12.14215 c -8.95205,-18.55368 -13.55566,-22.40024 -29.21058,-24.40699 -40.35814,-5.17337 -76.73746,-10.23932 -116.00001,-16.15342 -82.11122,-12.36839 -90.38182,-13.43937 -97.43893,-12.61767 -7.77409,0.90519 -31.77791,-2.77181 -35.95297,-5.50742 -1.4998,-0.9827 -19.20018,-4.17232 -39.33418,-7.08804 -20.134,-2.91571 -55.20727,-8.04881 -77.9406,-11.40688 -22.73334,-3.35807 -55.43334,-8.16825 -72.66667,-10.68929 C 107.77447,405.95805 94.497696,402.91308 66.818625,392.00579 21.699578,374.22605 2.0519795,352.79992 2.0125354,321.33334 1.9871521,301.08381 7.3954426,289.84489 23.350401,276.9913 c 18.199175,-14.66158 55.045134,-27.14264 93.316269,-31.6096 6.6,-0.77035 14.27487,-1.75331 17.05525,-2.18436 l 5.05525,-0.78373 -0.17686,-21.97408 c -0.0973,-12.08574 0.17786,-22.3288 0.61142,-22.76236 0.43355,-0.43355 0.78828,-9.08828 0.78828,-19.23272 0,-14.53249 0.37915,-18.44445 1.78766,-18.44445 1.41303,0 1.97119,6.07748 2.6634,29 0.48165,15.95 0.8772,34.60387 0.879,41.45303 l 0.003,12.45303 11.66667,-0.87073 c 6.41667,-0.47889 16.16667,-1.40937 21.66667,-2.06772 5.5,-0.65835 28.9,-2.75389 52,-4.65676 23.1,-1.90286 55.2,-4.65164 71.33334,-6.10839 35.1616,-3.17489 70.0391,-6.01875 96.52772,-7.87071 10.70976,-0.74878 25.17228,-1.91945 32.13895,-2.60149 14.16161,-1.38644 22.86062,-2.10512 50,-4.13084 10.26667,-0.76631 27.66667,-2.25453 38.66667,-3.30714 11,-1.05261 26.30001,-2.23915 34.00001,-2.63675 7.7,-0.3976 18.2,-1.27044 23.33333,-1.93965 5.13333,-0.66921 15.93333,-1.57229 24,-2.00684 8.06667,-0.43456 17.18481,-1.13521 20.26253,-1.55701 l 5.59586,-0.76691 -0.10996,-11.65461 c -0.0605,-6.41003 0.51517,-12.77164 1.27922,-14.13691 1.05822,-1.89094 0.88652,-2.84986 -0.72072,-4.0251 -1.84665,-1.3503 -2.12217,-7.01306 -2.2084,-45.38897 -0.0961,-42.757058 -0.0255,-43.982788 2.84301,-49.345141 5.80741,-10.856456 14.09392,-15.146552 29.28275,-15.160285 12.39192,-0.0112 12.44238,-0.05806 12.44238,-11.553547 0,-23.749213 8.27886,-43.1115378 20.80203,-48.6511327 6.6126,-2.92506575 11.10199,-2.34386466 17.26201,2.234757 8.90638,6.6199447 17.52255,32.3423617 16.33465,48.7649267 -0.62462,8.6353 -0.0637,9.137116 10.26798,9.18679 12.221,0.05876 20.56498,5.494737 25.5991,16.677437 2.11777,4.704372 2.45027,10.336797 2.81949,47.760655 0.30157,30.5667 -0.0101,42.94383 -1.11479,44.27493 -0.84335,1.01618 -1.10117,2.54692 -0.57293,3.40163 0.52824,0.85471 1.3299,7.61509 1.78146,15.02305 l 0.82101,13.46902 25.33333,2.31814 c 13.93334,1.27497 33.43334,2.94104 43.33334,3.70236 9.9,0.76133 23.4,1.96382 30,2.67222 6.6,0.70839 19.8,1.93954 29.33334,2.73588 9.53333,0.79634 20.03333,1.68438 23.33333,1.97343 3.3,0.28904 10.2,0.89186 15.33333,1.33959 5.13334,0.44772 13.53334,1.37194 18.66667,2.0538 5.13334,0.68187 15.06267,1.51899 22.06519,1.86026 13.21837,0.64421 34.59569,2.47216 55.26819,4.7259 6.6,0.71955 22.5,2.23489 35.3333,3.36743 12.8333,1.13255 27.8333,2.63344 33.3333,3.33532 9.805,1.25125 46.3356,4.72604 91.3334,8.68762 12.4666,1.09756 27.4666,2.5499 33.3333,3.22742 5.8667,0.67752 15.7667,1.61432 22,2.08177 11.0808,0.83097 37.3789,3.91742 46.6667,5.477 8.4351,1.4164 36.5182,8.6602 44,11.34945 30.8289,11.08111 49.0595,28.82388 53.2548,51.8298 1.3277,7.28103 1.2279,10.37206 -0.6247,19.33333 -4.8554,23.48603 -15.1212,36.18542 -40.6301,50.2616 -7.8795,4.34801 -34.2062,14.78076 -46,18.22886 -10.2557,2.9984 -38.4621,8.7291 -50,10.15849 -4.0334,0.49968 -30.1334,4.15258 -58,8.11755 -57.2492,8.14561 -110.9667,15.61571 -134.6667,18.72707 -9.1265,1.19814 -17.432,3.02642 -19.3333,4.25585 -4.5484,2.94098 -30.6085,6.8438 -34.4003,5.15185 -2.94013,-1.31192 -23.12393,0.97149 -68.93308,7.79846 -11.73333,1.74862 -34.83333,5.02966 -51.33333,7.29119 -16.50001,2.26154 -37.20001,5.21275 -46.00001,6.55826 -8.8,1.34552 -17.8,2.51118 -20,2.59037 -7.88333,0.28376 -36.07468,4.42699 -39.81068,5.8509 -4.96786,1.89342 -13.39692,12.65383 -18.18607,23.21609 -4.27071,9.41884 -5.25146,17.17632 -8.73944,69.1268 -3.00661,44.78083 -12.65293,155.46847 -15.48103,177.63862 -1.75165,13.73151 -0.93488,17.33806 4.77358,21.07838 1.83945,1.20526 15.81677,6.05494 31.06072,10.77708 67.96637,21.05404 92.77478,28.50592 94.90036,28.50592 1.25541,0 2.85256,0.51079 3.54923,1.13508 0.69667,0.62429 5.16667,2.16848 9.93333,3.43152 21.8294,5.78422 41.6217,13.06218 55.35715,20.35573 18.53758,9.8435 28.39324,25.35485 24.78394,39.00627 -4.58902,17.35699 -19.03108,24.55306 -60.14108,29.96662 -8.43334,1.11055 -19.83334,2.63853 -25.33334,3.39551 -5.5,0.75699 -12.4,1.62844 -15.33333,1.93656 -2.93334,0.30811 -10.43334,1.18969 -16.66667,1.95905 -6.23333,0.76936 -20.63334,2.32439 -32,3.45561 -19.32045,1.92279 -59.57418,6.48565 -71.1102,8.06051 -6.61616,0.90322 -16.8338,6.11333 -21.87464,11.15417 -5.23113,5.23114 -9.61258,14.76658 -11.03398,24.01349 -3.30955,21.53031 -3.99102,27.64356 -4.77878,42.8686 -0.47224,9.1271 -1.40709,17.6446 -2.07743,18.928 -1.38096,2.6437 -3.21455,3.0124 -4.51525,0.9078 z"
       id="path1" />
  </g>
</svg>
