<?xml version="1.0" encoding="UTF-8" standalone="no"?>
<!-- Created with Inkscape (http://www.inkscape.org/) -->

<svg
   version="1.1"
   id="svg1"
   width="1386.6667"
   height="1154.6667"
   viewBox="0 0 1386.6667 1154.6667"
   sodipodi:docname="FBnk44-Yak9.svg"
   inkscape:version="1.3.2 (091e20e, 2023-11-25, custom)"
   xmlns:inkscape="http://www.inkscape.org/namespaces/inkscape"
   xmlns:sodipodi="http://sodipodi.sourceforge.net/DTD/sodipodi-0.dtd"
   xmlns="http://www.w3.org/2000/svg"
   xmlns:svg="http://www.w3.org/2000/svg">
  <defs
     id="defs1" />
  <sodipodi:namedview
     id="namedview1"
     pagecolor="#ffffff"
     bordercolor="#000000"
     borderopacity="0.25"
     inkscape:showpageshadow="2"
     inkscape:pageopacity="0.0"
     inkscape:pagecheckerboard="0"
     inkscape:deskcolor="#d1d1d1"
     inkscape:zoom="0.35048075"
     inkscape:cx="693.33337"
     inkscape:cy="577.77781"
     inkscape:window-width="1600"
     inkscape:window-height="837"
     inkscape:window-x="-8"
     inkscape:window-y="-8"
     inkscape:window-maximized="1"
     inkscape:current-layer="g1" />
  <g
     inkscape:groupmode="layer"
     inkscape:label="Image"
     id="g1">
    <path
       style="fill:#000000"
       d="m 691.39462,1151.0564 c -1.29368,-3.31 -7.07601,-35.8136 -10.62464,-59.723 -3.38873,-22.8321 -3.4893,-23.3333 -4.68197,-23.3333 -0.61849,0 -1.52799,2.1506 -2.0211,4.7791 -1.24155,6.6181 -12.68617,18.0957 -21.21769,21.279 -6.99918,2.6115 -13.96837,2.1789 -42.84918,-2.66 -6.6,-1.1059 -19.80001,-3.2132 -29.33334,-4.683 -66.46423,-10.2471 -75.29622,-12.3605 -96,-22.9718 -14.16954,-7.2623 -20.58308,-15.2788 -23.04046,-28.799 -0.99664,-5.4834 -0.78649,-8.3684 1.01125,-13.883 3.43289,-10.5304 15.19032,-22.62163 24.69587,-25.397 1.46667,-0.42822 8.66667,-2.97437 16,-5.6581 16.7613,-6.13403 47.15939,-17.01302 62.00001,-22.18882 6.23333,-2.17393 12.53333,-4.46795 14,-5.09783 1.46666,-0.62988 11.06666,-4.13909 21.33333,-7.79826 43.81967,-15.61786 54.30609,-19.51783 56.19568,-20.89953 1.71419,-1.25344 1.79509,-3.26562 0.56592,-14.07549 -8.93676,-78.59404 -16.77188,-168.4185 -19.99937,-229.27965 -2.38079,-44.89487 -2.76507,-47.02244 -10.29558,-57.00141 -4.1457,-5.49362 -8.28978,-7.57653 -19.13331,-9.61686 -4.76667,-0.89691 -12.86667,-2.48556 -18.00001,-3.53034 -5.13333,-1.04478 -15.63333,-3.12252 -23.33333,-4.6172 -23.64483,-4.58978 -42.30954,-8.38044 -62,-12.59173 -5.86667,-1.25473 -16.66667,-3.44372 -24.00001,-4.86442 -14.24197,-2.75911 -25.93053,-5.09384 -42,-8.38927 -5.5,-1.12791 -16.3,-3.28445 -24,-4.79231 -18.02918,-3.53059 -30.3612,-6.0087 -42,-8.43989 -5.13334,-1.07229 -14.43334,-2.89432 -20.66667,-4.04897 -6.23333,-1.15465 -14.24659,-2.83086 -17.80723,-3.72491 -5.86322,-1.47222 -6.64492,-1.39166 -8.28694,0.85393 -1.9659,2.68852 -2.347,2.65335 -28.23917,-2.60631 -7.29387,-1.48165 -24.72228,-4.82382 -30.73033,-5.89301 -0.21835,-0.0388 -1.86048,-1.64977 -3.64919,-3.57982 -1.90317,-2.05355 -5.60999,-3.99117 -8.93633,-4.67117 -16.02021,-3.27498 -26.58228,-5.46727 -35.01748,-7.2683 -5.13334,-1.09603 -15.33334,-3.15579 -22.66667,-4.57724 -15.25047,-2.95606 -30.51455,-6.02063 -44,-8.83388 -5.13334,-1.07089 -14.01053,-2.78653 -19.7271,-3.81253 -5.71657,-1.02601 -12.31657,-2.46107 -14.66667,-3.18902 C 99.413518,519.63031 93.907118,517.67322 83.621526,513.15625 57.200098,501.55313 36.64396,488.16042 21.057155,472.39438 2.2077701,453.32824 -3.4112182,435.90418 4.7814107,421.92452 12.195862,409.27271 29.745421,397.32849 53.323915,388.88651 c 17.792239,-6.37028 20.872847,-7.25629 30.67609,-8.82273 4.766667,-0.76166 12.566667,-2.18991 17.333335,-3.1739 l 8.66667,-1.78906 0.66666,-46.5504 c 0.57562,-40.19295 0.93981,-46.5504 2.66667,-46.5504 1.72625,0 2.09125,6.2963 2.66667,46 0.6528,45.04321 0.72213,45.9924 3.33333,45.63421 1.46667,-0.20118 7.76667,-1.27368 14,-2.38331 6.23333,-1.10964 16.13334,-2.83362 22,-3.83107 23.03044,-3.91564 50.5434,-8.73715 76.66667,-13.43544 5.5,-0.98918 17.2,-3.04125 26.00001,-4.56015 21.82138,-3.76643 37.97079,-6.61389 50.66666,-8.93353 5.86667,-1.07189 15.46667,-2.78077 21.33334,-3.79752 5.86667,-1.01675 17.86667,-3.11637 26.66667,-4.66583 8.8,-1.54945 20.8,-3.66139 26.66667,-4.69318 5.86666,-1.0318 15.46666,-2.75609 21.33333,-3.83175 5.86667,-1.07567 18.46667,-3.25176 28,-4.83576 37.82586,-6.28491 68.93885,-12.51442 80.00001,-16.01778 2.2,-0.6968 8.2,-2.5386 13.33333,-4.09289 5.13333,-1.55429 10.53333,-3.28499 12,-3.84599 1.46667,-0.561 6.26667,-2.35038 10.66667,-3.97639 4.4,-1.62601 15.0049,-5.97312 23.56645,-9.66025 12.80883,-5.51627 15.84199,-7.36908 17.12184,-10.4589 2.34042,-5.65027 5.12957,-7.53585 14.64505,-9.90066 4.76666,-1.18462 12.41666,-3.07882 17,-4.20934 8.93444,-2.20376 10.31591,-3.8167 5,-5.83781 -1.83334,-0.69703 -3.33334,-1.60608 -3.33334,-2.02011 0,-1.54054 5.34464,-11.16283 6.64762,-11.96811 2.40234,-1.48473 1.43866,-6.96257 -1.57716,-8.96499 l -2.92954,-1.94515 3.59621,-7.35038 c 4.3021,-8.79317 4.55937,-12.5992 0.92954,-13.75126 -3.47417,-1.10266 -3.3552,-2.85991 0.63189,-9.33333 4.09511,-6.64881 4.38526,-12.16414 0.70144,-13.33334 -3.86962,-1.22817 -3.19635,-4.03431 3,-12.50368 2.86062,-3.90998 3.03461,-9.31091 0.33334,-10.34748 -2.77327,-1.06421 -2.44946,-5.83177 0.66666,-9.81551 2.84975,-3.64319 3.42383,-7.37467 1.33334,-8.66666 -2.25142,-1.39145 -1.48067,-6.7867 1.33333,-9.33334 1.46667,-1.32731 2.66667,-3.02306 2.66667,-3.76833 0,-0.74526 0.8435,-2.30227 1.87445,-3.46001 1.03096,-1.15775 2.50339,-5.70499 3.27208,-10.10499 0.76869,-4.4 2.35266,-12.8 3.51994,-18.66667 1.16728,-5.866667 2.64477,-14.866668 3.28332,-20.000001 3.13333,-25.188979 10.95601,-42.290591 27.81763,-60.813726 4.26547,-4.6857868 8.14394,-9.5696127 8.61881,-10.8529461 1.86692,-5.045271 6.72607,-2.5083946 16.28044,8.4997291 16.0925,18.541061 25.14655,35.436962 26.87627,50.154195 0.45817,3.89825 1.34843,7.406266 1.97838,7.795593 0.62994,0.389326 1.17148,3.222456 1.20342,6.295844 0.0319,3.073388 0.66987,8.287978 1.41762,11.587978 0.74776,3.3 2.4053,12.000004 3.68343,19.333334 2.41595,13.86167 3.77889,17.44567 9.03897,23.76897 3.5808,4.30459 4.05926,8.25782 1.13524,9.37987 -2.5399,0.97465 -2.57411,4.04818 -0.0682,6.12789 1.06249,0.88179 2.63691,3.73976 3.49871,6.35104 1.33926,4.058 1.25231,4.92386 -0.59846,5.9596 -3.00881,1.68382 -2.71204,4.74028 1.16795,12.02884 3.83403,7.20219 4.15093,9.78475 1.33334,10.86596 -2.61113,1.00199 -2.62163,8.62098 -0.0158,11.50034 1.09129,1.20586 2.35523,4.04778 2.80875,6.31537 0.65589,3.27945 0.27458,4.41725 -1.86391,5.56173 -3.2197,1.72313 -2.80194,4.69855 1.93802,13.80317 3.32526,6.38723 3.24416,9.0039 -0.27904,9.0039 -2.87575,0 -2.39319,7.04049 0.75705,11.04537 1.47311,1.87275 3.04811,5.25366 3.5,7.51315 0.70563,3.52812 0.43271,4.10814 -1.93301,4.10814 -1.51505,0 -3.06958,0.50958 -3.45449,1.13239 -0.9157,1.48163 3.72315,3.71237 11.20914,5.39028 23.81909,5.33881 27.03948,6.80214 28.59319,12.99263 0.65133,2.59511 3.36757,4.49166 12.45325,8.69518 16.23614,7.51171 18.48833,8.44788 28.28689,11.75807 4.76667,1.6103 9.58636,3.39984 10.71043,3.97676 1.12407,0.57692 4.12407,1.49453 6.66667,2.03912 2.5426,0.54459 5.2229,1.44033 5.95624,1.99053 0.73333,0.5502 7.93333,2.6016 16,4.55866 8.06667,1.95706 16.76667,4.1434 19.33333,4.85855 2.56667,0.71514 8.26667,1.92289 12.66667,2.68389 4.4,0.761 12.5,2.21202 18,3.22448 10.10545,1.86025 34.41248,6.11768 54,9.45821 5.86667,1.00052 15.46667,2.69711 21.33338,3.77018 5.8666,1.07308 16.3666,2.87525 23.3333,4.00483 6.9667,1.12958 14.1667,2.42972 16,2.8892 1.8333,0.45948 8.7333,1.72838 15.3333,2.81977 6.6,1.09139 16.8,2.86135 22.6667,3.93324 16.9532,3.09749 30.7576,5.52194 48.6667,8.54729 9.1666,1.54851 21.4666,3.69735 27.3333,4.7752 16.1734,2.97145 30.2771,5.45163 48.6667,8.55814 9.1666,1.5485 21.4666,3.69734 27.3333,4.77519 10.9796,2.01722 23.5655,4.25893 43.3333,7.7182 40.5507,7.09615 46.741,8.61824 64.4962,15.85849 20.0512,8.17648 36.9362,20.78222 43.209,32.2582 3.584,6.55695 2.7024,18.90817 -2.0789,29.12572 -9.0843,19.4127 -44.5576,47.36822 -76.2929,60.12437 -4.7667,1.91598 -9.7085,4.06852 -10.9819,4.78343 -1.2734,0.7149 -2.9827,1.29982 -3.7985,1.29982 -0.8158,0 -3.374,0.87893 -5.6848,1.95318 -5.8375,2.7137 -16.0809,5.14633 -50.8682,12.08028 -5.1333,1.02319 -13.8333,2.7951 -19.3333,3.93755 -5.5,1.14246 -16.3,3.30012 -24,4.79479 -16.4701,3.19707 -28.8832,5.6787 -42.6667,8.52994 -5.5,1.13772 -12.2708,2.44341 -15.0462,2.90152 -2.7912,0.46072 -6.0682,2.11498 -7.3333,3.70195 -2.8097,3.52459 -7.6771,5.44104 -18.9538,7.46271 -4.7667,0.85456 -12.8667,2.42944 -18,3.49973 -23.8015,4.96254 -24.51,5.02679 -27.3265,2.47788 -2.2834,-2.06642 -3.3436,-2.169 -8.312,-0.80427 -3.1322,0.86033 -10.7948,2.4581 -17.0282,3.55059 -11.041,1.93511 -19.5076,3.59423 -39.99997,7.83837 -11.00337,2.27888 -32.81854,6.58675 -47.33334,9.34695 -5.13333,0.97618 -9.33333,1.90416 -9.33333,2.06217 0,0.15801 -4.20001,1.08488 -9.33334,2.0597 -17.06409,3.24047 -37.21205,7.20024 -47.33333,9.30263 -5.50001,1.14246 -14.20001,2.92025 -19.33334,3.95066 -5.13333,1.03041 -13.53333,2.75681 -18.66667,3.83644 -5.13333,1.07963 -15.93333,3.26239 -24,4.85057 -8.06667,1.58819 -18.56667,3.68188 -23.33333,4.65265 -4.76667,0.97076 -12.56667,2.49198 -17.33334,3.38048 -12.32362,2.2971 -18.2873,5.97355 -22.19322,13.68152 -4.87854,9.62733 -5.91506,16.36573 -7.22228,46.95202 -0.65818,15.40001 -1.79765,32.80001 -2.53215,38.66667 -0.7345,5.86667 -1.9385,20.26667 -2.67556,32.00001 -2.53998,40.43444 -7.77412,97.90254 -12.75108,140.00001 -1.21377,10.26666 -2.49798,23.00169 -2.85379,28.30005 l -0.64694,9.63338 5.77084,2.54798 c 12.10198,5.34333 15.9068,6.85192 17.28124,6.85192 0.78096,0 3.31061,0.85268 5.62144,1.89484 2.31082,1.04217 8.7015,3.42435 14.2015,5.29375 5.5,1.86939 16,5.55795 23.33334,8.19679 7.33333,2.63884 19.03333,6.801 26,9.24926 6.96667,2.44826 18.66667,6.62959 26,9.29185 7.33333,2.66226 16.63333,5.9784 20.66667,7.3692 37.32993,12.87231 47.95669,18.87118 54.6032,30.82398 2.66256,4.7882 3.26752,7.7376 3.25724,15.8803 -0.0144,11.416 -1.46267,14.8186 -10.10155,23.7327 -10.14822,10.4715 -34.13605,20.3409 -59.21211,24.3618 -5.0674,0.8125 -14.31345,2.2972 -20.54678,3.2993 -6.23334,1.0022 -19.43334,3.0859 -29.33334,4.6306 -19.23373,3.0009 -35.33597,5.6144 -49.33334,8.0071 -20.64196,3.5286 -34.44341,-2.467 -42.20702,-18.3352 -1.91535,-3.9149 -3.811,-6.7893 -4.21256,-6.3878 -0.40156,0.4016 -1.16969,3.5714 -1.70696,7.0442 -1.57092,10.1539 -5.02507,30.6941 -7.34002,43.6473 -1.17952,6.6 -2.84841,16.4555 -3.70865,21.901 -1.55185,9.8237 -3.63546,13.0808 -5.43021,8.4887 z"
       id="path1" />
  </g>
</svg>
