<?xml version="1.0" encoding="UTF-8" standalone="no"?>
<!-- Created with Inkscape (http://www.inkscape.org/) -->

<svg
   version="1.1"
   id="svg1"
   width="1386.6667"
   height="1229.3333"
   viewBox="0 0 1386.6667 1229.3333"
   sodipodi:docname="FBru43.svg"
   inkscape:version="1.3.2 (091e20e, 2023-11-25, custom)"
   xmlns:inkscape="http://www.inkscape.org/namespaces/inkscape"
   xmlns:sodipodi="http://sodipodi.sourceforge.net/DTD/sodipodi-0.dtd"
   xmlns="http://www.w3.org/2000/svg"
   xmlns:svg="http://www.w3.org/2000/svg">
  <defs
     id="defs1" />
  <sodipodi:namedview
     id="namedview1"
     pagecolor="#ffffff"
     bordercolor="#000000"
     borderopacity="0.25"
     inkscape:showpageshadow="2"
     inkscape:pageopacity="0.0"
     inkscape:pagecheckerboard="0"
     inkscape:deskcolor="#d1d1d1"
     inkscape:zoom="0.35048075"
     inkscape:cx="693.33337"
     inkscape:cy="614.86972"
     inkscape:window-width="1600"
     inkscape:window-height="837"
     inkscape:window-x="-8"
     inkscape:window-y="-8"
     inkscape:window-maximized="1"
     inkscape:current-layer="g1" />
  <g
     inkscape:groupmode="layer"
     inkscape:label="Image"
     id="g1">
    <path
       style="fill:#000000"
       d="m 690.58976,1226.3333 c -0.15797,-3.4216 -2.76836,-32.7386 -3.88808,-43.6667 -0.63869,-6.2333 -2.08139,-23.0333 -3.20601,-37.3333 -1.12463,-14.3 -2.07121,-26.15 -2.10353,-26.3334 -0.0323,-0.1833 -0.65877,-0.3333 -1.3921,-0.3333 -0.73333,0 -1.32141,3.15 -1.30684,7 0.0191,5.0391 -1.56376,11.2159 -5.65046,22.0501 -5.51286,14.615 -9.59544,21.0112 -15.39086,24.1128 -3.40405,1.8218 -51.48252,1.899 -68.31851,0.1098 -17.30557,-1.8392 -46.37918,-6.8395 -53.33334,-9.1728 -1.83333,-0.6151 -6.93333,-2.1848 -11.33333,-3.4881 -38.05204,-11.2716 -54.41593,-20.094 -64.77622,-34.9234 -13.23098,-18.9385 -11.5279,-35.8255 5.26169,-52.1725 6.04441,-5.8851 12.60109,-9.904 33.51453,-20.5428 75.66559,-38.4914 127.96965,-65.3544 149,-76.52539 l 13.66667,-7.25951 -0.0647,-7.5941 c -0.0614,-7.20556 -1.28432,-21.11781 -3.94914,-44.92743 -0.65661,-5.86666 -2.13547,-20.56666 -3.28634,-32.66666 -1.15087,-12.1 -2.99192,-31.3 -4.09122,-42.66667 -1.0993,-11.36666 -2.85654,-29.66666 -3.90499,-40.66666 -5.30714,-55.68073 -6.32971,-66.05882 -7.35708,-74.66666 -0.61267,-5.13333 -2.07808,-19.53333 -3.25647,-32 -3.26269,-34.51747 -3.57764,-36.14608 -7.86561,-40.67246 -3.97001,-4.19075 -17.88778,-12.42577 -23.55774,-13.93891 -1.83334,-0.48926 -4.53334,-1.40064 -6,-2.02528 -1.46667,-0.62465 -5.06667,-1.73281 -8.00001,-2.46258 -2.93333,-0.72977 -8.93333,-2.34548 -13.33333,-3.59046 -12.00754,-3.39755 -16.60712,-4.63426 -24.66667,-6.63224 -4.03333,-0.99987 -10.63333,-2.69989 -14.66667,-3.77782 -4.03333,-1.07792 -12.43333,-3.25603 -18.66666,-4.84023 -6.23334,-1.5842 -12.53334,-3.4108 -14,-4.0591 -1.46667,-0.64831 -5.66667,-1.84626 -9.33334,-2.66212 -10.56318,-2.35039 -31.23182,-7.70064 -41.33333,-10.69947 -5.91237,-1.75521 -18.98369,-5.24907 -27.33334,-7.30599 -8.22661,-2.02661 -20.96594,-5.42888 -28,-7.47791 -2.56667,-0.74767 -7.96667,-2.18975 -12,-3.20461 -4.03333,-1.01486 -10.63333,-2.73164 -14.66667,-3.81507 -4.03333,-1.08343 -13.33333,-3.56442 -20.66667,-5.51331 -7.33333,-1.94889 -16.63333,-4.4367 -20.66666,-5.52847 -4.03334,-1.09177 -10.03334,-2.57703 -13.33334,-3.30058 -3.3,-0.72356 -7.2,-1.84558 -8.66667,-2.49338 -1.46666,-0.6478 -5.36666,-1.76982 -8.66666,-2.49338 -6.66429,-1.4612 -19.50329,-4.85897 -26.66667,-7.05718 -2.56667,-0.78762 -6.31667,-1.36096 -8.33333,-1.27408 -2.01667,0.0869 -5.31667,0.22213 -7.33334,0.30054 -2.01666,0.0784 -7.26667,-0.86512 -11.66667,-2.09673 -4.4,-1.2316 -11.3,-3.05223 -15.33333,-4.04584 -4.03333,-0.9936 -10.93333,-2.79242 -15.33333,-3.99737 -4.4,-1.20495 -9.52943,-2.49888 -11.39873,-2.8754 -1.8693,-0.37651 -3.9693,-1.97142 -4.66666,-3.54423 -0.88956,-2.00626 -3.0585,-3.18411 -7.26795,-3.9469 -3.3,-0.59798 -7.2,-1.62575 -8.66667,-2.28392 -1.46666,-0.65816 -5.36666,-1.7938 -8.66666,-2.52362 -3.3,-0.72983 -8.1,-1.93816 -10.66667,-2.68517 -5.23871,-1.5247 -12.1292,-3.37457 -35.33334,-9.48583 -28.0244,-7.38078 -32.48979,-8.70809 -45.999998,-13.67326 C 70.380586,492.46896 51.962295,483.24503 43.132517,477.18545 40.088734,475.0966 33.015981,468.42534 27.41529,462.36042 8.9229214,442.33528 0.32457455,419.25001 1.6961619,393.30844 2.1570185,384.592 3.1371884,380.17357 5.9103672,374.31156 10.648658,364.29563 20.96525,353.1149 28.2461,350.10494 c 3.164646,-1.30829 6.715718,-2.86713 7.89127,-3.46409 1.175552,-0.59695 5.075552,-1.51181 8.666667,-2.03301 3.591115,-0.5212 7.129299,-1.32119 7.862633,-1.77775 0.733333,-0.45656 9.433334,-1.52734 19.333334,-2.37951 21.616766,-1.86073 59.746846,-5.59524 72.666676,-7.11707 11.71907,-1.38039 47.31964,-4.99735 72.66667,-7.38281 32.32813,-3.04247 60.03181,-5.8165 72.66667,-7.27628 12.73308,-1.47114 38.7153,-4.10509 72.66667,-7.36661 87.94746,-8.44863 83.46153,-7.86366 112.66667,-14.69201 8.16573,-1.90921 22.43063,-5.14706 32,-7.26339 2.93334,-0.64872 8.93334,-2.17289 13.33334,-3.38704 4.4,-1.21414 11.9,-3.07421 16.66666,-4.13347 4.76667,-1.05926 11.06667,-2.46244 14.00001,-3.11818 3.86808,-0.8647 5.80877,-0.72957 7.06389,0.49185 1.73979,1.69309 9.52574,0.50262 21.03077,-3.2156 2.25207,-0.72783 5.06163,-1.32332 6.24348,-1.32332 1.18186,0 2.51995,-1.16931 2.97354,-2.59846 0.83666,-2.63609 1.95855,-3.1859 9.66319,-4.73575 l 4.30821,-0.86664 0.39842,-63.56624 c 0.38834,-61.95732 1.47336,-79.68358 5.11103,-83.49957 0.66411,-0.69666 1.20747,-2.33465 1.20747,-3.63997 0,-4.06057 11.82953,-29.612296 16.11816,-34.815151 l 4.07598,-4.944874 12.42955,0 12.42955,0 0.7312,-5 c 1.29016,-8.822157 2.525,-14.298584 3.53256,-15.666665 0.54008,-0.733334 1.40891,-3.113948 1.93074,-5.290255 2.47712,-10.331056 12.40458,-26.884419 22.81537,-38.043076 2.39464,-2.5666663 4.56499,-5.8666661 4.82298,-7.3333326 0.71048,-4.03894616 8.55901,-4.51550772 9.80325,-0.5952518 0.50449,1.5895207 2.85548,5.0737107 5.22442,7.7426444 10.49923,11.828818 19.92036,27.415793 22.67754,37.519271 0.5003,1.833333 1.39174,4.533333 1.98098,6 1.58806,3.952831 4.09439,14.983015 4.09439,18.019133 0,2.453314 0.91908,2.647532 12.52855,2.647532 12.5248,0 12.5297,0.0013 16.42325,4.435824 6.22423,7.089005 17.10896,31.255661 20.66793,45.887631 1.02885,4.2299 1.69422,28.64712 1.99715,73.28946 l 0.45427,66.94625 4.96443,0.8243 c 7.46793,1.23997 8.49234,1.73926 9.21157,4.48961 0.36359,1.39034 2.25517,2.8555 4.20675,3.25842 15.6184,3.22453 21.37853,4.60755 22.76887,5.46682 0.88657,0.54793 2.62413,0.0868 3.86126,-1.02466 2.39841,-2.15485 3.64792,-2.01438 21.58265,2.42633 19.68961,4.87523 34.58997,8.44582 44,10.54378 4.03333,0.89923 8.23333,2.00284 9.33333,2.45246 1.1,0.44962 5.3,1.43361 9.33334,2.18665 4.03333,0.75303 11.53333,2.31804 16.66666,3.47779 9.72282,2.19663 17.32832,3.1383 54.00001,6.68596 60.90744,5.89227 96.90294,9.50277 113.33334,11.36782 5.5,0.62432 19.6,2.07141 31.3333,3.21575 11.7334,1.14435 30.3334,2.95806 41.3334,4.03049 26.8526,2.61793 60.4142,6.02753 72.6666,7.38236 11.0129,1.21777 43.7106,4.48486 72.6667,7.26073 32.3675,3.10289 44.313,7.25736 55.9515,19.45916 4.0931,4.29121 8.9226,10.98254 10.7323,14.86962 2.8962,6.22114 3.2917,8.90987 3.3032,22.45396 0.024,28.90817 -8.6033,48.6376 -30.8637,70.57704 -11.516,11.34995 -28.3593,21.46399 -46.4566,27.8962 -4.7667,1.69419 -9.5667,3.42033 -10.6667,3.83588 -3.4592,1.30676 -13.5438,4.25766 -26.6667,7.80304 -23.1858,6.26407 -27.2814,7.34855 -34.6666,9.17936 -4.0334,0.99987 -9.4334,2.42968 -12,3.17736 -8.4943,2.47438 -20.5802,5.64969 -26.6667,7.00611 -3.3,0.73542 -7.2,2.64837 -8.6667,4.25099 -2.5965,2.83718 -7.7779,4.91977 -18.6666,7.50273 -2.9334,0.69583 -8.9334,2.23558 -13.3334,3.42167 -17.4312,4.69886 -24.1276,6.20379 -27,6.06793 -1.65,-0.078 -4.65,-0.21228 -6.6666,-0.2983 -2.0167,-0.086 -9.6667,1.47949 -17,3.47893 -20.766,5.66187 -27.4289,7.43304 -35.3334,9.39258 -8.1099,2.01047 -12.7835,3.26788 -24.6666,6.6364 -4.4,1.24727 -10.7,2.84676 -14,3.55441 -3.3,0.70765 -7.2,1.81665 -8.6667,2.46446 -1.4667,0.6478 -5.3667,1.76982 -8.6667,2.49337 -3.3,0.72356 -9.3,2.20882 -13.3333,3.30058 -6.79797,1.84012 -23.80063,6.40078 -41.33334,11.08693 -4.03334,1.07804 -9.73334,2.51707 -12.66667,3.19786 -7.52279,1.74595 -15.53844,4.03419 -18.66667,5.32881 -1.46667,0.60698 -5.51667,1.73859 -9,2.51469 -3.48333,0.7761 -9.18333,2.04608 -12.66667,2.82218 -3.48333,0.77609 -7.53333,1.9411 -9,2.58891 -1.46666,0.6478 -5.36666,1.77495 -8.66666,2.50478 -3.3,0.72983 -8.1,1.93815 -10.66667,2.68517 -6.65546,1.93703 -19.44764,5.36532 -28,7.50396 -4.03334,1.0086 -10.63334,2.72025 -14.66667,3.80368 -18.63087,5.0046 -34.53151,9.20312 -40.22312,10.6208 -3.42272,0.85254 -6.67272,1.99967 -7.22223,2.54917 -0.5495,0.54951 -1.9132,0.9991 -3.03045,0.9991 -3.58093,0 -18.99996,8.45584 -24.918,13.66511 -5.58653,4.91745 -5.7458,5.28613 -6.34593,14.68947 -0.65598,10.27825 -4.04446,45.78836 -6.2641,65.64541 -0.73775,6.6 -2.25206,21.6 -3.36513,33.33334 -2.28473,24.08424 -4.98112,52.10456 -7.98714,83.00074 -1.12371,11.54959 -2.91208,30.29925 -3.97415,41.66591 -2.99359,32.03863 -4.35556,44.4916 -5.10387,46.66667 -0.37844,1.1 -1.0624,8.66448 -1.51992,16.80995 l -0.83184,14.80995 29.72627,15.39832 c 37.90555,19.63524 61.95033,32.00114 101.05961,51.97354 17.23333,8.8008 37.33334,19.078 44.66667,22.8382 37.57027,19.2643 45.5995,46.4612 21.43652,72.6105 -3.90333,4.2242 -14.63598,12.2262 -16.39838,12.2262 -0.45549,0 -1.77541,0.7993 -2.93315,1.7763 -2.67582,2.2579 -14.87523,7.4071 -23.10499,9.7523 -3.48334,0.9926 -9.48334,2.7464 -13.33334,3.8972 -19.37251,5.7911 -29.14841,8.0869 -45.66667,10.7244 -21.42519,3.421 -34.1831,4.3253 -62.38496,4.4217 l -27.7183,0.095 -5.31318,-5 c -4.2832,-4.0308 -6.47018,-8.0622 -11.2817,-20.7966 -3.28269,-8.6881 -5.96853,-16.9027 -5.96853,-18.2546 0,-1.942 -2.5,-5.3342 -2.72259,-3.6942 -0.0308,0.2266 -0.99477,12.412 -2.14226,27.0787 -1.14749,14.6667 -2.57706,31.4667 -3.17682,37.3333 -0.59977,5.8667 -1.46796,15.4667 -1.92933,21.3334 -1.18007,15.0054 -1.65063,16.6666 -4.72107,16.6666 -1.45269,0 -2.67589,-0.75 -2.71821,-1.6666 z"
       id="path1" />
  </g>
</svg>
