<?xml version="1.0" encoding="UTF-8" standalone="no"?>
<!-- Created with Inkscape (http://www.inkscape.org/) -->

<svg
   version="1.1"
   id="svg1"
   width="1386.6667"
   height="930.66669"
   viewBox="0 0 1386.6667 930.66669"
   sodipodi:docname="FBru42.svg"
   inkscape:version="1.3.2 (091e20e, 2023-11-25, custom)"
   xmlns:inkscape="http://www.inkscape.org/namespaces/inkscape"
   xmlns:sodipodi="http://sodipodi.sourceforge.net/DTD/sodipodi-0.dtd"
   xmlns="http://www.w3.org/2000/svg"
   xmlns:svg="http://www.w3.org/2000/svg">
  <defs
     id="defs1" />
  <sodipodi:namedview
     id="namedview1"
     pagecolor="#ffffff"
     bordercolor="#000000"
     borderopacity="0.25"
     inkscape:showpageshadow="2"
     inkscape:pageopacity="0.0"
     inkscape:pagecheckerboard="0"
     inkscape:deskcolor="#d1d1d1"
     inkscape:zoom="0.35048075"
     inkscape:cx="693.33337"
     inkscape:cy="466.50208"
     inkscape:window-width="1600"
     inkscape:window-height="837"
     inkscape:window-x="-8"
     inkscape:window-y="-8"
     inkscape:window-maximized="1"
     inkscape:current-layer="g1" />
  <g
     inkscape:groupmode="layer"
     inkscape:label="Image"
     id="g1">
    <path
       style="fill:#000000"
       d="m 691.44634,927.88964 c -0.67964,-2.00317 -1.16312,-6.84329 -3.26671,-32.70321 -1.24431,-15.2966 -1.58363,-16.5956 -6.4434,-24.66667 -5.82409,-9.67264 -12.40286,-22.98757 -12.40286,-25.10248 0,-0.77949 -0.6,-1.41726 -1.33333,-1.41726 -0.81822,0 -1.33333,6.47947 -1.33333,16.77175 v 16.77176 l -10.75954,21.89789 c -14.95617,30.43892 -11.66725,28.5586 -49.95273,28.5586 -16.7533,0 -33.79667,-0.59897 -37.87415,-1.33105 -4.07747,-0.73208 -11.91359,-1.89614 -17.41359,-2.5868 -14.84905,-1.86467 -40.66633,-7.11693 -46,-9.35824 -1.46667,-0.61632 -6.86667,-2.44901 -12,-4.07264 -22.06048,-6.97753 -48.85938,-22.94862 -58.25598,-34.71828 -4.69563,-5.88148 -9.07736,-17.593 -9.07736,-24.26203 0,-13.79284 14.033,-28.99857 40,-43.34276 4.03333,-2.22801 12.63065,-7.11332 19.10516,-10.85624 6.4745,-3.74291 11.97492,-6.8053 12.22316,-6.8053 0.48125,0 19.97854,-11.17241 23.33835,-13.37343 1.1,-0.72061 2.9,-1.7179 4,-2.21619 1.1,-0.49829 6.9107,-3.79447 12.91267,-7.32485 6.00196,-3.53037 11.20308,-6.41886 11.55802,-6.41886 0.35495,0 6.74314,-3.6 14.19598,-8 7.45284,-4.4 13.78445,-8 14.07024,-8 0.2858,0 5.08649,-2.7 10.6682,-6 5.58171,-3.3 10.4137,-6 10.73775,-6 0.32404,0 4.50126,-2.47071 9.2827,-5.49046 10.15501,-6.41347 16.45018,-15.13975 19.96902,-27.6808 2.41411,-8.60384 2.2814,-11.72841 -1.36602,-32.16208 -1.11266,-6.23333 -2.91153,-17.03333 -3.9975,-24 -3.28922,-21.10097 -3.95905,-23.35841 -12.14106,-40.91743 -1.77283,-3.80459 -3.22333,-7.30722 -3.22333,-7.78363 0,-0.47641 -3.04978,-8.16356 -6.77728,-17.08257 -3.72751,-8.919 -9.38686,-22.51637 -12.57634,-30.21637 -20.67784,-49.92024 -22.33878,-53.44429 -28.32944,-60.10735 -10.27862,-11.4323 -21.41489,-17.41773 -37.33616,-20.06714 -4.2061,-0.69992 -12.89745,-2.14699 -19.31412,-3.21571 -23.16445,-3.85813 -36.5494,-6.05334 -48.33333,-7.92693 -13.9422,-2.21675 -30.76708,-4.95328 -48.66667,-7.91552 -6.96667,-1.15293 -20.76667,-3.33633 -30.66667,-4.85199 -9.9,-1.51567 -23.25,-3.61667 -29.66667,-4.66889 -6.41667,-1.05223 -16.91667,-2.75929 -23.33333,-3.79347 -22.28088,-3.59103 -38.39935,-6.23191 -50.33334,-8.24668 -6.6,-1.11426 -17.4,-2.87444 -24,-3.91153 -19.10445,-3.00196 -35.02887,-5.59818 -48.66667,-7.93434 -6.96667,-1.19339 -18.36667,-3.00029 -25.33334,-4.01534 -28.65742,-4.17541 -57.45618,-11.78478 -78.000001,-20.60961 -47.148583,-20.25319 -79.931431,-50.91336 -90.8415419,-84.95957 -2.9306759,-9.1455 -3.64438973,-42.60796 -0.9790938,-45.9048 0.8319868,-1.02912 1.9283508,-3.81517 2.4363645,-6.19122 1.3990627,-6.5436 12.6443392,-22.72901 21.8337102,-31.42542 9.901207,-9.37006 25.947899,-17.29728 39.550559,-19.53837 5.133334,-0.84574 19.833335,-2.4291 32.666673,-3.51857 25.24752,-2.14338 56.27723,-4.83123 90,-7.79597 11.73334,-1.03154 36.63334,-3.15106 55.33334,-4.71004 50.36235,-4.19862 88.19993,-7.50249 146.00001,-12.74832 13.2,-1.19801 33.18757,-2.87533 44.41683,-3.72738 25.20386,-1.91241 25.50738,-2.13971 25.55352,-19.13716 0.0302,-11.1091 0.79802,-13.05677 4.57599,-11.60703 1.70957,0.65602 2.12428,3.04612 2.14074,12.33766 0.0112,6.33821 0.52459,12.31924 1.14081,13.29118 1.17899,1.85961 0.75027,1.88242 58.17211,-3.09609 56.21695,-4.87405 55.80341,-4.78952 59.12784,-12.08584 1.03171,-2.26436 1.53883,-14.35578 1.53883,-36.6908 0,-36.7272 0.34503,-38.700997 8.12497,-46.480936 7.96952,-7.96952 16.48808,-10.746833 32.96265,-10.746833 13.2012,0 14.36032,-0.204574 14.53819,-2.565858 0.4226,-5.610216 8.15393,-18.513341 16.24999,-27.120269 6.35553,-6.756572 11.02697,-10.276501 18.24737,-13.749372 7.1986,-3.4623886 9.8132,-5.4292849 10.12421,-7.6161896 0.31443,-2.2109454 1.45782,-3.0494325 4.57177,-3.3526343 3.68757,-0.3590551 4.24362,0.051455 4.96666,3.6666667 0.44781,2.2390438 1.46636,4.0709887 2.26343,4.0709887 4.68921,0 17.56351,8.0840325 25.31971,15.8987455 9.27791,9.34791 18.00458,23.92094 16.88595,28.198574 -0.63182,2.416073 0.16077,2.569348 13.28608,2.569348 16.89236,0 24.77356,2.260039 32.93588,9.444796 10.20492,8.982735 10.42324,10.031072 10.05628,48.288913 -0.22076,23.01535 0.15247,34.48518 1.18482,36.4108 2.9218,5.44999 7.95767,7.37079 22.7469,8.67621 23.0536,2.03489 56.99413,4.99954 74.76505,6.5306 20.6341,1.77774 20.58879,1.80701 20.69497,-13.37157 0.0562,-8.03662 0.57884,-11.06028 2.07514,-12.00585 3.73556,-2.36065 4.66608,-0.44243 5.05312,10.41673 0.21703,6.08917 1.2302,12.47206 2.31104,14.55934 1.92105,3.70987 1.9632,3.71968 22.94688,5.33805 11.56227,0.89174 31.2223,2.52962 43.68897,3.63975 12.46664,1.11012 33.16664,2.86132 46.00004,3.89155 12.8333,1.03023 24.2333,2.19191 25.3333,2.58151 1.1,0.3896 8.45,1.05309 16.3333,1.47441 l 14.3334,0.76605 v -33.82405 c 0,-36.02433 0.2705,-37.54286 6.4027,-35.93926 2.9231,0.76442 2.9306,0.85397 2.9306,35.19884 0,24.54916 0.441,34.705 1.5363,35.38195 0.8449,0.52221 16.2949,2.09305 34.3333,3.49076 31.1329,2.41235 47.0295,3.74614 99.4637,8.34542 12.4667,1.09352 32.8667,2.86871 45.3334,3.94486 28.1403,2.42916 40.8744,4.33134 45.641,6.81776 2.0308,1.05931 4.3493,1.9297 5.1523,1.93422 2.3671,0.0133 18.1119,10.5302 23.663,15.80596 9.1665,8.71178 17.3921,22.25975 21.7261,35.7837 1.8447,5.75617 2.4737,11.69944 2.4432,23.08522 -0.036,13.60274 -0.4722,16.46199 -3.8608,25.33334 -6.5296,17.09427 -13.5443,27.60764 -28.0195,41.99441 -14.5442,14.45532 -30.138,25.59791 -48.4375,34.61113 -10.6119,5.22675 -29.315,12.52823 -37.6412,14.69472 -1.8333,0.47704 -4.5333,1.39464 -6,2.03912 -4.6745,2.05406 -27.3793,6.78941 -48,10.01095 -6.6,1.03111 -17.7,2.81617 -24.6666,3.9668 -6.9667,1.15063 -18.0667,2.95063 -24.6667,4 -16.2581,2.58497 -33.3261,5.36406 -49.3333,8.03269 -7.3334,1.22257 -18.5834,3.069 -25,4.10318 -6.4167,1.03418 -16.9167,2.7339 -23.3334,3.77715 -6.4166,1.04325 -17.6666,2.87212 -25,4.06415 -7.3333,1.19203 -21.1333,3.38421 -30.6666,4.8715 -9.5334,1.48729 -22.73338,3.57549 -29.33338,4.64044 -6.6,1.06495 -17.4,2.79485 -24,3.84422 -20.14121,3.20237 -35.36453,5.67093 -49.33333,7.99972 -7.33334,1.22257 -18.43334,3.04754 -24.66667,4.0555 -24.17678,3.90948 -28.90748,5.00406 -36,8.32965 -4.03334,1.89118 -11.10083,7.04379 -15.70554,11.45025 -8.72784,8.35208 -11.78486,13.62667 -20.96969,36.18109 -2.68771,6.6 -5.41439,13.2 -6.05928,14.66667 -0.64489,1.46666 -3.35341,8.06666 -6.01893,14.66666 -2.66552,6.6 -5.60495,13.8 -6.53206,16 -0.92711,2.2 -2.77329,6.7 -4.10262,10 -2.72086,6.7544 -6.83737,16.65807 -8.59022,20.66667 -9.51517,21.76038 -12.82848,32.17323 -14.63694,46 -0.71936,5.5 -2.28634,15.4 -3.48218,22 -2.74454,15.14753 -3.81652,32.26384 -2.24745,35.88513 7.58114,17.49671 12.75171,23.65571 25.67824,30.58701 3.3,1.76949 12.3,6.7956 20,11.16914 7.7,4.37354 20.9,11.85784 29.33333,16.63179 8.43334,4.77394 17.43334,9.8735 20,11.33235 2.56667,1.45885 21.46667,12.12869 42.00001,23.71077 40.86159,23.04846 49.05156,28.59722 57.49177,38.95104 4.4785,5.49389 5.80739,8.35385 6.49872,13.9861 1.99674,16.26731 -5.1169,29.95224 -21.63491,41.62034 -10.03401,7.0879 -30.89544,18.18406 -37.68892,20.04668 -1.83333,0.50266 -4.53333,1.4304 -6,2.06165 -4.83941,2.08288 -21.06935,6.68467 -23.57597,6.68467 -1.35312,0 -3.50207,0.58448 -4.77545,1.29884 -1.27339,0.71436 -6.21525,1.95153 -10.98191,2.74927 -26.62293,4.45553 -39.3701,5.5636 -70.9118,6.16413 l -34.24513,0.65199 -4.72055,-4.43211 c -3.08415,-2.89569 -8.19904,-11.49603 -14.75488,-24.80933 l -10.03432,-20.37722 v -16.5441 c 0,-15.46252 -1.41967,-21.79902 -3.53679,-15.78598 -2.43213,6.90774 -7.75996,17.50718 -12.16926,24.21013 -4.43579,6.74322 -5.04881,8.74009 -5.79421,18.87438 -2.29518,31.20462 -4.83581,45.09252 -7.05344,38.55629 z"
       id="path1" />
  </g>
</svg>
