<?xml version="1.0" encoding="UTF-8" standalone="no"?>
<!-- Created with Inkscape (http://www.inkscape.org/) -->

<svg
   version="1.1"
   id="svg1"
   width="1386.6667"
   height="1105.3333"
   viewBox="0 0 1386.6667 1105.3333"
   sodipodi:docname="FBru44b.svg"
   inkscape:version="1.3.2 (091e20e, 2023-11-25, custom)"
   xmlns:inkscape="http://www.inkscape.org/namespaces/inkscape"
   xmlns:sodipodi="http://sodipodi.sourceforge.net/DTD/sodipodi-0.dtd"
   xmlns="http://www.w3.org/2000/svg"
   xmlns:svg="http://www.w3.org/2000/svg">
  <defs
     id="defs1" />
  <sodipodi:namedview
     id="namedview1"
     pagecolor="#ffffff"
     bordercolor="#000000"
     borderopacity="0.25"
     inkscape:showpageshadow="2"
     inkscape:pageopacity="0.0"
     inkscape:pagecheckerboard="0"
     inkscape:deskcolor="#d1d1d1"
     inkscape:zoom="0.35048075"
     inkscape:cx="693.33337"
     inkscape:cy="552.0988"
     inkscape:window-width="1600"
     inkscape:window-height="837"
     inkscape:window-x="-8"
     inkscape:window-y="-8"
     inkscape:window-maximized="1"
     inkscape:current-layer="g1" />
  <g
     inkscape:groupmode="layer"
     inkscape:label="Image"
     id="g1">
    <path
       style="fill:#000000"
       d="m 689.71795,1102.3904 c -0.75361,-0.9481 -1.76017,-3.8914 -2.2368,-6.5408 -1.19853,-6.6619 -4.67619,-9.295 -15.15101,-11.4716 -4.94822,-1.0282 -12.89677,-2.7141 -17.66343,-3.7466 -4.76667,-1.0324 -14.66667,-3.083 -22.00001,-4.5568 -12.99679,-2.6121 -20.14536,-4.1397 -40.66667,-8.6903 -5.5,-1.2196 -14.05,-3.0801 -19,-4.1343 -4.95,-1.0542 -13.05,-2.7862 -18,-3.8488 -4.95,-1.0626 -12.3,-2.5859 -16.33333,-3.385 -37.03284,-7.3375 -44.17517,-9.9738 -58.61488,-21.6346 -8.71065,-7.0344 -18.75498,-21.2759 -21.42768,-30.3817 -2.35199,-8.01305 -2.2367,-21.6142 0.26161,-30.86324 4.84767,-17.94663 16.74588,-31.27573 39.10016,-43.80237 5.63751,-3.15908 72.62326,-42.24103 104.01413,-60.68566 10.26666,-6.03248 23.5997,-13.81739 29.62896,-17.29981 11.18228,-6.45871 17.04955,-12.41658 19.03075,-19.32461 0.99069,-3.45437 -0.35248,-37.43338 -3.98028,-100.69093 -0.63085,-11 -1.5573,-44.3 -2.05878,-74 -0.96767,-57.30973 -1.26071,-59.94878 -7.92606,-71.3792 -6.35664,-10.901 -22.68994,-23.17538 -30.94924,-23.25817 -1.60672,-0.0161 -3.24034,-0.54549 -3.63026,-1.1764 -0.38993,-0.63091 -3.54718,-1.53613 -7.01612,-2.0116 -3.46894,-0.47547 -8.13532,-1.45572 -10.36974,-2.17833 -4.05995,-1.31298 -31.49427,-7.94339 -55.39591,-13.38825 -6.96666,-1.58702 -14.16666,-3.38556 -16,-3.99674 -1.83333,-0.61117 -5.43333,-1.48626 -8,-1.94463 -2.56666,-0.45837 -6.16666,-1.3922 -8,-2.07518 -3.22513,-1.20147 -9.34122,-1.68957 -75.33334,-6.01207 -81.08126,-5.31085 -86.36498,-5.48019 -87.06721,-2.79043 -0.58519,2.24146 -1.75866,2.38717 -13.45362,1.67051 -7.04688,-0.43183 -19.90182,-1.15123 -28.56655,-1.59867 -14.90879,-0.76988 -15.81729,-0.97987 -16.93278,-3.91385 -1.09997,-2.89312 -2.05203,-3.13926 -14.24596,-3.68298 -29.88046,-1.33236 -66.97107,-3.77451 -75.06722,-4.94262 -4.76667,-0.68774 -15.26667,-1.84999 -23.33334,-2.58278 C 103.38978,506.62652 54.291204,486.73391 24.487697,455.81764 7.9271227,438.63876 2.5227452,428.51857 1.6609593,413.07252 1.0545922,402.20441 1.2734161,400.92422 5.1554944,392.62841 c 4.390108,-9.38144 17.6902526,-24.49483 27.5111746,-31.26184 8.075531,-5.56436 20.105258,-11.70111 24.981585,-12.74391 2.393462,-0.51184 4.95175,-1.39349 5.685083,-1.95923 0.733333,-0.56574 4.033334,-1.46567 7.333334,-1.99984 3.3,-0.53417 6.6,-1.34974 7.333334,-1.81236 0.733333,-0.46263 4.333333,-1.54551 8,-2.4064 3.666667,-0.86089 10.266667,-2.56036 14.666665,-3.7766 4.4,-1.21623 11,-3.04069 14.66667,-4.05435 8.04156,-2.22311 25.27612,-6.74072 35.33334,-9.26176 4.03333,-1.01103 10.03333,-2.5198 13.33333,-3.35281 3.3,-0.83301 6.92307,-1.99946 8.05127,-2.5921 1.1282,-0.59264 4.70513,-1.5259 7.94873,-2.0739 3.2436,-0.548 6.82053,-1.49794 7.94873,-2.11097 1.1282,-0.61303 4.75127,-1.69548 8.05127,-2.40545 3.3,-0.70997 10.8,-2.5881 16.66667,-4.17363 5.86667,-1.58552 13.96667,-3.75142 18,-4.81312 4.03333,-1.0617 10.63333,-2.83853 14.66667,-3.94852 4.03333,-1.10999 10.03333,-2.61169 13.33333,-3.33712 3.3,-0.72543 6.92308,-1.82053 8.05128,-2.43355 1.1282,-0.61303 4.70512,-1.56297 7.94872,-2.11097 3.2436,-0.548 6.82053,-1.49794 7.94873,-2.11097 1.1282,-0.61303 4.75127,-1.70723 8.05127,-2.43155 5.98195,-1.31299 20.75296,-5.10219 34.66667,-8.89302 17.42671,-4.74796 22.37732,-6.10241 28.66667,-7.84302 19.74848,-5.46547 29.73978,-8.07694 46,-12.02319 4.76667,-1.15685 9.86667,-2.65226 11.33334,-3.32315 1.46666,-0.67089 4.76666,-1.60398 7.33333,-2.07355 10.24474,-1.87425 13.33334,-3.60943 13.33334,-7.49071 0,-2.0094 0.6,-4.02428 1.33333,-4.4775 0.83129,-0.51377 1.33333,-13.36113 1.33333,-34.12054 0,-29.59644 0.24239,-33.3895 2.18123,-34.1335 1.19968,-0.46036 3.14968,-0.2272 4.33334,0.51813 1.86163,1.17225 2.24208,6.04515 2.81877,36.10377 0.36666,19.11174 1.09335,35.1741 1.61486,35.69413 0.5215,0.52003 3.82151,0.0282 7.33333,-1.09304 3.51183,-1.1212 8.28502,-2.43455 10.60709,-2.91856 2.32207,-0.48401 4.52478,-1.66919 4.89491,-2.63373 0.40742,-1.06172 1.97992,-1.50388 3.98516,-1.12055 1.82171,0.34824 6.519,-0.28878 10.43842,-1.4156 3.91943,-1.12681 10.90243,-2.46637 15.51779,-2.97678 7.52795,-0.83251 8.60121,-1.33343 10.42869,-4.8674 1.12043,-2.16666 4.6096,-6.5862 7.75372,-9.82119 8.81723,-9.07207 14.76236,-7.90334 27.07128,5.32181 l 6.94601,7.46305 19.70437,-0.10205 c 10.83741,-0.0561 25.10437,-0.80612 31.70438,-1.66666 l 12,-1.56463 0.36955,-20.61036 c 0.25892,-14.44043 0.85765,-20.92046 2,-21.64625 2.38013,-1.51219 14.04678,-1.30451 17.05144,0.30353 1.41845,0.75913 2.57901,2.25913 2.57901,3.33333 0,1.0742 0.56459,1.95309 1.25464,1.95309 2.12479,0 3.12888,-2.81648 1.56251,-4.38284 -1.99257,-1.99258 -1.89051,-10.67714 0.14946,-12.71711 1.28882,-1.28881 1.28882,-2.18485 0,-4.24857 -2.2354,-3.57944 -2.04839,-8.13214 0.48244,-11.74541 1.518,-2.16724 1.71861,-3.49912 0.71009,-4.71432 -1.48595,-1.79046 -0.63976,-10.52868 1.40658,-14.52508 0.80695,-1.57594 0.68646,-2.33333 -0.3712,-2.33333 -2.4634,0 -0.39571,-13.23921 2.58319,-16.53991 3.72516,-4.12755 5.67796,-14.04786 6.53427,-33.194265 0.67295,-15.046498 1.07838,-17.288177 3.42394,-18.931067 1.46333,-1.024957 4.01491,-5.644578 5.67017,-10.265824 4.53103,-12.649977 10.66056,-24.452168 19.39532,-37.345025 4.32589,-6.385186 7.86526,-12.8351857 7.86526,-14.3333325 0,-2.339441 0.84686,-2.7239033 6,-2.7239033 5.00783,0 6,0.4193102 6,2.5357246 0,1.3946485 3.51523,7.8446482 7.81162,14.3333322 11.2156,16.93851 17.22202,28.986957 20.42993,40.980977 1.13786,4.254347 2.34354,6.149962 3.91159,6.149962 1.77052,0 2.39611,1.532358 2.85778,6.999999 3.31702,39.284632 3.90726,42.848252 7.84748,47.379722 3.93619,4.52685 5.15192,11.74329 2.4359,14.4593 -0.94092,0.94093 -0.73392,2.59663 0.65846,5.26667 2.31745,4.44396 2.68939,10.67339 0.7103,11.89653 -0.87878,0.54312 -0.82259,1.78734 0.16397,3.63074 0.86209,1.61084 1.20158,5.70461 0.79763,9.61847 -0.44847,4.34531 -0.0248,8.42756 1.16937,11.26769 2.49571,5.93554 2.36518,7.5131 -0.74002,8.94378 -2.58615,1.19154 -2.58645,1.23758 -0.0297,4.53709 l 2.58301,3.33333 0.0296,-3.4 c 0.0446,-5.11567 2.46369,-6.6 10.75633,-6.6 11.50305,0 11.93999,0.88741 11.93999,24.25007 v 19.37342 l 13.38112,1.52159 c 7.35962,0.83687 21.70375,1.52159 31.87584,1.52159 l 18.49472,0 5.52611,-6.60033 c 5.98307,-7.14612 12.87567,-12.06634 16.90341,-12.06634 4.20701,0 11.99944,6.21075 16.49274,13.14508 4.14562,6.39778 4.4127,6.55753 12.44796,7.4457 4.51629,0.4992 11.41824,1.82959 15.33766,2.9564 3.91943,1.12682 8.53937,1.77863 10.26654,1.44846 1.78654,-0.34152 3.41766,0.12246 3.78368,1.0763 0.35385,0.92213 2.63391,2.08789 5.0668,2.59056 2.43288,0.50268 7.08278,1.78927 10.3331,2.85908 5.46625,1.79917 6.01651,1.76504 7.33334,-0.4549 0.85368,-1.43915 1.69056,-15.68763 2.09032,-35.58953 0.59702,-29.72217 0.91043,-33.34313 3,-34.65985 1.69941,-1.07086 2.96725,-1.07124 4.66667,-0.001 2.0985,1.32111 2.41387,5.21193 3.13359,38.65984 0.44015,20.45499 0.89015,37.27092 1,37.36872 0.39018,0.34738 6.413,2.03123 22.86641,6.39295 9.16666,2.43005 23.86667,6.3639 32.66664,8.7419 8.8,2.378 19.3,5.20266 23.3334,6.27702 7.7219,2.0569 17.1414,4.61659 29.3333,7.97111 4.0333,1.10976 11.8333,3.11489 17.3333,4.45587 11.5524,2.81662 46.9559,12.42958 56.4865,15.33753 3.5675,1.08852 7.4975,1.97912 8.7333,1.97912 1.2358,0 2.8169,0.51543 3.5136,1.1454 0.6966,0.62997 4.5666,1.83459 8.6,2.67692 4.0333,0.84234 11.8333,2.76103 17.3333,4.26376 18.0944,4.94381 24.5982,6.68321 30,8.02327 2.9333,0.72769 6.3833,1.64122 7.6667,2.03005 2.1791,0.66024 2.3333,-1.50859 2.3333,-32.80895 v -33.51591 l 3,0.42607 3,0.42606 0.3555,34.18214 c 0.355,34.12684 0.3604,34.18334 3.3334,34.92297 1.6378,0.40746 6.5778,1.6316 10.9778,2.72031 4.4,1.08871 12.8,3.27726 18.6666,4.86343 5.8667,1.58618 13.6667,3.68289 17.3334,4.65935 3.6666,0.97646 9.9666,2.67538 14,3.77538 7.4697,2.03721 14.1155,3.82183 32.1054,8.62136 25.3283,6.75738 44.0562,18.59109 57.3768,36.25506 8.1104,10.75486 10.7953,17.75774 11.005,28.70359 0.2751,14.36307 -6.7042,28.23113 -22.3552,44.42072 -31.7907,32.88448 -77.3532,51.53235 -140.7987,57.62617 -7.7,0.73957 -17.9,1.90192 -22.6667,2.58299 -7.8512,1.1218 -42.3041,3.40474 -74.4017,4.93004 -11.4892,0.54598 -12.4884,0.81723 -13.5793,3.68656 -1.1153,2.93355 -2.01,3.1381 -16.9316,3.87091 -8.6647,0.42553 -21.8167,1.15616 -29.2267,1.62363 -12.4111,0.78297 -13.5236,0.65449 -14.1192,-1.63068 -0.7117,-2.73046 7.3792,-2.93918 -82.40814,2.12592 -14.3,0.80669 -30.8,2.03051 -36.66667,2.71959 -5.86667,0.68908 -17.86667,1.80515 -26.66667,2.48015 -8.8,0.675 -19.75,2.19473 -24.33334,3.37717 -16.9379,4.36976 -26.7326,6.73727 -55,13.29424 -4.03333,0.93559 -8.23333,2.05671 -9.33333,2.4914 -1.1,0.43468 -5,1.40784 -8.66667,2.16256 -3.66667,0.75473 -10.26667,2.27083 -14.66667,3.36912 -4.4,1.0983 -10.7,2.66909 -14,3.49066 -11.28877,2.81045 -20.40252,9.42401 -27.614,20.03861 -8.31639,12.24093 -8.11931,10.6604 -9.67985,77.62789 -0.79047,33.92147 -1.74003,63.1754 -2.11013,65.00873 -0.3701,1.83333 -1.62689,20.43333 -2.79287,41.33333 -3.69075,66.15623 -3.65589,62.18643 -0.60302,68.68114 3.2517,6.91769 6.37499,9.3664 28.1332,22.05687 9.16667,5.34646 21.76667,12.70018 28.00001,16.3416 6.23333,3.64142 13.13333,7.64603 15.33333,8.89914 2.2,1.25311 7.48836,4.32052 11.75192,6.81647 10.60544,6.20861 8.3009,4.8728 46.93372,27.20477 39.68561,22.94054 48.48129,30.18298 56.67497,46.66666 4.52748,9.10818 4.63878,9.71931 4.61377,25.33333 -0.0203,12.67921 -0.50289,16.83021 -2.32512,20.00001 -1.26472,2.2 -2.3275,4.6 -2.36174,5.3333 -0.12487,2.6743 -11.6106,16.1342 -18.02952,21.1283 -8.11287,6.3122 -23.7265,13.8359 -32.23647,15.5338 -3.49517,0.6974 -12.05486,2.5001 -19.02153,4.006 -16.64233,3.5973 -30.94633,6.5175 -40,8.166 -4.03333,0.7344 -8.53333,1.8635 -10,2.5092 -1.46667,0.6457 -5.96667,1.5763 -10,2.0678 -4.03333,0.4916 -7.93333,1.2749 -8.66667,1.7406 -0.73333,0.4658 -4.93333,1.5118 -9.33333,2.3246 -4.4,0.8127 -14.3,2.8191 -22,4.4588 -17.56166,3.7395 -30.39448,6.4108 -40.66667,8.4651 -10.81696,2.1632 -12.05182,3.1194 -14.97795,11.5984 -2.53135,7.335 -5.39555,9.6319 -7.97081,6.3919 z"
       id="path1" />
  </g>
</svg>
