<?xml version="1.0" encoding="UTF-8" standalone="no"?>
<!-- Created with Inkscape (http://www.inkscape.org/) -->

<svg
   version="1.1"
   id="svg1"
   width="1386.6667"
   height="998.66669"
   viewBox="0 0 1386.6667 998.66669"
   sodipodi:docname="FBru39b.svg"
   inkscape:version="1.3.2 (091e20e, 2023-11-25, custom)"
   xmlns:inkscape="http://www.inkscape.org/namespaces/inkscape"
   xmlns:sodipodi="http://sodipodi.sourceforge.net/DTD/sodipodi-0.dtd"
   xmlns="http://www.w3.org/2000/svg"
   xmlns:svg="http://www.w3.org/2000/svg">
  <defs
     id="defs1" />
  <sodipodi:namedview
     id="namedview1"
     pagecolor="#ffffff"
     bordercolor="#000000"
     borderopacity="0.25"
     inkscape:showpageshadow="2"
     inkscape:pageopacity="0.0"
     inkscape:pagecheckerboard="0"
     inkscape:deskcolor="#d1d1d1"
     inkscape:zoom="0.35048075"
     inkscape:cx="693.33337"
     inkscape:cy="500.74077"
     inkscape:window-width="1600"
     inkscape:window-height="837"
     inkscape:window-x="-8"
     inkscape:window-y="-8"
     inkscape:window-maximized="1"
     inkscape:current-layer="g1" />
  <g
     inkscape:groupmode="layer"
     inkscape:label="Image"
     id="g1">
    <path
       style="fill:#000000"
       d="m 691.88435,997.00002 c -0.53541,-1.5427 -2.71595,-39.82701 -3.38174,-59.37409 -0.92073,-27.03218 -0.67594,-26.38863 -10.34734,-27.20307 l -5.02126,-0.42284 -9.58602,21.33333 -9.58602,21.33334 h -61.3143 c -72.49098,0 -78.35347,-0.54909 -115.31431,-10.80045 -6.72099,-1.86412 -26.23354,-10.28925 -34.5707,-14.92695 -16.69129,-9.28482 -33.85814,-28.47923 -38.16557,-42.67326 -7.93404,-26.1446 9.4684,-53.41964 45.63542,-71.52491 18.92021,-9.47148 42.25945,-16.8415 59.43131,-18.76711 3.85158,-0.43191 9.40288,-1.37511 12.33621,-2.09602 3.03402,-0.74565 33.2125,-1.43301 70,-1.59435 l 64.66668,-0.28362 -0.36806,-20.66667 c -0.20243,-11.36667 -0.94981,-28.46667 -1.66084,-38 -0.71104,-9.53334 -2.20429,-41.03334 -3.31834,-70 -2.54395,-66.14601 -4.34347,-102.07218 -6.0138,-120.06143 -0.7181,-7.73379 -1.30563,-27.67731 -1.30563,-44.31895 v -30.25751 l -238.33335,-0.38555 c -215.2259,-0.34816 -239.69071,-0.60199 -252.33335,-2.61803 -30.63093,-4.88452 -56.383686,-16.91664 -76.51631,-35.74973 -7.392014,-6.91486 -19.483693,-22.40695 -19.483693,-24.96287 0,-0.51535 -1.465616,-3.94652 -3.256925,-7.62481 -5.952632,-12.22319 -7.777223,-21.08831 -7.090796,-34.45199 0.345671,-6.72969 0.993359,-13.13581 1.439307,-14.23581 0.557719,-1.3757 -1.712435,-3.8729 -7.272627,-8 C 31.051507,331.16928 16.323128,314.4213 11.616565,305.08091 4.5580144,291.07289 2.2425321,281.70175 2.1249268,266.66667 2.0027288,251.04444 4.231313,243.49123 13.140179,229.33334 30.784655,201.29289 76.439305,175.63881 121.0305,168.70805 c 6.8001,-1.05693 13.1001,-2.39862 14,-2.98154 0.8999,-0.58291 115.63618,-1.35984 254.96952,-1.72651 l 253.33335,-0.66666 0.32767,-10.66667 c 0.32674,-10.63638 0.32045,-10.65815 -2.21372,-7.66667 -3.05475,3.606 -3.89497,3.65012 -7.78062,0.40859 -3.70738,-3.09282 -3.70869,-3.03832 0.22019,-9.10384 3.56082,-5.49729 6.32147,-17.0285 6.00506,-25.0831 -0.11282,-2.87191 0.73901,-7.62165 1.89296,-10.55498 1.15394,-2.933335 2.12442,-7.013131 2.1566,-9.066215 0.0322,-2.053084 0.97394,-5.503084 2.09277,-7.666667 1.91581,-3.704778 1.88333,-3.933786 -0.55792,-3.933786 -3.06644,0 -8.13376,7.546527 -8.16341,12.157379 -0.0112,1.746775 -0.58753,4.073032 -1.28068,5.169459 -1.08134,1.710476 -1.54921,1.615826 -3.29539,-0.666666 -4.43963,-5.803188 -5.24142,-11.830065 -2.68537,-20.185254 1.3138,-4.294539 3.42259,-9.908252 4.6862,-12.474919 1.96238,-3.986029 2.02569,-4.919124 0.43405,-6.397596 -1.35997,-1.263272 -1.49981,-2.410358 -0.51758,-4.245679 0.74022,-1.383111 1.3592,-3.604193 1.37551,-4.935736 0.0163,-1.331544 1.14529,-3.87228 2.50885,-5.646081 2.15824,-2.80756 3.66481,-3.254201 11.63702,-3.449936 12.00809,-0.294825 15.53398,-1.480898 25.73888,-8.658306 7.90857,-5.562335 8.27146,-6.030775 4.97489,-6.421896 -3.46796,-0.411457 -3.55596,-0.6495 -3.55596,-9.619755 0,-10.3921297 0.53929,-11.0231713 10.66667,-12.4814762 7.78457,-1.1209483 18.71501,0.9619279 20.92767,3.9879202 1.79386,2.4532458 2.35908,12.034545 0.92968,15.75949 -0.44513,1.159978 -2.09513,2.126639 -3.66667,2.148135 -2.58451,0.03535 -2.44947,0.385462 1.41429,3.666667 12.93239,10.98252 12.93073,10.981858 28.88618,11.529652 7.91412,0.271714 9.4945,0.752401 11.63702,3.539505 1.36356,1.773801 2.49255,4.314537 2.50885,5.646081 0.0163,1.331543 0.62846,3.539876 1.36034,4.907405 0.9752,1.822167 0.79709,3.020013 -0.66667,4.483773 -1.09854,1.098547 -1.99735,3.240214 -1.99735,4.759262 0,2.314778 -0.82996,2.761905 -5.12669,2.761905 -3.36985,0 -5.92405,0.881079 -7.45351,2.571115 -2.64351,2.92105 -2.12163,5.743421 2.60638,14.095552 1.66051,2.933333 3.44314,8.333333 3.96139,12 0.51826,3.666667 1.49129,7.692578 2.16229,8.946478 0.671,1.25389 1.52875,6.95389 1.9061,12.66666 0.5192,7.86007 1.66175,12.39667 4.69669,18.64856 3.85981,7.9511 3.92244,8.36465 1.66598,11 -3.02597,3.53407 -5.37818,3.46193 -8.53258,-0.2617 -2.53417,-2.99148 -2.54046,-2.96971 -2.21372,7.66667 l 0.32767,10.66667 L 996.66673,164 c 139.33337,0.36667 254.06967,1.1436 254.96947,1.72651 0.8999,0.58292 7.1999,1.92461 14,2.98154 35.4916,5.51642 73.3503,23.33478 94.4822,44.46848 26.5943,26.59659 31.9974,57.21909 15.8743,89.96976 -5.58,11.3345 -18.3239,26.2939 -29.6919,34.85372 -6.0995,4.59274 -8.604,7.28884 -8.051,8.66666 0.4416,1.1 1.0849,7.48878 1.4296,14.19728 0.5167,10.05377 0.1026,13.91997 -2.3561,22 -1.6406,5.3915 -4.034,11.90272 -5.3186,14.46939 -1.2845,2.56667 -3.4611,7.05405 -4.8368,9.97195 -2.96,6.27864 -22.4724,26.42159 -31.5464,32.56592 -18.153,12.29206 -40.3017,20.36464 -66.2881,24.16014 -17.3776,2.53812 -26.1021,2.62913 -252.33334,2.63217 l -234.33335,0.003 v 30.2719 c 0,16.64955 -0.58336,36.59955 -1.29636,44.33334 -1.625,17.62615 -4.97134,84.77332 -6.7143,134.72809 -0.72921,20.9 -1.90951,45.8 -2.62287,55.33334 -0.71337,9.53333 -1.46265,26.63333 -1.66508,38 l -0.36806,20.66667 63.33334,0.26657 c 35.86053,0.15095 66.5144,0.85367 70.66667,1.62 4.03333,0.74438 10.33333,1.73299 14,2.1969 15.32418,1.93886 37.00956,8.47848 54.08187,16.30939 29.73812,13.6406 50.30891,36.78934 51.66866,58.14383 2.45062,38.48612 -46.6826,73.43186 -115.75053,82.32695 -9.96623,1.28353 -31.47419,1.80303 -74.64763,1.80303 h -60.64763 l -9.58603,-21.33334 -9.58603,-21.33333 -5.02125,0.42284 c -9.55183,0.80437 -9.35753,0.31952 -10.36024,25.85304 -0.82207,20.93383 -2.96116,59.9065 -3.33296,60.72412 -0.0834,0.18333 -0.75157,0.33333 -1.48491,0.33333 -0.73333,0 -1.38539,-0.15 -1.44902,-0.33333 z"
       id="path1" />
  </g>
</svg>
