<?xml version="1.0" encoding="UTF-8" standalone="no"?>
<!-- Created with Inkscape (http://www.inkscape.org/) -->

<svg
   version="1.1"
   id="svg1"
   width="1386.6667"
   height="1209.3333"
   viewBox="0 0 1386.6667 1209.3333"
   sodipodi:docname="FBam44-P51.svg"
   inkscape:version="1.3.2 (091e20e, 2023-11-25, custom)"
   xmlns:inkscape="http://www.inkscape.org/namespaces/inkscape"
   xmlns:sodipodi="http://sodipodi.sourceforge.net/DTD/sodipodi-0.dtd"
   xmlns="http://www.w3.org/2000/svg"
   xmlns:svg="http://www.w3.org/2000/svg">
  <defs
     id="defs1" />
  <sodipodi:namedview
     id="namedview1"
     pagecolor="#ffffff"
     bordercolor="#000000"
     borderopacity="0.25"
     inkscape:showpageshadow="2"
     inkscape:pageopacity="0.0"
     inkscape:pagecheckerboard="0"
     inkscape:deskcolor="#d1d1d1"
     inkscape:zoom="0.35048075"
     inkscape:cx="693.33337"
     inkscape:cy="603.45683"
     inkscape:window-width="1600"
     inkscape:window-height="837"
     inkscape:window-x="-8"
     inkscape:window-y="-8"
     inkscape:window-maximized="1"
     inkscape:current-layer="g1" />
  <g
     inkscape:groupmode="layer"
     inkscape:label="Image"
     id="g1">
    <path
       style="fill:#000000"
       d="m 688.88893,1208.4444 c -0.48889,-0.4889 -0.88394,-3.6389 -0.87789,-7 0.0135,-7.4838 -9.08543,-74.3521 -10.64653,-78.2419 -0.89501,-2.2301 -2.70208,-2.9706 -8.91025,-3.6514 -4.28316,-0.4696 -18.28756,-2.0585 -31.12089,-3.5308 -12.83333,-1.4723 -37.73333,-4.1896 -55.33334,-6.0384 -17.6,-1.8488 -41.9,-4.5711 -54,-6.0496 -12.1,-1.4784 -24.4,-2.9647 -27.33333,-3.3028 -35.65525,-4.1102 -39.96608,-4.9156 -43.5179,-8.1299 -4.89891,-4.4335 -6.1986,-8.9034 -7.12631,-24.5088 -0.50104,-8.4283 -1.72022,-22.9706 -2.70929,-32.3162 -3.09087,-29.2053 -0.80503,-31.7928 32.68683,-37.0003 9.9,-1.5393 20.7,-3.34868 24,-4.02084 3.3,-0.67217 15,-2.77844 26,-4.68061 11,-1.90217 24.5,-4.28117 30,-5.28667 5.5,-1.0055 13.9,-2.49569 18.66667,-3.31152 14.26973,-2.44232 43.46767,-7.6726 63.08877,-11.30119 10.13215,-1.87378 18.73489,-3.40687 19.11719,-3.40687 0.38231,0 0.33764,-2.25 -0.0992,-5 -3.51914,-22.15079 -15.90143,-182.71538 -18.12254,-234.99998 -1.34155,-31.57978 -4.08101,-48.06631 -10.10154,-60.79267 -4.25382,-8.99182 -9.88243,-15.68261 -14.87649,-17.68381 -3.13834,-1.25758 -82.72442,-17.3007 -152.33948,-30.7089 -11.36667,-2.18927 -42.26667,-8.18291 -68.66667,-13.31919 -26.4,-5.13628 -54.9,-10.5962 -63.33334,-12.13315 -8.43333,-1.53696 -21.03333,-3.93539 -28,-5.32986 -6.96667,-1.39446 -21.06667,-4.11025 -31.33333,-6.03508 -26.47693,-4.96398 -58.40023,-11.08344 -69.33334,-13.29069 -5.13333,-1.03635 -14.73334,-2.86628 -21.33334,-4.0665 -22.3752,-4.06898 -39.96982,-7.44003 -48.66667,-9.3243 -15.32717,-3.3208 -69.313389,-13.79451 -92.618686,-17.96868 -12.440277,-2.22816 -23.1872,-4.61971 -23.882051,-5.31456 -3.608366,-3.60837 -16.1794212,-85.4293 -15.3112357,-99.65588 0.1887406,-3.09281 -0.076354,-6.04281 -0.5890996,-6.55556 -1.62232393,-1.62232 -1.0078267,-11.12771 0.9180812,-14.2014 1.01769,-1.62419 2.2677825,-5.32518 2.7779834,-8.2244 1.3227838,-7.51674 5.1223917,-14.31489 10.7745737,-19.27757 8.145104,-7.1515 7.91468,-7.10741 49.263768,-9.42621 74.488516,-4.17721 97.121636,-5.54836 122.000006,-7.39095 24.68377,-1.82817 67.51233,-4.60666 164.66668,-10.68271 18.33333,-1.14657 34.11042,-2.34622 35.0602,-2.66588 0.94978,-0.31966 2.60783,-2.68964 3.68456,-5.26662 2.64323,-6.32614 6.51386,-6.30519 8.61014,0.0466 1.54407,4.67857 1.63819,4.72751 8.33566,4.33333 5.96032,-0.35079 7.03841,-0.87912 8.97575,-4.39868 3.09023,-5.61399 7.29046,-5.95476 9.10868,-0.739 1.28814,3.69514 1.95092,4.07044 7.15565,4.05192 6.29865,-0.0224 7.68328,-0.67409 9.8722,-4.64625 2.26739,-4.11457 6.87648,-4.16263 8.73162,-0.091 1.83799,4.03395 2.06449,4.04454 33.13221,1.5493 19.95106,-1.60238 21.89013,-2.0354 56.00001,-12.50526 19.43333,-5.96497 40.73333,-12.40494 47.33333,-14.31103 6.6,-1.9061 13.8,-4.08591 16,-4.84403 2.2,-0.75812 9.69182,-3.13605 16.6485,-5.28428 6.95667,-2.14823 13.43856,-4.69594 14.40419,-5.66158 1.33313,-1.33312 1.74509,-7.90354 1.71159,-27.29855 -0.0484,-27.98773 -0.54184,-31.73945 -4.60805,-35.03207 -2.7129,-2.19677 -2.71577,-2.29128 -0.30223,-9.94792 2.34464,-7.43806 2.34611,-7.79631 0.0388,-9.48343 -2.19246,-1.60316 -2.24555,-2.34758 -0.61978,-8.69098 1.31157,-5.1175 1.37782,-7.07104 0.2525,-7.44615 -2.10071,-0.70024 -1.91166,-4.01145 0.65993,-11.55864 2.02509,-5.94332 2.02509,-6.50381 0,-7.6371 -2.72041,-1.52242 -2.77843,-5.74137 -0.18024,-13.10543 1.83545,-5.2022 1.81429,-5.82311 -0.24988,-7.33246 -2.01102,-1.4705 -2.07581,-2.45028 -0.59854,-9.05143 1.29249,-5.77544 1.30454,-7.96616 0.0548,-9.96726 -2.13707,-3.42198 -1.00134,-7.27455 5.19844,-17.63397 4.37242,-7.30603 5.45071,-10.65529 6.86827,-21.33333 0.92486,-6.96667 2.45172,-15.06667 3.39302,-18.000003 0.9413,-2.933333 2.7172,-11.107942 3.94645,-18.165798 2.07373,-11.906619 5.46518,-24.077227 10.6804,-38.327895 5.62839,-15.379665 14.3273,-26.8151184 23.99697,-31.5460487 8.40135,-4.11039454 11.62037,-3.61890816 19.2889,2.945066 14.6598,12.5482477 22.39458,32.8367357 34.06116,89.3431707 1.84511,8.936668 3.35474,18.266668 3.35474,20.733328 0,2.46667 0.52679,5.05484 1.17065,5.75151 2.48682,2.69081 9.21189,16.1376 10.07994,20.15486 0.66546,3.07972 0.37126,4.52425 -1.08771,5.34074 -1.7584,0.98405 -1.70685,2.00384 0.42688,8.44513 2.13439,6.44326 2.19238,7.59339 0.48126,9.54575 -1.71048,1.95164 -1.6575,3.13351 0.43855,9.78294 l 2.38407,7.56313 -2.99131,2.25635 c -2.83382,2.13755 -2.88418,2.4711 -0.95653,6.33517 3.66359,7.34385 4.0078,12.08348 0.99466,13.69606 -2.64986,1.41816 -2.6513,1.48319 -0.14208,6.40487 3.21314,6.30239 3.22391,10.62213 0.0314,12.61586 -2.44307,1.52572 -2.44378,1.69497 -0.0293,7.0113 2.62182,5.77282 3.24461,10.1145 1.45087,10.1145 -0.59506,0 -2.39506,1.22337 -4,2.7186 -2.82199,2.62909 -2.91809,3.63576 -2.91809,30.56989 v 27.85129 l 3.5074,2.75892 c 1.92907,1.5174 5.97907,3.41072 9,4.20738 3.02093,0.79665 9.69261,2.82304 14.82594,4.5031 5.13333,1.68005 13.83333,4.39867 19.33333,6.04139 5.5,1.64271 27.1,8.36679 48.00001,14.94241 l 38,11.95565 24,1.85076 c 13.2,1.01792 24.71726,1.86948 25.59391,1.89235 0.87665,0.0229 2.38122,-1.60108 3.34349,-3.60878 2.60548,-5.43615 5.89157,-5.3569 9.18288,0.22146 2.53307,4.29323 3.37755,4.76224 8.57469,4.76224 5.4062,0 5.86072,-0.29036 7.30503,-4.66667 2.08285,-6.3111 5.70999,-6.1751 8.89019,0.33333 2.37158,4.85353 2.65285,5 9.60151,5 7.00479,0 7.19071,-0.10011 8.66666,-4.66666 1.03668,-3.20744 2.31565,-4.66667 4.09022,-4.66667 1.83536,0 2.92574,1.34934 3.77104,4.66667 0.65403,2.56666 1.59217,5.07343 2.08476,5.57058 0.77053,0.77767 32.1503,3.55351 65.5623,5.79961 5.5,0.36973 26.2,1.85916 46,3.30984 19.8,1.45068 41.1,2.95935 47.3333,3.35261 6.2334,0.39326 14.6334,1.00317 18.6667,1.35537 4.0333,0.35219 16.6333,1.23717 28,1.96663 11.3667,0.72945 24.2667,1.62749 28.6667,1.99564 4.4,0.36814 18.2,1.27924 30.6666,2.02466 12.4667,0.74542 26.2667,1.61847 30.6667,1.94011 4.4,0.32164 14.6,0.93114 22.6667,1.35444 27.9829,1.4684 46.4901,3.59361 49.9579,5.73673 9.3044,5.7503 13.487,12.22411 16.6457,25.76395 1.059,4.53976 2.6263,8.68722 3.4828,9.21657 1.6083,0.994 1.3008,5.33652 -1.271,17.94658 -0.7478,3.66667 -2.3142,14.46667 -3.4809,24 -4.1662,34.04323 -11.6648,72.94432 -14.4646,75.03901 -0.8451,0.6323 -14.1366,3.42142 -29.5366,6.19804 -15.4,2.77661 -40.3,7.41443 -55.3333,10.30625 -15.0334,2.89183 -32.4334,6.13348 -38.6667,7.20367 -24.2296,4.15997 -101.4647,18.76359 -140.6667,26.59729 -9.2689,1.8522 -48.5647,9.08703 -61.3333,11.29221 -12.2697,2.11901 -64.95152,12.03419 -102.66668,19.32276 -70.80599,13.68348 -93.34617,18.0069 -97.33334,18.66947 -2.2,0.36559 -19.48058,3.67369 -38.4013,7.35133 -18.92071,3.67765 -34.94983,6.68663 -35.62027,6.68663 -0.67044,0 -3.3752,1.89319 -6.01059,4.20709 -10.13181,8.89584 -13.64221,21.22612 -15.31472,53.7929 -0.6779,13.2 -1.53773,29.1 -1.91075,35.33333 -0.37301,6.23334 -1.03207,17.93334 -1.46458,26 -0.70853,13.21461 -3.48137,56.01866 -5.31195,82 -1.52801,21.68698 -3.26817,42.27674 -6.68358,79.08093 -1.96065,21.12785 -3.28793,38.69117 -2.94951,39.02959 0.33842,0.33842 14.952,2.95364 32.47462,5.8116 74.26549,12.11277 115.90846,18.80168 137.19264,22.03659 29.54604,4.49061 35.76143,6.32941 39.78191,11.76951 1.73639,2.3495 3.54692,5.3738 4.0234,6.7206 0.47648,1.3469 -0.043,13.0469 -1.1543,26 -3.62786,42.2839 -4.67891,46.9174 -11.66958,51.4449 -3.51594,2.2771 -23.95865,5.3046 -90.98144,13.4738 -119.28692,14.5396 -126.64914,15.5414 -128.15137,17.4373 -0.81659,1.0306 -2.20834,6.5211 -3.09279,12.2011 -0.88445,5.6801 -3.36633,21.1188 -5.5153,34.3084 -2.14897,13.1895 -3.90721,26.7967 -3.90721,30.2381 0,6.7936 -3.21838,12.1181 -5.77778,9.5587 z"
       id="path1" />
  </g>
</svg>
