<?xml version="1.0" encoding="UTF-8" standalone="no"?>
<!-- Created with Inkscape (http://www.inkscape.org/) -->

<svg
   version="1.1"
   id="svg1"
   width="1386.6667"
   height="1346.6667"
   viewBox="0 0 1386.6667 1346.6667"
   sodipodi:docname="FBu44-Fireflyb.svg"
   inkscape:version="1.3.2 (091e20e, 2023-11-25, custom)"
   xmlns:inkscape="http://www.inkscape.org/namespaces/inkscape"
   xmlns:sodipodi="http://sodipodi.sourceforge.net/DTD/sodipodi-0.dtd"
   xmlns="http://www.w3.org/2000/svg"
   xmlns:svg="http://www.w3.org/2000/svg">
  <defs
     id="defs1" />
  <sodipodi:namedview
     id="namedview1"
     pagecolor="#ffffff"
     bordercolor="#000000"
     borderopacity="0.25"
     inkscape:showpageshadow="2"
     inkscape:pageopacity="0.0"
     inkscape:pagecheckerboard="0"
     inkscape:deskcolor="#d1d1d1"
     inkscape:zoom="0.35048075"
     inkscape:cx="693.33337"
     inkscape:cy="671.9342"
     inkscape:window-width="1600"
     inkscape:window-height="837"
     inkscape:window-x="-8"
     inkscape:window-y="-8"
     inkscape:window-maximized="1"
     inkscape:current-layer="g1" />
  <g
     inkscape:groupmode="layer"
     inkscape:label="Image"
     id="g1">
    <path
       style="fill:#000000"
       d="m 695.55426,1342.3334 c -0.40417,-1.65 -1.11156,-8.1 -1.57198,-14.3333 -0.46041,-6.2334 -1.07233,-12.2334 -1.35981,-13.3334 -0.28749,-1.1 -1.15512,-14.6 -1.92807,-30 -0.77296,-15.4 -1.79135,-32.5 -2.26311,-38 -0.47175,-5.5 -0.95897,-13 -1.08272,-16.6666 -0.12375,-3.6667 -0.32779,-9.252 -0.45343,-12.4117 l -0.22843,-5.7451 -70.33334,0.3592 c -73.95193,0.3777 -82.5186,-0.1203 -107.00001,-6.2198 -4.76666,-1.1876 -10.90282,-2.7194 -13.63589,-3.4041 -6.31184,-1.5811 -21.12444,-8.6435 -29.76417,-14.191 -15.52399,-9.9677 -28.73147,-31.9018 -29.68908,-49.3055 -0.38441,-6.9864 0.11981,-11.3238 1.86003,-16 3.40495,-9.1497 11.38665,-20.273 17.29422,-24.1013 1.43086,-0.9272 4.34075,-2.8349 6.46644,-4.2393 2.12569,-1.4044 11.12569,-5.0926 20,-8.1959 8.87432,-3.1033 24.53512,-8.8476 34.80179,-12.7651 22.07571,-8.4234 27.65748,-10.5302 45.33333,-17.1111 7.33334,-2.7303 14.53334,-5.426 16,-5.9904 1.46667,-0.5645 5.36667,-2.0588 8.66667,-3.3206 3.3,-1.2618 7.97036,-3.1336 10.37857,-4.1596 2.40821,-1.026 5.10821,-1.8691 6,-1.8736 0.89179,-0 3.12143,-0.79 4.95477,-1.7455 1.83333,-0.9554 8.13333,-3.4531 14,-5.5502 5.86666,-2.0972 11.26666,-4.1963 12,-4.6647 0.73333,-0.4683 7.49321,-2.9071 15.02194,-5.4195 l 13.68862,-4.5681 -0.76007,-14.0219 c -0.41804,-7.71204 -1.28966,-17.62191 -1.93694,-22.02191 -0.64727,-4.4 -1.53525,-14 -1.97329,-21.33333 -1.15106,-19.27048 -3.23492,-49.4471 -4.74181,-68.66667 -1.41356,-18.02927 -1.90054,-25.97754 -3.96205,-64.66667 -0.74242,-13.93334 -1.63144,-27.13334 -1.97559,-29.33334 -0.34416,-2.2 -0.97002,-13.6 -1.39082,-25.33333 -1.14845,-32.02331 -2.67668,-49.90669 -4.41318,-51.64319 -0.85625,-0.85625 -1.55681,-2.61904 -1.55681,-3.9173 0,-4.83894 -6.84076,-17.06978 -12.98329,-23.21329 -3.49253,-3.49308 -9.37309,-8.28519 -13.06792,-10.64914 -7.31372,-4.67931 -6.86891,-4.60953 -59.28213,-9.29948 -12.1,-1.08272 -28,-2.59793 -35.33334,-3.36716 -21.31181,-2.23548 -94.53315,-8.99748 -103.30913,-9.54062 l -5.97579,-0.36983 -1.00983,8 c -1.31326,10.40384 -3.39868,15.33333 -6.48677,15.33333 -3.75305,0 -9.15009,-11.83472 -9.19824,-20.17007 -0.0111,-1.92687 -0.77024,-4.0798 -1.68691,-4.78429 -0.91667,-0.70448 -9.76667,-2.02933 -19.66667,-2.9441 -66.40987,-6.13636 -109.42506,-12.1103 -144.66667,-20.09127 -2.93334,-0.66429 -11.03334,-2.48133 -18,-4.03785 -14.18654,-3.16962 -14.91,-3.3522 -40.00001,-10.09496 -17.44472,-4.68814 -57.8595,-17.62145 -65.99564,-21.11955 -2.2024,-0.94692 -9.404361,-3.99328 -16.004362,-6.7697 -30.284291,-12.73969 -66.99019,-31.955 -76.149003,-39.86354 L 6.0000004,550.98143 4.2546463,523.82406 C 0.16258298,460.15237 1.1547932,395.22802 6.3544449,386.42571 10.797589,378.90407 23.036768,374.26346 44.092789,372.11684 c 6.915634,-0.70504 36.573882,-1.94403 65.907221,-2.75332 74.48482,-2.05499 72.38224,-1.96796 73.45463,-3.04035 0.53208,-0.53208 1.18313,-11.02246 1.44678,-23.31195 0.60654,-28.27277 2.33098,-40.26279 7.14185,-49.65721 5.60662,-10.94835 17.12746,-20.06249 25.27033,-19.99138 10.7297,0.0937 24.1913,12.83225 29.22533,27.65556 2.6304,7.7455 3.15111,12.61221 3.78293,35.35633 0.40297,14.50597 1.23073,26.68231 1.83945,27.05852 1.76478,1.09069 88.27523,-2.28608 90.66172,-3.53881 1.53026,-0.80327 2.43063,-3.95247 3.10105,-10.8464 0.51959,-5.34296 2.22861,-13.91448 3.79781,-19.04781 2.00661,-6.5642 2.86671,-12.97171 2.89895,-21.59645 0.0485,-12.981 1.22381,-15.93401 5.76767,-14.49184 3.50003,1.11087 4.23814,4.36196 4.25997,18.76376 0.01,6.60484 0.67466,14.10484 1.477,16.66667 0.80233,2.56182 1.85233,10.05786 2.33333,16.65786 l 0.87454,12 4.83035,0.40371 c 5.61356,0.46916 6.13991,-0.36409 7.27524,-11.51715 0.42288,-4.15427 1.24863,-8.75323 1.83498,-10.21989 2.92884,-7.32595 4.60647,-18.48678 4.34434,-28.90164 -0.23053,-9.15942 0.15822,-12.01768 1.86694,-13.7264 1.86895,-1.86895 2.53074,-1.91068 4.93937,-0.3114 3.62869,2.40936 5.03618,7.99615 4.09875,16.26922 -0.4709,4.15585 0.10387,10.43976 1.52478,16.67022 1.25433,5.5 2.70889,14.35225 3.23237,19.67167 0.52348,5.31941 1.31869,10.03857 1.76713,10.48701 0.44844,0.44845 15.09619,0.2962 32.55055,-0.33833 l 31.73521,-1.15369 1.33333,-16.94505 c 0.73334,-9.31977 1.93334,-17.53599 2.66667,-18.25825 0.73333,-0.72226 7.93333,-1.61803 16,-1.99059 8.06667,-0.37257 31.46667,-1.5795 52,-2.68207 20.53334,-1.10257 51.039,-2.4275 67.79036,-2.94429 20.06649,-0.61907 30.6042,-1.43546 30.88842,-2.39302 0.23727,-0.79937 0.78423,-14.40132 1.21546,-30.22655 l 0.78405,-28.77316 -3.00581,0.10649 c -2.97705,0.10547 -3.00446,-0.0593 -2.8658,-17.22685 0.077,-9.53333 0.53979,-23.33333 1.02843,-30.66666 0.48864,-7.33334 1.17967,-18.43334 1.53563,-24.66667 1.29042,-22.59689 1.8149,-30.26989 3.09874,-45.33334 0.71877,-8.43333 1.35717,-15.72656 1.41869,-16.20718 0.0615,-0.48062 2.07491,-3.2235 4.47423,-6.09528 3.84967,-4.60777 4.72706,-7.24741 7.46525,-22.459491 3.30252,-18.347173 7.63887,-35.085237 9.63003,-37.171386 0.66495,-0.696667 1.209,-2.359985 1.209,-3.696263 0,-2.969592 9.85767,-22.821017 14.08342,-28.361265 1.68682,-2.211532 3.67085,-5.609346 4.40895,-7.550699 0.7381,-1.9413531 3.48795,-5.1665291 6.11078,-7.1670582 12.35874,-9.4264737 26.45543,2.5814967 40.24265,34.2798692 3.29221,7.569146 6.88845,17.362083 7.99166,21.762083 1.1032,4.400001 2.60927,10.400001 3.34681,13.333334 0.73754,2.933334 2.15183,11.463091 3.14286,18.955017 1.45637,11.009739 2.48331,14.515099 5.35569,18.280969 4.29025,5.62481 7.69835,22.2721 5.54982,27.10874 -0.95312,2.14559 -0.847,3.92831 0.36908,6.20058 0.93873,1.75405 1.79895,7.29892 1.91158,12.32194 0.11264,5.02302 0.5828,9.73276 1.04481,10.46609 1.26661,2.01045 3.14984,33.53683 2.24645,37.60707 -0.12934,0.58278 0.49277,2.83033 1.38247,4.99455 0.8897,2.16423 1.57377,7.86423 1.52015,12.66667 -0.0536,4.80244 0.27058,12.52071 0.72046,17.1517 1.16082,11.94934 0.18118,14.91335 -4.92902,14.91335 -3.05996,0 -3.92562,0.49939 -3.371,1.94471 0.41044,1.06959 1.14977,13.81959 1.64294,28.33333 0.49318,14.51375 0.97156,26.48354 1.06307,26.59953 0.0915,0.11599 16.96638,0.88224 37.49971,1.70278 20.53333,0.82053 48.43334,2.09729 62,2.83723 13.56667,0.73994 32.16667,1.29228 41.33334,1.2274 9.16667,-0.0649 17.44728,-0.0865 18.40137,-0.0481 3.41922,0.13762 5.59863,8.94108 5.59863,22.61498 0,7.3136 0.45,13.57137 1,13.90615 2.0471,1.24602 30.99248,3.44846 50.27598,3.82547 l 19.94264,0.38989 0.95729,-4 c 0.52651,-2.2 1.71588,-7.6 2.64305,-12 0.92717,-4.4 2.4722,-9.93073 3.43342,-12.29051 1.0771,-2.64437 1.7476,-9.94506 1.7476,-19.02858 0,-14.37961 0.08,-14.77459 3.2939,-16.23886 6.0062,-2.7366 7.3676,0.0901 7.4116,15.38788 0.026,9.17021 0.8696,16.49843 2.6279,22.83674 1.4239,5.13333 2.6065,11.50833 2.6278,14.16666 0.075,9.39203 1.4694,13.34248 4.5526,12.90242 2.346,-0.33482 3.1864,-2.08215 5.0033,-10.40242 1.201,-5.5 3.2064,-13.6 4.4565,-18 1.5673,-5.51678 2.2071,-12.24534 2.0611,-21.67689 -0.2038,-13.16576 -0.096,-13.72046 2.8768,-14.84245 1.8025,-0.68021 4.0601,-0.65642 5.4219,0.0571 1.9742,1.03454 2.3386,3.21596 2.3675,14.17578 0.021,7.954 1.037,17.32706 2.6325,24.28642 1.429,6.23334 2.6136,14.74793 2.6324,18.92132 0.019,4.17338 0.6703,7.98111 1.4478,8.46161 1.7647,1.09064 39.3187,3.0325 65.9198,3.40861 l 20,0.28279 0.8269,-25.8705 c 0.7485,-23.41818 1.1514,-26.72057 4.2506,-34.83825 1.8831,-4.93226 4.0519,-9.73226 4.8197,-10.66667 0.7677,-0.9344 2.9804,-3.67522 4.9171,-6.09071 6.8691,-8.56761 19.8687,-12.11895 28.2519,-7.71809 5.2222,2.74149 12.8538,11.19296 16.353,18.10989 5.1753,10.22992 6.7078,19.5491 7.5161,45.70411 0.4256,13.77059 1.1967,25.29879 1.7135,25.61822 0.5169,0.31944 15.8823,1.20007 34.1455,1.95696 99.9582,4.14265 95.0234,3.80283 109.8723,7.566 7.7,1.95141 14.9,4.24351 16,5.09355 1.1,0.85005 3.6284,2.23884 5.6187,3.08621 2.2444,0.9556 4.9082,4.08552 7.0144,8.24198 5.3147,10.48798 6.3972,30.56041 5.3965,100.06632 -0.7461,51.82768 -1.1188,59.502 -2.9459,60.66667 -3.9434,2.5137 -21.1418,13.3327 -23.7799,14.95922 -1.4504,0.89424 -5.4871,2.99073 -8.9704,4.65887 -3.4834,1.66813 -6.3334,3.48648 -6.3334,4.04077 0,0.55429 -0.6377,1.00781 -1.4172,1.00781 -0.7795,0 -4.5295,1.45423 -8.3334,3.23164 -6.6547,3.10955 -10.5001,4.83155 -30.916,13.84449 -16.9171,7.46834 -34.6053,13.63805 -64,22.32345 -3.6667,1.08341 -10.2667,3.10628 -14.6667,4.49526 -13.6991,4.32452 -40.9262,11.03159 -65.3333,16.09411 -4.4,0.91264 -11.6,2.48253 -16,3.48864 -4.4,1.0061 -13.1,2.42454 -19.3334,3.15209 -6.2333,0.72754 -20.0333,2.88722 -30.6666,4.79929 -10.6334,1.91207 -27.7334,4.35747 -38,5.43423 -10.2667,1.07676 -25.5667,2.67303 -34,3.54727 -8.4334,0.87424 -16.0834,2.07494 -17,2.66822 -0.9167,0.59328 -1.6757,3.29328 -1.6868,6 -0.026,6.34994 -3.10995,15.17707 -5.90612,16.90439 -3.04391,1.88037 -6.92938,-3.48305 -8.07953,-11.15281 -1.73315,-11.55746 -2.06624,-11.88425 -10.88116,-10.67502 -4.27887,0.58697 -14.97977,1.68916 -23.77977,2.44931 -8.8,0.76014 -26.2,2.29097 -38.66667,3.40183 -29.96071,2.66971 -33.15102,2.94649 -52.66667,4.56923 -9.16666,0.76221 -19.06666,1.69173 -22,2.06559 -2.93333,0.37387 -15.69416,1.57273 -28.3574,2.66415 -14.37528,1.23897 -24.49272,2.74386 -26.93379,4.00618 -2.15034,1.11199 -4.75248,2.02179 -5.78252,2.02179 -3.01874,0 -15.06219,13.65167 -18.33031,20.77804 -6.44686,14.05785 -8.12295,22.00829 -9.39302,44.5553 -1.26852,22.51953 -2.56576,46.14018 -5.05264,92.00001 -0.77546,14.3 -1.75643,31.1 -2.17994,37.33333 -3.90866,57.52899 -5.79976,83.26179 -9.46925,128.85105 -0.85447,10.6158 -0.80433,10.8726 2.31273,11.8406 1.75237,0.5443 5.58614,2.0388 8.51947,3.3211 2.93333,1.2823 10.73333,4.2526 17.33333,6.6005 10.09641,3.5918 19.06127,7.1062 37.33334,14.6354 1.46667,0.6043 5.06667,1.9911 8,3.0818 23.81094,8.8531 73.73526,28.074 94.69623,36.458 8.08292,3.233 15.59942,5.8782 16.70332,5.8782 1.10391,0 3.19061,0.8044 4.63712,1.7876 1.4465,0.9832 5.86819,2.9332 9.82596,4.3333 9.19728,3.2538 14.63534,8.3708 20.41804,19.2125 5.65126,10.5952 6.52591,15.564 4.9496,28.1178 -3.91086,31.1462 -28.79848,52.4582 -71.89693,61.5675 -21.32374,4.507 -30.48679,4.9857 -96.00001,5.015 -36.3,0.016 -68.82432,0.3891 -72.27626,0.8288 -8.05097,1.0253 -6.80086,-8.165 -11.76231,86.4709 -1.20155,22.9186 -2.86927,38.6327 -4.7758,45 -1.01161,3.3785 -5.42154,2.9117 -6.29808,-0.6667 z"
       id="path1" />
  </g>
</svg>
