<?xml version="1.0" encoding="UTF-8" standalone="no"?>
<!-- Created with Inkscape (http://www.inkscape.org/) -->

<svg
   version="1.1"
   id="svg1"
   width="1386.6667"
   height="805.33331"
   viewBox="0 0 1386.6667 805.33331"
   sodipodi:docname="Waco CG-4A.svg"
   inkscape:version="1.3.2 (091e20e, 2023-11-25, custom)"
   xmlns:inkscape="http://www.inkscape.org/namespaces/inkscape"
   xmlns:sodipodi="http://sodipodi.sourceforge.net/DTD/sodipodi-0.dtd"
   xmlns="http://www.w3.org/2000/svg"
   xmlns:svg="http://www.w3.org/2000/svg">
  <defs
     id="defs1" />
  <sodipodi:namedview
     id="namedview1"
     pagecolor="#ffffff"
     bordercolor="#000000"
     borderopacity="0.25"
     inkscape:showpageshadow="2"
     inkscape:pageopacity="0.0"
     inkscape:pagecheckerboard="0"
     inkscape:deskcolor="#d1d1d1"
     inkscape:zoom="0.35048075"
     inkscape:cx="693.33337"
     inkscape:cy="403.73116"
     inkscape:window-width="1600"
     inkscape:window-height="837"
     inkscape:window-x="-8"
     inkscape:window-y="-8"
     inkscape:window-maximized="1"
     inkscape:current-layer="g1" />
  <g
     inkscape:groupmode="layer"
     inkscape:label="Image"
     id="g1">
    <path
       style="fill:#000000"
       d="m 690.78093,799.77138 c -0.69156,-1.7076 -2.5616,-12.70473 -4.15565,-24.43807 -1.59405,-11.73333 -3.28684,-21.93333 -3.76176,-22.66666 -0.47491,-0.73334 -1.16348,4.06666 -1.53015,10.66666 l -0.66666,12 -69.70985,0.34525 c -58.32395,0.28886 -70.3119,0.0339 -73.39596,-1.56092 -4.39037,-2.27035 -16.76205,-24.22333 -22.23273,-39.45099 -4.36204,-12.14174 -5.77209,-28.47915 -3.33483,-38.63878 2.11483,-8.81561 10.19284,-17.73452 18.00669,-19.88116 3.54866,-0.9749 27.97641,-1.46768 73.00001,-1.47262 37.21666,-0.004 67.66667,-0.19398 67.66667,-0.42197 0,-0.228 -1.20682,-9.078 -2.68181,-19.66667 -16.41367,-117.83021 -23.19653,-181.21615 -26.60086,-248.58546 -0.74114,-14.66667 -1.71173,-32.21667 -2.15687,-39 l -0.80933,-12.33333 H 346.63619 l -291.781643,0 -9.093939,-10.11873 C 24.678702,321.09034 12.803207,300.90889 7.1584167,278.94661 2.997385,262.75722 1.2821549,230.07014 3.9906665,218.5789 7.6473386,203.06495 17.574846,189.41119 29.946473,182.88067 l 6.720196,-3.54734 301.000021,-0.34764 301.00001,-0.34763 v -42.58408 c 0,-30.58351 0.57728,-47.018319 2.04847,-58.319027 4.02178,-30.892751 13.03569,-68.8751173 17.15705,-72.2955374 1.23858,-1.0279307 12.41096,-1.3754702 36.29197,-1.1289351 l 34.50252,0.356186 4.19676,12.7285895 c 2.30822,7.000724 5.42221,18.700724 6.91996,25.999999 6.34479,30.921074 7.14288,39.895758 7.84844,88.257125 l 0.6855,46.98572 300.84133,0.34761 300.8414,0.34762 6.7202,3.54734 c 12.3716,6.53052 22.2991,20.18428 25.9558,35.69823 2.7085,11.49124 0.9933,44.17832 -3.1678,60.36771 -5.6448,21.96228 -17.5203,42.14373 -38.6022,65.60132 l -9.0939,10.11873 -291.9061,0 c -277.10096,0 -291.90818,0.11834 -291.94785,2.33333 -0.0646,3.60396 -2.32675,41.26178 -3.90472,65 -3.40237,51.18358 -9.85547,114.11065 -17.4847,170.50106 -2.19505,16.22441 -4.54628,33.77014 -5.22496,38.99049 -0.67868,5.22036 -2.15869,15.67604 -3.2889,23.23485 -1.13021,7.55881 -2.05493,15.13761 -2.05493,16.84177 v 3.09849 h 67.76249 c 76.17917,0 76.78865,0.066 84.2845,9.12829 8.08199,9.77092 9.88505,24.22433 5.27204,42.26101 -3.28034,12.82601 -15.90542,38.92198 -21.91085,45.28958 l -4.4121,4.67819 -70.49804,-0.3452 -70.49804,-0.34521 -0.66667,-14 c -0.36666,-7.7 -1.05295,-13.4 -1.52509,-12.66666 -0.47213,0.73333 -2.15476,10.93333 -3.73918,22.66666 -3.57292,26.45908 -4.37173,30.32312 -6.40903,31.00222 -0.89197,0.29732 -2.18758,-0.85655 -2.87914,-2.56415 z"
       id="path1" />
  </g>
</svg>
