<?xml version="1.0" encoding="UTF-8" standalone="no"?>
<!-- Created with Inkscape (http://www.inkscape.org/) -->

<svg
   version="1.1"
   id="svg1"
   width="1386.6667"
   height="1062.6667"
   viewBox="0 0 1386.6667 1062.6667"
   sodipodi:docname="GLbr19.svg"
   inkscape:version="1.3.2 (091e20e, 2023-11-25, custom)"
   xmlns:inkscape="http://www.inkscape.org/namespaces/inkscape"
   xmlns:sodipodi="http://sodipodi.sourceforge.net/DTD/sodipodi-0.dtd"
   xmlns="http://www.w3.org/2000/svg"
   xmlns:svg="http://www.w3.org/2000/svg">
  <defs
     id="defs1" />
  <sodipodi:namedview
     id="namedview1"
     pagecolor="#ffffff"
     bordercolor="#000000"
     borderopacity="0.25"
     inkscape:showpageshadow="2"
     inkscape:pageopacity="0.0"
     inkscape:pagecheckerboard="0"
     inkscape:deskcolor="#d1d1d1"
     inkscape:zoom="0.35048075"
     inkscape:cx="693.33337"
     inkscape:cy="532.12623"
     inkscape:window-width="1600"
     inkscape:window-height="837"
     inkscape:window-x="-8"
     inkscape:window-y="-8"
     inkscape:window-maximized="1"
     inkscape:current-layer="g1" />
  <g
     inkscape:groupmode="layer"
     inkscape:label="Image"
     id="g1">
    <path
       style="fill:#000000"
       d="m 689.55643,1026.3334 c -1.62666,-15.5833 -3.00211,-30.73332 -3.05655,-33.66666 -0.0544,-2.93333 -0.55872,-6.83333 -1.12062,-8.66666 -0.91909,-2.99877 -1.56199,-2.1958 -6.40531,8 -2.96102,6.23333 -7.20385,15.38332 -9.42851,20.33332 l -4.04483,9 H 562.88844 460.27627 l -4.06424,-4.6289 c -12.10314,-13.7847 -32.21201,-55.23795 -32.21201,-66.40314 0,-2.04636 1.90112,-8.65041 4.22471,-14.67567 3.3952,-8.80404 5.70715,-12.43747 11.7748,-18.50513 12.43726,-12.43726 5.43197,-11.78716 127.01511,-11.78716 h 105.19728 l -0.71883,-3.66666 c -0.39536,-2.01667 -1.07563,-7.26667 -1.51173,-11.66667 -0.43609,-4.4 -3.78843,-29.9 -7.44965,-56.66667 -8.65651,-63.28665 -18.97185,-139.26586 -22.44653,-165.33335 -2.13925,-16.04895 -2.75444,-27.87358 -2.75329,-52.92131 8.1e-4,-17.74006 -0.48407,-32.55474 -1.07753,-32.92152 -0.59346,-0.36677 -133.85371,-1.33994 -296.1339,-2.16259 C 177.84028,579.17198 43.704202,577.98131 42.040298,577.3487 33.191664,573.98445 4.584398,523.66189 1.4345365,505.91978 -1.1053317,491.61356 -0.45203542,484.80363 4.4854673,474.11706 9.5853952,463.07893 16.615297,454.63753 24.555143,450.01768 c 3.499601,-2.03627 25.451709,-8.16994 61.444862,-17.16842 30.800005,-7.70016 104.000005,-26.10368 162.666675,-40.89671 58.66667,-14.79303 141.16668,-35.48862 183.33335,-45.9902 l 76.66667,-19.09377 64,-1.10094 64,-1.10095 0.96266,-125.33334 c 0.73187,-95.28562 1.46541,-131.406821 3.05971,-150.66668 3.37418,-40.761716 3.1493,-39.3370994 6.41649,-40.6481787 1.59196,-0.6388339 12.64448,-2.7271197 24.56115,-4.6406351 l 21.66666,-3.47911886 21.66667,3.47911886 c 11.91667,1.9135154 22.96919,4.0018012 24.56115,4.6406351 3.26719,1.3110793 3.04231,-0.1135373 6.41649,40.6481787 1.59429,19.259859 2.32784,55.38106 3.0597,150.66668 l 0.96266,125.33334 64.00001,1.10095 64,1.10094 76.66667,19.09377 c 42.16667,10.50158 124.66668,31.19717 183.33338,45.9902 58.6666,14.79303 131.8666,33.19655 162.6666,40.89671 35.9932,8.99848 57.9453,15.13215 61.4449,17.16842 7.9399,4.61985 14.9698,13.06125 20.0697,24.09938 4.9375,10.68657 5.5908,17.4965 3.0509,31.80272 -3.1498,17.74211 -31.7571,68.06467 -40.6058,71.42892 -1.6639,0.63261 -135.7999,1.82328 -298.0801,2.64593 -162.2802,0.82265 -295.54045,1.79582 -296.13391,2.16259 -0.59346,0.36678 -1.07835,15.18146 -1.07753,32.92152 0.001,25.04773 -0.61404,36.87236 -2.7533,52.92131 -3.47467,26.06749 -13.79001,102.0467 -22.44653,165.33335 -3.66121,26.76667 -7.01355,52.26667 -7.44965,56.66667 -0.43609,4.4 -1.11637,9.65 -1.51172,11.66667 l -0.71883,3.66666 h 105.19728 c 121.58314,0 114.57784,-0.6501 127.0151,11.78716 6.06766,6.06766 8.37961,9.70109 11.77481,18.50513 2.32359,6.02526 4.2247,12.62931 4.2247,14.67567 0,11.16519 -20.10886,52.61844 -32.21201,66.40314 l -4.06423,4.6289 H 823.77831 721.16614 l -4.04484,-9 c -2.22465,-4.95 -6.46748,-14.09999 -9.42851,-20.33332 -4.84331,-10.1958 -5.48622,-10.99877 -6.4053,-8 -0.5619,1.83333 -1.06618,5.73333 -1.12062,8.66666 -0.17293,9.31766 -5.97946,61.99996 -6.8335,61.99996 -0.45066,0 -2.15028,-12.75 -3.77694,-28.3333 z"
       id="path1" />
  </g>
</svg>
