<?xml version="1.0" encoding="UTF-8" standalone="no"?>
<!-- Created with Inkscape (http://www.inkscape.org/) -->

<svg
   version="1.1"
   id="svg1"
   width="1386.6667"
   height="712"
   viewBox="0 0 1386.6667 712"
   sodipodi:docname="GLge14.svg"
   inkscape:version="1.3.2 (091e20e, 2023-11-25, custom)"
   xmlns:inkscape="http://www.inkscape.org/namespaces/inkscape"
   xmlns:sodipodi="http://sodipodi.sourceforge.net/DTD/sodipodi-0.dtd"
   xmlns="http://www.w3.org/2000/svg"
   xmlns:svg="http://www.w3.org/2000/svg">
  <defs
     id="defs1" />
  <sodipodi:namedview
     id="namedview1"
     pagecolor="#ffffff"
     bordercolor="#000000"
     borderopacity="0.25"
     inkscape:showpageshadow="2"
     inkscape:pageopacity="0.0"
     inkscape:pagecheckerboard="0"
     inkscape:deskcolor="#d1d1d1"
     inkscape:zoom="0.35048075"
     inkscape:cx="693.33337"
     inkscape:cy="355.22636"
     inkscape:window-width="1600"
     inkscape:window-height="837"
     inkscape:window-x="-8"
     inkscape:window-y="-8"
     inkscape:window-maximized="1"
     inkscape:current-layer="g1" />
  <g
     inkscape:groupmode="layer"
     inkscape:label="Image"
     id="g1">
    <path
       style="fill:#000000"
       d="m 688.7386,701.66667 c -0.49799,-4.95 -1.76789,-15.78073 -2.822,-24.06829 -1.05411,-8.28756 -1.91656,-19.05756 -1.91656,-23.93334 0,-11.00599 -1.04469,-10.14445 -7.73844,6.38174 -3.59605,8.8783 -6.07265,13.13393 -8.35322,14.35367 -6.23733,3.33599 -39.21906,0.25377 -52.2241,-4.88047 -2.007,-0.79233 -8.90501,-2.09374 -15.32891,-2.892 -20.95704,-2.60422 -34.53047,-12.21138 -37.17591,-26.31281 -1.3786,-7.34855 0.60734,-24.82951 3.84909,-33.88094 3.64824,-10.18644 5.01412,-11.07099 30.61803,-19.82838 10.46107,-3.57804 21.72012,-7.49539 25.02012,-8.70522 3.3,-1.20984 9.6,-3.31883 14,-4.68665 12.75584,-3.96539 41.95158,-14.05444 42.62788,-14.73074 0.33945,-0.33945 0.0267,-9.28705 -0.69505,-19.88355 -1.25547,-18.43301 -2.22336,-33.84376 -5.19171,-82.6617 -0.94504,-15.54246 -1.98776,-23.35756 -3.52853,-26.4461 -1.60893,-3.22517 -1.79392,-4.77722 -0.69982,-5.87132 3.19524,-3.19524 0.41853,-56.0953 -3.24571,-61.83491 -1.01159,-1.58456 -3.81052,-3.5134 -6.21983,-4.28631 -4.3702,-1.40197 -31.28494,-4.56093 -59.02092,-6.92722 -8.0522,-0.68697 -24.25221,-2.40747 -36.00001,-3.82334 -23.99331,-2.8917 -50.1096,-5.76551 -80.69297,-8.87937 -11.36667,-1.1573 -25.16667,-2.62154 -30.66667,-3.25388 -12.92481,-1.48595 -62.35746,-6.76303 -111.33334,-11.88515 -59.60279,-6.23354 -99.16972,-10.51605 -124.00001,-13.4211 -12.46666,-1.45856 -39.03537,-4.16982 -59.04157,-6.02503 C 52.542787,293.41613 23.826489,287.62136 9.2865462,273.08142 2.2495001,266.04437 0.0104778,261.37602 0.00498408,253.7294 -7.088809e-4,245.80546 1.6191039,241.42659 7.1732842,234.3512 15.854806,223.29193 27.373572,220.7648 84.666672,217.34973 c 40.637268,-2.42226 71.103948,-4.37721 92.666668,-5.94611 4.76667,-0.34682 19.76667,-1.23775 33.33334,-1.97983 13.56667,-0.74209 33.36667,-1.96031 44,-2.70715 23.80179,-1.67173 34.22459,-2.32861 64.00001,-4.03347 12.83333,-0.73481 25.15411,-1.64207 27.3795,-2.01614 2.2254,-0.37406 17.8254,-1.28508 34.66667,-2.02448 16.84127,-0.7394 34.2205,-1.61917 38.6205,-1.95503 29.4296,-2.24646 46.88378,-3.46547 67.33334,-4.70257 12.83333,-0.77636 24.83333,-1.66979 26.66666,-1.98539 1.83334,-0.31561 12.33334,-0.9018 23.33334,-1.30265 11,-0.40085 22.7,-1.02748 26,-1.39251 10.76109,-1.19034 56.26833,-4.55631 73.33334,-5.42414 9.16666,-0.46617 17.67722,-1.37993 18.91234,-2.03059 1.23513,-0.65065 4.32093,-1.183 6.85735,-1.183 2.53642,0 4.87337,-0.75 5.19323,-1.66667 1.07606,-3.08382 -0.28971,-60.25999 -1.61144,-67.46135 -0.82123,-4.47441 -0.84163,-7.99996 -0.0548,-9.47017 0.68941,-1.288177 1.58925,-9.480568 1.99964,-18.205311 2.20917,-46.966478 7.04172,-74.6715167 13.98115,-80.1540978 2.52762,-1.99698143 11.31872,-2.19740319 14.79438,-0.3372863 2.75775,1.4759027 7.49363,10.7889641 8.79482,17.2949161 0.44,2.199981 1.58959,3.999966 2.55464,3.999966 3.00321,0 3.48012,2.44655 1.93126,9.907367 -1.20007,5.780708 -1.06117,10.053559 0.70371,21.64748 2.08608,13.703863 3.35072,54.321346 3.29619,105.866106 l -0.0191,18.08763 17.66666,1.61346 c 9.71667,0.8874 27.26667,2.20005 39.00001,2.91699 11.73333,0.71694 29.73333,1.90488 40,2.63986 10.26666,0.73498 36.36667,2.23069 58,3.3238 21.63334,1.09311 58.23334,3.16098 81.33334,4.59525 48.31577,2.99993 75.73661,4.62255 125.33331,7.41657 19.4334,1.09477 44.3334,2.58334 55.3334,3.30793 24.3655,1.605 55.7829,3.49745 88.6666,5.34089 39.4305,2.21046 47.7177,2.72955 64.6667,4.05063 8.8,0.6859 26.8,1.89899 40,2.69574 39.8844,2.40742 52.0714,7.04439 60.132,22.87931 8.0634,15.84034 -0.028,32.36124 -19.5323,39.88105 -15.298,5.89806 -41.6478,10.78407 -74.5997,13.83288 -12.1,1.11954 -31.6,3.22139 -43.3333,4.67078 -11.7334,1.4494 -30.646,3.54629 -42.0281,4.65976 -23.0497,2.25486 -46.0236,4.70509 -73.9719,7.88926 -17.5238,1.9965 -45.9334,5.0355 -89.3334,9.55604 -10.2666,1.06938 -30.0666,3.20471 -43.99997,4.74517 -34.69525,3.83589 -44.4123,4.85966 -60.66668,6.39172 -7.7,0.72577 -21.5,2.26224 -30.66666,3.41439 -22.48896,2.82661 -36.41052,4.34958 -54.66667,5.98034 -8.43334,0.75332 -19.98334,1.96665 -25.66667,2.6963 -5.68334,0.72965 -15.18435,1.95173 -21.11338,2.71574 -5.92902,0.76402 -25.27902,2.84629 -43,4.62727 -17.72098,1.78098 -34.38002,3.85925 -37.02008,4.61837 -8.65517,2.48869 -9.14627,3.8443 -11.18714,30.88035 -2.49876,33.10207 -4.75437,68.9956 -6.77548,107.81823 -0.47721,9.16667 -1.02957,19.66667 -1.22745,23.33334 -0.19788,3.66666 -0.79609,14.76666 -1.32935,24.66666 l -0.96956,18 28.47788,9.18414 c 56.23894,18.1371 72.52441,23.65626 75.46074,25.5737 6.36492,4.15635 12.35048,22.76349 12.35048,38.39356 0,10.32467 -1.80883,14.64849 -8.63562,20.64249 -8.46595,7.4332 -13.93476,9.50573 -30.69771,11.63362 -3.66667,0.46545 -9.96667,1.9398 -14,3.27635 -16.15365,5.35291 -46.02649,8.49307 -51.73455,5.43821 -3.20499,-1.71526 -6.73266,-7.94526 -11.08347,-19.57385 -3.27882,-8.76343 -5.12097,-7.77929 -5.17584,2.76512 -0.0349,6.70794 -3.23728,39.69201 -4.75734,49 -1.24739,7.63832 -2.8394,5.98152 -3.84358,-4 z"
       id="path1" />
  </g>
</svg>
