<?xml version="1.0" encoding="UTF-8" standalone="no"?>
<!-- Created with Inkscape (http://www.inkscape.org/) -->

<svg
   version="1.1"
   id="svg1"
   width="1386.6667"
   height="885.33331"
   viewBox="0 0 1386.6667 885.33331"
   sodipodi:docname="GLge19.svg"
   inkscape:version="1.3.2 (091e20e, 2023-11-25, custom)"
   xmlns:inkscape="http://www.inkscape.org/namespaces/inkscape"
   xmlns:sodipodi="http://sodipodi.sourceforge.net/DTD/sodipodi-0.dtd"
   xmlns="http://www.w3.org/2000/svg"
   xmlns:svg="http://www.w3.org/2000/svg">
  <defs
     id="defs1" />
  <sodipodi:namedview
     id="namedview1"
     pagecolor="#ffffff"
     bordercolor="#000000"
     borderopacity="0.25"
     inkscape:showpageshadow="2"
     inkscape:pageopacity="0.0"
     inkscape:pagecheckerboard="0"
     inkscape:deskcolor="#d1d1d1"
     inkscape:zoom="0.35048075"
     inkscape:cx="693.33337"
     inkscape:cy="443.67629"
     inkscape:window-width="1600"
     inkscape:window-height="837"
     inkscape:window-x="-8"
     inkscape:window-y="-8"
     inkscape:window-maximized="1"
     inkscape:current-layer="g1" />
  <g
     inkscape:groupmode="layer"
     inkscape:label="Image"
     id="g1">
    <path
       style="fill:#000000"
       d="m 522.64354,880.63875 c -0.92565,-1.11535 -1.85665,-3.36535 -2.06888,-5 -0.21222,-1.63466 -0.72623,-5.3721 -1.14223,-8.30544 -0.416,-2.93333 -1.05347,-14.03333 -1.4166,-24.66666 -0.65905,-19.2987 -1.34089,-29.99951 -2.63369,-41.33334 -0.37642,-3.3 -1.06318,-13.79999 -1.52613,-23.33333 -0.46296,-9.53333 -1.00307,-19.73333 -1.20025,-22.66666 -0.39616,-5.89354 -1.49787,-27.73437 -2.79114,-55.33334 -0.46391,-9.9 -1.05329,-18.36045 -1.30974,-18.80101 -0.25645,-0.44056 -0.79301,-8.54056 -1.19236,-18 -0.39935,-9.45944 -1.04487,-24.69898 -1.43449,-33.86565 -0.38962,-9.16667 -0.93577,-18.76667 -1.21368,-21.33333 -0.78257,-7.22782 -2.12573,-31.0493 -2.70644,-48 -0.55083,-16.07832 -3.04134,-64.76961 -3.95554,-77.33333 -0.29348,-4.03334 -0.9491,-12.83718 -1.45693,-19.5641 l -0.92332,-12.23077 -6.16938,-0.81412 c -3.39316,-0.44777 -10.66938,-1.07929 -16.16938,-1.40338 -5.5,-0.32409 -13,-0.9417 -16.66667,-1.37246 -3.66666,-0.43076 -11.46666,-0.993 -17.33333,-1.24941 -39.85536,-1.74194 -97.85317,-6.76072 -122.59878,-10.60895 -6.63734,-1.03219 -19.5679,-2.55343 -28.73456,-3.38055 -9.16667,-0.82712 -23.26667,-2.39745 -31.33334,-3.48963 -43.82309,-5.93336 -44.87748,-6.0382 -46.57336,-4.63074 -1.46265,1.21389 -24.32024,-0.12856 -40.75998,-2.39388 -4.76666,-0.65683 -10.75399,-1.2561 -13.30517,-1.33172 -2.82509,-0.0837 -5.43141,-1.12648 -6.66667,-2.6672 -1.32602,-1.65393 -4.56691,-2.84062 -9.36149,-3.4278 -11.49265,-1.40748 -17.33098,-2.19263 -26.66667,-3.58621 -4.76667,-0.71155 -13.466667,-1.85302 -19.333334,-2.53661 -5.866667,-0.68359 -12.766668,-1.58775 -15.333335,-2.00925 -2.566667,-0.42149 -11.866667,-1.36568 -20.666668,-2.0982 -28.813372,-2.39845 -39.371294,-5.05739 -44.22243,-11.13713 -6.2858241,-7.87777 -12.6113858,-37.91599 -12.368544,-58.73456 0.099035,-8.49015 5.2481774,-21.47396 9.257638,-23.34356 9.065564,-4.22727 12.657777,-5.22116 22.000002,-6.08699 5.866667,-0.54372 12.766667,-1.10957 15.333334,-1.25746 2.566667,-0.14788 10.066667,-0.72457 16.666667,-1.28153 6.600001,-0.55695 15.300001,-1.1673 19.333335,-1.35632 4.033333,-0.18902 16.933335,-1.02426 28.666665,-1.85609 11.73334,-0.83184 33.1935,-2.34115 47.68924,-3.35404 16.31404,-1.13995 27.10887,-2.46652 28.33213,-3.48174 1.56651,-1.30008 2.8337,-1.28494 6.11212,0.073 3.23653,1.34062 5.48379,1.37942 10.33454,0.17845 3.40925,-0.84408 15.49865,-1.8001 26.86531,-2.12447 11.36667,-0.32438 21.56667,-0.91825 22.66667,-1.3197 1.91654,-0.69947 5.93824,-0.99622 37.33334,-2.75473 7.7,-0.43129 20.9,-1.37038 29.33333,-2.08687 12.81663,-1.08888 31.19658,-2.57572 57.33334,-4.63795 2.56667,-0.20252 12.16667,-0.75574 21.33333,-1.22939 9.16667,-0.47365 18.76667,-1.19954 21.33334,-1.61308 6.17958,-0.99566 13.44431,-1.53776 32.48139,-2.42379 8.69811,-0.40483 16.21495,-0.98341 16.70411,-1.28572 0.48916,-0.30232 6.27253,-0.903 12.85194,-1.33486 6.57941,-0.43185 15.56256,-1.06143 19.96256,-1.39907 10.21595,-0.78394 26.22616,-1.8556 40.66667,-2.72207 6.23334,-0.37401 13.43334,-0.99134 16,-1.37183 4.98083,-0.73838 17.00985,-1.76672 29.9038,-2.55644 16.11495,-0.98699 26.13009,-2.3499 26.94389,-3.66666 0.46043,-0.74499 1.02535,-8.33385 1.25537,-16.86415 0.23003,-8.53029 0.53445,-15.80962 0.67651,-16.17629 0.14205,-0.36667 0.36413,-3.06667 0.49351,-6 0.29647,-6.72175 1.76397,-23.88803 3.59047,-42 0.77651,-7.7 1.80524,-18.8 2.28608,-24.66666 0.48083,-5.86667 1.26373,-11.27016 1.73977,-12.00775 0.47605,-0.73759 1.26917,-6.73759 1.7625,-13.33333 0.49333,-6.59574 1.7204,-14.99226 2.72683,-18.65892 1.00642,-3.66667 2.18875,-10.223846 2.62741,-14.571507 0.43865,-4.347661 1.07294,-8.350427 1.40953,-8.895036 0.33658,-0.544608 0.81372,-2.687431 1.06029,-4.761828 0.24658,-2.074397 1.4878,-8.271631 2.75828,-13.771631 3.05031,-13.205038 5.82209,-26.380961 6.59149,-31.333332 0.3418,-2.2 1.23387,-6.1 1.98239,-8.666667 0.74851,-2.566666 2.1479,-7.366666 3.10975,-10.666666 2.51375,-8.6244484 4.09662,-10.7321102 8.50558,-11.3255857 2.15044,-0.2894628 8.10989,-1.1311393 13.24323,-1.8703923 13.09795,-1.8862401 31.77876,-1.904576 42,-0.041225 4.76667,0.8689725 10.18749,1.5031443 12.04627,1.4092708 2.39602,-0.1210057 4.0256,0.9229108 5.59926,3.5869186 1.96556,3.3274211 9.61014,30.0703331 11.12194,38.9076791 0.31362,1.833333 1.44681,7.233333 2.51818,12 4.48937,19.97367 11.25026,58.636801 13.29749,76.043681 0.3047,2.59069 0.91362,6.19069 1.35316,8 0.83338,3.43051 0.9022,4.05223 3.29642,29.78159 0.80994,8.70389 1.72593,16.23514 2.03554,16.73609 0.3096,0.50096 0.91907,10.71627 1.35436,22.7007 0.43529,11.98442 1.04328,22.19735 1.35108,22.69538 0.3078,0.49804 0.70711,5.52467 0.88734,11.17029 0.2322,7.27313 0.93167,10.80643 2.4,12.12329 2.28352,2.04795 18.00254,3.74688 57.40563,6.20449 29.30378,1.82771 31.28862,1.98802 37.33334,3.01528 2.56666,0.43618 11.56666,1.12812 20,1.53763 8.43333,0.40951 17.13333,1.02512 19.33333,1.36804 2.2,0.34291 11.39783,0.87131 20.43963,1.17423 9.04179,0.30292 16.79179,0.90294 17.22222,1.33337 0.43043,0.43043 4.7326,0.78713 9.56038,0.79267 4.82778,0.006 12.37778,0.58111 16.77778,1.27904 4.4,0.69793 15.2,1.58539 24,1.97213 8.80004,0.38675 18.40004,0.98435 21.33334,1.328 11.9041,1.39463 35.3026,3.13352 45.2909,3.36585 5.8433,0.13591 11.1154,0.55065 11.7157,0.92164 0.9249,0.57167 21.0349,2.11452 48.595,3.72824 3.8142,0.22333 9.5222,0.79405 12.6844,1.26826 3.1623,0.4742 11.7416,1.12193 19.0651,1.43938 7.3236,0.31746 18.6833,1.18842 25.2439,1.93546 10.5909,1.20598 12.2115,1.10202 14.4538,-0.9272 2.3914,-2.16423 2.6255,-2.14853 4.4129,0.2959 1.5865,2.16958 3.842,2.64487 14.1392,2.9795 6.7384,0.21898 14.3848,0.67175 16.992,1.00617 2.6073,0.33441 14.5121,1.23546 26.4553,2.00231 11.9432,0.76686 27.2432,1.99083 34,2.71995 6.7568,0.72911 18.8851,1.67654 26.9518,2.10539 34.9682,1.85903 48.8891,3.31307 51.9634,5.4276 1.4465,0.99494 3.6035,1.80898 4.7933,1.80898 3.2376,0 6.7402,4.55089 9.4711,12.30549 4.0775,11.57849 3.1818,31.10753 -2.4627,53.6945 -3.1663,12.67044 -6.4124,18.78313 -11.3463,21.3659 -5.9213,3.09971 -20.4306,5.80319 -42.4188,7.90381 -4.7667,0.45538 -10.4667,1.15646 -12.6667,1.55796 -2.2,0.4015 -8.5,1.22567 -14,1.83148 -57.1937,6.29975 -57.9835,6.4197 -61.7431,9.37705 -1.6749,1.31746 -5.7179,2.69412 -8.9844,3.05923 -3.2665,0.36512 -7.4391,0.98979 -9.2725,1.38816 -3.1764,0.69021 -13.5025,1.64194 -31.5955,2.91209 -4.5947,0.32255 -8.6181,0.004 -9.0642,-0.71775 -0.7726,-1.25019 -17.4723,-0.49036 -19.7276,0.8976 -0.8962,0.55146 -34.2459,4.42967 -56.2793,6.54465 -3.6667,0.35196 -9.3667,1.16579 -12.6667,1.80851 -3.3,0.64272 -8.6568,1.2523 -11.904,1.35463 -3.2473,0.10233 -6.3433,0.45751 -6.8802,0.78929 -0.5368,0.33178 -3.88,0.8945 -7.4292,1.2505 -3.5493,0.35599 -8.5533,0.90674 -11.1199,1.22389 -16.9405,2.09323 -91.32065,7.62587 -110.00004,8.18216 -7.33334,0.2184 -16.33334,0.73472 -20.00001,1.14738 -3.66666,0.41266 -11.76666,1.13003 -18,1.59414 -6.23333,0.46411 -11.71936,1.45498 -12.19118,2.20193 -0.47182,0.74696 -1.2493,10.42619 -1.72774,21.50941 -0.47845,11.08322 -1.42261,27.05132 -2.09815,35.48465 -0.67553,8.43333 -1.63292,25.83333 -2.12752,38.66666 -0.4946,12.83334 -1.0373,26.93334 -1.20601,31.33334 -0.1687,4.4 -0.69478,13.1 -1.16906,19.33333 -1.22263,16.06858 -2.56542,40.27699 -2.88433,52 -0.14962,5.5 -0.65022,14.5 -1.11245,20 -0.71548,8.51354 -2.37435,44.32242 -2.43981,52.66666 -0.0115,1.46667 -0.5283,9.26667 -1.14842,17.33334 -0.62012,8.06666 -1.53222,22.46666 -2.0269,32 -0.49467,9.53333 -1.03031,19.73333 -1.1903,22.66666 -0.15999,2.93334 -0.6558,7.43333 -1.1018,10 -0.446,2.56667 -1.12149,16.66667 -1.50108,31.33333 -0.95719,36.98417 -3.7263,51.54895 -8.8303,46.44495 -1.57978,-1.57978 -3.89665,-18.72405 -4.74497,-35.11161 -0.36064,-6.96667 -1.17176,-13.18776 -1.80248,-13.82464 -0.64339,-0.64967 -4.35841,5.57354 -8.46312,14.17696 -4.02399,8.43422 -7.99423,15.7539 -8.82277,16.26597 -1.48027,0.91486 -25.1078,0.99936 -200.47194,0.71702 l -87.72698,-0.14125 -1.46341,-3.59703 c -3.35773,-8.25321 -13.20027,-28.17903 -14.23526,-28.81868 -0.61538,-0.38033 -1.53771,5.13895 -2.04961,12.26507 -1.71349,23.85323 -3.02585,35.83492 -4.11871,37.6032 -1.17898,1.90763 -2.74574,1.68288 -4.70221,-0.67452 z m 328.4609,-107.50196 c 0.40815,-1.56076 0.15154,-16.40503 -0.57025,-32.98727 -0.72178,-16.58225 -1.54739,-44.84954 -1.83467,-62.8162 -0.28729,-17.96667 -0.93489,-41.96667 -1.43911,-53.33333 -1.15139,-25.95567 -1.69611,-42.96947 -2.45455,-76.66667 -0.33012,-14.66667 -0.99073,-36.26667 -1.46803,-48 -0.47731,-11.73333 -1.04231,-26.60208 -1.25557,-33.04166 -0.21326,-6.43957 -0.65504,-11.97561 -0.98172,-12.30229 -0.84808,-0.84808 -11.17563,-0.9604 -19.76716,-0.21497 -4.03333,0.34994 -14.23333,1.07891 -22.66667,1.61994 -8.43333,0.54102 -17.14166,1.10995 -19.35185,1.26429 -7.99825,0.55853 -12.41152,4.10181 -14.56314,11.69232 -1.08858,3.84031 -2.23105,9.38237 -2.53881,12.31571 -0.66259,6.31515 -10.24481,35.51152 -14.06639,42.85928 -1.47053,2.82739 -3.36963,6.64071 -4.22022,8.47405 -1.58316,3.41229 -2.1862,4.5863 -7.18337,13.98468 -1.58494,2.98086 -3.90339,7.80375 -5.15211,10.71753 -1.24873,2.91378 -2.85607,6.19779 -3.57187,7.29779 -3.91228,6.01214 -9.17736,16.10503 -11.28807,21.63865 -1.32278,3.46792 -3.82836,8.23449 -5.56795,10.59237 -1.73959,2.35788 -3.16289,5.37248 -3.16289,6.69911 0,3.45603 -12.24186,15.73653 -15.68703,15.73653 -2.56672,0 -9.6463,-7.28961 -9.6463,-9.93249 0,-0.55776 -1.8,-3.6812 -4,-6.94098 -2.2,-3.25979 -4,-6.42053 -4,-7.02388 0,-1.97554 -5.37778,-13.30607 -6.70463,-14.12611 -0.71246,-0.44032 -1.29537,-1.72816 -1.29537,-2.86186 0,-1.1337 -1.8,-4.72837 -4,-7.98815 -2.2,-3.25978 -4,-6.42053 -4,-7.02388 0,-1.83977 -5.29657,-13.19458 -6.37343,-13.66338 -1.03506,-0.4506 -9.5085,-18.01213 -16.93862,-35.10593 -4.06195,-9.34496 -8.61299,-24.88302 -10.84004,-37.00985 -3.2718,-17.8157 -4.67975,-19.08041 -22.51458,-20.22404 -7.33334,-0.47024 -15.13334,-1.1098 -17.33334,-1.42125 -2.2,-0.31144 -11.8636,-0.92167 -21.47466,-1.35605 l -17.47467,-0.78979 -0.68653,14.48433 c -0.37759,7.96638 -0.77572,27.87287 -0.88473,44.23665 -0.10902,16.36378 -0.45718,30.17135 -0.77371,30.6835 -0.66015,1.06815 -1.8083,32.02755 -2.69722,72.72983 -0.33633,15.4 -1.34966,52.9 -2.25186,83.33333 -0.90219,30.43333 -1.66651,59.83333 -1.69848,65.33333 l -0.0581,10 7.33333,0.66667 c 4.03334,0.36667 74.61486,0.81094 156.84783,0.98727 l 149.5145,0.3206 z"
       id="path1" />
  </g>
</svg>
