<?xml version="1.0" encoding="UTF-8" standalone="no"?>
<!-- Created with Inkscape (http://www.inkscape.org/) -->

<svg
   version="1.1"
   id="svg1"
   width="405.85367"
   height="314.92682"
   viewBox="0 0 405.85367 314.92682"
   sodipodi:docname="GLja19.svg"
   inkscape:version="1.3.2 (091e20e, 2023-11-25, custom)"
   xmlns:inkscape="http://www.inkscape.org/namespaces/inkscape"
   xmlns:sodipodi="http://sodipodi.sourceforge.net/DTD/sodipodi-0.dtd"
   xmlns="http://www.w3.org/2000/svg"
   xmlns:svg="http://www.w3.org/2000/svg">
  <defs
     id="defs1" />
  <sodipodi:namedview
     id="namedview1"
     pagecolor="#ffffff"
     bordercolor="#000000"
     borderopacity="0.25"
     inkscape:showpageshadow="2"
     inkscape:pageopacity="0.0"
     inkscape:pagecheckerboard="0"
     inkscape:deskcolor="#d1d1d1"
     inkscape:zoom="1.1974759"
     inkscape:cx="202.92683"
     inkscape:cy="157.41444"
     inkscape:window-width="1600"
     inkscape:window-height="837"
     inkscape:window-x="-8"
     inkscape:window-y="-8"
     inkscape:window-maximized="1"
     inkscape:current-layer="g1" />
  <g
     inkscape:groupmode="layer"
     inkscape:label="Image"
     id="g1">
    <path
       style="fill:#000000"
       d="m 202.42427,313.26828 c -0.11794,-0.69756 -0.73747,-4.34146 -1.37673,-8.09756 -0.63926,-3.7561 -1.27894,-7.66341 -1.42151,-8.68292 -0.28813,-2.06047 -0.81799,-2.42299 -1.14075,-0.78049 -0.11599,0.59024 -0.49741,2.56585 -0.8476,4.39024 -0.35019,1.82439 -0.75473,3.91467 -0.89898,4.64506 -0.15031,0.76112 -0.69695,1.65252 -1.2806,2.08828 -0.94789,0.7077 -1.27149,0.72986 -4.67725,0.32022 -2.01239,-0.24205 -4.71255,-0.61008 -6.00036,-0.81785 -1.2878,-0.20777 -7.52195,-1.08075 -13.85366,-1.93994 -16.43773,-2.23056 -17.19612,-2.34254 -18.92683,-2.7947 -3.44309,-0.89954 -8.27508,-4.73463 -9.69827,-7.69739 -0.34828,-0.72506 -0.8423,-2.33044 -1.09781,-3.56752 -0.88926,-4.30537 1.26931,-9.37074 5.43217,-12.74725 2.30657,-1.87088 2.30601,-1.8707 15.31513,-4.96613 5.04391,-1.20016 13.47317,-3.21908 18.73171,-4.48648 5.25854,-1.2674 10.57073,-2.53642 11.80488,-2.82004 2.55402,-0.58695 2.43861,-0.2137 1.67325,-5.41138 -0.30025,-2.03902 -0.91212,-6.34146 -1.35973,-9.56097 -0.44761,-3.21952 -0.98073,-6.90732 -1.18472,-8.19513 -0.5287,-3.33771 -0.99532,-6.61622 -2.36055,-16.58536 -0.66135,-4.82927 -1.73568,-12.46829 -2.3874,-16.97561 -1.64864,-11.40203 -1.80243,-12.55709 -2.49404,-18.73171 -0.33656,-3.00488 -0.80147,-6.86829 -1.03312,-8.58536 -0.23166,-1.71708 -0.49662,-9.90368 -0.58881,-18.19245 l -0.16763,-15.0705 -1.82911,-0.23859 c -1.00601,-0.13123 -3.49741,-0.50489 -5.53643,-0.83037 -4.84214,-0.77292 -21.30944,-3.19713 -26.53659,-3.90655 -2.25366,-0.30586 -5.32683,-0.74289 -6.82927,-0.97119 -1.50244,-0.2283 -4.66341,-0.66525 -7.02439,-0.97101 -2.36097,-0.30576 -6.13658,-0.82183 -8.39024,-1.14681 -4.37731,-0.63123 -5.63324,-0.80211 -18.92683,-2.57516 -4.72195,-0.62979 -9.726832,-1.31999 -11.121954,-1.53379 -1.395122,-0.21379 -4.731707,-0.66686 -7.414634,-1.00682 -2.682927,-0.33997 -5.931708,-0.7798 -7.219512,-0.97741 -1.287805,-0.19761 -4.448781,-0.63686 -7.024391,-0.97611 -2.57561,-0.33926 -7.053659,-0.95265 -9.95122,-1.36311 -2.897561,-0.41045 -6.585366,-0.92834 -8.195122,-1.15085 -15.024936,-2.07688 -21.040704,-3.13037 -27.971856,-4.89846 -7.837249,-1.99923 -11.068099,-3.12084 -16.320828,-5.6659 -9.265516,-4.48935 -11.90243909,-8.25978 -11.90243909,-17.01882 0,-3.460593 0.16857441,-4.854207 0.78716479,-6.507538 1.764329,-4.715591 5.5818717,-8.409695 10.7874023,-10.438595 2.00188,-0.780249 3.29962,-0.924305 10.669336,-1.18435 7.880014,-0.278052 22.213919,-1.002138 37.853659,-1.912202 3.756098,-0.218565 11.834147,-0.657589 17.95122,-0.97561 6.117074,-0.318021 14.195123,-0.757046 17.95122,-0.97561 3.756094,-0.218564 11.834144,-0.657589 17.951224,-0.97561 6.11707,-0.318021 14.19512,-0.757045 17.95122,-0.975609 3.75609,-0.218565 11.83414,-0.657589 17.95122,-0.97561 12.48882,-0.649282 22.35519,-1.203061 28.58536,-1.604437 l 4.19512,-0.270269 0.0128,-1.40411 c 0.0422,-4.638023 1.38503,-21.394313 2.30161,-28.721183 0.79909,-6.387779 2.34775,-16.122197 3.16628,-19.902438 2.00001,-9.236634 6.50259,-19.785433 10.0644,-23.5792354 1.81931,-1.93781579 1.91042,-1.98173971 4.11022,-1.98173971 2.80065,0 3.25135,0.24249884 5.22149,2.80939421 6.72355,8.7601499 10.9904,24.9406489 13.35761,50.6540189 0.22724,2.468292 0.58623,6.331707 0.79777,8.585365 0.21154,2.253659 0.38413,5.169362 0.38354,6.47934 -5.9e-4,1.309979 0.10911,3.43588 0.24376,4.724225 l 0.24484,2.342447 4.14541,0.267227 c 6.17212,0.397875 16.06558,0.953088 28.53565,1.601395 6.11708,0.318021 14.19512,0.756235 17.95122,0.973808 3.7561,0.217574 12.00976,0.666388 18.34147,0.997365 6.3317,0.330977 14.40975,0.766765 17.95122,0.968418 3.54146,0.201652 11.5317,0.634204 17.75609,0.961227 6.22439,0.327022 14.30244,0.766223 17.95122,0.976002 18.03686,1.03699 29.95446,1.61962 36.68293,1.793363 10.6421,0.2748 13.93331,1.310576 18.33592,5.770509 3.98836,4.040276 5.0462,6.999848 4.81164,13.461732 -0.18009,4.96134 -0.9771,7.44849 -3.24705,10.13277 -5.62099,6.64697 -20.59586,11.75223 -44.87612,15.29926 -1.50244,0.21949 -3.78536,0.56591 -5.07317,0.76983 -1.2878,0.20392 -6.29268,0.90485 -11.12195,1.55761 -4.82927,0.65277 -10.00976,1.36106 -11.5122,1.57398 -5.99176,0.84911 -8.38863,1.17559 -12.87805,1.75414 -2.57561,0.33192 -5.82439,0.77751 -7.21951,0.9902 -1.39512,0.2127 -6.4,0.902 -11.12195,1.53179 -13.68025,1.82462 -14.55034,1.94255 -20.09756,2.72403 -2.89756,0.4082 -6.23415,0.85165 -7.41464,0.98543 -1.18048,0.13379 -3.11219,0.40817 -4.29268,0.60974 -1.18049,0.20158 -6.00975,0.9065 -10.73171,1.5665 -16.27267,2.27449 -16.88177,2.36352 -27.31707,3.99305 l -5.46341,0.85315 -0.19529,16.97561 c -0.10741,9.33658 -0.30892,17.15121 -0.4478,17.36585 -0.13889,0.21463 -0.45283,2.40975 -0.69765,4.87805 -0.4488,4.52464 -0.57314,5.48819 -1.98923,15.41463 -0.42867,3.00488 -1.13601,8.00976 -1.57187,11.12195 -0.43585,3.1122 -1.05074,7.41464 -1.3664,9.56098 -0.31567,2.14634 -0.92096,6.53658 -1.34508,9.75609 -0.42413,3.21952 -0.94524,6.90732 -1.15802,8.19513 -0.21279,1.2878 -0.75312,4.97561 -1.20072,8.19512 -0.44761,3.21951 -1.05949,7.52195 -1.35973,9.56097 -0.87592,5.94855 -1.0176,5.55111 2.25902,6.33725 15.58786,3.73991 21.83341,5.23356 30.53618,7.30286 5.58049,1.32691 10.91618,2.68762 11.8571,3.02381 2.1412,0.76505 5.817,4.36795 6.97951,6.84108 2.51279,5.34572 1.31591,11.35001 -3.04845,15.29295 -1.83165,1.65479 -6.69873,4.12888 -8.1224,4.12888 -0.51789,0 -2.01553,0.17805 -3.32808,0.39566 -1.31255,0.21762 -6.33768,0.92957 -11.16695,1.58213 -4.82927,0.65255 -11.85366,1.62926 -15.60975,2.17045 -9.03723,1.30213 -11.58121,1.37213 -12.33909,0.33957 -0.31507,-0.42927 -0.63986,-1.13171 -0.72174,-1.56098 -0.0819,-0.42927 -0.51333,-2.78541 -0.95876,-5.23588 -1.27444,-7.01097 -1.18095,-7.18314 -2.94904,5.431 -0.80176,5.72001 -1.29377,8.53196 -1.57145,8.98126 -0.4489,0.72633 -0.87028,0.38295 -1.08444,-0.8837 z"
       id="path1" />
  </g>
</svg>
