<?xml version="1.0" encoding="UTF-8" standalone="no"?>
<!-- Created with Inkscape (http://www.inkscape.org/) -->

<svg
   version="1.1"
   id="svg1"
   width="1386.6667"
   height="869.33331"
   viewBox="0 0 1386.6667 869.33331"
   sodipodi:docname="GLbr29.svg"
   inkscape:version="1.3.2 (091e20e, 2023-11-25, custom)"
   xmlns:inkscape="http://www.inkscape.org/namespaces/inkscape"
   xmlns:sodipodi="http://sodipodi.sourceforge.net/DTD/sodipodi-0.dtd"
   xmlns="http://www.w3.org/2000/svg"
   xmlns:svg="http://www.w3.org/2000/svg">
  <defs
     id="defs1" />
  <sodipodi:namedview
     id="namedview1"
     pagecolor="#ffffff"
     bordercolor="#000000"
     borderopacity="0.25"
     inkscape:showpageshadow="2"
     inkscape:pageopacity="0.0"
     inkscape:pagecheckerboard="0"
     inkscape:deskcolor="#d1d1d1"
     inkscape:zoom="0.35048075"
     inkscape:cx="693.33337"
     inkscape:cy="435.11662"
     inkscape:window-width="1600"
     inkscape:window-height="837"
     inkscape:window-x="-8"
     inkscape:window-y="-8"
     inkscape:window-maximized="1"
     inkscape:current-layer="g1" />
  <g
     inkscape:groupmode="layer"
     inkscape:label="Image"
     id="g1">
    <path
       style="fill:#000000"
       d="m 652.6667,865.27177 c -5.64907,-0.96194 -36.5415,-4.89683 -73.33333,-9.34076 -55.46089,-6.69889 -70.90781,-9.25085 -73.52942,-12.14769 -2.00914,-2.22008 -2.37857,-6.37692 -2.82166,-31.74921 l -0.50983,-29.19467 4.43045,-4.79476 c 4.36209,-4.72078 4.68762,-4.82555 21.09712,-6.78962 30.33112,-3.63038 36.57465,-4.41481 46.66667,-5.86319 5.5,-0.78934 14.65,-2.02543 20.33333,-2.74686 21.83276,-2.77141 31.78081,-4.11503 54.99202,-7.42744 13.19561,-1.88311 24.16599,-3.59781 24.37863,-3.81045 0.21264,-0.21264 -0.20043,-3.01624 -0.91794,-6.23021 -0.71751,-3.21398 -1.99403,-11.24359 -2.83672,-17.84359 -0.8427,-6.6 -2.03185,-15.6 -2.64257,-20 -0.61072,-4.4 -2.67611,-19.7 -4.58975,-34 -8.35446,-62.43004 -9.10318,-68.04434 -11.20216,-84 -0.72353,-5.5 -2.23857,-16.30175 -3.36676,-24.00388 -1.12818,-7.70214 -2.67313,-23.00214 -3.43321,-34 -0.76008,-10.99787 -2.03556,-28.69612 -2.8344,-39.32945 -0.79884,-10.63333 -1.84874,-26.23333 -2.33312,-34.66667 l -0.88068,-15.33333 -82,-0.75037 c -74.71597,-0.68371 -83.59894,-1.00124 -100.00001,-3.57462 -9.9,-1.55334 -21,-3.10354 -24.66667,-3.44489 -3.66666,-0.34134 -13.56667,-1.60701 -22,-2.81259 -14.37243,-2.0546 -20.32904,-2.82835 -46.33334,-6.01856 -5.68333,-0.69723 -17.23333,-2.18411 -25.66666,-3.30417 -8.43334,-1.12006 -39.03334,-5.01525 -68.00001,-8.65598 -56.01539,-7.04041 -59.47246,-7.48342 -74,-9.4827 -5.13334,-0.70645 -16.83334,-2.22186 -26,-3.36757 -9.16667,-1.14571 -23.56667,-2.95737 -32.00001,-4.0259 -8.43333,-1.06853 -22.23333,-2.76624 -30.66666,-3.77269 C 52.980249,386.22384 13.407894,380.78644 9.7703754,379.29281 1.1433026,375.75039 1.1557705,375.82919 1.0034961,323.88902 l -0.1376517,-46.9524 4.0010658,-3.57495 c 3.3125696,-2.95978 6.1634028,-3.85872 16.5670788,-5.22401 6.911307,-0.90698 16.466013,-2.19977 21.23268,-2.87288 4.766667,-0.6731 16.466668,-2.13752 26.000002,-3.25427 18.214044,-2.13362 32.453899,-3.92171 47.999999,-6.02732 5.13334,-0.69527 24.33334,-3.07701 42.66667,-5.29275 18.33334,-2.21574 38.13334,-4.61121 44.00001,-5.32327 5.86666,-0.71206 16.36666,-1.95725 23.33333,-2.7671 6.96667,-0.80984 18.66667,-2.28546 26,-3.27914 7.33334,-0.99369 18.73334,-2.46799 25.33334,-3.27623 6.6,-0.80824 26.1,-3.25382 43.33333,-5.43462 17.23334,-2.1808 36.72106,-4.58168 43.30605,-5.33528 6.58499,-0.7536 18.58499,-2.25815 26.66667,-3.34343 8.08167,-1.08528 20.39395,-2.54175 27.36062,-3.2366 12.70182,-1.26687 35.96752,-4.24547 54.66667,-6.99873 5.78477,-0.85175 41.75474,-1.80055 85.33334,-2.25089 l 75.33334,-0.77849 0.36989,-19.82628 c 0.32954,-17.6633 0.11328,-20.01391 -1.9823,-21.54624 -2.23141,-1.63164 -2.23367,-1.85093 -0.0439,-4.27055 2.03471,-2.24833 2.30707,-5.8572 2.29837,-30.45375 -0.0105,-29.61597 0.91884,-36.843726 7.10661,-55.271654 2.08092,-6.19723 2.8888,-10.518485 2.13674,-11.429132 -0.77397,-0.937169 -0.19856,-2.377083 1.59846,-4 1.54426,-1.394647 4.55521,-5.994502 6.691,-10.2219 15.38671,-30.455144 30.74373,-41.15312 51.00128,-35.528421 9.59967,2.665438 22.40798,17.223306 31.56907,35.881266 1.98037,4.033333 4.87074,8.474408 6.42304,9.869055 1.8071,1.623567 2.38736,3.062456 1.61308,4 -0.75209,0.910676 0.0576,5.237302 2.1417,11.443936 6.21294,18.502913 7.27981,26.8079 7.18421,55.92518 -0.0789,24.02944 0.18232,27.53844 2.21732,29.78709 2.18696,2.41656 2.1865,2.63684 -0.009,4.24215 -2.00806,1.46833 -2.31292,4.15311 -2.29522,20.21291 0.0112,10.18582 0.4792,19.24145 1.03993,20.12362 0.76755,1.20756 19.62682,1.74434 76.31292,2.17205 42.70251,0.3222 79.33336,1.17617 84.62674,1.97289 16.96873,2.554 41.14514,5.66376 54.00001,6.94589 6.96666,0.69485 19.27894,2.15132 27.36062,3.2366 8.08172,1.08528 20.08172,2.58983 26.66662,3.34343 6.585,0.7536 26.0728,3.15448 43.3061,5.33528 17.2333,2.1808 36.7333,4.62638 43.3333,5.43462 6.6,0.80824 18,2.28254 25.3334,3.27623 7.3333,0.99368 19.0333,2.4693 26,3.27914 6.9666,0.80985 17.4666,2.05504 23.3333,2.7671 5.8667,0.71206 25.6667,3.10753 44,5.32327 18.3333,2.21574 37.5333,4.59748 42.6667,5.29275 15.5461,2.10561 29.7859,3.8937 48,6.02732 9.5333,1.11675 21.2333,2.58117 26,3.25427 4.7666,0.67311 14.3214,1.9659 21.2327,2.87288 10.4036,1.36529 13.2545,2.26423 16.567,5.22401 l 4.0011,3.57495 -0.1376,46.9524 c -0.1523,51.94017 -0.1399,51.86137 -8.7669,55.40379 -3.6375,1.49363 -43.2099,6.93103 -98.2297,13.49714 -16.8102,2.00615 -40.0651,4.94238 -56.6666,7.1549 -5.8667,0.78186 -15.4667,1.98994 -21.3334,2.68463 -5.8666,0.69469 -15.4666,1.90818 -21.3333,2.69665 -5.8667,0.78846 -34.3667,4.42576 -63.3333,8.08288 -28.9667,3.65712 -59.5667,7.56572 -68,8.68578 -8.4334,1.12006 -19.9834,2.60694 -25.6667,3.30417 -26.0043,3.19021 -31.96091,3.96396 -46.33334,6.01856 -8.43334,1.20558 -18.33334,2.47125 -22,2.81259 -3.66667,0.34135 -14.76667,1.89155 -24.66667,3.44489 -16.40107,2.57338 -25.28404,2.89091 -100.00001,3.57462 l -82,0.75037 -0.88068,15.33333 c -0.48438,8.43334 -1.53428,24.03334 -2.33312,34.66667 -0.79884,10.63333 -2.07432,28.33158 -2.8344,39.32945 -0.76008,10.99786 -2.30503,26.29786 -3.43321,34 -1.12819,7.70213 -2.64323,18.50388 -3.36676,24.00388 -2.09898,15.95566 -2.8477,21.56996 -11.20216,84 -1.91365,14.3 -3.97903,29.6 -4.58975,34 -0.61072,4.4 -1.79988,13.4 -2.64257,20 -0.84269,6.6 -2.11921,14.62961 -2.83672,17.84359 -0.71751,3.21397 -1.13058,6.01757 -0.91794,6.23021 0.21264,0.21264 11.18302,1.92734 24.37863,3.81045 23.21121,3.31241 33.15925,4.65603 54.99201,7.42744 5.68334,0.72143 14.83334,1.95752 20.33334,2.74686 10.09202,1.44838 16.33555,2.23281 46.66667,5.86319 16.4095,1.96407 16.73503,2.06884 21.09712,6.78962 l 4.43045,4.79476 -0.50983,29.19467 c -0.44309,25.37229 -0.81252,29.52913 -2.82166,31.74921 -2.63193,2.90824 -18.50596,5.52198 -74.19609,12.21675 -21.44633,2.57816 -65.19409,8.08457 -75.33333,9.482 -5.86667,0.80857 -12.46667,1.25587 -14.66667,0.99401 -4.40644,-0.52448 -4.48239,-0.68815 -12.13237,-26.14277 -3.84684,-12.80002 -5.86763,-15.52032 -5.86763,-7.89875 0,5.45303 -3.82692,33.17012 -4.70043,34.04363 -0.3481,0.34809 -0.91771,0.34809 -1.26581,0 -0.87351,-0.87351 -4.70043,-28.5906 -4.70043,-34.04363 0,-7.62157 -2.02079,-4.90127 -5.86763,7.89875 -2.03862,6.78334 -4.70239,15.33334 -5.91948,19 l -2.21289,6.66667 -7.33333,0.20351 c -4.03334,0.11192 -10.33334,-0.30735 -14.00001,-0.93172 z M 687.33337,20 c 0.45323,-0.733334 -0.11136,-1.333334 -1.25464,-1.333334 -1.14328,0 -2.07869,0.6 -2.07869,1.333334 0,0.733333 0.56459,1.333333 1.25464,1.333333 0.69006,0 1.62547,-0.6 2.07869,-1.333333 z m 15.33334,0 c 0,-0.733334 -0.93541,-1.333334 -2.07869,-1.333334 -1.14328,0 -1.70787,0.6 -1.25465,1.333334 0.45323,0.733333 1.38864,1.333333 2.07869,1.333333 0.69006,0 1.25465,-0.6 1.25465,-1.333333 z"
       id="path1" />
  </g>
</svg>
