<?xml version="1.0" encoding="UTF-8" standalone="no"?>
<!-- Created with Inkscape (http://www.inkscape.org/) -->

<svg
   version="1.1"
   id="svg1"
   width="475.94366"
   height="275.83099"
   viewBox="0 0 475.94366 275.83099"
   sodipodi:docname="Bicycle2.svg"
   inkscape:version="1.3.2 (091e20e, 2023-11-25, custom)"
   xmlns:inkscape="http://www.inkscape.org/namespaces/inkscape"
   xmlns:sodipodi="http://sodipodi.sourceforge.net/DTD/sodipodi-0.dtd"
   xmlns="http://www.w3.org/2000/svg"
   xmlns:svg="http://www.w3.org/2000/svg">
  <defs
     id="defs1" />
  <sodipodi:namedview
     id="namedview1"
     pagecolor="#ffffff"
     bordercolor="#000000"
     borderopacity="0.25"
     inkscape:showpageshadow="2"
     inkscape:pageopacity="0.0"
     inkscape:pagecheckerboard="0"
     inkscape:deskcolor="#d1d1d1"
     inkscape:zoom="1.0211293"
     inkscape:cx="237.97183"
     inkscape:cy="137.59277"
     inkscape:window-width="1600"
     inkscape:window-height="837"
     inkscape:window-x="-8"
     inkscape:window-y="-8"
     inkscape:window-maximized="1"
     inkscape:current-layer="g1" />
  <g
     inkscape:groupmode="layer"
     inkscape:label="Image"
     id="g1">
    <path
       style="fill:#000000"
       d="m 232.2535,270.22803 c -0.52188,-1.51677 4.63248,-7.91816 6.37566,-7.91816 0.28489,0 4.96904,-0.9274 10.40921,-2.06087 14.27554,-2.97437 27.11652,-8.2109 31.5934,-12.88375 3.45929,-3.61073 3.85414,-4.9043 3.56996,-11.69549 -0.17573,-4.19965 -0.91586,-8.35428 -1.64473,-9.23251 -0.8945,-1.07781 -7.54317,-1.63935 -20.45694,-1.72777 -16.7747,-0.11485 -19.5284,0.18102 -22.35134,2.40155 -1.89636,1.49167 -2.64527,2.8875 -1.82219,3.39619 0.76858,0.47501 1.39741,1.74042 1.39741,2.81202 0,1.45175 -1.82964,1.94837 -7.17819,1.94837 -7.46098,0 -12.86622,2.51072 -11.2021,5.20333 0.52933,0.85648 2.87356,1.55724 5.20939,1.55724 3.30319,0 3.8864,0.36056 2.62443,1.62253 -0.8924,0.8924 -1.62254,3.02197 -1.62254,4.7324 0,1.71042 -0.60845,3.10985 -1.35211,3.10985 -0.74366,0 -1.35211,-1.52112 -1.35211,-3.38028 0,-3.82354 -1.57071,-4.34711 -4.05634,-1.35211 -0.92578,1.11549 -2.52141,2.02817 -3.54584,2.02817 -1.09683,0 -1.86261,1.42255 -1.86261,3.46008 0,1.96241 0.58525,3.09837 1.35211,2.62443 0.77738,-0.48045 1.36091,0.77879 1.37282,2.96245 0.0243,4.46352 1.1285,6.37529 4.37366,7.57261 2.05552,0.7584 2.3662,-0.0195 2.3662,-5.9249 0,-4.18765 0.51918,-6.47705 1.35211,-5.96228 0.74366,0.45961 1.35211,3.41608 1.35211,6.56994 0,3.15386 0.64238,6.37667 1.42751,7.1618 1.99071,1.99071 -12.84807,3.66538 -16.26665,1.83581 -1.4083,-0.7537 -4.4473,-1.37036 -6.75334,-1.37036 -3.85698,0 -4.06955,-0.2303 -2.65397,-2.87533 0.90269,-1.68671 1.332,-6.97099 1.03852,-12.78289 l -0.50031,-9.90756 4.07947,-0.40021 c 3.04466,-0.29869 4.07947,-1.08617 4.07947,-3.10444 0,-2.62584 -0.9014,-2.70422 -31.09859,-2.70422 -35.71134,0 -67.7329,2.46451 -71.05225,5.46848 -2.66872,2.41516 -7.13385,2.52857 -10.945569,0.278 -2.290029,-1.35212 -2.984952,-1.35212 -3.474611,0 -0.336641,0.92958 -1.930384,1.69946 -3.541652,1.71084 -2.387142,0.0169 -2.554045,0.26339 -0.901408,1.33141 1.802817,1.16507 1.802817,1.30823 0,1.28841 -4.085495,-0.0449 -8.950475,-6.17431 -8.266658,-10.41517 0.149889,-0.92958 -0.398506,-1.69014 -1.218656,-1.69014 -0.820151,0 -1.157748,-0.53951 -0.750216,-1.19891 2.056498,-3.32748 -4.363915,-4.20972 -36.527907,-5.01934 C 23.239242,227.179 8.8265126,226.24766 6.7605634,225.30198 2.5023302,223.3528 1.4035455,217.11337 4.9893875,215.2444 c 1.3459777,-0.70154 18.9334115,-1.56107 39.0831865,-1.91008 35.683846,-0.61806 42.649755,-1.35522 37.903877,-4.01114 -3.093238,-1.73107 -2.746651,-3.69136 0.502423,-2.84171 2.069508,0.54119 2.704225,0.0415 2.704225,-2.12899 0,-3.24628 6.032875,-5.50833 8.393879,-3.14733 1.012355,1.01236 2.3824,0.81478 4.649192,-0.67048 3.80014,-2.48995 10.48074,-1.57968 14.3867,1.96027 1.96279,1.77886 6.91448,2.71551 20.37041,3.85323 9.77751,0.82671 15.15546,1.58727 11.95101,1.69015 -8.34844,0.26801 -5.88454,2.37218 3.05308,2.60733 7.00914,0.18442 9.70474,-1.19073 5.81545,-2.96672 -0.92958,-0.42448 0.74366,-0.49483 3.71831,-0.15634 2.97465,0.3385 10.27605,1.01904 16.22535,1.51232 5.9493,0.49328 12.22069,1.42377 13.93643,2.06774 1.95441,0.73356 2.81899,0.68461 2.31488,-0.13107 -0.50339,-0.8145 2.48506,-0.99475 7.98195,-0.48144 11.19359,1.04527 16.01499,-1.39153 14.43673,-7.29653 -0.72647,-2.71807 -2.06168,-3.94393 -4.82844,-4.43304 l -3.8243,-0.67606 0.29114,-12.03452 c 0.21129,-8.7337 -0.1967,-12.34387 -1.48749,-13.16239 -1.13396,-0.71907 0.0658,-1.13538 3.31012,-1.14858 2.79883,-0.0114 6.29742,-0.77552 7.77465,-1.69806 2.13779,-1.33507 3.23397,-1.33507 5.37176,0 3.3535,2.09429 13.53947,2.22419 13.53947,0.17266 0,-3.14735 17.69952,-0.64072 27.04226,3.82976 4.8338,2.31296 10.268,4.63738 12.07601,5.16538 5.70192,1.66516 11.25907,5.70876 15.89252,11.56404 4.07076,5.14421 4.48217,6.50021 4.48217,14.77306 0,10.8196 2.00056,13.70146 7.47687,10.77063 3.40755,-1.82366 8.20036,-1.96188 17.25951,-0.49774 3.57591,0.57794 5.82952,0.22163 7.43662,-1.17577 1.48857,-1.29434 6.85871,-2.32543 15.15094,-2.90905 13.8936,-0.97785 34.40324,-3.93593 38.16576,-5.50459 1.7168,-0.71577 2.7584,-0.0436 3.93534,2.53947 1.05947,2.32529 2.66997,3.51289 4.76383,3.51289 1.73978,0 3.16324,0.60845 3.16324,1.35211 0,0.74366 1.36902,1.30935 3.04226,1.25708 2.90826,-0.0909 2.92315,-0.14742 0.33802,-1.28442 -1.65725,-0.7289 2.7924,-0.91786 11.49296,-0.48808 7.80845,0.38572 25.68101,1.15183 39.7168,1.70246 22.84196,0.89611 25.71677,1.27078 27.39867,3.57091 1.67505,2.29077 1.47726,2.94267 -1.82184,6.0045 l -3.70089,3.43473 -39.24707,0.76404 c -21.58589,0.42022 -40.31186,1.24588 -41.61327,1.8348 -1.30141,0.58892 -2.3662,1.93744 -2.3662,2.99671 0,2.67649 -3.69111,3.82742 -6.03534,1.88188 -1.18441,-0.98298 -9.23819,-1.9154 -20.6025,-2.38526 -13.6616,-0.56484 -19.53551,-1.34227 -21.93508,-2.90318 -2.45185,-1.59491 -3.41662,-1.71333 -3.83099,-0.47023 -0.85414,2.56243 -4.12576,1.96781 -5.73694,-1.0427 -1.17201,-2.18993 -2.83108,-2.70423 -8.72362,-2.70423 -4.55394,0 -7.53296,0.63237 -7.96217,1.69014 -0.53233,1.31193 -0.97478,1.27769 -1.97717,-0.15299 -1.09027,-1.55611 -1.40612,-1.55611 -2.02817,0 -0.48251,1.20702 -1.12231,1.3664 -1.85382,0.46182 -0.61436,-0.75973 -3.09448,-1.56615 -5.51138,-1.79205 l -4.39437,-0.41072 v 9.3764 c 0,8.57568 -0.38277,9.86012 -4.48217,15.04052 -4.63345,5.85528 -10.1906,9.89889 -15.89252,11.56404 -1.80801,0.528 -7.24221,2.85242 -12.07601,5.16539 -10.0304,4.79952 -26.19105,6.8572 -27.35214,3.48266 z M 250.37677,268.84 c 6.14902,-1.84229 6.6379,-5.60369 0.81585,-6.27716 -4.16115,-0.48135 -15.92501,4.26967 -15.92501,6.43156 0,1.90361 8.53112,1.81643 15.10916,-0.1544 z m -38.0734,-6.57065 c 2.25427,-4.21213 1.15104,-16.74125 -1.51875,-17.24822 -1.74799,-0.33192 -2.3517,1.3303 -3.0859,8.49653 -0.50203,4.90005 -0.553,9.49132 -0.11327,10.20281 1.28208,2.07445 3.13632,1.50413 4.71792,-1.45112 z m 55.92741,-2.06689 c 10.02293,-3.60127 18.89807,-10.56167 21.29856,-16.70354 1.43818,-3.67973 0.16066,-14.99187 -1.69309,-14.99187 -0.66485,0 -1.0521,3.61652 -0.86056,8.03672 0.32626,7.52908 0.0559,8.3384 -4.27991,12.81264 -3.12864,3.22851 -7.5095,5.71458 -13.52113,7.67301 -4.89113,1.59341 -9.7839,3.73758 -10.87284,4.76483 -2.79056,2.63249 -1.05225,2.35381 9.92897,-1.59179 z M 91.577465,241.21127 c -0.449295,-0.44929 -1.615493,-0.49733 -2.591549,-0.10674 -1.078625,0.43163 -0.758233,0.75202 0.816901,0.8169 1.425353,0.0587 2.223944,-0.26086 1.774648,-0.71016 z m 19.998875,-4.63532 c 4.70125,-4.38498 19.89868,-9.1583 35.23684,-11.06744 11.29943,-1.40644 14.84178,-2.32856 15.15298,-3.94451 0.58285,-3.02646 -8.7398,-6.08354 -23.61784,-7.74474 -12.45769,-1.39095 -19.73323,-4.0553 -25.99183,-9.51834 -14.535496,-12.68783 -26.035911,18.6129 -12.523591,34.08553 2.518891,2.88433 7.539941,2.11023 11.743441,-1.8105 z m -8.6606,-12.02934 c -0.95914,-0.59278 -1.53854,-2.53009 -1.28756,-4.30515 0.43959,-3.10897 0.90598,-3.23656 12.71345,-3.47786 18.49158,-0.3779 30.88588,1.12428 31.39976,3.80562 0.58189,3.0362 -5.57046,4.01224 -23.86274,3.7857 -8.1769,-0.10126 -15.39627,0.14294 -16.04306,0.54268 -0.64678,0.39973 -1.96072,0.24179 -2.91985,-0.35099 z m 24.07018,-2.78166 c 9.2338,-0.0102 16.53521,-0.26772 16.22535,-0.57237 -1.4719,-1.44715 -34.0935,-3.28215 -37.21951,-2.09364 -4.04608,1.53832 -2.8865,4.58746 1.31577,3.45986 1.58931,-0.42647 10.44458,-0.7837 19.67839,-0.79385 z m -39.464793,9.98154 c -0.449296,-0.4493 -1.615493,-0.49734 -2.591549,-0.10675 -1.078625,0.43163 -0.758233,0.75202 0.816901,0.8169 1.425352,0.0587 2.223944,-0.26086 1.774648,-0.71015 z m 106.542573,-3.5478 c 4.81426,-0.91325 8.7532,-2.14864 8.7532,-2.74531 0,-1.1251 -34.02189,-1.21395 -38.19718,-0.0998 -4.04941,1.08061 -2.60152,2.96557 2.70422,3.52057 10.69016,1.11823 18.29712,0.92606 26.73976,-0.6755 z m 41.20391,0.47392 c 0,-0.65261 -0.91213,-1.94355 -2.02695,-2.86877 -1.59937,-1.32736 -2.86208,-1.3363 -5.98588,-0.0424 -3.1387,1.30009 -4.95966,1.27798 -8.78907,-0.10676 -3.75823,-1.35899 -5.19041,-1.38633 -6.45356,-0.12318 -0.89288,0.89288 -3.02285,1.62342 -4.73328,1.62342 -1.71042,0 -3.10985,0.60845 -3.10985,1.35211 0,0.82302 6.0845,1.35211 15.54929,1.35211 8.55211,0 15.5493,-0.53395 15.5493,-1.18655 z m 54.76056,-8.29675 c 0,-3.81247 -0.51711,-4.71388 -2.70422,-4.71388 -1.80036,0 -2.85295,1.04972 -3.14919,3.14059 -0.64413,4.54646 0.76144,7.26779 3.48312,6.74364 1.71843,-0.33094 2.37029,-1.75285 2.37029,-5.17035 z m -198.332725,-0.31952 0.427838,-3.71831 -18.005303,-0.0671 c -39.942157,-0.14893 -64.105018,-0.16851 -66.4373728,-0.0538 -1.7527933,0.0862 -2.3359959,0.99578 -2.028169,3.16323 0.5923752,4.17099 3.0199155,4.39436 47.7560128,4.39436 h 37.859155 z m 234.845955,1.68014 c 1.17006,-1.89321 -3.16804,-4.24805 -7.01145,-3.80601 -4.81553,0.55385 -5.9905,4.75024 -1.52448,5.44466 3.68704,0.5733 7.63758,-0.18509 8.53593,-1.63865 z m 142.42149,0.87148 c 5.7096,-3.68447 -2.31256,-4.24827 -66.10066,-4.64555 -64.24722,-0.40013 -64.83406,-0.3791 -64.83406,2.32329 0,2.55835 0.98295,2.75065 15.88732,3.10802 35.12519,0.84221 113.35257,0.30793 115.0474,-0.78576 z m -292.21978,-1.71349 c 0.27553,-0.84044 -1.35079,-1.79984 -3.61403,-2.13202 -3.3489,-0.49151 -4.11499,-0.12738 -4.11499,1.95591 0,1.97997 0.81869,2.46294 3.61403,2.13202 1.98772,-0.23531 3.83947,-1.11547 4.11499,-1.95591 z m 55.82027,0.22531 c 0,-1.79342 -3.40552,-2.07752 -24.9035,-2.07752 -23.59885,0 -31.10007,0.68258 -28.07132,2.55436 0.73504,0.45426 12.95507,1.00024 27.15563,1.2133 22.48968,0.33743 25.81919,0.11948 25.81919,-1.69014 z m 6.76056,0.62671 c 0,-0.74367 -0.91267,-1.35212 -2.02816,-1.35212 -1.1155,0 -2.02817,0.60845 -2.02817,1.35212 0,0.74366 0.91267,1.35211 2.02817,1.35211 1.11549,0 2.02816,-0.60845 2.02816,-1.35211 z m 41.29504,-0.09 c 0.49019,-0.79314 0.67821,-1.64023 0.41782,-1.88243 -1.30377,-1.21271 -37.02151,-1.26602 -37.3717,-0.0558 -0.56886,1.96599 6.62661,3.00004 22.28327,3.20228 8.49093,0.10968 14.12142,-0.37546 14.67061,-1.26407 z m 21.91686,-0.24807 c -0.85186,-2.55846 -5.07105,-2.92219 -5.07105,-0.43717 0,1.25426 1.15605,2.12731 2.8169,2.12731 1.65225,0 2.58423,-0.6988 2.25415,-1.69014 z m 7.36839,-2.63662 c -1.26197,-1.26197 -1.62254,-0.90141 -1.62254,1.62253 0,2.52395 0.36057,2.88451 1.62254,1.62254 1.26197,-1.26197 1.26197,-1.9831 0,-3.24507 z m 22.03943,1.62253 c 0,-0.99155 -0.72569,-2.04471 -1.61265,-2.34036 -0.94114,-0.31372 -1.52459,0.63146 -1.40117,2.26987 0.22697,3.01312 3.01382,3.0783 3.01382,0.0705 z m -127.81066,-4.637 c -0.85848,-0.86075 -9.77619,-1.6214 -21.99961,-1.87649 -13.79835,-0.28796 -20.11143,0.0188 -19.20381,0.93297 1.58571,1.59724 9.5807,2.24486 28.76018,2.32964 9.8658,0.0436 13.4689,-0.35776 12.44324,-1.38612 z m 14.2332,0.58066 c -1.02324,-1.65563 -0.22148,-1.64892 7.1889,0.0602 5.0119,1.15592 6.31044,0.97358 9.18833,-1.29017 2.52367,-1.98512 4.58879,-2.44115 8.3604,-1.84618 2.75486,0.43457 5.51151,1.45661 6.12587,2.27119 0.79169,1.04971 1.31676,0.98881 1.80282,-0.20908 1.01025,-2.48977 14.99652,-2.22045 17.55501,0.33803 1.11549,1.11549 4.3971,2.02817 7.29246,2.02817 6.44366,0 7.88764,-2.19725 8.32584,-12.66903 0.27959,-6.68153 -0.12644,-7.99908 -3.57406,-11.59762 -4.47696,-4.67294 -17.31791,-9.9094 -31.59422,-12.88392 -10.56026,-2.20027 -15.12206,-4.05992 -15.12206,-6.16461 0,-0.7175 -1.2169,-1.30454 -2.70422,-1.30454 -1.77541,0 -2.70423,0.90141 -2.70423,2.62443 0,1.44343 -0.61009,3.00148 -1.35577,3.46233 -0.90591,0.55989 -0.90469,1.68075 0.004,3.37803 0.90836,1.69727 0.90957,2.81813 0.004,3.37802 -2.23223,1.37959 -1.53818,5.90436 1.34845,8.79099 1.48733,1.48732 2.70423,2.94871 2.70423,3.24752 0,0.29882 -3.65071,0.96701 -8.11268,1.48488 -8.13983,0.94472 -10.7584,2.81644 -5.07042,3.62426 2.03103,0.28846 2.91019,1.21858 2.64495,2.79827 -0.21851,1.30141 0.23783,2.3662 1.01409,2.3662 0.77626,0 1.41138,0.91267 1.41138,2.02817 0,1.50234 -1.57746,2.02817 -6.0845,2.02817 -5.74817,0 -7.85667,1.83347 -5.1831,4.50704 1.45434,1.45434 7.45675,1.04038 6.53521,-0.45071 z m 43.57746,-0.8169 c -0.44929,-0.44929 -1.61549,-0.49733 -2.59155,-0.10674 -1.07862,0.43163 -0.75823,0.75202 0.81691,0.8169 1.42535,0.0587 2.22394,-0.26086 1.77464,-0.71016 z m -52.73239,-2.70422 c -0.4493,-0.4493 -1.61549,-0.49733 -2.59155,-0.10675 -1.07863,0.43163 -0.75823,0.75202 0.8169,0.8169 1.42535,0.0587 2.22394,-0.26086 1.77465,-0.71015 z m -32.08451,-1.94398 c -4.09014,-0.56541 -9.87042,-1.0081 -12.84507,-0.98375 l -5.40845,0.0443 4.73239,0.99612 c 2.60282,0.54787 8.3831,0.99056 12.84508,0.98375 l 8.11267,-0.0124 z m 112.79783,-4.45635 c 1.11208,-7.41582 -0.35321,-11.12391 -6.86773,-17.3796 -4.72771,-4.53987 -23.96748,-13.19677 -25.63144,-11.53282 -1.15925,1.15926 2.99726,3.36523 11.74923,6.23563 5.98798,1.96388 10.40479,4.47673 13.52113,7.69255 4.33582,4.47424 4.60617,5.28356 4.27991,12.81263 -0.4031,9.30255 1.65255,10.81635 2.9489,2.17161 z m -156.06543,1.80878 C 132,207.62995 128.3493,207.1428 125.74648,207.1428 c -4.28259,0 -4.41111,0.1029 -1.35211,1.08256 1.85915,0.5954 5.50986,1.08255 8.11267,1.08255 4.28259,0 4.41111,-0.10289 1.35212,-1.08255 z m 79.77464,-24.32604 c 0,-7.58993 -1.54954,-10.82889 -5.18063,-10.82889 -1.56127,0 -1.81247,1.91792 -1.29904,9.91827 0.35009,5.45506 1.13143,10.71906 1.73632,11.69779 2.05645,3.32741 4.74335,-2.78306 4.74335,-10.78717 z m 9.96469,7.76266 c 1.19832,-4.47152 1.02837,-17.23944 -0.22947,-17.23944 -2.11332,0 -4.32677,3.29181 -4.32677,6.43473 0,1.81626 -0.59168,2.82397 -1.37416,2.34037 -0.7558,-0.4671 -1.0501,-1.37365 -0.654,-2.01454 0.39609,-0.64089 0.10179,-1.54743 -0.65401,-2.01453 -0.86164,-0.53253 -1.37416,1.70195 -1.37416,5.99107 0,3.7622 0.55148,6.84037 1.22553,6.84037 0.67404,0 0.9073,-1.21691 0.51835,-2.70423 -0.38894,-1.48732 -0.10381,-2.70423 0.63363,-2.70423 0.73744,0 1.70587,1.82536 2.15206,4.05634 0.95938,4.7969 2.93758,5.28822 4.083,1.01409 z m 31.65647,-15.99492 c 0.47504,-2.51216 -7.45505,-5.30086 -15.0738,-5.30086 -6.55171,0 -6.21109,2.24006 0.83293,5.47767 6.65993,3.06108 13.645,2.97435 14.24087,-0.17681 z M 232.2535,105.27028 c -0.52188,-1.51677 4.63248,-7.918165 6.37566,-7.918165 0.28489,0 4.96904,-0.927391 10.40921,-2.06087 14.27554,-2.974361 27.11652,-8.210898 31.5934,-12.88375 3.45929,-3.610723 3.85414,-4.904293 3.56996,-11.695482 -0.17573,-4.199653 -0.91586,-8.354284 -1.64473,-9.232513 -0.8945,-1.077813 -7.54317,-1.639353 -20.45694,-1.727771 -16.7747,-0.114854 -19.5284,0.181018 -22.35134,2.401548 -1.89636,1.491673 -2.64527,2.887498 -1.82219,3.396191 0.76858,0.475008 1.39741,1.740417 1.39741,2.812022 0,1.451751 -1.82964,1.948371 -7.17819,1.948371 -7.46098,0 -12.86622,2.510716 -11.2021,5.20333 0.52933,0.856479 2.87356,1.557234 5.20939,1.557234 3.30319,0 3.8864,0.360563 2.62443,1.622535 -0.8924,0.892394 -1.62254,3.021972 -1.62254,4.732394 0,1.710423 -0.60845,3.10986 -1.35211,3.10986 -0.74366,0 -1.35211,-1.521127 -1.35211,-3.380282 0,-3.823543 -1.57071,-4.347113 -4.05634,-1.352113 -0.92578,1.115493 -2.52141,2.028169 -3.54584,2.028169 -1.09683,0 -1.86261,1.422551 -1.86261,3.46008 0,1.962412 0.58525,3.098374 1.35211,2.624427 0.77738,-0.480445 1.36091,0.778791 1.37282,2.962456 0.0243,4.463517 1.1285,6.375284 4.37366,7.572609 2.05552,0.7584 2.3662,-0.0195 2.3662,-5.924903 0,-4.187643 0.51918,-6.47705 1.35211,-5.962274 0.74366,0.459608 1.35211,3.416081 1.35211,6.569938 0,3.153858 0.64238,6.376669 1.42751,7.161799 1.99071,1.99071 -12.84807,3.66538 -16.26665,1.83581 -1.4083,-0.7537 -4.4473,-1.37036 -6.75334,-1.37036 -3.85698,0 -4.06955,-0.2303 -2.65397,-2.875335 0.90269,-1.686706 1.332,-6.970988 1.03852,-12.782888 l -0.50031,-9.907558 4.07947,-0.40021 c 3.04466,-0.298692 4.07947,-1.086173 4.07947,-3.104436 0,-2.625842 -0.9014,-2.704226 -31.09859,-2.704226 -35.71134,0 -67.7329,2.464517 -71.05225,5.468485 -2.66872,2.415158 -7.13385,2.528563 -10.945569,0.277995 -2.290029,-1.352113 -2.984952,-1.352113 -3.474611,0 -0.336641,0.929577 -1.930384,1.699457 -3.541652,1.710845 -2.387142,0.01687 -2.554045,0.263392 -0.901408,1.331408 1.802817,1.16507 1.802817,1.308226 0,1.288406 -4.085495,-0.04491 -8.950475,-6.174306 -8.266658,-10.415167 0.149889,-0.929577 -0.398506,-1.690141 -1.218656,-1.690141 -0.820151,0 -1.157748,-0.539509 -0.750216,-1.198909 2.056498,-3.327485 -4.363915,-4.209721 -36.527907,-5.01934 C 23.239242,62.221245 8.8265126,61.289908 6.7605634,60.344231 2.5023302,58.395047 1.4035455,52.15562 4.9893875,50.286644 6.3353652,49.585107 23.922799,48.725575 44.072574,48.376573 79.75642,47.758513 86.722329,47.021351 81.976451,44.365424 78.883213,42.634361 79.2298,40.674069 82.478874,41.523721 c 2.069508,0.541188 2.704225,0.04149 2.704225,-2.128993 0,-3.246274 6.032875,-5.508331 8.393879,-3.147327 1.012355,1.012355 2.3824,0.814774 4.649192,-0.670485 3.80014,-2.489948 10.48074,-1.579679 14.3867,1.96027 1.96279,1.778862 6.91448,2.715516 20.37041,3.853238 9.77751,0.826704 15.15546,1.587267 11.95101,1.69014 -8.34844,0.268013 -5.88454,2.372186 3.05308,2.607338 7.00914,0.184414 9.70474,-1.190733 5.81545,-2.966721 -0.92958,-0.424478 0.74366,-0.49483 3.71831,-0.156339 2.97465,0.338492 10.27605,1.019035 16.22535,1.512317 5.9493,0.493282 12.22069,1.423767 13.93643,2.067744 1.95441,0.733559 2.81899,0.684603 2.31488,-0.131076 -0.50339,-0.814496 2.48506,-0.994747 7.98195,-0.481439 11.19359,1.045274 16.01499,-1.39153 14.43673,-7.296532 -0.72647,-2.718067 -2.06168,-3.943931 -4.82844,-4.433038 l -3.8243,-0.676057 0.29114,-12.03452 c 0.21129,-8.7337 -0.1967,-12.3438723 -1.48749,-13.162394 -1.13396,-0.7190665 0.0658,-1.1353788 3.31012,-1.1485788 2.79883,-0.011388 6.29742,-0.7755162 7.77465,-1.6980637 2.13779,-1.3350703 3.23397,-1.3350703 5.37176,0 3.3535,2.0942976 13.53947,2.2241964 13.53947,0.172665 0,-3.1473473 17.69952,-0.6407203 27.04226,3.8297565 4.8338,2.312963 10.268,4.637386 12.07601,5.165385 5.70192,1.665155 11.25907,5.708762 15.89252,11.564039 4.07076,5.144208 4.48217,6.500209 4.48217,14.773056 0,10.819604 2.00056,13.701468 7.47687,10.770637 3.40755,-1.823667 8.20036,-1.961887 17.25951,-0.497748 3.57591,0.57794 5.82952,0.221634 7.43662,-1.175765 1.48857,-1.294341 6.85871,-2.325432 15.15094,-2.909051 13.8936,-0.977851 34.40324,-3.935926 38.16576,-5.50459 1.7168,-0.715769 2.7584,-0.04363 3.93534,2.539474 1.05947,2.325288 2.66997,3.512882 4.76383,3.512882 1.73978,0 3.16324,0.608451 3.16324,1.352113 0,0.743662 1.36902,1.309347 3.04226,1.257079 2.90826,-0.09085 2.92315,-0.147418 0.33802,-1.284417 -1.65725,-0.728899 2.7924,-0.917864 11.49296,-0.488077 7.80845,0.385719 25.68101,1.151825 39.7168,1.702457 22.84196,0.896104 25.71677,1.270783 27.39867,3.570912 1.67505,2.290767 1.47726,2.942664 -1.82184,6.004495 l -3.70089,3.434734 -39.24707,0.764035 c -21.58589,0.42022 -40.31186,1.24588 -41.61327,1.834802 -1.30141,0.588922 -2.3662,1.937442 -2.3662,2.996711 0,2.676494 -3.69111,3.827417 -6.03534,1.881877 -1.18441,-0.982973 -9.23819,-1.915401 -20.6025,-2.38526 -13.6616,-0.564841 -19.53551,-1.342272 -21.93508,-2.903175 -2.45185,-1.594908 -3.41662,-1.713329 -3.83099,-0.470233 -0.85414,2.562436 -4.12576,1.967813 -5.73694,-1.0427 -1.17201,-2.189934 -2.83108,-2.704226 -8.72362,-2.704226 -4.55394,0 -7.53296,0.632363 -7.96217,1.690141 -0.53233,1.311925 -0.97478,1.277689 -1.97717,-0.152995 -1.09027,-1.556106 -1.40612,-1.556106 -2.02817,0 -0.48251,1.207021 -1.12231,1.366406 -1.85382,0.461816 -0.61436,-0.759726 -3.09448,-1.566146 -5.51138,-1.792045 l -4.39437,-0.410725 v 9.376409 c 0,8.575675 -0.38277,9.860118 -4.48217,15.040519 -4.63345,5.855277 -10.1906,9.898884 -15.89252,11.564039 -1.80801,0.527999 -7.24221,2.852423 -12.07601,5.165389 -10.0304,4.79952 -26.19105,6.8572 -27.35214,3.48266 z m 18.12327,-1.38803 c 6.14902,-1.84229 6.6379,-5.603691 0.81585,-6.277164 -4.16115,-0.481348 -15.92501,4.269674 -15.92501,6.431564 0,1.90361 8.53112,1.81643 15.10916,-0.1544 z m -38.0734,-6.57065 c 2.25427,-4.21213 1.15104,-16.741255 -1.51875,-17.248219 -1.74799,-0.331923 -2.3517,1.330299 -3.0859,8.496531 -0.50203,4.900052 -0.553,9.491315 -0.11327,10.202807 1.28208,2.074451 3.13632,1.504131 4.71792,-1.451119 z m 55.92741,-2.066887 c 10.02293,-3.601279 18.89807,-10.56167 21.29856,-16.703542 1.43818,-3.679729 0.16066,-14.991873 -1.69309,-14.991873 -0.66485,0 -1.0521,3.616525 -0.86056,8.036722 0.32626,7.529078 0.0559,8.338396 -4.27991,12.812637 -3.12864,3.228516 -7.5095,5.714577 -13.52113,7.673015 -4.89113,1.593405 -9.7839,3.737578 -10.87284,4.764828 -2.79056,2.632493 -1.05225,2.353811 9.92897,-1.591787 z M 91.577465,76.253523 c -0.449295,-0.449296 -1.615493,-0.497331 -2.591549,-0.106745 -1.078625,0.43163 -0.758233,0.752021 0.816901,0.816901 1.425353,0.05871 2.223944,-0.26086 1.774648,-0.710156 z m 19.998875,-4.635321 c 4.70125,-4.384982 19.89868,-9.158303 35.23684,-11.067442 11.29943,-1.406437 14.84178,-2.328557 15.15298,-3.944514 0.58285,-3.026462 -8.7398,-6.083534 -23.61784,-7.744735 -12.45769,-1.390957 -19.73323,-4.055298 -25.99183,-9.518339 -14.535496,-12.687837 -26.035911,18.612899 -12.523591,34.08553 2.518891,2.884326 7.539941,2.110225 11.743441,-1.8105 z m -8.6606,-12.029341 c -0.95914,-0.592779 -1.53854,-2.530096 -1.28756,-4.30515 0.43959,-3.108976 0.90598,-3.236561 12.71345,-3.477862 18.49158,-0.3779 30.88588,1.124277 31.39976,3.805619 0.58189,3.036197 -5.57046,4.012237 -23.86274,3.785704 -8.1769,-0.101264 -15.39627,0.14294 -16.04306,0.542676 -0.64678,0.399735 -1.96072,0.241791 -2.91985,-0.350987 z m 24.07018,-2.781664 c 9.2338,-0.01016 16.53521,-0.267721 16.22535,-0.572369 -1.4719,-1.447147 -34.0935,-3.282145 -37.21951,-2.093636 -4.04608,1.538315 -2.8865,4.587458 1.31577,3.459854 1.58931,-0.426462 10.44458,-0.783695 19.67839,-0.793849 z m -39.464793,9.981537 c -0.449296,-0.449296 -1.615493,-0.497331 -2.591549,-0.106745 -1.078625,0.43163 -0.758233,0.752021 0.816901,0.816901 1.425352,0.05871 2.223944,-0.26086 1.774648,-0.710156 z M 194.0637,63.240943 c 4.81426,-0.913256 8.7532,-2.148646 8.7532,-2.745309 0,-1.1251 -34.02189,-1.213956 -38.19718,-0.09976 -4.04941,1.080603 -2.60152,2.965567 2.70422,3.520566 10.69016,1.118225 18.29712,0.926059 26.73976,-0.675496 z m 41.20391,0.473914 c 0,-0.652605 -0.91213,-1.943552 -2.02695,-2.868771 -1.59937,-1.327356 -2.86208,-1.336295 -5.98588,-0.04237 -3.1387,1.300091 -4.95966,1.277972 -8.78907,-0.10676 -3.75823,-1.358996 -5.19041,-1.386333 -6.45356,-0.123185 -0.89288,0.89288 -3.02285,1.623418 -4.73328,1.623418 -1.71042,0 -3.10985,0.608451 -3.10985,1.352113 0,0.823025 6.0845,1.352112 15.54929,1.352112 8.55211,0 15.5493,-0.533949 15.5493,-1.186553 z m 54.76056,-8.296753 c 0,-3.812469 -0.51711,-4.713877 -2.70422,-4.713877 -1.80036,0 -2.85295,1.049727 -3.14919,3.140587 -0.64413,4.546462 0.76144,7.26779 3.48312,6.743643 1.71843,-0.330939 2.37029,-1.752852 2.37029,-5.170353 z M 91.695445,55.098593 92.123283,51.380283 74.11798,51.313144 C 34.175823,51.164204 10.012962,51.144625 7.6806072,51.25931 c -1.7527933,0.08619 -2.3359959,0.995777 -2.028169,3.163227 0.5923752,4.170991 3.0199155,4.394366 47.7560128,4.394366 H 91.267606 Z M 326.5414,56.778729 c 1.17006,-1.893206 -3.16804,-4.248048 -7.01145,-3.806005 -4.81553,0.553848 -5.9905,4.750235 -1.52448,5.444655 3.68704,0.573297 7.63758,-0.185092 8.53593,-1.63865 z m 142.42149,0.87148 c 5.7096,-3.684475 -2.31256,-4.248271 -66.10066,-4.645547 -64.24722,-0.400136 -64.83406,-0.379106 -64.83406,2.323287 0,2.558354 0.98295,2.750647 15.88732,3.108016 35.12519,0.842213 113.35257,0.307932 115.0474,-0.785756 z M 176.74311,55.936722 c 0.27553,-0.840438 -1.35079,-1.799848 -3.61403,-2.132021 -3.3489,-0.491514 -4.11499,-0.12738 -4.11499,1.955907 0,1.979972 0.81869,2.462941 3.61403,2.132021 1.98772,-0.235311 3.83947,-1.11547 4.11499,-1.955907 z m 55.82027,0.225311 c 0,-1.793426 -3.40552,-2.077524 -24.9035,-2.077524 -23.59885,0 -31.10007,0.682576 -28.07132,2.554361 0.73504,0.454256 12.95507,1.000243 27.15563,1.213304 22.48968,0.337428 25.81919,0.119476 25.81919,-1.690141 z m 6.76056,0.626701 c 0,-0.743662 -0.91267,-1.352113 -2.02816,-1.352113 -1.1155,0 -2.02817,0.608451 -2.02817,1.352113 0,0.743662 0.91267,1.352113 2.02817,1.352113 1.11549,0 2.02816,-0.608451 2.02816,-1.352113 z m 41.29504,-0.08996 c 0.49019,-0.793138 0.67821,-1.64023 0.41782,-1.882426 -1.30377,-1.21271 -37.02151,-1.266026 -37.3717,-0.05579 -0.56886,1.965996 6.62661,3.000044 22.28327,3.202288 8.49093,0.109681 14.12142,-0.375464 14.67061,-1.264077 z m 21.91686,-0.24807 c -0.85186,-2.558454 -5.07105,-2.922187 -5.07105,-0.437171 0,1.254267 1.15605,2.127312 2.8169,2.127312 1.65225,0 2.58423,-0.698794 2.25415,-1.690141 z m 7.36839,-2.63662 c -1.26197,-1.261972 -1.62254,-0.901408 -1.62254,1.622535 0,2.523944 0.36057,2.884507 1.62254,1.622536 1.26197,-1.261972 1.26197,-1.983099 0,-3.245071 z m 22.03943,1.622535 c 0,-0.991549 -0.72569,-2.044714 -1.61265,-2.340367 -0.94114,-0.313714 -1.52459,0.631464 -1.40117,2.269875 0.22697,3.013121 3.01382,3.078304 3.01382,0.07049 z m -127.81066,-4.637 c -0.85848,-0.86075 -9.77619,-1.621398 -21.99961,-1.87649 -13.79835,-0.287958 -20.11143,0.01875 -19.20381,0.932964 1.58571,1.597249 9.5807,2.244862 28.76018,2.329645 9.8658,0.04361 13.4689,-0.357757 12.44324,-1.386119 z m 14.2332,0.580662 c -1.02324,-1.655638 -0.22148,-1.648929 7.1889,0.06016 5.0119,1.155915 6.31044,0.973583 9.18833,-1.290167 2.52367,-1.985124 4.58879,-2.441154 8.3604,-1.846188 2.75486,0.434577 5.51151,1.456616 6.12587,2.271198 0.79169,1.049706 1.31676,0.988811 1.80282,-0.209083 1.01025,-2.489766 14.99652,-2.220455 17.55501,0.338028 1.11549,1.115493 4.3971,2.028169 7.29246,2.028169 6.44366,0 7.88764,-2.197243 8.32584,-12.669025 0.27959,-6.681531 -0.12644,-7.999084 -3.57406,-11.597623 -4.47696,-4.672943 -17.31791,-9.909398 -31.59422,-12.883922 -10.56026,-2.200271 -15.12206,-4.059917 -15.12206,-6.1646094 0,-0.7174972 -1.2169,-1.3045403 -2.70422,-1.3045403 -1.77541,0 -2.70423,0.9014085 -2.70423,2.6244277 0,1.443435 -0.61009,3.001488 -1.35577,3.462339 -0.90591,0.559884 -0.90469,1.680746 0.004,3.378022 0.90836,1.697277 0.90957,2.818138 0.004,3.378022 -2.23223,1.379595 -1.53818,5.904362 1.34845,8.790993 1.48733,1.487324 2.70423,2.948709 2.70423,3.247522 0,0.298813 -3.65071,0.967005 -8.11268,1.484872 -8.13983,0.944728 -10.7584,2.816447 -5.07042,3.624269 2.03103,0.288452 2.91019,1.218579 2.64495,2.798267 -0.21851,1.301408 0.23783,2.366197 1.01409,2.366197 0.77626,0 1.41138,0.912676 1.41138,2.028169 0,1.502347 -1.57746,2.028169 -6.0845,2.028169 -5.74817,0 -7.85667,1.833477 -5.1831,4.507042 1.45434,1.454343 7.45675,1.040384 6.53521,-0.450704 z m 43.57746,-0.816901 c -0.44929,-0.449296 -1.61549,-0.497332 -2.59155,-0.106746 -1.07862,0.43163 -0.75823,0.752022 0.81691,0.816901 1.42535,0.05871 2.22394,-0.26086 1.77464,-0.710155 z m -52.73239,-2.704226 c -0.4493,-0.449296 -1.61549,-0.497331 -2.59155,-0.106745 -1.07863,0.43163 -0.75823,0.752021 0.8169,0.816901 1.42535,0.05871 2.22394,-0.26086 1.77465,-0.710156 z m -32.08451,-1.943979 c -4.09014,-0.56541 -9.87042,-1.008095 -12.84507,-0.983744 l -5.40845,0.04427 4.73239,0.996125 c 2.60282,0.547869 8.3831,0.990554 12.84508,0.983744 l 8.11267,-0.01238 z m 112.79783,-4.456345 c 1.11208,-7.415824 -0.35321,-11.123908 -6.86773,-17.379598 -4.72771,-4.539874 -23.96748,-13.196778 -25.63144,-11.532824 -1.15925,1.159257 2.99726,3.36523 11.74923,6.235625 5.98798,1.963888 10.40479,4.476734 13.52113,7.69255 4.33582,4.474241 4.60617,5.28356 4.27991,12.812638 -0.4031,9.302542 1.65255,10.816348 2.9489,2.171609 z M 133.85916,43.267607 C 132,42.672201 128.3493,42.185051 125.74648,42.185051 c -4.28259,0 -4.41111,0.102895 -1.35211,1.082556 1.85915,0.595405 5.50986,1.082555 8.11267,1.082555 4.28259,0 4.41111,-0.102894 1.35212,-1.082555 z M 213.6338,18.941572 c 0,-7.589933 -1.54954,-10.8288957 -5.18063,-10.8288957 -1.56127,0 -1.81247,1.9179217 -1.29904,9.9182767 0.35009,5.455052 1.13143,10.719058 1.73632,11.69779 2.05645,3.327406 4.74335,-2.78306 4.74335,-10.787171 z m 9.96469,7.762654 c 1.19832,-4.471516 1.02837,-17.239437 -0.22947,-17.239437 -2.11332,0 -4.32677,3.291814 -4.32677,6.434727 0,1.81626 -0.59168,2.823975 -1.37416,2.340375 -0.7558,-0.467106 -1.0501,-1.373648 -0.654,-2.014538 0.39609,-0.640891 0.10179,-1.547433 -0.65401,-2.014538 -0.86164,-0.532528 -1.37416,1.701952 -1.37416,5.991078 0,3.762199 0.55148,6.840361 1.22553,6.840361 0.67404,0 0.9073,-1.216901 0.51835,-2.704225 -0.38894,-1.487324 -0.10381,-2.704226 0.63363,-2.704226 0.73744,0 1.70587,1.825353 2.15206,4.056339 0.95938,4.796893 2.93758,5.288213 4.083,1.014084 z m 31.65647,-15.994922 c 0.47504,-2.5121577 -7.45505,-5.3008531 -15.0738,-5.3008531 -6.55171,0 -6.21109,2.2400575 0.83293,5.4776721 6.65993,3.061078 13.645,2.97435 14.24087,-0.176819 z"
       id="path1" />
  </g>
</svg>
