<?xml version="1.0" encoding="UTF-8" standalone="no"?>
<!-- Created with Inkscape (http://www.inkscape.org/) -->

<svg
   version="1.1"
   id="svg1"
   width="475.94366"
   height="110.87324"
   viewBox="0 0 475.94366 110.87324"
   sodipodi:docname="Bicycle1.svg"
   inkscape:version="1.3.2 (091e20e, 2023-11-25, custom)"
   xmlns:inkscape="http://www.inkscape.org/namespaces/inkscape"
   xmlns:sodipodi="http://sodipodi.sourceforge.net/DTD/sodipodi-0.dtd"
   xmlns="http://www.w3.org/2000/svg"
   xmlns:svg="http://www.w3.org/2000/svg">
  <defs
     id="defs1" />
  <sodipodi:namedview
     id="namedview1"
     pagecolor="#ffffff"
     bordercolor="#000000"
     borderopacity="0.25"
     inkscape:showpageshadow="2"
     inkscape:pageopacity="0.0"
     inkscape:pagecheckerboard="0"
     inkscape:deskcolor="#d1d1d1"
     inkscape:zoom="1.0211293"
     inkscape:cx="237.97183"
     inkscape:cy="55.330899"
     inkscape:window-width="1600"
     inkscape:window-height="837"
     inkscape:window-x="-8"
     inkscape:window-y="-8"
     inkscape:window-maximized="1"
     inkscape:current-layer="g1" />
  <g
     inkscape:groupmode="layer"
     inkscape:label="Image"
     id="g1">
    <path
       style="fill:#000000"
       d="m 232.2535,105.27027 c -0.52188,-1.51677 4.63248,-7.918159 6.37566,-7.918159 0.28489,0 4.96904,-0.927391 10.40921,-2.06087 14.27554,-2.974361 27.11652,-8.210898 31.5934,-12.88375 3.45929,-3.610723 3.85414,-4.904293 3.56996,-11.695481 -0.17573,-4.199653 -0.91586,-8.354284 -1.64473,-9.232512 -0.8945,-1.077814 -7.54317,-1.639353 -20.45694,-1.727772 -16.7747,-0.114853 -19.5284,0.181018 -22.35134,2.401548 -1.89636,1.491673 -2.64527,2.887499 -1.82219,3.396191 0.76858,0.475008 1.39741,1.740417 1.39741,2.812022 0,1.451751 -1.82964,1.948371 -7.17819,1.948371 -7.46098,0 -12.86622,2.510716 -11.2021,5.20333 0.52933,0.856478 2.87356,1.557233 5.20939,1.557233 3.30319,0 3.8864,0.360564 2.62443,1.622535 -0.8924,0.892395 -1.62254,3.021972 -1.62254,4.732395 0,1.710422 -0.60845,3.109859 -1.35211,3.109859 -0.74366,0 -1.35211,-1.521127 -1.35211,-3.380282 0,-3.823542 -1.57071,-4.347112 -4.05634,-1.352112 -0.92578,1.115492 -2.52141,2.028169 -3.54584,2.028169 -1.09683,0 -1.86261,1.422551 -1.86261,3.460079 0,1.962412 0.58525,3.098374 1.35211,2.624427 0.77738,-0.480445 1.36091,0.778791 1.37282,2.962456 0.0243,4.463517 1.1285,6.375283 4.37366,7.572603 2.05552,0.7584 2.3662,-0.0195 2.3662,-5.924898 0,-4.187642 0.51918,-6.477049 1.35211,-5.962273 0.74366,0.459608 1.35211,3.41608 1.35211,6.569938 0,3.153858 0.64238,6.376663 1.42751,7.161803 1.99071,1.99071 -12.84807,3.66537 -16.26665,1.83581 -1.4083,-0.7537 -4.4473,-1.37037 -6.75334,-1.37037 -3.85698,0 -4.06955,-0.2303 -2.65397,-2.875329 0.90269,-1.686706 1.332,-6.970988 1.03852,-12.782888 l -0.50031,-9.907557 4.07947,-0.400211 c 3.04466,-0.298691 4.07947,-1.086172 4.07947,-3.104435 0,-2.625842 -0.9014,-2.704226 -31.09859,-2.704226 -35.71134,0 -67.7329,2.464516 -71.05225,5.468485 -2.66872,2.415158 -7.13385,2.528563 -10.945569,0.277994 -2.290029,-1.352113 -2.984952,-1.352113 -3.474611,0 -0.336641,0.929578 -1.930384,1.699458 -3.541652,1.710846 -2.387142,0.01687 -2.554045,0.263391 -0.901408,1.331408 1.802817,1.165069 1.802817,1.308226 0,1.288406 -4.085495,-0.04492 -8.950475,-6.174306 -8.266658,-10.415167 0.149889,-0.929577 -0.398506,-1.690141 -1.218656,-1.690141 -0.820151,0 -1.157748,-0.539509 -0.750216,-1.198909 2.056498,-3.327485 -4.363915,-4.209721 -36.527907,-5.01934 C 23.239242,62.221242 8.8265126,61.289905 6.7605634,60.344228 2.5023302,58.395044 1.4035455,52.155617 4.9893875,50.286642 6.3353652,49.585105 23.922799,48.725573 44.072574,48.37657 79.75642,47.758511 86.722329,47.021349 81.976451,44.365422 78.883213,42.63436 79.2298,40.674067 82.478874,41.523719 c 2.069508,0.541188 2.704225,0.04149 2.704225,-2.128993 0,-3.246274 6.032875,-5.508331 8.393879,-3.147327 1.012355,1.012356 2.3824,0.814774 4.649192,-0.670485 3.80014,-2.489948 10.48074,-1.579678 14.3867,1.960271 1.96279,1.778861 6.91448,2.715515 20.37041,3.853237 9.77751,0.826704 15.15546,1.587267 11.95101,1.69014 -8.34844,0.268013 -5.88454,2.372186 3.05308,2.607338 7.00914,0.184414 9.70474,-1.190733 5.81545,-2.966721 -0.92958,-0.424478 0.74366,-0.49483 3.71831,-0.156338 2.97465,0.338491 10.27605,1.019034 16.22535,1.512316 5.9493,0.493282 12.22069,1.423767 13.93643,2.067744 1.95441,0.733559 2.81899,0.684603 2.31488,-0.131076 -0.50339,-0.814496 2.48506,-0.994747 7.98195,-0.481439 11.19359,1.045274 16.01499,-1.39153 14.43673,-7.296531 -0.72647,-2.718068 -2.06168,-3.943932 -4.82844,-4.433039 l -3.8243,-0.676056 0.29114,-12.03452 c 0.21129,-8.733699 -0.1967,-12.3438717 -1.48749,-13.1623933 -1.13396,-0.7190665 0.0658,-1.1353788 3.31012,-1.1485788 2.79883,-0.011388 6.29742,-0.7755162 7.77465,-1.6980636 2.13779,-1.3350703 3.23397,-1.3350703 5.37176,0 3.3535,2.0942975 13.53947,2.2241962 13.53947,0.172665 0,-3.1473471 17.69952,-0.6407203 27.04226,3.8297563 4.8338,2.3129634 10.268,4.6373864 12.07601,5.1653854 5.70192,1.665155 11.25907,5.708762 15.89252,11.564038 4.07076,5.144208 4.48217,6.500209 4.48217,14.773055 0,10.819604 2.00056,13.701467 7.47687,10.770637 3.40755,-1.823668 8.20036,-1.961887 17.25951,-0.497748 3.57591,0.577939 5.82952,0.221634 7.43662,-1.175766 1.48857,-1.29434 6.85871,-2.325431 15.15094,-2.90905 13.8936,-0.977851 34.40324,-3.935926 38.16576,-5.50459 1.7168,-0.715769 2.7584,-0.04363 3.93534,2.539474 1.05947,2.325288 2.66997,3.512882 4.76383,3.512882 1.73978,0 3.16324,0.608451 3.16324,1.352113 0,0.743661 1.36902,1.309347 3.04226,1.257079 2.90826,-0.09085 2.92315,-0.147419 0.33802,-1.284418 -1.65725,-0.728898 2.7924,-0.917863 11.49296,-0.488076 7.80845,0.385719 25.68101,1.151824 39.7168,1.702457 22.84196,0.896104 25.71677,1.270783 27.39867,3.570911 1.67505,2.290767 1.47726,2.942665 -1.82184,6.004496 l -3.70089,3.434733 -39.24707,0.764035 c -21.58589,0.42022 -40.31186,1.24588 -41.61327,1.834802 -1.30141,0.588922 -2.3662,1.937442 -2.3662,2.996711 0,2.676494 -3.69111,3.827417 -6.03534,1.881877 -1.18441,-0.982973 -9.23819,-1.915401 -20.6025,-2.38526 -13.6616,-0.564841 -19.53551,-1.342272 -21.93508,-2.903175 -2.45185,-1.594908 -3.41662,-1.713329 -3.83099,-0.470233 -0.85414,2.562436 -4.12576,1.967813 -5.73694,-1.0427 -1.17201,-2.189933 -2.83108,-2.704226 -8.72362,-2.704226 -4.55394,0 -7.53296,0.632363 -7.96217,1.690141 -0.53233,1.311926 -0.97478,1.277689 -1.97717,-0.152995 -1.09027,-1.556106 -1.40612,-1.556106 -2.02817,0 -0.48251,1.207021 -1.12231,1.366406 -1.85382,0.461816 -0.61436,-0.759725 -3.09448,-1.566146 -5.51138,-1.792044 l -4.39437,-0.410726 v 9.376409 c 0,8.575675 -0.38277,9.860118 -4.48217,15.040518 -4.63345,5.855277 -10.1906,9.898884 -15.89252,11.564039 -1.80801,0.527999 -7.24221,2.852422 -12.07601,5.165383 -10.0304,4.79952 -26.19105,6.8572 -27.35214,3.48266 z m 18.12327,-1.38803 c 6.14902,-1.84229 6.6379,-5.603685 0.81585,-6.277159 -4.16115,-0.481347 -15.92501,4.269669 -15.92501,6.431559 0,1.90361 8.53112,1.81643 15.10916,-0.1544 z m -38.0734,-6.570645 c 2.25427,-4.212129 1.15104,-16.741254 -1.51875,-17.248218 -1.74799,-0.331923 -2.3517,1.3303 -3.0859,8.496532 -0.50203,4.900051 -0.553,9.491313 -0.11327,10.202805 1.28208,2.074446 3.13632,1.504126 4.71792,-1.451119 z m 55.92741,-2.066886 c 10.02293,-3.601279 18.89807,-10.56167 21.29856,-16.703541 1.43818,-3.679729 0.16066,-14.991873 -1.69309,-14.991873 -0.66485,0 -1.0521,3.616525 -0.86056,8.036722 0.32626,7.529077 0.0559,8.338396 -4.27991,12.812637 -3.12864,3.228515 -7.5095,5.714576 -13.52113,7.673014 -4.89113,1.593405 -9.7839,3.737578 -10.87284,4.764828 -2.79056,2.632493 -1.05225,2.353811 9.92897,-1.591787 z M 91.577465,76.25352 c -0.449295,-0.449296 -1.615493,-0.497331 -2.591549,-0.106746 -1.078625,0.43163 -0.758233,0.752022 0.816901,0.816902 1.425353,0.05871 2.223944,-0.26086 1.774648,-0.710156 z m 19.998875,-4.635321 c 4.70125,-4.384982 19.89868,-9.158303 35.23684,-11.067441 11.29943,-1.406438 14.84178,-2.328558 15.15298,-3.944514 0.58285,-3.026462 -8.7398,-6.083534 -23.61784,-7.744735 -12.45769,-1.390957 -19.73323,-4.055298 -25.99183,-9.518338 -14.535496,-12.687837 -26.035911,18.612898 -12.523591,34.085528 2.518891,2.884325 7.539941,2.110225 11.743441,-1.8105 z m -8.6606,-12.029341 c -0.95914,-0.592778 -1.53854,-2.530096 -1.28756,-4.30515 0.43959,-3.108976 0.90598,-3.23656 12.71345,-3.477861 18.49158,-0.3779 30.88588,1.124277 31.39976,3.805618 0.58189,3.036198 -5.57046,4.012238 -23.86274,3.785704 -8.1769,-0.101264 -15.39627,0.142941 -16.04306,0.542676 -0.64678,0.399735 -1.96072,0.241791 -2.91985,-0.350987 z m 24.07018,-2.781664 c 9.2338,-0.01015 16.53521,-0.26772 16.22535,-0.572369 -1.4719,-1.447146 -34.0935,-3.282145 -37.21951,-2.093636 -4.04608,1.538316 -2.8865,4.587458 1.31577,3.459855 1.58931,-0.426463 10.44458,-0.783695 19.67839,-0.79385 z m -39.464793,9.981537 c -0.449296,-0.449295 -1.615493,-0.497331 -2.591549,-0.106745 -1.078625,0.43163 -0.758233,0.752021 0.816901,0.816901 1.425352,0.05871 2.223944,-0.26086 1.774648,-0.710156 z M 194.0637,63.240941 c 4.81426,-0.913257 8.7532,-2.148647 8.7532,-2.74531 0,-1.1251 -34.02189,-1.213956 -38.19718,-0.09976 -4.04941,1.080603 -2.60152,2.965568 2.70422,3.520566 10.69016,1.118225 18.29712,0.926059 26.73976,-0.675495 z m 41.20391,0.473913 c 0,-0.652605 -0.91213,-1.943551 -2.02695,-2.86877 -1.59937,-1.327357 -2.86208,-1.336295 -5.98588,-0.04237 -3.1387,1.300092 -4.95966,1.277973 -8.78907,-0.10676 -3.75823,-1.358995 -5.19041,-1.386333 -6.45356,-0.123184 -0.89288,0.892879 -3.02285,1.623417 -4.73328,1.623417 -1.71042,0 -3.10985,0.608451 -3.10985,1.352113 0,0.823025 6.0845,1.352112 15.54929,1.352112 8.55211,0 15.5493,-0.533949 15.5493,-1.186553 z m 54.76056,-8.296752 c 0,-3.812469 -0.51711,-4.713877 -2.70422,-4.713877 -1.80036,0 -2.85295,1.049726 -3.14919,3.140587 -0.64413,4.546462 0.76144,7.26779 3.48312,6.743642 1.71843,-0.330939 2.37029,-1.752852 2.37029,-5.170352 z M 91.695445,55.098591 92.123283,51.380281 74.11798,51.313141 C 34.175823,51.164202 10.012962,51.144623 7.6806072,51.259308 5.9278139,51.345495 5.3446113,52.255085 5.6524382,54.422534 6.2448134,58.593525 8.6723537,58.8169 53.408451,58.8169 H 91.267606 Z M 326.5414,56.778726 c 1.17006,-1.893206 -3.16804,-4.248047 -7.01145,-3.806005 -4.81553,0.553849 -5.9905,4.750236 -1.52448,5.444656 3.68704,0.573296 7.63758,-0.185093 8.53593,-1.638651 z m 142.42149,0.87148 c 5.7096,-3.684474 -2.31256,-4.248271 -66.10066,-4.645546 -64.24722,-0.400136 -64.83406,-0.379107 -64.83406,2.323287 0,2.558354 0.98295,2.750646 15.88732,3.108016 35.12519,0.842213 113.35257,0.307931 115.0474,-0.785757 z M 176.74311,55.936719 c 0.27553,-0.840438 -1.35079,-1.799847 -3.61403,-2.132021 -3.3489,-0.491513 -4.11499,-0.127379 -4.11499,1.955908 0,1.979971 0.81869,2.46294 3.61403,2.13202 1.98772,-0.235311 3.83947,-1.115469 4.11499,-1.955907 z m 55.82027,0.225311 c 0,-1.793425 -3.40552,-2.077524 -24.9035,-2.077524 -23.59885,0 -31.10007,0.682577 -28.07132,2.554362 0.73504,0.454256 12.95507,1.000242 27.15563,1.213303 22.48968,0.337428 25.81919,0.119476 25.81919,-1.690141 z m 6.76056,0.626701 c 0,-0.743662 -0.91267,-1.352112 -2.02816,-1.352112 -1.1155,0 -2.02817,0.60845 -2.02817,1.352112 0,0.743662 0.91267,1.352113 2.02817,1.352113 1.11549,0 2.02816,-0.608451 2.02816,-1.352113 z m 41.29504,-0.08996 c 0.49019,-0.793139 0.67821,-1.640231 0.41782,-1.882426 -1.30377,-1.21271 -37.02151,-1.266026 -37.3717,-0.05579 -0.56886,1.965997 6.62661,3.000045 22.28327,3.202288 8.49093,0.109681 14.12142,-0.375464 14.67061,-1.264076 z m 21.91686,-0.248071 c -0.85186,-2.558454 -5.07105,-2.922186 -5.07105,-0.43717 0,1.254267 1.15605,2.127311 2.8169,2.127311 1.65225,0 2.58423,-0.698793 2.25415,-1.690141 z m 7.36839,-2.636619 c -1.26197,-1.261972 -1.62254,-0.901409 -1.62254,1.622535 0,2.523943 0.36057,2.884507 1.62254,1.622535 1.26197,-1.261972 1.26197,-1.983099 0,-3.24507 z m 22.03943,1.622535 c 0,-0.991549 -0.72569,-2.044715 -1.61265,-2.340367 -0.94114,-0.313714 -1.52459,0.631464 -1.40117,2.269875 0.22697,3.01312 3.01382,3.078304 3.01382,0.07049 z M 204.133,50.799618 c -0.85848,-0.860749 -9.77619,-1.621397 -21.99961,-1.876489 -13.79835,-0.287958 -20.11143,0.01875 -19.20381,0.932964 1.58571,1.597249 9.5807,2.244861 28.76018,2.329644 9.8658,0.04361 13.4689,-0.357756 12.44324,-1.386119 z m 14.2332,0.580663 c -1.02324,-1.655638 -0.22148,-1.648929 7.1889,0.06016 5.0119,1.155916 6.31044,0.973583 9.18833,-1.290166 2.52367,-1.985124 4.58879,-2.441154 8.3604,-1.846188 2.75486,0.434577 5.51151,1.456616 6.12587,2.271198 0.79169,1.049706 1.31676,0.988811 1.80282,-0.209084 1.01025,-2.489765 14.99652,-2.220454 17.55501,0.338029 1.11549,1.115492 4.3971,2.028168 7.29246,2.028168 6.44366,0 7.88764,-2.197243 8.32584,-12.669024 0.27959,-6.681531 -0.12644,-7.999084 -3.57406,-11.597623 -4.47696,-4.672942 -17.31791,-9.909397 -31.59422,-12.883921 -10.56026,-2.200271 -15.12206,-4.059917 -15.12206,-6.1646088 0,-0.7174972 -1.2169,-1.3045403 -2.70422,-1.3045403 -1.77541,0 -2.70423,0.9014085 -2.70423,2.6244281 0,1.443435 -0.61009,3.001487 -1.35577,3.462339 -0.90591,0.559884 -0.90469,1.680745 0.004,3.378021 0.90836,1.697277 0.90957,2.818138 0.004,3.378022 -2.23223,1.379595 -1.53818,5.904362 1.34845,8.790992 1.48733,1.487324 2.70423,2.948709 2.70423,3.247522 0,0.298813 -3.65071,0.967006 -8.11268,1.484873 -8.13983,0.944727 -10.7584,2.816446 -5.07042,3.624269 2.03103,0.288452 2.91019,1.218578 2.64495,2.798266 -0.21851,1.301408 0.23783,2.366197 1.01409,2.366197 0.77626,0 1.41138,0.912676 1.41138,2.028169 0,1.502347 -1.57746,2.028169 -6.0845,2.028169 -5.74817,0 -7.85667,1.833477 -5.1831,4.507042 1.45434,1.454343 7.45675,1.040383 6.53521,-0.450704 z m 43.57746,-0.816902 c -0.44929,-0.449295 -1.61549,-0.497331 -2.59155,-0.106745 -1.07862,0.43163 -0.75823,0.752021 0.81691,0.816901 1.42535,0.05871 2.22394,-0.26086 1.77464,-0.710156 z m -52.73239,-2.704225 c -0.4493,-0.449296 -1.61549,-0.497331 -2.59155,-0.106746 -1.07863,0.43163 -0.75823,0.752022 0.8169,0.816902 1.42535,0.05871 2.22394,-0.26086 1.77465,-0.710156 z m -32.08451,-1.943979 c -4.09014,-0.56541 -9.87042,-1.008095 -12.84507,-0.983744 l -5.40845,0.04427 4.73239,0.996125 c 2.60282,0.547869 8.3831,0.990554 12.84508,0.983744 l 8.11267,-0.01238 z M 289.92459,41.45883 c 1.11208,-7.415824 -0.35321,-11.123908 -6.86773,-17.379597 -4.72771,-4.539874 -23.96748,-13.196777 -25.63144,-11.532823 -1.15925,1.159256 2.99726,3.365229 11.74923,6.235624 5.98798,1.963888 10.40479,4.476734 13.52113,7.69255 4.33582,4.474241 4.60617,5.283559 4.27991,12.812637 -0.4031,9.302542 1.65255,10.816348 2.9489,2.171609 z M 133.85916,43.267605 C 132,42.672199 128.3493,42.18505 125.74648,42.18505 c -4.28259,0 -4.41111,0.102894 -1.35211,1.082555 1.85915,0.595405 5.50986,1.082555 8.11267,1.082555 4.28259,0 4.41111,-0.102894 1.35212,-1.082555 z M 213.6338,18.941571 c 0,-7.589932 -1.54954,-10.8288951 -5.18063,-10.8288951 -1.56127,0 -1.81247,1.9179211 -1.29904,9.9182761 0.35009,5.455052 1.13143,10.719058 1.73632,11.69779 2.05645,3.327406 4.74335,-2.78306 4.74335,-10.787171 z m 9.96469,7.762654 c 1.19832,-4.471516 1.02837,-17.2394364 -0.22947,-17.2394364 -2.11332,0 -4.32677,3.2918134 -4.32677,6.4347274 0,1.81626 -0.59168,2.823974 -1.37416,2.340374 -0.7558,-0.467106 -1.0501,-1.373648 -0.654,-2.014538 0.39609,-0.640891 0.10179,-1.547433 -0.65401,-2.014538 -0.86164,-0.532528 -1.37416,1.701953 -1.37416,5.991078 0,3.762199 0.55148,6.840361 1.22553,6.840361 0.67404,0 0.9073,-1.216901 0.51835,-2.704225 -0.38894,-1.487324 -0.10381,-2.704226 0.63363,-2.704226 0.73744,0 1.70587,1.825353 2.15206,4.056338 0.95938,4.796894 2.93758,5.288214 4.083,1.014085 z m 31.65647,-15.994921 c 0.47504,-2.512158 -7.45505,-5.3008534 -15.0738,-5.3008534 -6.55171,0 -6.21109,2.2400575 0.83293,5.4776724 6.65993,3.061078 13.645,2.974349 14.24087,-0.176819 z"
       id="path1" />
  </g>
</svg>
