<?xml version="1.0" encoding="UTF-8" standalone="no"?>
<!-- Created with Inkscape (http://www.inkscape.org/) -->

<svg
   version="1.1"
   id="svg1"
   width="1386.6667"
   height="997.33331"
   viewBox="0 0 1386.6667 997.33331"
   sodipodi:docname="ObsPlanePo-2.svg"
   inkscape:version="1.3.2 (091e20e, 2023-11-25, custom)"
   xmlns:inkscape="http://www.inkscape.org/namespaces/inkscape"
   xmlns:sodipodi="http://sodipodi.sourceforge.net/DTD/sodipodi-0.dtd"
   xmlns="http://www.w3.org/2000/svg"
   xmlns:svg="http://www.w3.org/2000/svg">
  <defs
     id="defs1" />
  <sodipodi:namedview
     id="namedview1"
     pagecolor="#ffffff"
     bordercolor="#000000"
     borderopacity="0.25"
     inkscape:showpageshadow="2"
     inkscape:pageopacity="0.0"
     inkscape:pagecheckerboard="0"
     inkscape:deskcolor="#d1d1d1"
     inkscape:zoom="0.35048075"
     inkscape:cx="693.33337"
     inkscape:cy="497.88755"
     inkscape:window-width="1600"
     inkscape:window-height="837"
     inkscape:window-x="-8"
     inkscape:window-y="-8"
     inkscape:window-maximized="1"
     inkscape:current-layer="g1" />
  <g
     inkscape:groupmode="layer"
     inkscape:label="Image"
     id="g1">
    <path
       style="fill:#000000"
       d="m 691.6601,991.99998 c -0.44822,-3.3 -1.56932,-22.59011 -2.49134,-42.86691 l -1.6764,-36.86691 -7.30174,-1.46639 c -4.01596,-0.80652 -7.39382,-1.31642 -7.50636,-1.1331 -0.24421,0.39781 -4.68671,9.84195 -13.79831,29.33331 l -6.70038,14.33333 H 597.6577 c -29.99032,0 -61.08207,-0.63778 -69.09277,-1.4173 -41.86098,-4.07347 -75.87276,-15.56694 -100.21486,-33.86523 -11.4344,-8.59539 -22.8938,-24.3863 -23.70095,-32.65961 -0.18197,-1.86515 -0.76971,-4.44917 -1.3061,-5.74226 -0.53639,-1.29309 -0.74621,-6.4045 -0.46627,-11.35868 0.74709,-13.22169 5.67953,-22.44127 19.19283,-35.87469 9.84878,-9.79056 12.82122,-11.81844 28.78991,-19.64129 30.48763,-14.93548 57.55991,-20.66134 102.80721,-21.744 18.56864,-0.4443 30.33333,-1.23601 30.33333,-2.04129 0,-0.76715 0.76187,-0.6832 1.82776,0.2014 2.03579,1.68956 84.82518,2.09638 84.85641,0.41698 0.01,-0.51738 -1.16172,-9.34069 -2.60299,-19.60736 -2.69483,-19.19619 -6.56556,-48.92809 -10.52036,-80.80896 -1.273,-10.26213 -3.04697,-19.10194 -4.08415,-20.35166 -1.36897,-1.64951 -2.10304,-10.22923 -2.89683,-33.85771 -0.58477,-17.40658 -2.0608,-45.74833 -3.28007,-62.98166 -1.21928,-17.23333 -2.61052,-48.13333 -3.09165,-68.66667 l -0.87478,-37.33333 -90,-0.31856 c -49.50001,-0.1752 -158.10001,-0.49927 -241.33335,-0.72015 -165.55861,-0.43935 -161.7799,-0.26864 -186.37706,-8.42035 -30.420778,-10.08172 -59.517341,-32.3316 -69.107822,-52.84614 -1.121435,-2.3988 -3.158975,-6.46146 -4.527867,-9.02813 -5.617701,-10.53317 -8.317531,-33.22928 -5.431236,-45.65767 1.132259,-4.87551 1.013405,-5.09794 -5.136071,-9.61207 C 32.593561,332.91774 15.848678,315.0069 12.678153,308.65379 11.217804,305.72753 9.3706204,302.43333 8.5733018,301.33333 4.2773433,295.40652 0.97793012,282.74036 0.32983154,269.68736 -0.25338756,257.94106 0.07562988,254.7248 2.6932712,246.58392 10.335688,222.81597 30.162957,202.72023 61.227627,187.25697 c 19.345321,-9.62964 33.504916,-14.41474 56.105713,-18.9604 l 18,-3.62031 254.00002,-0.67147 254.00001,-0.67146 0.38726,-11 c 0.38857,-11.0374 -0.82214,-13.74914 -3.72059,-8.33333 -1.7506,3.27101 -2.88841,3.32864 -6.58143,0.33333 L 630.54176,142 l 4.24846,-8.49728 c 3.27827,-6.5568 4.48625,-11.12409 5.28972,-20 0.91217,-10.07673 4.33795,-25.447133 7.24426,-32.502722 0.6901,-1.675334 0.3322,-2.333333 -1.26917,-2.333333 -4.71449,0 -7.37381,2.872994 -9.53241,10.298301 l -2.2,7.567737 -2.49462,-3.080731 c -3.44606,-4.255698 -3.29951,-15.41814 0.32084,-24.437671 1.54851,-3.857866 2.98205,-10.683983 3.18565,-15.169148 0.22343,-4.922124 1.28234,-9.546993 2.67121,-11.666667 2.06293,-3.148432 3.14746,-3.517829 10.48102,-3.569888 13.5003,-0.09584 18.18745,-1.600157 27.06443,-8.686213 8.23568,-6.574137 9.2466,-8.589052 4.30928,-8.589052 -2.42029,0 -2.61487,-0.776714 -2.25464,-9 0.39039,-8.9118829 0.43341,-9.0042678 4.39425,-9.4359293 2.2,-0.2397613 4.57,-0.9897613 5.26667,-1.6666667 1.64,-1.59348409 9.15999,-1.59348409 10.8,0 0.69666,0.6769054 3.06666,1.4269054 5.26666,1.6666667 3.95192,0.4306893 4.0047,0.5420687 4.39037,9.2655063 0.35111,7.941561 0.11644,8.90121 -2.33333,9.54184 -1.49804,0.391745 -2.68232,1.218436 -2.63173,1.83709 0.0506,0.618654 3.97733,4.009524 8.72611,7.535266 8.55348,6.350544 8.75506,6.419062 21.5747,7.333333 l 12.94055,0.922894 2.40571,4.666666 c 1.72292,3.342187 2.19545,6.331391 1.66492,10.53215 -0.88527,7.00959 -2.66067,9.46785 -6.83782,9.46785 -1.70903,0 -4.65967,0.707293 -6.55698,1.571762 -2.97177,1.354031 -3.32748,2.139019 -2.56778,5.666667 0.48502,2.252197 2.30912,6.547618 4.05357,9.54538 1.74444,2.997763 3.17172,7.041327 3.17172,8.985698 0,1.944372 1.18395,6.651135 2.63101,10.459474 1.44705,3.80834 2.29027,8.28185 1.87382,9.94113 -1.08551,4.32501 1.656,15.98045 5.73544,24.38405 l 3.50527,7.22082 -3.02048,2.44584 c -3.93079,3.18296 -4.59342,3.09552 -6.72506,-0.88749 -3.12885,-5.8463 -4.11391,-3.63877 -3.71858,8.33333 l 0.38524,11.66667 254.00002,0.67146 254.00004,0.67147 18,3.60821 c 19.9224,3.99358 34.9232,8.54058 47.727,14.4669 4.6525,2.15341 8.8845,3.91529 9.4045,3.91529 0.52,0 6.5669,3.63531 13.4374,8.07846 40.2442,26.02568 55.333,59.37356 43.275,95.64254 -1.1481,3.45345 -3.0592,7.779 -4.2469,9.61233 -1.1876,1.83334 -2.2806,4.08892 -2.4287,5.01242 -0.9127,5.69018 -19.9424,27.17197 -30.0814,33.95768 l -6.5194,4.36324 0.9636,7.33333 c 0.5299,4.03333 0.8039,11.50536 0.6088,16.60451 -0.3866,10.10394 -5.6215,28.75208 -8.8153,31.40273 -1.0952,0.90893 -1.9913,2.55295 -1.9913,3.65336 0,3.49578 -11.6356,18.46497 -20.7402,26.68218 -22.4963,20.30377 -52.1969,31.96909 -89.2598,35.0581 -8.1272,0.67736 -115.5472,1.23206 -240.92132,1.24409 -146.22069,0.014 -226.54018,0.48368 -227.06183,1.32772 -0.5092,0.82391 -1.75646,0.71319 -3.37874,-0.29994 -1.76455,-1.10198 -3.00262,-1.17493 -3.9451,-0.23245 -0.82036,0.82035 -1.92408,17.99049 -2.74053,42.63328 -0.75185,22.69286 -2.24874,53.48725 -3.32642,68.43198 -1.07768,14.94473 -1.95942,36.86122 -1.95942,48.70332 0,15.91107 -0.47075,22.21758 -1.80351,24.16111 -0.99193,1.4465 -2.18973,6.01666 -2.66177,10.1559 -0.68538,6.00999 -0.45639,7.6801 1.13685,8.29148 2.2474,0.86242 2.61828,5.8218 0.66177,8.84929 -1.00358,1.55293 -1.29707,1.16278 -1.31292,-1.74536 -0.0386,-7.08491 -2.31225,-2.31847 -3.1997,6.70788 -1.39942,14.23353 -12.37039,97.78585 -13.73744,104.62111 l -0.73248,3.66239 65.31868,0.0357 c 35.92527,0.0196 71.24635,0.64083 78.49127,1.38045 64.37156,6.57152 112.77203,32.64528 123.18585,66.36129 2.84235,9.20245 3.49858,19.63016 1.32008,20.97655 -0.73333,0.45322 -1.33333,2.49927 -1.33333,4.54677 0,4.51233 -5.26948,14.76254 -11.53002,22.42821 -14.65356,17.94246 -46.37364,33.74592 -82.33458,41.02042 -25.20706,5.09911 -43.63121,6.13926 -101.35926,5.72233 l -53.22384,-0.3844 -9.18204,-20.66667 c -5.05012,-11.36667 -9.63272,-21.12 -10.18356,-21.67407 -0.55084,-0.55408 -4.4182,-0.32125 -8.59412,0.5174 l -7.5926,1.52481 0.009,11.4826 c 0.012,16.16809 -2.71414,65.34869 -3.8884,70.14926 -0.94324,3.85611 -1.00775,3.78417 -1.79337,-2 z m 35.00661,-208.58797 c 0,-2.52339 0.6,-4.9588 1.33333,-5.41203 0.80524,-0.49766 1.33334,1.31949 1.33334,4.58798 0,2.97661 -0.6,5.41202 -1.33334,5.41202 -0.73333,0 -1.33333,-2.06459 -1.33333,-4.58797 z m -69.77778,-5.63425 c -1.40458,-1.40457 -1.03406,-8.44444 0.44444,-8.44444 0.73334,0 1.33334,2.1 1.33334,4.66666 0,4.79561 -0.24319,5.31238 -1.77778,3.77778 z m 71.11111,-21.69909 c 0,-2.15672 0.6,-4.29213 1.33334,-4.74535 0.79349,-0.49041 1.33333,1.09726 1.33333,3.92131 0,2.60994 -0.6,4.74535 -1.33333,4.74535 -0.73334,0 -1.33334,-1.76459 -1.33334,-3.92131 z m -72.44445,-4.96757 c -1.41101,-1.41101 -1.0307,-9.77778 0.44445,-9.77778 0.73333,0 1.33333,2.4 1.33333,5.33333 0,5.44972 -0.22071,6.00151 -1.77778,4.44445 z m 73.77779,-23.03243 c 0,-2.97661 0.6,-5.41202 1.33333,-5.41202 0.73333,0 1.33333,2.06459 1.33333,4.58798 0,2.52339 -0.6,4.9588 -1.33333,5.41202 -0.80524,0.49767 -1.33333,-1.31949 -1.33333,-4.58798 z m -75.11112,-4.96757 c -1.40457,-1.40458 -1.03406,-8.44445 0.44445,-8.44445 0.73333,0 1.33333,2.1 1.33333,4.66667 0,4.79561 -0.24318,5.31237 -1.77778,3.77778 z m 76.44445,-22.36576 c 0,-2.60994 0.6,-4.74535 1.33333,-4.74535 0.73334,0 1.33334,1.76459 1.33334,3.92131 0,2.15672 -0.6,4.29213 -1.33334,4.74535 -0.79349,0.49041 -1.33333,-1.09726 -1.33333,-3.92131 z m -77.77778,-5.63424 c -1.36685,-1.36685 -1.05341,-6.85206 0.44444,-7.77778 0.79349,-0.4904 1.33334,1.09726 1.33334,3.92131 0,4.87277 -0.24027,5.39398 -1.77778,3.85647 z"
       id="path1" />
  </g>
</svg>
