<?xml version="1.0" encoding="UTF-8" standalone="no"?>
<!-- Created with Inkscape (http://www.inkscape.org/) -->

<svg
   version="1.1"
   id="svg1"
   width="1148"
   height="710.66669"
   viewBox="0 0 1148 710.66669"
   sodipodi:docname="ObsPlane.svg"
   inkscape:version="1.3.2 (091e20e, 2023-11-25, custom)"
   xmlns:inkscape="http://www.inkscape.org/namespaces/inkscape"
   xmlns:sodipodi="http://sodipodi.sourceforge.net/DTD/sodipodi-0.dtd"
   xmlns="http://www.w3.org/2000/svg"
   xmlns:svg="http://www.w3.org/2000/svg">
  <defs
     id="defs1" />
  <sodipodi:namedview
     id="namedview1"
     pagecolor="#ffffff"
     bordercolor="#000000"
     borderopacity="0.25"
     inkscape:showpageshadow="2"
     inkscape:pageopacity="0.0"
     inkscape:pagecheckerboard="0"
     inkscape:deskcolor="#d1d1d1"
     inkscape:zoom="0.42334495"
     inkscape:cx="574"
     inkscape:cy="355.50206"
     inkscape:window-width="1600"
     inkscape:window-height="837"
     inkscape:window-x="-8"
     inkscape:window-y="-8"
     inkscape:window-maximized="1"
     inkscape:current-layer="g1" />
  <g
     inkscape:groupmode="layer"
     inkscape:label="Image"
     id="g1">
    <path
       style="fill:#000000"
       d="m 571.60165,708.49056 c -0.51424,-0.51424 -0.93498,-5.59957 -0.93498,-11.30074 0,-5.70117 -0.6,-10.73658 -1.33334,-11.1898 C 568.6,685.54679 568,682.19205 568,678.54503 c 0,-5.6313 -0.45226,-6.81225 -3,-7.83361 -2.46204,-0.987 -3.47762,-0.56089 -5.66352,2.3763 C 546.47522,690.36936 530.53614,698.62548 510,698.643 c -11.49514,0.01 -32.66962,-3.092 -45.95318,-6.7316 -25.45654,-6.9749 -44.24098,-23.72287 -47.32635,-42.19558 -2.02154,-12.10333 7.05758,-28.93209 22.25974,-41.2599 14.91665,-12.09628 45.37823,-26.45327 68.72649,-32.3918 13.46322,-3.42432 34.68345,-6.71227 43.38924,-6.72291 l 6.42928,-0.008 -0.79582,-7 C 543.54025,446.32149 537.3801,375.84176 537.34623,340.56576 c -0.0141,-14.72568 -1.21116,-17.23546 -9.76636,-20.47693 -2.6016,-0.98572 -69.1422,-1.42215 -216.82904,-1.42215 l -213.075564,0 -12.504299,-3.21384 C 71.400729,311.91364 60,307.27546 60,305.2125 c 0,-0.73116 -0.816238,-1.15309 -1.813863,-0.93761 -0.997625,0.21548 -5.006895,-1.6719 -8.909489,-4.19419 -18.192105,-11.75775 -37.052573,-34.99997 -43.5405228,-53.65606 -13.817494,-39.7322 8.8802288,-82.68305 50.1725428,-94.94139 6.542054,-1.94212 29.944944,-2.14991 242.137662,-2.14991 l 234.89565,0 0.92408,-15.66667 c 0.50824,-8.61667 1.74898,-21.66667 2.75721,-29 1.674,-12.175858 1.70054,-38.17208 0.0465,-45.507346 -0.35231,-1.562373 -1.84712,-3.156201 -3.32181,-3.54184 -3.86284,-1.010156 -3.8748,-10.221681 -0.0146,-11.231151 3.4485,-0.901801 3.40963,-2.547693 -0.0817,-3.4607 -2.32648,-0.608391 -2.68467,-1.596318 -2.33333,-6.435713 0.48618,-6.696639 2.06668,-7.478661 15.54256,-7.690346 5.86685,-0.09216 9.5459,-0.883953 12,-2.582606 1.94654,-1.347335 4.45563,-2.777265 5.57576,-3.177621 1.41981,-0.507466 2.12967,-2.866806 2.34389,-7.790312 0.35426,-8.1418423 2.9786,-11.9157016 8.28618,-11.9157016 5.40163,0 8,3.782235 8,11.6449586 0,6.585092 0.15819,6.861027 5.84378,10.193004 3.21409,1.883578 6.19525,4.340591 6.62482,5.460029 0.56664,1.476626 2.89708,2.071826 8.48955,2.168249 C 616.55401,31.022494 618,31.819885 618,38.726781 c 0,5.144751 -0.40159,5.996922 -3,6.365955 -1.65,0.234337 -3,0.942607 -3,1.573932 0,0.631325 1.35,1.339595 3,1.573932 2.5401,0.360752 3,1.243668 3,5.759402 0,4.515733 -0.4599,5.398649 -3,5.759401 -2.76566,0.392786 -3.01923,1.17392 -3.24613,10 -0.35113,13.65776 -0.45398,14.803999 -1.47689,16.459108 -0.50477,0.816725 0.0233,7.701676 1.17346,15.299889 1.15018,7.59822 2.49435,21.31494 2.98706,30.4816 l 0.89583,16.66667 238,0.66667 237.99997,0.66666 7.6474,3.08859 c 29.411,11.87836 47.686,38.54314 47.686,69.57808 0,18.39342 -5.6911,33.38261 -19.6361,51.71745 -10.749,14.13276 -31.1975,30.58061 -36.3452,29.23444 -1.5766,-0.41228 -2.6734,0.19158 -3.0645,1.68718 -0.5651,2.16106 -9.167,6.02682 -24.2876,10.91509 -4.236,1.36944 -50.3768,1.86701 -224.25955,2.41835 l -218.92625,0.69416 -4.74042,4.59489 -4.74041,4.59489 -0.0206,19.40511 c -0.0345,32.43136 -2.973,69.63795 -12.01042,152.07178 -2.8541,26.03334 -5.59301,52.18793 -6.08647,58.12133 l -0.89719,10.78799 12.25464,0.86986 c 41.93716,2.97678 94.06227,24.22303 114.09639,46.50579 9.49224,10.55765 12.87902,17.2389 13.65804,26.94384 0.57058,7.10831 0.14557,9.62065 -2.66676,15.76357 -7.28068,15.9031 -25.58386,28.51656 -49.66094,34.22335 -32.35096,7.66788 -55.31938,7.04123 -70.62217,-1.9268 -5.50077,-3.22367 -17.27332,-14.8472 -20.05445,-19.80059 -1.16872,-2.08156 -1.81854,-2.17597 -5,-0.7264 -3.22187,1.46798 -3.65671,2.40173 -3.65671,7.85209 0,3.40229 -0.5721,6.75808 -1.27133,7.45731 -0.69923,0.69923 -1.44923,6.06273 -1.66667,11.91888 -0.30978,8.34341 -0.8422,10.73278 -2.46035,11.04142 -1.13576,0.21664 -2.48576,-0.0268 -3,-0.54109 z"
       id="path1" />
  </g>
</svg>
