<?xml version="1.0" encoding="UTF-8" standalone="no"?>
<!-- Created with Inkscape (http://www.inkscape.org/) -->

<svg
   version="1.1"
   id="svg1"
   width="1386.6667"
   height="988"
   viewBox="0 0 1386.6667 988"
   sodipodi:docname="ObsPlaneL19.svg"
   inkscape:version="1.3.2 (091e20e, 2023-11-25, custom)"
   xmlns:inkscape="http://www.inkscape.org/namespaces/inkscape"
   xmlns:sodipodi="http://sodipodi.sourceforge.net/DTD/sodipodi-0.dtd"
   xmlns="http://www.w3.org/2000/svg"
   xmlns:svg="http://www.w3.org/2000/svg">
  <defs
     id="defs1" />
  <sodipodi:namedview
     id="namedview1"
     pagecolor="#ffffff"
     bordercolor="#000000"
     borderopacity="0.25"
     inkscape:showpageshadow="2"
     inkscape:pageopacity="0.0"
     inkscape:pagecheckerboard="0"
     inkscape:deskcolor="#d1d1d1"
     inkscape:zoom="0.35048075"
     inkscape:cx="693.33337"
     inkscape:cy="495.03432"
     inkscape:window-width="1600"
     inkscape:window-height="837"
     inkscape:window-x="-8"
     inkscape:window-y="-8"
     inkscape:window-maximized="1"
     inkscape:current-layer="g1" />
  <g
     inkscape:groupmode="layer"
     inkscape:label="Image"
     id="g1">
    <path
       style="fill:#000000"
       d="M 691.9122,984.33333 C 691.86388,983.05 691.01162,976.6 690.01828,970 c -0.99334,-6.6 -2.19648,-18.9 -2.67365,-27.33333 -1.08193,-19.12181 -2.26006,-26.97773 -4.13919,-27.60079 -0.80369,-0.26647 -3.15585,2.08469 -5.22702,5.22481 -9.64247,14.61907 -22.33489,25.40873 -36.21491,30.78583 -7.99796,3.0984 -27.45418,5.21992 -39.09681,4.26316 C 542.18096,950.36911 504.88364,934.5047 491.37079,908 c -10.29236,-20.18787 -6.88242,-40.88547 9.68809,-58.80477 17.63316,-19.06843 35.4281,-27.32273 90.27449,-41.87443 24.15273,-6.40814 22,-5.03865 22,-13.99563 0,-5.31437 0.66794,-8.4693 2.09524,-9.8966 4.86536,-4.86536 8.57143,-0.84727 8.57143,9.29309 0,4.41119 0.48663,6.05741 1.66666,5.63813 0.91667,-0.32569 11.45119,-3.21353 23.41004,-6.41742 l 21.74336,-5.82525 -0.76831,-8.05856 c -4.424,-46.4017 -7.50681,-78.33551 -7.98608,-82.72523 -0.32026,-2.93333 -0.92917,-9.23333 -1.35313,-14 -0.42395,-4.76666 -1.67829,-17.66666 -2.78741,-28.66666 -1.10912,-11 -2.88634,-29.3 -3.94937,-40.66667 -1.06304,-11.36667 -3.42595,-35.66667 -5.25091,-54 -1.82497,-18.33333 -4.27592,-43.23333 -5.44655,-55.33333 -5.07014,-52.40641 -7.2659,-72.43197 -8.02513,-73.19014 -0.44605,-0.44543 -60.91049,-0.6092 -134.36543,-0.36395 -128.82171,0.43012 -134.02691,0.35215 -146.88776,-2.20033 -15.32192,-3.04092 -19.98731,-3.82186 -65.33334,-10.93612 -18.33333,-2.87628 -46.53333,-7.38702 -62.66667,-10.02386 -16.13333,-2.63684 -42.23333,-6.81285 -58,-9.28003 -44.9933,-7.04057 -54.76841,-8.58195 -63.33334,-9.98661 -4.4,-0.72161 -21.499998,-3.49641 -37.999999,-6.16622 -17.271047,-2.79457 -32.033626,-5.8813 -34.79291,-7.27492 C 25.712227,370.13253 19.104039,362.57476 15.795141,354.85541 8.7363907,338.38802 4.2019616,315.3013 3.1879232,290.66667 c -0.4075149,-9.9 -1.2832541,-19.71586 -1.946087,-21.81302 -0.95431087,-3.01937 -0.6539289,-4.51377 1.4431733,-7.17981 1.4565783,-1.85174 2.6483241,-4.76337 2.6483241,-6.4703 0,-4.29128 4.8788264,-16.93277 8.1302924,-21.06634 1.478492,-1.8796 4.604014,-4.28202 6.945605,-5.33871 4.543888,-2.05053 3.741263,-2.01227 114.924109,-5.4783 34.46667,-1.07446 68.66667,-2.24715 76.00001,-2.60597 7.33333,-0.35882 34.03333,-1.31107 59.33333,-2.11613 25.3,-0.80505 58.90001,-1.93456 74.66667,-2.51002 15.76667,-0.57546 64.96667,-1.00213 109.33334,-0.94815 l 80.66667,0.0981 0.33337,-20.61903 c 0.2003,-12.38907 0.95116,-21.80841 1.88118,-23.59885 1.70017,-3.27316 8.42702,-5.17596 13.07878,-3.69955 1.57217,0.49899 3.66377,2.80598 4.64799,5.12665 0.98423,2.32066 2.85764,6.80584 4.16313,9.96707 1.30549,3.16122 3.31605,6.22586 4.46792,6.8103 1.15187,0.58443 9.2943,2.70964 18.0943,4.72268 8.8,2.01304 23.12277,5.42564 31.82838,7.58355 8.70561,2.15792 15.9793,3.74625 16.16377,3.52963 4.42535,-5.19667 8.02865,-28.33621 4.98775,-32.03016 -0.76835,-0.93336 -1.80085,-4.41085 -2.29446,-7.72776 -0.7587,-5.0983 -0.46877,-6.4187 1.87522,-8.53998 2.60589,-2.3583 2.77418,-3.92046 2.79765,-25.96926 0.0137,-12.90301 0.61083,-40.560017 1.32687,-61.460017 1.15493,-33.710135 1.58178,-38.376304 3.78107,-41.333333 4.59463,-6.177642 9.49611,-7.879865 28.30111,-9.828619 9.84462,-1.020195 16.21796,-1.926108 14.16297,-2.01314 C 681.27759,16.00354 681.20303,15.843425 681.59703,9 l 0.40301,-7 11.83085,-0.3876384 11.83085,-0.3876385 -0.5826,8.0543051 -0.58259,8.0543048 4.9886,0 c 9.68485,0 25.89754,2.914879 29.84823,5.366413 2.2,1.365173 4.74203,3.695318 5.64897,5.178101 1.83776,3.004625 4.29366,61.091828 4.32979,102.408573 0.0204,23.37687 0.12721,24.34314 2.85076,25.80074 2.4727,1.32335 2.7233,2.28929 1.9872,7.65971 -0.46327,3.37996 -1.43656,6.73963 -2.16285,7.46593 -1.95281,1.9528 -1.60216,16.76097 0.56761,23.97057 3.15266,10.47549 2.57929,10.33648 22.45856,5.44504 9.70931,-2.38905 24.72345,-5.97119 33.36474,-7.9603 15.44469,-3.55516 15.75276,-3.69907 18.14414,-8.47567 1.33797,-2.67251 2.86457,-6.65911 3.39243,-8.85911 0.52786,-2.2 1.90599,-5.05 3.06252,-6.33333 2.95998,-3.28454 11.59656,-3.09291 15.0228,0.33333 2.44289,2.44289 2.66667,4.44445 2.66667,23.85179 v 21.18511 l 104.33334,0.72442 c 57.38334,0.39844 118.73334,1.33248 136.33334,2.07565 17.6,0.74318 42.5,1.69793 55.3333,2.12168 178.2704,5.88639 216.373,7.51327 220,9.39342 7.0073,3.63235 11.5978,11.62065 14.7431,25.65565 0.7744,3.4554 2.2911,7.25832 3.3704,8.45094 1.5116,1.67036 1.6474,2.99677 0.5911,5.775 -0.7542,1.98364 -1.3712,8.0912 -1.3712,13.57236 0,29.83361 -7.9237,65.83216 -17.6611,80.23707 -6.7878,10.04155 -11.056,11.88112 -37.7816,16.28393 -45.0878,7.42783 -89.2294,14.5061 -95.8907,15.37644 -3.6666,0.47907 -20.7666,3.18875 -38,6.02151 -60.9189,10.01367 -88.9999,14.56161 -118.6666,19.219 -16.5,2.59034 -35.1,5.76263 -41.3334,7.04954 -10.4507,2.15762 -21.8888,2.30863 -146.87971,1.9392 -87.44802,-0.25846 -135.83272,0.0627 -136.35328,0.90496 -0.82734,1.33865 -4.47318,34.40937 -8.10244,73.49567 -1.12351,12.1 -3.52549,36.7 -5.33773,54.66666 -1.81223,17.96667 -4.22578,42.86667 -5.36343,55.33334 -1.13765,12.46666 -2.36541,24.76666 -2.72836,27.33333 -0.36294,2.56667 -2.16023,20.56667 -3.99397,40 -1.83374,19.43333 -4.80774,50.90874 -6.60889,69.94535 -1.80115,19.0366 -2.83023,35.04748 -2.28683,35.57973 0.54339,0.53225 10.58798,3.4673 22.32132,6.52234 11.73333,3.05505 21.78333,5.82958 22.33333,6.16563 0.55,0.33605 1,-2.16386 1,-5.55535 0,-7.40245 1.84707,-11.32437 5.33334,-11.32437 3.6409,0 5.33333,3.9917 5.33333,12.57901 0,4.08155 0.26118,7.42099 0.5804,7.42099 1.99375,0 47.94884,12.91677 60.08627,16.88868 24.69967,8.08282 36.61119,14.93526 50.22946,28.8959 14.39606,14.75799 19.63714,31.59564 15.21173,48.8697 -7.79353,30.42113 -37.47384,48.44951 -93.14822,56.57998 -18.62423,2.71981 -44.58272,2.7459 -54.91303,0.0552 -15.70264,-4.09002 -30.66011,-15.15217 -40.92386,-30.26621 -2.92976,-4.31426 -6.03091,-7.61058 -6.89146,-7.32515 -1.97798,0.65606 -3.1841,8.36681 -4.21844,26.96857 -0.99818,17.95129 -4.72988,44.66667 -6.23921,44.66667 -0.60884,0 -1.14651,-1.05 -1.19482,-2.33334 z M 585.92127,214.52321 c 0.36306,-0.36306 -4.78818,-2.63182 -11.4472,-5.04169 -6.65902,-2.40987 -12.52587,-3.87907 -13.03743,-3.26488 -0.51157,0.61418 -1.61437,2.72971 -2.45066,4.70117 -1.418,3.34273 -1.27772,3.61762 2.08009,4.076 5.043,0.68842 24.05617,0.32843 24.8552,-0.4706 z M 827.71822,211 c -0.85689,-2.01667 -2.00991,-4.20255 -2.56226,-4.85751 -0.88148,-1.04524 -25.15591,6.6947 -25.15591,8.02101 0,0.27674 6.58713,0.50317 14.63808,0.50317 h 14.63808 z"
       id="path1" />
  </g>
</svg>
