<?xml version="1.0" encoding="UTF-8" standalone="no"?>
<!-- Created with Inkscape (http://www.inkscape.org/) -->

<svg
   version="1.1"
   id="svg1"
   width="1313.3333"
   height="1626.6667"
   viewBox="0 0 1313.3333 1626.6667"
   sodipodi:docname="ObsPlane.svg"
   inkscape:version="1.3.2 (091e20e, 2023-11-25, custom)"
   xmlns:inkscape="http://www.inkscape.org/namespaces/inkscape"
   xmlns:sodipodi="http://sodipodi.sourceforge.net/DTD/sodipodi-0.dtd"
   xmlns="http://www.w3.org/2000/svg"
   xmlns:svg="http://www.w3.org/2000/svg">
  <defs
     id="defs1" />
  <sodipodi:namedview
     id="namedview1"
     pagecolor="#ffffff"
     bordercolor="#000000"
     borderopacity="0.25"
     inkscape:showpageshadow="2"
     inkscape:pageopacity="0.0"
     inkscape:pagecheckerboard="0"
     inkscape:deskcolor="#d1d1d1"
     inkscape:zoom="0.37005078"
     inkscape:cx="656.66663"
     inkscape:cy="812.0507"
     inkscape:window-width="1600"
     inkscape:window-height="837"
     inkscape:window-x="-8"
     inkscape:window-y="-8"
     inkscape:window-maximized="1"
     inkscape:current-layer="g1" />
  <g
     inkscape:groupmode="layer"
     inkscape:label="Image"
     id="g1">
    <path
       style="fill:#000000"
       d="m 649.33329,1264.3316 c 0,-0.551 -1.2,-11.5002 -2.66666,-24.3315 -1.46667,-12.8314 -2.66667,-26.1806 -2.66667,-29.6649 0,-3.4843 -0.45,-6.2998 -1,-6.2565 -0.55,0.043 -4.2568,3.9904 -8.23733,8.7714 -16.99647,20.4143 -40.29777,32.3985 -68.09726,35.0231 -12.9873,1.2262 -30.98269,0.1054 -43.33207,-2.6989 -14.42491,-3.2755 -43.46232,-13.7227 -58.66666,-21.1072 -25.08946,-12.1856 -34.2812,-23.8192 -32.05846,-40.5751 1.56905,-11.828 6.96977,-18.431 19.66533,-24.0429 8.48419,-3.7503 17.43522,-4.9535 39.04748,-5.2488 l 14.65436,-0.2002 0.67898,-3.9086 c 0.63562,-3.6591 1.57276,-4.1958 14.67897,-8.4067 56.39125,-18.1179 108.9362,-35.7201 110.32943,-36.9596 2.45144,-2.1809 -5.39378,-285.39848 -8.31996,-300.35599 -3.84577,-19.65811 -8.90981,-43.71102 -9.90282,-47.03584 -0.97038,-3.24909 -1.31287,-3.33333 -13.5511,-3.33333 H 587.3333 l -0.66667,12.66667 -0.66667,12.66666 -188.82275,-0.49278 c -144.21184,-0.37635 -189.05274,-0.12066 -189.79618,1.08225 -2.47855,4.01038 -9.12805,4.33623 -84.41576,4.13675 C 40.764944,783.8418 42.335102,783.96605 29.932162,776.69744 20.061084,770.9126 11.752828,759.19734 6.7437493,744.00004 4.2741767,736.50747 2.5596818,708.7575 3.4161815,690.14166 5.1891881,651.60574 16.762478,629.5408 36.666664,626.74829 l 5.333333,-0.74826 0.666667,-7.33333 0.666667,-7.33334 160.255729,0.48541 160.25574,0.48542 0.41092,-27.3773 c 0.22601,-15.05751 0.87092,-27.83594 1.43315,-28.39652 3.1192,-3.11007 3.95048,3.1067 3.73134,27.90513 -0.12629,14.29209 0.25249,26.27987 0.84174,26.63951 2.46155,1.5024 61.15507,2.52522 92.69788,1.6154 l 34.03045,-0.98157 0.77475,-7.52107 c 0.8462,-8.21471 3.98192,-12.18774 9.61921,-12.18774 3.5938,0 8.60623,5.71491 8.63615,9.84648 0.0404,5.58528 1.5729,6.32688 8.72689,4.22318 3.62231,-1.06517 17.386,-4.69658 30.58598,-8.0698 13.19997,-3.37321 24.51755,-6.6507 25.15016,-7.28332 0.63261,-0.63261 1.25091,-3.15263 1.374,-5.60004 0.17412,-3.46225 0.80661,-4.44983 2.84983,-4.44983 1.98813,0 2.72754,1.05265 3.04386,4.33333 0.22979,2.38333 0.84185,4.33333 1.36013,4.33333 0.51828,0 5.32043,-1.21323 10.67144,-2.69607 14.82526,-4.10829 16.12254,-6.14352 16.17515,-25.37622 0.0411,-15.01895 -0.0631,-15.57114 -4.14922,-22 l -4.19135,-6.59438 0.83363,-24.66666 c 1.02441,-30.31155 1.63916,-34.27632 5.64193,-36.3867 1.68297,-0.88732 4.84562,-4.08226 7.0281,-7.09986 4.55157,-6.29321 15.72312,-12.51345 22.47417,-12.51345 4.70533,0 5.58027,-1.36465 2.50913,-3.91347 -3.29123,-2.73147 -1.21493,-15.91509 3.26843,-20.7532 2.03869,-2.2 3.92074,-5.19311 4.18232,-6.65135 0.62312,-3.47363 4.86368,-4.26236 5.98859,-1.11385 0.47789,1.33753 2.84206,4.89135 5.25373,7.89737 4.12643,5.14339 4.3383,5.91651 3.59503,13.11811 -0.47319,4.5848 -1.51191,7.9297 -2.59109,8.34382 -3.68826,1.41531 -1.61752,3.0733 3.8654,3.09491 11.25267,0.0444 26.77897,11.51193 31.604,23.3424 0.60522,1.48394 1.50823,14.35809 2.00669,28.60923 0.49845,14.25113 1.17374,26.34391 1.50063,26.87284 0.3269,0.52893 -1.27588,3.73286 -3.56173,7.11985 -3.86954,5.73358 -4.18648,7.09609 -4.59698,19.76242 -0.24249,7.48234 -0.86582,14.70793 -1.38517,16.05687 -1.71695,4.45945 5.43851,9.48069 18.09922,12.70086 6.23333,1.5854 11.74532,2.87445 12.24885,2.86454 0.50354,-0.01 1.10354,-1.96801 1.33334,-4.35134 0.31868,-3.30517 1.05052,-4.33333 3.08447,-4.33333 2.17284,0 2.79013,1.11111 3.33334,6 l 0.66666,6 28.56134,7.60444 c 15.70874,4.18244 29.05874,7.29703 29.66667,6.92131 0.60793,-0.37572 1.10532,-2.66681 1.10532,-5.0913 0,-6.40538 4.42723,-11.43445 10.06604,-11.43445 5.87688,0 8.85711,4.36601 9.66982,14.16619 0.4113,4.95972 1.30522,7.63048 2.82645,8.44462 1.22369,0.6549 30.69777,1.22945 65.49795,1.27678 188.34656,0.25613 381.36236,1.94677 382.52736,3.35058 0.676,0.81445 1.4203,4.14161 1.654,7.39369 l 0.425,5.91289 8,1.47634 c 10.7361,1.98125 15.1971,4.56207 20.3937,11.79812 8.7155,12.13622 12.1501,26.52216 12.2265,51.21236 0.056,18.20356 -3.5197,48.14093 -6.1008,51.07342 -1.019,1.15774 -1.8527,3.62988 -1.8527,5.49365 0,4.95146 -11.3769,19.77584 -21.2081,27.63459 -4.6558,3.72173 -8.8387,6.79291 -9.2952,6.82484 -0.4565,0.0319 -3.53,0.60792 -6.83,1.27995 -3.3,0.67204 -39.587,1.25745 -80.6378,1.30093 -72.2976,0.0766 -74.7495,-0.004 -78.1996,-2.55431 -1.959,-1.44834 -4.972,-2.92765 -6.6955,-3.28735 -1.7236,-0.3597 -63.1338,-0.99417 -136.46713,-1.40993 -162.57395,-0.9217 -234.35362,-1.87432 -235.60612,-3.12683 -0.521,-0.521 -1.12276,-6.34275 -1.33724,-12.93723 l -0.38995,-11.98996 -11.505,-0.38289 c -9.39666,-0.31272 -11.65017,-0.005 -12.29714,1.68139 -2.01622,5.25418 -10.06549,57.54108 -10.78147,70.03483 -0.44126,7.70001 -1.68702,42.20001 -2.76835,76.66668 -1.08134,34.46666 -2.57254,74.66667 -3.3138,89.33333 -1.70552,33.74612 -3.99958,93.46602 -4.00033,104.13862 l -5.8e-4,8.1385 25.66667,9.539 c 14.11666,5.2465 40.96666,15.097 59.66666,21.89 31.26623,11.3579 34.0315,12.6167 34.39175,15.6558 l 0.39176,3.3048 20.94157,0 c 22.40489,0 29.28633,1.3559 41.06627,8.083 11.51171,6.574 16.62475,19.5448 12.5598,31.8618 -2.47598,7.5022 -16.01297,21.0529 -27.77943,27.8074 -33.04077,18.9671 -69.09759,28.8264 -99.57172,27.2268 -27.28883,-1.4325 -53.65825,-14.8677 -72.2929,-36.8331 -4.0223,-4.7413 -7.9482,-10.014 -8.72421,-11.7172 -1.66795,-3.6607 -3.60398,-4.0537 -3.76066,-0.7633 -0.0611,1.2834 -0.26757,3.5334 -0.45879,5 -0.19122,1.4667 -0.78586,7.7667 -1.32142,14 -1.21313,14.1194 -4.68371,42.7645 -5.45211,45 -0.61452,1.7879 -3.32324,2.3298 -3.32324,0.6649 z M 779.99995,613.5772 c 0,-0.95995 -18.36044,-6.41718 -56.33333,-16.74382 -6.41666,-1.745 -11.66666,-2.59443 -11.66666,-1.88763 0,0.7068 3.68268,5.12022 8.18374,9.80761 l 8.18374,8.52251 24.81625,0.39334 c 13.64895,0.21633 25.26626,0.52927 25.81626,0.69541 0.55,0.16614 1,-0.1882 1,-0.78742 z m -186.81773,-9.0291 c 3.95024,-4.7454 6.85039,-8.95987 6.44478,-9.36547 -0.40561,-0.40561 -15.13839,2.91237 -32.73951,7.3733 -17.60112,4.46092 -32.35128,8.11077 -32.77812,8.11077 -0.42684,0 -0.77607,0.6 -0.77607,1.33333 0,0.84654 9.61425,1.30463 26.33333,1.2547 l 26.33333,-0.0786 z"
       id="path1" />
  </g>
</svg>
