<?xml version="1.0" encoding="UTF-8" standalone="no"?>
<!-- Created with Inkscape (http://www.inkscape.org/) -->

<svg
   version="1.1"
   id="svg1"
   width="1021.3333"
   height="702.66669"
   viewBox="0 0 1021.3333 702.66669"
   sodipodi:docname="ObsPlanAN-2.svg"
   inkscape:version="1.3.2 (091e20e, 2023-11-25, custom)"
   xmlns:inkscape="http://www.inkscape.org/namespaces/inkscape"
   xmlns:sodipodi="http://sodipodi.sourceforge.net/DTD/sodipodi-0.dtd"
   xmlns="http://www.w3.org/2000/svg"
   xmlns:svg="http://www.w3.org/2000/svg">
  <defs
     id="defs1" />
  <sodipodi:namedview
     id="namedview1"
     pagecolor="#ffffff"
     bordercolor="#000000"
     borderopacity="0.25"
     inkscape:showpageshadow="2"
     inkscape:pageopacity="0.0"
     inkscape:pagecheckerboard="0"
     inkscape:deskcolor="#d1d1d1"
     inkscape:zoom="0.47584857"
     inkscape:cx="510.66666"
     inkscape:cy="352.00274"
     inkscape:window-width="1600"
     inkscape:window-height="837"
     inkscape:window-x="-8"
     inkscape:window-y="-8"
     inkscape:window-maximized="1"
     inkscape:current-layer="g1" />
  <g
     inkscape:groupmode="layer"
     inkscape:label="Image"
     id="g1">
    <path
       style="fill:#000000"
       d="m 505.96245,681.14347 -3.74665,-18.95351 -3.53834,4.23836 -3.53834,4.23837 h -72.85288 c -70.53282,0 -73.08904,-0.0884 -80.26864,-2.7746 -15.29847,-5.72389 -29.67581,-26.78024 -32.92843,-48.22541 -2.86919,-18.91708 2.85801,-40.97733 12.40638,-47.78736 l 4.50444,-3.21264 79.76588,-0.36394 79.76589,-0.36395 -0.75581,-3.63605 c -1.90884,-9.18301 -9.19849,-59.15839 -12.72595,-87.24471 -6.37911,-50.79182 -9.73747,-92.32335 -11.48722,-142.05802 l -0.903,-25.66667 -88.62291,0 c -85.21951,0 -88.96484,0.10386 -97.52649,2.70438 -8.67979,2.63641 -11.65099,2.69506 -118.20699,2.33334 L 45.999999,314.00001 38.36767,310.25208 C 34.169889,308.19071 28.641364,304.0578 26.082059,301.06783 17.456901,290.99127 7.4816354,261.1641 5.9223772,240.7881 5.524442,235.58798 4.5310382,229.07715 3.7148132,226.31959 c -1.0711996,-3.61897 -1.081688,-5.84449 -0.037702,-8 0.7954886,-1.64244 1.7900959,-7.68573 2.2102383,-13.42953 0.9631039,-13.16668 4.832194,-21.38805 12.654838,-26.89005 l 5.687118,-4 187.760825,-0.34696 187.76083,-0.34695 0.45785,-13.22584 c 0.56575,-16.34275 2.8429,-20.50833 11.5649,-21.15564 4.9905,-0.37037 5.75928,0.005 8.19505,4 1.47836,2.4248 2.69017,6.32331 2.69291,8.66336 0.003,2.34006 0.59552,4.61961 1.31728,5.06569 0.72176,0.44607 8.82176,0.3938 18,-0.11615 l 16.68771,-0.92718 v -11.85208 c 0,-7.79758 0.63263,-12.86231 1.84929,-14.80517 1.13101,-1.80606 2.17947,-8.90878 2.69935,-18.28642 1.20754,-21.781636 8.58205,-74.716632 10.91282,-78.333336 1.67771,-2.603326 3.07523,-3 10.56927,-3 7.67441,0 8.63593,-0.289599 8.63593,-2.601038 0,-1.430572 0.67968,-5.770245 1.51039,-9.643718 5.20965,-24.2917596 33.01029,-19.3308109 33.127,5.911423 l 0.0293,6.333333 8.46002,0 c 6.69967,0 8.95051,0.541993 10.81729,2.604766 3.01492,3.331449 11.29484,61.443755 11.40732,80.0619 0.0508,8.41095 0.71674,13.7866 1.98204,16 1.26223,2.20806 1.92145,7.49686 1.95275,15.66667 l 0.0472,12.33333 5.79516,0 c 3.18734,0 11.2066,0.38412 17.82058,0.85359 l 12.02541,0.85359 0.93153,-6.2119 c 1.73611,-11.57719 11.51351,-17.335 18.15639,-10.69212 3.27841,3.27841 5.76815,16.40759 4.84139,25.53018 l -0.71113,7 186.237,0.0293 c 178.28246,0.028 186.46882,0.13458 191.66464,2.49447 6.49737,2.95102 12.99807,10.44264 14.94057,17.21793 0.7766,2.70874 1.8226,9.27736 2.3244,14.59692 0.5018,5.31957 1.4513,10.00498 2.1099,10.41203 1.5335,0.94774 1.5629,6.86612 0.039,7.80805 -0.6373,0.39384 -1.5804,5.55064 -2.0958,11.45957 -1.221,13.99663 -6.3337,34.90969 -11.6663,47.71903 -4.9657,11.92815 -12.1664,20.3536 -21.69246,25.38205 l -6.72019,3.54734 -109.91824,0.37078 c -107.41746,0.36235 -110.10041,0.30926 -117.92556,-2.33333 -7.73012,-2.6105 -11.11409,-2.70412 -97.74843,-2.70412 l -89.7411,0 v 18.7182 c 0,48.08577 -7.38616,127.61508 -18.73093,201.68221 -2.89799,18.92021 -5.26907,35.27021 -5.26907,36.33333 0,1.66612 10.66298,1.93294 77.24653,1.93294 51.3364,0 78.50553,0.47568 81,1.41815 10.67312,4.03259 16.41964,16.12792 17.42486,36.67602 0.50192,10.2599 0.11949,15.27607 -1.62114,21.26363 -5.17653,17.80664 -16.22088,33.19603 -28.22218,39.32525 l -6.49474,3.31695 -74.87004,0.37552 -74.87004,0.37552 -2.65518,-3.37552 c -1.46035,-1.85654 -3.21094,-3.37552 -3.89019,-3.37552 -0.67925,0 -2.6929,7.90231 -4.47477,17.56069 -1.78188,9.65838 -3.90522,17.78019 -4.71855,18.04848 -0.92864,0.30632 -2.87261,-6.56333 -5.22543,-18.46572 z"
       id="path1" />
  </g>
</svg>
