<?xml version="1.0" encoding="UTF-8" standalone="no"?>
<!-- Created with Inkscape (http://www.inkscape.org/) -->

<svg
   version="1.1"
   id="svg1"
   width="1386.6667"
   height="1209.3333"
   viewBox="0 0 1386.6667 1209.3333"
   sodipodi:docname="ObsPlaneFM21.svg"
   inkscape:version="1.3.2 (091e20e, 2023-11-25, custom)"
   xmlns:inkscape="http://www.inkscape.org/namespaces/inkscape"
   xmlns:sodipodi="http://sodipodi.sourceforge.net/DTD/sodipodi-0.dtd"
   xmlns="http://www.w3.org/2000/svg"
   xmlns:svg="http://www.w3.org/2000/svg">
  <defs
     id="defs1" />
  <sodipodi:namedview
     id="namedview1"
     pagecolor="#ffffff"
     bordercolor="#000000"
     borderopacity="0.25"
     inkscape:showpageshadow="2"
     inkscape:pageopacity="0.0"
     inkscape:pagecheckerboard="0"
     inkscape:deskcolor="#d1d1d1"
     inkscape:zoom="0.35048075"
     inkscape:cx="693.33337"
     inkscape:cy="603.45683"
     inkscape:window-width="1600"
     inkscape:window-height="837"
     inkscape:window-x="-8"
     inkscape:window-y="-8"
     inkscape:window-maximized="1"
     inkscape:current-layer="g1" />
  <g
     inkscape:groupmode="layer"
     inkscape:label="Image"
     id="g1">
    <path
       style="fill:#000000"
       d="m 676.5574,1207.8231 c -0.5612,-0.9081 -1.0892,-5.2897 -1.17335,-9.7371 -0.0842,-4.4473 -1.47997,-14.2802 -3.10184,-21.8508 -1.62186,-7.5705 -2.94884,-15.4058 -2.94884,-17.4118 0,-2.0059 -0.85099,-4.8118 -1.89109,-6.2353 -1.77972,-2.4357 -3.99822,-2.6075 -37.66667,-2.9169 -40.64005,-0.3733 -59.55639,-2.2073 -93.45808,-9.0608 -30.62626,-6.1913 -43.50825,-10.5175 -73.0494,-24.5325 -16.51026,-7.8328 -28.04484,-18.5727 -35.80267,-33.3359 -5.56811,-10.5961 -5.74029,-14.5711 -1.23716,-28.5619 3.26258,-10.1365 20.34202,-26.5279 35.25458,-33.8344 15.01923,-7.3588 33.44051,-14.3403 46.91597,-17.7809 12.7402,-3.25289 43.26807,-8.68454 55.60118,-9.89283 4.76667,-0.46699 17.96667,-2.00809 29.33334,-3.42466 11.36667,-1.41657 25.34646,-2.57674 31.06621,-2.57815 10.54264,-0.003 17.23753,-2.06298 18.64818,-5.73905 0.76737,-1.99974 -1.14447,-22.21889 -2.60945,-27.59684 -1.0397,-3.81677 -1.00658,-3.55123 -2.99298,-24 -0.81921,-8.43333 -1.77829,-16.53333 -2.13128,-18 -0.35299,-1.46666 -1.92134,-13.46666 -3.48523,-26.66666 -3.68114,-31.07071 -3.66409,-30.90688 -4.93278,-47.40519 -0.59515,-7.73953 -1.44491,-14.65892 -1.88836,-15.37643 -0.44344,-0.71751 -1.4673,-11.18517 -2.27524,-23.26147 -0.80794,-12.0763 -2.0459,-25.55691 -2.75103,-29.95691 -1.41131,-8.80662 -4.05876,-31.26352 -4.7942,-40.66666 -2.05324,-26.25225 -3.64225,-38.17349 -5.74022,-43.06516 -2.85166,-6.64898 -10.72932,-14.74216 -18.03185,-18.52518 -6.16941,-3.19601 -23.34604,-4.48229 -76.08178,-5.69742 -20.53809,-0.47323 -37.52469,-1.53574 -44.25239,-2.76797 -6.00549,-1.09995 -15.60549,-2.52653 -21.33334,-3.17018 -5.72785,-0.64365 -20.91427,-2.67314 -33.74761,-4.50997 -12.83333,-1.83683 -34.43333,-4.92407 -48,-6.86053 -13.56667,-1.93646 -32.16667,-4.67743 -41.33333,-6.09104 -9.16667,-1.41361 -22.06667,-3.18442 -28.66667,-3.93513 -6.6,-0.75071 -19.8,-2.57176 -29.33334,-4.04678 -9.53333,-1.47501 -23.03333,-3.55808 -30,-4.62905 -6.96667,-1.07096 -14.76667,-2.57418 -17.33333,-3.34049 -6.02573,-1.79905 -46.44712,-10.70109 -48.46284,-10.67302 -0.84544,0.0118 -2.94991,4.66178 -4.6766,10.33334 -1.72669,5.67156 -3.97669,12.28228 -5,14.69049 -1.02331,2.40821 -1.86057,5.19402 -1.86057,6.19068 0,2.856 -3.5473,3.47626 -5.7619,1.0075 -1.10686,-1.23388 -2.44146,-4.64342 -2.9658,-7.57675 -0.52434,-2.93333 -1.39687,-5.93333 -1.93896,-6.66667 -0.5421,-0.73333 -1.40528,-3.73333 -1.91819,-6.66666 -0.51291,-2.93333 -1.84385,-8.51817 -2.95764,-12.41076 -2.1548,-7.53079 -1.93196,-7.35511 -16.45751,-12.97462 -3.3,-1.27667 -15.6,-7.05268 -27.33333,-12.83558 -34.923653,-17.21249 -55.570864,-33.35927 -64.441306,-50.39514 -4.404549,-8.45904 -7.552726,-19.07232 -6.4837,-21.85816 0.77714,-2.02519 -0.858136,-4.08445 -9.17774,-11.5573 C 14.875169,493.661 7.6732132,484.63627 3.8338915,477.3333 1.2352103,472.39022 0.67946362,469.33691 0.67897255,459.99997 0.6784543,450.14629 1.1387753,447.88329 4.2047723,442.66664 10.447764,432.04448 18.517309,424.10834 27.843707,419.41852 46.957335,409.80713 63.815331,406.38249 106.09232,403.52259 l 22.50843,-1.52262 2.09279,-8 c 2.60198,-9.94648 11.92511,-27.55153 18.41628,-34.77583 3.00172,-3.34075 6.53604,-5.76814 9.15212,-6.28572 3.83794,-0.75933 4.8,-0.23194 9.67064,5.3014 6.52659,7.41461 12.60112,18.27979 16.26562,29.09349 1.49105,4.4 3.34969,8.77384 4.13031,9.71965 1.10251,1.33582 6.358,1.54922 23.5454,0.95606 12.16936,-0.41997 26.3261,-1.31918 31.45944,-1.99825 5.13333,-0.67906 25.53333,-1.86905 45.33333,-2.64443 34.43544,-1.34851 72.82065,-3.366 91.33334,-4.8004 4.76667,-0.36933 16.76667,-0.93907 26.66667,-1.26609 9.9,-0.32702 22.2,-0.92238 27.33334,-1.32301 20.67391,-1.61352 40.04024,-2.00126 98.93796,-1.98087 l 61.60463,0.0213 0.65786,-4.34199 c 0.36182,-2.3881 0.651,-8.24199 0.64261,-13.00866 -0.074,-42.04202 2.59801,-82.87192 6.89317,-105.33332 0.77127,-4.03334 1.9519,-20.83334 2.62363,-37.33334 1.49097,-36.62362 6.00509,-94.35734 8.86136,-113.33332 1.15901,-7.7 2.5777,-17.3 3.15263,-21.333333 1.21451,-8.520107 6.94802,-31.584982 9.77756,-39.33333 5.54727,-15.19056 17.23107,-32.573952 26.79855,-39.871426 6.68668,-5.1001804 18.01499,-10.10034483 22.91765,-10.11554578 5.62223,-0.01743198 15.82053,4.85384898 23.72915,11.33436278 19.0709,15.627171 33.15781,48.278361 38.02575,88.137588 0.54755,4.483404 1.38717,8.785294 1.86581,9.559754 0.47864,0.77445 2.07221,14.80621 3.54127,31.18168 1.46906,16.37547 2.97762,30.97358 3.35235,32.44025 0.37474,1.46666 1.0125,17.06666 1.41724,34.66666 0.57237,24.88915 1.47165,36.59242 4.04689,52.66666 3.95963,24.71538 7.30653,60.32799 7.14253,76 -0.15672,14.97712 1.15369,46.92004 1.95781,47.72417 0.34921,0.34921 20.90413,0.86611 45.6776,1.14866 94.78831,1.08111 140.51281,2.59539 174.37602,5.77489 7.33333,0.68855 27.73334,1.90697 45.33334,2.70761 17.6,0.80064 36.3934,2.02323 41.7631,2.71685 5.3698,0.69363 14.9698,1.26684 21.3334,1.27379 6.3636,0.007 25.3642,0.90168 42.2235,1.98828 16.8594,1.0866 31.64,1.66248 32.846,1.27973 1.3122,-0.41649 3.4108,-4.48439 5.2264,-10.13112 4.9588,-15.42168 19.9868,-33.14953 28.1011,-33.14953 6.08,0 17.3991,13.71629 25.8832,31.36478 l 7.2445,15.0701 9.6894,0.70372 c 5.3292,0.38704 20.1894,1.3812 33.0227,2.20925 57.1988,3.69063 91.7269,16.66774 107.7773,40.50723 3.0587,4.54315 3.4916,6.53304 3.4805,16 -0.01,8.74367 -0.6123,11.95919 -3.1477,16.81158 -7.0497,13.49185 -20.5744,25.99986 -38.1598,35.29105 -5.106,2.69773 -9.7685,5.37572 -10.3611,5.95109 -0.5926,0.57538 -1.8979,4.96766 -2.9007,9.76064 -3.0523,14.58817 -8.1289,22.16929 -20.8177,31.08802 -14.4638,10.1664 -56.2331,31.2416 -76.1425,38.41868 -17.2688,6.22513 -18.0892,6.74775 -19.6416,12.51226 -5.6724,21.0623 -10.998,38.42287 -12.1357,39.56062 -3.0423,3.0423 -5.9575,-1.54199 -8.9335,-14.04848 -5.9453,-24.98456 -5.2649,-24.02581 -15.0263,-21.17226 -4.8725,1.42439 -22.0676,4.99953 -41.3245,8.59206 -10.1949,1.90194 -20.7674,3.46812 -50,7.40687 -5.1333,0.69166 -13.2333,1.88094 -18,2.64284 -12.2973,1.96562 -35.32,5.11746 -54,7.3927 -8.8,1.07185 -22.00001,2.83776 -29.33334,3.92426 -7.33334,1.08649 -21.13334,2.94291 -30.66667,4.12537 -9.53333,1.18246 -22.73334,2.92127 -29.33334,3.86402 -56.06372,8.00819 -66.411,8.8258 -106.66667,8.42856 -45.09186,-0.44497 -52.24246,0.53813 -61.18819,8.41247 -3.24285,2.85448 -7.5454,8.00428 -9.56121,11.444 -3.36049,5.73424 -3.75981,7.92262 -4.8044,26.32963 -0.62661,11.04157 -1.71869,23.37558 -2.42684,27.40891 -0.70815,4.03334 -1.93501,16.93334 -2.72636,28.66667 -0.79134,11.73333 -1.71128,22.14617 -2.04431,23.13965 -0.33303,0.99347 -1.49738,15.39347 -2.58745,32 -1.09007,16.60652 -2.56128,34.69368 -3.26935,40.19368 -0.70808,5.5 -1.95405,15.99999 -2.76882,23.33333 -0.81477,7.33333 -2.00981,16.33333 -2.65564,20 -0.64584,3.66666 -1.83458,13.56666 -2.64166,21.99999 -0.80707,8.43334 -2.39387,20.59797 -3.52622,27.03253 -1.13235,6.43456 -2.15048,15.71339 -2.26252,20.61963 -0.19178,8.39856 0.001,9.02036 3.29914,10.62837 1.92657,0.93937 9.12657,2.01172 16,2.383 35.74406,1.93078 71.92012,6.40099 96.49717,11.92398 33.52835,7.53449 69.46105,21.60319 82.05872,32.12819 7.95126,6.6431 18.00976,19.4317 19.98082,25.4041 2.262,6.8539 1.01127,21.2951 -2.41467,27.8802 -14.59059,28.045 -62.64849,49.7066 -134.29154,60.5305 -25.42189,3.8407 -33.4492,4.4352 -69.05612,5.1139 -36.95443,0.7043 -38.46211,0.8354 -40.33334,3.507 -1.06913,1.5264 -1.94388,4.5052 -1.94388,6.6195 0,2.1143 -0.82574,7.2308 -1.83498,11.37 -3.05585,12.5329 -5.00301,25.8963 -4.57239,31.3805 0.4095,5.2152 -1.70622,7.8642 -3.70194,4.6351 z"
       id="path1" />
  </g>
</svg>
