<?xml version="1.0" encoding="UTF-8"?>
<svg xmlns="http://www.w3.org/2000/svg" xmlns:xlink="http://www.w3.org/1999/xlink" width="99px" height="948px" viewBox="0 0 99 102" version="1.1">
<g id="surface1">
<path style=" stroke:none;fill-rule:nonzero;fill:rgb(0%,0%,0%);fill-opacity:1;" d="M 33.144531 101.710938 C 33.144531 101.605469 34.355469 100.292969 35.832031 98.789062 L 38.523438 96.054688 L 37.375 95.964844 C 35.28125 95.800781 32.746094 95.125 31.074219 94.289062 C 29.867188 93.6875 29.242188 93.289062 27.808594 92.210938 C 27.199219 91.757812 26.652344 91.386719 26.585938 91.390625 C 26.523438 91.390625 26.34375 91.601562 26.183594 91.851562 C 26.027344 92.101562 25.734375 92.390625 25.539062 92.488281 C 24.792969 92.867188 22.636719 92.613281 21.855469 92.058594 C 20.742188 91.269531 19.167969 88.675781 17.722656 85.253906 L 16.867188 83.222656 L 15.210938 82.433594 C 14.304688 82 13.1875 81.527344 12.734375 81.386719 C 12.28125 81.242188 11.910156 81.058594 11.910156 80.976562 C 11.910156 80.890625 12.074219 80.601562 12.273438 80.328125 C 12.476562 80.058594 12.90625 79.355469 13.230469 78.773438 L 13.820312 77.707031 L 13.332031 76.261719 C 13.0625 75.464844 12.824219 74.738281 12.796875 74.640625 C 12.773438 74.546875 13.109375 74.230469 13.550781 73.941406 C 13.988281 73.648438 14.347656 73.308594 14.347656 73.179688 C 14.347656 73.054688 14.445312 71.714844 14.5625 70.207031 C 14.890625 66.035156 15.253906 64.382812 16.484375 61.5 C 16.863281 60.617188 17.347656 59.464844 17.5625 58.941406 C 17.988281 57.90625 18.742188 56.917969 19.347656 56.609375 C 19.558594 56.5 20.195312 56.367188 20.769531 56.308594 C 21.589844 56.230469 21.808594 56.15625 21.808594 55.976562 C 21.808594 55.847656 22.175781 55.371094 22.625 54.917969 C 23.074219 54.464844 23.414062 54.070312 23.378906 54.042969 C 23.277344 53.964844 18.511719 54.183594 17.664062 54.304688 C 17.035156 54.394531 16.902344 54.375 16.953125 54.214844 C 17.027344 53.976562 20.105469 51.855469 22.167969 50.621094 C 25.042969 48.894531 28.066406 47.652344 30.703125 47.105469 C 32.066406 46.824219 35.757812 46.738281 35.988281 46.984375 C 36.070312 47.074219 35.25 49.578125 33.761719 53.773438 C 32.464844 57.433594 31.421875 60.441406 31.449219 60.464844 C 31.472656 60.488281 34.546875 60.53125 38.277344 60.558594 L 45.0625 60.613281 L 45.917969 58.03125 C 46.386719 56.609375 46.773438 55.359375 46.773438 55.25 C 46.773438 55.09375 46.644531 55.074219 46.164062 55.164062 C 45.828125 55.230469 45.160156 55.285156 44.683594 55.292969 C 43.960938 55.300781 43.707031 55.234375 43.214844 54.910156 C 42.886719 54.691406 42.3125 54.441406 41.933594 54.355469 C 40.660156 54.054688 40.039062 53.777344 39.351562 53.207031 C 38.976562 52.898438 38.367188 52.554688 38.003906 52.445312 C 36.484375 51.988281 35.820312 51.273438 36.097656 50.375 C 36.171875 50.128906 37.574219 48.5 39.40625 46.53125 C 41.15625 44.648438 42.921875 42.707031 43.332031 42.210938 L 44.074219 41.316406 L 43.972656 39.609375 C 43.914062 38.671875 43.820312 37.828125 43.761719 37.730469 C 43.675781 37.59375 43.152344 37.605469 41.339844 37.78125 L 39.027344 38.011719 L 37.574219 37.476562 C 36.277344 37 36.0625 36.871094 35.625 36.296875 C 35.351562 35.941406 35.09375 35.476562 35.050781 35.257812 C 34.980469 34.910156 34.84375 34.820312 33.878906 34.519531 C 31.972656 33.921875 30.902344 33.792969 29.417969 33.984375 C 28.695312 34.078125 27.886719 34.113281 27.625 34.0625 C 27.34375 34.011719 26.785156 34.078125 26.238281 34.230469 C 25.679688 34.386719 24.960938 34.46875 24.390625 34.445312 C 23.878906 34.425781 22.5 34.488281 21.328125 34.589844 C 18.75 34.8125 17.582031 34.679688 15.445312 33.921875 C 14.644531 33.636719 13.464844 33.222656 12.828125 33 C 11.191406 32.429688 10.8125 32.210938 9.75 31.21875 C 9.234375 30.734375 7.558594 29.507812 6.027344 28.484375 C 2.398438 26.066406 0.734375 24.429688 0.347656 22.886719 C 0.25 22.492188 0.257812 22.484375 0.734375 22.574219 C 1.820312 22.773438 6.058594 22.964844 7.605469 22.878906 C 11.136719 22.691406 12.589844 22.390625 13.773438 21.589844 C 14.566406 21.058594 15.4375 20.777344 20.230469 19.511719 C 24.371094 18.414062 26.722656 17.730469 29.84375 16.710938 C 31.382812 16.210938 33.023438 15.730469 33.492188 15.644531 C 34.6875 15.433594 37.734375 15.464844 39.097656 15.707031 C 40.074219 15.878906 40.304688 15.976562 40.65625 16.367188 C 41.1875 16.960938 41.113281 17.5 40.332031 18.703125 C 39.683594 19.699219 39.457031 20.230469 39.457031 20.746094 C 39.457031 21.136719 39.828125 21.949219 40.003906 21.949219 C 40.066406 21.949219 40.625 21.160156 41.246094 20.195312 C 42.371094 18.453125 42.378906 18.4375 42.441406 17.328125 C 42.488281 16.546875 42.457031 16.210938 42.34375 16.210938 C 42.253906 16.210938 42.050781 16 41.894531 15.746094 C 41.59375 15.25 41.503906 14.015625 41.742188 13.640625 C 41.839844 13.488281 41.53125 13.058594 40.550781 11.988281 C 39.828125 11.195312 39.023438 10.242188 38.773438 9.875 C 37.679688 8.285156 37.570312 5.402344 38.523438 3.390625 C 38.828125 2.75 40.230469 1.566406 41.25 1.089844 C 41.644531 0.90625 42.453125 0.632812 43.042969 0.484375 C 44.058594 0.230469 44.785156 0.21875 56.167969 0.25 C 62.796875 0.265625 68.300781 0.3125 68.402344 0.351562 C 68.539062 0.40625 68.515625 0.59375 68.296875 1.148438 C 68.136719 1.546875 68.007812 1.945312 68.007812 2.03125 C 68.007812 2.183594 69.347656 2.148438 72.5625 1.917969 C 73.378906 1.859375 73.746094 1.878906 73.746094 1.988281 C 73.746094 2.074219 73.035156 2.894531 72.164062 3.8125 C 71.027344 5.007812 70.621094 5.53125 70.722656 5.652344 C 70.800781 5.746094 71.867188 6.628906 73.089844 7.609375 C 74.3125 8.59375 75.316406 9.433594 75.320312 9.480469 C 75.328125 9.589844 71.191406 9.753906 68.503906 9.753906 C 66.480469 9.753906 66.460938 9.757812 66.226562 10.117188 L 65.988281 10.480469 L 63.96875 10.441406 L 61.953125 10.402344 L 61.386719 9.375 C 61.042969 8.75 60.792969 8.074219 60.738281 7.636719 L 60.65625 6.921875 L 51.238281 6.855469 C 46.0625 6.820312 41.800781 6.808594 41.773438 6.828125 C 41.746094 6.847656 41.914062 7.144531 42.144531 7.484375 C 42.378906 7.828125 43.027344 8.890625 43.589844 9.847656 C 44.15625 10.804688 44.789062 11.796875 45.003906 12.050781 C 45.425781 12.554688 45.304688 12.546875 47.296875 12.203125 C 47.867188 12.101562 48.691406 12.09375 49.644531 12.171875 L 51.109375 12.296875 L 52.035156 13.269531 L 52.957031 14.238281 L 53.101562 15.832031 C 53.179688 16.710938 53.203125 17.738281 53.152344 18.109375 C 53.066406 18.738281 53.109375 18.871094 53.664062 19.761719 C 53.996094 20.292969 54.511719 20.988281 54.808594 21.304688 C 55.695312 22.246094 56.339844 23.179688 56.613281 23.914062 C 56.753906 24.292969 56.882812 24.625 56.902344 24.648438 C 56.972656 24.753906 58.058594 24.105469 58.339844 23.792969 C 58.894531 23.171875 59.542969 21.855469 59.542969 21.351562 C 59.542969 20.839844 59.328125 20.355469 58.566406 19.152344 C 57.894531 18.085938 57.847656 17.640625 58.34375 17.082031 C 58.824219 16.550781 59.285156 16.421875 61.457031 16.210938 C 63.953125 15.96875 65.542969 16.195312 68.65625 17.230469 C 71.734375 18.253906 73.78125 18.851562 79.128906 20.285156 C 84.382812 21.691406 84.402344 21.699219 85.269531 22.289062 C 86.785156 23.3125 88.921875 23.605469 94.027344 23.476562 C 96.011719 23.425781 97.878906 23.34375 98.175781 23.296875 C 98.867188 23.183594 98.882812 23.414062 98.253906 24.515625 C 97.472656 25.882812 95.949219 27.230469 92.953125 29.203125 C 91.449219 30.195312 89.78125 31.414062 89.25 31.914062 C 88.121094 32.972656 87.886719 33.105469 85.996094 33.765625 C 85.21875 34.039062 84.019531 34.457031 83.328125 34.699219 C 81.582031 35.316406 79.914062 35.507812 78.070312 35.308594 C 77.265625 35.21875 75.933594 35.148438 75.113281 35.148438 C 74.292969 35.148438 73.441406 35.074219 73.21875 34.984375 C 72.832031 34.832031 69.429688 34.539062 68.222656 34.558594 C 67.484375 34.570312 65.710938 34.957031 64.734375 35.324219 C 64.0625 35.574219 63.976562 35.648438 64.050781 35.929688 C 64.105469 36.164062 63.972656 36.476562 63.574219 37.027344 C 63.046875 37.765625 62.957031 37.824219 61.535156 38.34375 L 60.046875 38.886719 L 58.625 38.738281 C 57.84375 38.65625 57.183594 38.609375 57.15625 38.632812 C 57.011719 38.78125 56.664062 40.539062 56.703125 40.953125 C 56.738281 41.359375 57.421875 42.28125 60.476562 46.039062 C 62.527344 48.5625 64.253906 50.628906 64.3125 50.632812 C 64.371094 50.636719 64.402344 50.5 64.382812 50.328125 C 64.359375 50.089844 64.457031 49.976562 64.78125 49.867188 C 65.015625 49.785156 65.226562 49.714844 65.242188 49.707031 C 65.257812 49.699219 65.199219 49.453125 65.109375 49.160156 C 64.957031 48.667969 64.972656 48.597656 65.339844 48.21875 L 65.730469 47.808594 L 65.496094 47.003906 C 65.367188 46.558594 65.300781 46.136719 65.347656 46.0625 C 65.46875 45.863281 71.566406 43.863281 71.734375 43.96875 C 71.816406 44.019531 71.882812 44.140625 71.882812 44.238281 C 71.882812 44.339844 71.976562 44.738281 72.09375 45.128906 C 72.25 45.644531 72.421875 45.902344 72.734375 46.078125 C 72.972656 46.210938 73.207031 46.484375 73.257812 46.6875 C 73.339844 47.019531 73.398438 47.046875 73.878906 46.96875 L 74.410156 46.882812 L 74.570312 47.578125 C 74.660156 47.960938 74.777344 48.386719 74.828125 48.527344 C 74.90625 48.722656 74.824219 48.816406 74.472656 48.9375 C 74.171875 49.042969 74.035156 49.175781 74.070312 49.332031 C 74.117188 49.5625 74.214844 49.582031 74.886719 49.476562 C 75.199219 49.425781 75.257812 49.503906 75.488281 50.273438 C 75.765625 51.207031 75.746094 51.316406 75.242188 51.507812 C 75.050781 51.578125 74.894531 51.746094 74.894531 51.875 C 74.894531 52.078125 76.304688 56.820312 76.390625 56.917969 C 76.410156 56.9375 76.824219 56.816406 77.316406 56.652344 C 78.003906 56.417969 78.1875 56.296875 78.132812 56.113281 C 77.972656 55.582031 77.765625 53.964844 77.765625 53.234375 C 77.765625 51.476562 78.550781 49.980469 79.824219 49.316406 C 80.972656 48.722656 82.863281 48.96875 84.359375 49.914062 C 84.910156 50.261719 85.199219 50.332031 86.230469 50.386719 C 87.796875 50.464844 88.84375 50.941406 89.996094 52.09375 C 92.472656 54.5625 92.546875 58.570312 90.160156 60.832031 C 89.023438 61.90625 88.308594 62.1875 86.726562 62.1875 C 85.496094 62.191406 85.367188 62.160156 84.285156 61.617188 C 83.660156 61.300781 83.109375 61.023438 83.066406 61.003906 C 83.023438 60.984375 82.714844 61.378906 82.382812 61.882812 C 81.753906 62.828125 80.5 64.207031 79.640625 64.902344 L 79.148438 65.300781 L 79.582031 66.613281 C 79.984375 67.828125 80.042969 67.925781 80.359375 67.875 C 81.230469 67.742188 81.25 67.753906 81.445312 68.503906 C 81.722656 69.554688 81.699219 69.6875 81.207031 69.792969 C 80.773438 69.886719 80.660156 70.171875 80.898438 70.550781 C 80.988281 70.695312 81.113281 70.699219 81.425781 70.582031 C 81.941406 70.386719 82.117188 70.558594 82.339844 71.484375 C 82.527344 72.261719 82.480469 72.40625 81.972656 72.601562 C 81.683594 72.710938 81.640625 72.792969 81.734375 73.058594 C 81.800781 73.234375 81.855469 73.800781 81.863281 74.3125 C 81.871094 74.824219 81.925781 75.445312 81.988281 75.695312 C 82.066406 76.011719 82.042969 76.179688 81.90625 76.265625 C 81.796875 76.335938 80.371094 76.855469 78.730469 77.417969 C 75.46875 78.542969 75.625 78.535156 75.410156 77.527344 C 75.328125 77.152344 75.210938 77.054688 74.648438 76.882812 C 74.050781 76.699219 73.960938 76.617188 73.777344 76.058594 C 73.589844 75.484375 73.542969 75.445312 73.195312 75.535156 C 72.449219 75.734375 72.417969 75.710938 72.207031 74.769531 C 71.976562 73.746094 72.03125 73.453125 72.457031 73.453125 C 72.796875 73.453125 72.996094 73.074219 72.773438 72.851562 C 72.667969 72.742188 72.492188 72.742188 72.1875 72.847656 C 71.664062 73.03125 71.53125 72.90625 71.390625 72.089844 C 71.335938 71.773438 71.253906 71.367188 71.210938 71.191406 C 71.148438 70.925781 71.214844 70.835938 71.578125 70.710938 C 71.824219 70.625 72.027344 70.492188 72.027344 70.417969 C 72.027344 70.34375 71.859375 69.71875 71.652344 69.03125 L 71.28125 67.785156 L 68.195312 67.832031 L 65.113281 67.878906 L 62.679688 69.679688 C 60.832031 71.046875 60.265625 71.535156 60.335938 71.710938 C 60.625 72.464844 65.570312 88.265625 65.570312 88.445312 C 65.570312 88.5625 65.539062 88.660156 65.5 88.660156 C 65.414062 88.660156 65.453125 88.683594 57.265625 82.792969 C 53.328125 79.960938 50.941406 78.328125 50.769531 78.355469 C 50.460938 78.40625 39.472656 86.226562 39.460938 86.402344 C 39.460938 86.464844 40.433594 87.15625 41.625 87.941406 C 45.605469 90.5625 49.335938 92.230469 53.480469 93.242188 C 54.210938 93.421875 54.808594 93.621094 54.808594 93.683594 C 54.808594 93.800781 52.214844 95.742188 51.148438 96.421875 C 46.921875 99.121094 39.867188 101.390625 34.4375 101.800781 C 33.417969 101.878906 33.144531 101.859375 33.144531 101.710938 Z M 24.183594 90.25 C 24.257812 90.179688 24.449219 90.097656 24.605469 90.070312 C 24.824219 90.03125 24.464844 89.65625 23.027344 88.421875 C 22 87.542969 21.140625 86.886719 21.113281 86.957031 C 21.050781 87.128906 22.164062 89.074219 22.695312 89.71875 C 23.054688 90.15625 23.289062 90.28125 23.894531 90.359375 C 23.980469 90.371094 24.109375 90.320312 24.183594 90.25 Z M 36.417969 86.285156 C 36.652344 85.492188 36.695312 85.132812 36.589844 84.933594 C 36.507812 84.78125 36.445312 84.550781 36.445312 84.417969 C 36.445312 84.21875 36.480469 84.207031 36.664062 84.355469 C 36.78125 84.457031 36.910156 84.507812 36.945312 84.472656 C 37.058594 84.359375 39.601562 76.328125 39.601562 76.082031 C 39.601562 75.890625 39.484375 75.867188 38.917969 75.945312 C 38.542969 75.992188 37.785156 76.148438 37.234375 76.285156 L 36.226562 76.535156 L 36.273438 77.898438 C 36.367188 80.550781 35.757812 82.507812 34.328125 84.160156 L 33.566406 85.039062 L 34.707031 86.203125 C 35.332031 86.84375 35.902344 87.367188 35.972656 87.367188 C 36.042969 87.367188 36.242188 86.878906 36.417969 86.285156 Z M 33.273438 81.679688 C 33.683594 81.09375 33.816406 80.542969 33.925781 78.9375 C 34 77.855469 33.976562 77.613281 33.8125 77.613281 C 33.523438 77.613281 32.566406 78.40625 32.144531 79 C 31.820312 79.457031 31.78125 79.652344 31.785156 80.75 C 31.785156 81.429688 31.867188 82.167969 31.964844 82.390625 L 32.140625 82.796875 L 32.550781 82.464844 C 32.777344 82.28125 33.101562 81.929688 33.273438 81.679688 Z M 32.921875 70.820312 L 33.628906 70.640625 L 33.808594 69.570312 C 33.964844 68.660156 34.269531 67.613281 34.640625 66.695312 C 34.714844 66.519531 34.214844 66.097656 32.582031 64.9375 C 31.394531 64.097656 30.398438 63.410156 30.363281 63.410156 C 30.324219 63.410156 30.253906 63.601562 30.203125 63.839844 C 30.070312 64.441406 29.863281 64.375 29.753906 63.691406 C 29.703125 63.375 29.617188 63.089844 29.5625 63.054688 C 29.507812 63.019531 29.28125 63.457031 29.0625 64.027344 C 28.839844 64.59375 28.347656 65.597656 27.960938 66.257812 C 27.574219 66.914062 27.261719 67.5 27.261719 67.558594 C 27.261719 67.613281 27.355469 67.984375 27.476562 68.382812 C 27.679688 69.070312 27.761719 69.152344 29.222656 70.144531 C 30.742188 71.171875 30.765625 71.179688 31.484375 71.089844 C 31.886719 71.042969 32.53125 70.917969 32.921875 70.820312 Z M 36.945312 69.359375 C 37.410156 69.292969 38.023438 69.023438 38.023438 68.882812 C 38.023438 68.734375 36.949219 68 36.730469 68 C 36.5625 68 36.390625 68.390625 36.230469 69.132812 C 36.136719 69.570312 36.152344 69.609375 36.390625 69.511719 C 36.539062 69.449219 36.789062 69.382812 36.945312 69.359375 Z M 67.054688 59.941406 C 67.855469 59.691406 68.527344 59.476562 68.542969 59.464844 C 68.605469 59.425781 66.972656 54.589844 66.851562 54.460938 C 66.789062 54.390625 66.535156 54.40625 66.269531 54.5 C 66.011719 54.589844 65.753906 54.613281 65.695312 54.550781 C 65.636719 54.492188 65.496094 54.035156 65.378906 53.53125 L 65.171875 52.621094 L 65.65625 52.417969 C 66.125 52.222656 66.265625 52.023438 66.035156 51.882812 C 65.792969 51.734375 64.613281 52.175781 64.238281 52.550781 C 64.019531 52.773438 63.5 53.113281 63.082031 53.304688 C 62.628906 53.511719 62.128906 53.886719 61.855469 54.226562 C 61.238281 54.996094 60.796875 55.199219 59.378906 55.367188 C 58.71875 55.445312 57.863281 55.609375 57.476562 55.730469 C 57.089844 55.851562 56.394531 55.949219 55.933594 55.949219 C 55.347656 55.949219 55.09375 56.003906 55.09375 56.132812 C 55.09375 56.234375 55.386719 57.234375 55.746094 58.355469 L 56.398438 60.398438 L 65.601562 60.398438 Z M 28.664062 59.988281 C 28.859375 59.863281 28.765625 58.734375 28.550781 58.601562 C 28.453125 58.542969 28.121094 59.589844 28.121094 59.957031 C 28.121094 60.136719 28.40625 60.152344 28.664062 59.988281 Z M 87.285156 59.378906 C 87.589844 59.296875 88.125 58.964844 88.472656 58.644531 C 90.027344 57.210938 89.726562 54.65625 87.871094 53.570312 C 87.515625 53.359375 87.195312 53.214844 87.164062 53.246094 C 87.132812 53.277344 87.171875 53.589844 87.25 53.9375 C 87.59375 55.464844 86.714844 57.429688 85.226562 58.457031 C 84.578125 58.90625 84.609375 59.023438 85.460938 59.324219 C 86.140625 59.566406 86.566406 59.582031 87.285156 59.378906 Z M 84.585938 56.023438 C 84.789062 55.761719 84.988281 55.316406 85.035156 55.039062 C 85.128906 54.472656 84.988281 53.511719 84.8125 53.511719 C 84.75 53.511719 84.460938 53.75 84.167969 54.039062 C 83.546875 54.664062 83.140625 55.84375 83.28125 56.613281 L 83.375 57.105469 L 83.800781 56.804688 C 84.03125 56.640625 84.386719 56.289062 84.585938 56.023438 Z M 80.742188 55.484375 C 80.820312 55.382812 80.925781 55.015625 80.980469 54.667969 C 81.09375 53.910156 81.617188 52.824219 82.210938 52.101562 C 82.453125 51.8125 82.585938 51.53125 82.515625 51.460938 C 82.339844 51.28125 81.292969 51.164062 80.859375 51.269531 C 80.144531 51.453125 79.820312 52.6875 80.058594 54.351562 C 80.25 55.695312 80.390625 55.929688 80.742188 55.484375 Z M 41.753906 23.527344 C 41.753906 23.316406 41.65625 23.242188 41.394531 23.242188 C 40.972656 23.242188 40.941406 23.351562 41.285156 23.613281 C 41.636719 23.882812 41.753906 23.859375 41.753906 23.527344 Z M 41.753906 23.527344 "/>
</g>
</svg>
