<?xml version="1.0" encoding="UTF-8"?>
<svg xmlns="http://www.w3.org/2000/svg" xmlns:xlink="http://www.w3.org/1999/xlink" width="99px" height="1707px" viewBox="0 0 99 142" version="1.1">
<g id="surface1">
<path style=" stroke:none;fill-rule:nonzero;fill:rgb(0%,0%,0%);fill-opacity:1;" d="M 46.816406 137.882812 C 46.785156 137.832031 46.015625 137.753906 45.109375 137.710938 C 44.203125 137.667969 43.414062 137.585938 43.355469 137.527344 C 43.296875 137.472656 42.984375 137.425781 42.664062 137.425781 C 42.34375 137.425781 42.050781 137.382812 42.019531 137.332031 C 41.988281 137.277344 41.582031 137.203125 41.117188 137.164062 C 40.648438 137.125 40.175781 137.042969 40.058594 136.980469 C 39.945312 136.921875 39.671875 136.871094 39.457031 136.871094 C 39.242188 136.871094 39.035156 136.820312 38.996094 136.757812 C 38.960938 136.699219 38.785156 136.648438 38.605469 136.648438 C 38.429688 136.648438 38.257812 136.605469 38.222656 136.550781 C 38.191406 136.496094 37.835938 136.417969 37.4375 136.375 C 37.039062 136.332031 36.683594 136.253906 36.648438 136.195312 C 36.613281 136.140625 36.460938 136.09375 36.3125 136.09375 C 36.160156 136.09375 35.949219 136.046875 35.84375 135.992188 C 35.558594 135.84375 34.484375 135.539062 34.25 135.539062 C 34.136719 135.539062 34.015625 135.488281 33.976562 135.429688 C 33.9375 135.367188 33.808594 135.316406 33.691406 135.316406 C 33.570312 135.316406 33.472656 135.265625 33.472656 135.207031 C 33.472656 135.144531 33.386719 135.097656 33.277344 135.097656 C 32.996094 135.097656 32.023438 134.734375 32.023438 134.628906 C 32.023438 134.582031 31.925781 134.539062 31.808594 134.539062 C 31.6875 134.539062 31.5625 134.496094 31.53125 134.441406 C 31.496094 134.386719 31.28125 134.308594 31.050781 134.265625 C 30.824219 134.222656 30.507812 134.101562 30.355469 133.996094 C 30.066406 133.800781 29.308594 133.433594 29.191406 133.433594 C 29.15625 133.433594 28.851562 133.257812 28.515625 133.042969 C 28.179688 132.828125 27.878906 132.65625 27.847656 132.65625 C 27.792969 132.65625 27.210938 132.28125 26.171875 131.585938 C 25.976562 131.453125 25.605469 131.140625 25.347656 130.886719 C 24.980469 130.527344 24.882812 130.347656 24.882812 130.050781 C 24.882812 129.625 25.144531 129.332031 26.554688 128.164062 C 27.765625 127.160156 28.117188 126.773438 28.117188 126.433594 C 28.117188 126.273438 28.042969 126.078125 27.949219 126 C 27.859375 125.925781 27.785156 125.8125 27.785156 125.75 C 27.785156 125.6875 27.691406 125.558594 27.578125 125.457031 C 27.464844 125.359375 27.28125 125.132812 27.164062 124.957031 C 26.804688 124.40625 26.546875 124.121094 25.09375 122.679688 C 23.777344 121.371094 23.394531 121.023438 22.425781 120.261719 C 22.214844 120.09375 22.019531 119.917969 22 119.871094 C 21.980469 119.828125 21.914062 119.789062 21.851562 119.789062 C 21.792969 119.789062 21.582031 119.667969 21.386719 119.523438 C 21.078125 119.289062 20.753906 119.101562 19.804688 118.605469 C 19.554688 118.472656 18.558594 118.015625 17.949219 117.75 C 17.722656 117.652344 17.433594 117.570312 17.304688 117.570312 C 17.175781 117.570312 17.070312 117.519531 17.070312 117.460938 C 17.070312 117.398438 16.972656 117.347656 16.847656 117.347656 C 16.722656 117.347656 16.535156 117.304688 16.429688 117.253906 C 16.082031 117.082031 15.09375 116.792969 14.859375 116.792969 C 14.734375 116.792969 14.597656 116.746094 14.5625 116.683594 C 14.523438 116.621094 14.40625 116.574219 14.300781 116.574219 C 14.132812 116.574219 14.117188 116.703125 14.152344 117.820312 C 14.175781 118.507812 14.238281 119.117188 14.292969 119.171875 C 14.347656 119.230469 14.394531 119.429688 14.398438 119.617188 C 14.398438 119.804688 14.472656 120.253906 14.5625 120.621094 C 14.792969 121.574219 14.773438 122.1875 14.496094 122.574219 C 14.371094 122.75 14.214844 122.894531 14.15625 122.894531 C 14.09375 122.894531 13.96875 122.96875 13.875 123.0625 C 13.785156 123.152344 13.515625 123.226562 13.277344 123.226562 C 13.039062 123.226562 12.8125 123.277344 12.777344 123.339844 C 12.738281 123.398438 12.585938 123.449219 12.441406 123.449219 C 12.296875 123.449219 12.144531 123.398438 12.105469 123.339844 C 12.070312 123.277344 11.878906 123.226562 11.679688 123.226562 C 11.484375 123.226562 11.179688 123.152344 11.003906 123.058594 C 10.613281 122.855469 10.601562 122.855469 10.601562 123.050781 C 10.601562 123.28125 11.464844 124.113281 11.703125 124.113281 C 11.8125 124.113281 11.992188 124.210938 12.097656 124.324219 C 12.28125 124.527344 12.269531 124.550781 11.757812 124.902344 C 11.28125 125.226562 11.121094 125.273438 10.300781 125.3125 C 8.691406 125.398438 8.53125 125.144531 8.425781 122.339844 C 8.382812 121.273438 8.304688 120.351562 8.25 120.292969 C 8.097656 120.136719 8.121094 119.871094 8.332031 119.445312 C 8.550781 119 8.738281 118.867188 9.246094 118.789062 L 9.625 118.734375 L 9.074219 118.179688 C 8.382812 117.484375 8.144531 117.015625 8.144531 116.351562 C 8.144531 115.675781 8.363281 115.261719 9.132812 114.460938 C 9.480469 114.101562 9.964844 113.550781 10.210938 113.238281 C 10.457031 112.921875 10.742188 112.570312 10.851562 112.457031 C 10.957031 112.339844 11.046875 112.222656 11.046875 112.195312 C 11.046875 112.128906 12.1875 110.4375 12.28125 110.359375 C 12.320312 110.332031 12.492188 110.085938 12.660156 109.816406 C 12.832031 109.546875 13.015625 109.269531 13.070312 109.207031 C 13.125 109.140625 13.273438 108.949219 13.398438 108.78125 C 13.527344 108.613281 13.699219 108.476562 13.789062 108.476562 C 13.875 108.476562 13.949219 108.429688 13.949219 108.371094 C 13.949219 108.3125 14.148438 108.203125 14.394531 108.128906 C 14.742188 108.027344 15.054688 108.027344 15.816406 108.132812 C 16.355469 108.210938 16.878906 108.316406 16.988281 108.375 C 17.09375 108.429688 17.304688 108.476562 17.453125 108.476562 C 17.605469 108.476562 17.753906 108.519531 17.789062 108.574219 C 17.824219 108.628906 18.125 108.707031 18.464844 108.746094 C 18.800781 108.789062 19.105469 108.871094 19.140625 108.925781 C 19.175781 108.984375 19.328125 109.03125 19.476562 109.03125 C 19.628906 109.03125 19.75 109.082031 19.75 109.140625 C 19.75 109.203125 19.835938 109.253906 19.945312 109.253906 C 20.1875 109.261719 21.132812 109.585938 21.636719 109.835938 C 21.84375 109.941406 22.058594 110.027344 22.113281 110.027344 C 22.273438 110.027344 24.546875 111.144531 25.160156 111.523438 C 25.46875 111.710938 25.910156 111.964844 26.144531 112.085938 C 26.378906 112.203125 26.660156 112.382812 26.769531 112.484375 C 26.875 112.582031 27.160156 112.792969 27.402344 112.949219 C 27.820312 113.222656 28.066406 113.40625 29.121094 114.210938 C 30.238281 115.0625 31.65625 116.390625 32.519531 117.394531 C 32.945312 117.890625 33.269531 118.03125 33.425781 117.78125 C 33.476562 117.699219 33.695312 117.683594 34.058594 117.730469 C 34.53125 117.792969 34.710938 117.757812 35.296875 117.472656 C 35.675781 117.292969 36.074219 117.117188 36.179688 117.085938 C 36.289062 117.050781 36.375 116.972656 36.375 116.910156 C 36.375 116.839844 36.023438 116.792969 35.484375 116.792969 C 34.960938 116.792969 34.589844 116.75 34.589844 116.683594 C 34.589844 116.621094 34.46875 116.574219 34.316406 116.574219 C 34.167969 116.574219 34.015625 116.523438 33.976562 116.460938 C 33.9375 116.402344 33.796875 116.351562 33.660156 116.351562 C 33.527344 116.351562 33.164062 116.183594 32.859375 115.980469 C 32.554688 115.773438 32.175781 115.570312 32.023438 115.523438 C 31.871094 115.480469 31.582031 115.261719 31.382812 115.039062 C 30.949219 114.554688 30.910156 114.105469 31.253906 113.527344 L 31.488281 113.132812 L 31.199219 113.132812 C 31.039062 113.132812 30.90625 113.089844 30.90625 113.039062 C 30.90625 112.984375 30.628906 112.914062 30.289062 112.878906 C 29.605469 112.808594 27.464844 111.832031 26.789062 111.28125 C 26.363281 110.933594 25.023438 109.621094 24.78125 109.316406 C 24.136719 108.492188 23.863281 108.101562 23.597656 107.628906 C 23.429688 107.332031 23.222656 106.992188 23.140625 106.871094 C 23.054688 106.75 22.984375 106.5625 22.984375 106.453125 C 22.984375 106.347656 22.945312 106.257812 22.898438 106.257812 C 22.8125 106.257812 22.5625 105.726562 22.304688 104.980469 C 22.085938 104.359375 21.933594 104.214844 21.710938 104.433594 C 21.617188 104.527344 21.5 104.664062 21.453125 104.738281 C 21.3125 104.957031 20.890625 105.148438 20.550781 105.148438 C 20.347656 105.148438 20.101562 105.027344 19.878906 104.816406 C 19.570312 104.523438 19.527344 104.410156 19.53125 103.898438 C 19.53125 103.578125 19.59375 103.242188 19.667969 103.152344 C 19.855469 102.921875 20.296875 102.722656 20.699219 102.683594 L 21.03125 102.648438 L 20.683594 102.460938 C 20.382812 102.296875 20.3125 102.292969 20.128906 102.433594 C 19.246094 103.09375 17.851562 101.714844 18.464844 100.785156 C 18.617188 100.554688 18.59375 100.480469 18.074219 99.675781 C 17.769531 99.203125 17.519531 98.78125 17.519531 98.738281 C 17.515625 98.695312 17.394531 98.417969 17.242188 98.117188 C 17.089844 97.820312 16.933594 97.410156 16.894531 97.203125 C 16.855469 96.996094 16.777344 96.800781 16.722656 96.765625 C 16.671875 96.734375 16.625 96.507812 16.625 96.269531 C 16.625 96.027344 16.574219 95.832031 16.515625 95.832031 C 16.453125 95.832031 16.402344 95.535156 16.402344 95.164062 C 16.402344 94.796875 16.351562 94.5 16.289062 94.5 C 16.230469 94.5 16.179688 94.253906 16.179688 93.957031 L 16.179688 93.410156 L 15.625 93.335938 C 14.867188 93.234375 14.503906 92.867188 14.503906 92.207031 C 14.503906 91.9375 14.585938 91.597656 14.683594 91.449219 C 14.863281 91.175781 15.417969 90.839844 15.695312 90.839844 C 15.863281 90.839844 15.910156 90.117188 15.746094 90.015625 C 15.386719 89.796875 15.386719 84.898438 15.746094 84.675781 C 15.800781 84.644531 15.84375 84.480469 15.84375 84.3125 C 15.84375 84.144531 15.902344 83.953125 15.96875 83.882812 C 16.054688 83.796875 16.101562 82.890625 16.109375 81.058594 C 16.121094 79.136719 16.164062 78.289062 16.261719 78.113281 C 16.558594 77.582031 16.625 77.414062 16.625 77.207031 C 16.625 77.085938 16.675781 76.957031 16.738281 76.921875 C 16.796875 76.882812 16.847656 76.78125 16.847656 76.691406 C 16.847656 76.464844 17.21875 75.644531 17.320312 75.644531 C 17.367188 75.644531 17.40625 75.570312 17.40625 75.476562 C 17.40625 75.289062 18.042969 74.359375 18.621094 73.710938 C 18.898438 73.394531 18.964844 73.261719 18.847656 73.230469 C 18.078125 73.015625 17.519531 72.472656 17.519531 71.941406 C 17.519531 71.765625 17.675781 71.476562 17.921875 71.207031 C 18.285156 70.808594 18.378906 70.765625 18.84375 70.769531 C 19.125 70.769531 19.453125 70.84375 19.570312 70.929688 C 19.765625 71.078125 19.796875 71.066406 19.933594 70.804688 C 20.015625 70.644531 20.085938 70.453125 20.085938 70.375 C 20.085938 70.296875 20.160156 70.09375 20.25 69.917969 C 20.34375 69.742188 20.417969 69.523438 20.417969 69.425781 C 20.417969 69.332031 20.507812 69.15625 20.617188 69.039062 C 20.726562 68.921875 20.882812 68.664062 20.964844 68.464844 C 21.046875 68.269531 21.207031 67.996094 21.324219 67.855469 C 22.375 66.59375 22.765625 66.183594 23.550781 65.523438 C 23.820312 65.292969 24.101562 65.109375 24.167969 65.109375 C 24.238281 65.109375 24.378906 64.871094 24.484375 64.582031 C 24.589844 64.289062 24.722656 63.941406 24.78125 63.804688 C 24.835938 63.667969 24.9375 63.417969 25.003906 63.25 C 25.3125 62.488281 25.894531 61.425781 26.113281 61.226562 C 26.144531 61.195312 26.320312 60.964844 26.503906 60.714844 C 26.976562 60.0625 27.859375 59.117188 27.992188 59.117188 C 28.148438 59.117188 28.707031 58.554688 28.628906 58.480469 C 28.59375 58.445312 28.472656 58.5 28.359375 58.601562 C 28.25 58.703125 28.105469 58.785156 28.042969 58.785156 C 27.980469 58.785156 27.839844 58.886719 27.726562 59.007812 C 27.617188 59.128906 27.480469 59.230469 27.425781 59.230469 C 27.371094 59.230469 27.15625 59.390625 26.953125 59.589844 C 25.714844 60.78125 23.980469 60.921875 23.066406 59.902344 C 22.898438 59.714844 22.761719 59.449219 22.761719 59.308594 C 22.761719 59.167969 22.703125 58.992188 22.628906 58.917969 C 22.523438 58.816406 22.523438 58.753906 22.628906 58.652344 C 22.703125 58.578125 22.761719 58.402344 22.761719 58.261719 C 22.761719 58.121094 22.808594 57.917969 22.867188 57.8125 C 23.089844 57.40625 23.320312 56.859375 23.324219 56.746094 C 23.324219 56.675781 23.421875 56.496094 23.542969 56.34375 C 23.664062 56.191406 23.761719 55.976562 23.765625 55.863281 C 23.765625 55.75 23.847656 55.476562 23.945312 55.253906 C 24.195312 54.6875 24.273438 54.480469 24.488281 53.851562 C 24.667969 53.328125 24.734375 53.144531 24.988281 52.546875 C 25.046875 52.410156 25.125 52.136719 25.164062 51.9375 C 25.261719 51.433594 25.742188 51.121094 26.449219 51.105469 C 26.9375 51.097656 27.054688 51.136719 27.273438 51.390625 C 27.53125 51.6875 28.140625 51.808594 28.28125 51.585938 C 28.3125 51.53125 28.542969 51.449219 28.789062 51.410156 C 29.03125 51.367188 29.257812 51.292969 29.292969 51.242188 C 29.347656 51.148438 28.949219 50.351562 28.792969 50.246094 C 28.746094 50.214844 28.617188 49.988281 28.503906 49.746094 C 28.390625 49.5 28.265625 49.277344 28.226562 49.246094 C 28.074219 49.125 27.785156 48.421875 27.785156 48.164062 C 27.785156 47.664062 28.171875 47.285156 28.757812 47.203125 C 29.050781 47.164062 29.492188 47.035156 29.734375 46.921875 C 32.640625 45.574219 33.195312 45.324219 34.199219 44.917969 C 34.382812 44.84375 34.609375 44.75 34.703125 44.707031 C 34.792969 44.667969 35.171875 44.542969 35.539062 44.429688 C 35.90625 44.320312 36.296875 44.183594 36.402344 44.128906 C 36.507812 44.078125 36.695312 44.035156 36.8125 44.035156 C 36.933594 44.035156 37.0625 43.984375 37.097656 43.925781 C 37.136719 43.867188 37.414062 43.785156 37.722656 43.746094 C 38.027344 43.703125 38.304688 43.628906 38.335938 43.574219 C 38.371094 43.523438 38.566406 43.480469 38.773438 43.480469 C 38.980469 43.480469 39.183594 43.429688 39.21875 43.367188 C 39.257812 43.308594 39.433594 43.257812 39.609375 43.257812 C 39.789062 43.257812 39.960938 43.210938 39.996094 43.152344 C 40.035156 43.09375 40.414062 43.015625 40.84375 42.972656 C 41.273438 42.929688 41.652344 42.851562 41.683594 42.800781 C 41.71875 42.746094 41.929688 42.699219 42.15625 42.699219 C 42.789062 42.695312 42.9375 42.519531 42.96875 41.734375 C 42.984375 41.359375 42.945312 40.988281 42.882812 40.90625 C 42.820312 40.828125 42.675781 40.300781 42.5625 39.742188 C 42.367188 38.75 42.367188 38.707031 42.566406 38.339844 C 42.773438 37.957031 42.773438 37.957031 42.46875 37.34375 C 42.230469 36.855469 42.089844 36.703125 41.792969 36.605469 C 40.851562 36.296875 40.519531 35.3125 41.128906 34.660156 C 41.410156 34.355469 41.414062 34.335938 41.242188 33.976562 C 41.144531 33.773438 41.007812 33.609375 40.9375 33.609375 C 40.726562 33.609375 40.511719 33.242188 40.507812 32.878906 C 40.503906 32.648438 40.394531 32.4375 40.167969 32.222656 C 39.808594 31.878906 39.734375 31.4375 39.96875 31.0625 C 40.078125 30.886719 40.070312 30.808594 39.914062 30.636719 C 39.59375 30.289062 39.742188 29.28125 40.109375 29.28125 C 40.300781 29.28125 40.34375 29 40.167969 28.894531 C 40.109375 28.855469 40.058594 28.660156 40.058594 28.457031 C 40.058594 28.253906 39.980469 28.027344 39.890625 27.949219 C 39.664062 27.761719 39.675781 26.960938 39.910156 26.617188 C 40.179688 26.226562 40.507812 25.949219 40.894531 25.78125 C 41.484375 25.53125 41.839844 25.054688 41.917969 24.421875 C 41.953125 24.105469 42.027344 23.847656 42.082031 23.847656 C 42.132812 23.847656 42.175781 23.648438 42.175781 23.410156 C 42.175781 23.167969 42.21875 22.945312 42.273438 22.914062 C 42.324219 22.882812 42.402344 22.46875 42.441406 21.992188 C 42.480469 21.519531 42.546875 21.015625 42.582031 20.878906 C 42.621094 20.730469 42.601562 20.628906 42.523438 20.628906 C 42.457031 20.628906 42.402344 20.695312 42.402344 20.773438 C 42.402344 20.925781 41.707031 21.589844 41.304688 21.824219 C 41.011719 21.992188 40.210938 22.003906 40.105469 21.839844 C 40.066406 21.773438 40.089844 21.664062 40.15625 21.597656 C 40.226562 21.527344 40.28125 21.363281 40.28125 21.226562 C 40.28125 21.089844 40.324219 20.949219 40.378906 20.914062 C 40.628906 20.761719 40.582031 20.273438 40.296875 19.972656 C 39.3125 18.949219 39.277344 18.890625 39.277344 18.25 C 39.277344 17.816406 39.234375 17.644531 39.136719 17.664062 C 39.042969 17.683594 38.984375 17.507812 38.964844 17.136719 C 38.945312 16.832031 38.882812 16.535156 38.824219 16.476562 C 38.765625 16.417969 38.71875 16.160156 38.71875 15.90625 C 38.71875 15.554688 38.652344 15.375 38.441406 15.179688 C 38.15625 14.910156 38.050781 14.242188 38.261719 14.023438 C 38.316406 13.96875 38.386719 13.296875 38.410156 12.535156 C 38.453125 11.289062 38.492188 11.089844 38.765625 10.566406 C 39.027344 10.074219 39.121094 9.984375 39.386719 9.984375 C 39.65625 9.984375 39.714844 9.925781 39.800781 9.566406 C 39.890625 9.1875 39.9375 9.144531 40.339844 9.09375 C 40.683594 9.050781 40.789062 8.988281 40.816406 8.808594 C 40.835938 8.679688 40.773438 8.511719 40.675781 8.433594 C 40.582031 8.355469 40.503906 8.175781 40.503906 8.03125 C 40.503906 7.886719 40.402344 7.59375 40.28125 7.375 C 40.15625 7.160156 40.058594 6.785156 40.058594 6.550781 C 40.058594 6.195312 40.136719 6.039062 40.507812 5.664062 C 40.933594 5.238281 40.992188 5.214844 41.625 5.214844 C 41.992188 5.214844 42.289062 5.261719 42.289062 5.324219 C 42.289062 5.386719 42.363281 5.433594 42.457031 5.433594 C 42.585938 5.433594 42.625 5.289062 42.625 4.773438 C 42.625 4.238281 42.667969 4.070312 42.867188 3.886719 C 43.195312 3.582031 43.722656 3.597656 44.101562 3.921875 C 44.359375 4.140625 44.410156 4.273438 44.410156 4.726562 L 44.410156 5.269531 L 45.191406 5.230469 C 45.648438 5.210938 45.972656 5.238281 45.972656 5.304688 C 45.972656 5.363281 46.097656 5.441406 46.253906 5.480469 C 46.453125 5.53125 46.554688 5.648438 46.601562 5.882812 C 46.640625 6.066406 46.714844 6.242188 46.765625 6.277344 C 46.917969 6.371094 46.878906 6.929688 46.695312 7.28125 C 46.605469 7.453125 46.53125 7.726562 46.53125 7.886719 C 46.53125 8.042969 46.429688 8.265625 46.304688 8.375 C 46.015625 8.636719 46.023438 8.796875 46.332031 8.929688 C 46.492188 9 46.597656 9.15625 46.621094 9.351562 C 46.648438 9.597656 46.699219 9.644531 46.871094 9.589844 C 47.054688 9.535156 47.085938 9.578125 47.085938 9.878906 C 47.085938 10.222656 47.097656 10.230469 47.476562 10.171875 L 47.867188 10.105469 L 47.867188 10.628906 C 47.871094 10.914062 47.945312 11.289062 48.035156 11.464844 C 48.128906 11.640625 48.203125 11.898438 48.203125 12.039062 C 48.203125 12.183594 48.253906 12.328125 48.316406 12.367188 C 48.375 12.40625 48.425781 12.679688 48.425781 12.976562 C 48.425781 13.273438 48.476562 13.550781 48.539062 13.585938 C 48.691406 13.683594 48.679688 14.375 48.515625 14.632812 C 48.414062 14.800781 48.414062 14.882812 48.53125 15.019531 C 48.691406 15.214844 49.265625 15.257812 49.375 15.085938 C 49.414062 15.023438 49.636719 14.972656 49.875 14.972656 C 50.113281 14.972656 50.339844 14.925781 50.375 14.871094 C 50.410156 14.816406 50.761719 14.734375 51.164062 14.691406 C 51.5625 14.648438 51.914062 14.570312 51.949219 14.515625 C 51.980469 14.464844 52.257812 14.417969 52.5625 14.417969 C 52.863281 14.417969 53.113281 14.371094 53.113281 14.3125 C 53.113281 14.253906 53.550781 14.191406 54.085938 14.171875 C 54.96875 14.144531 55.042969 14.125 54.863281 13.976562 C 54.300781 13.503906 53.898438 12.957031 53.824219 12.554688 C 53.648438 11.632812 54.132812 10.59375 54.796875 10.460938 C 54.976562 10.425781 55.152344 10.355469 55.1875 10.300781 C 55.21875 10.246094 55.394531 10.203125 55.578125 10.203125 C 55.828125 10.203125 55.933594 10.136719 56.011719 9.925781 C 56.132812 9.617188 56.199219 9.597656 56.636719 9.765625 C 56.847656 9.84375 56.976562 9.84375 57.058594 9.765625 C 57.214844 9.609375 57.816406 9.625 58.023438 9.792969 C 58.113281 9.871094 58.253906 10.042969 58.328125 10.175781 C 58.488281 10.457031 58.519531 11.382812 58.371094 11.472656 C 58.25 11.546875 58.132812 12.089844 58.238281 12.089844 C 58.277344 12.089844 58.375 12.027344 58.449219 11.953125 C 58.660156 11.742188 62.902344 11.757812 63.332031 11.972656 C 63.703125 12.15625 64.382812 12.753906 64.382812 12.894531 C 64.382812 12.945312 64.507812 13.121094 64.660156 13.285156 C 64.816406 13.449219 64.941406 13.628906 64.941406 13.679688 C 64.941406 13.730469 65.042969 13.917969 65.171875 14.097656 C 65.425781 14.453125 65.378906 14.640625 65.035156 14.640625 C 64.734375 14.640625 64.085938 15.316406 63.867188 15.859375 C 63.488281 16.800781 63.382812 16.886719 62.980469 16.585938 C 62.828125 16.46875 62.460938 16.421875 61.730469 16.417969 C 61.164062 16.417969 60.699219 16.441406 60.699219 16.476562 C 60.699219 16.507812 60.796875 16.640625 60.917969 16.769531 C 61.039062 16.894531 61.164062 17.15625 61.203125 17.34375 C 61.269531 17.679688 61.398438 18.039062 61.605469 18.4375 C 61.660156 18.542969 61.703125 18.753906 61.703125 18.902344 C 61.703125 19.054688 61.75 19.203125 61.804688 19.234375 C 61.859375 19.269531 61.9375 19.476562 61.976562 19.699219 C 62.066406 20.171875 62.484375 20.839844 63.066406 21.441406 C 63.296875 21.679688 63.558594 22.023438 63.652344 22.210938 C 63.847656 22.59375 63.878906 23.246094 63.710938 23.347656 C 63.648438 23.386719 63.601562 23.902344 63.601562 24.511719 C 63.601562 25.125 63.550781 25.640625 63.488281 25.675781 C 63.429688 25.714844 63.378906 26.03125 63.375 26.375 C 63.375 27.253906 63.203125 27.546875 62.648438 27.621094 L 62.207031 27.675781 L 62.484375 27.832031 C 62.90625 28.066406 63.035156 28.292969 63.039062 28.796875 C 63.042969 29.066406 63.113281 29.3125 63.210938 29.394531 C 63.445312 29.585938 63.429688 30.433594 63.191406 30.671875 C 63.039062 30.820312 63.03125 30.898438 63.136719 31.066406 C 63.367188 31.433594 63.289062 31.878906 62.9375 32.214844 C 62.699219 32.441406 62.597656 32.652344 62.574219 32.972656 C 62.550781 33.28125 62.472656 33.457031 62.316406 33.539062 C 61.832031 33.808594 61.703125 34.273438 62.027344 34.621094 C 62.542969 35.171875 62.199219 36.390625 61.484375 36.546875 C 61.136719 36.621094 60.589844 37.171875 60.589844 37.445312 C 60.589844 37.53125 60.527344 37.699219 60.453125 37.816406 C 60.34375 37.992188 60.355469 38.070312 60.523438 38.253906 C 60.675781 38.425781 60.707031 38.578125 60.65625 38.898438 C 60.617188 39.128906 60.589844 39.46875 60.589844 39.652344 C 60.597656 40.09375 60.339844 40.945312 60.183594 41.003906 C 60.042969 41.058594 60.105469 41.449219 60.289062 41.679688 C 60.363281 41.78125 60.359375 41.863281 60.269531 41.953125 C 60.0625 42.160156 60.117188 42.480469 60.359375 42.480469 C 60.476562 42.480469 60.605469 42.53125 60.644531 42.589844 C 60.683594 42.652344 60.90625 42.703125 61.144531 42.703125 C 61.382812 42.703125 61.605469 42.746094 61.640625 42.800781 C 61.671875 42.851562 62.050781 42.929688 62.480469 42.972656 C 62.910156 43.015625 63.289062 43.09375 63.324219 43.152344 C 63.363281 43.210938 63.535156 43.257812 63.710938 43.257812 C 63.890625 43.257812 64.066406 43.308594 64.101562 43.367188 C 64.140625 43.429688 64.316406 43.480469 64.492188 43.480469 C 64.671875 43.480469 64.84375 43.523438 64.878906 43.578125 C 64.910156 43.636719 65.203125 43.714844 65.519531 43.757812 C 65.839844 43.804688 66.179688 43.878906 66.273438 43.921875 C 66.605469 44.085938 67.007812 44.230469 67.703125 44.4375 C 68.085938 44.550781 68.398438 44.679688 68.398438 44.726562 C 68.398438 44.773438 68.496094 44.808594 68.617188 44.808594 C 68.734375 44.808594 68.863281 44.859375 68.902344 44.921875 C 68.9375 44.980469 69.074219 45.03125 69.203125 45.03125 C 69.332031 45.03125 69.71875 45.160156 70.0625 45.320312 C 70.40625 45.480469 71.0625 45.78125 71.523438 45.996094 C 71.984375 46.207031 72.511719 46.445312 72.695312 46.523438 C 72.878906 46.601562 73.253906 46.769531 73.53125 46.894531 C 73.808594 47.019531 74.214844 47.152344 74.433594 47.1875 C 75.140625 47.304688 75.835938 48.164062 75.429688 48.414062 C 75.367188 48.453125 75.316406 48.558594 75.316406 48.652344 C 75.316406 48.746094 75.117188 49.097656 74.871094 49.441406 C 74.625 49.78125 74.425781 50.125 74.425781 50.207031 C 74.425781 50.289062 74.386719 50.355469 74.339844 50.355469 C 74.265625 50.355469 73.867188 51.148438 73.867188 51.292969 C 73.867188 51.320312 74.09375 51.375 74.371094 51.414062 C 74.648438 51.457031 74.902344 51.535156 74.933594 51.589844 C 75.058594 51.789062 75.617188 51.683594 75.875 51.410156 C 76.019531 51.257812 76.253906 51.132812 76.394531 51.132812 C 76.539062 51.132812 76.65625 51.082031 76.65625 51.019531 C 76.65625 50.84375 76.835938 50.890625 77.359375 51.214844 C 77.726562 51.441406 77.929688 51.679688 78.148438 52.136719 C 78.308594 52.476562 78.441406 52.835938 78.441406 52.9375 C 78.441406 53.035156 78.484375 53.140625 78.539062 53.175781 C 78.589844 53.207031 78.667969 53.4375 78.707031 53.6875 C 78.746094 53.933594 78.828125 54.234375 78.890625 54.355469 C 78.949219 54.472656 79.050781 54.667969 79.109375 54.789062 C 79.171875 54.910156 79.222656 55.066406 79.222656 55.132812 C 79.222656 55.261719 79.375 55.632812 79.863281 56.679688 C 80.019531 57.011719 80.199219 57.414062 80.257812 57.566406 C 80.316406 57.71875 80.410156 57.929688 80.460938 58.035156 C 80.609375 58.320312 80.582031 59.304688 80.421875 59.589844 C 80.167969 60.039062 79.964844 60.234375 79.5625 60.40625 C 79.34375 60.503906 79.078125 60.625 78.972656 60.679688 C 78.71875 60.8125 78.359375 60.808594 78.273438 60.671875 C 78.234375 60.609375 78.109375 60.558594 77.996094 60.558594 C 77.703125 60.558594 76.84375 60.09375 76.492188 59.742188 C 76.332031 59.582031 76.160156 59.449219 76.113281 59.449219 C 76.066406 59.449219 75.925781 59.355469 75.804688 59.242188 C 75.539062 58.996094 74.648438 58.425781 74.648438 58.503906 C 74.648438 58.59375 75.253906 59.117188 75.371094 59.128906 C 75.578125 59.144531 77.4375 61.421875 77.4375 61.65625 C 77.4375 61.726562 77.480469 61.78125 77.535156 61.78125 C 77.589844 61.78125 77.71875 61.96875 77.820312 62.195312 C 77.925781 62.425781 78.105469 62.804688 78.226562 63.039062 C 78.34375 63.273438 78.441406 63.535156 78.441406 63.621094 C 78.441406 63.707031 78.484375 63.777344 78.539062 63.777344 C 78.59375 63.777344 78.675781 64.007812 78.71875 64.292969 C 78.792969 64.800781 78.980469 65.109375 79.210938 65.109375 C 79.277344 65.109375 79.921875 65.695312 80.644531 66.410156 C 81.636719 67.390625 82.074219 67.921875 82.417969 68.546875 C 82.667969 69.003906 82.910156 69.503906 82.953125 69.65625 C 82.996094 69.808594 83.074219 70.03125 83.125 70.152344 C 83.175781 70.277344 83.285156 70.535156 83.367188 70.734375 C 83.503906 71.070312 83.527344 71.082031 83.761719 70.925781 C 83.898438 70.835938 84.234375 70.765625 84.5 70.765625 C 85.199219 70.765625 85.695312 71.234375 85.695312 71.90625 C 85.695312 72.164062 85.617188 72.484375 85.527344 72.617188 C 85.351562 72.867188 84.761719 73.203125 84.503906 73.203125 C 84.34375 73.203125 84.296875 73.382812 84.441406 73.445312 C 84.492188 73.464844 84.679688 73.679688 84.863281 73.921875 C 85.042969 74.167969 85.265625 74.453125 85.359375 74.5625 C 85.675781 74.941406 86.46875 76.476562 86.472656 76.71875 C 86.472656 76.851562 86.523438 76.992188 86.585938 77.03125 C 86.648438 77.070312 86.699219 77.195312 86.699219 77.316406 C 86.699219 77.433594 86.746094 77.53125 86.804688 77.53125 C 86.863281 77.53125 86.945312 77.832031 86.988281 78.199219 C 87.027344 78.566406 87.105469 78.894531 87.160156 78.925781 C 87.296875 79.011719 87.28125 82.269531 87.144531 82.355469 C 87.082031 82.394531 87.03125 82.566406 87.03125 82.742188 C 87.03125 82.917969 87.082031 83.09375 87.144531 83.132812 C 87.207031 83.167969 87.257812 83.335938 87.257812 83.503906 C 87.257812 83.671875 87.296875 83.855469 87.347656 83.914062 C 87.398438 83.972656 87.511719 84.242188 87.597656 84.519531 C 87.8125 85.191406 87.828125 89.871094 87.617188 90.082031 C 87.410156 90.285156 87.4375 90.839844 87.65625 90.839844 C 87.855469 90.839844 88.464844 91.234375 88.675781 91.5 C 88.75 91.59375 88.8125 91.890625 88.816406 92.160156 C 88.816406 92.574219 88.757812 92.703125 88.417969 93.035156 C 88.054688 93.382812 87.976562 93.414062 87.542969 93.355469 L 87.0625 93.289062 L 86.984375 94.53125 C 86.941406 95.214844 86.859375 95.824219 86.804688 95.882812 C 86.746094 95.9375 86.699219 96.125 86.699219 96.289062 C 86.699219 96.457031 86.65625 96.621094 86.601562 96.652344 C 86.546875 96.6875 86.472656 96.917969 86.433594 97.164062 C 86.390625 97.414062 86.3125 97.699219 86.257812 97.804688 C 86.203125 97.910156 86.019531 98.292969 85.851562 98.660156 C 85.683594 99.027344 85.511719 99.351562 85.46875 99.378906 C 85.425781 99.410156 85.253906 99.652344 85.089844 99.917969 C 84.824219 100.339844 84.792969 100.472656 84.859375 100.941406 C 84.964844 101.71875 84.84375 102.132812 84.429688 102.382812 C 84.050781 102.609375 83.410156 102.667969 83.296875 102.484375 C 83.164062 102.277344 82.472656 102.429688 82.234375 102.71875 C 82.203125 102.757812 81.929688 102.945312 81.621094 103.132812 C 81.316406 103.324219 81.125 103.480469 81.203125 103.480469 C 81.378906 103.484375 81.386719 104.175781 81.214844 104.511719 C 80.945312 105.023438 80.894531 105.148438 80.894531 105.289062 C 80.894531 105.550781 79.386719 108.339844 79.109375 108.585938 C 79.074219 108.617188 78.882812 108.867188 78.683594 109.140625 C 78.25 109.738281 77.003906 111.027344 76.859375 111.027344 C 76.804688 111.027344 76.621094 111.152344 76.457031 111.304688 C 76.292969 111.457031 76.101562 111.582031 76.035156 111.582031 C 75.972656 111.582031 75.820312 111.671875 75.699219 111.78125 C 75.582031 111.890625 75.183594 112.121094 74.816406 112.289062 C 74.445312 112.460938 74.054688 112.648438 73.941406 112.707031 C 73.828125 112.765625 73.476562 112.839844 73.160156 112.871094 C 72.84375 112.902344 72.484375 112.972656 72.359375 113.027344 C 72.238281 113.078125 72.042969 113.136719 71.933594 113.15625 C 71.746094 113.1875 71.753906 113.222656 72.015625 113.523438 C 72.449219 114.023438 72.414062 114.570312 71.910156 115.070312 C 71.695312 115.285156 71.394531 115.492188 71.242188 115.53125 C 71.089844 115.566406 70.964844 115.632812 70.964844 115.675781 C 70.964844 115.796875 69.875 116.351562 69.632812 116.351562 C 69.515625 116.351562 69.386719 116.402344 69.347656 116.460938 C 69.308594 116.523438 69.160156 116.574219 69.011719 116.574219 C 68.867188 116.574219 68.714844 116.621094 68.679688 116.683594 C 68.640625 116.746094 68.203125 116.792969 67.710938 116.792969 C 66.949219 116.792969 66.828125 116.820312 66.9375 116.949219 C 67.011719 117.035156 67.203125 117.136719 67.363281 117.179688 C 67.527344 117.21875 67.8125 117.363281 68 117.496094 C 68.28125 117.691406 68.480469 117.734375 69.101562 117.71875 C 69.671875 117.703125 69.878906 117.738281 69.925781 117.855469 C 70.023438 118.117188 70.21875 118.035156 70.628906 117.554688 C 71.542969 116.492188 74.152344 114.023438 74.367188 114.023438 C 74.402344 114.023438 74.570312 113.898438 74.734375 113.746094 C 74.898438 113.589844 75.082031 113.46875 75.136719 113.46875 C 75.191406 113.46875 75.316406 113.378906 75.417969 113.273438 C 75.605469 113.070312 75.921875 112.855469 76.210938 112.726562 C 76.300781 112.683594 76.402344 112.617188 76.433594 112.578125 C 76.496094 112.492188 77.632812 111.773438 77.882812 111.65625 C 77.976562 111.613281 78.25 111.453125 78.496094 111.300781 C 78.742188 111.148438 79.019531 110.992188 79.109375 110.953125 C 79.203125 110.914062 79.691406 110.691406 80.199219 110.457031 C 80.707031 110.222656 81.171875 110.027344 81.230469 110.027344 C 81.289062 110.027344 81.507812 109.933594 81.722656 109.8125 C 81.933594 109.695312 82.285156 109.566406 82.507812 109.523438 C 82.726562 109.480469 82.933594 109.40625 82.96875 109.351562 C 83 109.296875 83.152344 109.253906 83.300781 109.253906 C 83.453125 109.253906 83.574219 109.203125 83.574219 109.140625 C 83.574219 109.082031 83.695312 109.03125 83.847656 109.03125 C 83.996094 109.03125 84.148438 108.984375 84.183594 108.925781 C 84.21875 108.871094 84.523438 108.789062 84.859375 108.746094 C 85.199219 108.707031 85.5 108.628906 85.535156 108.574219 C 85.566406 108.519531 85.71875 108.476562 85.871094 108.476562 C 86.019531 108.476562 86.230469 108.429688 86.335938 108.375 C 86.445312 108.316406 86.960938 108.210938 87.488281 108.136719 C 88.246094 108.03125 88.53125 108.03125 88.863281 108.140625 C 89.300781 108.28125 90.492188 109.382812 90.492188 109.644531 C 90.492188 109.722656 90.53125 109.804688 90.574219 109.824219 C 90.703125 109.882812 91.273438 110.664062 91.273438 110.785156 C 91.273438 110.839844 91.355469 110.957031 91.453125 111.035156 C 91.550781 111.117188 91.675781 111.285156 91.730469 111.410156 C 91.84375 111.664062 92.078125 112.050781 92.171875 112.136719 C 92.207031 112.167969 92.320312 112.316406 92.421875 112.46875 C 92.6875 112.855469 93.222656 113.480469 94.023438 114.339844 C 94.398438 114.746094 94.8125 115.265625 94.945312 115.496094 C 95.191406 115.933594 95.265625 116.839844 95.066406 116.960938 C 95.003906 117 94.953125 117.113281 94.953125 117.21875 C 94.953125 117.320312 94.664062 117.703125 94.3125 118.070312 L 93.671875 118.734375 L 94.0625 118.769531 C 94.277344 118.792969 94.566406 118.914062 94.703125 119.039062 C 94.933594 119.253906 94.957031 119.375 94.957031 120.410156 C 94.957031 121.050781 94.90625 121.582031 94.84375 121.621094 C 94.777344 121.660156 94.730469 122.257812 94.730469 123.042969 C 94.730469 124.46875 94.679688 124.65625 94.125 125.152344 C 93.929688 125.324219 93.757812 125.351562 93.003906 125.3125 C 92.175781 125.265625 91.777344 125.144531 91.417969 124.816406 C 91.339844 124.746094 91.214844 124.667969 91.136719 124.640625 C 90.929688 124.570312 91.324219 124.152344 91.683594 124.0625 C 92.140625 123.949219 92.933594 122.894531 92.5625 122.894531 C 92.476562 122.894531 92.390625 122.949219 92.367188 123.011719 C 92.347656 123.078125 92.101562 123.15625 91.828125 123.1875 C 91.554688 123.21875 91.210938 123.300781 91.070312 123.371094 C 90.878906 123.464844 90.757812 123.460938 90.597656 123.359375 C 90.480469 123.289062 90.175781 123.226562 89.921875 123.226562 C 89.53125 123.226562 89.390625 123.160156 89.011719 122.78125 L 88.5625 122.335938 L 88.640625 121.257812 C 88.679688 120.664062 88.761719 120.132812 88.824219 120.074219 C 88.882812 120.015625 88.929688 119.730469 88.929688 119.441406 C 88.929688 119.152344 88.980469 118.882812 89.042969 118.847656 C 89.105469 118.808594 89.152344 118.289062 89.152344 117.675781 C 89.152344 116.574219 89.152344 116.574219 88.875 116.574219 C 88.71875 116.574219 88.59375 116.613281 88.59375 116.660156 C 88.59375 116.707031 88.167969 116.84375 87.648438 116.964844 C 87.125 117.082031 86.699219 117.21875 86.699219 117.265625 C 86.699219 117.3125 86.601562 117.347656 86.480469 117.347656 C 86.363281 117.347656 86.238281 117.390625 86.203125 117.445312 C 86.171875 117.5 86 117.570312 85.824219 117.605469 C 85.648438 117.640625 85.171875 117.820312 84.765625 118.003906 C 84.359375 118.191406 83.902344 118.371094 83.746094 118.410156 C 83.589844 118.449219 83.460938 118.527344 83.460938 118.582031 C 83.460938 118.636719 83.363281 118.679688 83.238281 118.679688 C 83.117188 118.679688 83.015625 118.726562 83.015625 118.78125 C 83.015625 118.835938 82.875 118.929688 82.703125 118.988281 C 82.53125 119.046875 82.3125 119.175781 82.214844 119.269531 C 82.121094 119.363281 81.898438 119.53125 81.71875 119.640625 C 81.199219 119.964844 80.113281 120.808594 80.113281 120.886719 C 80.113281 120.929688 79.96875 121.046875 79.785156 121.152344 C 79.476562 121.335938 77.417969 123.339844 76.933594 123.929688 C 76.8125 124.078125 76.574219 124.371094 76.40625 124.574219 C 75.335938 125.871094 75.046875 126.347656 75.148438 126.664062 C 75.183594 126.777344 75.546875 127.160156 75.949219 127.515625 C 76.355469 127.871094 76.863281 128.324219 77.078125 128.523438 C 77.292969 128.722656 77.507812 128.882812 77.554688 128.882812 C 77.597656 128.882812 77.816406 129.070312 78.039062 129.296875 C 78.625 129.898438 78.59375 130.269531 77.902344 130.894531 C 77.609375 131.160156 77.222656 131.480469 77.046875 131.601562 C 76.875 131.722656 76.675781 131.875 76.609375 131.941406 C 76.542969 132.003906 76.3125 132.15625 76.097656 132.273438 C 75.882812 132.390625 75.683594 132.515625 75.652344 132.546875 C 75.621094 132.578125 75.394531 132.703125 75.148438 132.824219 C 74.902344 132.945312 74.679688 133.070312 74.648438 133.105469 C 74.546875 133.214844 72.621094 134.109375 71.859375 134.402344 C 71.703125 134.460938 71.363281 134.613281 71.101562 134.742188 C 70.839844 134.871094 70.453125 135.007812 70.238281 135.046875 C 70.023438 135.089844 69.820312 135.164062 69.785156 135.21875 C 69.753906 135.273438 69.605469 135.316406 69.460938 135.316406 C 69.3125 135.316406 69.164062 135.363281 69.128906 135.421875 C 69.09375 135.480469 68.835938 135.558594 68.5625 135.601562 C 68.285156 135.640625 68.035156 135.71875 68 135.773438 C 67.96875 135.828125 67.820312 135.871094 67.671875 135.871094 C 67.527344 135.871094 67.375 135.921875 67.339844 135.984375 C 67.300781 136.042969 67.152344 136.09375 67.003906 136.09375 C 66.859375 136.09375 66.707031 136.140625 66.671875 136.199219 C 66.636719 136.257812 66.304688 136.339844 65.9375 136.378906 C 65.570312 136.421875 65.242188 136.5 65.210938 136.550781 C 65.175781 136.605469 64.988281 136.648438 64.789062 136.648438 C 64.589844 136.648438 64.378906 136.691406 64.320312 136.746094 C 64.210938 136.851562 64.003906 136.886719 62.375 137.097656 C 61.851562 137.167969 61.339844 137.265625 61.230469 137.324219 C 61.125 137.378906 60.796875 137.425781 60.5 137.425781 C 60.207031 137.425781 59.914062 137.472656 59.859375 137.527344 C 59.800781 137.585938 58.984375 137.667969 58.046875 137.710938 C 57.109375 137.753906 56.3125 137.832031 56.28125 137.886719 C 56.207031 138.007812 46.894531 138.007812 46.816406 137.886719 Z M 50.65625 128.949219 C 50.65625 128.636719 50.597656 128.539062 50.324219 128.402344 C 49.738281 128.109375 49.335938 128.070312 49.023438 128.273438 C 48.816406 128.410156 48.703125 128.425781 48.613281 128.339844 C 48.546875 128.273438 48.421875 128.21875 48.335938 128.21875 C 48.078125 128.21875 47.535156 127.773438 47.535156 127.5625 C 47.535156 127.363281 47.183594 126.886719 47.039062 126.886719 C 46.640625 126.886719 44.351562 124.589844 43.902344 123.742188 C 43.660156 123.28125 43.457031 122.957031 43.320312 122.808594 C 43.246094 122.726562 43.183594 122.585938 43.183594 122.5 C 43.183594 122.230469 42.867188 122.324219 42.503906 122.699219 L 42.15625 123.0625 L 41.886719 122.726562 C 41.742188 122.546875 41.621094 122.285156 41.621094 122.144531 C 41.621094 122.007812 41.570312 121.898438 41.507812 121.898438 C 41.445312 121.898438 41.394531 121.773438 41.394531 121.625 C 41.394531 121.476562 41.347656 121.324219 41.285156 121.285156 C 41.222656 121.25 41.171875 121.121094 41.171875 121.003906 C 41.171875 120.78125 40.800781 120.691406 40.679688 120.882812 C 40.648438 120.933594 40.308594 121.007812 39.929688 121.050781 C 39.246094 121.121094 38.632812 121.273438 38.246094 121.464844 C 38.140625 121.519531 37.957031 121.5625 37.835938 121.5625 C 37.71875 121.5625 37.605469 121.617188 37.582031 121.679688 C 37.5625 121.742188 37.179688 121.824219 36.738281 121.863281 C 36.292969 121.898438 35.929688 121.933594 35.929688 121.941406 C 35.929688 121.945312 36.15625 122.398438 36.429688 122.945312 C 37.035156 124.136719 37.109375 124.9375 36.691406 125.679688 C 36.554688 125.917969 36.414062 126.109375 36.371094 126.109375 C 36.296875 126.109375 36.003906 126.679688 36.0625 126.710938 C 36.113281 126.738281 36.617188 126.953125 36.988281 127.109375 C 37.171875 127.183594 37.402344 127.285156 37.496094 127.332031 C 37.589844 127.378906 37.929688 127.449219 38.25 127.496094 C 38.566406 127.539062 38.859375 127.621094 38.890625 127.675781 C 38.925781 127.730469 39.097656 127.773438 39.277344 127.773438 C 39.453125 127.773438 39.625 127.820312 39.660156 127.875 C 39.695312 127.929688 39.910156 128 40.140625 128.035156 C 41.183594 128.1875 42.027344 128.359375 42.203125 128.453125 C 42.308594 128.507812 42.597656 128.550781 42.839844 128.550781 C 43.082031 128.550781 43.308594 128.597656 43.339844 128.648438 C 43.375 128.703125 44.007812 128.785156 44.742188 128.828125 C 45.480469 128.871094 46.113281 128.953125 46.144531 129.007812 C 46.179688 129.0625 46.753906 129.105469 47.421875 129.105469 C 48.109375 129.105469 48.664062 129.152344 48.703125 129.21875 C 48.742188 129.277344 49.199219 129.328125 49.714844 129.328125 L 50.65625 129.328125 Z M 54.960938 129.222656 C 55.015625 129.167969 55.515625 129.097656 56.070312 129.066406 C 57.613281 128.976562 59.890625 128.726562 59.984375 128.632812 C 60.03125 128.589844 60.28125 128.550781 60.542969 128.550781 C 60.808594 128.550781 61.050781 128.503906 61.085938 128.445312 C 61.121094 128.390625 61.503906 128.308594 61.933594 128.265625 C 62.363281 128.222656 62.742188 128.144531 62.773438 128.09375 C 62.804688 128.039062 63.003906 127.996094 63.210938 127.996094 C 63.417969 127.996094 63.617188 127.945312 63.65625 127.886719 C 63.695312 127.824219 63.875 127.773438 64.054688 127.773438 C 64.234375 127.773438 64.382812 127.730469 64.382812 127.675781 C 64.382812 127.621094 64.617188 127.542969 64.902344 127.5 C 65.1875 127.457031 65.511719 127.378906 65.625 127.320312 C 65.738281 127.265625 65.933594 127.171875 66.054688 127.109375 C 66.175781 127.046875 66.34375 127 66.421875 127 C 66.683594 127 67.167969 126.726562 67.171875 126.578125 C 67.171875 126.5 67.109375 126.359375 67.03125 126.269531 C 66.957031 126.179688 66.84375 126.042969 66.78125 125.96875 C 66.347656 125.445312 66.183594 124.242188 66.464844 123.652344 C 66.535156 123.511719 66.671875 123.207031 66.773438 122.984375 C 66.871094 122.757812 67.003906 122.542969 67.0625 122.503906 C 67.253906 122.386719 67.179688 122.117188 66.953125 122.117188 C 66.835938 122.117188 66.710938 122.074219 66.675781 122.019531 C 66.644531 121.964844 66.433594 121.886719 66.210938 121.847656 C 65.988281 121.804688 65.722656 121.730469 65.625 121.679688 C 65.523438 121.628906 65.304688 121.535156 65.136719 121.464844 C 64.964844 121.398438 64.714844 121.292969 64.578125 121.230469 C 64.4375 121.167969 63.863281 121.078125 63.292969 121.03125 C 62.367188 120.953125 62.261719 120.964844 62.261719 121.128906 C 62.261719 121.234375 62.1875 121.460938 62.09375 121.632812 C 62.003906 121.808594 61.929688 122.03125 61.929688 122.128906 C 61.925781 122.226562 61.828125 122.394531 61.707031 122.503906 C 61.5 122.691406 61.46875 122.691406 60.941406 122.503906 C 60.28125 122.265625 60.085938 122.324219 59.882812 122.8125 C 59.796875 123.015625 59.65625 123.253906 59.570312 123.34375 C 59.480469 123.433594 59.335938 123.660156 59.246094 123.851562 C 58.976562 124.410156 57.78125 125.769531 57.0625 126.332031 C 56.28125 126.945312 54.402344 127.921875 53.558594 128.15625 C 52.792969 128.367188 52.441406 128.644531 52.441406 129.042969 L 52.441406 129.328125 L 53.648438 129.328125 C 54.3125 129.328125 54.902344 129.28125 54.960938 129.222656 Z M 49.59375 124.65625 C 49.648438 124.601562 49.777344 124.558594 49.871094 124.558594 C 50.117188 124.558594 50.433594 123.769531 50.433594 123.171875 C 50.433594 122.480469 50.359375 122.5 49.246094 123.488281 C 48.78125 123.902344 48.527344 124.496094 48.699219 124.769531 C 48.777344 124.894531 49.417969 124.8125 49.59375 124.65625 Z M 55.398438 124.640625 C 55.644531 124.570312 56.046875 124.390625 56.292969 124.238281 C 56.871094 123.878906 58.050781 122.675781 58.28125 122.207031 C 58.453125 121.851562 58.453125 121.839844 58.210938 121.808594 C 58.078125 121.789062 57.804688 121.699219 57.601562 121.605469 C 57.257812 121.449219 57.242188 121.421875 57.308594 120.976562 C 57.347656 120.71875 57.425781 120.460938 57.476562 120.40625 C 57.53125 120.347656 57.574219 120.210938 57.574219 120.101562 C 57.574219 119.988281 57.625 119.898438 57.6875 119.898438 C 57.75 119.898438 57.796875 119.75 57.796875 119.566406 C 57.796875 119.105469 57.597656 119.144531 57.019531 119.734375 C 56.746094 120.007812 56.472656 120.234375 56.40625 120.234375 C 56.34375 120.234375 56.15625 120.359375 55.988281 120.511719 C 55.824219 120.664062 55.609375 120.789062 55.515625 120.789062 C 55.421875 120.789062 55.34375 120.832031 55.34375 120.890625 C 55.34375 120.949219 55.230469 121.03125 55.09375 121.074219 C 54.953125 121.117188 54.566406 121.277344 54.226562 121.429688 C 53.890625 121.585938 53.464844 121.742188 53.28125 121.78125 L 52.945312 121.851562 L 52.945312 123.035156 C 52.945312 124.363281 52.992188 124.464844 53.738281 124.726562 C 54.1875 124.886719 54.628906 124.863281 55.398438 124.640625 Z M 47.199219 123.789062 C 47.199219 123.441406 47.558594 122.851562 48.082031 122.339844 C 48.652344 121.777344 49.636719 121.121094 49.902344 121.121094 C 50.164062 121.121094 50.234375 120.84375 50.296875 119.601562 C 50.359375 118.296875 50.304688 118.019531 50.027344 118.25 C 49.902344 118.355469 49.433594 118.414062 48.546875 118.4375 C 47.425781 118.464844 47.179688 118.507812 46.695312 118.75 C 45.714844 119.246094 45.6875 119.273438 45.902344 119.71875 C 46 119.929688 46.082031 120.179688 46.082031 120.277344 C 46.082031 120.378906 46.140625 120.570312 46.210938 120.707031 C 46.503906 121.265625 46.535156 121.355469 46.46875 121.457031 C 46.433594 121.515625 46.285156 121.5625 46.136719 121.5625 C 45.992188 121.5625 45.84375 121.613281 45.804688 121.675781 C 45.765625 121.734375 45.5625 121.785156 45.351562 121.785156 C 45.140625 121.785156 44.96875 121.835938 44.96875 121.902344 C 44.96875 122.054688 45.304688 122.574219 45.550781 122.796875 C 45.660156 122.894531 45.75 123.007812 45.75 123.042969 C 45.75 123.136719 46.3125 123.695312 46.625 123.914062 C 46.929688 124.125 47.199219 124.066406 47.199219 123.789062 Z M 67.9375 121.023438 C 68.066406 120.910156 68.175781 120.785156 68.175781 120.746094 C 68.175781 120.707031 68.332031 120.460938 68.519531 120.203125 C 68.859375 119.742188 68.859375 119.734375 68.617188 119.695312 C 68.484375 119.675781 68.191406 119.554688 67.96875 119.429688 C 67.746094 119.300781 67.410156 119.121094 67.226562 119.03125 C 67.042969 118.9375 66.867188 118.835938 66.835938 118.800781 C 66.488281 118.398438 65.671875 118.355469 65.246094 118.722656 C 64.914062 119.003906 64.839844 119.34375 65.105469 119.34375 C 65.199219 119.34375 65.273438 119.394531 65.273438 119.457031 C 65.273438 119.515625 65.375 119.566406 65.5 119.566406 C 65.621094 119.566406 65.8125 119.613281 65.917969 119.671875 C 66.023438 119.730469 66.242188 119.804688 66.402344 119.835938 C 66.78125 119.914062 67.617188 120.722656 67.617188 121.007812 C 67.617188 121.28125 67.636719 121.28125 67.9375 121.023438 Z M 53.519531 119.957031 C 53.695312 119.863281 53.9375 119.789062 54.0625 119.789062 C 54.183594 119.789062 54.410156 119.6875 54.5625 119.566406 C 54.714844 119.441406 55.054688 119.195312 55.316406 119.011719 C 55.578125 118.828125 55.789062 118.609375 55.789062 118.523438 C 55.789062 118.425781 55.617188 118.347656 55.316406 118.308594 C 54.148438 118.164062 53.800781 118.054688 53.195312 117.652344 L 52.890625 117.445312 L 52.890625 118.785156 C 52.890625 120.242188 52.90625 120.273438 53.519531 119.957031 Z M 40.8125 118.351562 C 41.113281 118.101562 41.117188 118.035156 40.839844 117.683594 C 40.476562 117.222656 40.558594 116.605469 41.0625 115.972656 C 41.21875 115.777344 41.214844 115.773438 40.976562 115.890625 C 40.839844 115.960938 40.632812 116.066406 40.515625 116.121094 C 40.402344 116.179688 40.125 116.257812 39.902344 116.300781 C 39.679688 116.34375 39.46875 116.421875 39.4375 116.472656 C 39.402344 116.527344 39.203125 116.574219 38.992188 116.574219 C 38.78125 116.574219 38.605469 116.621094 38.605469 116.683594 C 38.605469 116.746094 38.53125 116.792969 38.441406 116.792969 C 38.34375 116.792969 38.304688 116.859375 38.34375 116.960938 C 38.378906 117.050781 38.503906 117.128906 38.621094 117.128906 C 38.738281 117.128906 39.148438 117.445312 39.53125 117.839844 C 39.910156 118.230469 40.300781 118.550781 40.390625 118.554688 C 40.484375 118.558594 40.671875 118.46875 40.8125 118.351562 Z M 63.445312 118.097656 C 63.988281 117.53125 64.496094 117.128906 64.664062 117.128906 C 64.730469 117.128906 64.84375 117.070312 64.914062 116.996094 C 65.089844 116.824219 64.769531 116.582031 64.359375 116.574219 C 64.195312 116.574219 64.03125 116.527344 64 116.472656 C 63.964844 116.421875 63.714844 116.34375 63.4375 116.300781 C 63.164062 116.261719 62.90625 116.179688 62.871094 116.121094 C 62.835938 116.066406 62.707031 116.019531 62.585938 116.019531 C 62.378906 116.019531 62.378906 116.035156 62.539062 116.34375 C 62.769531 116.792969 62.746094 117.347656 62.484375 117.683594 C 62.363281 117.835938 62.265625 118.011719 62.265625 118.070312 C 62.261719 118.171875 62.785156 118.558594 62.933594 118.566406 C 62.964844 118.566406 63.195312 118.355469 63.445312 118.097656 Z M 44.933594 116.992188 C 45.152344 116.886719 45.171875 116.816406 45.109375 116.363281 C 45.019531 115.6875 44.519531 115.152344 44.152344 115.328125 C 44.015625 115.394531 43.722656 115.53125 43.496094 115.628906 C 42.949219 115.875 42.894531 116.074219 43.277344 116.4375 C 44.105469 117.226562 44.304688 117.292969 44.933594 116.992188 Z M 47.644531 116.238281 C 47.644531 116.179688 47.769531 116.128906 47.925781 116.128906 C 48.339844 116.128906 48.257812 115.878906 47.765625 115.644531 C 47.0625 115.3125 46.34375 115.695312 46.773438 116.175781 C 46.9375 116.363281 47.644531 116.414062 47.644531 116.238281 Z M 42.234375 115.664062 C 42.515625 115.601562 42.757812 115.453125 42.890625 115.261719 C 43.007812 115.097656 43.035156 115.027344 42.953125 115.101562 C 42.871094 115.179688 42.691406 115.242188 42.550781 115.242188 C 42.414062 115.242188 42.273438 115.289062 42.238281 115.34375 C 42.203125 115.398438 42.027344 115.476562 41.851562 115.515625 C 41.671875 115.554688 41.496094 115.664062 41.460938 115.761719 C 41.410156 115.890625 41.441406 115.910156 41.589844 115.851562 C 41.699219 115.804688 41.988281 115.722656 42.234375 115.664062 Z M 50.433594 109.308594 C 50.359375 109.214844 50.238281 109.140625 50.164062 109.140625 C 50.011719 109.140625 49.21875 108.316406 49.003906 107.941406 C 48.652344 107.316406 48.710938 105.808594 49.101562 105.390625 C 49.21875 105.261719 49.320312 105.113281 49.320312 105.054688 C 49.320312 105 49.394531 104.890625 49.484375 104.816406 C 49.761719 104.589844 49.589844 104.511719 48.59375 104.429688 C 48.074219 104.386719 47.617188 104.304688 47.582031 104.25 C 47.546875 104.195312 47.351562 104.148438 47.144531 104.148438 C 46.933594 104.148438 46.738281 104.105469 46.703125 104.050781 C 46.671875 103.996094 46.410156 103.917969 46.125 103.875 C 45.835938 103.832031 45.523438 103.757812 45.425781 103.710938 C 45.328125 103.660156 45.09375 103.558594 44.910156 103.484375 C 44.726562 103.410156 44.488281 103.304688 44.382812 103.25 C 44.277344 103.195312 44.125 103.152344 44.046875 103.152344 C 43.867188 103.152344 42.277344 102.351562 41.84375 102.042969 C 41.671875 101.921875 41.476562 101.820312 41.414062 101.820312 C 41.351562 101.820312 41.234375 101.757812 41.152344 101.683594 C 41.074219 101.605469 40.863281 101.46875 40.691406 101.382812 C 40.515625 101.292969 40.261719 101.117188 40.125 100.992188 C 39.988281 100.867188 39.679688 100.621094 39.4375 100.4375 C 38.933594 100.066406 36.375 97.515625 36.375 97.390625 C 36.375 97.34375 36.289062 97.203125 36.179688 97.078125 C 35.703125 96.515625 35.617188 96.40625 35.421875 96.074219 C 35.304688 95.878906 35.179688 95.71875 35.140625 95.71875 C 35.101562 95.71875 34.976562 95.496094 34.863281 95.222656 C 34.75 94.945312 34.617188 94.722656 34.566406 94.722656 C 34.519531 94.722656 34.476562 94.648438 34.476562 94.554688 C 34.476562 94.464844 34.4375 94.390625 34.386719 94.390625 C 34.339844 94.390625 34.210938 94.175781 34.101562 93.917969 C 33.992188 93.660156 33.859375 93.347656 33.808594 93.226562 C 33.667969 92.898438 33.355469 92.15625 33.226562 91.839844 C 33.164062 91.6875 33.074219 91.480469 33.023438 91.382812 C 32.976562 91.285156 32.898438 90.972656 32.855469 90.6875 C 32.8125 90.40625 32.734375 90.144531 32.679688 90.109375 C 32.625 90.078125 32.582031 89.90625 32.582031 89.730469 C 32.582031 89.554688 32.53125 89.378906 32.46875 89.34375 C 32.410156 89.304688 32.359375 89.097656 32.359375 88.886719 C 32.359375 88.671875 32.308594 88.40625 32.25 88.296875 C 32.191406 88.1875 32.109375 87.367188 32.066406 86.472656 L 31.988281 84.851562 L 30.945312 84.851562 C 30.164062 84.851562 29.902344 84.886719 29.902344 84.996094 C 29.902344 85.074219 29.949219 85.1875 30.003906 85.246094 C 30.222656 85.46875 30.683594 86.402344 30.683594 86.613281 C 30.683594 86.734375 30.734375 86.863281 30.796875 86.902344 C 30.859375 86.941406 30.90625 87.09375 30.90625 87.242188 C 30.90625 87.394531 30.953125 87.601562 31.011719 87.707031 C 31.152344 87.972656 31.355469 89.625 31.355469 90.535156 C 31.355469 91.089844 31.394531 91.285156 31.503906 91.285156 C 31.824219 91.285156 32.355469 91.644531 32.519531 91.972656 C 32.804688 92.539062 32.703125 93 32.207031 93.402344 C 32.007812 93.558594 31.996094 93.613281 32.125 93.765625 C 32.207031 93.863281 32.320312 93.945312 32.378906 93.945312 C 32.773438 93.945312 34.507812 95.667969 34.988281 96.539062 C 35.0625 96.667969 35.25 97.007812 35.40625 97.296875 C 35.890625 98.175781 36.042969 98.363281 36.375 98.476562 C 36.78125 98.617188 37.082031 99.175781 37.019531 99.679688 C 36.980469 100.027344 37 100.054688 37.226562 99.996094 C 37.5625 99.914062 38 100.09375 38.332031 100.449219 C 38.542969 100.675781 38.605469 100.863281 38.605469 101.269531 C 38.605469 101.738281 38.636719 101.804688 38.886719 101.867188 C 39.039062 101.90625 39.164062 101.984375 39.164062 102.042969 C 39.164062 102.105469 39.214844 102.152344 39.28125 102.152344 C 39.417969 102.152344 40.167969 102.882812 40.167969 103.019531 C 40.167969 103.070312 40.292969 103.230469 40.449219 103.375 C 40.601562 103.515625 40.726562 103.6875 40.730469 103.753906 C 40.730469 103.820312 40.832031 103.996094 40.949219 104.148438 L 41.167969 104.425781 L 41.171875 104.144531 C 41.171875 103.878906 41.351562 103.59375 41.511719 103.59375 C 41.554688 103.59375 41.707031 103.699219 41.855469 103.824219 C 42 103.949219 42.222656 104.136719 42.34375 104.238281 C 42.46875 104.34375 42.769531 104.527344 43.015625 104.648438 C 44.035156 105.15625 44.847656 105.796875 45.359375 106.492188 C 45.925781 107.269531 46.0625 107.484375 46.269531 107.921875 C 46.398438 108.195312 46.589844 108.65625 46.695312 108.945312 L 46.882812 109.472656 L 48.726562 109.472656 C 50.355469 109.472656 50.558594 109.453125 50.433594 109.308594 Z M 56.515625 109.222656 C 56.554688 109.085938 56.679688 108.773438 56.792969 108.53125 C 56.90625 108.289062 57.089844 107.875 57.199219 107.617188 C 57.304688 107.355469 57.4375 107.144531 57.484375 107.144531 C 57.535156 107.144531 57.574219 107.09375 57.574219 107.027344 C 57.574219 106.886719 57.703125 106.726562 58.414062 105.992188 C 58.972656 105.414062 59.472656 105.054688 60.308594 104.644531 C 60.554688 104.527344 60.78125 104.398438 60.8125 104.367188 C 60.84375 104.332031 61.054688 104.164062 61.285156 103.992188 C 61.734375 103.65625 62.039062 103.675781 62.039062 104.035156 C 62.039062 104.40625 62.316406 104.292969 62.585938 103.8125 C 62.726562 103.566406 62.960938 103.242188 63.109375 103.097656 C 63.257812 102.949219 63.378906 102.777344 63.378906 102.71875 C 63.378906 102.65625 63.488281 102.546875 63.621094 102.476562 C 63.753906 102.40625 63.980469 102.230469 64.128906 102.082031 C 64.273438 101.9375 64.464844 101.820312 64.554688 101.820312 C 64.675781 101.820312 64.71875 101.675781 64.71875 101.253906 C 64.71875 100.765625 64.761719 100.644531 65.0625 100.367188 C 65.390625 100.066406 65.621094 99.988281 66.082031 100.027344 C 66.238281 100.039062 66.28125 99.957031 66.28125 99.628906 C 66.28125 99.058594 66.488281 98.707031 66.964844 98.457031 C 67.257812 98.304688 67.460938 98.066406 67.683594 97.621094 C 67.859375 97.277344 68.035156 96.96875 68.082031 96.9375 C 68.125 96.90625 68.230469 96.75 68.3125 96.589844 C 68.734375 95.789062 70.140625 94.316406 70.78125 94.015625 C 71.34375 93.75 71.371094 93.640625 70.976562 93.238281 C 70.589844 92.839844 70.542969 92.492188 70.804688 91.972656 C 70.96875 91.644531 71.5 91.285156 71.820312 91.285156 C 71.9375 91.285156 71.96875 91.011719 71.96875 90.070312 C 71.96875 89.378906 72.019531 88.828125 72.082031 88.789062 C 72.140625 88.75 72.191406 88.5 72.191406 88.234375 C 72.191406 87.964844 72.234375 87.722656 72.289062 87.6875 C 72.339844 87.65625 72.417969 87.398438 72.457031 87.117188 C 72.492188 86.835938 72.664062 86.347656 72.835938 86.035156 C 73.007812 85.71875 73.207031 85.324219 73.28125 85.15625 L 73.414062 84.851562 L 71.523438 84.851562 L 71.523438 85.84375 C 71.523438 86.386719 71.472656 86.863281 71.410156 86.902344 C 71.351562 86.941406 71.300781 87.289062 71.300781 87.679688 C 71.300781 88.066406 71.257812 88.414062 71.203125 88.445312 C 71.148438 88.480469 71.070312 88.855469 71.027344 89.28125 C 70.988281 89.710938 70.90625 90.085938 70.847656 90.125 C 70.789062 90.160156 70.742188 90.308594 70.742188 90.460938 C 70.742188 90.609375 70.691406 90.832031 70.628906 90.953125 C 70.570312 91.074219 70.46875 91.273438 70.40625 91.394531 C 70.347656 91.515625 70.296875 91.695312 70.296875 91.792969 C 70.296875 92.246094 68.644531 95.476562 68.289062 95.71875 C 68.242188 95.75 68.171875 95.886719 68.128906 96.027344 C 68.085938 96.164062 68.003906 96.273438 67.945312 96.273438 C 67.886719 96.273438 67.839844 96.339844 67.839844 96.417969 C 67.839844 96.496094 67.679688 96.734375 67.476562 96.949219 C 67.277344 97.160156 66.976562 97.519531 66.808594 97.742188 C 66.402344 98.277344 64.824219 99.84375 64.292969 100.238281 C 64.066406 100.40625 63.753906 100.65625 63.601562 100.792969 C 63.449219 100.933594 63.265625 101.042969 63.191406 101.042969 C 63.121094 101.042969 63.046875 101.082031 63.023438 101.132812 C 62.96875 101.265625 62.273438 101.730469 61.648438 102.054688 C 61.339844 102.214844 60.902344 102.449219 60.667969 102.582031 C 60.4375 102.710938 60.171875 102.820312 60.082031 102.820312 C 59.992188 102.820312 59.917969 102.867188 59.917969 102.925781 C 59.917969 102.984375 59.742188 103.0625 59.527344 103.105469 C 59.3125 103.144531 59.109375 103.222656 59.074219 103.273438 C 59.039062 103.328125 58.914062 103.375 58.796875 103.375 C 58.675781 103.375 58.578125 103.421875 58.578125 103.484375 C 58.578125 103.546875 58.484375 103.59375 58.363281 103.59375 C 58.246094 103.59375 58.117188 103.644531 58.078125 103.703125 C 58.042969 103.761719 57.761719 103.84375 57.457031 103.882812 C 57.152344 103.925781 56.875 104 56.839844 104.054688 C 56.808594 104.105469 56.644531 104.148438 56.476562 104.148438 C 56.308594 104.148438 56.121094 104.199219 56.0625 104.257812 C 56.003906 104.316406 55.464844 104.398438 54.867188 104.441406 C 53.902344 104.507812 53.78125 104.539062 53.78125 104.726562 C 53.78125 104.839844 53.886719 105.046875 54.011719 105.179688 C 54.140625 105.316406 54.269531 105.554688 54.300781 105.710938 C 54.339844 105.894531 54.503906 106.066406 54.769531 106.203125 C 55.453125 106.550781 55.902344 106.921875 55.902344 107.144531 C 55.902344 107.257812 55.953125 107.382812 56.011719 107.421875 C 56.148438 107.507812 56.164062 108.886719 56.027344 108.9375 C 55.976562 108.957031 55.894531 109.085938 55.851562 109.222656 C 55.785156 109.445312 55.8125 109.472656 56.109375 109.472656 C 56.363281 109.472656 56.460938 109.414062 56.515625 109.222656 Z M 51.355469 106.761719 C 51.578125 106.65625 51.816406 106.601562 51.878906 106.640625 C 51.945312 106.683594 51.996094 106.667969 51.996094 106.613281 C 51.996094 106.554688 52.128906 106.375 52.292969 106.214844 L 52.589844 105.917969 L 52.355469 105.699219 C 52.191406 105.550781 51.960938 105.480469 51.613281 105.480469 C 51.1875 105.480469 51.050781 105.539062 50.71875 105.871094 C 50.414062 106.171875 50.324219 106.355469 50.324219 106.652344 C 50.324219 106.867188 50.386719 107.113281 50.460938 107.199219 C 50.582031 107.335938 50.625 107.328125 50.773438 107.15625 C 50.867188 107.046875 51.128906 106.867188 51.355469 106.761719 Z M 32.0625 83.546875 C 32.101562 83.320312 32.132812 82.871094 32.132812 82.554688 C 32.132812 82.238281 32.183594 81.949219 32.246094 81.910156 C 32.308594 81.875 32.359375 81.625 32.359375 81.355469 C 32.359375 81.089844 32.410156 80.839844 32.46875 80.800781 C 32.53125 80.765625 32.582031 80.589844 32.582031 80.414062 C 32.582031 80.238281 32.625 80.066406 32.679688 80.035156 C 32.734375 80 32.8125 79.75 32.855469 79.476562 C 32.894531 79.203125 32.976562 78.949219 33.035156 78.914062 C 33.09375 78.878906 33.140625 78.703125 33.140625 78.523438 C 33.140625 78.34375 33.191406 78.195312 33.25 78.195312 C 33.3125 78.195312 33.363281 78.121094 33.363281 78.027344 C 33.363281 77.9375 33.488281 77.601562 33.640625 77.285156 C 33.796875 76.972656 33.921875 76.648438 33.921875 76.566406 C 33.921875 76.488281 33.972656 76.421875 34.03125 76.421875 C 34.09375 76.421875 34.144531 76.324219 34.144531 76.207031 C 34.144531 76.089844 34.222656 75.914062 34.324219 75.816406 C 34.421875 75.71875 34.609375 75.425781 34.746094 75.171875 C 35.089844 74.507812 35.835938 73.378906 35.957031 73.332031 C 36.011719 73.308594 36.15625 73.132812 36.273438 72.941406 C 36.503906 72.5625 39.160156 69.878906 39.300781 69.878906 C 39.351562 69.878906 39.546875 69.726562 39.742188 69.542969 C 39.933594 69.359375 40.128906 69.210938 40.175781 69.210938 C 40.226562 69.210938 40.34375 69.132812 40.445312 69.03125 C 40.609375 68.871094 40.609375 68.828125 40.453125 68.59375 C 40.359375 68.449219 40.28125 68.179688 40.28125 67.996094 C 40.28125 67.75 40.230469 67.660156 40.085938 67.660156 C 39.65625 67.664062 39.429688 67.800781 39.292969 68.136719 C 39.097656 68.617188 38.835938 69.09375 38.558594 69.476562 C 38.234375 69.925781 37.054688 71.109375 36.664062 71.375 C 36.484375 71.496094 36.285156 71.648438 36.21875 71.714844 C 36.152344 71.777344 35.808594 71.96875 35.460938 72.140625 C 34.824219 72.449219 34.367188 72.773438 34.367188 72.917969 C 34.367188 73.023438 33.601562 74.203125 33.40625 74.394531 C 33.320312 74.480469 33.25 74.589844 33.25 74.632812 C 33.25 74.679688 32.851562 75.113281 32.359375 75.597656 C 31.5 76.445312 31.46875 76.496094 31.46875 76.996094 C 31.464844 77.28125 31.515625 77.546875 31.578125 77.585938 C 31.640625 77.625 31.6875 77.898438 31.6875 78.195312 C 31.6875 78.492188 31.640625 78.769531 31.578125 78.804688 C 31.515625 78.84375 31.464844 79.132812 31.464844 79.449219 C 31.464844 80.058594 31.332031 80.660156 31.054688 81.300781 C 30.960938 81.515625 30.835938 81.8125 30.773438 81.96875 C 30.644531 82.289062 30.410156 82.757812 30.113281 83.273438 C 29.738281 83.925781 29.785156 83.964844 30.949219 83.964844 L 31.996094 83.964844 Z M 73.53125 83.867188 C 73.53125 83.8125 73.457031 83.707031 73.363281 83.628906 C 73.273438 83.554688 73.195312 83.410156 73.195312 83.304688 C 73.195312 83.203125 73.152344 83.074219 73.09375 83.015625 C 72.875 82.785156 72.414062 81.855469 72.414062 81.640625 C 72.414062 81.515625 72.367188 81.414062 72.304688 81.414062 C 72.242188 81.414062 72.191406 81.296875 72.191406 81.15625 C 72.191406 81.015625 72.136719 80.847656 72.070312 80.78125 C 72 80.710938 71.917969 80.226562 71.886719 79.699219 C 71.851562 79.175781 71.78125 78.71875 71.730469 78.683594 C 71.597656 78.601562 71.609375 77.78125 71.746094 77.695312 C 71.808594 77.660156 71.859375 77.382812 71.859375 77.085938 C 71.859375 76.570312 71.824219 76.507812 71.160156 75.835938 C 70.777344 75.449219 70.363281 75.007812 70.242188 74.859375 C 69.777344 74.285156 68.957031 73.046875 68.957031 72.914062 C 68.957031 72.839844 68.855469 72.742188 68.734375 72.707031 C 68.609375 72.667969 68.511719 72.589844 68.511719 72.53125 C 68.511719 72.472656 68.433594 72.429688 68.34375 72.429688 C 68.25 72.429688 68.175781 72.390625 68.175781 72.34375 C 68.175781 72.296875 67.96875 72.167969 67.714844 72.058594 C 67.464844 71.953125 67.195312 71.800781 67.121094 71.730469 C 67.046875 71.65625 66.839844 71.496094 66.664062 71.375 C 66.019531 70.925781 65.015625 69.917969 64.648438 69.347656 C 64.441406 69.027344 64.269531 68.738281 64.269531 68.710938 C 64.269531 68.683594 64.183594 68.457031 64.074219 68.210938 C 63.910156 67.828125 63.820312 67.753906 63.460938 67.695312 C 63.226562 67.660156 63.011719 67.585938 62.976562 67.53125 C 62.945312 67.480469 62.820312 67.4375 62.699219 67.4375 C 62.582031 67.4375 62.394531 67.394531 62.289062 67.34375 C 62.183594 67.289062 61.894531 67.152344 61.648438 67.039062 C 60.808594 66.648438 60.195312 66.226562 59.414062 65.496094 C 59.152344 65.25 58.796875 64.953125 58.628906 64.832031 C 58.457031 64.707031 58.257812 64.546875 58.183594 64.476562 C 58.109375 64.402344 57.929688 64.3125 57.785156 64.277344 C 57.640625 64.238281 57.402344 64.121094 57.257812 64.011719 L 56.996094 63.816406 L 57.394531 63.40625 C 57.617188 63.183594 57.847656 63 57.917969 63 C 58.058594 63 58.355469 62.722656 58.355469 62.589844 C 58.355469 62.535156 58.242188 62.421875 58.105469 62.332031 C 57.695312 62.066406 56.527344 60.851562 56.347656 60.496094 C 56.257812 60.320312 56.144531 60.144531 56.097656 60.109375 C 56.054688 60.078125 55.820312 59.675781 55.582031 59.214844 C 55.34375 58.757812 54.914062 58.144531 54.625 57.855469 C 54.339844 57.566406 54.121094 57.273438 54.144531 57.203125 C 54.199219 57.039062 55.195312 56.699219 55.644531 56.6875 C 55.839844 56.683594 56.03125 56.628906 56.070312 56.566406 C 56.109375 56.5 56.851562 56.457031 57.917969 56.457031 L 59.695312 56.457031 L 59.695312 56.066406 C 59.695312 55.78125 59.792969 55.566406 60.046875 55.289062 C 60.34375 54.96875 60.476562 54.902344 60.863281 54.902344 C 61.269531 54.902344 61.394531 54.972656 61.855469 55.425781 C 62.316406 55.886719 62.40625 55.933594 62.597656 55.816406 C 62.867188 55.648438 65.339844 55.628906 65.441406 55.789062 C 65.480469 55.851562 65.757812 55.902344 66.054688 55.902344 C 66.355469 55.902344 66.632812 55.953125 66.667969 56.011719 C 66.707031 56.074219 66.78125 56.125 66.832031 56.125 C 66.953125 56.125 66.835938 55.191406 66.707031 55.144531 C 66.65625 55.125 66.613281 55.015625 66.613281 54.902344 C 66.613281 54.714844 66.304688 54.035156 66.160156 53.90625 C 65.574219 53.375 65.308594 52.425781 65.664062 52.128906 C 65.878906 51.953125 65.878906 51.796875 65.664062 51.796875 C 65.570312 51.796875 65.40625 51.753906 65.300781 51.699219 C 64.75 51.421875 63.503906 51.019531 63.1875 51.019531 C 63.054688 51.019531 62.914062 50.972656 62.875 50.910156 C 62.835938 50.847656 62.660156 50.800781 62.484375 50.800781 C 62.308594 50.800781 62.136719 50.753906 62.101562 50.703125 C 62.070312 50.648438 61.714844 50.570312 61.316406 50.527344 C 60.917969 50.484375 60.5625 50.402344 60.527344 50.347656 C 60.492188 50.289062 60.269531 50.246094 60.03125 50.246094 C 59.792969 50.246094 59.566406 50.195312 59.527344 50.132812 C 59.492188 50.074219 59.195312 50.023438 58.875 50.023438 C 58.554688 50.023438 58.242188 49.976562 58.183594 49.914062 C 58.121094 49.855469 57.308594 49.773438 56.371094 49.730469 C 55.433594 49.691406 54.640625 49.613281 54.609375 49.5625 C 54.53125 49.441406 48.792969 49.441406 48.714844 49.5625 C 48.683594 49.613281 47.839844 49.691406 46.839844 49.734375 C 45.84375 49.777344 44.976562 49.859375 44.917969 49.917969 C 44.859375 49.976562 44.574219 50.023438 44.28125 50.023438 C 43.992188 50.023438 43.722656 50.074219 43.683594 50.132812 C 43.644531 50.195312 43.421875 50.246094 43.183594 50.246094 C 42.945312 50.246094 42.722656 50.289062 42.6875 50.34375 C 42.652344 50.398438 42.273438 50.480469 41.84375 50.523438 C 41.414062 50.566406 41.03125 50.644531 41 50.699219 C 40.964844 50.753906 40.839844 50.800781 40.71875 50.800781 C 40.597656 50.800781 40.414062 50.84375 40.308594 50.898438 C 40.199219 50.949219 39.8125 51.078125 39.445312 51.183594 C 39.074219 51.289062 38.6875 51.421875 38.582031 51.476562 C 38.472656 51.53125 38.308594 51.574219 38.214844 51.574219 C 38.121094 51.574219 37.933594 51.636719 37.796875 51.714844 C 37.660156 51.789062 37.53125 51.863281 37.507812 51.875 C 37.488281 51.882812 37.554688 52.039062 37.664062 52.21875 C 37.847656 52.527344 37.847656 52.566406 37.652344 53.003906 C 37.539062 53.253906 37.40625 53.460938 37.359375 53.460938 C 37.308594 53.460938 37.269531 53.535156 37.269531 53.628906 C 37.269531 53.71875 37.226562 53.792969 37.175781 53.792969 C 37.066406 53.792969 36.710938 54.515625 36.710938 54.742188 C 36.710938 54.832031 36.660156 54.902344 36.597656 54.902344 C 36.539062 54.902344 36.488281 55.054688 36.488281 55.238281 C 36.488281 55.421875 36.425781 55.667969 36.351562 55.789062 C 36.175781 56.066406 36.324219 56.210938 36.601562 56.035156 C 36.722656 55.960938 37.042969 55.902344 37.316406 55.902344 C 37.589844 55.902344 37.84375 55.851562 37.882812 55.789062 C 37.980469 55.632812 40.457031 55.648438 40.714844 55.808594 C 40.890625 55.917969 41 55.863281 41.464844 55.421875 C 41.917969 54.988281 42.074219 54.902344 42.4375 54.902344 C 43.035156 54.902344 43.628906 55.476562 43.628906 56.058594 L 43.628906 56.457031 L 45.351562 56.457031 C 46.378906 56.457031 47.101562 56.5 47.144531 56.566406 C 47.179688 56.628906 47.367188 56.679688 47.558594 56.679688 C 48.027344 56.679688 49.109375 57.027344 49.175781 57.199219 C 49.207031 57.277344 49.003906 57.558594 48.730469 57.824219 C 48.453125 58.089844 48.09375 58.554688 47.925781 58.851562 C 47.761719 59.152344 47.578125 59.441406 47.523438 59.5 C 47.46875 59.558594 47.421875 59.675781 47.421875 59.761719 C 47.421875 60.089844 45.730469 62.113281 45.457031 62.113281 C 45.347656 62.113281 44.96875 62.507812 44.96875 62.621094 C 44.96875 62.722656 45.277344 63 45.386719 63 C 45.523438 63 46.304688 63.667969 46.304688 63.78125 C 46.304688 63.832031 46.066406 63.988281 45.777344 64.128906 C 45.484375 64.269531 45.148438 64.472656 45.03125 64.582031 C 44.910156 64.6875 44.777344 64.773438 44.730469 64.773438 C 44.683594 64.773438 44.414062 65 44.125 65.273438 L 43.601562 65.769531 L 44.007812 66.171875 C 44.226562 66.390625 44.410156 66.617188 44.410156 66.671875 C 44.410156 66.804688 44.824219 66.800781 44.90625 66.667969 C 44.941406 66.609375 45.195312 66.527344 45.472656 66.488281 C 45.746094 66.445312 45.972656 66.371094 45.972656 66.316406 C 45.972656 66.261719 46.117188 66.214844 46.300781 66.214844 C 46.480469 66.214844 46.65625 66.167969 46.691406 66.113281 C 46.726562 66.054688 47.109375 65.972656 47.539062 65.929688 C 47.96875 65.890625 48.347656 65.8125 48.378906 65.757812 C 48.414062 65.707031 48.8125 65.664062 49.269531 65.664062 C 49.75 65.664062 50.101562 65.617188 50.101562 65.550781 C 50.101562 65.480469 50.714844 65.441406 51.71875 65.441406 C 52.632812 65.441406 53.335938 65.484375 53.335938 65.542969 C 53.335938 65.597656 53.726562 65.667969 54.199219 65.699219 C 55.316406 65.769531 56.710938 65.988281 56.84375 66.117188 C 56.902344 66.171875 57.089844 66.214844 57.257812 66.214844 C 57.425781 66.214844 57.59375 66.265625 57.632812 66.328125 C 57.667969 66.390625 57.816406 66.4375 57.953125 66.4375 C 58.09375 66.4375 58.453125 66.5625 58.757812 66.714844 C 59.058594 66.867188 59.363281 66.992188 59.4375 66.992188 C 59.769531 66.992188 62.683594 68.640625 63.203125 69.121094 C 63.320312 69.230469 63.453125 69.324219 63.492188 69.324219 C 63.535156 69.324219 63.6875 69.421875 63.835938 69.546875 C 63.984375 69.667969 64.296875 69.929688 64.53125 70.128906 C 65.871094 71.246094 67.578125 73.207031 68.511719 74.699219 C 69.195312 75.792969 69.960938 77.296875 69.960938 77.546875 C 69.960938 77.660156 70.011719 77.753906 70.070312 77.753906 C 70.132812 77.753906 70.214844 77.953125 70.253906 78.199219 C 70.292969 78.445312 70.367188 78.671875 70.421875 78.703125 C 70.476562 78.738281 70.519531 78.886719 70.519531 79.035156 C 70.519531 79.183594 70.570312 79.304688 70.628906 79.304688 C 70.691406 79.304688 70.742188 79.445312 70.742188 79.617188 C 70.742188 79.785156 70.789062 79.972656 70.851562 80.035156 C 70.910156 80.09375 70.992188 80.503906 71.035156 80.945312 C 71.074219 81.390625 71.152344 81.777344 71.203125 81.808594 C 71.257812 81.84375 71.300781 82.1875 71.300781 82.578125 C 71.300781 82.964844 71.351562 83.316406 71.410156 83.351562 C 71.472656 83.390625 71.523438 83.542969 71.523438 83.691406 C 71.523438 83.960938 71.539062 83.964844 72.527344 83.964844 C 73.078125 83.964844 73.53125 83.917969 73.53125 83.867188 Z M 45.09375 33.496094 C 45.363281 33.496094 45.636719 33.246094 45.636719 33.003906 C 45.636719 32.910156 45.675781 32.832031 45.722656 32.832031 C 45.765625 32.832031 45.871094 32.679688 45.953125 32.496094 C 46.132812 32.09375 46.378906 31.832031 46.582031 31.832031 C 46.722656 31.832031 47.113281 32.183594 47.742188 32.875 C 47.9375 33.089844 48.113281 33.164062 48.429688 33.164062 C 48.667969 33.164062 48.890625 33.214844 48.933594 33.28125 C 48.972656 33.347656 49.140625 33.371094 49.304688 33.332031 C 49.511719 33.289062 49.671875 33.332031 49.824219 33.472656 C 49.945312 33.582031 50.132812 33.707031 50.238281 33.746094 C 50.40625 33.8125 50.414062 33.792969 50.292969 33.601562 C 50.21875 33.484375 50.113281 33.386719 50.058594 33.386719 C 50.003906 33.386719 49.863281 33.277344 49.75 33.148438 C 49.582031 32.953125 49.542969 32.726562 49.542969 31.949219 C 49.542969 30.882812 49.460938 30.722656 48.921875 30.722656 C 48.730469 30.722656 48.417969 30.648438 48.226562 30.550781 C 47.945312 30.414062 47.644531 30.394531 46.585938 30.457031 C 45.875 30.5 45.269531 30.578125 45.234375 30.628906 C 45.203125 30.679688 45.101562 30.722656 45.011719 30.722656 C 44.921875 30.722656 44.710938 30.847656 44.542969 31 C 44.378906 31.152344 44.1875 31.277344 44.117188 31.277344 C 44.050781 31.277344 43.859375 31.410156 43.699219 31.570312 C 43.484375 31.785156 43.40625 31.976562 43.40625 32.285156 C 43.40625 32.515625 43.355469 32.738281 43.292969 32.777344 C 43.230469 32.8125 43.183594 33.066406 43.183594 33.332031 C 43.183594 33.820312 43.183594 33.824219 43.515625 33.757812 C 43.824219 33.695312 43.855469 33.71875 43.921875 34.039062 L 43.992188 34.390625 L 44.433594 33.941406 C 44.675781 33.699219 44.972656 33.496094 45.09375 33.496094 Z M 59.671875 33.738281 C 59.957031 33.773438 59.972656 33.75 59.9375 33.386719 C 59.917969 33.171875 59.855469 32.949219 59.796875 32.890625 C 59.742188 32.835938 59.695312 32.671875 59.695312 32.53125 C 59.695312 32.390625 59.652344 32.1875 59.597656 32.082031 C 59.542969 31.976562 59.441406 31.761719 59.367188 31.605469 C 59.183594 31.210938 58.910156 31.070312 58.164062 30.988281 C 57.808594 30.945312 57.382812 30.816406 57.214844 30.699219 C 56.882812 30.46875 56.101562 30.40625 55.875 30.585938 C 55.34375 31.015625 54.925781 31.144531 54.386719 31.042969 C 54.085938 30.988281 53.785156 30.964844 53.714844 30.988281 C 53.644531 31.015625 53.566406 31.46875 53.527344 32.046875 C 53.464844 33.023438 53.324219 33.386719 53.007812 33.386719 C 52.941406 33.386719 52.890625 33.460938 52.890625 33.550781 C 52.890625 33.773438 52.964844 33.761719 53.242188 33.503906 C 53.40625 33.351562 53.570312 33.304688 53.785156 33.347656 C 53.953125 33.378906 54.125 33.351562 54.164062 33.285156 C 54.207031 33.21875 54.453125 33.164062 54.710938 33.164062 C 55.136719 33.160156 55.226562 33.105469 55.785156 32.496094 C 56.421875 31.800781 56.648438 31.707031 56.929688 32.027344 C 57.117188 32.246094 57.464844 32.921875 57.464844 33.078125 C 57.464844 33.261719 57.777344 33.496094 58.019531 33.496094 C 58.285156 33.496094 58.804688 33.800781 58.804688 33.957031 C 58.804688 34.015625 58.867188 34.128906 58.941406 34.214844 C 59.058594 34.339844 59.105469 34.3125 59.226562 34.035156 C 59.339844 33.765625 59.425781 33.710938 59.671875 33.738281 Z M 49.320312 26.445312 C 49.320312 26.027344 49.402344 25.703125 49.601562 25.328125 C 49.789062 24.972656 49.84375 24.769531 49.765625 24.691406 C 49.703125 24.628906 49.652344 24.148438 49.652344 23.625 C 49.652344 22.851562 49.691406 22.625 49.855469 22.453125 C 50.09375 22.199219 50.273438 21.664062 50.0625 21.832031 C 49.929688 21.9375 49.121094 22.152344 48.453125 22.261719 C 48.253906 22.292969 48.089844 22.363281 48.089844 22.417969 C 48.089844 22.472656 47.941406 22.515625 47.757812 22.515625 C 47.574219 22.515625 47.421875 22.574219 47.421875 22.648438 C 47.421875 22.855469 46.957031 23.292969 46.734375 23.292969 C 46.621094 23.292969 46.527344 23.34375 46.527344 23.402344 C 46.527344 23.464844 46.414062 23.515625 46.273438 23.515625 C 45.925781 23.515625 45.523438 23.816406 45.523438 24.078125 C 45.523438 24.324219 45.171875 24.515625 45.105469 24.308594 C 45.007812 24.019531 44.785156 24.171875 44.25 24.894531 C 44.132812 25.054688 43.921875 25.308594 43.777344 25.464844 C 43.546875 25.710938 43.535156 25.765625 43.675781 25.90625 C 43.859375 26.085938 44.472656 26.121094 44.578125 25.953125 C 44.695312 25.761719 45.359375 25.832031 45.609375 26.066406 C 45.78125 26.222656 46.003906 26.285156 46.375 26.285156 C 46.71875 26.285156 46.976562 26.355469 47.113281 26.476562 C 47.242188 26.589844 47.46875 26.65625 47.679688 26.640625 C 47.917969 26.621094 48.144531 26.699219 48.355469 26.871094 C 48.578125 27.050781 48.777344 27.117188 49 27.085938 C 49.304688 27.039062 49.320312 27.011719 49.320312 26.445312 Z M 54.117188 26.796875 C 54.117188 26.652344 54.042969 26.503906 53.949219 26.46875 C 53.824219 26.421875 53.78125 26.488281 53.78125 26.734375 C 53.78125 26.953125 53.839844 27.0625 53.949219 27.0625 C 54.050781 27.0625 54.117188 26.960938 54.117188 26.796875 Z M 57.488281 26.066406 C 57.769531 25.808594 58.320312 25.78125 58.625 26.007812 C 58.742188 26.097656 58.886719 26.136719 58.953125 26.097656 C 59.015625 26.058594 59.410156 26.035156 59.828125 26.046875 C 60.246094 26.058594 60.675781 26.019531 60.785156 25.960938 C 60.890625 25.902344 61.167969 25.824219 61.398438 25.789062 L 61.816406 25.722656 L 61.816406 24.851562 C 61.816406 24.375 61.753906 23.863281 61.675781 23.714844 C 61.484375 23.34375 61.007812 22.890625 60.71875 22.800781 C 60.585938 22.757812 60.476562 22.675781 60.476562 22.621094 C 60.476562 22.5625 60.417969 22.515625 60.351562 22.515625 C 60.28125 22.515625 60.140625 22.429688 60.042969 22.320312 C 59.941406 22.214844 59.710938 22.050781 59.527344 21.953125 C 59.34375 21.855469 59.078125 21.707031 58.9375 21.621094 C 58.71875 21.484375 58.671875 21.484375 58.570312 21.628906 C 58.421875 21.847656 58.503906 23.101562 58.671875 23.15625 C 58.746094 23.179688 58.804688 23.292969 58.804688 23.40625 C 58.804688 23.519531 58.851562 23.644531 58.914062 23.679688 C 59.15625 23.828125 59.007812 24.265625 58.5625 24.710938 C 58.308594 24.96875 58.058594 25.179688 58.007812 25.179688 C 57.851562 25.179688 56.792969 26.101562 56.792969 26.234375 C 56.792969 26.378906 57.28125 26.257812 57.488281 26.066406 Z M 54.277344 25.675781 C 54.511719 25.464844 54.753906 25.289062 54.820312 25.289062 C 55.085938 25.289062 55.886719 24.820312 56.179688 24.492188 C 56.671875 23.945312 56.597656 23.476562 55.933594 22.847656 C 55.640625 22.570312 55.238281 22.230469 55.039062 22.089844 C 54.835938 21.949219 54.675781 21.785156 54.675781 21.726562 C 54.675781 21.667969 54.570312 21.507812 54.445312 21.375 C 54.179688 21.09375 53.894531 20.550781 53.894531 20.335938 C 53.894531 20.125 53.660156 20.15625 53.335938 20.410156 C 53.183594 20.527344 53.011719 20.625 52.957031 20.628906 C 52.851562 20.628906 51.839844 21.082031 51.308594 21.363281 C 51.148438 21.449219 50.914062 21.519531 50.792969 21.519531 C 50.667969 21.519531 50.542969 21.59375 50.503906 21.683594 C 50.449219 21.824219 50.617188 21.851562 51.617188 21.851562 C 52.769531 21.851562 52.800781 21.855469 53.121094 22.175781 C 53.4375 22.488281 53.445312 22.53125 53.445312 23.59375 C 53.445312 24.320312 53.398438 24.738281 53.308594 24.828125 C 53.21875 24.917969 53.210938 24.992188 53.285156 25.042969 C 53.464844 25.171875 53.78125 25.710938 53.78125 25.894531 C 53.78125 26.125 53.789062 26.121094 54.277344 25.675781 Z M 61.980469 14.800781 C 62.164062 14.664062 62.179688 14.601562 62.0625 14.445312 C 61.613281 13.816406 61.675781 13.492188 62.269531 13.363281 C 62.8125 13.246094 62.636719 13.089844 61.964844 13.089844 C 61.160156 13.089844 60.652344 13.269531 60.160156 13.726562 C 59.851562 14.015625 59.683594 14.085938 59.296875 14.085938 C 59.03125 14.085938 58.785156 14.136719 58.746094 14.195312 C 58.710938 14.257812 58.558594 14.308594 58.414062 14.308594 C 58.265625 14.308594 58.117188 14.257812 58.078125 14.195312 C 58.039062 14.136719 57.6875 14.085938 57.292969 14.085938 C 56.703125 14.085938 56.589844 14.117188 56.644531 14.253906 C 56.679688 14.347656 56.847656 14.417969 57.035156 14.417969 C 57.21875 14.417969 57.464844 14.472656 57.582031 14.535156 C 57.703125 14.597656 58.128906 14.679688 58.527344 14.71875 C 58.929688 14.753906 59.28125 14.828125 59.316406 14.878906 C 59.347656 14.929688 59.910156 14.972656 60.566406 14.96875 C 61.449219 14.96875 61.816406 14.921875 61.980469 14.800781 Z M 24.679688 0.0273438 C 38.28125 0.0117188 60.574219 0.0117188 74.21875 0.0273438 C 87.863281 0.0429688 76.734375 0.0546875 49.484375 0.0546875 C 22.238281 0.0546875 11.074219 0.0429688 24.679688 0.0273438 Z M 24.679688 0.0273438 "/>
</g>
</svg>
