<?xml version="1.0" encoding="UTF-8"?>
<svg xmlns="http://www.w3.org/2000/svg" xmlns:xlink="http://www.w3.org/1999/xlink" width="99px" height="852px" viewBox="0 0 99 103" version="1.1">
<g id="surface1">
<path style=" stroke:none;fill-rule:nonzero;fill:rgb(0%,0%,0%);fill-opacity:1;" d="M 24.371094 102.835938 C 23.96875 102.335938 23.667969 101.523438 23.570312 100.675781 C 23.460938 99.769531 23.46875 99.75 24.101562 99.15625 L 24.738281 98.554688 L 24.695312 96.5625 L 24.648438 94.574219 L 25.453125 92.941406 C 26.65625 90.496094 27.285156 88.230469 27.289062 86.335938 C 27.289062 85.304688 27.363281 85.195312 29.308594 83.394531 C 30.425781 82.359375 30.902344 81.492188 30.902344 80.5 C 30.902344 80.097656 30.605469 78.800781 30.246094 77.621094 C 29.34375 74.691406 29.097656 73.414062 29.097656 71.675781 C 29.097656 70.585938 29.042969 70.214844 28.894531 70.265625 C 28.53125 70.386719 28.410156 71.582031 28.480469 74.410156 C 28.515625 75.945312 28.488281 77.835938 28.417969 78.613281 C 28.292969 79.972656 27.886719 81.382812 27.617188 81.382812 C 27.433594 81.382812 27.289062 80.945312 27.289062 80.394531 C 27.289062 79.679688 26.988281 79.648438 26.878906 80.351562 C 26.664062 81.742188 25.890625 84.074219 25.335938 85.007812 C 23.445312 88.199219 20.027344 90.632812 16.03125 91.636719 C 13.226562 92.339844 12.726562 92.125 14.738281 91.082031 C 15.378906 90.75 16.316406 90.167969 16.820312 89.789062 C 17.746094 89.085938 18.695312 88.011719 18.53125 87.84375 C 18.480469 87.796875 18.082031 87.914062 17.644531 88.109375 C 16.445312 88.644531 14.300781 88.769531 14.300781 88.304688 C 14.300781 88.230469 14.992188 87.824219 15.835938 87.398438 C 17.183594 86.714844 18.601562 85.621094 18.398438 85.417969 C 18.359375 85.378906 17.925781 85.453125 17.429688 85.582031 C 16.308594 85.871094 16.035156 85.871094 15.796875 85.585938 C 15.640625 85.398438 15.828125 85.230469 16.804688 84.695312 C 18.386719 83.816406 19.300781 82.902344 19.667969 81.824219 C 19.917969 81.085938 19.953125 80.445312 19.914062 77.03125 C 19.890625 74.671875 19.941406 72.761719 20.046875 72.273438 C 20.519531 70.089844 21.984375 68.316406 24 67.480469 C 25.253906 66.964844 27.367188 66.453125 28.257812 66.453125 C 29.015625 66.453125 29.550781 66.183594 29.816406 65.664062 C 30.234375 64.863281 32.324219 62.753906 33.492188 61.957031 C 34.9375 60.96875 36.640625 60.289062 38.847656 59.808594 C 39.828125 59.597656 40.652344 59.398438 40.679688 59.371094 C 40.785156 59.25 41.632812 57.148438 41.796875 56.589844 C 41.894531 56.265625 41.929688 55.890625 41.878906 55.753906 C 41.824219 55.617188 41.277344 55.175781 40.660156 54.765625 C 40.039062 54.359375 39.144531 53.675781 38.664062 53.246094 C 38.1875 52.816406 37.769531 52.492188 37.738281 52.523438 C 37.710938 52.558594 37.519531 52.917969 37.316406 53.324219 C 36.894531 54.164062 35.550781 56.011719 34.203125 57.605469 C 33.699219 58.199219 32.9375 59.175781 32.507812 59.777344 L 31.726562 60.871094 L 30.242188 60.871094 C 29.03125 60.871094 28.738281 60.824219 28.65625 60.609375 C 28.601562 60.464844 28.65625 60.289062 28.785156 60.21875 C 30.191406 59.429688 31.414062 58.371094 31.179688 58.140625 C 31.136719 58.09375 30.902344 58.1875 30.660156 58.34375 C 29.585938 59.046875 28.035156 59.800781 26.546875 60.34375 C 24.933594 60.929688 23.160156 60.945312 21.71875 60.378906 C 19.769531 59.617188 19.753906 58.738281 21.6875 58.738281 C 22.894531 58.738281 23.179688 58.582031 23.179688 57.902344 C 23.179688 57.464844 23.152344 57.453125 21.902344 57.347656 C 20.414062 57.222656 15.851562 56.503906 15.613281 56.359375 C 15.523438 56.304688 15.453125 56.117188 15.453125 55.945312 C 15.453125 55.589844 15.539062 55.566406 17.589844 55.292969 C 20.136719 54.953125 20.476562 54.472656 18.164062 54.472656 C 16.949219 54.472656 16.601562 54.425781 16.601562 54.246094 C 16.601562 53.582031 17.503906 53.363281 21.371094 53.082031 C 25.90625 52.753906 27.832031 52.09375 29.757812 50.207031 C 30.867188 49.117188 31.566406 47.871094 32.035156 46.144531 C 32.429688 44.6875 32.464844 44.300781 32.203125 44.300781 C 31.90625 44.300781 30.375 43.023438 29.777344 42.28125 C 29.097656 41.429688 28.925781 41.113281 27.78125 38.558594 C 26.316406 35.292969 25.21875 33.800781 24.28125 33.796875 C 23.992188 33.796875 23.472656 33.75 23.125 33.691406 L 22.496094 33.589844 L 22.546875 34.675781 C 22.578125 35.371094 22.523438 35.832031 22.394531 35.960938 C 22.164062 36.191406 20.773438 36.390625 19.257812 36.410156 C 18.445312 36.421875 17.980469 36.539062 17.121094 36.949219 C 16.230469 37.378906 15.8125 37.476562 14.875 37.488281 C 14.054688 37.5 13.539062 37.601562 13.070312 37.84375 C 12.578125 38.097656 11.980469 38.207031 10.734375 38.273438 C 9.085938 38.359375 9.039062 38.375 8.066406 39.054688 C 7.191406 39.667969 6.933594 39.761719 5.800781 39.875 C 5.011719 39.957031 4.121094 40.179688 3.484375 40.457031 C 2.394531 40.929688 2.179688 40.890625 2.101562 40.207031 C 2.023438 39.554688 2.949219 39.039062 4.101562 39.089844 C 4.941406 39.128906 5.121094 39.070312 5.929688 38.519531 C 7.230469 37.628906 8.492188 37.246094 10.125 37.246094 C 10.875 37.246094 11.527344 37.183594 11.574219 37.105469 C 11.683594 36.929688 9.757812 35.769531 9.363281 35.769531 C 9.203125 35.769531 8.925781 36.015625 8.75 36.316406 C 8.453125 36.820312 8.339844 36.875 7.414062 36.972656 C 6.859375 37.03125 6.21875 37.125 5.996094 37.179688 C 5.707031 37.253906 5.5625 37.203125 5.488281 37.007812 C 5.324219 36.589844 5.648438 36.386719 6.691406 36.242188 C 7.53125 36.128906 7.710938 36.035156 8.21875 35.445312 C 8.980469 34.566406 9.464844 34.570312 10.84375 35.464844 C 12.050781 36.246094 13.316406 36.527344 13.316406 36.011719 C 13.316406 35.851562 13.128906 35.476562 12.902344 35.179688 C 12.460938 34.597656 12.402344 34.367188 12.65625 34.210938 C 12.746094 34.15625 13.835938 34.085938 15.082031 34.054688 C 16.324219 34.023438 17.953125 33.902344 18.703125 33.789062 C 20.261719 33.546875 20.660156 33.6875 20.074219 34.273438 C 19.792969 34.550781 19.601562 34.597656 19.027344 34.519531 C 18.585938 34.457031 17.984375 34.519531 17.429688 34.683594 C 16.941406 34.832031 16.09375 34.949219 15.546875 34.949219 C 14.179688 34.953125 13.976562 35.105469 14.480469 35.746094 C 14.992188 36.386719 15.402344 36.386719 16.5625 35.726562 C 17.476562 35.210938 17.566406 35.195312 19.398438 35.195312 L 21.289062 35.195312 L 21.472656 34.457031 C 21.820312 33.054688 22.367188 33.148438 13.679688 33.101562 C 9.457031 33.082031 4.765625 33.0625 3.253906 33.0625 C 0.378906 33.0625 -0.125 32.949219 0.324219 32.414062 C 0.507812 32.191406 1.699219 32.160156 10.253906 32.15625 L 19.972656 32.152344 L 20.273438 31.496094 C 20.441406 31.136719 20.714844 30.769531 20.878906 30.679688 C 21.296875 30.457031 23.664062 31.03125 24.9375 31.667969 L 25.933594 32.164062 L 36.636719 32.34375 L 36.890625 31.859375 C 37.101562 31.453125 37.382812 31.296875 38.707031 30.867188 C 39.566406 30.585938 40.417969 30.355469 40.59375 30.355469 C 40.769531 30.355469 41.339844 30.246094 41.859375 30.109375 C 42.699219 29.890625 42.84375 29.890625 43.179688 30.113281 C 43.632812 30.410156 43.671875 30.777344 43.273438 30.988281 C 43.117188 31.070312 42.136719 31.34375 41.097656 31.597656 C 40.054688 31.851562 39.136719 32.117188 39.050781 32.191406 C 38.828125 32.378906 40.738281 32.355469 41.421875 32.160156 C 41.734375 32.070312 42.722656 31.84375 43.621094 31.65625 L 45.25 31.3125 L 45.589844 31.648438 C 45.910156 31.96875 45.910156 31.996094 45.636719 32.300781 C 45.480469 32.476562 45.152344 32.652344 44.90625 32.699219 C 44.664062 32.742188 43.851562 32.941406 43.101562 33.140625 C 42.042969 33.417969 41.503906 33.476562 40.714844 33.390625 C 39.378906 33.246094 26.792969 33.105469 26.792969 33.230469 C 26.792969 33.285156 27.117188 33.789062 27.511719 34.34375 C 27.910156 34.902344 28.621094 35.984375 29.097656 36.746094 C 29.574219 37.511719 30.304688 38.546875 30.722656 39.050781 C 31.136719 39.550781 31.625 40.238281 31.804688 40.574219 C 32.074219 41.082031 32.21875 41.183594 32.652344 41.183594 C 33.070312 41.183594 33.300781 41.335938 33.835938 41.964844 L 34.503906 42.742188 L 34.765625 42.375 C 34.914062 42.171875 35.203125 42.003906 35.414062 42.003906 C 35.882812 42.003906 36.097656 41.398438 35.757812 41.023438 C 35.453125 40.6875 35.722656 39.398438 36.265625 38.597656 C 36.480469 38.28125 36.65625 37.957031 36.65625 37.882812 C 36.65625 37.535156 37.992188 37.082031 39.015625 37.082031 C 40.15625 37.082031 40.605469 37.304688 40.984375 38.066406 C 41.09375 38.289062 41.332031 38.5 41.511719 38.535156 C 42.253906 38.671875 42.550781 39.492188 41.917969 39.660156 C 41.632812 39.734375 41.589844 39.882812 41.589844 40.808594 C 41.589844 41.699219 41.539062 41.882812 41.289062 41.949219 C 41.125 41.992188 40.863281 42.242188 40.707031 42.5 C 40.554688 42.761719 40.226562 43.070312 39.980469 43.1875 C 39.734375 43.304688 39.511719 43.5625 39.484375 43.761719 C 39.441406 44.058594 39.550781 44.152344 40.140625 44.308594 C 41.234375 44.601562 41.746094 44.917969 42.945312 46.042969 C 43.554688 46.617188 44.257812 47.128906 44.507812 47.183594 C 45.542969 47.40625 46.042969 47.910156 45.453125 48.132812 C 45.074219 48.28125 45.152344 48.496094 45.8125 49.117188 C 46.347656 49.621094 46.390625 49.722656 46.191406 49.964844 C 46.015625 50.171875 45.808594 50.214844 45.335938 50.140625 C 44.628906 50.027344 44.640625 50.011719 44.917969 50.640625 C 45.335938 51.597656 49.3125 54.910156 49.792969 54.703125 C 49.9375 54.640625 50.816406 54.429688 51.746094 54.234375 C 52.675781 54.035156 53.554688 53.757812 53.699219 53.613281 C 54.046875 53.269531 53.886719 52.667969 53.257812 51.953125 C 52.917969 51.566406 52.765625 51.222656 52.765625 50.832031 C 52.765625 50.441406 52.640625 50.144531 52.363281 49.886719 C 52.0625 49.605469 51.984375 49.398438 52.050781 49.070312 C 52.113281 48.746094 52.023438 48.488281 51.703125 48.113281 C 51.351562 47.691406 51.289062 47.492188 51.375 47.039062 C 51.464844 46.558594 51.414062 46.429688 51.019531 46.121094 C 50.628906 45.808594 50.589844 45.714844 50.761719 45.441406 C 51.03125 45.011719 51.011719 44.445312 50.710938 44.019531 C 50.488281 43.703125 50.488281 43.605469 50.726562 43.105469 C 50.976562 42.589844 50.972656 42.507812 50.71875 42.019531 C 50.46875 41.535156 50.46875 41.453125 50.703125 41.09375 C 50.84375 40.878906 50.957031 40.441406 50.957031 40.117188 C 50.957031 39.386719 51.335938 39.214844 52.929688 39.214844 C 54.050781 39.214844 54.058594 39.210938 54.164062 38.71875 C 54.230469 38.417969 54.445312 38.136719 54.710938 37.996094 C 55.332031 37.679688 55.765625 37.15625 55.699219 36.8125 C 55.597656 36.296875 54.3125 35.539062 53.375 35.445312 C 52.492188 35.355469 52.453125 35.308594 52.675781 34.539062 C 52.84375 33.957031 52.546875 33.78125 51.21875 33.683594 L 49.949219 33.585938 L 49.996094 32.957031 C 50.023438 32.609375 49.960938 32.246094 49.863281 32.148438 C 49.765625 32.054688 49.105469 31.960938 48.390625 31.941406 C 47.179688 31.914062 47.09375 31.890625 47.042969 31.539062 C 46.976562 31.0625 46.425781 30.703125 45.515625 30.550781 C 44.890625 30.445312 44.789062 30.371094 44.742188 29.984375 C 44.699219 29.617188 44.574219 29.507812 44.003906 29.355469 C 42.640625 28.992188 42.527344 28.914062 42.632812 28.394531 C 42.753906 27.773438 42.542969 27.621094 41.34375 27.476562 C 40.023438 27.320312 39.75 27.164062 39.878906 26.652344 C 40.058594 25.941406 39.699219 25.726562 38.550781 25.847656 C 37.734375 25.933594 37.503906 25.90625 37.324219 25.6875 C 37.152344 25.480469 37.144531 25.332031 37.289062 25.007812 C 37.394531 24.78125 37.480469 24.53125 37.480469 24.457031 C 37.480469 24.25 36.535156 23.957031 35.882812 23.957031 C 35.007812 23.957031 34.65625 23.695312 34.71875 23.089844 C 34.78125 22.421875 34.535156 22.300781 31.972656 21.734375 C 29.855469 21.265625 29.324219 21.03125 29.105469 20.453125 C 28.949219 20.046875 27.988281 19.476562 25.5625 18.367188 L 23.917969 17.617188 L 23.835938 16.789062 C 23.757812 15.992188 23.714844 15.929688 22.679688 15.160156 C 22.089844 14.71875 21.296875 14.144531 20.914062 13.886719 C 19.773438 13.105469 16.757812 10.308594 15.640625 8.992188 C 13.722656 6.730469 11.824219 3.511719 11.566406 2.09375 C 11.511719 1.800781 11.363281 1.234375 11.234375 0.839844 C 11.109375 0.445312 11.039062 0.0859375 11.082031 0.0390625 C 11.3125 -0.191406 11.71875 0.273438 12.230469 1.351562 C 12.871094 2.699219 14.695312 5.484375 15.59375 6.480469 C 17.734375 8.863281 22.277344 12.625 25.644531 14.800781 C 26.414062 15.296875 27.707031 16.136719 28.519531 16.667969 C 29.335938 17.199219 30.144531 17.695312 30.324219 17.769531 C 30.503906 17.839844 30.886719 18.082031 31.175781 18.304688 C 31.464844 18.523438 31.746094 18.703125 31.800781 18.703125 C 31.855469 18.703125 33.40625 19.585938 35.25 20.664062 C 37.089844 21.738281 38.957031 22.8125 39.394531 23.042969 C 39.832031 23.277344 40.304688 23.539062 40.4375 23.625 C 40.574219 23.710938 41.351562 24.140625 42.164062 24.582031 C 45.355469 26.308594 45.984375 26.65625 47.097656 27.285156 C 49.742188 28.78125 50.90625 29.414062 52.929688 30.46875 C 55.167969 31.628906 55.75 32.027344 57.101562 33.308594 C 58.460938 34.597656 59.273438 36.003906 59.429688 37.328125 C 59.53125 38.191406 59.277344 38.839844 57.851562 41.347656 C 57.359375 42.210938 57.339844 42.308594 57.429688 43.605469 C 57.511719 44.871094 57.878906 45.941406 58.226562 45.941406 C 58.425781 45.941406 59.5 44.410156 59.503906 44.117188 C 59.503906 43.96875 59.339844 43.738281 59.140625 43.605469 C 58.820312 43.394531 58.800781 43.324219 58.996094 43.09375 C 59.117188 42.945312 59.304688 42.824219 59.414062 42.824219 C 59.519531 42.824219 59.75 42.71875 59.925781 42.59375 C 60.234375 42.367188 60.234375 42.351562 59.9375 42.023438 C 59.511719 41.554688 59.699219 41.234375 60.480469 41.105469 C 61.308594 40.964844 61.460938 40.75 60.914062 40.5 C 60.441406 40.289062 60.347656 39.871094 60.769531 39.871094 C 61.074219 39.871094 62.289062 39.34375 62.296875 39.210938 C 62.300781 39.160156 62.070312 39.035156 61.792969 38.929688 C 61.5 38.820312 61.3125 38.648438 61.351562 38.527344 C 61.449219 38.234375 62.210938 37.882812 62.976562 37.78125 C 63.699219 37.683594 63.726562 37.640625 63.339844 37.214844 C 63.171875 37.027344 63.125 36.851562 63.21875 36.761719 C 63.390625 36.597656 66.496094 36.804688 67.871094 37.074219 C 69.175781 37.328125 70.019531 37.296875 70.136719 36.988281 C 70.191406 36.84375 70.148438 36.441406 70.042969 36.085938 C 69.9375 35.734375 69.871094 35.386719 69.898438 35.320312 C 70.007812 35.035156 70.796875 35.34375 71.664062 36.011719 C 72.9375 36.988281 73.21875 37.019531 73.285156 36.179688 C 73.3125 35.816406 73.398438 35.460938 73.46875 35.386719 C 73.542969 35.3125 73.9375 35.589844 74.34375 36.003906 C 74.953125 36.617188 75.195312 36.753906 75.675781 36.753906 C 76.371094 36.753906 77.082031 37.386719 77.992188 38.804688 C 78.738281 39.96875 79.03125 39.964844 79.5625 38.789062 C 80.023438 37.769531 80.449219 37.28125 80.628906 37.570312 C 80.691406 37.671875 80.792969 38.246094 80.855469 38.851562 L 80.96875 39.953125 L 81.375 39.257812 C 82.082031 38.046875 82.5 38.417969 82.183594 39.976562 C 81.804688 41.859375 81.804688 41.828125 82.132812 41.933594 C 82.914062 42.179688 83.382812 42.484375 84.328125 43.363281 C 85.171875 44.148438 85.3125 44.355469 85.144531 44.554688 C 84.859375 44.898438 84.410156 44.851562 83.476562 44.382812 C 82.109375 43.699219 82.027344 43.777344 82.027344 45.824219 C 82.027344 47.03125 81.988281 47.195312 81.601562 47.597656 C 81.21875 47.996094 81.167969 48.199219 81.09375 49.65625 C 81.023438 51.089844 81.0625 51.441406 81.460938 52.75 C 82.179688 55.105469 82.179688 55.191406 81.378906 55.71875 C 80.878906 56.046875 80.503906 56.164062 79.960938 56.15625 C 79.003906 56.140625 78.792969 55.945312 78.65625 54.964844 C 78.523438 54 78.269531 53.726562 77.820312 54.054688 C 77.574219 54.234375 77.507812 54.488281 77.507812 55.242188 L 77.507812 56.195312 L 76.910156 56.246094 C 76.417969 56.289062 76.246094 56.214844 75.945312 55.835938 C 75.628906 55.4375 75.597656 55.257812 75.691406 54.472656 C 75.75 53.976562 75.84375 53.21875 75.894531 52.789062 C 76.007812 51.847656 75.707031 50.640625 75.183594 49.933594 C 74.78125 49.390625 73.503906 48.789062 73.089844 48.945312 C 72.953125 49 72.769531 49.445312 72.667969 49.992188 C 72.566406 50.515625 72.371094 51.371094 72.234375 51.886719 C 71.957031 52.925781 72.003906 53.097656 72.828125 54.144531 C 73.894531 55.503906 74.046875 56.015625 74.140625 58.53125 C 74.199219 60.078125 74.296875 60.9375 74.433594 61.074219 C 74.71875 61.355469 76.25 60.820312 78.902344 59.507812 C 80.847656 58.546875 81.019531 58.496094 82.109375 58.503906 C 83.957031 58.519531 85.128906 58.894531 90.328125 61.121094 C 92.621094 62.101562 93.898438 62.511719 94.660156 62.515625 C 95.414062 62.519531 98.230469 63.234375 98.554688 63.503906 C 99.125 63.976562 98.5625 64.757812 97.085938 65.535156 C 95.851562 66.183594 95.308594 66.113281 94.265625 65.160156 C 93.515625 64.476562 93.210938 64.320312 92.214844 64.09375 C 91.570312 63.949219 90.808594 63.726562 90.523438 63.601562 C 88.230469 62.601562 85.710938 61.726562 84.574219 61.539062 C 83.492188 61.359375 81.941406 61.589844 80.765625 62.109375 C 79.820312 62.527344 79.070312 63.089844 79.070312 63.375 C 79.070312 63.460938 80.355469 63.503906 82.070312 63.480469 C 85.402344 63.429688 85.386719 63.429688 86.980469 64.632812 C 88.191406 65.546875 89.898438 66.390625 91.003906 66.617188 C 92.21875 66.867188 92.472656 66.996094 93.289062 67.773438 C 93.707031 68.175781 94.410156 68.578125 95.234375 68.894531 C 97.464844 69.75 98.136719 70.546875 97.273438 71.324219 C 96.238281 72.257812 94.132812 72.253906 92.980469 71.308594 C 92.628906 71.015625 92.492188 70.738281 92.425781 70.171875 C 92.378906 69.757812 92.214844 69.304688 92.058594 69.164062 C 91.902344 69.023438 91.078125 68.730469 90.230469 68.515625 C 89.28125 68.273438 88.304688 67.890625 87.699219 67.523438 C 84.957031 65.863281 83.933594 65.644531 80.761719 66.03125 C 79.605469 66.171875 77.359375 66.34375 75.769531 66.414062 L 72.882812 66.542969 L 71.699219 67.152344 C 70.246094 67.902344 69.726562 67.925781 68.984375 67.273438 C 68.675781 67 68.347656 66.78125 68.257812 66.78125 C 68.167969 66.78125 67.617188 67.167969 67.03125 67.640625 C 66.445312 68.113281 65.660156 68.722656 65.28125 68.996094 C 64.90625 69.265625 64.023438 69.917969 63.324219 70.449219 C 62.625 70.976562 61.917969 71.507812 61.746094 71.625 C 61.480469 71.8125 61.453125 71.972656 61.554688 72.757812 C 61.660156 73.613281 61.742188 73.75 62.800781 74.816406 C 63.425781 75.445312 64.238281 76.109375 64.609375 76.300781 C 65.128906 76.566406 65.269531 76.722656 65.230469 77.003906 C 65.144531 77.601562 64.324219 77.554688 62.847656 76.859375 C 60.820312 75.90625 60.160156 75.640625 59.832031 75.640625 C 59.402344 75.640625 59.015625 75.019531 59.011719 74.332031 C 59.007812 73.375 58.835938 73.242188 58 73.550781 C 56.574219 74.078125 54.828125 74.207031 50.78125 74.089844 C 48.648438 74.03125 46.714844 74.027344 46.488281 74.082031 C 46.011719 74.203125 45.699219 74.765625 45.699219 75.492188 C 45.699219 75.976562 45.085938 76.789062 44.71875 76.789062 C 44.625 76.789062 44.109375 76.636719 43.574219 76.453125 C 42.800781 76.183594 42.535156 76.15625 42.300781 76.304688 C 42.132812 76.410156 41.445312 77.199219 40.769531 78.054688 C 39.449219 79.722656 36.070312 83.085938 34.40625 84.394531 C 32.621094 85.792969 31.078125 88.582031 30.464844 91.515625 C 30.253906 92.542969 30.222656 93.339844 30.308594 95.6875 C 30.402344 98.199219 30.480469 98.800781 30.886719 100.199219 C 31.148438 101.085938 31.410156 102.085938 31.46875 102.425781 L 31.578125 103.039062 L 30.296875 103.035156 C 29.140625 103.027344 28.960938 102.984375 28.503906 102.582031 C 28.222656 102.339844 27.871094 101.945312 27.714844 101.707031 C 27.449219 101.289062 27.453125 101.238281 27.882812 100.367188 C 28.320312 99.480469 28.324219 99.445312 28.113281 98.21875 C 27.996094 97.53125 27.839844 96.96875 27.765625 96.96875 C 27.542969 96.96875 27.289062 98.105469 27.109375 99.921875 C 27.015625 100.871094 26.902344 101.960938 26.855469 102.34375 L 26.773438 103.039062 L 25.652344 103.039062 C 24.953125 103.039062 24.472656 102.964844 24.371094 102.835938 Z M 49.292969 53.355469 C 49.050781 53.328125 48.734375 53.175781 48.589844 53.011719 C 48.109375 52.484375 48.621094 52.285156 50.402344 52.304688 C 51.878906 52.320312 52.4375 52.472656 52.4375 52.855469 C 52.4375 53.1875 50.492188 53.496094 49.292969 53.355469 Z M 47.792969 51.179688 C 47.414062 50.957031 47.429688 50.589844 47.824219 50.378906 C 48 50.285156 48.914062 50.207031 49.859375 50.207031 C 51.207031 50.207031 51.621094 50.261719 51.785156 50.460938 C 52.074219 50.808594 51.816406 51.035156 50.929688 51.203125 C 49.945312 51.394531 48.140625 51.378906 47.792969 51.179688 Z M 47.628906 49.070312 C 46.902344 48.925781 46.777344 48.828125 46.898438 48.511719 C 47.019531 48.191406 47.867188 48.070312 49.21875 48.171875 C 50.511719 48.269531 51.003906 48.46875 50.925781 48.867188 C 50.882812 49.09375 50.648438 49.144531 49.558594 49.167969 C 48.835938 49.179688 47.96875 49.136719 47.628906 49.070312 Z M 47.425781 47.289062 C 47.242188 47.257812 46.765625 47.082031 46.363281 46.898438 C 45.660156 46.578125 45.644531 46.550781 45.949219 46.320312 C 46.378906 46.003906 49.625 46.078125 50.03125 46.414062 C 50.433594 46.746094 50.375 47.25 49.929688 47.28125 C 49.101562 47.339844 47.734375 47.34375 47.425781 47.289062 Z M 46.515625 45.125 C 45.054688 44.9375 44.507812 44.480469 45.128906 43.96875 C 45.316406 43.8125 45.867188 43.785156 47.273438 43.855469 C 49.222656 43.949219 49.972656 44.191406 49.972656 44.71875 C 49.972656 45.242188 48.644531 45.398438 46.515625 45.125 Z M 47.378906 42.992188 C 46.574219 42.917969 45.902344 42.769531 45.734375 42.625 C 45.578125 42.492188 45.316406 42.332031 45.152344 42.273438 C 44.6875 42.109375 44.914062 41.773438 45.605469 41.601562 C 46.054688 41.488281 46.664062 41.519531 47.792969 41.710938 C 49.484375 41.996094 50.015625 42.296875 49.707031 42.785156 C 49.496094 43.125 49.179688 43.152344 47.378906 42.992188 Z M 33.960938 40.804688 C 33.695312 40.613281 33.664062 40.441406 33.746094 39.726562 C 33.988281 37.703125 35.097656 35.917969 36.574219 35.191406 C 37.105469 34.929688 37.570312 34.867188 38.957031 34.867188 C 41.433594 34.867188 42.246094 35.355469 41.390625 36.324219 C 41.019531 36.746094 40.996094 36.75 39.921875 36.566406 C 38.226562 36.28125 37.4375 36.46875 36.503906 37.378906 C 35.730469 38.136719 35.378906 38.84375 35.070312 40.28125 C 34.917969 41.007812 34.503906 41.203125 33.960938 40.804688 Z M 46.320312 40.691406 C 46.078125 40.621094 45.648438 40.398438 45.371094 40.199219 C 44.941406 39.894531 44.894531 39.800781 45.070312 39.585938 C 45.242188 39.382812 45.515625 39.355469 46.515625 39.441406 C 47.910156 39.5625 49.222656 39.875 49.5 40.15625 C 49.601562 40.257812 49.644531 40.457031 49.589844 40.597656 C 49.507812 40.804688 49.222656 40.851562 48.128906 40.839844 C 47.378906 40.832031 46.566406 40.765625 46.320312 40.691406 Z M 47.304688 38.796875 C 46.140625 38.511719 44.335938 37.621094 44.472656 37.394531 C 44.65625 37.097656 47.039062 37.332031 47.804688 37.722656 C 48.183594 37.914062 48.828125 38.117188 49.238281 38.175781 C 50.066406 38.289062 50.261719 38.457031 49.964844 38.8125 C 49.71875 39.109375 48.582031 39.105469 47.304688 38.796875 Z M 50.175781 37.582031 C 49.339844 37.445312 48.988281 37.175781 49.277344 36.890625 C 49.515625 36.652344 51.707031 36.28125 52.945312 36.269531 C 53.652344 36.261719 53.933594 36.335938 54.152344 36.578125 C 54.628906 37.101562 54.421875 37.476562 53.585938 37.601562 C 52.664062 37.742188 51.09375 37.730469 50.175781 37.582031 Z M 46.480469 36.171875 C 46.226562 35.910156 46.367188 35.488281 46.765625 35.304688 C 47.515625 34.964844 49.769531 34.457031 50.527344 34.457031 C 51.109375 34.457031 51.316406 34.53125 51.453125 34.789062 C 51.550781 34.96875 51.589844 35.191406 51.535156 35.277344 C 51.238281 35.753906 46.828125 36.535156 46.480469 36.171875 Z M 43.226562 34.53125 C 42.773438 33.984375 43.890625 33.476562 46.828125 32.894531 C 48.191406 32.625 48.210938 32.625 48.550781 32.964844 C 48.894531 33.304688 48.894531 33.308594 48.570312 33.625 C 48.207031 33.980469 45.097656 34.785156 44.078125 34.785156 C 43.699219 34.785156 43.351562 34.679688 43.226562 34.53125 Z M 60.65625 34.277344 C 60.65625 34.175781 60.992188 33.78125 61.398438 33.398438 L 62.140625 32.699219 L 61.277344 31.953125 C 60.800781 31.542969 60.464844 31.15625 60.527344 31.089844 C 60.589844 31.023438 61.144531 31.171875 61.757812 31.414062 C 63 31.914062 64.851562 32.277344 66.820312 32.417969 C 68.078125 32.503906 68.578125 32.675781 68.328125 32.925781 C 68.265625 32.988281 67.34375 33.097656 66.285156 33.164062 C 64.277344 33.296875 62.054688 33.773438 61.4375 34.203125 C 61.015625 34.5 60.65625 34.53125 60.65625 34.277344 Z M 58.285156 32.824219 C 57.878906 32.382812 58.128906 32.292969 59.605469 32.355469 C 60.613281 32.398438 60.738281 32.441406 60.738281 32.734375 C 60.738281 33.023438 60.613281 33.066406 59.660156 33.109375 C 58.75 33.148438 58.535156 33.105469 58.285156 32.824219 Z M 34.621094 30.304688 C 34.367188 30.121094 34.359375 30.0625 34.566406 29.894531 C 34.941406 29.582031 36.585938 29.058594 38.546875 28.625 C 40.664062 28.15625 41.144531 28.128906 41.433594 28.476562 C 41.84375 28.972656 41.140625 29.351562 38.703125 29.957031 C 36.285156 30.550781 35.097656 30.652344 34.621094 30.304688 Z M 31.804688 28.707031 C 31.554688 28.304688 32.546875 27.769531 34.539062 27.246094 C 35.605469 26.964844 36.957031 26.6875 37.550781 26.632812 C 38.480469 26.546875 38.636719 26.570312 38.734375 26.824219 C 38.953125 27.390625 38.542969 27.628906 36.398438 28.179688 C 33.925781 28.816406 32.007812 29.035156 31.804688 28.707031 Z M 29.425781 26.613281 C 28.386719 26.257812 27.207031 25.535156 27.207031 25.257812 C 27.207031 25.078125 27.425781 25.027344 28.109375 25.042969 C 28.605469 25.054688 29.90625 25.085938 30.992188 25.109375 C 32.097656 25.132812 33.570312 25.058594 34.324219 24.933594 C 35.382812 24.761719 35.71875 24.757812 35.875 24.914062 C 36.214844 25.253906 35.800781 25.648438 34.667969 26.0625 C 32.21875 26.957031 30.84375 27.101562 29.425781 26.613281 Z M 28.027344 23.699219 C 25.289062 23.261719 22.980469 21.972656 23.765625 21.320312 C 23.96875 21.152344 24.308594 21.183594 25.609375 21.492188 C 26.488281 21.699219 27.574219 21.925781 28.027344 21.996094 C 28.480469 22.066406 29.507812 22.238281 30.308594 22.382812 C 31.113281 22.527344 32.082031 22.644531 32.46875 22.644531 C 33.289062 22.644531 33.644531 22.949219 33.386719 23.433594 C 33.292969 23.609375 33.09375 23.796875 32.949219 23.855469 C 32.511719 24.023438 29.433594 23.925781 28.027344 23.699219 Z M 25.117188 20.609375 C 24.785156 20.488281 24.292969 20.347656 24.03125 20.292969 C 22.558594 20 19.398438 17.667969 19.398438 16.875 C 19.398438 16.445312 19.703125 16.542969 21.671875 17.597656 C 22.519531 18.050781 23.886719 18.65625 24.714844 18.945312 C 26.605469 19.605469 27.371094 20.035156 27.371094 20.441406 C 27.371094 20.703125 27.234375 20.761719 26.546875 20.792969 C 26.097656 20.8125 25.453125 20.730469 25.117188 20.609375 Z M 21.125 16.222656 C 20.671875 16.042969 20.230469 15.824219 20.144531 15.738281 C 20.058594 15.65625 19.894531 15.585938 19.78125 15.585938 C 19.46875 15.585938 17.742188 14.363281 17.058594 13.660156 C 16.480469 13.066406 15.289062 11.058594 15.289062 10.683594 C 15.289062 10.308594 15.71875 10.527344 16.425781 11.257812 C 17.46875 12.335938 19.484375 14.039062 21.035156 15.152344 C 22.246094 16.019531 22.535156 16.390625 22.097656 16.511719 C 22.015625 16.535156 21.574219 16.40625 21.125 16.222656 Z M 22.9375 11.824219 C 22.828125 11.644531 23.085938 11.449219 23.238281 11.597656 C 23.394531 11.753906 23.363281 11.976562 23.1875 11.976562 C 23.101562 11.976562 22.992188 11.910156 22.9375 11.824219 Z M 21.628906 10.746094 C 21.28125 10.429688 20.925781 10.171875 20.839844 10.171875 C 20.75 10.171875 19.664062 9.15625 18.421875 7.917969 C 15.925781 5.421875 15.285156 4.46875 14.460938 2.035156 C 13.855469 0.246094 13.84375 0 14.382812 0 C 14.726562 0 14.878906 0.183594 15.355469 1.191406 C 15.667969 1.84375 16.335938 3.03125 16.839844 3.832031 C 17.339844 4.632812 17.753906 5.351562 17.753906 5.433594 C 17.753906 5.511719 17.816406 5.578125 17.890625 5.578125 C 17.964844 5.578125 18.253906 5.929688 18.535156 6.359375 C 19.152344 7.304688 20.300781 8.6875 21.292969 9.679688 C 21.699219 10.085938 22.027344 10.503906 22.027344 10.605469 C 22.027344 10.707031 22.175781 10.828125 22.355469 10.875 C 22.535156 10.925781 22.683594 11.042969 22.683594 11.140625 C 22.683594 11.480469 22.253906 11.320312 21.628906 10.746094 Z M 21.628906 10.746094 "/>
</g>
</svg>
