<?xml version="1.0" encoding="UTF-8"?>
<svg xmlns="http://www.w3.org/2000/svg" xmlns:xlink="http://www.w3.org/1999/xlink" width="99px" height="277px" viewBox="0 0 99 57" version="1.1">
<g id="surface1">
<path style=" stroke:none;fill-rule:nonzero;fill:rgb(0%,0%,0%);fill-opacity:1;" d="M 46.03125 56.175781 C 45.914062 55.988281 45.855469 54.511719 45.902344 52.898438 L 45.988281 49.964844 L 44.925781 49.464844 C 44.066406 49.0625 43.851562 48.8125 43.816406 48.148438 C 43.792969 47.695312 43.761719 47.121094 43.75 46.867188 C 43.730469 46.550781 43.4375 46.375 42.824219 46.316406 C 41.960938 46.234375 41.921875 46.175781 41.839844 44.929688 C 41.792969 44.175781 41.617188 43.609375 41.425781 43.585938 C 41.242188 43.5625 40.660156 43.515625 40.125 43.480469 C 37.222656 43.289062 34.589844 42.429688 34.589844 41.671875 C 34.589844 41.539062 34.367188 41.429688 34.09375 41.429688 C 33.414062 41.429688 32.929688 40.898438 32.929688 40.144531 C 32.929688 39.789062 32.644531 39.335938 32.265625 39.089844 C 31.898438 38.851562 31.523438 38.355469 31.429688 37.984375 L 31.261719 37.3125 L 25.695312 37.3125 C 19.386719 37.3125 18.386719 37.132812 17.519531 35.820312 C 17 35.03125 16.636719 34.855469 14.507812 34.335938 C 11.933594 33.714844 11.222656 33.289062 10.949219 32.21875 C 10.8125 31.671875 10.609375 31.550781 9.808594 31.550781 C 8.519531 31.550781 6.683594 30.601562 6.363281 29.765625 C 6.082031 29.035156 4.527344 28.261719 3.339844 28.261719 C 2.625 28.261719 0.957031 27.253906 0.503906 26.546875 C 0.382812 26.355469 0.285156 25.871094 0.28125 25.464844 C 0.273438 23.917969 -0.210938 23.957031 19.414062 24.035156 C 29.335938 24.078125 37.960938 24.195312 38.582031 24.296875 C 39.804688 24.496094 41.238281 25.175781 41.59375 25.722656 C 41.910156 26.214844 42.214844 26.152344 43.457031 25.339844 C 44.347656 24.753906 44.527344 24.5 44.378906 24.035156 C 44.277344 23.71875 44.15625 22.988281 44.117188 22.410156 C 44.074219 21.835938 43.835938 21.054688 43.585938 20.679688 C 43.339844 20.304688 43.1875 19.847656 43.25 19.667969 C 43.316406 19.488281 43.125 18.996094 42.824219 18.574219 C 41.960938 17.351562 41.992188 16.140625 42.933594 14.414062 C 43.390625 13.578125 43.863281 12.894531 43.984375 12.894531 C 44.449219 12.894531 44.542969 10.414062 44.121094 9.1875 C 43.890625 8.507812 43.691406 7.617188 43.679688 7.203125 C 43.65625 6.359375 44.242188 4.679688 44.789062 4.027344 C 45.058594 3.707031 45.070312 3.460938 44.839844 3.035156 C 44.445312 2.304688 44.910156 1.371094 45.671875 1.371094 C 45.96875 1.371094 46.214844 1.1875 46.214844 0.960938 C 46.214844 0.734375 46.402344 0.546875 46.628906 0.546875 C 46.855469 0.546875 47.042969 0.726562 47.042969 0.945312 C 47.042969 1.164062 47.386719 1.507812 47.804688 1.710938 C 48.5625 2.074219 48.71875 2.65625 48.308594 3.601562 C 48.023438 4.269531 50.605469 4.515625 52.507812 4.003906 C 53.308594 3.792969 53.976562 3.667969 53.996094 3.730469 C 54.015625 3.789062 54.050781 3.996094 54.078125 4.183594 C 54.105469 4.371094 54.308594 4.484375 54.527344 4.4375 C 55.375 4.242188 55.453125 4.265625 55.558594 4.734375 C 55.632812 5.070312 55.492188 5.214844 55.089844 5.214844 C 54.773438 5.214844 54.515625 5.378906 54.515625 5.582031 C 54.515625 5.785156 54.234375 6.082031 53.894531 6.238281 C 53.289062 6.519531 53.289062 6.53125 53.824219 6.707031 C 55.40625 7.226562 55.761719 7.558594 55.847656 8.601562 C 55.945312 9.742188 55.523438 10.476562 54.910156 10.242188 C 54.695312 10.160156 54.515625 10.214844 54.515625 10.367188 C 54.515625 10.519531 54.695312 10.710938 54.910156 10.792969 C 55.210938 10.90625 55.28125 11.347656 55.199219 12.632812 C 55.121094 13.859375 55.210938 14.503906 55.53125 14.988281 C 56.109375 15.859375 56.101562 17.703125 55.523438 18.339844 C 55.273438 18.613281 55.070312 19.046875 55.070312 19.304688 C 55.070312 19.5625 54.863281 20.085938 54.613281 20.464844 C 54.324219 20.898438 54.148438 21.777344 54.128906 22.855469 C 54.101562 24.433594 54.164062 24.609375 54.96875 25.308594 C 55.910156 26.128906 57.128906 26.308594 57.378906 25.660156 C 57.464844 25.4375 58.097656 24.992188 58.78125 24.675781 C 60.011719 24.101562 60.304688 24.09375 78.953125 24.050781 C 99.402344 24.003906 98.792969 23.960938 98.792969 25.445312 C 98.792969 26.335938 96.882812 28.257812 95.988281 28.265625 C 94.832031 28.269531 93.222656 28.980469 92.890625 29.632812 C 92.335938 30.714844 91.171875 31.359375 89.535156 31.496094 C 88.328125 31.59375 88 31.71875 88 32.082031 C 88 32.339844 87.652344 32.875 87.230469 33.277344 C 86.628906 33.851562 86 34.074219 84.296875 34.328125 C 82.242188 34.628906 82.109375 34.691406 81.761719 35.515625 C 81.148438 36.976562 80.464844 37.125 73.816406 37.253906 L 67.792969 37.375 L 67.625 38.097656 C 67.53125 38.496094 67.15625 39.105469 66.796875 39.453125 C 66.433594 39.796875 66.136719 40.261719 66.136719 40.484375 C 66.136719 40.710938 65.796875 41.039062 65.378906 41.214844 C 64.957031 41.394531 64.355469 41.84375 64.039062 42.214844 C 63.589844 42.742188 63.148438 42.90625 62.003906 42.976562 C 61.199219 43.023438 60.375 43.199219 60.171875 43.363281 C 59.96875 43.53125 59.453125 43.644531 59.027344 43.617188 C 57.375 43.507812 57.316406 43.546875 57.230469 44.929688 C 57.148438 46.175781 57.109375 46.234375 56.246094 46.316406 C 55.539062 46.382812 55.339844 46.53125 55.320312 47.003906 C 55.222656 49.320312 55.253906 49.246094 54.308594 49.335938 L 53.410156 49.421875 L 53.410156 56.519531 L 49.828125 56.519531 C 47.261719 56.519531 46.183594 56.421875 46.03125 56.175781 Z M 45.328125 16.40625 C 45.761719 15.976562 45.746094 15.730469 45.277344 15.550781 C 44.800781 15.371094 43.65625 16.128906 43.875 16.480469 C 44.097656 16.839844 44.933594 16.796875 45.328125 16.40625 Z M 54.15625 16.304688 C 54.277344 15.9375 52.929688 15.296875 52.726562 15.625 C 52.644531 15.757812 52.65625 16.066406 52.75 16.316406 C 52.941406 16.804688 53.992188 16.796875 54.15625 16.304688 Z M 47.820312 13.707031 C 48.542969 13.042969 48.539062 13.082031 48.003906 12.058594 C 47.5 11.089844 47.398438 11.074219 46.730469 11.839844 C 46.140625 12.515625 46.058594 13.453125 46.546875 13.9375 C 46.992188 14.382812 47.117188 14.359375 47.820312 13.707031 Z M 52.855469 13.445312 C 52.855469 13.292969 52.738281 13.167969 52.59375 13.167969 C 52.453125 13.167969 52.257812 13.292969 52.164062 13.445312 C 52.070312 13.59375 52.1875 13.71875 52.425781 13.71875 C 52.660156 13.71875 52.855469 13.59375 52.855469 13.445312 Z M 50.640625 12.191406 C 50.640625 11.976562 50.515625 11.796875 50.363281 11.796875 C 50.210938 11.796875 50.089844 12.050781 50.089844 12.363281 C 50.089844 12.671875 50.210938 12.851562 50.363281 12.757812 C 50.515625 12.664062 50.640625 12.410156 50.640625 12.191406 Z M 53.652344 7.707031 C 54.183594 7.375 53.449219 7.175781 51.332031 7.085938 C 50.421875 7.042969 49.585938 6.886719 49.476562 6.730469 C 49.34375 6.542969 49.183594 6.550781 48.980469 6.75 C 48.472656 7.253906 49.28125 7.644531 51.066406 7.753906 C 51.972656 7.808594 52.839844 7.875 52.992188 7.902344 C 53.144531 7.925781 53.441406 7.839844 53.652344 7.707031 Z M 51.625 5.617188 C 51.023438 5.164062 49.8125 5.070312 49.8125 5.480469 C 49.8125 5.625 49.984375 5.679688 50.199219 5.597656 C 50.410156 5.515625 50.667969 5.582031 50.769531 5.742188 C 50.867188 5.902344 51.222656 6.03125 51.558594 6.027344 C 52.148438 6.019531 52.152344 6.007812 51.625 5.617188 Z M 51.625 5.617188 "/>
</g>
</svg>
