<?xml version="1.0" encoding="UTF-8"?>
<svg xmlns="http://www.w3.org/2000/svg" xmlns:xlink="http://www.w3.org/1999/xlink" width="99px" height="99px" viewBox="0 0 99 99" version="1.1">
<g id="surface1">
<path style="fill-rule:nonzero;fill:rgb(100%,100%,100%);fill-opacity:1;stroke-width:30;stroke-linecap:butt;stroke-linejoin:miter;stroke:rgb(100%,100%,100%);stroke-opacity:1;stroke-miterlimit:4;" d="M 271.995462 143.5 C 271.995462 72.531368 214.468632 15.004538 143.5 15.004538 C 72.531368 15.004538 15.004538 72.531368 15.004538 143.5 C 15.004538 214.468632 72.531368 271.995462 143.5 271.995462 C 214.468632 271.995462 271.995462 214.468632 271.995462 143.5 Z M 271.995462 143.5 " transform="matrix(0.344948,0,0,0.344948,0,0)"/>
<path style="fill:none;stroke-width:9;stroke-linecap:butt;stroke-linejoin:miter;stroke:rgb(0%,0%,0%);stroke-opacity:1;stroke-miterlimit:4;" d="M 271.995462 143.5 C 271.995462 72.531368 214.468632 15.004538 143.5 15.004538 C 72.531368 15.004538 15.004538 72.531368 15.004538 143.5 C 15.004538 214.468632 72.531368 271.995462 143.5 271.995462 C 214.468632 271.995462 271.995462 214.468632 271.995462 143.5 Z M 271.995462 143.5 " transform="matrix(0.344948,0,0,0.344948,0,0)"/>
<path style="fill-rule:nonzero;fill:rgb(0%,0%,0%);fill-opacity:1;stroke-width:4;stroke-linecap:butt;stroke-linejoin:miter;stroke:rgb(100%,100%,100%);stroke-opacity:1;stroke-miterlimit:4;" d="M 201.502446 41.605035 L 164.596946 55.545099 L 143.601918 177.246054 L 179.601484 164.551649 L 165.197128 245.847932 L 203.099156 231.749329 L 224.196102 109.946457 L 188.196536 122.652186 L 201.604364 41.650331 Z M 121.100773 41.605035 L 84.195273 55.545099 L 63.200245 177.246054 L 99.199811 164.551649 L 84.795455 245.847932 L 122.697483 231.749329 L 143.794429 109.946457 L 107.794863 122.652186 L 121.202691 41.650331 Z M 121.100773 41.605035 " transform="matrix(0.344948,0,0,0.344948,0,0)"/>
</g>
</svg>
