<?xml version="1.0" encoding="UTF-8" standalone="no"?>
<svg version="1.1" id="svg1" width="790.66669" height="1082.6667" viewBox="0 0 790.66669 1082.6667" xmlns="http://www.w3.org/2000/svg" xmlns:svg="http://www.w3.org/2000/svg">
  <defs id="defs1" />
  <g id="g0">
    <path id="path1" style="fill:#CB5D00" d="m 247.06766,1081.6902 c -1.98875,-1.5644 -5.48523,-2.7043 -8.29502,-2.7043 -3.2938,0 -5.61875,-0.9187 -7.22335,-2.8545 -4.85113,-5.8523 -18.71947,-19.0182 -22.30986,-21.1799 -2.04507,-1.2313 -3.71831,-2.9794 -3.71831,-3.8847 0,-0.9052 -5.16527,-6.3732 -11.47838,-12.151 -11.12395,-10.1808 -13.75377,-14.2874 -13.96125,-21.8016 -0.0464,-1.6802 -1.36087,-4.8476 -2.92107,-7.0387 -2.58866,-3.6355 -2.81977,-5.674 -2.64276,-23.31134 0.17619,-17.55578 0.46458,-19.69935 3.146,-23.38385 2.64163,-3.62984 2.99603,-6.04667 3.37057,-22.98591 0.2302,-10.41127 0.71502,-21.66761 1.07738,-25.01409 0.36235,-3.34648 0.59765,-6.99718 0.52288,-8.11268 -0.69328,-10.34262 -1.97368,-17.66246 -3.78056,-21.61287 -4.12683,-9.0225 -4.31619,-12.72628 -0.9369,-18.32553 1.71705,-2.84504 2.70293,-5.82277 2.19085,-6.6172 -3.07006,-4.76274 -4.57766,-12.9646 -5.27246,-28.684 -0.66895,-15.13461 -0.41934,-18.79349 1.68048,-24.63289 2.66453,-7.40982 2.79744,-6.72402 -3.90201,-20.13368 -2.91161,-5.8279 -2.92228,-5.97411 -2.44254,-33.45862 0.30491,-17.46791 -0.82967,-81.53622 -1.46364,-82.6506 -0.36935,-0.64921 -0.17776,-4.83109 0.42575,-9.29306 0.60351,-4.46198 1.3479,-18.85691 1.6542,-31.98876 0.50069,-21.46559 0.84879,-24.34834 3.448,-28.55396 3.60175,-5.82775 3.61304,-5.62078 -0.60831,-11.15525 -3.19208,-4.18503 -3.46371,-5.52979 -3.09303,-15.31245 0.22921,-6.04893 -0.20955,-11.52528 -1.00638,-12.56127 -3.06883,-3.98989 -4.53138,-10.48229 -4.99262,-22.16264 -0.32822,-8.31182 -1.18329,-13.28307 -2.67675,-15.56239 -1.42477,-2.17447 -1.77345,-4.03041 -0.99411,-5.29141 0.69936,-1.13158 0.69848,-2.88001 -0.002,-4.18906 -1.66182,-3.10513 -1.75838,-10.44921 -0.21594,-16.42273 0.71048,-2.7515 1.01284,-5.28167 0.67192,-5.62259 -0.34091,-0.34091 -0.78327,-1.43617 -0.983,-2.43389 -0.19974,-0.99772 -0.83004,-3.49344 -1.40068,-5.54605 -0.82986,-2.98505 -0.27007,-4.73821 2.79678,-8.75906 3.66926,-4.81065 4.87482,-7.54931 4.61984,-10.49484 -0.0644,-0.74366 -0.32279,-4.87065 -0.57426,-9.17108 -0.25147,-4.30043 -0.81864,-8.18039 -1.26038,-8.62213 -0.44174,-0.44174 0.11012,-2.56924 1.22634,-4.72778 1.11623,-2.15854 1.7087,-4.44369 1.31661,-5.0781 -0.39209,-0.63442 0.40294,-2.59401 1.76673,-4.35466 1.36379,-1.76065 2.86633,-4.7872 3.33897,-6.72568 0.93289,-3.82606 24.81983,-25.86261 32.34424,-29.8387 2.41553,-1.27642 8.95069,-6.93807 14.52259,-12.58143 5.57189,-5.64336 11.77058,-10.69616 13.77486,-11.22844 2.00428,-0.53228 10.68525,-7.50862 19.29106,-15.50299 8.6058,-7.99436 16.59452,-14.53521 17.7527,-14.53521 2.46074,0 10.91161,-6.45902 18.73198,-14.3169 15.58365,-15.65838 34.6579,-37.18295 33.95622,-38.31829 -0.43854,-0.70957 1.95446,-4.38851 5.31777,-8.17542 5.78058,-6.50863 6.11511,-7.32095 6.11511,-14.84909 0,-6.39212 0.6306,-8.7181 3.19527,-11.78586 4.21571,-5.04265 5.39994,-9.18271 3.59263,-12.55971 -1.0658,-1.99146 -1.06367,-3.52311 0.008,-5.52497 1.24462,-2.32559 0.79994,-3.54683 -2.77336,-7.6166 -3.62876,-4.13292 -4.1261,-5.53753 -3.37615,-9.53506 0.64563,-3.44153 0.26855,-5.36323 -1.41808,-7.22693 -1.26366,-1.39634 -2.47441,-4.14983 -2.69056,-6.11887 -0.49246,-4.48624 -8.29396,-12.7047 -12.06013,-12.7047 -1.64757,0 -5.90073,-3.15465 -10.21364,-7.57564 -4.06473,-4.16661 -9.83285,-8.64686 -12.81803,-9.95611 -2.98518,-1.30926 -6.25405,-3.37627 -7.26415,-4.59337 -1.0101,-1.2171 -3.41222,-2.21291 -5.33804,-2.21291 -1.99073,0 -7.73951,-2.91693 -13.32392,-6.76056 -5.40234,-3.71831 -10.36306,-6.76056 -11.02384,-6.76056 -0.66078,0 -2.83017,-1.28118 -4.82087,-2.84707 -2.11799,-1.666 -4.73247,-2.556 -6.30248,-2.14544 -1.65482,0.43275 -4.16912,-0.54884 -6.56089,-2.56138 -2.13283,-1.79466 -5.077,-3.26302 -6.5426,-3.26302 -1.46559,0 -4.21176,-1.2169 -6.10259,-2.70422 -1.89082,-1.48733 -4.68973,-2.70423 -6.2198,-2.70423 -1.53006,0 -4.8609,-1.82535 -7.40185,-4.05634 -2.54095,-2.23098 -5.19409,-4.05633 -5.89586,-4.05633 -0.70177,0 -2.70498,-1.52113 -4.45156,-3.38029 -2.222,-2.3652 -4.62745,-3.38931 -8.01034,-3.41034 -2.70429,-0.0168 -6.32427,-1.1952 -8.21501,-2.67416 -1.85916,-1.45425 -3.83468,-2.65763 -4.39005,-2.67416 -0.55536,-0.0165 -4.02943,-2.92021 -7.72014,-6.4526 -3.69071,-3.5324 -8.45939,-7.95462 -10.59706,-9.82716 -3.79889,-3.32773 -3.89325,-3.7415 -4.17825,-18.320985 -0.26443,-13.527476 -0.0335,-15.149913 2.48006,-17.424657 1.5244,-1.379563 2.77163,-3.850213 2.77163,-5.490334 0,-1.640121 1.46021,-5.133778 3.24492,-7.763683 1.7847,-2.629905 3.66282,-6.098381 4.17361,-7.707725 0.51079,-1.609344 2.54917,-3.615092 4.52974,-4.457217 1.98056,-0.842126 4.73121,-2.478276 6.11255,-3.635889 1.38133,-1.157612 4.42359,-2.218242 6.76056,-2.356955 7.17108,-0.425643 12.87486,-1.978627 14.51196,-3.951214 0.85864,-1.034599 2.37232,-1.881088 3.36373,-1.881088 0.99141,0 4.04407,-1.521127 6.78368,-3.380282 3.9364,-2.67131 6.67305,-3.380282 13.04796,-3.380282 6.63817,0 8.78037,-0.600395 12.09572,-3.390081 l 4.02888,-3.390081 25.23673,0.675521 c 22.17803,0.593648 60.73797,1.82863 66.47616,2.129071 1.11549,0.05841 9.6338,-0.29229 18.92957,-0.779323 l 16.90141,-0.885514 6.31171,4.825685 c 6.27106,4.794609 6.34386,4.812252 11.30414,2.739716 4.81046,-2.00994 5.17444,-1.959831 9.98632,1.3748 5.37611,3.725645 9.50443,4.320482 13.84883,1.995431 2.00796,-1.074627 3.812,-1.020477 6.76594,0.203085 2.21536,0.917632 5.96297,1.611871 8.32803,1.542752 2.88488,-0.08431 5.48651,1.008835 7.90498,3.321492 2.62497,2.510127 5.30125,3.538539 9.84549,3.78332 4.03451,0.217324 7.30098,1.310005 9.24019,3.090978 2.08755,1.917212 3.8218,2.44395 5.70381,1.732395 4.7935,-1.812346 24.2943,2.144119 28.94361,5.872294 1.04575,0.838561 4.08801,1.620013 6.76057,1.736558 7.90115,0.344556 12.3741,1.467992 14.88228,3.737868 1.29738,1.174106 3.70421,2.134738 5.34851,2.134738 1.64431,0 5.24711,1.143987 8.00621,2.542194 2.75911,1.398206 7.75459,2.977804 11.10107,3.510216 3.34648,0.532412 7.43211,1.822228 9.07919,2.866257 1.64707,1.044029 3.77665,1.909307 4.73239,1.92284 0.95574,0.01353 4.40285,1.830595 7.66023,4.037916 4.0205,2.724439 6.90609,3.766451 8.98517,3.244632 2.12142,-0.532441 4.8307,0.512079 8.81557,3.398704 3.1641,2.292061 6.4476,4.167383 7.29668,4.167383 0.84908,0 4.19769,2.704133 7.44135,6.009185 4.78573,4.876306 6.56528,5.875642 9.43935,5.300828 2.49926,-0.499852 4.29081,0.119312 6.08647,2.103491 1.39958,1.546517 3.74675,2.811848 5.21593,2.811848 3.16917,0 29.69131,26.933712 28.80263,29.249592 -0.74111,1.93131 5.62989,7.99993 9.68447,9.22483 1.67324,0.5055 3.13493,1.63864 3.2482,2.5181 0.11327,0.87947 0.27517,2.25973 0.35979,3.06724 0.0846,0.80752 3.96384,5.67513 8.62052,10.8169 4.65668,5.14178 8.81868,10.96542 9.2489,12.94142 0.43022,1.97601 3.75972,6.44626 7.39888,9.93391 3.63917,3.48765 6.61667,7.0755 6.61667,7.97302 0,0.89751 2.14364,3.70954 4.76365,6.24895 2.62,2.53941 4.49126,5.32694 4.15834,6.1945 -0.33292,0.86757 1.20709,3.31378 3.42223,5.43603 2.37084,2.2714 3.77967,4.80648 3.42495,6.16292 -0.33142,1.26736 0.48806,3.29132 1.82107,4.49768 1.33301,1.20635 2.79745,4.18587 3.25431,6.62114 0.45686,2.43527 2.37951,5.88283 4.27255,7.66126 3.24799,3.05133 3.44034,3.99665 3.41429,16.77962 -0.0152,7.45037 0.006,15.06726 0.048,16.92641 0.0416,1.85916 -0.0538,13.1155 -0.21207,25.01409 -0.26095,19.62295 -0.58726,22.27432 -3.51061,28.52483 -1.77261,3.79007 -3.22292,7.51083 -3.22292,8.26836 0,0.75754 -1.34401,3.08597 -2.98669,5.1743 -2.37654,3.02128 -2.94264,5.38654 -2.77103,11.57789 0.16934,6.10977 -0.40293,8.56733 -2.66451,11.44246 -1.5841,2.01385 -2.94187,5.07096 -3.01728,6.79358 -0.0754,1.72261 -1.63941,4.73364 -3.47556,6.69117 -1.83615,1.95752 -3.17002,4.59507 -2.96417,5.86121 0.20585,1.26614 -1.46739,4.0665 -3.71831,6.22302 -2.35155,2.25293 -4.09259,5.31532 -4.09259,7.19865 0,1.8166 -2.32248,6.07361 -5.21006,9.54984 -2.86554,3.44969 -4.95019,7.01538 -4.63257,7.92376 1.11498,3.18874 -8.21713,18.64053 -14.99073,24.82117 -6.6844,6.09924 -6.7587,6.25471 -5.00848,10.4801 1.26809,3.06145 1.36462,4.78538 0.33725,6.02328 -0.91229,1.09924 -0.98012,2.46029 -0.18525,3.71708 2.04413,3.232 1.48083,7.467 -1.49666,11.25227 -1.65121,2.09917 -3.00188,6.17932 -3.30543,9.98516 -0.88351,11.07702 -1.69742,15.24044 -3.37437,17.26106 -2.47,2.97616 -2.72261,21.11071 -0.33295,23.9018 1.07205,1.25213 2.12823,3.99016 2.34707,6.0845 1.77881,17.02364 2.77007,21.76487 5.25641,25.14142 2.39121,3.24738 2.55111,4.32479 1.18068,7.95547 -0.94566,2.50534 -1.1174,5.081 -0.42573,6.38478 0.63766,1.20196 1.22783,7.11565 1.3115,13.14153 0.12866,9.26655 0.77278,12.19818 4.1768,19.01023 4.29382,8.5927 8.36235,13.12395 13.0601,14.54542 4.47194,1.35314 5.33655,10.03124 4.2542,42.69947 -0.0616,1.85916 -0.0248,4.90141 0.0817,6.76057 1.36098,23.74913 1.38206,28.15355 0.14917,31.16801 -1.04419,2.55308 -0.87892,5.49213 0.63585,11.30772 1.24346,4.77397 1.59304,8.72671 0.89072,10.07142 -0.63581,1.21738 -0.86585,4.121 -0.51118,6.4525 0.35466,2.3315 -0.05,5.53741 -0.89924,7.12424 -1.23061,2.2994 -1.074,3.68094 0.77141,6.80497 2.18832,3.70453 2.18619,4.25844 -0.0389,10.08477 -1.87584,4.91183 -2.19091,8.57595 -1.55004,18.02636 1.91416,28.22653 1.23614,66.35189 -1.2474,70.14226 -1.074,1.63913 -2.56208,7.75424 -3.30685,13.58914 -1.23126,9.6464 -1.11349,10.94127 1.29809,14.27245 3.28851,4.5425 3.29902,5.47281 0.0947,8.37272 -2.88649,2.61225 -2.44388,6.4626 1.30112,11.31838 2.17393,2.81874 2.3796,8.11448 2.4861,64.0113 0.0639,33.51609 0.43183,61.44921 0.81773,62.07362 0.38591,0.6244 -0.32612,3.29052 -1.58228,5.92472 -1.85727,3.8947 -1.98775,5.4395 -0.69847,8.2692 0.98747,2.1672 1.58547,11.1308 1.58547,23.7649 0,22.6616 -1.3066,27.541 -7.79924,29.1262 -2.03155,0.496 -5.14479,2.026 -6.91832,3.3999 -1.77353,1.3739 -4.11136,2.498 -5.19518,2.498 -1.08382,0 -3.55331,1.245 -5.48775,2.7666 -2.60391,2.0483 -5.46796,2.757 -11.03017,2.7295 -4.13215,-0.02 -12.68483,0.014 -19.00596,0.078 -14.62656,0.146 -16.43762,-0.01 -18.32907,-1.5799 -0.99099,-0.8225 -3.09757,-0.7496 -5.82572,0.2014 -2.35038,0.8194 -5.27755,1.1044 -6.50482,0.6335 -1.42448,-0.5467 -3.65045,0.5035 -6.15553,2.904 l -3.92412,3.7604 -40.81347,-0.084 c -22.4474,-0.047 -46.89797,-0.1866 -54.33459,-0.3115 -7.43662,-0.1249 -15.34648,-0.2049 -17.57747,-0.1778 -2.23098,0.027 -8.01126,-0.056 -12.84507,-0.1841 -8.4992,-0.2257 -120.9633,-0.3041 -142.3837,-0.099 -8.45529,0.081 -11.24614,0.6463 -14.0415,2.8451 -3.16992,2.4935 -5.43268,2.7443 -24.75789,2.7443 -19.22175,0 -21.60004,-0.2603 -24.70698,-2.7042 z M 232.32191,550.29252 c 4.3992,-3.23069 12.90869,-3.56964 69.97122,-2.78705 l 39.30723,0.53908 4.23079,-3.12796 4.23078,-3.12795 50.43382,0.30293 c 27.7386,0.16661 63.77875,0.41065 80.08922,0.54231 27.41381,0.22128 29.90515,0.043 32.9595,-2.35928 2.85183,-2.24296 6.11264,-2.66867 23.82245,-3.11013 19.52737,-0.48675 20.70195,-0.36704 24.31974,2.47872 3.47568,2.73397 5.29361,2.99018 21.21696,2.99018 15.2129,0 17.77461,-0.32494 20.25444,-2.56916 4.7819,-4.32755 5.60027,-6.95743 3.27117,-10.51207 -1.15601,-1.76431 -2.45923,-7.39868 -2.89603,-12.52082 -0.54724,-6.41724 -1.77425,-10.84452 -3.94615,-14.23852 -2.98292,-4.66135 -3.11446,-5.82161 -2.45273,-21.6338 0.62,-14.81514 1.07091,-17.25272 3.97963,-21.51335 1.80422,-2.64279 3.2804,-5.7551 3.2804,-6.91625 0,-1.16115 1.28118,-3.73993 2.84706,-5.73063 1.72993,-2.19925 2.56053,-4.71518 2.11681,-6.41196 -0.85379,-3.26489 1.057,-8.90863 4.18724,-12.3675 1.21128,-1.33845 2.33982,-3.37039 2.50788,-4.51543 0.16805,-1.14505 1.18252,-3.09332 2.25436,-4.3295 1.07184,-1.23619 2.3752,-4.03585 2.89636,-6.22147 0.52116,-2.18563 2.124,-5.62603 3.56188,-7.64535 1.43788,-2.01931 2.61432,-5.88531 2.61432,-8.5911 0,-3.96558 1.17995,-6.18108 6.08451,-11.42445 3.34648,-3.57766 6.08451,-7.45984 6.08451,-8.62707 0,-1.16723 1.58277,-4.00326 3.51728,-6.30228 1.9345,-2.29903 3.17682,-5.06727 2.76071,-6.15164 -0.41611,-1.08437 0.73914,-3.74914 2.56723,-5.92169 1.82808,-2.17256 3.32379,-4.84501 3.32379,-5.93878 0,-1.09377 1.2169,-3.53571 2.70423,-5.42653 1.48732,-1.89083 2.70422,-4.50137 2.70422,-5.8012 0,-1.29983 1.52113,-4.35763 3.38028,-6.79511 2.96758,-3.89069 3.38029,-5.77923 3.38029,-15.46819 0,-9.28005 0.48415,-11.71518 3.04225,-15.30149 2.80696,-3.9352 3.04225,-5.7291 3.04225,-23.19464 0,-17.84069 -0.18533,-19.17655 -3.22183,-23.22291 -2.94888,-3.9296 -3.16653,-5.24692 -2.56911,-15.54929 l 0.65271,-11.25597 -5.88159,-7.22254 c -4.76429,-5.85051 -5.88158,-8.25354 -5.88158,-12.64988 0,-3.8165 -1.00328,-6.61968 -3.38029,-9.44459 -1.85915,-2.20948 -3.38028,-4.78757 -3.38028,-5.72909 0,-0.94152 -3.95435,-5.91456 -8.78744,-11.05119 -4.83309,-5.13663 -8.48493,-10.14671 -8.11519,-11.13351 0.37664,-1.00522 -5.1148,-7.9914 -12.48815,-15.88733 -10.25447,-10.98124 -13.94564,-14.09314 -16.71655,-14.09314 -1.95588,0 -5.00722,-1.1332 -6.78075,-2.51823 -1.77352,-1.38502 -4.60063,-2.94938 -6.28244,-3.47635 -1.68182,-0.52696 -5.58362,-3.65292 -8.67067,-6.94656 -3.34755,-3.57157 -6.8147,-5.98844 -8.59079,-5.98844 -1.63789,0 -4.52502,-1.2169 -6.41584,-2.70423 -1.89083,-1.48732 -4.10246,-2.70422 -4.91474,-2.70422 -0.81228,0 -1.47687,-1.09754 -1.47687,-2.43899 0,-3.40805 -8.4959,-11.36907 -11.07623,-10.3789 -1.17185,0.44968 -3.84222,-0.70148 -6.16907,-2.6594 -2.25655,-1.89876 -4.99772,-3.45229 -6.09149,-3.45229 -1.09376,0 -3.43973,-1.128414 -5.21326,-2.507589 -1.77353,-1.379175 -5.45762,-3.235651 -8.18686,-4.125502 -2.72925,-0.889851 -5.69389,-2.499464 -6.5881,-3.576917 -0.8942,-1.077453 -2.68617,-1.959005 -3.98215,-1.959005 -1.29598,0 -3.82324,-1.15388 -5.61615,-2.564178 -2.02995,-1.596765 -6.6977,-2.932344 -12.37208,-3.540019 -5.64262,-0.604273 -10.34397,-1.944697 -12.34706,-3.520329 -1.77913,-1.399469 -5.33845,-2.544489 -7.9096,-2.544489 -2.62745,0 -6.18045,-1.184333 -8.11268,-2.704225 -1.89082,-1.487324 -4.36,-2.704226 -5.48705,-2.704226 -1.12705,0 -3.85694,-1.521126 -6.06642,-3.380281 -2.83033,-2.381564 -5.62674,-3.380282 -9.46479,-3.380282 -3.83805,0 -6.63446,-0.998718 -9.46479,-3.380282 -3.84712,-3.237134 -4.78354,-3.380282 -22.11275,-3.380282 -14.95334,0 -18.67438,-0.405456 -21.42918,-2.334992 -2.36138,-1.653979 -6.46319,-2.420682 -14.06388,-2.628798 -8.61519,-0.235894 -11.51862,-0.876695 -14.73002,-3.250986 -3.75739,-2.777961 -5.79834,-2.995098 -33.67646,-3.582845 -29.65266,-0.625159 -29.67939,-0.623106 -33.04403,2.537815 -3.06682,2.881119 -4.70071,3.187205 -18.30569,3.429292 -13.18038,0.234531 -15.29984,0.605436 -18.01031,3.151794 -1.68959,1.58729 -4.69193,3.063807 -6.67187,3.281149 -4.04174,0.443671 -10.3606,5.951223 -14.49852,12.636981 -3.89108,6.286933 -2.46785,15.541746 3.31823,21.577493 3.43326,3.581394 5.25545,4.394366 9.84953,4.394366 3.58956,0 6.88557,0.982191 9.07479,2.704225 1.89082,1.487322 4.43275,2.704222 5.64872,2.704222 1.21597,0 5.13803,2.73803 8.71568,6.08451 3.57766,3.34648 7.45984,6.08451 8.62707,6.08451 1.16723,0 3.92999,1.52113 6.13947,3.38028 2.20948,1.85916 4.91214,3.38028 6.0059,3.38028 1.09377,0 3.53571,1.2169 5.42654,2.70423 1.89082,1.48732 4.32177,2.70422 5.40211,2.70422 1.08033,0 4.20575,1.52113 6.94537,3.38028 2.73961,1.85916 5.71893,3.38029 6.62069,3.38029 2.48668,0 35.71026,33.14247 36.83247,36.74255 0.53916,1.72963 3.33283,6.11439 6.20816,9.74393 2.87533,3.62954 5.22788,7.80086 5.22788,9.2696 0,1.46875 1.47815,4.42713 3.28477,6.57419 3.0193,3.58822 3.28657,5.05452 3.3069,18.14214 0.0191,12.29605 0.40102,14.7201 2.79972,17.76956 3.68954,4.69049 3.64359,12.51779 -0.10143,17.27881 -2.64109,3.35761 -2.91936,5.63465 -3.36688,27.5504 -0.43611,21.35721 -0.77599,24.28003 -3.20546,27.56607 -1.49469,2.02168 -2.71762,4.83527 -2.71762,6.25242 0,1.41715 -1.13761,4.0277 -2.52802,5.80123 -1.39042,1.77353 -2.97718,5.35417 -3.52614,7.95699 -1.55695,7.38199 -4.87508,11.80711 -20.02389,26.70423 l -14.0933,13.85915 h -8.54435 -8.54435 l -9.86872,9.56916 c -9.5551,9.26506 -10.06275,9.55722 -15.975,9.19365 -6.0968,-0.37493 -6.12832,-0.35354 -20.27809,13.75478 -7.79449,7.77167 -16.0383,14.77695 -18.31959,15.56729 -5.90585,2.04607 -24.32672,20.66444 -24.32672,24.58755 0,1.7447 -2.37072,5.67823 -5.40845,8.97378 -2.97465,3.22711 -5.40845,6.81754 -5.40845,7.97873 0,1.16118 -1.52113,3.919 -3.38028,6.12848 -1.85916,2.20948 -3.38028,4.94751 -3.38028,6.08451 0,1.137 -1.3951,3.78719 -3.10022,5.88932 -7.42141,9.14936 -7.54447,9.6637 -7.93362,33.15845 -0.35098,21.19004 -0.2285,22.40318 2.62863,26.03543 1.64821,2.09537 2.99676,4.77336 2.99676,5.9511 0,1.17773 3.04283,5.22245 6.76186,8.98825 6.66682,6.75068 6.88673,6.85061 15.64586,7.11019 6.99076,0.20717 9.65582,-0.30353 12.50574,-2.39647 z"/>
  </g>
  <g id="g1">
    <path id="path2" style="fill:#000000" d="m 243.33334,1072.0001 c -1.6376,-1.8095 -4.10662,-2.6667 -7.68144,-2.6667 -5.79108,0 -14.81221,-5.9206 -16.33589,-10.7213 -0.45597,-1.4366 -1.37739,-2.612 -2.0476,-2.612 -1.41025,0 -14.19476,-12.6861 -21.8302,-21.6621 -2.87566,-3.3805 -6.32263,-6.4325 -7.65994,-6.7822 -1.33731,-0.3498 -2.85112,-1.7295 -3.36402,-3.0661 -0.5129,-1.3366 -2.95216,-4.4498 -5.42057,-6.9182 -5.28833,-5.2883 -7.29877,-9.8916 -6.21168,-14.2229 0.5989,-2.3862 -0.0229,-3.6633 -2.60847,-5.35744 l -3.39483,-2.22437 0.36203,-22.55457 c 0.32834,-20.45573 0.60001,-22.72859 2.91941,-24.42457 2.30526,-1.68566 2.62552,-4.2048 3.24862,-25.55333 0.50322,-17.24109 1.14411,-23.83365 2.35611,-24.23597 1.27464,-0.4231 1.19651,-1.22131 -0.33333,-3.40547 -1.2602,-1.79919 -1.9982,-5.94413 -1.9982,-11.22282 0,-6.59222 -0.5664,-8.93639 -2.66667,-11.03666 -4.15854,-4.15854 -3.76218,-15.83932 0.67906,-20.01164 3.74147,-3.51493 3.44305,-6.95338 -0.96819,-11.15554 -2.45623,-2.33982 -2.60766,-4.18213 -2.35627,-28.66667 0.33677,-32.79962 0.42265,-31.53177 -2.32181,-34.27623 -1.49609,-1.49609 -2.57229,-5.37589 -3.07765,-11.09524 -0.88926,-10.0641 -0.43072,-127.51948 0.60595,-155.21414 0.62266,-16.63433 0.96041,-18.63882 3.48501,-20.68311 2.95803,-2.39527 2.71314,-3.86075 -2.03618,-12.18471 -1.37304,-2.40647 -1.66774,-5.94187 -1.09986,-13.19468 0.7301,-9.32471 0.58892,-10.04821 -2.4005,-12.30148 -3.01033,-2.26904 -3.19153,-3.24694 -3.46931,-18.72315 -0.28897,-16.10022 -0.34503,-16.37087 -4,-19.31174 -2.72001,-2.18858 -3.31512,-3.3832 -2.23529,-4.48714 1.00363,-1.02604 1.09807,-3.55979 0.29695,-7.96746 -0.66123,-3.63799 -0.67516,-8.70622 -0.0319,-11.59504 0.62855,-2.82263 0.65119,-6.93206 0.0503,-9.13206 -1.4972,-5.48177 -0.005,-12.91105 3.0879,-15.37892 2.27526,-1.81518 2.60235,-4.12911 2.90397,-20.54348 0.31977,-17.40185 0.51415,-18.61359 3.28051,-20.45038 C 162.79124,425.8107 164,423.6329 164,421.6626 c 0,-2.48613 3.4711,-6.72559 13.51285,-16.50404 7.43206,-7.23719 13.96208,-13.15853 14.51116,-13.15853 0.54907,0 1.31212,-1.2 1.69566,-2.66667 0.47883,-1.83103 1.81869,-2.66666 4.27576,-2.66666 2.72006,0 6.24112,-2.69285 14.67893,-11.22618 11.32117,-11.44934 15.78027,-14.80761 17.91208,-13.49008 1.31306,0.81152 29.41357,-26.24174 29.41357,-28.31738 0,-0.70578 1.80208,-1.07342 4.00462,-0.81697 2.88326,0.3357 4.4665,-0.27331 5.65407,-2.1749 0.90719,-1.45264 2.39127,-2.64117 3.29797,-2.64117 0.90669,0 2.62799,-1.49484 3.82511,-3.32188 1.19712,-1.82704 2.71095,-2.99163 3.36407,-2.58798 0.65312,0.40365 1.18749,0.11342 1.18749,-0.64496 0,-0.75838 4.5,-5.96735 10,-11.57548 5.5,-5.60813 10,-10.72304 10,-11.36648 0,-0.64344 1.2,-1.16988 2.66667,-1.16988 1.46666,0 2.66666,-0.831 2.66666,-1.84666 0,-1.01566 1.50684,-2.83397 3.34853,-4.04069 2.57038,-1.68418 3.16194,-2.93745 2.5456,-5.39311 -0.64798,-2.58178 0.37823,-4.33082 5.31815,-9.06409 6.07477,-5.82066 6.12106,-5.93228 6.12106,-14.76023 0,-6.94016 0.55303,-9.44826 2.51622,-11.41145 4.30442,-4.30442 5.32291,-7.06663 3.94344,-10.6949 -0.70082,-1.8433 -0.95293,-4.63155 -0.56025,-6.19612 0.48992,-1.95203 -0.36163,-3.85111 -2.71378,-6.05204 -3.03119,-2.83633 -3.33388,-3.92055 -2.61648,-9.37195 0.73789,-5.60707 0.49629,-6.37094 -2.67151,-8.44657 -2.31014,-1.51365 -3.26554,-3.11268 -2.83759,-4.74917 0.90954,-3.47808 -2.63547,-7.97303 -6.28804,-7.97303 -2.02229,0 -5.99485,-2.96439 -11.59106,-8.64942 -6.16193,-6.25973 -9.48239,-8.65418 -12.01832,-8.66667 -2.0544,-0.0101 -4.26491,-1.16318 -5.3432,-2.78718 -1.1618,-1.74976 -3.55427,-2.9075 -6.49597,-3.14346 -6.42132,-0.51506 -6.26344,-0.4384 -7.04313,-3.41994 -0.53887,-2.06064 -1.81869,-2.66667 -5.63149,-2.66667 -3.64422,0 -4.74981,-0.48038 -4.22902,-1.83752 1.0601,-2.76258 -1.76285,-4.82914 -6.59664,-4.82914 -3.13914,0 -4.5401,-0.7245 -5.15652,-2.66667 -0.50279,-1.58416 -2.02772,-2.67406 -3.75651,-2.68487 -4.87897,-0.0305 -8.91015,-1.5336 -8.91015,-3.32225 0,-0.93286 -2.25,-2.11147 -5,-2.61913 -2.75,-0.50767 -6.31948,-2.15035 -7.93216,-3.65041 -1.61269,-1.50006 -3.81326,-2.38927 -4.89015,-1.97603 -1.11735,0.42877 -3.71728,-0.92993 -6.05571,-3.16465 -2.25374,-2.1538 -4.85931,-3.916 -5.79014,-3.916 -0.93083,0 -3.37474,-1.55992 -5.43089,-3.4665 -2.33236,-2.16268 -4.70337,-3.21418 -6.30386,-2.79564 -1.41097,0.36898 -3.92253,-0.38856 -5.58124,-1.68341 -1.65872,-1.29486 -4.51586,-2.81385 -6.34919,-3.37553 -1.83333,-0.56168 -7.1315,-4.69422 -11.7737,-9.18341 -4.6422,-4.4892 -10.43757,-10.07754 -12.87859,-12.41855 -4.72672,-4.533034 -5.53426,-8.679422 -4.93139,-25.320444 0.2034,-5.614306 0.75042,-7.068867 2.91701,-7.756517 2.22128,-0.705004 2.66667,-2.017379 2.66667,-7.857432 0,-5.754513 0.59741,-7.572307 3.33333,-10.14257 1.99304,-1.872361 3.33334,-4.610279 3.33334,-6.809235 0,-2.474543 0.8501,-3.947543 2.59846,-4.502452 1.42916,-0.453596 2.96959,-1.994029 3.42318,-3.423184 0.54086,-1.704078 2.02628,-2.598463 4.31561,-2.598463 1.91998,0 4.92789,-1.35 6.68423,-3.000001 1.75635,-1.65 4.79502,-3.118682 6.7526,-3.263739 9.74214,-0.721889 11.55925,-1.183305 11.55925,-2.93522 0,-1.871865 4.53972,-4.256644 6.24166,-3.278835 0.49958,0.28702 3.08351,-0.954266 5.74207,-2.758413 4.23101,-2.87124 5.90772,-3.202793 13.4467,-2.658945 8.12146,0.585867 8.68213,0.43937 9.82525,-2.567255 l 1.21229,-3.188577 46.43268,0.579966 c 53.54369,0.668786 46.64856,0.637989 64.43269,0.287782 20.92188,-0.411997 25.32783,-0.10237 25.37523,1.783235 0.0555,2.206569 6.29871,6.692229 7.91987,5.690295 0.69913,-0.432084 4.03339,-0.841052 7.40947,-0.908817 4.86118,-0.09758 6.5576,0.475371 8.15342,2.753726 1.84294,2.631168 3.11682,2.863384 14.91188,2.718287 13.12958,-0.161513 19.32762,1.139005 20.54564,4.311038 0.43191,1.124819 3.53212,1.909101 8.51518,2.154149 6.10943,0.300438 8.30959,1.003439 9.98547,3.19058 1.60482,2.094403 3.10494,2.62259 5.9201,2.084439 3.35034,-0.640458 13.77169,0.391503 23.26374,2.303662 1.83334,0.369322 4.05451,1.653758 4.93594,2.854302 0.88144,1.200545 2.46091,1.853449 3.50994,1.450899 2.77716,-1.065696 13.03892,1.762496 16.73393,4.611957 1.7489,1.348684 5.11799,2.452152 7.48686,2.452152 2.36887,0 5.8326,1.200001 7.69716,2.666667 2.23849,1.760793 5.40905,2.666667 9.33333,2.666667 3.92429,0 7.09485,0.905875 9.33334,2.666667 1.86456,1.466667 4.42668,2.666667 5.69358,2.666667 1.26691,0 3.69362,1.5 5.3927,3.333334 2.4395,2.632267 4.38969,3.333333 9.2725,3.333333 4.72448,0 6.73267,0.678471 8.51195,2.875783 1.56848,1.936995 3.7303,2.835931 6.6223,2.753705 2.87671,-0.08179 4.5767,0.61921 5.15139,2.124217 1.50428,3.939425 9.60482,10.677328 12.06362,10.034337 1.35126,-0.353364 3.65816,0.817164 5.52336,2.802579 1.85081,1.970098 4.67388,3.409381 6.68731,3.409381 2.3959,0 5.44718,1.99277 9.76758,6.379133 3.45577,3.50852 6.28322,7.12735 6.28322,8.04185 0,0.91449 1.05,2.0521 2.33333,2.52802 4.54108,1.68403 15,12.82452 15,15.97749 0,2.23284 0.76541,3.07351 2.79839,3.07351 4.07581,0 10.53494,7.46949 10.53494,12.18285 0,2.29204 0.85168,4.22766 2.06505,4.69328 2.30431,0.88424 9.93495,8.18826 9.93495,9.50968 0,0.46605 1.581,2.10799 3.51333,3.64878 2.91237,2.32225 3.27038,3.25536 2.09303,5.45526 -1.68047,3.13999 -0.66166,5.15508 3.2178,6.36448 3.80293,1.18555 7.48032,5.44202 9.14143,10.58096 1.01331,3.13487 2.57706,4.62393 6.03441,5.74621 3.96067,1.28565 4.67877,2.13471 4.74664,5.61229 0.0528,2.70392 1.34693,5.27165 3.80524,7.54993 2.46576,2.2852 3.49512,4.33257 3.04455,6.05555 -0.4321,1.65237 0.36948,3.45485 2.19476,4.93524 1.58152,1.28269 2.96493,4.02904 3.07425,6.10299 0.10932,2.07396 1.46775,5.1216 3.01874,6.77255 2.72942,2.90533 2.8222,4.2062 2.88985,40.51634 0.0737,39.53471 -0.62673,49.60696 -3.44943,49.60696 -2.0168,0 -3.3246,2.94408 -3.3246,7.48423 0,1.79637 -0.84585,3.59071 -1.87967,3.98742 -2.54359,0.97607 -3.84783,6.44087 -3.53029,14.79203 0.21798,5.7327 -0.21347,7.22822 -2.49659,8.65406 -1.54304,0.96364 -2.76011,3.13169 -2.76011,4.91676 0,1.75618 -1.5,4.5832 -3.33334,6.28227 -2.1164,1.96142 -3.33333,4.53746 -3.33333,7.05613 0,2.64326 -1.11223,4.84177 -3.33333,6.58889 -1.83334,1.4421 -3.33334,3.90883 -3.33334,5.48162 0,1.57279 -2.4,5.35731 -5.33333,8.41004 -3.51121,3.65412 -5.33333,6.7696 -5.33333,9.11898 0,4.05535 -3.28006,12.62525 -5.31313,13.88176 -0.74445,0.46009 -1.35354,2.60112 -1.35354,4.75784 0,2.71183 -0.6605,3.92131 -2.14144,3.92131 -1.17779,0 -3.32134,1.5 -4.76344,3.33333 -1.4421,1.83334 -3.47845,3.33334 -4.52523,3.33334 -2.34136,0 -2.42808,1.86242 -0.24916,5.35142 1.24846,1.9991 1.2834,3.24209 0.1425,5.06896 -0.83135,1.33122 -1.05241,3.28122 -0.49123,4.33334 0.56117,1.05212 0.94704,4.61294 0.85749,7.91294 -0.13019,4.79765 -0.62225,5.96425 -2.45548,5.8216 -2.91162,-0.22657 -3.56211,1.96985 -4.0016,13.51174 -0.28659,7.52631 -0.88345,9.76102 -3.08282,11.54234 -2.26385,1.83354 -2.75945,3.88289 -2.91581,12.05708 -0.16649,8.70354 0.12736,9.99639 2.52837,11.12432 2.40949,1.13192 2.75184,2.67342 3.02704,13.62964 0.25766,10.25785 0.76813,12.85887 3.00928,15.33333 2.41867,2.67047 2.71725,4.91863 2.87489,21.64663 0.15958,16.9332 0.42405,18.87224 2.84795,20.88039 1.46961,1.21755 2.67202,3.69408 2.67202,5.50341 0,4.31973 2.9192,6.60494 7.09768,5.55621 2.79892,-0.70249 3.42567,-0.32654 3.7942,2.27592 0.2428,1.71457 1.69571,3.66845 3.22868,4.34196 l 2.78722,1.22455 0.0425,108.10879 0.0425,108.10879 -2.82975,2.25628 c -2.42383,1.93263 -2.8949,3.94333 -3.28394,14.0173 -0.40788,10.56146 -0.16989,12.01832 2.33333,14.2837 3.50395,3.17104 3.54357,5.61094 0.12087,7.44272 -3.50941,1.87818 -3.42037,7.17431 0.1606,9.55198 2.82431,1.87527 2.82693,1.94558 2.50187,67.16263 -0.17898,35.90697 -0.25759,77.72216 -0.17469,92.92256 l 0.15071,27.6372 -3.98591,2.9469 c -2.19226,1.6208 -3.98592,3.7341 -3.98592,4.6962 0,1.1189 -1.72653,1.7492 -4.79149,1.7492 -3.65023,0 -4.95554,0.6273 -5.48025,2.6338 -0.46543,1.7799 -2.26232,2.9088 -5.54184,3.4819 -2.6692,0.4664 -5.57735,1.7607 -6.46256,2.8761 -1.29044,1.6261 -5.96163,2.1327 -23.56496,2.5554 -21.49048,0.5162 -21.99962,0.4643 -24.0391,-2.4474 l -2.08361,-2.9748 -2.80159,3.0072 c -1.96508,2.1092 -4.00955,2.8868 -6.84725,2.6041 -2.92826,-0.2917 -4.46111,0.3336 -5.54984,2.2637 -2.0257,3.5913 -3.77649,4.7256 -6.17084,3.9982 -1.1,-0.3342 -63.32985,-0.9509 -138.28855,-1.3705 -136.22691,-0.7624 -136.28961,-0.7615 -138.62966,1.9714 -2.1861,2.5532 -3.80857,2.7342 -24.5048,2.7342 -20.47038,0 -22.34808,-0.2037 -24.577,-2.6666 z m 87.37648,-23.5132 c 2.41452,-2.4092 3.13964,-170.39864 0.74411,-172.38676 -1.07574,-0.89278 -8.5488,-1.55615 -18.78923,-1.66789 -15.76157,-0.17197 -17.1611,0.0171 -19.16722,2.58999 -1.88319,2.41519 -6.37348,3.6148 -11.6753,3.11911 -0.83113,-0.0777 -1.858,-1.46761 -2.28192,-3.08867 l -0.77075,-2.94739 -3.13736,2.94739 c -4.04567,3.80071 -6.00313,3.7218 -7.84295,-0.31617 -1.20247,-2.63913 -2.18517,-3.12392 -5.13604,-2.53374 -2.76316,0.55263 -4.14751,0.0182 -5.70214,-2.20136 -2.3899,-3.41207 -8.68921,-6.9872 -10.42312,-5.91558 -2.0102,1.24238 -1.35699,2.98636 2.47211,6.6001 l 3.66666,3.46045 -3.66666,2.97693 c -2.23715,1.81631 -3.66667,4.28296 -3.66667,6.32684 0,1.84246 -0.6596,4.00952 -1.46578,4.8157 -2.10225,2.10225 -0.31408,6.51508 4.44079,10.95888 l 4.11385,3.84473 -3.54443,3.28487 c -4.20196,3.89424 -4.59829,9.0128 -0.87776,11.33631 2.87902,1.79798 3.50652,5.6029 1.28962,7.81981 -1.50971,1.50971 -0.38403,5.82295 1.51969,5.82295 2.18949,0 1.22247,7.66549 -1.36904,10.85229 -2.19981,2.70513 -2.29951,3.4371 -0.70906,5.20586 2.02636,2.25353 2.55124,6.31229 2.1793,16.85201 -0.19823,5.61758 -0.74266,7.06846 -2.91051,7.75651 -2.07113,0.65735 -2.66667,2.01738 -2.66667,6.08985 0,3.67654 0.57416,5.24349 1.92131,5.24349 2.81327,0 3.88383,2.4916 2.03022,4.72507 -2.80267,3.37701 -7.99121,2.27254 -12.68014,-2.69918 l -4.37682,-4.64078 0.0686,-14.96337 c 0.0635,-13.84386 -0.14456,-15.10491 -2.78062,-16.85519 -1.56708,-1.0405 -2.84923,-2.71863 -2.84923,-3.72918 0,-3.41599 -2.97111,-1.86598 -9.66417,5.04172 l -6.66533,6.87909 9.28163,8.78757 9.28163,8.78758 -4.41233,4.33333 c -6.63258,6.51384 -13.51311,5.28925 -7.51585,-1.33766 2.18522,-2.41464 2.18522,-2.615 0,-3.83791 -1.26807,-0.70965 -2.30558,-1.92448 -2.30558,-2.69963 0,-1.58223 -13.31336,-14.45813 -14.94934,-14.45813 -0.57786,0 -1.05066,2.53687 -1.05066,5.63749 0,4.87566 0.72073,6.2963 5.33334,10.51263 5.58222,5.10266 6.93317,9.98632 3.16272,11.43318 -1.3966,0.53593 -3.03118,-0.30793 -4.58394,-2.36648 -2.8244,-3.74439 -3.31155,-2.8922 -4.39136,7.682 -0.75244,7.36839 -0.0122,8.69754 5.81258,10.43674 1.83333,0.5474 4.4067,2.1209 5.7186,3.4965 1.3119,1.3757 2.86559,2.5013 3.45265,2.5013 0.58705,0 1.75082,1.5 2.58614,3.3333 1.10126,2.417 2.56012,3.3333 5.30691,3.3333 2.20557,0 4.96401,1.2533 6.6028,3 7.65365,8.1576 9.66623,8.2021 9.66623,0.2138 0,-4.5715 -0.69524,-6.6826 -2.74825,-8.345 -1.82979,-1.4817 -2.44291,-3.0212 -1.83458,-4.6064 0.76431,-1.9918 2.24888,-2.3168 9.08158,-1.9884 7.98615,0.384 8.17771,0.4817 8.60802,4.3927 0.24205,2.2 1.52309,5.2 2.84675,6.6667 3.94745,4.3739 4.37087,7.8946 1.40317,11.6674 -3.53519,4.4943 -3.54709,11.1134 -0.0234,12.9992 1.73044,0.9261 2.66667,2.7918 2.66667,5.314 0,2.1378 0.86186,4.3667 1.91524,4.9531 3.1256,1.7401 69.68662,1.3239 71.46124,-0.4469 z M 221.33334,960.66674 c -1.32425,-1.59562 -1.32425,-2.40438 0,-4 2.24804,-2.70872 4.96266,-2.51729 6.55735,0.4624 2.39298,4.47133 -3.25406,7.51783 -6.55735,3.5376 z m 139.3216,87.17466 c 1.31781,-1.2808 1.35165,-52.33997 0.0361,-54.46858 -0.92722,-1.50028 -13.16929,0.056 -14.31557,1.81994 -0.52684,0.81069 -0.95074,13.00874 -0.942,27.10684 0.0141,22.7273 0.2738,25.7886 2.29122,27.0067 2.5022,1.5108 10.84063,0.5661 12.93026,-1.4649 z m 102.01604,0.153 c 1.98708,-2.6344 3.37922,-2.7473 34.98263,-2.8388 34.72759,-0.1005 35.0045,-0.1504 35.88531,-6.4569 0.38288,-2.7413 1.4372,-3.4671 6.21543,-4.2788 3.16489,-0.5375 7.73571,-2.2019 10.15738,-3.6986 2.42167,-1.4967 5.56497,-2.7212 6.98511,-2.7212 1.42013,0 4.6825,-1.95 7.24971,-4.3334 l 4.66765,-4.3333 0.339,-71.81371 0.339,-71.81373 -3.51101,-5.06639 c -1.93106,-2.78652 -4.8168,-5.36853 -6.41276,-5.73779 -1.59596,-0.36927 -11.76011,-0.74525 -22.58699,-0.83553 -10.82688,-0.0903 -20.52324,-0.4857 -21.54746,-0.87874 -1.14318,-0.43867 -2.55965,0.73861 -3.66844,3.04898 -1.54876,3.22715 -2.46844,3.70165 -6.45253,3.32909 -2.55548,-0.23897 -5.54633,-1.56202 -6.64633,-2.94011 -1.82098,-2.28135 -4.39341,-2.53435 -28.739,-2.82652 -25.96945,-0.31166 -26.82325,-0.23664 -29.66666,2.60678 -2.73351,2.7335 -4.15536,2.92767 -21.43883,2.92767 -17.38982,0 -18.55341,0.16154 -19.20851,2.66667 -0.42922,1.64132 -1.81869,2.66666 -3.61367,2.66666 -1.79498,0 -3.18445,-1.02534 -3.61367,-2.66666 -0.61753,-2.36147 -1.81869,-2.66667 -10.49493,-2.66667 -8.32197,0 -10.00545,0.38842 -11.17782,2.57901 -2.10147,3.92663 -1.66132,6.3698 1.28642,7.14065 2.17601,0.56904 2.69295,1.88563 2.8095,7.15551 0.0786,3.55199 0.31421,9.9365 0.52365,14.1878 0.33981,6.89738 0.0373,7.95472 -2.8095,9.82002 l -3.19032,2.09037 v 62.35507 62.35507 l 4.57771,3.4916 c 2.51773,1.9204 5.71315,3.4916 7.10091,3.4916 1.38777,0 3.87935,1.4435 5.53685,3.2078 l 3.01363,3.2079 35.51955,0.161 c 34.38832,0.156 35.58547,0.074 37.58899,-2.5824 z m -14.93322,-56.32766 c -1.19113,-0.94297 -2.40445,-4.56144 -2.79429,-8.33333 -0.59148,-5.72298 -1.46198,-7.3529 -6.14957,-11.5145 l -5.46056,-4.84782 v -16.18518 c 0,-16.03734 0.0304,-16.19675 3.33334,-17.45251 1.83333,-0.69703 3.33333,-2.109 3.33333,-3.1377 0,-1.0287 1.22909,-2.69355 2.7313,-3.69967 2.02449,-1.3559 2.77281,-3.38199 2.8917,-7.82929 0.19378,-7.24913 2.85366,-10.93249 7.12125,-9.86139 2.17962,0.54705 3.44073,0.007 4.46844,-1.91319 1.84491,-3.44725 9.36566,-5.24202 11.38315,-2.71651 1.78899,2.23948 6.82456,5.15775 8.89984,5.15775 0.84253,0 2.92202,-1.5 4.6211,-3.33333 1.69907,-1.83334 3.97184,-3.33334 5.05059,-3.33334 1.07875,0 3.74401,1.5 5.92281,3.33334 2.96099,2.49151 5.50045,3.33333 10.05539,3.33333 4.72934,0 6.41352,0.59714 7.5211,2.66667 0.78494,1.46667 2.24185,2.66667 3.23759,2.66667 2.39655,0 3.42908,2.98171 3.42908,9.9024 0,4.02562 0.79262,6.40161 2.71632,8.14254 2.41844,2.18866 2.69339,3.91813 2.50716,15.77032 -0.20553,13.08017 -0.28423,13.38935 -4.51769,17.74841 -2.36968,2.43998 -4.9979,4.43633 -5.84049,4.43633 -0.84258,0 -1.53197,0.64615 -1.53197,1.4359 0,1.62845 -7.25701,9.23077 -8.8115,9.23077 -0.55915,0 -2.4053,-1.30459 -4.10257,-2.89909 -1.73848,-1.63322 -3.08593,-2.18761 -3.08593,-1.26967 0,0.89618 -1.52924,3.04668 -3.39832,4.77888 l -3.39832,3.14945 4.39832,0.95439 c 4.82417,1.04679 6.51946,2.75226 5.46564,5.49846 -0.84603,2.20471 -13.85036,2.4712 -15.99382,0.32775 -2.41177,-2.41177 -0.6218,-16.20786 2.38335,-18.36947 1.86123,-1.33879 2.54315,-3.45576 2.54315,-7.89501 0,-3.67136 0.83622,-6.98973 2.11843,-8.40656 3.13606,-3.4653 4.49934,-11.25077 2.96539,-16.9348 -1.77782,-6.58765 -2.72172,-7.3459 -6.82,-5.4786 -3.05892,1.39373 -3.52242,2.47944 -3.86951,9.06383 -0.3805,7.2184 -0.53443,7.49624 -4.39431,7.93175 -5.29287,0.59718 -7.33053,2.45887 -7.34642,6.71195 -0.009,2.40428 -1.6781,4.96747 -5.32025,8.17007 -5.94258,5.22541 -6.80687,9.43108 -2.66666,12.97604 2.98714,2.55767 3.60428,9.55301 1.06666,12.09063 -2.10184,2.10184 -11.97981,2.05693 -14.66225,-0.0667 z m 8.26225,-34.84449 c 0,-2.16691 -0.94703,-3.42548 -2.977,-3.95633 -4.46665,-1.16806 -5.64247,1.11981 -2.21608,4.31198 3.91803,3.6502 5.19308,3.56287 5.19308,-0.35565 z m -4,-0.82218 c 0,-0.73333 0.6,-1.33333 1.33333,-1.33333 0.73334,0 1.33334,0.6 1.33334,1.33333 0,0.73334 -0.6,1.33334 -1.33334,1.33334 -0.73333,0 -1.33333,-0.6 -1.33333,-1.33334 z m 10.66667,-10.74535 c 0,-2.78173 -1.96153,-3.47427 -3.3728,-1.1908 -1.20946,1.95695 0.40184,5.61493 2.03005,4.60864 0.73851,-0.45643 1.34275,-1.99446 1.34275,-3.41784 z m 35.16581,-20.00179 c -0.68882,-4.30763 -0.44941,-5.25286 1.33045,-5.25286 1.19372,0 2.17041,-0.6 2.17041,-1.33333 0,-2.31495 -5.22207,-1.4446 -8,1.33333 -3.33524,3.33523 -3.32517,4.13656 0.10676,8.49956 3.63648,4.62303 5.43788,3.29149 4.39238,-3.2467 z m 96.57878,121.65237 4.0266,-3.7614 -0.0763,-25.9052 c -0.042,-14.2479 -0.32886,-26.58796 -0.63749,-27.42234 -1.15732,-3.12874 -8.35966,-3.25239 -12.46922,-0.21406 -3.7909,2.80273 -3.90109,3.19379 -3.28255,11.6489 0.35202,4.8119 0.13895,15.3489 -0.47347,23.4155 -1.12351,14.7986 -0.20739,20.6667 3.2264,20.6667 0.89676,0 1.94428,1.2 2.32782,2.6667 0.94246,3.6039 2.5908,3.3587 7.35826,-1.0948 z m 36.01497,-10.2487 c 1.59891,-1.8389 2.90711,-3.9577 2.90711,-4.7085 0,-0.7508 0.9011,-1.7108 2.00244,-2.1335 1.10135,-0.4226 3.77511,-3.395 5.9417,-6.6052 l 3.93925,-5.8369 0.73793,-69.1566 c 0.70442,-66.01693 0.62531,-69.30172 -1.74259,-72.35289 -1.36429,-1.75795 -3.06841,-4.99628 -3.78694,-7.19628 -1.29439,-3.96314 -1.40664,-4.00356 -12.1809,-4.38696 -9.20297,-0.32748 -11.08942,-0.78861 -12.27293,-3 -1.42969,-2.67141 -5.89674,-3.55771 -7.21126,-1.43078 -0.40187,0.65024 0.16272,1.92371 1.25465,2.82993 1.60742,1.33404 1.98532,5.72437 1.98532,23.06514 0,19.15132 -0.26693,21.70872 -2.52272,24.17007 -1.38749,1.51393 -2.91914,4.62962 -3.40365,6.92375 -0.77567,3.67272 -0.48242,4.27116 2.45414,5.00819 3.31484,0.83197 3.33266,0.91796 2.93612,14.17049 -0.3131,10.4641 -0.90402,13.89155 -2.74596,15.92686 -2.24697,2.48288 -2.22705,2.74591 0.46753,6.17151 3.98226,5.06262 4.00255,18.68187 0.0354,23.72534 -2.39249,3.04155 -2.88246,5.99643 -3.52145,21.23653 l -0.74226,17.7034 3.66336,2.4003 c 3.00227,1.9672 3.52615,3.0864 2.90302,6.2021 -0.59951,2.9975 -0.20616,3.9776 1.8595,4.6332 1.44091,0.4574 3.24031,1.9909 3.99867,3.4079 2.07207,3.8717 9.38508,3.4417 13.04456,-0.7671 z M 355.13416,978.97708 c -0.59232,-2.26505 -1.75758,-2.97701 -4.87245,-2.97701 h -4.09394 l 3.84066,4.00879 c 4.10732,4.28713 6.39617,3.82639 5.12573,-1.03178 z m 240.95351,-5.69059 c 1.86285,-0.99696 2.57901,-2.80289 2.57901,-6.5034 0,-6.48395 -2.31456,-8.3864 -9.56812,-7.8645 l -5.76521,0.41482 -0.41745,5.8192 c -0.2296,3.20056 -0.0984,6.65056 0.29148,7.66667 0.84031,2.18981 9.10166,2.48948 12.88029,0.46721 z M 349.33334,956.58805 c 0,-1.93516 -0.57712,-3.05534 -1.33333,-2.58798 -0.73333,0.45323 -1.33333,1.98864 -1.33333,3.41202 0,1.42339 0.6,2.58798 1.33333,2.58798 0.73333,0 1.33333,-1.53541 1.33333,-3.41202 z m -139.53916,-6.1799 c 2.3132,-1.60888 6.20258,-5.20889 8.64306,-8 4.79315,-5.4818 6.97842,-6.1887 9.55058,-3.08943 1.96296,2.36522 4.22789,1.34312 3.92245,-1.7701 -0.71041,-7.24074 0.20315,-11.16119 2.7564,-11.82889 1.76613,-0.46185 2.66667,-1.81868 2.66667,-4.01782 0,-2.42234 -0.54097,-3.10157 -2,-2.51116 -1.1,0.44513 -2.82264,1.14383 -3.82808,1.55267 -3.25301,1.32276 -6.17192,-3.21836 -6.17192,-9.60203 v -6.00154 l -3.51315,2.76344 c -1.93223,1.5199 -4.30399,2.76345 -5.27059,2.76345 -3.00832,0 -8.54959,-3.01731 -8.54959,-4.65539 0,-1.72345 4.51967,-4.30889 8.66666,-4.95769 1.91313,-0.29931 2.85505,-1.73162 3.33334,-5.06873 0.54994,-3.83715 1.28711,-4.72332 4.21054,-5.06158 3.00155,-0.34729 3.6809,0.21382 4.43927,3.66667 1.27226,5.79254 3.35019,5.05072 3.35019,-1.19601 0,-3.87158 -0.9019,-6.17462 -3.39394,-8.66667 -3.93029,-3.93029 -4.99792,-4.13492 -7.27273,-1.39394 -2.33223,2.81017 -11.82716,2.66853 -12.92515,-0.19281 -1.08013,-2.81475 2.91695,-5.80719 7.7568,-5.80719 2.4843,0 3.92646,-0.85429 4.50168,-2.66667 1.02457,-3.22814 1.83628,-3.29965 5.81569,-0.51236 5.08055,3.55856 6.18322,0.78925 6.19344,-15.55446 0.006,-10.00289 -0.46711,-14.59985 -1.5034,-14.59985 -2.43758,0 -5.04738,-3.98144 -5.1123,-7.79918 -0.0453,-2.66249 -0.82516,-3.64253 -3.16203,-3.97358 -2.0036,-0.28383 -2.85041,-1.0949 -2.39157,-2.29063 1.15966,-3.02202 -1.58072,-3.57877 -3.15318,-0.64062 -1.94329,3.63107 -8.02058,3.65638 -8.96698,0.0373 -0.38354,-1.46667 -1.13976,-2.66667 -1.68048,-2.66667 -0.54072,0 -2.72074,-1.51705 -4.84449,-3.37123 -6.50745,-5.68144 -7.34553,-6.25572 -8.07082,-5.53043 -1.63824,1.63824 1.51957,6.54694 9.57645,14.88625 l 8.60006,8.90154 3.43491,-2.7019 c 4.7939,-3.77088 7.2647,-2.38212 7.2647,4.08325 0,4.19417 0.56255,5.46262 2.66667,6.01286 3.1318,0.81898 3.58917,5.44936 0.64969,6.57734 -1.10934,0.42569 -2.9298,0.0164 -4.04546,-0.90949 -1.49664,-1.24211 -2.80309,-1.31292 -4.98302,-0.27007 -1.625,0.77737 -4.00454,1.74898 -5.28788,2.15913 -1.28333,0.41015 -2.33333,1.60036 -2.33333,2.64492 0,3.10946 -3.81909,3.68056 -5.35991,0.80151 -1.61609,-3.01968 -5.30676,-3.52464 -5.30676,-0.72606 0,1.04002 -0.32318,2.73315 -0.71818,3.76251 -0.43603,1.13626 0.61164,2.47746 2.66666,3.41379 3.931,1.79109 4.39014,5.19071 1.05152,7.78576 -2.22021,1.72573 -2.22043,1.90142 -0.005,3.62394 1.2808,0.99566 2.7234,3.84566 3.20579,6.33334 0.48238,2.48767 1.68445,5.00286 2.67127,5.5893 2.00289,1.19026 2.44514,7.04074 0.6176,8.17022 -0.64714,0.39996 -2.66679,-0.44498 -4.48812,-1.87764 -1.82132,-1.43265 -3.69184,-2.22448 -4.15671,-1.75961 -1.75772,1.75772 -0.74299,5.695 1.82145,7.06744 2.79491,1.49579 3.71523,7.42826 1.27837,8.24054 -1.48331,0.49444 2.16329,9.0928 3.8563,9.0928 0.51664,0 1.99662,-1.2348 3.28883,-2.74399 3.10519,-3.6266 11.97515,-3.21846 12.6966,0.58422 0.56508,2.97845 -1.85589,4.77788 -6.46604,4.80602 -1.88531,0.0115 -4.07293,1.18452 -5.0113,2.68708 -0.91595,1.46667 -2.91645,2.66667 -4.44555,2.66667 -1.65886,0 -3.06146,-1.07555 -3.47755,-2.66667 -1.11628,-4.26869 -4.38633,-3.23971 -4.38633,1.38024 0,2.22581 -1.00256,5.57701 -2.2279,7.44713 -1.46003,2.22828 -1.74754,3.70566 -0.83418,4.28642 0.76655,0.48742 1.84601,2.98621 2.39879,5.55288 0.81213,3.77087 4.93109,9.8567 7.12413,10.52602 0.25346,0.0774 2.35346,-1.17572 4.66667,-2.78461 z m -4.79417,-8.26414 c -3.34548,-2.53958 -2.89604,-3.47727 1.66666,-3.47727 3.11111,0 4,0.59259 4,2.66666 0,3.05575 -2.27951,3.38183 -5.66666,0.81061 z m 15.88888,-11.03283 c -1.77149,-1.77149 -0.83033,-5.71529 1.68519,-7.06156 4.3039,-2.30337 9.37826,4.84111 5.25036,7.39229 -0.8299,0.51291 -2.06678,-0.0643 -2.74862,-1.28269 -0.68184,-1.21838 -1.81262,-1.86116 -2.51284,-1.4284 -0.70023,0.43277 -0.92794,1.34539 -0.50603,2.02805 0.88634,1.43413 0.13914,1.6595 -1.16806,0.35231 z m -11.28888,-58.04445 c -2.30235,-2.30235 -1.96933,-5.01878 0.73333,-5.98167 1.28333,-0.45723 3.64241,-2.38839 5.24238,-4.29149 2.69608,-3.20685 3.07167,-3.30073 5.13016,-1.28239 1.78184,1.74708 1.9224,2.73593 0.71071,5 -0.83072,1.55222 -2.31932,2.82222 -3.30799,2.82222 -0.98867,0 -2.11138,1.2 -2.49493,2.66667 -0.78127,2.98759 -3.59386,3.48647 -6.01366,1.06666 z m 148.15132,60.05381 c 4.04917,-4.04917 4.21356,-4.6439 4.23077,-15.30646 0.0161,-10.00336 -0.27692,-11.30023 -2.98209,-13.19608 -2.29228,-1.60649 -3.00482,-3.42144 -3.02042,-7.69354 -0.0112,-3.07508 -0.60204,-6.49106 -1.31291,-7.59106 -0.71088,-1.1 -1.32841,-1.7 -1.3723,-1.33333 -0.0439,0.36666 -0.4079,6.34857 -0.8089,13.29312 -0.5778,10.00621 -1.21778,12.96874 -3.08394,14.27585 -1.64742,1.1539 -2.62512,4.28751 -3.25456,10.43122 -0.49485,4.83001 -0.54494,9.35588 -0.11132,10.05749 1.65571,2.67901 7.5863,1.19216 11.71567,-2.93721 z m 239.41805,-13.58957 c 0.86232,-1.03903 1.54837,-7.3921 1.6198,-15 0.22545,-24.01333 0.16826,-24.5309 -2.71048,-24.5309 -1.42338,0 -2.95879,0.6 -3.41202,1.33333 -0.45322,0.73333 -2.55322,1.33333 -4.66666,1.33333 -2.11345,0 -4.21088,0.59586 -4.66098,1.32412 -0.45009,0.72827 -0.80984,6.675 -0.79944,13.21497 0.014,8.81406 -0.48461,12.30872 -1.92701,13.50581 -2.55819,2.12311 -2.47587,2.71764 0.96912,6.99902 2.33471,2.90155 4.02753,3.62275 8.5034,3.62275 3.07361,0 6.26153,-0.81109 7.08427,-1.80243 z m -4.63171,-59.06044 6.57099,-6.98075 0.45548,-41.07819 c 0.25052,-22.59301 0.45535,-41.9782 0.45519,-43.0782 -1.7e-4,-1.1 0.0534,-4.1 0.11913,-6.66667 0.0657,-2.56666 0.0292,-5.86666 -0.081,-7.33333 -0.11025,-1.46667 -0.31827,-5.29728 -0.46226,-8.51248 -0.21599,-4.8227 -0.81932,-6.05231 -3.44724,-7.02563 -5.12598,-1.89855 -11.50416,0.0124 -14.76571,4.42384 -2.70632,3.6605 -2.77337,4.17371 -0.82637,6.32512 1.83286,2.02529 2.10872,7.31825 2.04338,39.20641 -0.0694,33.85284 -0.27054,37.0033 -2.46204,38.55722 -1.99744,1.41633 -2.51482,4.44163 -3.17368,18.5579 -0.80433,17.23306 -0.24288,19.99131 4.36985,21.46766 2.69016,0.86101 3.58086,0.23593 11.20432,-7.8629 z m -241.87099,2.86287 c 0,-1.1 0.86459,-2 1.92131,-2 1.05672,0 2.34692,-0.68866 2.86712,-1.53036 0.5202,-0.8417 1.12364,-20.4917 1.34099,-43.66667 l 0.39517,-42.13631 3.16203,-2.66667 c 2.90365,-2.44877 3.10011,-3.37459 2.40437,-11.33046 l -0.75766,-8.6638 -7.92122,-1.10091 c -5.12633,-0.71247 -9.02496,-0.59801 -11.04944,0.32441 -2.96821,1.3524 -3.08476,1.88599 -2.27857,10.43137 0.56417,5.98008 1.6314,9.74287 3.17632,11.19899 1.8741,1.76637 2.34566,4.61102 2.4243,14.62433 0.10067,12.81891 -1.01635,17.18274 -4.3983,17.18274 -1.62862,0 -1.97934,3.59949 -2.11107,21.66667 -0.19399,26.60565 -0.3872,25.05318 3.55982,28.60271 2.10793,1.89565 3.26483,4.37612 3.26483,7 0,2.72352 0.65967,4.06396 2,4.06396 1.1,0 2,-0.9 2,-2 z M 196.00001,852.00006 c 0,-0.73333 -0.63542,-1.33333 -1.41203,-1.33333 -0.77661,0 -1.0412,0.6 -0.58798,1.33333 0.45323,0.73334 1.08864,1.33334 1.41203,1.33334 0.32339,0 0.58798,-0.6 0.58798,-1.33334 z m 6.40746,-8.32112 c 0.38589,-1.98889 -5.89576,-9.01221 -8.06051,-9.01221 -2.15028,0 -0.87354,5.97724 1.90953,8.93968 3.16679,3.3709 5.50569,3.39848 6.15098,0.0725 z m 65.79233,-7.67888 c 1.56917,-4.50133 5.03844,-5.26014 7.32314,-1.60176 1.28608,2.05934 3.78085,2.44831 17.65407,2.75255 13.34708,0.29269 16.15633,0.02 16.15633,-1.56832 0,-1.05744 0.85985,-2.63623 1.91078,-3.50842 1.51893,-1.2606 2.47595,-1.02065 4.66667,1.17007 3.35133,3.35133 2.99999,3.34669 6.75588,0.0892 1.69109,-1.46667 4.44748,-2.66667 6.12533,-2.66667 1.67785,0 3.41303,-0.58637 3.85596,-1.30305 0.44293,-0.71667 0.92834,-18.09055 1.07869,-38.6086 l 0.27336,-37.30556 -5.91171,-6.02488 -5.91171,-6.02488 0.47397,-14.36652 c 0.26068,-7.90159 0.52095,-16.46652 0.57837,-19.03319 0.0838,-3.74297 0.63224,-4.66666 2.77108,-4.66666 2.30812,0 2.72015,1.02149 3.06447,7.59727 0.32263,6.1617 0.88951,7.75335 3,8.42319 1.8935,0.60097 2.6022,2.03353 2.6022,5.26007 0,5.28615 1.48062,6.0528 11.68978,6.0528 5.55044,0 8.17947,-0.66335 10.22428,-2.57975 1.51393,-1.41887 4.44691,-2.80515 6.51774,-3.08064 5.21897,-0.69428 6.19096,-2.88496 6.21445,-14.00628 0.016,-7.59121 0.43974,-9.66666 1.9735,-9.66666 1.0742,0 2.6148,-1.23641 3.42355,-2.74758 0.94072,-1.75776 2.51872,-2.59835 4.38024,-2.33334 2.83985,0.40429 2.91051,0.88957 2.93968,20.18977 0.0176,11.62531 -0.51328,20.11121 -1.28805,20.59004 -0.72486,0.44799 -3.43831,1.15914 -6.02989,1.58032 l -4.71195,0.76579 -0.17519,45.30664 c -0.0964,24.91866 0.3689,46.73772 1.0339,48.48681 1.10379,2.9032 1.40935,3.0012 3.50853,1.12528 1.84794,-1.65142 7.05002,-2.14411 26.49433,-2.50931 21.28948,-0.39985 24.52241,-0.75097 26.92216,-2.92395 1.49999,-1.35825 4.11228,-2.46733 5.80509,-2.46463 136.47687,0.21776 130.21239,0.0714 131.82302,3.08084 0.93593,1.74882 1.97353,2.33462 2.75356,1.5546 1.24084,-1.24084 2.64431,-86.10287 1.47799,-89.36795 -0.32745,-0.91666 -1.98209,-1.66666 -3.67699,-1.66666 -4.35935,0 -7.29973,-1.33465 -7.29973,-3.31336 0,-0.9321 -1.21888,-2.5179 -2.70863,-3.52402 -2.93111,-1.97955 -2.95146,-2.25795 -2.86171,-39.16263 0.0508,-20.87916 0.20915,-24.87623 1.03886,-26.21874 1.36973,-2.21627 8.41007,-1.16614 9.8179,1.46442 2.23791,4.18157 1.70608,19.02911 -0.81029,22.62174 -2.03871,2.91066 -2.02964,3.39984 0.13092,7.05737 1.2768,2.16146 2.02784,5.05272 1.66897,6.42503 -0.35886,1.37232 -0.0815,5.17248 0.61646,8.44481 1.23364,5.78412 1.4244,5.96253 6.8549,6.41087 3.07228,0.25364 11.77953,0.16117 19.34946,-0.2055 11.27765,-0.54625 13.99879,-1.08809 15.06625,-3 0.71651,-1.28333 2.14431,-2.33333 3.17288,-2.33333 1.36278,0 1.97781,-2.26071 2.26708,-8.33333 0.34831,-7.31213 0.72374,-8.33334 3.06362,-8.33334 2.46717,0 2.69501,1.0152 3.04558,13.57045 0.36783,13.17344 0.27605,13.66582 -3.13732,16.83087 l -3.51623,3.26044 0.52136,46.2491 c 0.43652,38.72315 0.83856,46.44973 2.47065,47.48204 1.07211,0.67812 8.37617,1.24213 16.23123,1.25336 l 14.28195,0.0204 1.4546,-5.402 c 0.80004,-2.97109 2.32316,-5.73529 3.38473,-6.14265 1.06157,-0.40736 1.93012,-2.45534 1.93012,-4.55109 0,-2.44583 0.95499,-4.32154 2.66666,-5.2376 3.142,-1.68154 3.5098,-5.09348 0.66667,-6.18449 -2.73565,-1.04977 -2.50826,-3.48812 0.66667,-7.14884 3.92336,-4.52367 3.90036,-21.50538 -0.0327,-24.17071 -3.15028,-2.13483 -3.43175,-6.26684 -2.39004,-35.08641 0.65778,-18.19785 0.60599,-18.6516 -2.45263,-21.48623 -3.79699,-3.51894 -3.82131,-3.95032 -0.46323,-8.21942 2.9848,-3.79456 2.67261,-9.51804 -0.61967,-11.36049 -2.56737,-1.43677 -2.65249,-4.85939 -0.14479,-5.82169 1.0433,-0.40035 2.33633,-1.73152 2.87339,-2.95815 0.53706,-1.22663 1.11946,-16.82363 1.29423,-34.65999 0.28473,-29.05921 0.09,-32.51008 -1.87339,-33.20267 -1.20512,-0.42511 -3.09113,-1.51494 -4.19113,-2.42186 -1.1,-0.90692 -3.89806,-2.05199 -6.21791,-2.54459 -3.51974,-0.7474 -4.36223,-0.44091 -5.08985,1.85161 -0.68007,2.14271 -1.99314,2.74725 -5.96704,2.74725 -4.76784,0 -5.15136,-0.2999 -5.97104,-4.66916 -0.86829,-4.62843 -6.58241,-11.33084 -9.66005,-11.33084 -0.8799,0 -1.78603,2.20362 -2.01363,4.89694 -0.2276,2.69331 -1.14972,5.13861 -2.04915,5.434 -0.89944,0.29538 -4.22863,-2.20824 -7.39821,-5.5636 -3.45028,-3.65252 -6.94072,-6.10067 -8.698,-6.10067 -3.00431,0 -3.898,2.46776 -1.71415,4.73333 1.11466,1.15637 1.93606,6.81532 1.58698,10.93334 -0.25739,3.03632 -3.00373,1.7373 -9.16135,-4.33334 -6.63455,-6.54083 -11.31779,-7.68477 -13.64661,-3.33333 -1.93455,3.61476 -4.87163,3.35212 -8.40119,-0.75123 -1.99671,-2.32132 -3.68732,-3.13111 -5.26938,-2.52402 -2.85565,1.09582 -3.04669,4.04804 -0.32943,5.09075 3.15309,1.20995 2.33546,4.78963 -1.42013,6.2175 -5.03464,1.91417 -5.41691,1.779 -11.40578,-4.033 -3.0226,-2.93333 -5.76615,-5.33333 -6.09677,-5.33333 -0.33062,0 -1.50113,0.9 -2.60113,2 -2.55573,2.55573 -10.98026,2.64182 -11.94717,0.12207 -0.74457,-1.94032 -5.10888,-3.96955 -11.58465,-5.3864 -3.25471,-0.7121 -3.89919,-0.30699 -5.13044,3.22496 -1.89647,5.44022 -4.59156,5.08501 -10.57242,-1.39343 -3.9786,-4.3096 -5.79696,-5.34332 -8.79519,-5 -3.33138,0.38146 -3.86753,1.09118 -4.52062,5.98407 -0.96758,7.24896 -3.23488,9.78206 -8.75562,9.78206 -4.05098,0 -4.50341,-0.37773 -4.50341,-3.75986 0,-5.52753 -6.46334,-12.24014 -11.7856,-12.24014 -3.83547,0 -4.2144,0.37641 -4.2144,4.18634 0,2.36418 0.96482,4.89184 2.21664,5.80719 3.89099,2.84516 1.22033,6.23066 -4.53926,5.75426 -4.27946,-0.35397 -5.04019,-0.90092 -5.21266,-3.74779 -0.11107,-1.83333 -0.26107,-4.08333 -0.33334,-5 -0.0815,-1.03366 -2.15701,-1.66667 -5.46472,-1.66667 -4.9866,0 -5.33333,0.24943 -5.33333,3.83674 0,2.11021 -0.86088,4.55121 -1.91306,5.42445 -1.55204,1.28808 -2.94036,0.52914 -7.35675,-4.02165 -5.31259,-5.47426 -5.67352,-5.61636 -14.98696,-5.90048 -7.93804,-0.24216 -9.93245,-0.77174 -11.85698,-3.14843 -1.27253,-1.57151 -2.98237,-2.8573 -3.79964,-2.8573 -0.81727,0 -2.06151,-1.51383 -2.76497,-3.36408 -0.99139,-2.60756 -1.95846,-3.20426 -4.30033,-2.6534 -4.15262,0.9768 -6.67586,-0.99661 -6.13732,-4.79997 0.33192,-2.34417 1.15294,-3.06061 3.11666,-2.71968 1.46631,0.25458 4.56623,0.55458 6.88871,0.66667 2.32249,0.11209 5.62249,1.51732 7.33334,3.12273 2.25382,2.11493 5.13056,3.03308 10.44397,3.33334 6.44023,0.36393 7.38522,0.77975 7.7594,3.41439 0.30373,2.13863 1.32521,3 3.55762,3 5.63587,0 7.34964,-1.39426 7.34964,-5.97939 0,-2.39841 0.90742,-5.11384 2.01647,-6.03427 1.66821,-1.3845 2.54349,-1.10486 5.068,1.61913 4.0365,4.35546 14.63271,4.34347 17.68901,-0.02 1.87763,-2.68069 2.72918,-2.75604 22.92164,-2.02826 15.52283,0.55947 21.35616,1.23482 22.45188,2.59933 1.88613,2.34884 4.49429,2.2821 7.77451,-0.19893 3.77267,-2.85351 9.70238,-2.48506 11.41183,0.70907 1.79088,3.34628 10.66667,3.87356 10.66667,0.63367 0,-1.11815 1.5,-2.6033 3.33333,-3.30034 2.44108,-0.92809 3.3388,-2.25764 3.35375,-4.967 0.0112,-2.03481 0.5655,-4.56108 1.23171,-5.61393 1.98394,-3.1353 5.41454,0.79446 5.41454,6.20235 0,3.53781 -0.64112,4.79589 -2.72119,5.33984 -3.98525,1.04217 -2.41107,3.63918 2.49971,4.12391 2.89844,0.28609 4.49296,-0.24121 5.03997,-1.66667 1.01933,-2.65636 5.32148,-2.71423 6.33035,-0.0852 0.50134,1.30649 2.57742,2 5.98714,2 4.09833,0 5.36948,-0.57288 5.91702,-2.66667 1.24583,-4.76405 8.19448,-3.48876 14.61712,2.68269 6.09318,5.85488 8.08877,6.1302 8.79097,1.21287 0.82878,-5.80368 2.25473,-6.32057 17.66724,-6.40408 8.06612,-0.0437 15.23702,-0.43258 15.93534,-0.86416 3.62467,-2.24017 -0.55077,-9.96065 -5.38698,-9.96065 -1.35639,0 -5.16616,-2.7 -8.46616,-6 -3.3,-3.3 -7.21196,-6 -8.69324,-6 -3.08759,0 -4.88419,-2.07652 -2.87237,-3.3199 3.75871,-2.32301 -0.19998,-2.9446 -16.31159,-2.56121 -19.93671,0.47441 -22.33333,0.0943 -22.33333,-3.54208 0,-3.41923 -3.02641,-3.29482 -4.68383,0.19254 -1.12623,2.3697 -2.71429,2.82373 -11.00442,3.14622 -6.68813,0.26016 -10.43664,1.05414 -12.10499,2.56398 -4.14219,3.74863 -6.66565,2.75257 -7.12627,-2.81289 l -0.41382,-5 -7.55674,-0.39659 c -6.63062,-0.34799 -7.66293,-0.062 -8.42319,2.33333 -1.12578,3.54702 -5.18471,3.49818 -7.56787,-0.091 -1.76298,-2.65519 -2.92465,-2.81064 -19.76637,-2.64505 -16.11609,0.15845 -18.18481,0.44977 -20.82809,2.933 -2.84385,2.67166 -4.05746,2.74328 -39.17157,2.31172 -33.98533,-0.41769 -36.35372,-0.60534 -38.11844,-3.02024 -1.84609,-2.52625 -1.94151,-2.51863 -5.05146,0.40302 -3.13649,2.94658 -3.5047,2.97171 -35.00972,2.38956 -17.51194,-0.32359 -32.73989,-0.61524 -33.83989,-0.64811 -11.33101,-0.33863 -14.77302,-0.26256 -19.59955,0.43318 -3.93918,0.56782 -5.84378,1.57664 -6.42319,3.4022 -1.07273,3.37988 -4.13909,3.33622 -5.03026,-0.0716 -0.91396,-3.495 -5.17187,-3.41447 -7.39154,0.13979 -1.74805,2.79907 -1.76029,2.79952 -4.65406,0.17 -4.20761,-3.82338 -9.68195,-4.46392 -12.40786,-1.45182 -2.70833,2.99266 -4.38267,3.12281 -6.34655,0.49332 -0.81418,-1.09012 -3.36992,-2.35304 -5.67943,-2.80649 -3.44604,-0.67659 -4.35212,-0.34236 -5.05228,1.86366 -1.20488,3.79623 -9.25678,9.59154 -13.32632,9.59154 -1.88226,0 -3.48908,0.75 -3.5707,1.66666 -0.66384,7.45534 -0.26169,12.10414 1.1484,13.27544 1.27957,1.06288 1.66667,0.30055 1.66667,-3.28225 0,-4.88652 2.75528,-8.4228 5.68626,-7.29808 1.00802,0.38682 1.8335,3.26288 1.99383,6.94672 0.23046,5.29531 -0.14766,6.39677 -2.39801,6.98524 -2.09805,0.54866 -2.34428,1.09306 -1.14692,2.53579 0.83858,1.01043 2.87776,1.83714 4.53151,1.83714 1.65374,0 3.75374,0.9 4.66666,2 2.19289,2.64228 3.88891,2.52794 4.94459,-0.33333 0.4735,-1.28333 1.49902,-2.75796 2.27894,-3.27695 0.94888,-0.63141 0.6092,-2.31287 -1.02666,-5.08217 -2.7241,-4.61152 -2.13797,-9.86653 1.24528,-11.1648 3.35902,-1.28898 4.55785,0.27232 4.55785,5.93594 0,2.89006 0.58093,5.25465 1.29095,5.25465 0.71002,0 4.31537,2.93044 8.01188,6.51209 6.45001,6.24959 7.08325,6.53721 15.70905,7.13496 4.94347,0.34257 9.65223,0.10994 10.46391,-0.51694 0.81168,-0.62689 3.2421,-0.78654 5.40092,-0.35477 3.30553,0.66111 4.17306,0.24092 5.49563,-2.66182 1.75994,-3.86264 4.48033,-4.43588 6.94691,-1.46384 2.18278,2.6301 0.75753,6.01698 -2.53204,6.01698 -2.88478,0 -4.83803,2.06586 -3.01723,3.19118 0.63075,0.38982 3.39797,0.34345 6.14939,-0.10304 4.62419,-0.7504 4.94677,-1.09079 4.26486,-4.50034 -0.91335,-4.56677 1.91822,-7.24881 7.22596,-6.84437 2.64997,0.20192 4.24882,-0.52726 5.24743,-2.39318 1.047,-1.95633 2.77849,-2.67865 6.3893,-2.66537 8.26905,0.0304 11.01728,1.30278 11.85441,5.48841 0.83308,4.16543 1.73151,4.66054 4.121,2.27106 0.9142,-0.9142 6.10762,-1.60144 12.59494,-1.66667 6.37804,-0.0641 11.05004,-0.674 11.06476,-1.44434 0.0985,-5.15458 4.81318,-6.0136 7.31798,-1.33334 0.98117,1.83334 2.56144,3.33334 3.51172,3.33334 0.95028,0 2.37001,1.2 3.15494,2.66666 0.78494,1.46667 2.30605,2.66667 3.38025,2.66667 1.0742,0 1.95309,0.66339 1.95309,1.47419 0,0.81081 1.42503,3.16775 3.16673,5.23764 2.21785,2.63577 2.96404,4.82374 2.49029,7.302 -1.04059,5.44352 -3.93042,5.49055 -9.27008,0.15089 -5.8523,-5.8523 -7.05361,-6.00919 -7.05361,-0.92123 0,2.69891 0.80132,4.16447 2.58683,4.73117 1.98465,0.62991 2.51871,1.88596 2.29418,5.39568 -0.36232,5.66369 -3.04496,8.91151 -4.91611,5.95185 -0.69157,-1.09387 -1.34159,-3.03885 -1.44448,-4.32219 -0.1029,-1.28333 -0.26209,-3.08333 -0.35375,-4 -0.0917,-0.91666 -1.51667,-1.85839 -3.16667,-2.09273 -1.65,-0.23434 -3,-1.03049 -3,-1.76923 0,-1.71861 -7.3789,-9.13804 -9.08812,-9.13804 -0.71128,0 -1.63861,0.9 -2.06072,2 -0.42211,1.1 -1.58999,2 -2.59529,2 -1.00531,0 -2.52768,1.53601 -3.38306,3.41335 -1.32723,2.91296 -2.28707,3.35276 -6.54735,3 -4.29572,-0.35568 -5.04967,-0.91124 -5.40461,-3.98244 -0.22686,-1.963 -1.27686,-4.28647 -2.33333,-5.16326 -1.59596,-1.32453 -1.92431,-0.94637 -1.94127,2.23576 -0.0239,4.48405 -1.09874,6.36611 -4.31292,7.552 -1.28333,0.4735 -2.33333,1.71554 -2.33333,2.76009 0,2.88788 -3.65655,3.67081 -6.03512,1.29224 -1.9275,-1.9275 -1.88441,-2.35996 0.49259,-4.94335 2.59628,-2.8217 2.59224,-2.84333 -1.2224,-6.54484 l -3.82728,-3.71378 -0.88775,3.71378 c -1.60489,6.71391 -1.99045,6.82133 -24.61155,6.85691 -19.96471,0.0314 -21.44655,-0.14104 -23.90694,-2.78195 -2.41369,-2.5908 -2.81094,-2.64602 -4.97893,-0.69218 -1.29577,1.16778 -4.15596,2.55092 -6.35596,3.07364 -3.97439,0.94431 -9.8603,6.53215 -9.95205,9.44805 -0.0264,0.83821 0.85205,1.86938 1.95205,2.29149 1.1,0.42211 2,1.64587 2,2.71946 0,1.0736 1.2,2.33287 2.66667,2.79837 3.11898,0.98992 3.56928,5.36833 0.66667,6.48217 -1.1,0.42211 -2,1.61283 -2,2.64606 0,1.03322 0.9,2.62552 2,3.53843 1.74129,1.44515 2,13.19425 2,90.82994 0,87.3923 0.0532,89.22324 2.66666,91.83675 1.46667,1.46666 2.66667,3.99412 2.66667,5.61658 0,2.67601 5.79576,8.88524 8.40269,9.00213 0.58815,0.0264 1.69685,-1.75205 2.46377,-3.95205 z M 376.50668,688.73057 c -1.20667,-3.14453 0.72331,-5.02434 2.91167,-2.83598 1.05325,1.05324 1.91499,2.55784 1.91499,3.34356 0,2.13943 -3.97116,1.72182 -4.82666,-0.50758 z m -49.84,-18.06385 c 0,-0.73334 0.6,-1.33334 1.33333,-1.33334 0.73333,0 1.33333,0.6 1.33333,1.33334 0,0.73333 -0.6,1.33333 -1.33333,1.33333 -0.73333,0 -1.33333,-0.6 -1.33333,-1.33333 z m 49.33333,-5.46282 c 0,-0.90656 0.37889,-1.2694 0.84198,-0.80632 0.46308,0.46309 2.03251,0.20483 3.4876,-0.57392 2.06504,-1.10517 2.5157,-1.02173 2.05359,0.38025 -0.76233,2.31275 -6.38317,3.19331 -6.38317,0.99999 z m 178.73896,-4.45008 c -0.87317,-1.0521 -1.39663,-3.89719 -1.16326,-6.32242 0.45748,-4.75423 2.75577,-5.9732 8.52976,-4.52402 2.63369,0.66101 3.22788,1.65586 3.22788,5.40449 0,6.42395 -6.85646,9.94586 -10.59438,5.44195 z M 324.00001,646.77783 c 0,-1.63779 0.86092,-2.77778 2.09776,-2.77778 1.24166,0 1.92183,0.90716 1.66667,2.22284 -0.64873,3.34503 -3.76443,3.80433 -3.76443,0.55494 z m 229.84001,-4.71393 c -1.1444,-2.98227 0.60813,-4.73052 4.74209,-4.73052 4.04018,0 7.52475,3.00308 6.12067,5.27493 -1.32323,2.14102 -9.99912,1.70621 -10.86276,-0.54441 z m -183.17334,-1.27236 c 0,-1.2152 0.93326,-1.63112 2.65167,-1.18175 1.45842,0.38139 2.323,1.22522 1.92131,1.87518 -1.1642,1.88371 -4.57298,1.36682 -4.57298,-0.69343 z m 236.57192,-3.89096 c -0.36327,-0.94664 -0.49055,-4.98653 -0.28287,-8.97752 0.32481,-6.24159 0.75054,-7.25635 3.04429,-7.25635 2.17872,0 2.71442,0.97589 2.92767,5.33334 0.14355,2.93333 -0.001,6.61715 -0.32183,8.18626 -0.6812,3.33445 -4.40638,5.21831 -5.36726,2.71427 z M 467.00001,572.39573 c -2.27802,-0.84457 -2.1088,-5.27405 0.23585,-6.17378 1.04638,-0.40154 2.64484,0.16438 3.55213,1.2576 1.32122,1.59197 1.27427,2.34067 -0.23585,3.76088 -1.037,0.97527 -2.63546,1.49516 -3.55213,1.1553 z m -250.40203,247.1181 c 3.5862,-3.32358 4.55145,-8.57669 1.73536,-9.44425 -0.91667,-0.2824 -3.31667,-0.875 -5.33333,-1.31689 -2.02949,-0.4447 -3.66667,-1.70378 -3.66667,-2.81988 0,-1.10904 -1.05,-2.40156 -2.33333,-2.87226 -1.28334,-0.47069 -4.33374,-3.15612 -6.77867,-5.96762 -2.44494,-2.81149 -4.99494,-4.77214 -5.66667,-4.35698 -2.57497,1.59141 -1.09879,6.8217 2.82047,9.99333 7.65467,6.19446 8.17255,6.9019 7.37595,10.07578 -0.58149,2.31684 -0.0227,3.48334 2.2369,4.66964 1.65661,0.86973 3.49183,2.39373 4.07827,3.38667 1.40139,2.3728 1.55878,2.33446 5.53172,-1.34754 z m 14.87801,-5.62282 c -0.44512,-1.15998 -0.80932,-2.39539 -0.80932,-2.74535 0,-0.34997 -0.57379,-0.28169 -1.2751,0.15175 -1.54795,0.95668 -0.30498,4.70265 1.56041,4.70265 0.73333,0 0.96914,-0.94907 0.52401,-2.10905 z m -12.80932,-15.22428 c 0,-0.73334 -1.23541,-1.33334 -2.74535,-1.33334 -1.50995,0 -2.37454,0.6 -1.92131,1.33334 0.45322,0.73333 1.68863,1.33333 2.74535,1.33333 1.05672,0 1.92131,-0.6 1.92131,-1.33333 z m 13.79125,-4.97191 c 0.70299,-4.33202 0.26278,-5.53322 -3.42043,-9.33333 -5.10555,-5.2676 -6.37082,-5.44562 -6.37082,-0.89638 0,2.15726 1.56337,4.92546 4.14222,7.33447 2.49709,2.33263 3.83758,4.66328 3.37518,5.86828 -0.42187,1.09938 -0.26437,1.99887 0.34999,1.99887 0.61437,0 1.48011,-2.23736 1.92386,-4.97191 z m -29.79125,-7.61607 c 0,-2.12351 -2.41914,-4.10399 -3.58676,-2.93638 -1.09685,1.09686 0.61536,4.85769 2.21158,4.85769 0.75635,0 1.37518,-0.86459 1.37518,-1.92131 z m 14.12237,-7.74536 c 4.19168,-3.97329 4.02053,-5 -0.83348,-5 -5.53102,0 -13.28889,-7.70541 -13.28889,-13.19904 0,-2.71974 -0.79422,-4.20667 -2.54349,-4.76187 -1.39892,-0.444 -2.88009,-1.68443 -3.29149,-2.75651 -1.55233,-4.04531 -3.49835,-1.71873 -3.49835,4.18247 0,5.08699 0.67814,6.7652 3.98014,9.84973 2.18907,2.04491 4.88907,4.0668 6,4.4931 1.11092,0.4263 2.01986,1.59254 2.01986,2.59164 0,0.99909 1.5,2.61931 3.33333,3.60048 1.83334,0.98117 3.33334,2.28256 3.33334,2.89197 0,1.8413 1.4584,1.26514 4.78903,-1.89197 z m 9.11202,-12.11038 c -0.46916,-1.22262 -1.38883,-2.22295 -2.04371,-2.22295 -1.39418,0 -1.60964,4.46993 -0.27957,5.8 1.49958,1.49958 3.24194,-1.18305 2.32328,-3.57705 z m -5.29536,-11.1214 c 0.64532,-2.57116 0.17848,-3.9018 -1.87307,-5.33876 -3.56109,-2.49429 -3.55792,-7.12996 0.006,-8.06182 2.14851,-0.56185 2.65097,-1.61169 2.33333,-4.87518 -0.35345,-3.63137 -0.96319,-4.21278 -4.80517,-4.58194 -5.48102,-0.52664 -6.93298,-3.80713 -6.93298,-15.66399 0,-6.78549 -0.42359,-8.57987 -2.0254,-8.57987 -1.47374,0 -1.80603,0.87409 -1.21996,3.20915 0.93361,3.71982 -1.36195,8.79085 -3.97945,8.79085 -1.85295,0 -3.37886,4.85567 -2.42508,7.71699 0.29633,0.88899 1.34834,1.61635 2.33782,1.61635 2.05394,0 3.90137,4.63446 2.65278,6.65473 -1.24749,2.01849 -4.82521,1.62176 -7.54126,-0.83622 -2.16216,-1.95673 -2.49265,-1.96747 -3.20766,-0.10419 -0.79932,2.08301 0.34752,4.80551 3.97348,9.43264 1.88679,2.40776 2.05919,2.39801 5.89501,-0.33333 2.17325,-1.5475 4.60875,-2.81363 5.41221,-2.81363 2.66021,0 1.58674,6.50547 -1.33116,8.06708 -2.78079,1.48823 -2.78146,1.50581 -0.16662,4.38024 1.44397,1.58731 3.32148,4.23601 4.17225,5.88601 1.45135,2.81476 1.74196,2.87217 4.70635,0.92982 1.73772,-1.13859 3.5463,-3.61131 4.01905,-5.49493 z m 6.06097,-41.65917 c 0,-1.40669 0.35396,-3.48001 0.78657,-4.60738 0.46557,-1.21326 -0.62269,-3.45901 -2.66667,-5.50299 -1.89928,-1.89927 -3.45323,-4.89055 -3.45323,-6.64727 0,-1.75672 -0.51279,-3.51095 -1.13952,-3.8983 -1.66869,-1.0313 -6.37272,4.63084 -7.37757,8.88022 -0.77067,3.25908 -0.4937,3.66667 2.49169,3.66667 4.30519,0 9.15306,4.75984 8.2735,8.12327 -0.42153,1.61194 0.0216,2.54339 1.21006,2.54339 1.03134,0 1.87517,-1.15092 1.87517,-2.55761 z m -23.6191,-10.7965 c -1.07175,-4.0984 -3.04756,-4.56816 -3.04756,-0.72458 0,2.04308 0.75234,3.41203 1.87517,3.41203 1.22357,0 1.63096,-0.93387 1.17239,-2.68745 z m -0.3809,-20.72458 c 0,-1.05672 -0.6,-1.92131 -1.33333,-1.92131 -0.73333,0 -1.33333,1.23541 -1.33333,2.74536 0,1.50994 0.6,2.37453 1.33333,1.92131 0.73333,-0.45323 1.33333,-1.68864 1.33333,-2.74536 z m 15.58073,0.51294 c 1.69727,-1.5945 3.08594,-3.92103 3.08594,-5.17007 0,-3.01943 -3.15249,-5.50571 -5.72791,-4.51743 -1.1745,0.4507 -3.26102,-0.40234 -4.83567,-1.97699 -3.81115,-3.81115 -5.43642,-3.47022 -5.43642,1.14039 0,2.65662 0.80399,4.16533 2.50789,4.70612 1.41312,0.44851 2.85367,2.52487 3.3,4.75652 0.94096,4.70481 2.91426,4.99956 7.10617,1.06146 z m -14.24739,-23.17961 c 0,-1.87609 -0.77825,-3.25464 -1.83738,-3.25464 -1.01055,0 -2.70214,-1.30241 -3.75908,-2.89425 -1.12223,-1.69018 -2.57663,-2.48949 -3.49596,-1.92131 -2.30539,1.42481 -2.00741,2.34915 2.53303,7.85749 4.4105,5.3507 6.55939,5.42039 6.55939,0.21271 z m 17.07991,0.5017 c 0.28705,-2.48474 -0.39594,-4.01005 -2.23675,-4.99521 -3.85198,-2.06152 -6.84316,-0.38917 -6.84316,3.82597 0,4.60316 1.05886,5.63344 5.28343,5.14078 2.55425,-0.29787 3.48449,-1.27101 3.79648,-3.97154 z m -11.74658,-29.75634 c 0,-1.1 -0.6,-2 -1.33333,-2 -0.73334,0 -1.33334,0.9 -1.33334,2 0,1.1 0.6,2 1.33334,2 0.73333,0 1.33333,-0.9 1.33333,-2 z m 223.60953,-33.62858 c -2.14603,-2.14603 -2.27619,-2.12007 -2.27619,0.45397 0,1.50159 0.41,3.14016 0.91111,3.64127 0.50111,0.50111 1.5254,0.29683 2.27619,-0.45397 0.93122,-0.93121 0.64164,-2.08852 -0.91111,-3.64127 z m 119.63015,-0.80137 c -0.47207,-1.2302 -1.35368,-2.23672 -1.95914,-2.23672 -1.56955,0 -2.95988,5.02811 -1.8755,6.78268 1.39619,2.25907 4.86703,-1.85561 3.83464,-4.54596 z m -302.38852,1.09661 c 0.42211,-1.1 0.36606,-3.04608 -0.12457,-4.32463 -0.7942,-2.06966 -1.16402,-1.96406 -3.3717,0.96272 -1.36381,1.80805 -2.19117,3.75413 -1.83858,4.32463 1.09017,1.76394 4.5265,1.14382 5.33485,-0.96272 z m -26.54561,-41.47222 c -0.44305,-0.44306 -1.59305,-0.49043 -2.55555,-0.10527 -1.06364,0.42564 -0.7477,0.74158 0.80555,0.80556 1.40556,0.0579 2.19306,-0.25724 1.75,-0.70029 z m 4.77475,-17.9655 c 0.68513,-2.61995 6.63754,-3.32699 24.9197,-2.96004 11.78169,0.23648 75.42238,0.65584 80.12932,0.52801 2.69533,-0.0732 6.12044,-1.27894 7.81982,-2.7528 2.84555,-2.46794 5.27482,-2.63173 41.20401,-2.77816 20.9991,-0.0856 38.78019,-0.11311 39.51352,-0.0612 0.73333,0.052 19.33333,0.31919 41.33334,0.59386 38.52755,0.48103 40.10877,0.40104 42.95491,-2.17302 2.6488,-2.39559 5.21561,-2.72383 24.77712,-3.16851 l 21.82219,-0.49606 1.528,3.35361 1.52801,3.3536 17.72644,-0.40227 c 9.74954,-0.22125 18.46223,-0.85703 19.36155,-1.41283 2.27458,-1.40577 2.04563,-6.25753 -0.37938,-8.03952 -1.36387,-1.00223 -2.21938,-4.67614 -2.64891,-11.37549 -0.50619,-7.89523 -1.24434,-10.54447 -3.65217,-13.10777 -2.66785,-2.84011 -2.99528,-4.47556 -2.82391,-14.10484 0.10662,-5.99073 0.25662,-14.54592 0.33333,-19.01155 0.12544,-7.30193 0.47506,-8.27221 3.47282,-9.63808 2.6277,-1.19726 3.33333,-2.50277 3.33333,-6.16711 0,-3.25468 0.7848,-5.06835 2.61759,-6.04923 2.0453,-1.09461 2.59099,-2.72612 2.49592,-7.4624 -0.0977,-4.86585 0.58834,-6.80259 3.47779,-9.81853 1.9797,-2.06637 3.48545,-4.5794 3.34611,-5.58452 -0.50807,-3.66471 0.11647,-4.99821 2.72926,-5.82748 1.91557,-0.60798 2.66667,-2.01738 2.66667,-5.00392 0,-2.46623 1.21036,-5.44592 2.97529,-7.32461 2.17407,-2.31418 2.93584,-4.67121 2.82876,-8.7526 -0.15556,-5.92942 3.99309,-12.60522 9.03743,-14.54258 1.66949,-0.64119 2.49185,-2.28114 2.49185,-4.96926 0,-2.81972 1.00132,-4.66832 3.369,-6.21968 2.72259,-1.78391 3.29819,-3.12288 3,-6.97859 -0.31592,-4.08481 0.17239,-5.03554 3.39458,-6.60916 2.52966,-1.23541 3.50332,-2.51623 2.96976,-3.90665 -1.12887,-2.94179 0.43478,-7.02629 2.68984,-7.02629 1.08662,0 1.918,-1.29341 1.92836,-3 0.0325,-5.35489 1.50759,-8.73932 4.10507,-9.41857 2.27568,-0.5951 2.54339,-1.98977 2.54339,-13.24996 0,-10.67299 0.38505,-12.93331 2.53463,-14.87865 3.25996,-2.95022 4.28204,-8.66896 4.31377,-24.13627 0.0189,-9.22768 0.52801,-12.9124 1.94666,-14.08978 1.61891,-1.34358 1.07838,-2.42032 -3.43702,-6.84651 -5.16505,-5.06303 -5.35804,-5.56383 -5.35804,-13.90389 0,-4.75843 0.62436,-9.81832 1.38747,-11.2442 1.12413,-2.10045 0.74453,-3.18835 -2,-5.7319 -1.86311,-1.72667 -3.38747,-3.72429 -3.38747,-4.43915 0,-0.71487 -1.5,-1.9832 -3.33333,-2.81853 -2.96971,-1.35308 -3.33334,-2.32186 -3.33334,-8.88068 0,-5.58414 -0.64395,-8.00588 -2.66666,-10.02859 -1.46667,-1.46667 -2.66667,-3.60724 -2.66667,-4.75684 0,-2.37491 -15.16543,-17.90983 -17.48385,-17.90983 -0.99322,0 -1.22307,-1.46539 -0.66642,-4.24865 0.78192,-3.90959 0.18743,-4.86725 -7.44928,-12 -4.56446,-4.26324 -8.62956,-7.75135 -9.03356,-7.75135 -0.404,0 -1.33129,-1.35 -2.06064,-3 -0.97429,-2.20412 -2.26968,-2.90234 -4.88286,-2.63187 -2.26393,0.23431 -4.19893,-0.53549 -5.32342,-2.11783 -0.97165,-1.36727 -3.5373,-2.92464 -5.70145,-3.46082 -2.16414,-0.53619 -6.59309,-3.63317 -9.8421,-6.88218 -4.59717,-4.59717 -6.88169,-5.9073 -10.30076,-5.9073 -3.03203,0 -4.52705,-0.68605 -4.82456,-2.21395 -0.24987,-1.28319 -2.67328,-2.84018 -5.76444,-3.70353 -4.88708,-1.36494 -5.38911,-1.93274 -6,-6.78605 -0.63162,-5.01809 -0.89731,-5.28582 -5.05494,-5.0939 -3.29526,0.15212 -4.91093,-0.59511 -6.48668,-3 -1.54979,-2.36529 -3.311,-3.20257 -6.73655,-3.20257 -3.43916,0 -4.80979,-0.65638 -5.30215,-2.53914 -0.43469,-1.662271 -2.64215,-3.037247 -6.39208,-3.981491 -3.15045,-0.793292 -6.07665,-2.350679 -6.50266,-3.460861 -0.49111,-1.279816 -2.51302,-2.018511 -5.52494,-2.018511 -3.3073,0 -5.01188,-0.708817 -5.61125,-2.333334 -1.36804,-3.707838 -3.13566,-4.291218 -13.06802,-4.312916 -7.88888,-0.01723 -9.60557,-0.436157 -11.0113,-2.687084 -1.31068,-2.098735 -3.10937,-2.666667 -8.44555,-2.666667 -5.65886,0 -6.89553,-0.441025 -7.47755,-2.666667 -0.72264,-2.76338 -1.10816,-2.923677 -7.64716,-3.179612 -3.02255,-0.118302 -4.11401,-0.921767 -4.73696,-3.487055 -0.72601,-2.98964 -1.38034,-3.287745 -6.34611,-2.891192 -7.15933,0.571724 -10.53505,-0.560593 -11.38731,-3.819634 -0.63148,-2.414794 -1.98936,-2.638433 -17.14396,-2.823575 -9.05199,-0.110587 -18.11207,-0.07168 -20.1335,0.08645 -2.26038,0.176829 -3.97405,-0.490911 -4.45124,-1.734443 -1.27979,-3.335078 -9.38742,-5.217041 -18.18662,-4.221525 -7.20346,0.81498 -8.32988,0.597949 -11.27976,-2.173325 -3.16809,-2.976268 -4.26098,-3.101644 -32.8421,-3.767635 -25.35372,-0.590788 -29.79587,-0.401631 -31.18614,1.327978 -0.89165,1.109292 -2.12505,2.616895 -2.74089,3.350228 -0.65268,0.777207 -7.86903,1.243298 -17.30147,1.117471 -15.648,-0.208743 -16.19531,-0.120782 -16.59244,2.666666 -0.36102,2.533994 -1.45859,2.963139 -9.07734,3.549197 l -8.66667,0.666667 -0.25478,6 c -0.14014,3.3 0.0688,9.450001 0.46425,13.666668 l 0.71903,7.666667 6.78315,0 c 5.08871,0 7.53925,0.710315 9.80994,2.843526 1.66474,1.563939 4.60209,3.016449 6.52744,3.227799 2.13396,0.23425 5.52133,2.6378 8.67643,6.156475 3.84725,4.29057 6.00409,5.66739 8.40272,5.36386 2.18972,-0.27709 4.08868,0.68719 5.90794,3 1.48203,1.88409 4.04746,3.40834 5.73651,3.40834 1.68053,0 4.3818,1.24599 6.00282,2.76886 1.62102,1.52287 4.64088,2.95477 6.7108,3.18199 2.06993,0.22722 4.60549,1.68123 5.63459,3.23114 1.05448,1.58813 3.2919,2.81801 5.12656,2.81801 2.43669,0 8.27653,5.11402 23.21921,20.33334 16.63494,16.9429 19.83903,20.83844 19.21582,23.36261 -0.5273,2.1357 -0.05,3.29148 1.61816,3.91816 4.28253,1.60885 9.69942,8.514 9.69942,12.36427 0,2.27244 1.07541,4.41041 2.79165,5.54996 2.51946,1.67285 2.85382,3.47058 3.42924,18.4376 0.56076,14.58552 0.95497,16.80633 3.27131,18.42876 2.19054,1.53431 2.56704,3.1147 2.23743,9.39169 -0.37493,7.14006 -0.59521,7.56982 -4.08557,7.97103 -2.45715,0.28245 -3.35373,0.9504 -2.68457,2 0.55259,0.86676 0.82692,12.34034 0.60963,25.49685 -0.38663,23.40899 -0.46472,23.98545 -3.64877,26.93633 -2.02816,1.87964 -3.25369,4.4923 -3.25369,6.93643 0,2.15656 -0.78631,4.22275 -1.74736,4.59154 -0.96106,0.36879 -2.46444,3.06389 -3.34086,5.98911 -1.05832,3.53237 -2.54928,5.56853 -4.43942,6.06282 -2.45336,0.64156 -2.73662,1.41784 -2.05346,5.62764 0.66482,4.09679 0.37274,4.99319 -1.81321,5.56483 -1.43313,0.37477 -2.60569,1.53025 -2.60569,2.56774 0,1.03748 -0.95686,2.25352 -2.12635,2.70229 -2.48775,0.95464 -13.35792,11.74986 -16.21214,16.10035 -1.08251,1.65 -2.77809,3 -3.76794,3 -0.98986,0 -2.42853,1.1749 -3.19705,2.61089 -1.1706,2.18729 -3.07105,2.67402 -11.71358,3 -9.22931,0.34812 -10.45495,0.70521 -11.63244,3.38911 -0.7239,1.65 -1.82742,3 -2.45227,3 -0.62485,0 -3.83534,2.77733 -7.13442,6.17184 -5.90471,6.07549 -6.10271,6.15947 -12.68475,5.37992 -5.88787,-0.69733 -6.76824,-0.47899 -7.37158,1.82817 -0.37684,1.44104 -1.22805,2.62008 -1.89157,2.62008 -0.66353,0 -1.88986,1.5 -2.72518,3.33333 -0.83532,1.83333 -2.29519,3.33333 -3.24414,3.33333 -1.96817,0 -8.51326,6.16102 -8.51326,8.0137 0,0.6742 -1.3386,1.94221 -2.97467,2.81781 -1.63606,0.87559 -4.09636,3.018 -5.46733,4.7609 -1.54405,1.96294 -3.35524,2.89513 -4.75926,2.44951 -1.52962,-0.48548 -4.9543,1.87006 -10.53267,7.24451 -6.48175,6.24481 -8.26607,8.81691 -8.26607,11.91556 0,2.78064 -0.79022,4.20246 -2.66666,4.79802 -1.46667,0.4655 -2.66667,1.68482 -2.66667,2.7096 0,1.02478 -1.2,2.50546 -2.66667,3.2904 -1.68863,0.90372 -2.66666,2.79176 -2.66666,5.14782 0,2.24476 -1.32227,4.96288 -3.33334,6.85218 -1.83333,1.72232 -3.33333,4.49289 -3.33333,6.15681 0,1.66392 -1.05,3.82256 -2.33333,4.79697 -1.28334,0.97442 -3.80353,3.42505 -5.60042,5.44584 -3.17674,3.57257 -3.27713,4.33814 -3.63028,27.68412 l -0.36319,24.00994 3.29694,1.25349 c 2.57343,0.97842 3.29695,2.20426 3.29695,5.58596 0,3.24529 1.1362,5.34471 4.52786,8.36634 4.26511,3.79977 5.07011,4.00847 13.87179,3.59615 7.88785,-0.36951 9.44834,-0.837 10.01398,-3 z m 394.25304,2.77105 c 0,-0.73333 -1.16459,-1.33333 -2.58797,-1.33333 -1.42339,0 -2.9588,0.6 -3.41203,1.33333 -0.46736,0.75621 0.65282,1.33333 2.58798,1.33333 1.87661,0 3.41202,-0.6 3.41202,-1.33333 z M 612.33856,467.6667 c 0.83095,-2.46966 -0.46014,-6.41556 -1.82346,-5.57298 -1.56294,0.96595 -1.52787,7.23965 0.0405,7.23965 0.67222,0 1.47457,-0.75 1.78299,-1.66667 z M 185.66667,455.07033 c 2.39084,-1.34128 0.85654,-6.70762 -2.33333,-8.16102 -4.01665,-1.83011 -4.30448,-4.94685 -0.66667,-7.21871 3.09855,-1.93507 3.54917,-5.0239 0.73292,-5.0239 -1.06356,0 -2.51856,-1.045 -3.23333,-2.32223 -0.71477,-1.27722 -1.75901,-1.86279 -2.32053,-1.30127 -1.07961,1.07961 -1.89959,23.57992 -0.92183,25.29506 0.52351,0.91832 6.35268,0.0729 8.74277,-1.26793 z m 11.66667,-22.96469 c 0,-0.67525 -2.4,-3.65183 -5.33334,-6.61462 -2.93333,-2.9628 -5.33333,-6.1389 -5.33333,-7.058 0,-1.20809 -0.54311,-1.12797 -1.96028,0.28919 -2.31396,2.31396 -1.28692,7.94449 1.44912,7.94449 1.01447,0 1.84449,0.78 1.84449,1.73333 0,0.95334 0.72,2.45334 1.6,3.33334 1.8768,1.87679 7.73334,2.15872 7.73334,0.37227 z m 9.0621,-5.2431 c 1.37831,-0.87433 1.24316,-1.94968 -0.66666,-5.30448 -1.31749,-2.31431 -3.25677,-4.21163 -4.30951,-4.21627 -1.05273,-0.005 -3.2722,-1.28433 -4.93216,-2.84378 -2.0225,-1.90004 -3.81018,-2.51327 -5.41926,-1.85898 -2.19194,0.89128 -2.13976,1.09802 0.59882,2.37244 1.65,0.76783 3,2.50438 3,3.85898 0,1.3546 0.91485,2.46292 2.033,2.46292 1.11815,0 2.6033,1.5 3.30034,3.33333 1.30077,3.4213 3.3529,4.12589 6.39543,2.19584 z m 20.61791,-24.15515 6.91018,-6.62597 -2.96176,-2.7593 c -1.62897,-1.51762 -2.96176,-3.33593 -2.96176,-4.0407 0,-0.70476 -1.84616,-1.28139 -4.10257,-1.28139 -5.39826,0 -11.90449,6.33364 -11.87923,11.5641 0.0578,11.95974 4.7703,12.94757 14.99514,3.14326 z m 16.98666,-18.1682 c 0,-0.4368 -1.28172,-2.59417 -2.84825,-4.79417 l -2.84825,-3.99999 -3.02484,3.7935 c -1.66366,2.08643 -2.74654,4.24381 -2.40639,4.79417 0.72783,1.17766 11.12773,1.37064 11.12773,0.20649 z m 404.00001,-3.95118 c 0,-1.14813 -1.30976,-1.92131 -3.25465,-1.92131 -4.45259,0 -5.60626,2.42875 -1.83101,3.85472 3.57309,1.34962 5.08566,0.77459 5.08566,-1.93341 z m -390.71661,-7.46023 c 1.3988,-0.46626 1.43915,-1.19863 0.19422,-3.52482 -1.49073,-2.78544 -1.74025,-2.82566 -4.85787,-0.78292 -2.46596,1.61576 -3.28642,3.32871 -3.28642,6.86137 v 4.70801 l 3.0922,-3.33654 c 1.70071,-1.8351 3.88675,-3.60139 4.85787,-3.9251 z m 17.44783,-10.05787 c 4.0871,1.0688 6.6021,-1.14445 6.6021,-5.80996 0,-5.56087 -4.92435,-6.75652 -8.63922,-2.09763 -1.53686,1.92741 -3.82175,3.50437 -5.07753,3.50437 -2.68133,0 -2.69561,0.0752 -0.90788,4.77723 1.28428,3.37792 1.49183,3.45821 3.13395,1.21248 1.21601,-1.66299 2.72427,-2.15247 4.88858,-1.58649 z m 28.93543,-14.06732 c 2.89343,-2.30736 1.81808,-6.62952 -2.63957,-10.60931 -5.93947,-5.30275 -10.86585,-4.73606 -11.44815,1.3169 -0.24435,2.54005 -1.50332,5.0527 -3,5.98739 -1.41842,0.88582 -2.57894,2.33003 -2.57894,3.20936 0,2.86634 16.09407,2.94461 19.66666,0.0957 z m 17.66667,-12.23333 c 0,-1.04359 -1.8,-3.69744 -4,-5.89744 -4.11828,-4.11829 -5.18602,-8.64808 -2.43871,-10.34602 1.02698,-0.6347 0.52853,-1.34697 -1.45647,-2.08127 -4.04394,-1.49595 -4.96842,-0.70324 -6.07298,5.20743 -0.51543,2.7581 -1.55691,5.76473 -2.31441,6.6814 -1.02694,1.24272 -0.65519,1.66666 1.46146,1.66666 1.56131,0 4.14298,1.50001 5.73704,3.33334 3.14046,3.61184 9.08407,4.55133 9.08407,1.4359 z m 13.70104,-13.10257 c 0.32446,-0.91667 0.2921,-5.10595 -0.0719,-9.30952 -0.77701,-8.97272 0.80402,-11.69048 6.8008,-11.69048 3.04674,0 3.716,-0.38741 2.59897,-1.50444 -1.11704,-1.11703 -1.105,-2.14406 0.0467,-3.98828 1.30285,-2.08619 1.02073,-2.85538 -1.76223,-4.80464 -4.37362,-3.0634 -4.50796,-3.02215 -5.3104,1.63069 -0.56963,3.30297 -1.45235,4.11617 -5.06556,4.66667 -5.03659,0.76735 -5.05913,0.81095 -2.88546,5.58164 2.26084,4.96201 0.84599,7.75169 -3.93145,7.75169 -5.18496,0 -6.22405,1.88772 -2.07873,3.77645 1.81034,0.82484 3.29153,2.21534 3.29153,3.08998 0,2.18274 4.03814,6.46691 6.09553,6.46691 0.92524,0 1.94771,-0.75 2.27217,-1.66667 z m 18.01203,-52.64459 c 0.33949,-12.19852 0.67072,-13.80032 3.12533,-15.11399 2.73098,-1.46157 2.73166,-1.48477 0.12859,-4.35541 -1.43936,-1.58731 -3.00719,-4.53601 -3.48407,-6.55268 -1.06101,-4.48688 -2.11371,-4.54826 -5.20286,-0.30333 -1.82391,2.50631 -2.05968,3.89042 -1,5.87045 2.00909,3.75402 1.70516,8.09955 -0.56648,8.09955 -1.0742,0 -2.62281,-1.25139 -3.44136,-2.78087 -0.81855,-1.52947 -1.86235,-2.40678 -2.31955,-1.94958 -1.78113,1.78113 -1.561,7.119 0.35929,8.71271 1.11176,0.92267 2.02138,3.66369 2.02138,6.09115 0,3.24254 0.70752,4.63811 2.66666,5.25992 3.21799,1.02135 3.63742,6.67552 0.58216,7.84793 -3.2133,1.23306 -0.77088,3.68921 3.21042,3.22848 l 3.54076,-0.40974 z m 331.52504,2.88268 c 1.15238,-1.15238 2.09523,-2.65238 2.09523,-3.33333 0,-0.68095 0.91884,-1.2381 2.04185,-1.2381 1.12302,0 2.42925,-1.05 2.90275,-2.33333 0.47349,-1.28333 1.49964,-2.75835 2.28034,-3.27781 2.32285,-1.5456 -0.68682,-3.31795 -6.9689,-4.10389 -5.00167,-0.62575 -5.89055,-0.34598 -6.87827,2.16487 -0.62387,1.58592 -2.38909,3.92762 -3.9227,5.20378 -2.72317,2.26601 -3.67722,6.34645 -1.89951,8.12416 1.66358,1.66358 8.24663,0.89623 10.34921,-1.20635 z m -324.8203,-40.90476 c -0.41499,-4.30414 -0.46648,-4.33334 -7.64003,-4.33334 -4.59259,0 -7.4245,0.60684 -7.77778,1.66667 -0.36012,1.08038 0.81793,1.66667 3.34891,1.66667 2.21114,0 4.95108,1.1565 6.31776,2.66666 3.74974,4.14342 6.24171,3.42125 5.75114,-1.66666 z m 316.80648,0.85735 c 1.56242,-0.59956 2.10905,-2.67303 2.10905,-8 0,-3.95488 -0.52653,-7.19069 -1.17007,-7.19069 -2.09085,0 -4.22999,3.608 -3.40845,5.74889 0.47231,1.23083 -0.33867,3.06254 -1.977,4.46532 -3.38885,2.90163 -3.4955,4.06938 -0.44448,4.86669 1.28334,0.33537 2.43426,0.67937 2.55762,0.76444 0.12336,0.0851 1.17336,-0.20953 2.33333,-0.65465 z m -3.89095,-29.28354 c 0,-4.05359 -2.51334,-5.52791 -5.8073,-3.40654 -1.48832,0.95851 -1.39673,1.79055 0.51895,4.71424 2.88654,4.40542 5.28835,3.8115 5.28835,-1.3077 z m -318.22942,-5.00635 c 0.74921,-3.93491 -3.59206,-7.56747 -9.0439,-7.56747 -5.5169,0 -8.06002,1.90716 -8.06002,6.04445 0,4.2266 1.17308,4.77685 9.26744,4.34706 5.89577,-0.31305 7.46613,-0.87896 7.83648,-2.82404 z m 332.22942,-7.66523 c 0,-1.90813 -0.71802,-2.62616 -2.31802,-2.31802 -3.47565,0.66935 -3.86327,5.08245 -0.44641,5.08245 1.90813,0 2.76443,-0.8563 2.76443,-2.76443 z m -25.57381,-4.27999 c 0.29848,-2.59911 -0.50056,-4.48353 -2.66667,-6.28898 -4.40993,-3.67566 -6.03073,-3.27733 -6.78188,1.66673 -0.92468,6.0863 1.04783,9.25462 5.44537,8.74658 2.79643,-0.32307 3.66999,-1.22307 4.00318,-4.12433 z m -322.41401,-5.60757 c -0.90622,-1.09192 -2.18947,-1.65046 -2.85168,-1.2412 -1.70196,1.05188 -0.0744,3.22652 2.41478,3.22652 1.69492,0 1.77659,-0.37109 0.4369,-1.98532 z m -6.9826,-4.4654 c 1.32907,-0.84352 1.09473,-2.43637 -1.08261,-7.35861 l -2.77885,-6.28206 -2.37639,2.93471 c -1.509,1.86353 -3.18219,2.62549 -4.58406,2.08754 -3.05378,-1.17185 -2.76999,-5.86943 0.45899,-7.59752 3.63007,-1.94276 3.61255,-8.73329 -0.0276,-10.68142 -1.48183,-0.79305 -3.22768,-1.11221 -3.87968,-0.70925 -1.83919,1.13668 -5.4261,-0.68251 -5.4261,-2.75199 0,-2.82786 -1.81408,-2.23855 -5.56968,1.80932 -3.59276,3.87235 -5.56138,9.22228 -3.7952,10.31384 0.5783,0.35741 2.50938,-0.49699 4.29131,-1.89865 5.39312,-4.24223 6.93397,-1.89554 7.59407,11.56562 0.11629,2.37153 1.35402,3.28494 6.05549,4.46878 3.25013,0.8184 6.2313,2.32704 6.62482,3.35253 0.80911,2.1085 2.0306,2.31151 4.49544,0.74716 z m 312.30376,-14.62777 c 0,-8.53631 -2.18419,-11.54588 -7.03964,-9.69984 -4.40346,1.67419 -5.02887,7.2676 -1.05066,9.39667 1.417,0.75836 2.95743,2.57947 3.42318,4.04691 0.46575,1.46745 1.70638,2.66809 2.75697,2.66809 1.39317,0 1.91015,-1.73536 1.91015,-6.41183 z M 297.92093,147.85083 c 2.77488,-3.29775 3.16854,-4.5381 1.91841,-6.04442 -1.33591,-1.60966 -2.04501,-1.45172 -4.70612,1.04827 -3.04504,2.86067 -4.36337,9.14533 -1.9184,9.14533 0.66814,0 2.78589,-1.86713 4.70611,-4.14918 z m -14.01303,-1.80319 c 3.95129,-2.04329 6.0252,-8.36532 3.83263,-11.68328 -0.8402,-1.27146 -1.92396,-0.79187 -4.31669,1.91023 -3.63594,4.10604 -5.18273,3.19739 -6.70914,-3.94125 -1.14678,-5.36319 -3.38136,-5.69136 -3.38136,-0.49659 0,2.11021 -0.9,4.58367 -2,5.49659 -3.02457,2.51017 -2.45458,3.77428 2.66667,5.91408 2.56666,1.07242 4.66666,2.58047 4.66666,3.35122 0,1.85125 0.74781,1.77264 5.24123,-0.551 z m -21.07544,-15.81065 c 3.05352,-0.79851 3.27635,-5.27103 0.40564,-8.14174 -1.60506,-1.60507 -5.0029,-2.09524 -14.52401,-2.09524 -9.81782,0 -12.59001,-0.42015 -13.19625,-2 -0.42211,-1.1 -1.68631,-2 -2.80932,-2 -1.48616,0 -2.04185,1.42178 -2.04185,5.22428 0,7.37165 1.10895,9.44239 5.05672,9.44239 1.89094,0 4.81109,1.28987 6.48922,2.86639 2.3845,2.24013 3.19575,2.45861 3.71304,1 2.7634,-7.79206 3.56081,-9.19973 5.21143,-9.19973 3.17875,0 4.92186,3.37201 4.0351,7.80581 -0.5387,2.69347 -0.18363,4.97884 0.99515,6.40528 1.63647,1.98028 1.95749,1.63577 2.99846,-3.21787 0.76647,-3.57373 2.02241,-5.65959 3.66667,-6.08957 z m 350.49944,-4.40365 c 0.001,-1.52416 -5.87799,-3.16666 -11.33529,-3.16666 -1.65188,0 -3.75034,-0.9 -4.66326,-2 -2.54929,-3.07171 -4.22259,-2.38224 -3.75523,1.54733 0.26567,2.23376 1.33117,3.67791 2.8774,3.89995 1.35053,0.19394 2.73975,0.63686 3.08715,0.98426 1.3312,1.3312 13.78782,0.18857 13.78923,-1.26488 z m -390.91807,-8.16666 c -0.45311,-5.47464 -3.02943,-6.39023 -2.81382,-1 0.22324,5.58122 0.34984,6 1.81382,6 0.81842,0 1.23955,-2.10562 1,-5 z m 360.46045,-2.34695 c -0.65344,-2.44331 -1.40036,-3.29252 -2.01757,-2.29386 -0.53901,0.87213 -0.30365,2.84948 0.52301,4.39411 2.01227,3.75997 2.77513,2.68796 1.49456,-2.10025 z m -10.12852,-11.44767 c 1.3629,-2.20522 -2.36421,-5.344832 -4.66001,-3.925455 -1.58653,0.980875 -1.61565,1.543305 -0.17007,3.285115 2.04687,2.46634 3.57624,2.66909 4.83008,0.64034 z M 543.33335,88.000007 c 1.2609,-3.972748 -0.20995,-7.155259 -4.46994,-9.671697 -3.67452,-2.170592 -3.90607,-2.142902 -6.66838,0.797447 -3.74431,3.985635 -3.61137,5.425835 0.80498,8.720801 4.74564,3.540635 9.23712,3.607333 10.33334,0.153449 z M 508.09432,70.856361 c 0.51489,-3.784561 0.19662,-6.061622 -0.98423,-7.041639 -1.96747,-1.632857 -2.40923,-0.800829 -3.68863,6.947291 -0.43248,2.619105 -0.36672,5.181605 0.14612,5.694445 1.99071,1.990715 3.79822,-0.245382 4.52674,-5.600097 z m -12.33479,-3.336939 c 0.29466,-2.494742 -0.52828,-4.403811 -2.66667,-6.18615 -3.88087,-3.234694 -4.6807,-3.261395 -6.31335,-0.210764 -1.02513,1.91547 -0.52204,3.379083 2.28642,6.651764 4.18215,4.873432 6.09649,4.800547 6.6936,-0.25485 z m -25.49959,-0.793497 c 3.89158,-2.372845 4.19263,-3.03535 3.48165,-7.661684 -1.14461,-7.447995 -2.42531,-8.397571 -11.32583,-8.397571 -9.59338,0 -12.73544,-1.51057 -15.1469,-7.282006 -1.58573,-3.795184 -2.66787,-4.525034 -7.86471,-5.304348 -3.31948,-0.497788 -6.55382,-1.846861 -7.20122,-3.003695 -1.61945,-2.893803 -14.69224,-4.169679 -16.32391,-1.593178 -2.0892,3.298991 -1.28896,6.703487 2.45432,10.441534 2.01667,2.013843 4.88687,5.159809 6.37821,6.991035 3.61733,4.441713 9.61357,5.594727 11.70225,2.250219 2.15716,-3.454159 7.58621,-3.33457 7.58621,0.167106 0,1.567252 0.88889,2.666667 2.15603,2.666667 1.18581,0 4.42103,2.333931 7.18937,5.186513 5.1582,5.31518 8.96383,8.038418 11.32127,8.101293 0.73333,0.01956 3.2503,-1.13329 5.59326,-2.561885 z M 223.99997,48.104991 c 2e-5,-1.77559 0.95881,-4.287782 2.13065,-5.582649 2.99068,-3.304659 1.25459,-5.189006 -4.78073,-5.189006 -8.66336,0 -10.18595,3.86509 -7.2341,18.363806 l 0.61698,3.030471 4.63358,-3.697138 c 2.9954,-2.390036 4.63359,-4.838501 4.63362,-6.925484 z m 183.00004,-6.335392 c 1.90081,-1.128397 1.03317,-8.138231 -1.10905,-8.960278 -1.15998,-0.445125 -5.9123,-0.809319 -10.56073,-0.809319 -8.41121,0 -8.45613,0.02028 -9.38203,4.235874 -1.37993,6.282786 1.85347,8.167298 12.05181,7.02412 4.4,-0.493215 8.45,-1.163894 9,-1.490397 z m -29.22986,-6.407008 c -0.12643,-3.495604 -0.77747,-6.903251 -1.44677,-7.572547 -0.66929,-0.669297 -6.56585,-1.345859 -13.10347,-1.503472 l -11.88657,-0.28657 -0.40342,4.140428 c -0.37796,3.879105 -0.0212,4.24745 5.65288,5.83609 3.33097,0.932614 7.74077,1.35877 9.79956,0.947014 4.26129,-0.852259 6.08791,0.01888 7.38227,3.52068 1.73399,4.691171 4.24381,1.507069 4.00552,-5.081623 z m -129.1541,2.3141 c 4.38226,-4.726069 3.75695,-6.172361 -3.0703,-7.101308 -5.82588,-0.792694 -9.54574,1.38811 -9.54574,5.596274 0,5.886677 7.70127,6.805402 12.61604,1.505034 z m 92.66413,-3.612636 c 2.73679,-3.297621 1.12849,-6.73072 -3.15312,-6.73072 -4.78094,0 -7.4051,3.520145 -4.88647,6.554904 2.18979,2.638539 5.92787,2.720286 8.03959,0.175816 z m -58.8218,-4.145271 c -0.72483,-3.738971 -3.79171,-3.942891 -3.79171,-0.252115 0,1.772222 0.41,3.632222 0.91111,4.133334 1.41574,1.415732 3.39142,-1.246232 2.8806,-3.881219 z"/>
  </g>
</svg>
