<?xml version="1.0" encoding="UTF-8" standalone="no"?>
<!-- Created with Inkscape (http://www.inkscape.org/) -->

<svg
   version="1.1"
   id="svg1"
   width="467.83099"
   height="210.92958"
   viewBox="0 0 467.83099 210.92958"
   xmlns="http://www.w3.org/2000/svg"
   xmlns:svg="http://www.w3.org/2000/svg">
  <defs
     id="defs1" />
  <g
     id="g1">
    <path
       style="fill:#000000"
       d="m 218.3662,206.89862 c -60.97986,-3.01571 -117.31041,-16.9998 -146.866085,-36.4596 l -9.956025,-6.55516 -4.743875,2.41278 C 49.858227,169.8274 35.887037,173.90408 21.952682,176.46486 2.3643874,180.06469 0.14649468,177.09887 6.0363502,155.18111 8.0546894,147.67032 11.102163,130.64749 12.808514,117.35259 16.164956,91.201127 17.08801,88.86409 24.658571,87.349977 31.609689,85.959754 51.4296,74.136537 53.490795,70.150625 57.07974,63.210371 71.659151,51.673745 86.017448,44.412423 96.873856,38.922087 100.82578,36.153436 103.43582,32.209401 c 4.51252,-6.81889 7.50935,-8.588503 23.90893,-14.118104 C 173.001,2.6969426 268.41782,-1.4662127 340.05634,8.8104233 c 24.45741,3.5084457 31.23811,5.1356447 49.16416,11.7981737 10.01448,3.722056 11.86668,4.961308 16.22535,10.855888 4.10031,5.545181 7.29245,7.848585 19.15327,13.820736 14.76051,7.432204 26.11695,16.345941 31.10226,24.412341 2.3202,3.754155 3.55557,10.353966 6.25303,33.405938 1.84887,15.80012 3.02616,31.31535 2.61619,34.47829 -2.92718,22.58344 -33.50771,42.9298 -84.66741,56.33235 -42.61841,11.16496 -101.92866,15.93236 -161.53699,12.98448 z m 76.39437,-9.51511 c 83.19746,-6.24652 145.60536,-27.37227 158.29442,-53.58437 2.7868,-5.75676 2.93813,-7.39858 2.10992,-22.89085 -0.49071,-9.17911 -1.26813,-19.432 -1.7276,-22.784206 l -0.83541,-6.094922 -3.74968,5.176285 c -4.79918,6.625073 -20.02423,16.745363 -34.17976,22.719713 -61.15433,25.81025 -178.82378,32.85214 -264.58795,15.83419 -44.45148,-8.82038 -78.169471,-23.34017 -89.03608,-38.341084 l -3.960189,-5.466883 -0.781988,4.390507 c -1.874947,10.52697 -2.495457,38.37467 -0.979079,43.9398 0.861185,3.16057 2.036954,5.74648 2.61282,5.74648 1.616973,0 8.313528,-7.3861 8.313528,-9.16958 0,-0.87174 1.521127,-2.58166 3.380282,-3.79983 2.04165,-1.33774 3.380282,-3.49189 3.380282,-5.43962 0,-3.86213 2.454351,-4.13655 8.51785,-0.95239 2.379971,1.24981 9.499051,4.23233 15.820178,6.62782 l 11.492956,4.35544 v 9.2595 9.25951 l -5.77983,-0.25931 c -3.178906,-0.14261 -10.765407,-2.41477 -16.85889,-5.04924 l -11.079059,-4.78994 -4.420648,4.28466 c -4.23667,4.10634 -4.322971,4.39259 -2.073659,6.87806 10.375185,11.46445 53.942946,27.37669 92.944486,33.94609 13.54591,2.28167 46.98829,6.02462 59.49296,6.65859 20.18193,1.02321 57.03666,0.79594 73.69014,-0.45442 z M 31.774648,166.94975 c 8.180282,-1.99276 17.915494,-5.06742 21.633804,-6.83258 8.426856,-4.0004 26.131905,-20.67517 23.608521,-22.23471 -2.645119,-1.63477 -5.332553,-0.14081 -13.921614,7.73911 -9.572179,8.78186 -18.56042,13.51287 -30.467432,16.03668 -11.962804,2.53564 -17.253116,2.57325 -15.207229,0.10811 1.928341,-2.32351 7.718598,-36.71985 8.965638,-53.25932 0.704332,-9.341546 1.419997,-12.507039 2.82763,-12.507039 1.036544,0 1.884626,-0.60845 1.884626,-1.352112 0,-2.581215 -5.356636,-1.335446 -7.267379,1.690141 -1.061099,1.680209 -2.638114,10.30649 -3.522411,19.26761 -2.099872,21.27928 -4.701391,36.00682 -8.105073,45.88387 -2.8656132,8.31564 -2.145637,10.9116 2.669511,9.62525 1.115493,-0.298 8.721127,-2.17226 16.901408,-4.16501 z m 10.039829,-15.59859 6.626675,-2.85072 -1.910716,-4.57299 c -1.050894,-2.51514 -1.910717,-5.80943 -1.910717,-7.32064 0,-2.37674 -0.867002,-2.74742 -6.422535,-2.74592 l -6.422536,0.002 -2.091033,10.92915 -2.091033,10.92915 3.79761,-0.75952 c 2.088686,-0.41774 6.779614,-2.04234 10.424285,-3.61024 z m 65.002423,-3.81738 v -7.95918 l -9.126758,-3.38283 -9.12676,-3.38284 -0.78048,7.62371 c -0.429264,4.19303 -0.674076,7.78452 -0.544026,7.98108 0.172226,0.26031 16.195124,6.07202 19.240004,6.9786 0.18591,0.0553 0.33802,-3.48099 0.33802,-7.85854 z m -21.6338,-8.26617 v -5.40845 l -7.774648,0.21639 c -4.558403,0.12687 -5.998426,0.43887 -3.480976,0.75421 5.72382,0.71697 8.276178,3.75507 6.092395,7.25187 -1.435706,2.29893 -1.233935,2.59443 1.77149,2.59443 3.05562,0 3.391739,-0.53597 3.391739,-5.40845 z m 208.45582,2.64256 c 69.6945,-4.75375 127.23947,-20.92513 148.46759,-41.72259 14.00783,-13.72365 14.03091,-22.974101 0.0888,-35.590991 -6.36447,-5.759519 -29.7342,-19.97687 -32.83691,-19.97687 -0.3746,0 0.43347,2.28169 1.79571,5.070423 1.36223,2.788732 3.22343,7.908166 4.13599,11.37652 1.58558,6.026259 1.49329,6.523629 -2.07976,11.20814 -2.05644,2.696124 -5.97144,6.364221 -8.7,8.151328 -11.46751,7.510785 -42.43385,14.930554 -80.07759,19.187195 -29.55593,3.342095 -109.48412,3.351605 -138.96067,0.01653 -35.51644,-4.018449 -66.62837,-11.141447 -78.2176,-17.90772 -6.49254,-3.790618 -13.958694,-12.247235 -13.958694,-15.810461 0,-2.125001 2.985049,-11.409202 6.140481,-19.098329 1.781103,-4.340169 -22.927205,9.38601 -31.97599,17.763589 -9.96852,9.229091 -12.135125,15.031582 -8.83715,23.667205 C 72.193586,123.7779 184.26803,149.37019 293.63892,141.91017 Z M 85.1831,131.86571 c 0,-0.91647 -7.681976,-4.76712 -9.510319,-4.76712 -3.119753,0 -0.271281,3.40976 3.537359,4.23439 5.613689,1.21546 5.97296,1.2475 5.97296,0.53273 z M 50.987303,111.21127 c 0.716204,-7.99437 1.061708,-14.99155 0.767786,-15.549297 -0.293921,-0.557746 -3.470639,-1.014084 -7.059373,-1.014084 h -6.524971 l -0.821816,7.098591 c -0.451999,3.90423 -1.198216,10.90141 -1.658259,15.5493 l -0.836443,8.4507 h 7.415444 7.415444 z M 313.69015,98.016408 c 39.34424,-3.578136 70.04263,-9.893449 85.04448,-17.495463 7.11949,-3.607714 15.02994,-11.702363 14.97976,-15.328556 -0.0399,-2.886746 -5.67492,-16.735194 -8.66889,-21.304573 l -2.2274,-3.399431 -3.30293,3.925313 c -8.90167,10.57903 -39.35909,18.2785 -89.6381,22.66002 -31.01746,2.70299 -100.54172,1.927104 -127.34186,-1.421127 -42.20816,-5.273209 -70.02847,-13.915876 -74.08934,-23.016624 -1.09689,-2.458221 -1.49629,-2.222509 -4.55272,2.686822 -4.207273,6.757872 -7.893148,16.029378 -7.893148,19.854552 0,1.723611 2.66361,5.492812 6.483668,9.174857 5.33572,5.142955 8.74708,6.996827 19.2676,10.470823 19.0043,6.275431 54.87308,12.349409 84.44592,14.299974 21.34094,1.407605 87.3156,0.728429 107.49296,-1.106587 z M 50.02817,84.379674 c 0,-1.619053 -0.545128,-1.704201 -2.886895,-0.450925 -2.23199,1.194525 -2.476685,1.798544 -1.078643,2.662581 2.241989,1.385626 3.965538,0.424369 3.965538,-2.211656 z M 287.87493,66.2036 c 59.00731,-3.094553 103.24326,-12.618366 110.57371,-23.806054 1.89631,-2.894137 1.87724,-3.507528 -0.20803,-6.690049 -4.92157,-7.511269 -27.23876,-14.88706 -58.83361,-19.444402 -87.63493,-12.6407408 -211.6127,-2.23396 -227.54075,19.09993 -4.84216,6.485548 1.26269,11.84301 20.37497,17.880578 34.89989,11.024869 95.81267,16.097225 155.63371,12.959997 z M 193.35212,54.555024 C 163.76027,51.428029 143.88678,46.902726 137.4254,41.820199 123.75879,31.070043 149.88878,22.102093 208.18112,17.53647 c 10.43124,-0.817004 18.608,-2.07134 19.14273,-2.936539 0.67848,-1.097816 2.07579,-1.037157 5.11588,0.222088 3.33912,1.383109 4.59114,1.393233 6.20938,0.05021 1.5544,-1.290036 2.47172,-1.313091 3.93474,-0.09889 1.04929,0.87083 2.20808,1.097445 2.5751,0.503587 0.87156,-1.410243 24.0558,-1.31027 26.35928,0.113665 0.97897,0.605161 3.55083,0.358316 5.7477,-0.551659 2.82985,-1.17216 4.47606,-1.231846 5.71085,-0.207058 0.95419,0.791909 9.62406,2.094744 19.26638,2.895188 38.54073,3.199407 64.53192,8.448402 71.05222,14.349197 5.63986,5.104 1.03334,11.069561 -11.45316,14.832144 -10.41176,3.137397 -35.81109,7.09561 -56.01138,8.728773 -23.6261,1.910136 -91.05918,1.38127 -112.47872,-0.88215 z m 123.04225,-2.455046 c 31.09347,-3.327195 50.1887,-7.836851 54.81111,-12.944557 2.24679,-2.482676 2.25464,-2.805399 0.12556,-5.158014 C 368.29425,30.6418 358.21192,27.521712 340.12491,24.340334 325.67749,21.799134 297.70752,18.926521 288,18.986925 l -4.73239,0.02945 7.43662,3.674913 c 6.39382,3.159599 7.4944,4.269175 7.84865,7.912839 0.37023,3.808026 -0.17841,4.522917 -5.40845,7.047344 -9.30692,4.492244 -19.4249,6.100461 -38.94724,6.190525 -20.20357,0.09321 -33.27504,-1.951225 -41.34108,-6.465913 -9.43405,-5.280387 -7.05095,-11.126479 6.49106,-15.923536 l 7.13171,-2.5263 -14.87324,0.780615 c -32.71106,1.716826 -65.57041,7.837181 -72.06377,13.422538 -3.58876,3.086923 -3.6005,3.153451 -1.05306,5.968341 6.33597,7.001175 31.06622,11.374643 87.99007,15.560776 13.6507,1.003861 72.1909,-0.661893 89.91549,-2.558536 z M 273.28858,40.655115 c 11.90044,-1.949437 18.24661,-3.959013 21.68202,-6.86582 l 3.17025,-2.682446 -3.79371,-3.38441 c -2.08654,-1.861426 -4.52034,-3.34323 -5.40845,-3.292899 -0.88811,0.05033 -0.24573,0.751762 1.42751,1.558735 4.47372,2.157595 3.75418,5.816478 -1.64799,8.379973 -7.62212,3.616934 -31.887,5.546433 -48.92142,3.890141 -16.87777,-1.641061 -24.81087,-4.319141 -24.81087,-8.375729 0,-1.488318 1.06479,-3.326215 2.3662,-4.084216 3.21409,-1.872035 1.25804,-1.821629 -2.90425,0.07484 -3.55206,1.618424 -5.39811,4.629684 -4.11299,6.709053 4.33656,7.016708 40.83177,11.696618 62.9537,8.072777 z m 9.87492,-7.058533 c 3.66105,-1.002063 6.88114,-2.507532 7.15574,-3.345485 0.88866,-2.711741 -3.41544,-3.130953 -7.99638,-0.778833 -3.39831,1.744894 -8.98177,2.406883 -23.39328,2.773569 -19.73446,0.502124 -32.33207,-1.182391 -33.60256,-4.493231 -0.81252,-2.117382 -5.43646,-1.333516 -7.61447,1.29083 -1.72406,2.077364 3.07108,4.338928 12.96911,6.11671 9.29834,1.67007 44.49925,0.621351 52.48184,-1.56356 z m -7.79594,-4.288079 c 0.62034,-0.620345 -5.39104,-11.70524 -6.35574,-11.719885 -0.40407,-0.0061 -1.677,2.574763 -2.82874,5.735326 -2.88259,7.91029 -5.44896,7.924137 -8.74535,0.04719 l -2.70749,-6.469721 -2.50108,6.481933 c -3.08716,8.000868 -6.01712,7.976195 -8.80718,-0.07417 -1.09257,-3.152441 -2.34889,-5.731712 -2.79183,-5.731712 -0.65937,0 -2.75427,3.609428 -6.42672,11.073015 -0.25227,0.512693 2.16566,1.208894 5.37317,1.547112 6.13621,0.647037 34.97113,-0.06926 35.79096,-0.889089 z m -45.01944,-2.942305 c -0.82289,-2.144419 -3.19319,-2.813533 -3.19319,-0.901409 0,1.429878 1.47798,2.929578 2.88715,2.929578 0.59637,0 0.73409,-0.912676 0.30604,-2.028169 z m 51.93357,-0.422536 c 0.81121,-2.433615 -1.98355,-1.922236 -2.92668,0.535518 -0.50532,1.316842 -0.20314,1.934986 0.78492,1.605634 0.8836,-0.294535 1.8474,-1.258053 2.14176,-2.141152 z m -33.15542,-8.569507 c -2.33395,-2.333947 -4.35645,2.89219 -2.695,6.963874 l 1.37932,3.380281 1.3774,-4.452515 c 0.95553,-3.088766 0.93662,-4.8933 -0.0617,-5.89164 z m 14.515,3.325361 c 0.0207,-2.958589 -2.19648,-5.411906 -3.61184,-3.996548 -0.41162,0.411622 -0.32293,3.016369 0.19709,5.788325 0.69864,3.724082 1.26514,4.534824 2.16977,3.105301 0.67335,-1.064042 1.23359,-3.267727 1.24498,-4.897078 z m -30.92699,-2.219984 c -3.14426,-3.144253 -3.62502,-1.750946 -1.40793,4.080334 1.32868,3.49463 1.56249,3.600314 2.85512,1.290558 1.10483,-1.974185 0.79329,-3.130414 -1.44719,-5.370892 z m 46.56545,1.126102 0.93588,-4.056338 -2.92102,2.794442 c -1.89617,1.813995 -2.60236,3.624873 -2.01278,5.161309 1.14036,2.971717 2.78206,1.370468 3.99792,-3.899413 z"
       id="path1" />
  </g>
</svg>
