<?xml version="1.0" encoding="UTF-8"?>
<svg xmlns="http://www.w3.org/2000/svg" xmlns:xlink="http://www.w3.org/1999/xlink" width="99px" height="112px" viewBox="0 0 99 111" version="1.1">
<g id="surface1">
<path style=" stroke:none;fill-rule:nonzero;fill:rgb(0%,0%,0%);fill-opacity:1;" d="M 37.425781 108.984375 C 37.53125 108.046875 37.621094 106.914062 37.628906 106.460938 C 37.640625 105.664062 37.613281 105.640625 36.5625 105.636719 C 35.179688 105.632812 31.332031 105.007812 29.605469 104.511719 C 27.554688 103.921875 22.941406 101.945312 21.507812 101.042969 C 20.796875 100.597656 18.332031 98.945312 16.027344 97.375 C 10.746094 93.773438 8.4375 92.625 5.722656 92.246094 C 4.601562 92.09375 2.914062 91.835938 1.964844 91.679688 L 0.238281 91.390625 L 1.402344 89.753906 C 3.144531 87.308594 4.269531 85.199219 4.691406 83.585938 C 4.9375 82.652344 5.164062 79.765625 5.332031 75.378906 C 5.691406 66.011719 5.933594 64.535156 7.875 59.839844 L 8.839844 57.515625 L 7.585938 57.246094 C 6.898438 57.101562 6.167969 56.980469 5.964844 56.980469 C 5.761719 56.980469 5.597656 56.78125 5.597656 56.539062 C 5.601562 54.367188 11.445312 50.355469 17.6875 48.242188 C 20.183594 47.398438 20.792969 47.289062 23.527344 47.214844 C 25.203125 47.167969 26.726562 47.226562 26.90625 47.347656 C 27.152344 47.515625 26.332031 49.34375 23.511719 54.921875 C 21.464844 58.964844 19.722656 62.277344 19.640625 62.277344 C 19.558594 62.277344 18.625 62.035156 17.570312 61.742188 L 15.652344 61.207031 L 14.703125 62.265625 C 13.179688 63.96875 12.625 65.714844 12.605469 68.835938 C 12.589844 71.335938 12.636719 71.582031 13.417969 73.15625 C 15.042969 76.433594 17.183594 77.484375 21.082031 76.925781 C 22.628906 76.703125 23.132812 76.515625 23.585938 76.003906 C 24.140625 75.382812 24.152344 75.25 24 71.65625 C 23.648438 63.410156 25.148438 57.234375 28.710938 52.261719 C 31.457031 48.425781 33.226562 46.949219 39.867188 42.945312 C 40.679688 42.453125 40.59375 42.253906 39.273438 41.574219 C 38.632812 41.242188 37.921875 40.660156 37.691406 40.277344 C 37.289062 39.617188 37.296875 39.53125 37.902344 38.398438 C 38.246094 37.742188 39.460938 36.238281 40.59375 35.054688 C 42.832031 32.722656 43.238281 32.125 43.238281 31.1875 C 43.238281 30.660156 43.089844 30.554688 42.199219 30.4375 C 41.628906 30.359375 40.972656 30.132812 40.738281 29.929688 C 40.457031 29.683594 40.140625 29.628906 39.804688 29.765625 C 38.820312 30.15625 38.59375 30.046875 38.714844 29.234375 C 38.808594 28.613281 38.753906 28.5 38.425781 28.632812 C 36.773438 29.300781 36.546875 29.324219 36.226562 28.890625 C 35.980469 28.558594 35.703125 28.496094 34.996094 28.628906 C 34.265625 28.765625 34.082031 28.71875 34.082031 28.410156 C 34.082031 28.101562 33.886719 28.050781 33.191406 28.160156 C 32.703125 28.238281 32.15625 28.183594 31.976562 28.035156 C 31.796875 27.886719 31.339844 27.707031 30.960938 27.640625 C 30.582031 27.574219 30.164062 27.449219 30.03125 27.367188 C 29.894531 27.285156 28.617188 27.503906 27.191406 27.855469 C 25.761719 28.203125 24.496094 28.492188 24.375 28.492188 C 24.25 28.492188 24.226562 28.195312 24.320312 27.832031 C 24.460938 27.269531 24.414062 27.195312 24.003906 27.316406 C 22.304688 27.820312 19.410156 28.480469 17.703125 28.753906 C 13.925781 29.359375 7.582031 28.199219 4.894531 26.414062 C 2.640625 24.910156 3.078125 24.628906 16.023438 19.335938 C 18.890625 18.164062 23.582031 16.183594 26.449219 14.933594 C 33.617188 11.808594 34.75 11.484375 38.488281 11.476562 C 41.082031 11.472656 41.542969 11.535156 41.828125 11.921875 C 42.011719 12.167969 42.242188 13.46875 42.34375 14.8125 C 42.566406 17.757812 42.753906 18.304688 43.578125 18.460938 C 45.683594 18.859375 48.140625 15.789062 47.652344 13.367188 C 47.460938 12.421875 46.855469 11.988281 45.144531 11.578125 C 42.667969 10.984375 38.558594 8.230469 37.550781 6.492188 C 36.167969 4.09375 36.527344 1.910156 38.433594 1.152344 C 40.808594 0.210938 42.273438 0.152344 49.484375 0.722656 C 53.253906 1.023438 57.195312 1.324219 58.242188 1.390625 C 60.777344 1.5625 65.097656 1.160156 66.0625 0.664062 C 66.792969 0.289062 66.84375 0.292969 66.964844 0.765625 C 67.042969 1.058594 67.3125 1.261719 67.628906 1.261719 C 68.378906 1.261719 68.292969 1.894531 67.460938 2.464844 C 65.726562 3.667969 64.578125 3.871094 60.457031 3.703125 C 58.328125 3.617188 53.957031 3.304688 50.738281 3.011719 C 43.925781 2.386719 40.484375 2.425781 39.691406 3.140625 C 38.835938 3.902344 39.039062 4.6875 40.480469 6.195312 C 41.203125 6.953125 42.183594 7.8125 42.664062 8.105469 C 43.570312 8.660156 43.953125 8.664062 47.6875 8.121094 C 49.394531 7.875 51.65625 8.152344 52.832031 8.753906 C 54.210938 9.460938 54.808594 10.503906 55.527344 13.464844 C 55.875 14.902344 56.390625 16.601562 56.675781 17.242188 L 57.195312 18.40625 L 58.582031 18.40625 C 59.613281 18.40625 60.007812 18.304688 60.125 18.007812 C 60.207031 17.789062 60.277344 16.546875 60.277344 15.25 C 60.277344 13.953125 60.382812 12.617188 60.511719 12.285156 C 60.886719 11.300781 62.015625 11.003906 64.804688 11.15625 C 67.753906 11.316406 68.695312 11.660156 79.734375 16.578125 C 89.796875 21.0625 92.007812 21.980469 95.320312 23.0625 C 96.886719 23.574219 98.21875 24.070312 98.273438 24.164062 C 98.332031 24.257812 98.457031 24.742188 98.554688 25.238281 C 98.722656 26.144531 98.71875 26.148438 97.367188 26.683594 C 94.410156 27.855469 92.226562 28.378906 88.078125 28.90625 C 87.429688 28.992188 85.679688 28.789062 83.605469 28.390625 C 79.628906 27.625 78.914062 27.589844 78.304688 28.140625 C 77.890625 28.511719 77.660156 28.503906 75.417969 28.011719 C 74.078125 27.722656 72.648438 27.480469 72.242188 27.480469 C 71.539062 27.480469 70.855469 27.921875 70.660156 28.496094 C 70.605469 28.667969 70.261719 28.609375 69.714844 28.339844 C 68.921875 27.949219 68.839844 27.945312 68.625 28.332031 C 68.445312 28.648438 68.167969 28.710938 67.421875 28.589844 C 66.585938 28.457031 66.4375 28.507812 66.316406 28.96875 L 66.175781 29.5 L 64.984375 28.996094 C 63.523438 28.375 63.503906 28.375 63.828125 28.976562 C 64.25 29.757812 64.160156 29.828125 62.949219 29.664062 C 61.921875 29.523438 61.804688 29.5625 61.804688 30.011719 C 61.804688 30.457031 61.6875 30.496094 60.785156 30.351562 L 59.769531 30.191406 L 59.769531 33.125 L 62.15625 35.410156 C 65.199219 38.324219 65.585938 39.078125 64.773438 40.527344 C 64.363281 41.265625 62.609375 42.148438 61.941406 41.957031 C 61.65625 41.878906 62.199219 42.269531 63.148438 42.828125 C 64.925781 43.878906 69.582031 47.253906 69.730469 47.601562 C 69.777344 47.710938 70.386719 48.304688 71.085938 48.921875 C 71.785156 49.542969 72.230469 49.878906 72.078125 49.667969 C 71.65625 49.097656 67.199219 39.304688 67.011719 38.535156 C 66.757812 37.507812 67.292969 36.839844 69.007812 36.035156 C 72.042969 34.609375 71.847656 34.460938 79.222656 43.769531 C 80.785156 45.738281 81.011719 45.9375 81.074219 45.382812 C 81.386719 42.648438 82.632812 39.835938 83.902344 39.003906 C 86.050781 37.59375 86.878906 37.316406 88.945312 37.316406 C 90.59375 37.316406 91.179688 37.4375 92.460938 38.035156 C 95.226562 39.332031 96.644531 41.695312 96.640625 45.003906 C 96.632812 48.214844 95.332031 50.515625 92.890625 51.625 C 91.28125 52.355469 87.746094 52.679688 86.15625 52.242188 C 85.632812 52.097656 85.203125 52.027344 85.203125 52.085938 C 85.203125 52.148438 86.15625 54.09375 87.324219 56.417969 C 88.488281 58.738281 89.996094 61.910156 90.671875 63.46875 C 92.136719 66.835938 92.089844 67.152344 89.941406 68.195312 C 88.023438 69.125 86.621094 69.292969 85.925781 68.675781 C 85.175781 68.011719 83.261719 65.601562 79.75 60.890625 C 78.09375 58.671875 76.808594 57.082031 76.890625 57.359375 C 77.660156 59.980469 78.359375 64.539062 78.488281 67.773438 C 78.628906 71.3125 78.601562 71.609375 77.878906 74.402344 C 75.597656 83.175781 70.640625 89.234375 62.726562 92.917969 C 59.214844 94.546875 56.789062 95.078125 52.140625 95.234375 C 42.84375 95.539062 37.925781 93.394531 30.476562 85.769531 L 27.285156 82.503906 L 25.660156 83.699219 C 23.148438 85.546875 22.8125 86 22.6875 87.710938 C 22.492188 90.367188 23.960938 94 26.09375 96.144531 C 26.703125 96.757812 28.09375 97.71875 29.179688 98.277344 C 31.246094 99.339844 36.066406 101.105469 36.90625 101.105469 C 37.375 101.105469 37.375 101.0625 36.984375 100.160156 C 36.4375 98.898438 35.335938 95.742188 35.417969 95.660156 C 35.453125 95.625 37.3125 95.871094 39.550781 96.203125 C 42.929688 96.707031 44.605469 96.808594 49.433594 96.8125 C 54.285156 96.816406 55.222656 96.875 55.109375 97.167969 C 54.910156 97.6875 51.902344 101.5 50.210938 103.375 C 48.304688 105.492188 46.535156 106.917969 44.636719 107.871094 C 42.960938 108.710938 37.964844 110.683594 37.515625 110.683594 C 37.316406 110.683594 37.289062 110.175781 37.425781 108.984375 Z M 42.183594 107.769531 C 44.574219 106.695312 46.925781 104.953125 49.289062 102.503906 C 53.152344 98.5 53.058594 98.367188 46.128906 98.066406 C 40.578125 97.828125 39.398438 97.910156 38.773438 98.597656 C 38.382812 99.023438 38.382812 99.148438 38.78125 100.332031 L 39.207031 101.609375 L 42.558594 101.617188 L 45.90625 101.628906 L 44.929688 102.484375 C 44.390625 102.957031 43.0625 103.800781 41.976562 104.359375 C 40.890625 104.921875 39.890625 105.523438 39.757812 105.699219 C 39.488281 106.046875 38.914062 107.902344 38.914062 108.410156 C 38.914062 108.847656 40.457031 108.542969 42.183594 107.769531 Z M 57.785156 89.253906 C 57.886719 88.90625 58.042969 88.179688 58.128906 87.636719 C 58.25 86.84375 58.585938 86.367188 59.816406 85.242188 C 60.65625 84.46875 62.011719 82.929688 62.820312 81.820312 C 63.632812 80.707031 64.609375 79.515625 64.992188 79.167969 C 65.375 78.820312 66.878906 77.191406 68.335938 75.546875 C 70.878906 72.679688 70.96875 72.539062 70.550781 72.082031 C 70.3125 71.820312 69.992188 71.605469 69.839844 71.601562 C 69.105469 71.597656 66.707031 70.214844 65.109375 68.882812 C 63.144531 67.246094 62.359375 66.933594 59.226562 66.554688 C 53.300781 65.839844 53.292969 65.835938 51.277344 64.449219 C 50.246094 63.734375 48.296875 62.699219 46.945312 62.144531 C 44.734375 61.242188 44.5 61.082031 44.5625 60.535156 C 44.710938 59.300781 46.871094 58.46875 48.933594 58.851562 C 49.585938 58.972656 50.023438 59.285156 50.539062 60.007812 C 51.105469 60.796875 52.1875 61.519531 52.8125 61.519531 C 53.113281 61.519531 52.761719 60.902344 51.777344 59.71875 C 50.117188 57.722656 50.109375 57.460938 51.582031 54.652344 C 53.222656 51.527344 53.769531 50.820312 54.964844 50.285156 C 56.375 49.65625 56.285156 49.015625 54.617188 47.878906 C 53.421875 47.070312 51.929688 46.390625 51.335938 46.390625 C 51.21875 46.390625 51.121094 47.074219 51.121094 47.90625 L 51.121094 49.417969 L 50.097656 49.417969 C 47.875 49.417969 46.542969 48.414062 46.542969 46.734375 C 46.542969 46.113281 46.417969 45.371094 46.269531 45.09375 C 46 44.59375 45.59375 44.578125 44.4375 45.019531 C 44.199219 45.109375 43.878906 44.84375 43.539062 44.269531 C 43.246094 43.777344 42.726562 43.3125 42.378906 43.226562 C 41.488281 43.003906 36.566406 45.203125 35.722656 46.199219 C 35.136719 46.890625 35.101562 47.066406 35.273438 48.621094 C 35.375 49.546875 35.441406 50.527344 35.421875 50.804688 C 35.402344 51.082031 35.308594 52.34375 35.210938 53.613281 C 35.109375 54.878906 35.105469 56.316406 35.199219 56.808594 C 35.359375 57.65625 35.414062 57.695312 36.210938 57.566406 C 37.003906 57.441406 37.171875 57.5625 39.191406 59.746094 C 40.367188 61.019531 41.730469 62.265625 42.21875 62.519531 C 42.710938 62.769531 44.351562 63.332031 45.867188 63.765625 C 48.859375 64.621094 49.542969 64.917969 51.574219 66.246094 C 53.414062 67.449219 53.527344 67.730469 53.015625 69.824219 C 52.453125 72.109375 52.730469 72.914062 54.835938 75.125 C 56.703125 77.089844 56.753906 77.332031 56.0625 80.949219 C 55.15625 85.6875 55.632812 90.164062 57.023438 89.964844 C 57.375 89.914062 57.667969 89.640625 57.785156 89.253906 Z M 20.269531 56.414062 C 22.65625 51.394531 22.941406 50.636719 22.84375 49.628906 C 22.769531 48.859375 22.699219 48.792969 22 48.863281 C 18.898438 49.179688 12.550781 51.707031 10.683594 53.371094 C 9.984375 53.996094 9.410156 54.640625 9.410156 54.800781 C 9.410156 54.960938 10.296875 55.296875 11.382812 55.539062 C 14.082031 56.148438 14.710938 56.503906 16.570312 58.484375 C 17.457031 59.425781 18.242188 60.210938 18.3125 60.226562 C 18.382812 60.246094 19.261719 58.527344 20.269531 56.414062 Z M 15.777344 54.597656 C 15.609375 54.398438 15.546875 54 15.636719 53.714844 C 15.761719 53.328125 16.019531 53.199219 16.675781 53.199219 C 17.46875 53.199219 17.550781 53.265625 17.550781 53.929688 C 17.550781 54.929688 16.414062 55.359375 15.777344 54.597656 Z M 15.777344 54.597656 "/>
</g>
</svg>
