<?xml version="1.0" encoding="UTF-8" standalone="no"?>
<svg width="48" height="48" version="1.1" xmlns="http://www.w3.org/2000/svg" xmlns:svg="http://www.w3.org/2000/svg" xmlns:xlink="http://www.w3.org/1999/xlink">
	<!--
		Name:		MineAP08
		Version:	0.1

		Author(s): Gordon Molek, Klas Malmström, Alan Bills
		Tester(s): Alan Bills, Alan Cannamore, Doug Rimmer
	-->

	<!-- The bevel - is there a better/more efficient way to achieve this? -->
	<defs id="bevel">
		<filter id="highlight_filter" x="-0.058226637" y="-0.058226637" width="1.1144796" height="1.1144796" style="color-interpolation-filters:sRGB;">
			<feGaussianBlur stdDeviation="10 10" result="fbSourceGraphic" id="feGaussianBlur3"/>
			<feColorMatrix result="fbSourceGraphicAlpha" in="fbSourceGraphic" values="0 0 0 -1 0 0 0 0 -1 0 0 0 0 -1 0 0 0 0 1 0" id="feColorMatrix3"/>
			<feGaussianBlur id="feGaussianBlur4" stdDeviation="10 10" result="blur" in="fbSourceGraphic"/>
		</filter>
		<filter id="shadow_filter" x="-0.030508946" y="-0.030508946" width="1.0629916" height="1.0629916" style="color-interpolation-filters:sRGB;">
			<feGaussianBlur id="feGaussianBlur5" stdDeviation="10 10" result="blur"/>
		</filter>
		<clipPath id="counter_clipping">
			<rect x="0" y="0" width="100%" height="100%" ry="4" rx="4" style="display:inline;fill:red;fill-opacity:1;stroke:none;stroke-width:0;stroke-dasharray:none;stroke-dashoffset:0;stroke-opacity:0"/>
		</clipPath>
	</defs>
	<g id="background">
		<rect id="color" x="0" y="0" width="100%" height="100%" ry="4" rx="4" style="display:inline;fill:#ffffff;fill-opacity:1;stroke:none;stroke-width:0;stroke-dasharray:none;stroke-dashoffset:0;stroke-opacity:0"/>
		<g id="bevel" clip-path="url(#counter_clipping)">
			<path id="shadow" style="display:inline;fill:none;stroke:#000000;stroke-width:25.1286;filter:url(#shadow_filter);stroke-opacity:50" d="m 1023.6424,120.45592 c 10.8149,10.81495 17.4864,25.7734 17.4864,42.34736 v 830.07515 c 0,33.14797 -26.6859,59.83377 -59.83378,59.83377 H 151.21981 c -16.57396,0 -31.54851,-6.6875 -42.34737,-17.4864" transform="matrix(1.0503456,0,0,1.0590455,-36.912259,-39.56161) scale(0.06) translate(290,310)"/>
			<path id="highlight" style="display:inline;fill:none;stroke:#ffffff;stroke-width:25.1286;stroke-opacity:50;filter:url(#highlight_filter)" d="M 108.87244,1035.2258 C 98.057485,1024.4109 91.386017,1009.4524 91.386017,992.87843 V 162.80328 c 0,-33.14792 26.685873,-59.83379 59.833793,-59.83379 h 830.07521 c 16.57394,0 31.53238,6.67147 42.34738,17.48643" transform="matrix(1.0387133,0,0,1.0339712,-12.412385,-8.9484139) scale(0.06) translate(118,54)"/>
		</g>
	</g>
	
	<text x="50%" y="8.00" style="font-size:8px;font-style:normal;font-variant:normal;font-weight:bold;font-stretch:semi-expanded;text-anchor:middle;fill:#000000;fill-opacity:1;Nimbus Sans L">Minefield</text>
	<text x="44.00" y="44.00" style="font-size:12px;font-style:normal;font-variant:normal;font-weight:bold;font-stretch:semi-expanded;text-anchor:end;fill:#000000;fill-opacity:1;Nimbus Sans L">8</text>
	
	<svg id="sign" x="4.00" y="11.00" width="40.00" height="33.00" preserveAspectRatio="xMidYMid meet" viewBox="0 0 239 200">
		<path id="sign" style="fill:#000000" transform="scale(0.74)" d="m 133.44148,266.84993 -0.93443,-0.93443 V 225.57747 185.23944 H 70.267425 8.0278047 L 7.4248134,183.5493 C 6.2876392,180.36189 4.2212305,100.72913 4.0346715,52.904121 L 3.8480999,5.0758441 5.0395942,3.8843497 6.2310885,2.6928554 163.00287,3.0365686 l 156.77179,0.3437132 -0.19779,57.4647912 -0.19778,57.464787 -1.64115,27.04226 -1.64115,27.04225 -1.54135,6.76057 -1.54135,6.76056 -67.92389,-0.30023 -67.9239,-0.30022 -0.35779,40.86361 -0.3578,40.8636 -21.0374,0.37105 -21.0374,0.37106 z m 40.98106,-41.72316 v -39.88733 h -19.60563 -19.60564 v 39.88733 39.88733 h 19.60564 19.60563 z m 137.20508,-43.60564 c 2.61382,-6.64302 5.98739,-85.54449 6.06931,-141.949641 L 317.74649,5.4528339 161.9155,5.4195351 6.0845072,5.3862362 6.514689,53.059317 c 0.2366,26.220195 0.9557774,62.580123 1.5981719,80.799843 0.6423945,18.21972 1.2093761,36.62165 1.259959,40.89317 l 0.091969,7.76641 105.802821,0.35463 c 58.19155,0.19504 125.96871,0.50298 150.6159,0.68429 l 44.81309,0.32967 z m -102.23,-42.49618 -3.56014,-1.22935 -3.6146,-5.68653 -3.61461,-5.68653 -7.4448,-3.24655 -7.44481,-3.24655 0.91486,-5.54218 c 0.50317,-3.0482 1.00827,-5.65441 1.12245,-5.79157 0.24333,-0.29231 18.88924,8.9358 23.8215,11.78959 1.85916,1.07569 4.29296,2.02349 5.40845,2.1062 1.11549,0.0827 3.31513,0.24048 4.88808,0.35059 l 2.85991,0.20019 3.61352,2.84239 3.61351,2.84239 -1.61963,1.95154 -1.61963,1.95153 -2.10836,-0.80905 -2.10835,-0.80905 0.92702,0.92702 0.92701,0.92702 -2.9964,2.32313 c -1.64802,1.27773 -4.2133,2.94008 -5.70062,3.69413 l -2.70423,1.371 z m -55.32779,-9.12914 c -4.12921,-2.17666 -10.21371,-5.00056 -13.52113,-6.27534 -3.30742,-1.27479 -6.77405,-3.25958 -7.70363,-4.41066 l -1.69014,-2.09286 v -4.47397 -4.47396 h -1.87047 -1.87047 l -0.69107,2.64265 -0.69107,2.64265 -3.86099,0.85056 c -3.47205,0.76487 -9.09178,2.99937 -15.67364,6.2321 -1.29132,0.63424 -4.10695,1.15317 -6.25697,1.15317 h -3.909129 l -1.505941,1.81454 -1.505941,1.81455 0.881388,0.88139 0.881388,0.88139 -2.243143,2.47864 -2.243143,2.47865 -3.968859,-0.58251 -3.968859,-0.5825 -4.045797,-4.44603 c -2.225189,-2.44532 -4.685519,-4.66387 -5.4674,-4.93011 l -1.421603,-0.48407 -0.848466,-4.25825 -0.848465,-4.25825 3.184044,-1.06974 3.184044,-1.06974 8.112676,0.34047 8.112677,0.34046 8.507529,-2.2038 c 4.67915,-1.2121 10.66915,-3.10699 13.31111,-4.21087 l 4.80358,-2.00706 3.2047,2.0998 c 4.47465,2.9319 5.06226,2.63086 2.49945,-1.28049 l -2.21485,-3.38028 h 2.18368 2.18367 v -1.272313 c 0,-0.699773 -0.60845,-1.648358 -1.35211,-2.107967 l -1.35211,-0.835651 v 1.43191 1.43191 h -2.10797 -2.10796 l 0.7578,1.226153 0.7578,1.226148 -5.07237,-1.521768 c -2.7898,-0.836974 -5.68082,-2.284826 -6.42448,-3.217448 l -1.35212,-1.695677 -12.03557,-3.079126 -12.035573,-3.079127 -1.485554,-2.422975 -1.485554,-2.422975 3.005582,-2.309419 3.005583,-2.30942 0.332108,-4.497159 0.332108,-4.497159 1.144408,-0.707283 c 0.629425,-0.389006 3.209316,-0.319904 5.733091,0.153559 l 4.588683,0.860842 5.808488,5.808489 c 3.19467,3.194668 7.03133,6.46293 8.5259,7.262804 l 2.71742,1.454316 2.34698,-1.716152 c 2.88435,-2.109092 3.00805,-3.446201 0.3188,-3.446201 h -2.02816 l 0.0132,-3.71831 0.0132,-3.71831 3.17544,-6.760564 c 3.60254,-7.669892 6.0139,-10.078973 13.69955,-13.686624 l 5.40846,-2.538728 13.76026,0.278562 13.76026,0.278563 5.09654,2.129469 c 2.80309,1.171207 7.03545,3.608354 9.40524,5.415881 l 4.30871,3.286412 4.21477,7.468173 c 4.4184,7.828976 5.12097,10.845827 2.8523,12.247943 l -1.36249,0.842061 -2.03395,-2.033951 -2.03395,-2.033951 -6.17776,-0.926412 -6.17775,-0.926411 -3.27088,1.750522 -3.27088,1.750522 v 2.572325 2.572325 l 2.08853,2.088532 2.08853,2.088531 -0.52607,1.533199 -0.52606,1.533199 -4.60472,0.118483 c -2.5326,0.06516 -5.36528,0.217278 -6.29486,0.338028 l -1.69014,0.219546 v 2.704225 2.704226 h 5.36601 5.36602 l -0.73141,-1.906017 -0.7314,-1.906017 2.9039,-0.921665 c 1.59715,-0.506916 3.20332,-0.622259 3.56926,-0.25632 0.36594,0.36594 2.906,0.06551 5.64458,-0.667611 l 4.97924,-1.332956 2.27372,-2.907041 2.27372,-2.907042 0.78628,0.78628 0.78628,0.78628 -2.06406,4.939998 -2.06406,4.939998 h 1.39213 1.39213 l 2.24728,-4.712598 2.24729,-4.712599 5.50549,-2.129095 c 6.49834,-2.513054 10.2259,-5.388551 13.53797,-10.443414 l 2.41938,-3.692436 h 3.80971 l 3.80972,0 0.89063,2.806121 0.89063,2.806122 -0.74104,0.741039 -0.74104,0.741039 3.41593,4.478524 3.41594,4.478524 -1.47723,2.76023 c -0.81247,1.518126 -2.66411,3.395431 -4.11475,4.17179 l -2.63753,1.41156 -5.80099,-1.460705 -5.80099,-1.460706 -6.06571,2.688849 -6.06571,2.688849 54.08451,0.251211 c 29.74648,0.138166 55.30141,0.121651 56.78874,-0.0367 l 2.70422,-0.287912 -1.12689,1.146295 -1.12689,1.146295 -56.59853,-0.468907 -56.59854,-0.468906 -3.08247,2.159047 c -1.69536,1.18748 -4.23849,2.15905 -5.6514,2.15905 h -2.56893 l 1.68323,-2.02817 1.68323,-2.028171 h -1.43788 c -2.46396,0 -4.45973,5.478711 -5.54113,15.211271 l -0.11267,1.01408 h -4.7324 -4.73239 l -0.0207,-1.69014 -0.0207,-1.69014 -1.25789,1.98901 -1.25789,1.98901 -0.9632,-0.96319 -0.96319,-0.9632 -1.81455,1.50594 -1.81455,1.50594 v -2.19373 -2.19372 h -1.35211 -1.35211 v 1.9947 1.9947 l -3.38029,-1.28518 -3.38028,-1.28518 v 1.23462 1.23461 l -2.70422,-0.2037 c -1.48733,-0.11204 -2.70423,-0.60662 -2.70423,-1.09907 0,-0.49245 -1.57545,-0.89536 -3.50101,-0.89536 h -3.501 l 2.11788,2.11788 2.11789,2.11789 4.28997,0.32736 4.28998,0.32735 1.14948,1.78011 1.14949,1.78011 1.18844,-1.84313 1.18843,-1.84314 0.7368,1.84314 0.73679,1.84313 1.43435,-2.02817 1.43434,-2.02817 0.0207,1.8557 0.0207,1.8557 1.69014,-1.34402 1.69014,-1.34403 2.67075,0.42747 2.67074,0.42747 1.02686,-1.6152 1.02686,-1.6152 0.0207,1.69014 0.0207,1.69014 h 2.48257 2.48257 l 0.2103,5.36696 0.2103,5.36696 -2.60398,1.3936 -2.60398,1.39361 -7.18748,-0.003 -7.18748,-0.003 z m 14.83158,-30.709742 c 0.30986,-0.265011 -2.00774,-0.481839 -5.15022,-0.481839 h -5.7136 l 0.80828,1.307821 0.80828,1.30783 4.34194,-0.82599 c 2.38807,-0.45429 4.59546,-1.042811 4.90532,-1.307822 z m -25.23943,-0.0252 c -0.92958,-0.375093 -2.45071,-0.375093 -3.38029,0 l -1.69014,0.681987 h 3.38028 3.38029 z m -23.03367,-7.400256 -2.19641,-5.591508 -0.53463,1.603878 c -0.66538,1.996144 2.38087,9.579139 3.84814,9.579139 h 1.0793 z m 33.30917,1.403459 4.2565,-1.483824 -0.75425,-1.220401 -0.75425,-1.220402 h 1.38947 1.38948 l -0.77828,-2.028169 -0.77828,-2.028169 2.51085,-0.156847 2.51086,-0.156847 -2.3662,-0.618352 -2.36619,-0.618352 V 81.85049 80.068275 l -5.43582,-2.174981 c -7.14956,-2.860687 -8.09738,-2.776025 -13.49376,1.205301 l -4.58171,3.380282 h -3.71744 -3.71743 l 4.00961,4.389957 4.00961,4.389958 7.0691,1.507874 c 3.88801,0.82933 7.13042,1.591877 7.20537,1.694549 0.0749,0.102672 2.05168,-0.481045 4.39276,-1.297148 z M 29.453777,96.353711 c 3.929154,-0.273995 10.013661,-0.271115 13.521127,0.0064 l 6.37721,0.504573 -13.521127,-0.0064 -13.521127,-0.0064 z"/>

		<path id="top_text" style="stroke:#000000;stroke-width:0.25;fill:#000000" transform="translate(-15,0) scale(0.74)" d="m 105.09173,43.885239 h -4.39584 l -3.041669,-8.64584 H 84.237544 l -3.041668,8.64584 H 77.008372 L 88.300047,12.864382 h 5.500005 z M 96.383387,31.69773 90.945883,16.468552 85.487545,31.69773 Z m 37.375033,9.937507 q -1.14584,0.5 -2.08334,0.937501 -0.91667,0.4375 -2.41667,0.916667 -1.27083,0.395834 -2.77083,0.666667 -1.47917,0.291667 -3.27084,0.291667 -3.375,0 -6.14584,-0.937501 -2.75,-0.958334 -4.79167,-2.979169 -2,-1.979168 -3.125,-5.020837 -1.125,-3.062502 -1.125,-7.104172 0,-3.833336 1.08333,-6.854171 1.08334,-3.020836 3.12501,-5.104171 1.97916,-2.020835 4.77083,-3.083335 2.8125,-1.062501 6.22917,-1.062501 2.50001,0 4.97917,0.604167 2.50001,0.604167 5.54168,2.125001 v 4.895837 h -0.31251 q -2.5625,-2.145834 -5.08333,-3.125002 -2.52084,-0.979167 -5.39584,-0.979167 -2.35417,0 -4.25,0.770834 -1.875,0.75 -3.35417,2.354168 -1.4375,1.562501 -2.25,3.958336 -0.79167,2.375002 -0.79167,5.500004 0,3.270836 0.875,5.625005 0.89583,2.354168 2.29167,3.833336 1.45833,1.541668 3.39583,2.291668 1.95834,0.729167 4.12501,0.729167 2.97917,0 5.58333,-1.020834 2.60417,-1.020834 4.87501,-3.062502 h 0.29167 z m 29.56252,2.250002 h -4.12501 V 28.697727 h -15.47917 v 15.187512 h -4.12501 V 12.864382 h 4.12501 v 12.166676 h 15.47917 V 12.864382 h 4.12501 z M 193.7793,16.531052 h -11.08335 v 27.354187 h -4.125 V 16.531052 h -11.08334 v -3.66667 h 26.29169 z m 27.52085,14.895844 q 0,3.375003 -0.75,5.895838 -0.72917,2.500002 -2.41667,4.16667 -1.60417,1.583334 -3.75,2.312501 -2.14584,0.729167 -5,0.729167 -2.91667,0 -5.08334,-0.770833 -2.16667,-0.770834 -3.64584,-2.270835 -1.6875,-1.708335 -2.4375,-4.125004 -0.72917,-2.416668 -0.72917,-5.937504 V 12.864382 h 4.12501 V 31.63523 q 0,2.520835 0.33333,3.979169 0.35417,1.458335 1.16667,2.645835 0.91666,1.354168 2.47917,2.041669 1.58333,0.6875 3.79167,0.6875 2.22916,0 3.79166,-0.666667 1.56251,-0.687501 2.50001,-2.062502 0.8125,-1.1875 1.14583,-2.708335 0.35417,-1.541668 0.35417,-3.812503 V 12.864382 h 4.125 z m 31.54169,12.458343 h -5.10417 L 233.02932,16.135218 v 27.750021 h -3.85417 V 12.864382 h 6.39584 l 13.41668,25.333352 V 12.864382 h 3.85417 z m 34.12502,-2.291669 q -2.54167,1.166668 -5.5625,2.041668 -3.00001,0.854168 -5.81251,0.854168 -3.625,0 -6.64584,-1.000001 -3.02083,-1.000001 -5.14583,-3.000002 -2.14584,-2.020835 -3.31251,-5.041671 -1.16666,-3.041669 -1.16666,-7.104172 0,-7.437505 4.33333,-11.729175 4.35417,-4.312503 11.93751,-4.312503 2.64584,0 5.39584,0.645834 2.77083,0.625 5.95834,2.145835 v 4.895837 h -0.375 q -0.64584,-0.500001 -1.87501,-1.312501 -1.22916,-0.812501 -2.41666,-1.354168 -1.4375,-0.645834 -3.27084,-1.062501 -1.8125,-0.4375 -4.125,-0.4375 -5.20834,0 -8.25001,3.354169 -3.02083,3.333336 -3.02083,9.041673 0,6.020838 3.16666,9.375007 3.16667,3.333336 8.62501,3.333336 2,0 3.97917,-0.395834 2,-0.395833 3.5,-1.020834 v -7.604172 h -8.3125 V 28.28106 h 12.39584 z"/>
	
		<path id="bottom_text" style="stroke:#000000;stroke-width:0.25;fill:#000000" transform="translate(-15,0) scale(0.74)" d="m 130.20101,174.21111 h -4.125 v -26.72919 l -8.625,18.18751 h -2.45834 l -8.56251,-18.18751 v 26.72919 h -3.85417 v -31.02086 h 5.62501 l 8.27084,17.27085 8,-17.27085 h 5.72917 z m 19.27085,0 h -12.25001 v -3.16667 h 4.06251 v -24.68752 h -4.06251 v -3.16667 h 12.25001 v 3.16667 h -4.0625 v 24.68752 h 4.0625 z m 30.68752,0 h -5.10417 l -14.70834,-27.75003 v 27.75003 h -3.85417 v -31.02086 h 6.39584 l 13.41668,25.33335 v -25.33335 h 3.85416 z m 28.68753,0 h -20.43752 v -31.02086 h 20.43752 v 3.66667 h -16.31252 v 8.5 h 16.31252 v 3.66667 h -16.31252 v 11.52085 h 16.31252 z m 30.20835,0 h -5.10417 l -14.70834,-27.75003 v 27.75003 h -3.85417 v -31.02086 h 6.39584 l 13.41667,25.33335 v -25.33335 h 3.85417 z m 14.81252,-31.02086 -0.54167,22.47918 h -3.54167 l -0.58333,-22.47918 z m -0.20834,31.02086 h -4.25 v -4.39584 h 4.25 z"/>
	</svg>
	
</svg>
